g Archer Helmet
v 8.029978E-08 0.1450314 0.4889117
v 0.05550115 0.1339916 0.4889117
v -1.285965E-14 -6.32883E-08 0.6568779
v 2.049028E-09 0.236503 0.3242109
v 0.09050577 0.2185003 0.3242109
v 0.1025527 0.1025527 0.4889117
v -1.285965E-14 -6.32883E-08 0.6568779
v -0.09050566 0.2185002 0.3242109
v -0.05550106 0.1339916 0.4889117
v -1.285965E-14 -6.32883E-08 0.6568779
v 3.989528E-09 0.2834558 0.1911441
v -0.1084737 0.261879 0.1911441
v 0.1672329 0.1672328 0.3242109
v 0.1084739 0.261879 0.1911441
v 0.1339916 0.05550111 0.4889117
v -1.285965E-14 -6.32883E-08 0.6568779
v -0.1672328 0.1672328 0.3242109
v -0.2004334 0.2004336 0.1911441
v -0.1025527 0.1025527 0.4889117
v -1.285965E-14 -6.32883E-08 0.6568779
v -0.1182254 0.2854217 0.05932442
v -0.2184522 0.2184523 0.05932442
v 1.219417E-07 0.3089382 0.05932442
v -0.2854216 0.1182256 0.05932442
v 0.1182256 0.2854217 0.05932442
v -0.2618789 0.1084739 0.1911441
v -0.3089382 1.002148E-07 0.05932442
v -0.2834558 7.827543E-08 0.1911441
v 0.2004336 0.2004335 0.1911441
v 0.2184523 0.2184523 0.05932442
v -0.2185002 0.09050579 0.3242109
v -0.236503 2.724774E-08 0.3242109
v -0.1339916 0.05550117 0.4889117
v -1.285965E-14 -6.32883E-08 0.6568779
v -0.1450315 2.147859E-08 0.4889117
v -1.285965E-14 -6.32883E-08 0.6568779
v 0.2618791 0.1084738 0.1911441
v 0.2854217 0.1182255 0.05932442
v 0.2185003 0.09050573 0.3242109
v 0.2834559 -6.802318E-08 0.1911441
v 0.3089382 -7.504971E-08 0.05932442
v 0.1450315 -3.499464E-08 0.4889117
v -1.285965E-14 -6.32883E-08 0.6568779
v 0.236503 -6.246295E-08 0.3242109
v 0.2618791 -0.108474 0.1911441
v 0.2854217 -0.1182256 0.05932442
v 0.1339916 -0.05550118 0.4889117
v -1.285965E-14 -6.32883E-08 0.6568779
v 0.2185003 -0.09050585 0.3242109
v 0.2004335 -0.2004336 0.1911441
v 0.2184523 -0.2184524 0.05932442
v 0.1025527 -0.1025528 0.4889117
v -1.285965E-14 -6.32883E-08 0.6568779
v 0.1672329 -0.1672329 0.3242109
v 0.1084738 -0.2618791 0.1911441
v 0.1182255 -0.2854218 0.05932442
v 0.05550112 -0.1339916 0.4889117
v -1.285965E-14 -6.32883E-08 0.6568779
v 0.09050576 -0.2185003 0.3242109
v -7.718268E-08 -0.2834559 0.1911441
v -8.677225E-08 -0.3089383 0.05932442
v -2.699934E-08 -0.1450315 0.4889117
v -1.285965E-14 -6.32883E-08 0.6568779
v -2.663276E-08 -0.236503 0.3242109
v -0.108474 -0.261879 0.1911441
v -0.1182256 -0.2854217 0.05932442
v -0.05550116 -0.1339916 0.4889117
v -1.285965E-14 -6.32883E-08 0.6568779
v -0.09050582 -0.2185003 0.3242109
v -0.2004336 -0.2004335 0.1911441
v -0.2184524 -0.2184522 0.05932442
v -0.1025527 -0.1025527 0.4889117
v -1.285965E-14 -6.32883E-08 0.6568779
v -0.1672329 -0.1672328 0.3242109
v -0.2618791 -0.1084738 0.1911441
v -0.2854217 -0.1182255 0.05932442
v -0.1339916 -0.05550113 0.4889117
v -1.285965E-14 -6.32883E-08 0.6568779
v -0.2185003 -0.09050574 0.3242109
v -0.2834558 7.827543E-08 0.1911441
v -0.3089382 1.002148E-07 0.05932442
v -0.236503 2.724774E-08 0.3242109
v -0.1450315 2.147859E-08 0.4889117
v -1.285965E-14 -6.32883E-08 0.6568779
v 0.3344139 0.1385187 0.02846176
v 0.3845551 0.1592878 -0.00931647
v 0.2943257 0.2943256 -0.009316467
v 0.2559493 0.2559493 0.02846176
v 0.3344138 -0.1385188 0.02846176
v 0.3845549 -0.159288 -0.009316506
v 0.4162393 -1.003305E-07 -0.00931649
v 0.3619669 -8.870841E-08 0.02846176
v -0.2559493 -0.2559492 0.02846176
v -0.2943258 -0.2943256 -0.009316466
v -0.159288 -0.3845549 -0.009316457
v -0.1385189 -0.3344138 0.02846176
v -0.3619669 1.270407E-07 0.02846176
v -0.4162393 1.771861E-07 -0.00931638
v -0.384555 -0.1592877 -0.009316441
v -0.3344139 -0.1385186 0.02846176
v -0.2559491 0.2559493 0.02846176
v -0.2943254 0.2943258 -0.009316377
v -0.3845549 0.159288 -0.009316361
v -0.3344137 0.1385189 0.02846176
v -0.2854217 -0.1182255 0.05932442
v -0.4106238 1.600397E-07 0.02154629
v -0.3089382 1.002148E-07 0.05932442
v -0.379367 -0.1571388 0.02154622
v -0.2184524 -0.2184522 0.05932442
v -0.290355 -0.2903548 0.0215462
v -0.1182256 -0.2854217 0.05932442
v -0.1571391 -0.379367 0.0215462
v -8.677225E-08 -0.3089383 0.05932442
v -1.206719E-07 -0.4106239 0.0215462
v 0.1182255 -0.2854218 0.05932442
v 0.1571389 -0.3793671 0.02154618
v 0.2184523 -0.2184524 0.05932442
v 0.2903549 -0.2903551 0.02154617
v 0.2854217 -0.1182256 0.05932442
v 0.379367 -0.1571391 0.02154616
v 0.3089382 -7.504971E-08 0.05932442
v 0.4106239 -9.975449E-08 0.02154617
v 0.2854217 0.1182255 0.05932442
v 0.3793671 0.1571389 0.02154619
v 0.2184523 0.2184523 0.05932442
v 0.290355 0.2903549 0.0215462
v 0.1182256 0.2854217 0.05932442
v 0.157139 0.379367 0.0215462
v 1.219417E-07 0.3089382 0.05932442
v 9.721128E-08 0.4106238 0.02154618
v -0.1182254 0.2854217 0.05932442
v -0.1571387 0.379367 0.02154623
v -0.2184522 0.2184523 0.05932442
v -0.2903548 0.290355 0.02154629
v -0.2854216 0.1182256 0.05932442
v -0.3793668 0.1571391 0.02154631
v -0.3089382 1.002148E-07 0.05932442
v -0.4106238 1.600397E-07 0.02154629
v -1.065523E-07 -0.361967 0.02846176
v -1.218891E-07 -0.4162393 -0.009316467
v 0.1592878 -0.384555 -0.009316477
v 0.1385187 -0.3344139 0.02846176
v 2.170713E-07 0.3619669 0.02846176
v 2.156184E-07 0.4162393 -0.00931649
v -0.1592877 0.384555 -0.009316437
v -0.1385185 0.3344139 0.02846176
v -0.4162393 1.771861E-07 -0.00931638
v -0.3793668 0.1571391 0.02154631
v -0.4106238 1.600397E-07 0.02154629
v -0.3845549 0.159288 -0.009316361
v -0.2903548 0.290355 0.02154629
v -0.2943254 0.2943258 -0.009316377
v -0.1571387 0.379367 0.02154623
v -0.1592877 0.384555 -0.009316437
v 9.721128E-08 0.4106238 0.02154618
v 2.156184E-07 0.4162393 -0.00931649
v 0.157139 0.379367 0.0215462
v 0.1592879 0.384555 -0.00931647
v 0.290355 0.2903549 0.0215462
v 0.2943257 0.2943256 -0.009316467
v 0.3793671 0.1571389 0.02154619
v 0.3845551 0.1592878 -0.00931647
v 0.4106239 -9.975449E-08 0.02154617
v 0.4162393 -1.003305E-07 -0.00931649
v 0.379367 -0.1571391 0.02154616
v 0.3845549 -0.159288 -0.009316506
v 0.2903549 -0.2903551 0.02154617
v 0.2943256 -0.2943257 -0.00931649
v 0.1571389 -0.3793671 0.02154618
v 0.1592878 -0.384555 -0.009316477
v -1.206719E-07 -0.4106239 0.0215462
v -1.218891E-07 -0.4162393 -0.009316467
v -0.1571391 -0.379367 0.0215462
v -0.159288 -0.3845549 -0.009316457
v -0.290355 -0.2903548 0.0215462
v -0.2943258 -0.2943256 -0.009316466
v -0.379367 -0.1571388 0.02154622
v -0.384555 -0.1592877 -0.009316441
v -0.4106238 1.600397E-07 0.02154629
v -0.4162393 1.771861E-07 -0.00931638
v 0.1385188 0.3344138 0.02846176
v 0.1592879 0.384555 -0.00931647
v 2.156184E-07 0.4162393 -0.00931649
v 2.170713E-07 0.3619669 0.02846176
v 0.1385187 -0.3344139 0.02846176
v 0.1592878 -0.384555 -0.009316477
v 0.2943256 -0.2943257 -0.00931649
v 0.2559492 -0.2559493 0.02846176
v -0.1385189 -0.3344138 0.02846176
v -0.159288 -0.3845549 -0.009316457
v -1.218891E-07 -0.4162393 -0.009316467
v -1.065523E-07 -0.361967 0.02846176
v -0.3344139 -0.1385186 0.02846176
v -0.384555 -0.1592877 -0.009316441
v -0.2943258 -0.2943256 -0.009316466
v -0.2559493 -0.2559492 0.02846176
v -0.3344137 0.1385189 0.02846176
v -0.3845549 0.159288 -0.009316361
v -0.4162393 1.771861E-07 -0.00931638
v -0.3619669 1.270407E-07 0.02846176
v -0.1385185 0.3344139 0.02846176
v -0.1592877 0.384555 -0.009316437
v -0.2943254 0.2943258 -0.009316377
v -0.2559491 0.2559493 0.02846176
v 0.2559493 0.2559493 0.02846176
v 0.2943257 0.2943256 -0.009316467
v 0.1592879 0.384555 -0.00931647
v 0.1385188 0.3344138 0.02846176
v 0.3619669 -8.870841E-08 0.02846176
v 0.4162393 -1.003305E-07 -0.00931649
v 0.3845551 0.1592878 -0.00931647
v 0.3344139 0.1385187 0.02846176
v 0.2559492 -0.2559493 0.02846176
v 0.2943256 -0.2943257 -0.00931649
v 0.3845549 -0.159288 -0.009316506
v 0.3344138 -0.1385188 0.02846176
vt 0.7499999 0.875
vt 0.6875 0.875
vt 0.7187499 1
vt 0.75 0.75
vt 0.6875 0.75
vt 0.625 0.875
vt 0.6562499 1
vt 0.8124999 0.7500001
vt 0.8124999 0.875
vt 0.7812499 1
vt 0.75 0.625
vt 0.8124999 0.6250001
vt 0.625 0.75
vt 0.6875 0.625
vt 0.5624999 0.875
vt 0.5937499 1
vt 0.8749999 0.7500001
vt 0.8749999 0.6250001
vt 0.8749999 0.875
vt 0.8437499 1
vt 0.8124999 0.547244
vt 0.8749999 0.547244
vt 0.7499999 0.547244
vt 0.9375 0.5472441
vt 0.6875 0.547244
vt 0.9374999 0.6250001
vt 1 0.547244
vt 1 0.6250001
vt 0.625 0.625
vt 0.6250001 0.5472441
vt 0.9374999 0.75
vt 1 0.75
vt 0.9374999 0.875
vt 0.90625 1
vt 1 0.875
vt 0.96875 1
vt 0.5625 0.625
vt 0.5625 0.547244
vt 0.5624999 0.75
vt 0.5 0.625
vt 0.4999999 0.547244
vt 0.5 0.875
vt 0.5312499 1
vt 0.5 0.75
vt 0.4375 0.625
vt 0.4374999 0.547244
vt 0.4375 0.875
vt 0.4687499 1
vt 0.4374999 0.75
vt 0.3749999 0.625
vt 0.3749999 0.547244
vt 0.3749999 0.875
vt 0.4062499 1
vt 0.375 0.75
vt 0.3125 0.625
vt 0.3125 0.5472441
vt 0.3125 0.875
vt 0.3437499 1
vt 0.3125 0.75
vt 0.25 0.625
vt 0.25 0.547244
vt 0.25 0.875
vt 0.28125 1
vt 0.25 0.75
vt 0.1875 0.625
vt 0.1875 0.5472441
vt 0.1875 0.875
vt 0.21875 1
vt 0.1875 0.75
vt 0.125 0.625
vt 0.125 0.547244
vt 0.125 0.875
vt 0.15625 1
vt 0.125 0.75
vt 0.0625 0.6250001
vt 0.06249997 0.5472441
vt 0.0625 0.875
vt 0.09375003 1
vt 0.0625 0.75
vt 0 0.6250001
vt 0 0.547244
vt 0 0.75
vt 0 0.875
vt 0.03125006 1
vt 0 0
vt 0 0
vt 0 0
vt 0 0
vt 0 0
vt 0 0
vt 0 0
vt 0 0
vt 0 0
vt 0 0
vt 0 0
vt 0 0
vt 0 0
vt 0 0
vt 0 0
vt 0 0
vt 0 0
vt 0 0
vt 0 0
vt 0 0
vt 0.06249997 0.5472441
vt 0 0.547244
vt 0 0.547244
vt 0.06249997 0.5472441
vt 0.125 0.547244
vt 0.125 0.547244
vt 0.1875 0.5472441
vt 0.1875 0.5472441
vt 0.25 0.547244
vt 0.25 0.547244
vt 0.3125 0.5472441
vt 0.3125 0.5472441
vt 0.3749999 0.547244
vt 0.3749999 0.547244
vt 0.4374999 0.547244
vt 0.4374999 0.547244
vt 0.4999999 0.547244
vt 0.4999999 0.547244
vt 0.5625 0.547244
vt 0.5625 0.547244
vt 0.6250001 0.5472441
vt 0.6250001 0.5472441
vt 0.6875 0.547244
vt 0.6875 0.547244
vt 0.7499999 0.547244
vt 0.7499999 0.547244
vt 0.8124999 0.547244
vt 0.8124999 0.547244
vt 0.8749999 0.547244
vt 0.8749999 0.547244
vt 0.9375 0.5472441
vt 0.9375 0.5472441
vt 1 0.547244
vt 1 0.547244
vt 0 0
vt 0 0
vt 0 0
vt 0 0
vt 0 0
vt 0 0
vt 0 0
vt 0 0
vt 1 0.5
vt 0.9375 0.5472441
vt 1 0.547244
vt 0.9374999 0.5
vt 0.8749999 0.547244
vt 0.8749999 0.5
vt 0.8124999 0.547244
vt 0.8124999 0.5
vt 0.7499999 0.547244
vt 0.7499999 0.5
vt 0.6875 0.547244
vt 0.6875 0.5
vt 0.6250001 0.5472441
vt 0.625 0.5
vt 0.5625 0.547244
vt 0.5624999 0.5
vt 0.4999999 0.547244
vt 0.5 0.5
vt 0.4374999 0.547244
vt 0.4374999 0.5
vt 0.3749999 0.547244
vt 0.3749999 0.5
vt 0.3125 0.5472441
vt 0.3125 0.5
vt 0.25 0.547244
vt 0.25 0.5
vt 0.1875 0.5472441
vt 0.1875 0.5
vt 0.125 0.547244
vt 0.125 0.5
vt 0.06249997 0.5472441
vt 0.06249994 0.5
vt 0 0.547244
vt 0 0.5
vt 0 0
vt 0 0
vt 0 0
vt 0 0
vt 0 0
vt 0 0
vt 0 0
vt 0 0
vt 0 0
vt 0 0
vt 0 0
vt 0 0
vt 0 0
vt 0 0
vt 0 0
vt 0 0
vt 0 0
vt 0 0
vt 0 0
vt 0 0
vt 0 0
vt 0 0
vt 0 0
vt 0 0
vt 0 0
vt 0 0
vt 0 0
vt 0 0
vt 0 0
vt 0 0
vt 0 0
vt 0 0
vt 0 0
vt 0 0
vt 0 0
vt 0 0
vn 0 0.823966 0.5666392
vn 0.3153181 0.7612454 0.5666392
vn 0 0 1
vn 0 0.9135478 0.4067314
vn 0.3495996 0.8440081 0.4067314
vn 0.5826319 0.5826321 0.5666393
vn 0 0 1
vn -0.3495996 0.8440081 0.4067313
vn -0.3153181 0.7612454 0.5666391
vn 0 0 1
vn 0 0.9656906 0.2596957
vn -0.3695537 0.8921817 0.2596957
vn 0.6459758 0.6459758 0.4067315
vn 0.3695537 0.8921817 0.2596958
vn 0.7612454 0.3153181 0.5666392
vn 0 0 1
vn -0.6459757 0.6459761 0.4067313
vn -0.682846 0.6828466 0.2596957
vn -0.5826315 0.5826324 0.5666392
vn 0 0 1
vn -0.3757274 0.9070863 0.1897986
vn -0.6942534 0.694254 0.1897986
vn 0 0.9818231 0.1897986
vn -0.907086 0.375728 0.1897986
vn 0.3757273 0.9070862 0.1897987
vn -0.8921815 0.3695542 0.2596956
vn -0.9818231 0 0.1897987
vn -0.9656906 0 0.2596956
vn 0.6828464 0.6828462 0.2596959
vn 0.6942537 0.6942538 0.1897985
vn -0.844008 0.3496 0.4067312
vn -0.9135479 0 0.4067312
vn -0.7612453 0.3153187 0.5666392
vn 0 0 1
vn -0.8239661 0 0.5666392
vn 0 0 1
vn 0.8921817 0.3695536 0.2596958
vn 0.9070863 0.3757274 0.1897984
vn 0.8440081 0.3495995 0.4067316
vn 0.9656904 0 0.2596958
vn 0.9818231 0 0.1897984
vn 0.8239661 0 0.5666392
vn 0 0 1
vn 0.9135477 0 0.4067315
vn 0.8921817 -0.3695538 0.2596959
vn 0.9070862 -0.3757276 0.1897985
vn 0.7612454 -0.3153181 0.5666391
vn 0 0 1
vn 0.8440081 -0.3495996 0.4067315
vn 0.6828462 -0.6828464 0.2596958
vn 0.6942535 -0.694254 0.1897984
vn 0.5826318 -0.5826322 0.5666392
vn 0 0 1
vn 0.6459758 -0.6459758 0.4067315
vn 0.3695534 -0.8921818 0.2596956
vn 0.3757271 -0.9070864 0.1897982
vn 0.315318 -0.7612455 0.5666391
vn 0 0 1
vn 0.3495994 -0.8440081 0.4067316
vn 0 -0.9656904 0.2596958
vn 0 -0.9818231 0.1897984
vn 0 -0.8239661 0.5666391
vn 0 0 1
vn 0 -0.9135477 0.4067316
vn -0.3695541 -0.8921815 0.2596958
vn -0.3757278 -0.907086 0.1897986
vn -0.3153182 -0.7612454 0.5666392
vn 0 0 1
vn -0.3495998 -0.844008 0.4067315
vn -0.6828465 -0.682846 0.2596957
vn -0.694254 -0.6942533 0.1897985
vn -0.5826321 -0.582632 0.5666392
vn 0 0 1
vn -0.6459759 -0.6459757 0.4067314
vn -0.8921819 -0.3695532 0.2596957
vn -0.9070864 -0.3757268 0.1897986
vn -0.7612454 -0.315318 0.5666391
vn 0 0 1
vn -0.8440083 -0.3495993 0.4067313
vn -0.9656906 0 0.2596956
vn -0.9818231 0 0.1897987
vn -0.9135479 0 0.4067312
vn -0.8239661 0 0.5666392
vn 0 0 1
vn -0.4812308 -0.3215483 -0.8154898
vn -0.4812308 -0.3215483 -0.8154898
vn -0.4812308 -0.3215483 -0.8154898
vn -0.4812308 -0.3215483 -0.8154898
vn -0.5676511 0.1129128 -0.8154894
vn -0.5676511 0.1129128 -0.8154894
vn -0.5676511 0.1129128 -0.8154894
vn -0.5676511 0.1129128 -0.8154894
vn 0.3215485 0.4812311 -0.8154895
vn 0.3215485 0.4812311 -0.8154895
vn 0.3215485 0.4812311 -0.8154895
vn 0.3215485 0.4812311 -0.8154895
vn 0.5676503 0.1129126 -0.81549
vn 0.5676503 0.1129126 -0.81549
vn 0.5676503 0.1129126 -0.81549
vn 0.5676503 0.1129126 -0.81549
vn 0.4812301 -0.3215482 -0.8154902
vn 0.4812301 -0.3215482 -0.8154902
vn 0.4812301 -0.3215482 -0.8154902
vn 0.4812301 -0.3215482 -0.8154902
vn -0.3217515 -0.1332738 0.9373975
vn -0.348261 0 0.9373976
vn -0.348261 0 0.9373976
vn -0.3217515 -0.1332738 0.9373975
vn -0.2462582 -0.246258 0.9373974
vn -0.2462582 -0.246258 0.9373974
vn -0.133274 -0.3217516 0.9373974
vn -0.133274 -0.3217516 0.9373974
vn 0 -0.3482615 0.9373974
vn 0 -0.3482615 0.9373974
vn 0.1332739 -0.3217518 0.9373974
vn 0.1332739 -0.3217518 0.9373974
vn 0.2462582 -0.2462583 0.9373973
vn 0.2462582 -0.2462583 0.9373973
vn 0.321752 -0.1332741 0.9373973
vn 0.3217519 -0.1332741 0.9373973
vn 0.3482617 0 0.9373974
vn 0.3482617 0 0.9373974
vn 0.3217518 0.1332739 0.9373974
vn 0.3217518 0.1332739 0.9373974
vn 0.2462582 0.2462581 0.9373974
vn 0.2462582 0.2462581 0.9373974
vn 0.1332739 0.3217518 0.9373974
vn 0.1332739 0.3217518 0.9373974
vn 0 0.3482617 0.9373974
vn 0 0.3482616 0.9373974
vn -0.1332735 0.3217516 0.9373975
vn -0.1332735 0.3217516 0.9373975
vn -0.2462574 0.2462578 0.9373977
vn -0.2462574 0.2462578 0.9373977
vn -0.321751 0.1332737 0.9373977
vn -0.321751 0.1332738 0.9373977
vn -0.348261 0 0.9373976
vn -0.348261 0 0.9373976
vn -0.1129127 0.5676509 -0.8154895
vn -0.1129127 0.5676509 -0.8154895
vn -0.1129127 0.5676509 -0.8154895
vn -0.1129127 0.5676509 -0.8154895
vn 0.1129123 -0.5676506 -0.8154898
vn 0.1129123 -0.5676506 -0.8154898
vn 0.1129123 -0.5676506 -0.8154898
vn 0.1129123 -0.5676506 -0.8154898
vn -0.9838471 0 0.1790107
vn -0.9089561 0.3765026 0.1790106
vn -0.9838471 0 0.1790107
vn -0.9089561 0.3765024 0.1790106
vn -0.6956849 0.6956852 0.17901
vn -0.6956844 0.6956857 0.17901
vn -0.3765018 0.9089563 0.1790109
vn -0.3765016 0.9089563 0.1790108
vn 0 0.983847 0.1790116
vn 0 0.983847 0.1790116
vn 0.3765021 0.9089561 0.179011
vn 0.3765019 0.9089562 0.179011
vn 0.6956851 0.6956849 0.1790105
vn 0.695685 0.695685 0.1790106
vn 0.9089564 0.3765019 0.1790101
vn 0.9089564 0.3765018 0.1790102
vn 0.9838476 0 0.1790088
vn 0.9838476 0 0.1790088
vn 0.9089565 -0.3765022 0.1790085
vn 0.9089565 -0.3765023 0.1790086
vn 0.695685 -0.6956854 0.1790085
vn 0.6956854 -0.6956851 0.1790085
vn 0.3765017 -0.9089568 0.1790082
vn 0.376502 -0.9089566 0.1790082
vn 0 -0.9838474 0.1790088
vn 0 -0.9838474 0.1790088
vn -0.3765023 -0.9089564 0.1790089
vn -0.3765025 -0.9089564 0.1790089
vn -0.6956853 -0.6956849 0.1790095
vn -0.6956855 -0.6956847 0.1790095
vn -0.9089565 -0.3765015 0.1790103
vn -0.9089566 -0.3765014 0.1790103
vn -0.9838471 0 0.1790107
vn -0.9838471 0 0.1790107
vn -0.1129127 -0.5676507 -0.8154897
vn -0.1129127 -0.5676507 -0.8154897
vn -0.1129127 -0.5676507 -0.8154897
vn -0.1129127 -0.5676507 -0.8154897
vn -0.3215485 0.4812315 -0.8154894
vn -0.3215485 0.4812315 -0.8154894
vn -0.3215485 0.4812315 -0.8154894
vn -0.3215485 0.4812315 -0.8154894
vn 0.112913 0.5676509 -0.8154895
vn 0.112913 0.5676509 -0.8154895
vn 0.112913 0.5676509 -0.8154895
vn 0.112913 0.5676509 -0.8154895
vn 0.481231 0.3215479 -0.8154898
vn 0.481231 0.3215479 -0.8154898
vn 0.481231 0.3215479 -0.8154898
vn 0.481231 0.3215479 -0.8154898
vn 0.5676497 -0.1129128 -0.8154903
vn 0.5676497 -0.1129128 -0.8154903
vn 0.5676497 -0.1129128 -0.8154903
vn 0.5676497 -0.1129128 -0.8154903
vn 0.3215476 -0.4812306 -0.8154902
vn 0.3215476 -0.4812306 -0.8154902
vn 0.3215476 -0.4812306 -0.8154902
vn 0.3215476 -0.4812306 -0.8154902
vn -0.3215481 -0.4812308 -0.8154898
vn -0.3215481 -0.4812308 -0.8154898
vn -0.3215481 -0.4812308 -0.8154898
vn -0.3215481 -0.4812308 -0.8154898
vn -0.5676509 -0.1129122 -0.8154897
vn -0.5676509 -0.1129122 -0.8154897
vn -0.5676509 -0.1129122 -0.8154897
vn -0.5676509 -0.1129122 -0.8154897
vn -0.4812312 0.3215485 -0.8154895
vn -0.4812312 0.3215485 -0.8154895
vn -0.4812312 0.3215485 -0.8154895
vn -0.4812312 0.3215485 -0.8154895
g Archer Helmet_0
f 3/3/3 2/2/2 1/1/1
f 1/1/1 2/2/2 4/4/4
f 2/2/2 5/5/5 4/4/4
f 2/2/2 6/6/6 5/5/5
f 7/7/7 6/6/6 2/2/2
f 1/1/1 4/4/4 8/8/8
f 9/9/9 1/1/1 8/8/8
f 10/10/10 1/1/1 9/9/9
f 4/4/4 5/5/5 11/11/11
f 8/8/8 4/4/4 12/12/12
f 4/4/4 11/11/11 12/12/12
f 6/6/6 13/13/13 5/5/5
f 5/5/5 14/14/14 11/11/11
f 5/5/5 13/13/13 14/14/14
f 6/6/6 15/15/15 13/13/13
f 16/16/16 15/15/15 6/6/6
f 9/9/9 8/8/8 17/17/17
f 8/8/8 12/12/12 18/18/18
f 17/17/17 8/8/8 18/18/18
f 19/19/19 9/9/9 17/17/17
f 20/20/20 9/9/9 19/19/19
f 12/12/12 11/11/11 21/21/21
f 12/12/12 21/21/21 22/22/22
f 18/18/18 12/12/12 22/22/22
f 11/11/11 23/23/23 21/21/21
f 11/11/11 14/14/14 23/23/23
f 18/18/18 22/22/22 24/24/24
f 14/14/14 25/25/25 23/23/23
f 26/26/26 18/18/18 24/24/24
f 17/17/17 18/18/18 26/26/26
f 26/26/26 24/24/24 27/27/27
f 28/28/28 26/26/26 27/27/27
f 14/14/14 29/29/29 25/25/25
f 29/29/29 30/30/30 25/25/25
f 13/13/13 29/29/29 14/14/14
f 31/31/31 17/17/17 26/26/26
f 31/31/31 26/26/26 28/28/28
f 19/19/19 17/17/17 31/31/31
f 32/32/32 31/31/31 28/28/28
f 33/33/33 19/19/19 31/31/31
f 33/33/33 31/31/31 32/32/32
f 34/34/34 19/19/19 33/33/33
f 35/35/35 33/33/33 32/32/32
f 36/36/36 33/33/33 35/35/35
f 29/29/29 37/37/37 30/30/30
f 37/37/37 38/38/38 30/30/30
f 13/13/13 39/39/39 29/29/29
f 39/39/39 37/37/37 29/29/29
f 15/15/15 39/39/39 13/13/13
f 37/37/37 40/40/40 38/38/38
f 40/40/40 41/41/41 38/38/38
f 15/15/15 42/42/42 39/39/39
f 43/43/43 42/42/42 15/15/15
f 39/39/39 44/44/44 37/37/37
f 42/42/42 44/44/44 39/39/39
f 44/44/44 40/40/40 37/37/37
f 40/40/40 45/45/45 41/41/41
f 45/45/45 46/46/46 41/41/41
f 42/42/42 47/47/47 44/44/44
f 48/48/48 47/47/47 42/42/42
f 44/44/44 49/49/49 40/40/40
f 47/47/47 49/49/49 44/44/44
f 49/49/49 45/45/45 40/40/40
f 45/45/45 50/50/50 46/46/46
f 50/50/50 51/51/51 46/46/46
f 47/47/47 52/52/52 49/49/49
f 53/53/53 52/52/52 47/47/47
f 49/49/49 54/54/54 45/45/45
f 52/52/52 54/54/54 49/49/49
f 54/54/54 50/50/50 45/45/45
f 50/50/50 55/55/55 51/51/51
f 55/55/55 56/56/56 51/51/51
f 52/52/52 57/57/57 54/54/54
f 58/58/58 57/57/57 52/52/52
f 54/54/54 59/59/59 50/50/50
f 57/57/57 59/59/59 54/54/54
f 59/59/59 55/55/55 50/50/50
f 55/55/55 60/60/60 56/56/56
f 60/60/60 61/61/61 56/56/56
f 57/57/57 62/62/62 59/59/59
f 63/63/63 62/62/62 57/57/57
f 59/59/59 64/64/64 55/55/55
f 62/62/62 64/64/64 59/59/59
f 64/64/64 60/60/60 55/55/55
f 60/60/60 65/65/65 61/61/61
f 65/65/65 66/66/66 61/61/61
f 62/62/62 67/67/67 64/64/64
f 68/68/68 67/67/67 62/62/62
f 64/64/64 69/69/69 60/60/60
f 67/67/67 69/69/69 64/64/64
f 69/69/69 65/65/65 60/60/60
f 65/65/65 70/70/70 66/66/66
f 70/70/70 71/71/71 66/66/66
f 67/67/67 72/72/72 69/69/69
f 73/73/73 72/72/72 67/67/67
f 69/69/69 74/74/74 65/65/65
f 72/72/72 74/74/74 69/69/69
f 74/74/74 70/70/70 65/65/65
f 70/70/70 75/75/75 71/71/71
f 75/75/75 76/76/76 71/71/71
f 72/72/72 77/77/77 74/74/74
f 78/78/78 77/77/77 72/72/72
f 74/74/74 79/79/79 70/70/70
f 77/77/77 79/79/79 74/74/74
f 79/79/79 75/75/75 70/70/70
f 75/75/75 80/80/80 76/76/76
f 80/80/80 81/81/81 76/76/76
f 82/82/82 80/80/80 75/75/75
f 79/79/79 82/82/82 75/75/75
f 83/83/83 82/82/82 79/79/79
f 77/77/77 83/83/83 79/79/79
f 84/84/84 83/83/83 77/77/77
f 87/87/87 86/86/86 85/85/85
f 88/88/88 87/87/87 85/85/85
f 91/91/91 90/90/90 89/89/89
f 92/92/92 91/91/91 89/89/89
f 95/95/95 94/94/94 93/93/93
f 96/96/96 95/95/95 93/93/93
f 99/99/99 98/98/98 97/97/97
f 100/100/100 99/99/99 97/97/97
f 103/103/103 102/102/102 101/101/101
f 104/104/104 103/103/103 101/101/101
f 107/107/107 106/106/106 105/105/105
f 106/106/106 108/108/108 105/105/105
f 105/105/105 108/108/108 109/109/109
f 108/108/108 110/110/110 109/109/109
f 109/109/109 110/110/110 111/111/111
f 110/110/110 112/112/112 111/111/111
f 111/111/111 112/112/112 113/113/113
f 112/112/112 114/114/114 113/113/113
f 113/113/113 114/114/114 115/115/115
f 114/114/114 116/116/116 115/115/115
f 115/115/115 116/116/116 117/117/117
f 116/116/116 118/118/118 117/117/117
f 117/117/117 118/118/118 119/119/119
f 118/118/118 120/120/120 119/119/119
f 119/119/119 120/120/120 121/121/121
f 120/120/120 122/122/122 121/121/121
f 121/121/121 122/122/122 123/123/123
f 122/122/122 124/124/124 123/123/123
f 123/123/123 124/124/124 125/125/125
f 124/124/124 126/126/126 125/125/125
f 125/125/125 126/126/126 127/127/127
f 126/126/126 128/128/128 127/127/127
f 127/127/127 128/128/128 129/129/129
f 128/128/128 130/130/130 129/129/129
f 129/129/129 130/130/130 131/131/131
f 130/130/130 132/132/132 131/131/131
f 131/131/131 132/132/132 133/133/133
f 132/132/132 134/134/134 133/133/133
f 133/133/133 134/134/134 135/135/135
f 134/134/134 136/136/136 135/135/135
f 135/135/135 136/136/136 137/137/137
f 136/136/136 138/138/138 137/137/137
f 141/141/141 140/140/140 139/139/139
f 142/142/142 141/141/141 139/139/139
f 145/145/145 144/144/144 143/143/143
f 146/146/146 145/145/145 143/143/143
f 149/149/149 148/148/148 147/147/147
f 148/148/148 150/150/150 147/147/147
f 148/148/148 151/151/151 150/150/150
f 151/151/151 152/152/152 150/150/150
f 151/151/151 153/153/153 152/152/152
f 153/153/153 154/154/154 152/152/152
f 153/153/153 155/155/155 154/154/154
f 155/155/155 156/156/156 154/154/154
f 155/155/155 157/157/157 156/156/156
f 157/157/157 158/158/158 156/156/156
f 157/157/157 159/159/159 158/158/158
f 159/159/159 160/160/160 158/158/158
f 159/159/159 161/161/161 160/160/160
f 161/161/161 162/162/162 160/160/160
f 161/161/161 163/163/163 162/162/162
f 163/163/163 164/164/164 162/162/162
f 163/163/163 165/165/165 164/164/164
f 165/165/165 166/166/166 164/164/164
f 165/165/165 167/167/167 166/166/166
f 167/167/167 168/168/168 166/166/166
f 167/167/167 169/169/169 168/168/168
f 169/169/169 170/170/170 168/168/168
f 169/169/169 171/171/171 170/170/170
f 171/171/171 172/172/172 170/170/170
f 171/171/171 173/173/173 172/172/172
f 173/173/173 174/174/174 172/172/172
f 173/173/173 175/175/175 174/174/174
f 175/175/175 176/176/176 174/174/174
f 175/175/175 177/177/177 176/176/176
f 177/177/177 178/178/178 176/176/176
f 177/177/177 179/179/179 178/178/178
f 179/179/179 180/180/180 178/178/178
f 183/183/183 182/182/182 181/181/181
f 184/184/184 183/183/183 181/181/181
f 187/187/187 186/186/186 185/185/185
f 188/188/188 187/187/187 185/185/185
f 191/191/191 190/190/190 189/189/189
f 192/192/192 191/191/191 189/189/189
f 195/195/195 194/194/194 193/193/193
f 196/196/196 195/195/195 193/193/193
f 199/199/199 198/198/198 197/197/197
f 200/200/200 199/199/199 197/197/197
f 203/203/203 202/202/202 201/201/201
f 204/204/204 203/203/203 201/201/201
f 207/207/207 206/206/206 205/205/205
f 208/208/208 207/207/207 205/205/205
f 211/211/211 210/210/210 209/209/209
f 212/212/212 211/211/211 209/209/209
f 215/215/215 214/214/214 213/213/213
f 216/216/216 215/215/215 213/213/213
