g ArcherSunHelmet
v -2.947695E-08 0.1632608 0.4480848
v 0.06247711 0.1508333 0.4480848
v -1.285965E-14 -6.32883E-08 0.5662953
v 2.049028E-09 0.236503 0.3242109
v 0.09050577 0.2185003 0.3242109
v 0.1154428 0.1154428 0.4480848
v -1.285965E-14 -6.32883E-08 0.5662953
v -0.09050566 0.2185002 0.3242109
v -0.06247726 0.1508333 0.4480848
v -1.285965E-14 -6.32883E-08 0.5662953
v 3.989528E-09 0.2834558 0.1911441
v -0.1084737 0.261879 0.1911441
v 0.1672329 0.1672328 0.3242109
v 0.1084739 0.261879 0.1911441
v 0.1508333 0.06247717 0.4480848
v -1.285965E-14 -6.32883E-08 0.5662953
v -0.1672328 0.1672328 0.3242109
v -0.2004334 0.2004336 0.1911441
v -0.1154429 0.1154429 0.4480848
v -1.285965E-14 -6.32883E-08 0.5662953
v -0.1182254 0.2854217 0.05932442
v -0.2184522 0.2184523 0.05932442
v 1.219417E-07 0.3089382 0.05932442
v -0.2854216 0.1182256 0.05932442
v 0.1182256 0.2854217 0.05932442
v -0.2618789 0.1084739 0.1911441
v -0.3089382 1.002148E-07 0.05932442
v -0.2834558 7.827543E-08 0.1911441
v 0.2004336 0.2004335 0.1911441
v 0.2184523 0.2184523 0.05932442
v -0.2185002 0.09050579 0.3242109
v -0.236503 2.724774E-08 0.3242109
v -0.1508334 0.06247724 0.4480848
v -1.285965E-14 -6.32883E-08 0.5662953
v -0.163261 9.194565E-09 0.4480848
v -1.285965E-14 -6.32883E-08 0.5662953
v 0.2618791 0.1084738 0.1911441
v 0.2854217 0.1182255 0.05932442
v 0.2185003 0.09050573 0.3242109
v 0.2834559 -6.802318E-08 0.1911441
v 0.3089382 -7.504971E-08 0.05932442
v 0.1632607 -5.437694E-08 0.4480848
v -1.285965E-14 -6.32883E-08 0.5662953
v 0.236503 -6.246295E-08 0.3242109
v 0.2618791 -0.108474 0.1911441
v 0.2854217 -0.1182256 0.05932442
v 0.1508333 -0.06247728 0.4480848
v -1.285965E-14 -6.32883E-08 0.5662953
v 0.2185003 -0.09050585 0.3242109
v 0.2004335 -0.2004336 0.1911441
v 0.2184523 -0.2184524 0.05932442
v 0.1154427 -0.1154429 0.4480848
v -1.285965E-14 -6.32883E-08 0.5662953
v 0.1672329 -0.1672329 0.3242109
v 0.1084738 -0.2618791 0.1911441
v 0.1182255 -0.2854218 0.05932442
v 0.06247708 -0.1508334 0.4480848
v -1.285965E-14 -6.32883E-08 0.5662953
v 0.09050576 -0.2185003 0.3242109
v -7.718268E-08 -0.2834559 0.1911441
v -8.677225E-08 -0.3089383 0.05932442
v -1.502628E-07 -0.1632609 0.4480848
v -1.285965E-14 -6.32883E-08 0.5662953
v -2.663276E-08 -0.236503 0.3242109
v -0.108474 -0.261879 0.1911441
v -0.1182256 -0.2854217 0.05932442
v -0.06247737 -0.1508334 0.4480848
v -1.285965E-14 -6.32883E-08 0.5662953
v -0.09050582 -0.2185003 0.3242109
v -0.2004336 -0.2004335 0.1911441
v -0.2184524 -0.2184522 0.05932442
v -0.115443 -0.1154428 0.4480848
v -1.285965E-14 -6.32883E-08 0.5662953
v -0.1672329 -0.1672328 0.3242109
v -0.2618791 -0.1084738 0.1911441
v -0.2854217 -0.1182255 0.05932442
v -0.1508335 -0.06247723 0.4480848
v -1.285965E-14 -6.32883E-08 0.5662953
v -0.2185003 -0.09050574 0.3242109
v -0.2834558 7.827543E-08 0.1911441
v -0.3089382 1.002148E-07 0.05932442
v -0.236503 2.724774E-08 0.3242109
v -0.163261 9.194565E-09 0.4480848
v -1.285965E-14 -6.32883E-08 0.5662953
v -0.2854217 -0.1182255 0.05932442
v -0.5970417 2.057668E-07 -0.04563265
v -0.3089382 1.002148E-07 0.05932442
v -0.5515947 -0.2284779 -0.04563275
v -0.2184524 -0.2184522 0.05932442
v -0.4221725 -0.4221722 -0.04563278
v -0.1182256 -0.2854217 0.05932442
v -0.2284782 -0.5515949 -0.1093733
v -8.677225E-08 -0.3089383 0.05932442
v -1.484342E-07 -0.5970419 -0.1093733
v 0.1182255 -0.2854218 0.05932442
v 0.228478 -0.551595 -0.1093734
v 0.2184523 -0.2184524 0.05932442
v 0.4221723 -0.4221726 -0.04563281
v 0.2854217 -0.1182256 0.05932442
v 0.5515947 -0.2284782 -0.04563283
v 0.3089382 -7.504971E-08 0.05932442
v 0.597042 -1.719706E-07 -0.04563281
v 0.2854217 0.1182255 0.05932442
v 0.5515948 0.2284779 -0.04563279
v 0.2184523 0.2184523 0.05932442
v 0.4221724 0.4221723 -0.04563278
v 0.1182256 0.2854217 0.05932442
v 0.2284781 0.5515947 0.09946047
v 1.219417E-07 0.3089382 0.05932442
v 1.68365E-07 0.5970418 0.1509696
v -0.1182254 0.2854217 0.05932442
v -0.2284777 0.5515947 0.09946051
v -0.2184522 0.2184523 0.05932442
v -0.4221721 0.4221724 -0.04563265
v -0.2854216 0.1182256 0.05932442
v -0.5515945 0.2284782 -0.04563263
v -0.3089382 1.002148E-07 0.05932442
v -0.5970417 2.057668E-07 -0.04563265
v -0.6052065 2.306974E-07 -0.09050658
v -0.5515945 0.2284782 -0.04563263
v -0.5970417 2.057668E-07 -0.04563265
v -0.5591378 0.2316028 -0.09050654
v -0.4221721 0.4221724 -0.04563265
v -0.4279453 0.4279459 -0.09050656
v -0.2284777 0.5515947 0.09946051
v -0.2316022 0.5591381 0.0545866
v 1.68365E-07 0.5970418 0.1509696
v 3.405275E-07 0.6052065 0.1060956
v 0.2284781 0.5515947 0.09946047
v 0.2316025 0.559138 0.05458654
v 0.4221724 0.4221723 -0.04563278
v 0.4279458 0.4279457 -0.0905067
v 0.5515948 0.2284779 -0.04563279
v 0.5591382 0.2316025 -0.0905067
v 0.597042 -1.719706E-07 -0.04563281
v 0.6052066 -1.728082E-07 -0.09050674
v 0.5515947 -0.2284782 -0.04563283
v 0.5591379 -0.2316027 -0.09050676
v 0.4221723 -0.4221726 -0.04563281
v 0.4279457 -0.4279458 -0.09050674
v 0.228478 -0.551595 -0.1093734
v 0.2316025 -0.5591381 -0.1542473
v -1.484342E-07 -0.5970419 -0.1093733
v -1.502041E-07 -0.6052066 -0.1542473
v -0.2284782 -0.5515949 -0.1093733
v -0.2316027 -0.559138 -0.1542472
v -0.4221725 -0.4221722 -0.04563278
v -0.4279459 -0.4279456 -0.0905067
v -0.5515947 -0.2284779 -0.04563275
v -0.5591381 -0.2316024 -0.09050667
v -0.5970417 2.057668E-07 -0.04563265
v -0.6052065 2.306974E-07 -0.09050658
vt 0.7499999 0.875
vt 0.6875 0.875
vt 0.7187499 1
vt 0.75 0.75
vt 0.6875 0.75
vt 0.625 0.875
vt 0.6562499 1
vt 0.8124999 0.7500001
vt 0.8124999 0.875
vt 0.7812499 1
vt 0.75 0.625
vt 0.8124999 0.6250001
vt 0.625 0.75
vt 0.6875 0.625
vt 0.5624999 0.875
vt 0.5937499 1
vt 0.8749999 0.7500001
vt 0.8749999 0.6250001
vt 0.8749999 0.875
vt 0.8437499 1
vt 0.8124999 0.547244
vt 0.8749999 0.547244
vt 0.7499999 0.547244
vt 0.9375 0.5472441
vt 0.6875 0.547244
vt 0.9374999 0.6250001
vt 1 0.547244
vt 1 0.6250001
vt 0.625 0.625
vt 0.6250001 0.5472441
vt 0.9374999 0.75
vt 1 0.75
vt 0.9374999 0.875
vt 0.90625 1
vt 1 0.875
vt 0.96875 1
vt 0.5625 0.625
vt 0.5625 0.547244
vt 0.5624999 0.75
vt 0.5 0.625
vt 0.4999999 0.547244
vt 0.5 0.875
vt 0.5312499 1
vt 0.5 0.75
vt 0.4375 0.625
vt 0.4374999 0.547244
vt 0.4375 0.875
vt 0.4687499 1
vt 0.4374999 0.75
vt 0.3749999 0.625
vt 0.3749999 0.547244
vt 0.3749999 0.875
vt 0.4062499 1
vt 0.375 0.75
vt 0.3125 0.625
vt 0.3125 0.5472441
vt 0.3125 0.875
vt 0.3437499 1
vt 0.3125 0.75
vt 0.25 0.625
vt 0.25 0.547244
vt 0.25 0.875
vt 0.28125 1
vt 0.25 0.75
vt 0.1875 0.625
vt 0.1875 0.5472441
vt 0.1875 0.875
vt 0.21875 1
vt 0.1875 0.75
vt 0.125 0.625
vt 0.125 0.547244
vt 0.125 0.875
vt 0.15625 1
vt 0.125 0.75
vt 0.0625 0.6250001
vt 0.06249997 0.5472441
vt 0.0625 0.875
vt 0.09375003 1
vt 0.0625 0.75
vt 0 0.6250001
vt 0 0.547244
vt 0 0.75
vt 0 0.875
vt 0.03125006 1
vt 0.06249997 0.5472441
vt 0 0.547244
vt 0 0.547244
vt 0.06249997 0.5472441
vt 0.125 0.547244
vt 0.125 0.547244
vt 0.1875 0.5472441
vt 0.1875 0.5472441
vt 0.25 0.547244
vt 0.25 0.547244
vt 0.3125 0.5472441
vt 0.3125 0.5472441
vt 0.3749999 0.547244
vt 0.3749999 0.547244
vt 0.4374999 0.547244
vt 0.4374999 0.547244
vt 0.4999999 0.547244
vt 0.4999999 0.547244
vt 0.5625 0.547244
vt 0.5625 0.547244
vt 0.6250001 0.5472441
vt 0.6250001 0.5472441
vt 0.6875 0.547244
vt 0.6875 0.547244
vt 0.7499999 0.547244
vt 0.7499999 0.547244
vt 0.8124999 0.547244
vt 0.8124999 0.547244
vt 0.8749999 0.547244
vt 0.8749999 0.547244
vt 0.9375 0.5472441
vt 0.9375 0.5472441
vt 1 0.547244
vt 1 0.547244
vt 1 0.5
vt 0.9375 0.5472441
vt 1 0.547244
vt 0.9374999 0.5
vt 0.8749999 0.547244
vt 0.8749999 0.5
vt 0.8124999 0.547244
vt 0.8124999 0.5
vt 0.7499999 0.547244
vt 0.7499999 0.5
vt 0.6875 0.547244
vt 0.6875 0.5
vt 0.6250001 0.5472441
vt 0.625 0.5
vt 0.5625 0.547244
vt 0.5624999 0.5
vt 0.4999999 0.547244
vt 0.5 0.5
vt 0.4374999 0.547244
vt 0.4374999 0.5
vt 0.3749999 0.547244
vt 0.3749999 0.5
vt 0.3125 0.5472441
vt 0.3125 0.5
vt 0.25 0.547244
vt 0.25 0.5
vt 0.1875 0.5472441
vt 0.1875 0.5
vt 0.125 0.547244
vt 0.125 0.5
vt 0.06249997 0.5472441
vt 0.06249994 0.5
vt 0 0.547244
vt 0 0.5
vn 0 0.750208 0.6612018
vn 0.2870922 0.6931018 0.6612019
vn 0 0 1
vn 0 0.9083127 0.4182919
vn 0.3475962 0.8391715 0.418292
vn 0.5304771 0.5304772 0.661202
vn 0 0 1
vn -0.3475963 0.8391715 0.4182917
vn -0.2870923 0.6931019 0.6612017
vn 0 0 1
vn 0 0.9656906 0.2596957
vn -0.3695537 0.8921817 0.2596957
vn 0.642274 0.6422738 0.4182922
vn 0.3695537 0.8921817 0.2596958
vn 0.6931018 0.2870921 0.661202
vn 0 0 1
vn -0.642274 0.6422744 0.4182915
vn -0.682846 0.6828466 0.2596957
vn -0.5304772 0.5304774 0.6612016
vn 0 0 1
vn -0.3757274 0.9070863 0.1897986
vn -0.6942534 0.694254 0.1897986
vn 0 0.9818231 0.1897986
vn -0.907086 0.375728 0.1897986
vn 0.3757273 0.9070862 0.1897987
vn -0.8921815 0.3695542 0.2596956
vn -0.9818231 0 0.1897987
vn -0.9656906 0 0.2596956
vn 0.6828464 0.6828462 0.2596959
vn 0.6942537 0.6942538 0.1897985
vn -0.8391715 0.3475967 0.4182914
vn -0.9083129 0 0.4182914
vn -0.6931018 0.2870927 0.6612016
vn 0 0 1
vn -0.7502083 0 0.6612017
vn 0 0 1
vn 0.8921817 0.3695536 0.2596958
vn 0.9070863 0.3757274 0.1897984
vn 0.8391713 0.347596 0.4182923
vn 0.9656904 0 0.2596958
vn 0.9818231 0 0.1897984
vn 0.750208 0 0.6612018
vn 0 0 1
vn 0.9083126 0 0.4182923
vn 0.8921817 -0.3695538 0.2596959
vn 0.9070862 -0.3757276 0.1897985
vn 0.6931018 -0.2870921 0.6612018
vn 0 0 1
vn 0.8391713 -0.3475961 0.4182922
vn 0.6828462 -0.6828464 0.2596958
vn 0.6942535 -0.694254 0.1897984
vn 0.5304769 -0.5304774 0.661202
vn 0 0 1
vn 0.642274 -0.642274 0.4182922
vn 0.3695534 -0.8921818 0.2596956
vn 0.3757271 -0.9070864 0.1897982
vn 0.2870918 -0.693102 0.6612018
vn 0 0 1
vn 0.3475959 -0.8391715 0.4182921
vn 0 -0.9656904 0.2596958
vn 0 -0.9818231 0.1897984
vn 0 -0.7502082 0.6612017
vn 0 0 1
vn 0 -0.9083127 0.4182919
vn -0.3695541 -0.8921815 0.2596958
vn -0.3757278 -0.907086 0.1897986
vn -0.2870927 -0.6931019 0.6612016
vn 0 0 1
vn -0.3475965 -0.8391715 0.4182917
vn -0.6828465 -0.682846 0.2596957
vn -0.694254 -0.6942533 0.1897985
vn -0.5304777 -0.5304771 0.6612015
vn 0 0 1
vn -0.6422743 -0.642274 0.4182917
vn -0.8921819 -0.3695532 0.2596957
vn -0.9070864 -0.3757268 0.1897986
vn -0.6931022 -0.2870921 0.6612015
vn 0 0 1
vn -0.8391717 -0.347596 0.4182915
vn -0.9656906 0 0.2596956
vn -0.9818231 0 0.1897987
vn -0.9083129 0 0.4182914
vn -0.7502083 0 0.6612017
vn 0 0 1
vn -0.3162409 -0.1309912 0.9395919
vn -0.3422965 0 0.939592
vn -0.3422965 0 0.939592
vn -0.3162409 -0.1309913 0.9395919
vn -0.2001864 -0.3241587 0.9245792
vn -0.1970139 -0.3285229 0.9237197
vn -0.1029585 -0.4749677 0.8739594
vn -0.102816 -0.4763435 0.8732272
vn 0 -0.5052944 0.8629469
vn 0 -0.5052944 0.8629469
vn 0.1029582 -0.4749679 0.8739594
vn 0.1028157 -0.4763437 0.8732272
vn 0.2001861 -0.3241588 0.9245791
vn 0.1970137 -0.328523 0.9237197
vn 0.316241 -0.1309914 0.9395918
vn 0.316241 -0.1309914 0.9395918
vn 0.3422967 0 0.9395919
vn 0.3422967 0 0.9395919
vn 0.316241 0.1309913 0.9395919
vn 0.316241 0.1309913 0.9395919
vn 0.335554 0.03618769 0.9413256
vn 0.332977 0.04590929 0.9418167
vn 0.2360905 -0.1872346 0.9535221
vn 0.2319897 -0.1890842 0.9541634
vn 0 -0.249031 0.9684955
vn 0 -0.249031 0.9684955
vn -0.2360904 -0.1872344 0.9535222
vn -0.2319895 -0.1890842 0.9541636
vn -0.3355537 0.03618779 0.9413257
vn -0.3329767 0.04590933 0.9418167
vn -0.3162405 0.1309913 0.939592
vn -0.3162405 0.1309913 0.939592
vn -0.3422965 0 0.939592
vn -0.3422965 0 0.939592
vn -0.983847 0 0.1790116
vn -0.9089561 0.3765025 0.1790109
vn -0.983847 0 0.1790116
vn -0.9089561 0.3765023 0.1790109
vn -0.7193918 0.6717371 0.1767616
vn -0.752776 0.6340604 0.1769056
vn -0.3875223 0.9042086 0.1795361
vn -0.4883573 0.8540009 0.1794146
vn 0 0.9835988 0.1803697
vn 0 0.9835988 0.1803698
vn 0.3875227 0.9042082 0.1795372
vn 0.4883577 0.8540006 0.1794151
vn 0.719392 0.6717367 0.1767622
vn 0.7527764 0.6340597 0.1769066
vn 0.9089563 0.3765018 0.1790109
vn 0.9089563 0.3765016 0.1790109
vn 0.9838476 0 0.1790085
vn 0.9838476 0 0.1790085
vn 0.9089566 -0.3765022 0.1790083
vn 0.9089566 -0.3765024 0.1790083
vn 0.6926261 -0.6985353 0.1797708
vn 0.6659893 -0.7239778 0.1797618
vn 0.3664742 -0.9132227 0.1781037
vn 0.3396648 -0.9235277 0.1781136
vn 0 -0.9838477 0.179008
vn 0 -0.9838477 0.179008
vn -0.3664744 -0.9132226 0.1781041
vn -0.339665 -0.9235276 0.1781136
vn -0.6926262 -0.6985344 0.1797735
vn -0.665989 -0.7239775 0.1797646
vn -0.9089561 -0.3765016 0.1790117
vn -0.9089563 -0.3765013 0.1790118
vn -0.983847 0 0.1790116
vn -0.983847 0 0.1790116
g ArcherSunHelmet_0
f 3/3/3 2/2/2 1/1/1
f 1/1/1 2/2/2 4/4/4
f 2/2/2 5/5/5 4/4/4
f 2/2/2 6/6/6 5/5/5
f 7/7/7 6/6/6 2/2/2
f 1/1/1 4/4/4 8/8/8
f 9/9/9 1/1/1 8/8/8
f 10/10/10 1/1/1 9/9/9
f 4/4/4 5/5/5 11/11/11
f 8/8/8 4/4/4 12/12/12
f 4/4/4 11/11/11 12/12/12
f 6/6/6 13/13/13 5/5/5
f 5/5/5 14/14/14 11/11/11
f 5/5/5 13/13/13 14/14/14
f 6/6/6 15/15/15 13/13/13
f 16/16/16 15/15/15 6/6/6
f 9/9/9 8/8/8 17/17/17
f 8/8/8 12/12/12 18/18/18
f 17/17/17 8/8/8 18/18/18
f 19/19/19 9/9/9 17/17/17
f 20/20/20 9/9/9 19/19/19
f 12/12/12 11/11/11 21/21/21
f 12/12/12 21/21/21 22/22/22
f 18/18/18 12/12/12 22/22/22
f 11/11/11 23/23/23 21/21/21
f 11/11/11 14/14/14 23/23/23
f 18/18/18 22/22/22 24/24/24
f 14/14/14 25/25/25 23/23/23
f 26/26/26 18/18/18 24/24/24
f 17/17/17 18/18/18 26/26/26
f 26/26/26 24/24/24 27/27/27
f 28/28/28 26/26/26 27/27/27
f 14/14/14 29/29/29 25/25/25
f 29/29/29 30/30/30 25/25/25
f 13/13/13 29/29/29 14/14/14
f 31/31/31 17/17/17 26/26/26
f 31/31/31 26/26/26 28/28/28
f 19/19/19 17/17/17 31/31/31
f 32/32/32 31/31/31 28/28/28
f 33/33/33 19/19/19 31/31/31
f 33/33/33 31/31/31 32/32/32
f 34/34/34 19/19/19 33/33/33
f 35/35/35 33/33/33 32/32/32
f 36/36/36 33/33/33 35/35/35
f 29/29/29 37/37/37 30/30/30
f 37/37/37 38/38/38 30/30/30
f 13/13/13 39/39/39 29/29/29
f 39/39/39 37/37/37 29/29/29
f 15/15/15 39/39/39 13/13/13
f 37/37/37 40/40/40 38/38/38
f 40/40/40 41/41/41 38/38/38
f 15/15/15 42/42/42 39/39/39
f 43/43/43 42/42/42 15/15/15
f 39/39/39 44/44/44 37/37/37
f 42/42/42 44/44/44 39/39/39
f 44/44/44 40/40/40 37/37/37
f 40/40/40 45/45/45 41/41/41
f 45/45/45 46/46/46 41/41/41
f 42/42/42 47/47/47 44/44/44
f 48/48/48 47/47/47 42/42/42
f 44/44/44 49/49/49 40/40/40
f 47/47/47 49/49/49 44/44/44
f 49/49/49 45/45/45 40/40/40
f 45/45/45 50/50/50 46/46/46
f 50/50/50 51/51/51 46/46/46
f 47/47/47 52/52/52 49/49/49
f 53/53/53 52/52/52 47/47/47
f 49/49/49 54/54/54 45/45/45
f 52/52/52 54/54/54 49/49/49
f 54/54/54 50/50/50 45/45/45
f 50/50/50 55/55/55 51/51/51
f 55/55/55 56/56/56 51/51/51
f 52/52/52 57/57/57 54/54/54
f 58/58/58 57/57/57 52/52/52
f 54/54/54 59/59/59 50/50/50
f 57/57/57 59/59/59 54/54/54
f 59/59/59 55/55/55 50/50/50
f 55/55/55 60/60/60 56/56/56
f 60/60/60 61/61/61 56/56/56
f 57/57/57 62/62/62 59/59/59
f 63/63/63 62/62/62 57/57/57
f 59/59/59 64/64/64 55/55/55
f 62/62/62 64/64/64 59/59/59
f 64/64/64 60/60/60 55/55/55
f 60/60/60 65/65/65 61/61/61
f 65/65/65 66/66/66 61/61/61
f 62/62/62 67/67/67 64/64/64
f 68/68/68 67/67/67 62/62/62
f 64/64/64 69/69/69 60/60/60
f 67/67/67 69/69/69 64/64/64
f 69/69/69 65/65/65 60/60/60
f 65/65/65 70/70/70 66/66/66
f 70/70/70 71/71/71 66/66/66
f 67/67/67 72/72/72 69/69/69
f 73/73/73 72/72/72 67/67/67
f 69/69/69 74/74/74 65/65/65
f 72/72/72 74/74/74 69/69/69
f 74/74/74 70/70/70 65/65/65
f 70/70/70 75/75/75 71/71/71
f 75/75/75 76/76/76 71/71/71
f 72/72/72 77/77/77 74/74/74
f 78/78/78 77/77/77 72/72/72
f 74/74/74 79/79/79 70/70/70
f 77/77/77 79/79/79 74/74/74
f 79/79/79 75/75/75 70/70/70
f 75/75/75 80/80/80 76/76/76
f 80/80/80 81/81/81 76/76/76
f 82/82/82 80/80/80 75/75/75
f 79/79/79 82/82/82 75/75/75
f 83/83/83 82/82/82 79/79/79
f 77/77/77 83/83/83 79/79/79
f 84/84/84 83/83/83 77/77/77
f 87/87/87 86/86/86 85/85/85
f 86/86/86 88/88/88 85/85/85
f 85/85/85 88/88/88 89/89/89
f 88/88/88 90/90/90 89/89/89
f 89/89/89 90/90/90 91/91/91
f 90/90/90 92/92/92 91/91/91
f 91/91/91 92/92/92 93/93/93
f 92/92/92 94/94/94 93/93/93
f 93/93/93 94/94/94 95/95/95
f 94/94/94 96/96/96 95/95/95
f 95/95/95 96/96/96 97/97/97
f 96/96/96 98/98/98 97/97/97
f 97/97/97 98/98/98 99/99/99
f 98/98/98 100/100/100 99/99/99
f 99/99/99 100/100/100 101/101/101
f 100/100/100 102/102/102 101/101/101
f 101/101/101 102/102/102 103/103/103
f 102/102/102 104/104/104 103/103/103
f 103/103/103 104/104/104 105/105/105
f 104/104/104 106/106/106 105/105/105
f 105/105/105 106/106/106 107/107/107
f 106/106/106 108/108/108 107/107/107
f 107/107/107 108/108/108 109/109/109
f 108/108/108 110/110/110 109/109/109
f 109/109/109 110/110/110 111/111/111
f 110/110/110 112/112/112 111/111/111
f 111/111/111 112/112/112 113/113/113
f 112/112/112 114/114/114 113/113/113
f 113/113/113 114/114/114 115/115/115
f 114/114/114 116/116/116 115/115/115
f 115/115/115 116/116/116 117/117/117
f 116/116/116 118/118/118 117/117/117
f 121/121/121 120/120/120 119/119/119
f 120/120/120 122/122/122 119/119/119
f 120/120/120 123/123/123 122/122/122
f 123/123/123 124/124/124 122/122/122
f 123/123/123 125/125/125 124/124/124
f 125/125/125 126/126/126 124/124/124
f 125/125/125 127/127/127 126/126/126
f 127/127/127 128/128/128 126/126/126
f 127/127/127 129/129/129 128/128/128
f 129/129/129 130/130/130 128/128/128
f 129/129/129 131/131/131 130/130/130
f 131/131/131 132/132/132 130/130/130
f 131/131/131 133/133/133 132/132/132
f 133/133/133 134/134/134 132/132/132
f 133/133/133 135/135/135 134/134/134
f 135/135/135 136/136/136 134/134/134
f 135/135/135 137/137/137 136/136/136
f 137/137/137 138/138/138 136/136/136
f 137/137/137 139/139/139 138/138/138
f 139/139/139 140/140/140 138/138/138
f 139/139/139 141/141/141 140/140/140
f 141/141/141 142/142/142 140/140/140
f 141/141/141 143/143/143 142/142/142
f 143/143/143 144/144/144 142/142/142
f 143/143/143 145/145/145 144/144/144
f 145/145/145 146/146/146 144/144/144
f 145/145/145 147/147/147 146/146/146
f 147/147/147 148/148/148 146/146/146
f 147/147/147 149/149/149 148/148/148
f 149/149/149 150/150/150 148/148/148
f 149/149/149 151/151/151 150/150/150
f 151/151/151 152/152/152 150/150/150
