g Ballistic Spire
v -0.5976795 -0.9961324 -0.03971875
v -0.620102 -0.8179902 2.225908
v -0.620102 -0.6201025 2.225908
v -0.5976795 -0.5976796 -0.03971875
v -0.5976795 0.5976788 -0.03971875
v -0.620102 0.620101 2.225908
v -0.620102 0.8179888 2.225908
v -0.5976795 0.9961315 -0.03971875
v 0.5976788 0.5976788 -0.03971875
v 0.6201013 0.620101 2.225908
v 0.8179891 0.620101 2.054611
v 0.9961315 0.5976788 -0.03971875
v -0.9961323 -0.9961324 -0.03971875
v -0.8179898 -0.8179902 2.054611
v -0.620102 -0.8179902 2.225908
v -0.5976795 -0.9961324 -0.03971875
v 1.370076 -1.370074 1.478549
v -2.844051E-08 -1.370074 3.058418
v 1.612075 -1.370074 1.645898
v -2.844051E-08 -1.370074 2.801132
v -1.612075 -1.370074 1.645898
v -1.370076 -1.370074 1.478549
v -1.522212 0.1522325 1.581282
v -1.612075 0.1522325 1.645898
v -1.612075 -0.1522288 1.645898
v -1.522212 -0.1522288 1.581282
v -1.370076 -1.370074 1.478549
v -1.370076 1.370078 1.478549
v -1.522212 1.370078 1.581282
v -1.522212 -1.370074 1.581282
v -1.612075 1.370078 1.645898
v -1.612075 1.065616 1.645898
v -1.522212 1.065616 1.581282
v -1.522212 -1.065613 1.581282
v -1.612075 -1.370074 1.645898
v -1.612075 -1.065613 1.645898
v 1.370076 1.370078 1.478549
v 1.370076 -1.370074 1.478549
v 1.522212 -1.370074 1.581282
v 1.522212 1.370078 1.581282
v 1.612075 -1.370074 1.645898
v 1.612075 -1.065613 1.645898
v 1.522212 -1.065613 1.581282
v 1.522212 1.065616 1.581282
v 1.612075 1.370078 1.645898
v 1.612075 1.065616 1.645898
v -2.844051E-08 0.1522325 2.961262
v -1.612075 0.1522325 1.645898
v -1.522212 0.1522325 1.581282
v -2.844051E-08 0.1522325 3.058418
v 1.522212 0.1522325 1.581282
v 1.612075 0.1522325 1.645898
v -1.522212 -1.065613 1.581282
v -1.522212 -0.7611515 1.581282
v -2.844051E-08 -0.7611515 2.961262
v -2.844051E-08 -1.065613 2.961262
v -1.522212 -0.4566902 1.581282
v -1.522212 -0.1522288 1.581282
v -2.844051E-08 -0.1522288 2.961262
v -2.844051E-08 -0.4566902 2.961262
v -1.522212 -0.1522288 1.581282
v -1.612075 -0.1522288 1.645898
v -2.844051E-08 -0.1522288 3.058418
v -2.844051E-08 -0.1522288 2.961262
v 1.612075 -0.1522288 1.645898
v 1.522212 -0.1522288 1.581282
v -1.522212 0.1522325 1.581282
v -1.522212 0.4566938 1.581282
v -2.844051E-08 0.4566938 2.961262
v -2.844051E-08 0.1522325 2.961262
v -1.522212 0.7611551 1.581282
v -1.612075 0.7611551 1.645898
v -1.612075 0.4566938 1.645898
v -1.522212 0.4566938 1.581282
v -1.522212 0.7611551 1.581282
v -1.522212 1.065616 1.581282
v -2.844051E-08 1.065616 2.961262
v -2.844051E-08 0.7611551 2.961262
v -2.844051E-08 -0.4566902 2.961262
v -1.612075 -0.4566902 1.645898
v -1.522212 -0.4566902 1.581282
v -2.844051E-08 -0.4566902 3.058418
v 1.522212 -0.4566902 1.581282
v 1.612075 -0.4566902 1.645898
v -2.844051E-08 -1.065613 2.961262
v -2.844051E-08 -0.7611515 2.961262
v 1.522212 -0.7611515 1.581282
v 1.522212 -1.065613 1.581282
v -2.844051E-08 1.065616 2.961262
v 1.612075 1.065616 1.645898
v 1.522212 1.065616 1.581282
v -2.844051E-08 1.065616 3.058418
v -1.522212 1.065616 1.581282
v -1.612075 1.065616 1.645898
v -2.844051E-08 -0.4566902 2.961262
v -2.844051E-08 -0.1522288 2.961262
v 1.522212 -0.1522288 1.581282
v 1.522212 -0.4566902 1.581282
v -1.522212 -0.7611515 1.581282
v -1.612075 -0.7611515 1.645898
v -2.844051E-08 -0.7611515 3.058418
v -2.844051E-08 -0.7611515 2.961262
v 1.612075 -0.7611515 1.645898
v 1.522212 -0.7611515 1.581282
v -2.844051E-08 0.1522325 2.961262
v -2.844051E-08 0.4566938 2.961262
v 1.522212 0.4566938 1.581282
v 1.522212 0.1522325 1.581282
v 1.522212 0.4566938 1.581282
v 1.612075 0.4566938 1.645898
v 1.612075 0.7611551 1.645898
v 1.522212 0.7611551 1.581282
v -2.844051E-08 0.7611551 2.961262
v -2.844051E-08 1.065616 2.961262
v 1.522212 1.065616 1.581282
v 1.522212 0.7611551 1.581282
v -2.844051E-08 1.370078 2.801132
v -1.370076 1.370078 1.478549
v -1.370076 -1.370074 1.478549
v -2.844051E-08 -1.370074 2.801132
v -2.844051E-08 -1.370074 2.801132
v 1.370076 -1.370074 1.478549
v 1.370076 1.370078 1.478549
v -2.844051E-08 1.370078 2.801132
v -2.844051E-08 1.065616 3.058418
v -2.844051E-08 1.370078 3.058418
v 1.612075 1.370078 1.645898
v 1.612075 1.065616 1.645898
v -1.612075 1.065616 1.645898
v -1.612075 1.370078 1.645898
v -2.844051E-08 1.370078 3.058418
v -2.844051E-08 1.065616 3.058418
v -1.612075 -1.370074 1.645898
v -1.612075 -1.065613 1.645898
v -2.844051E-08 -1.065613 3.058418
v -2.844051E-08 -1.370074 3.058418
v -1.612075 -0.7611515 1.645898
v -1.612075 -0.4566902 1.645898
v -2.844051E-08 -0.4566902 3.058418
v -2.844051E-08 -0.7611515 3.058418
v -1.612075 -0.1522288 1.645898
v -1.612075 0.1522325 1.645898
v -2.844051E-08 0.1522325 3.058418
v -2.844051E-08 -0.1522288 3.058418
v -1.612075 0.4566938 1.645898
v -1.612075 0.7611551 1.645898
v -2.844051E-08 0.7611551 3.058418
v -2.844051E-08 0.4566938 3.058418
v -2.844051E-08 -1.370074 3.058418
v -2.844051E-08 -1.065613 3.058418
v 1.612075 -1.065613 1.645898
v 1.612075 -1.370074 1.645898
v -2.844051E-08 -0.7611515 3.058418
v -2.844051E-08 -0.4566902 3.058418
v 1.612075 -0.4566902 1.645898
v 1.612075 -0.7611515 1.645898
v -2.844051E-08 -0.1522288 3.058418
v -2.844051E-08 0.1522325 3.058418
v 1.612075 0.1522325 1.645898
v 1.612075 -0.1522288 1.645898
v -2.844051E-08 0.4566938 3.058418
v -2.844051E-08 0.7611551 3.058418
v 1.612075 0.7611551 1.645898
v 1.612075 0.4566938 1.645898
v -1.522212 0.4566938 1.581282
v -1.612075 0.4566938 1.645898
v -2.844051E-08 0.4566938 3.058418
v -2.844051E-08 0.4566938 2.961262
v 1.612075 0.4566938 1.645898
v 1.522212 0.4566938 1.581282
v -2.844051E-08 0.7611551 2.961262
v -1.612075 0.7611551 1.645898
v -1.522212 0.7611551 1.581282
v -2.844051E-08 0.7611551 3.058418
v 1.522212 0.7611551 1.581282
v 1.612075 0.7611551 1.645898
v -1.522212 -0.4566902 1.581282
v -1.612075 -0.4566902 1.645898
v -1.612075 -0.7611515 1.645898
v -1.522212 -0.7611515 1.581282
v -1.370076 1.370078 1.478549
v -2.844051E-08 1.370078 3.058418
v -1.612075 1.370078 1.645898
v -2.844051E-08 1.370078 2.801132
v 1.612075 1.370078 1.645898
v 1.370076 1.370078 1.478549
v 1.522212 -1.065613 1.581282
v 1.612075 -1.065613 1.645898
v -2.844051E-08 -1.065613 3.058418
v -2.844051E-08 -1.065613 2.961262
v -1.612075 -1.065613 1.645898
v -1.522212 -1.065613 1.581282
v 1.522212 -0.7611515 1.581282
v 1.612075 -0.7611515 1.645898
v 1.612075 -0.4566902 1.645898
v 1.522212 -0.4566902 1.581282
v 1.522212 -0.1522288 1.581282
v 1.612075 -0.1522288 1.645898
v 1.612075 0.1522325 1.645898
v 1.522212 0.1522325 1.581282
v 0.5976788 -0.9961324 -0.03971875
v 0.6201013 -0.8179902 2.225908
v 0.8179891 -0.8179902 2.054611
v 0.9961315 -0.9961324 -0.03971875
v 0.9961315 0.5976788 -0.03971875
v 0.8179891 0.620101 2.054611
v 0.8179891 0.8179888 2.054611
v 0.9961315 0.9961315 -0.03971875
v 0.9961315 -0.5976796 -0.03971875
v 0.8179891 -0.6201025 2.054611
v 0.6201013 -0.6201025 2.225908
v 0.5976788 -0.5976796 -0.03971875
v -0.5976795 -0.5976796 -0.03971875
v -0.620102 -0.6201025 2.225908
v -0.8179898 -0.6201025 2.054611
v -0.9961323 -0.5976796 -0.03971875
v -0.9961323 0.9961315 -0.03971875
v -0.8179898 0.8179888 2.054611
v -0.8179898 0.620101 2.054611
v -0.9961323 0.5976788 -0.03971875
v 0.5976788 0.9961315 -0.03971875
v 0.6201013 0.8179888 2.225908
v 0.6201013 0.620101 2.225908
v 0.5976788 0.5976788 -0.03971875
v 0.5976788 -0.5976796 -0.03971875
v 0.6201013 -0.6201025 2.225908
v 0.6201013 -0.8179902 2.225908
v 0.5976788 -0.9961324 -0.03971875
v 0.9961315 0.9961315 -0.03971875
v 0.8179891 0.8179888 2.054611
v 0.6201013 0.8179888 2.225908
v 0.5976788 0.9961315 -0.03971875
v -0.5976795 0.9961315 -0.03971875
v -0.620102 0.8179888 2.225908
v -0.8179898 0.8179888 2.054611
v -0.9961323 0.9961315 -0.03971875
v -0.9961323 -0.5976796 -0.03971875
v -0.8179898 -0.6201025 2.054611
v -0.8179898 -0.8179902 2.054611
v -0.9961323 -0.9961324 -0.03971875
v 0.9961315 -0.9961324 -0.03971875
v 0.8179891 -0.8179902 2.054611
v 0.8179891 -0.6201025 2.054611
v 0.9961315 -0.5976796 -0.03971875
v -0.9961323 0.5976788 -0.03971875
v -0.8179898 0.620101 2.054611
v -0.620102 0.620101 2.225908
v -0.5976795 0.5976788 -0.03971875
vt 0.8014801 0.7108001
vt 0.8014801 0.7108001
vt 0.8014801 0.6764801
vt 0.8014801 0.6764801
vt 0.8014801 0.5735199
vt 0.8014801 0.5735199
vt 0.8014801 0.5391999
vt 0.8014801 0.5391999
vt 0.6985199 0.5735199
vt 0.6985199 0.5735199
vt 0.6641999 0.57352
vt 0.6641999 0.57352
vt 0.8358001 0.7108001
vt 0.8358001 0.7108001
vt 0.8014801 0.7108001
vt 0.8014801 0.7108001
vt 1 0
vt 0.5 0
vt 1 0
vt 0.5 0
vt 0 0
vt 0 0
vt 0 0.5555556
vt 0 0.5555556
vt 0 0.4444445
vt 0 0.4444445
vt 0 0
vt 0 1
vt 0 1
vt 0 0
vt 0 1
vt 0 0.8888889
vt 0 0.8888889
vt 0 0.1111111
vt 0 0
vt 0 0.1111111
vt 1 1
vt 1 0
vt 1 0
vt 1 1
vt 1 0
vt 1 0.1111111
vt 1 0.1111111
vt 1 0.8888889
vt 1 1
vt 1 0.8888889
vt 0.5 0.5555556
vt 0 0.5555556
vt 0 0.5555556
vt 0.5 0.5555556
vt 1 0.5555556
vt 1 0.5555556
vt 0 0.1111111
vt 0 0.2222222
vt 0.5 0.2222222
vt 0.5 0.1111111
vt 0 0.3333334
vt 0 0.4444445
vt 0.5 0.4444445
vt 0.5 0.3333333
vt 0 0.4444445
vt 0 0.4444445
vt 0.5 0.4444445
vt 0.5 0.4444445
vt 1 0.4444445
vt 1 0.4444445
vt 0 0.5555556
vt 0 0.6666667
vt 0.5 0.6666667
vt 0.5 0.5555556
vt 0 0.7777778
vt 0 0.7777778
vt 0 0.6666667
vt 0 0.6666667
vt 0 0.7777778
vt 0 0.8888889
vt 0.5 0.8888889
vt 0.5 0.7777778
vt 0.5 0.3333333
vt 0 0.3333334
vt 0 0.3333334
vt 0.5 0.3333333
vt 1 0.3333333
vt 1 0.3333333
vt 0.5 0.1111111
vt 0.5 0.2222222
vt 1 0.2222222
vt 1 0.1111111
vt 0.5 0.8888889
vt 1 0.8888889
vt 1 0.8888889
vt 0.5 0.8888889
vt 0 0.8888889
vt 0 0.8888889
vt 0.5 0.3333333
vt 0.5 0.4444445
vt 1 0.4444445
vt 1 0.3333333
vt 0 0.2222222
vt 0 0.2222222
vt 0.5 0.2222222
vt 0.5 0.2222222
vt 1 0.2222222
vt 1 0.2222222
vt 0.5 0.5555556
vt 0.5 0.6666667
vt 1 0.6666667
vt 1 0.5555556
vt 1 0.6666667
vt 1 0.6666667
vt 1 0.7777778
vt 1 0.7777778
vt 0.5 0.7777778
vt 0.5 0.8888889
vt 1 0.8888889
vt 1 0.7777778
vt 0.5 1
vt 0 1
vt 0 0
vt 0.5 0
vt 0.5 0
vt 1 0
vt 1 1
vt 0.5 1
vt 0.5 0.8888889
vt 0.5 1
vt 1 1
vt 1 0.8888889
vt 0 0.8888889
vt 0 1
vt 0.5 1
vt 0.5 0.8888889
vt 0 0
vt 0 0.1111111
vt 0.5 0.1111111
vt 0.5 0
vt 0 0.2222222
vt 0 0.3333334
vt 0.5 0.3333333
vt 0.5 0.2222222
vt 0 0.4444445
vt 0 0.5555556
vt 0.5 0.5555556
vt 0.5 0.4444445
vt 0 0.6666667
vt 0 0.7777778
vt 0.5 0.7777778
vt 0.5 0.6666667
vt 0.5 0
vt 0.5 0.1111111
vt 1 0.1111111
vt 1 0
vt 0.5 0.2222222
vt 0.5 0.3333333
vt 1 0.3333333
vt 1 0.2222222
vt 0.5 0.4444445
vt 0.5 0.5555556
vt 1 0.5555556
vt 1 0.4444445
vt 0.5 0.6666667
vt 0.5 0.7777778
vt 1 0.7777778
vt 1 0.6666667
vt 0 0.6666667
vt 0 0.6666667
vt 0.5 0.6666667
vt 0.5 0.6666667
vt 1 0.6666667
vt 1 0.6666667
vt 0.5 0.7777778
vt 0 0.7777778
vt 0 0.7777778
vt 0.5 0.7777778
vt 1 0.7777778
vt 1 0.7777778
vt 0 0.3333334
vt 0 0.3333334
vt 0 0.2222222
vt 0 0.2222222
vt 0 1
vt 0.5 1
vt 0 1
vt 0.5 1
vt 1 1
vt 1 1
vt 1 0.1111111
vt 1 0.1111111
vt 0.5 0.1111111
vt 0.5 0.1111111
vt 0 0.1111111
vt 0 0.1111111
vt 1 0.2222222
vt 1 0.2222222
vt 1 0.3333333
vt 1 0.3333333
vt 1 0.4444445
vt 1 0.4444445
vt 1 0.5555556
vt 1 0.5555556
vt 0.69852 0.7108002
vt 0.69852 0.7108002
vt 0.6641999 0.7108002
vt 0.6641999 0.7108002
vt 0.6641999 0.57352
vt 0.6641999 0.57352
vt 0.6641999 0.5391999
vt 0.6641999 0.5391999
vt 0.6641999 0.6764801
vt 0.6641999 0.6764801
vt 0.6985199 0.6764801
vt 0.6985199 0.6764801
vt 0.8014801 0.6764801
vt 0.8014801 0.6764801
vt 0.8358001 0.6764801
vt 0.8358001 0.6764801
vt 0.8358001 0.5391999
vt 0.8358001 0.5391999
vt 0.8358001 0.5735199
vt 0.8358001 0.5735199
vt 0.6985199 0.5391999
vt 0.6985199 0.5391999
vt 0.6985199 0.5735199
vt 0.6985199 0.5735199
vt 0.6985199 0.6764801
vt 0.6985199 0.6764801
vt 0.69852 0.7108002
vt 0.69852 0.7108002
vt 0.6641999 0.5391999
vt 0.6641999 0.5391999
vt 0.6985199 0.5391999
vt 0.6985199 0.5391999
vt 0.8014801 0.5391999
vt 0.8014801 0.5391999
vt 0.8358001 0.5391999
vt 0.8358001 0.5391999
vt 0.8358001 0.6764801
vt 0.8358001 0.6764801
vt 0.8358001 0.7108001
vt 0.8358001 0.7108001
vt 0.6641999 0.7108002
vt 0.6641999 0.7108002
vt 0.6641999 0.6764801
vt 0.6641999 0.6764801
vt 0.8358001 0.5735199
vt 0.8358001 0.5735199
vt 0.8014801 0.5735199
vt 0.8014801 0.5735199
vn 0.999951 0 0.009896357
vn 0.999951 0 0.009896357
vn 0.999951 0 0.009896357
vn 0.999951 0 0.009896357
vn 0.999951 0 0.009896358
vn 0.999951 0 0.009896358
vn 0.999951 0 0.009896358
vn 0.999951 0 0.009896358
vn 0.002984934 -0.9999416 0.01039153
vn 0.002984934 -0.9999416 0.01039153
vn 0.002984934 -0.9999416 0.01039153
vn 0.002984934 -0.9999416 0.01039153
vn -0.02362936 -0.9963307 0.08226145
vn -0.02362936 -0.9963307 0.08226145
vn -0.02362936 -0.9963307 0.08226145
vn -0.02362936 -0.9963307 0.08226145
vn 0 -1 0
vn 0 -1 0
vn 0 -1 0
vn 0 -1 0
vn 0 -1 0
vn 0 -1 0
vn -0.5837952 0 -0.811901
vn -0.5837952 0 -0.811901
vn -0.5837952 0 -0.811901
vn -0.5837952 0 -0.811901
vn -0.5596263 0 -0.8287451
vn -0.5596263 0 -0.8287451
vn -0.5596263 0 -0.8287451
vn -0.5596263 0 -0.8287451
vn -0.5837951 0 -0.811901
vn -0.5837951 0 -0.811901
vn -0.5837951 0 -0.811901
vn -0.5837947 0 -0.8119013
vn -0.5837947 0 -0.8119013
vn -0.5837947 0 -0.8119013
vn 0.5596263 0 -0.8287451
vn 0.5596263 0 -0.8287451
vn 0.5596263 0 -0.8287451
vn 0.5596263 0 -0.8287451
vn 0.5837947 0 -0.8119013
vn 0.5837947 0 -0.8119013
vn 0.5837947 0 -0.8119013
vn 0.5837951 0 -0.811901
vn 0.5837951 0 -0.811901
vn 0.5837951 0 -0.811901
vn 0 1 0
vn 0 1 0
vn 0 1 0
vn 0 1 0
vn 0 1 0
vn 0 1 0
vn -0.6716467 0 0.7408716
vn -0.6716467 0 0.7408716
vn -0.6716467 0 0.7408716
vn -0.6716467 0 0.7408716
vn -0.6716466 0 0.7408718
vn -0.6716466 0 0.7408718
vn -0.6716466 0 0.7408718
vn -0.6716466 0 0.7408718
vn 0 -1 0
vn 0 -1 0
vn 0 -1 0
vn 0 -1 0
vn 0 -1 0
vn 0 -1 0
vn -0.6716466 0 0.7408718
vn -0.6716466 0 0.7408718
vn -0.6716466 0 0.7408718
vn -0.6716466 0 0.7408718
vn -0.5837952 0 -0.811901
vn -0.5837952 0 -0.811901
vn -0.5837952 0 -0.811901
vn -0.5837952 0 -0.811901
vn -0.6716466 0 0.7408717
vn -0.6716466 0 0.7408717
vn -0.6716466 0 0.7408717
vn -0.6716466 0 0.7408717
vn 0 1 0
vn 0 1 0
vn 0 1 0
vn 0 1 0
vn 0 1 0
vn 0 1 0
vn 0.6716467 0 0.7408716
vn 0.6716467 0 0.7408716
vn 0.6716467 0 0.7408716
vn 0.6716467 0 0.7408716
vn 0 -1 0
vn 0 -1 0
vn 0 -1 0
vn 0 -1 0
vn 0 -1 0
vn 0 -1 0
vn 0.6716466 0 0.7408717
vn 0.6716466 0 0.7408717
vn 0.6716466 0 0.7408717
vn 0.6716466 0 0.7408717
vn 0 -1 0
vn 0 -1 0
vn 0 -1 0
vn 0 -1 0
vn 0 -1 0
vn 0 -1 0
vn 0.6716466 0 0.7408717
vn 0.6716466 0 0.7408717
vn 0.6716466 0 0.7408717
vn 0.6716466 0 0.7408717
vn 0.5837952 0 -0.811901
vn 0.5837952 0 -0.811901
vn 0.5837952 0 -0.811901
vn 0.5837952 0 -0.811901
vn 0.6716466 0 0.7408717
vn 0.6716466 0 0.7408717
vn 0.6716466 0 0.7408717
vn 0.6716466 0 0.7408717
vn 0.694527 0 -0.7194667
vn 0.694527 0 -0.7194667
vn 0.694527 0 -0.7194667
vn 0.694527 0 -0.7194667
vn -0.694527 0 -0.7194667
vn -0.694527 0 -0.7194667
vn -0.694527 0 -0.7194667
vn -0.694527 0 -0.7194667
vn 0.659021 0 0.7521246
vn 0.659021 0 0.7521246
vn 0.659021 0 0.7521246
vn 0.659021 0 0.7521246
vn -0.6590209 0 0.7521247
vn -0.6590209 0 0.7521247
vn -0.6590209 0 0.7521247
vn -0.6590209 0 0.7521247
vn -0.6590209 0 0.7521247
vn -0.6590209 0 0.7521247
vn -0.6590209 0 0.7521247
vn -0.6590209 0 0.7521247
vn -0.659021 0 0.7521246
vn -0.659021 0 0.7521246
vn -0.659021 0 0.7521246
vn -0.659021 0 0.7521246
vn -0.659021 0 0.7521247
vn -0.659021 0 0.7521247
vn -0.659021 0 0.7521247
vn -0.659021 0 0.7521247
vn -0.659021 0 0.7521246
vn -0.659021 0 0.7521246
vn -0.659021 0 0.7521246
vn -0.659021 0 0.7521246
vn 0.659021 0 0.7521246
vn 0.659021 0 0.7521246
vn 0.659021 0 0.7521246
vn 0.659021 0 0.7521246
vn 0.659021 0 0.7521246
vn 0.659021 0 0.7521246
vn 0.659021 0 0.7521246
vn 0.659021 0 0.7521246
vn 0.659021 0 0.7521247
vn 0.659021 0 0.7521247
vn 0.659021 0 0.7521247
vn 0.659021 0 0.7521247
vn 0.659021 0 0.7521246
vn 0.659021 0 0.7521246
vn 0.659021 0 0.7521246
vn 0.659021 0 0.7521246
vn 0 -1 0
vn 0 -1 0
vn 0 -1 0
vn 0 -1 0
vn 0 -1 0
vn 0 -1 0
vn 0 1 0
vn 0 1 0
vn 0 1 0
vn 0 1 0
vn 0 1 0
vn 0 1 0
vn -0.5837952 0 -0.811901
vn -0.5837952 0 -0.811901
vn -0.5837952 0 -0.811901
vn -0.5837952 0 -0.811901
vn 0 1 0
vn 0 1 0
vn 0 1 0
vn 0 1 0
vn 0 1 0
vn 0 1 0
vn 0 1 0
vn 0 1 0
vn 0 1 0
vn 0 1 0
vn 0 1 0
vn 0 1 0
vn 0.5837952 0 -0.811901
vn 0.5837952 0 -0.811901
vn 0.5837952 0 -0.811901
vn 0.5837952 0 -0.811901
vn 0.5837952 0 -0.811901
vn 0.5837952 0 -0.811901
vn 0.5837952 0 -0.811901
vn 0.5837952 0 -0.811901
vn 0.02362937 -0.9963307 0.08226148
vn 0.02362937 -0.9963307 0.08226148
vn 0.02362937 -0.9963307 0.08226148
vn 0.02362937 -0.9963307 0.08226148
vn 0.996402 0 0.08475336
vn 0.996402 0 0.08475336
vn 0.996402 0 0.08475336
vn 0.996402 0 0.08475336
vn 0.00298503 0.9999416 0.01039185
vn 0.00298503 0.9999416 0.01039185
vn 0.00298503 0.9999416 0.01039185
vn 0.00298503 0.9999416 0.01039185
vn -0.002985029 0.9999416 0.01039185
vn -0.002985029 0.9999416 0.01039185
vn -0.002985029 0.9999416 0.01039185
vn -0.002985029 0.9999416 0.01039185
vn -0.996402 0 0.08475338
vn -0.996402 0 0.08475338
vn -0.996402 0 0.08475338
vn -0.996402 0 0.08475338
vn -0.999951 0 0.009896358
vn -0.999951 0 0.009896358
vn -0.999951 0 0.009896358
vn -0.999951 0 0.009896358
vn -0.999951 0 0.009896357
vn -0.999951 0 0.009896357
vn -0.999951 0 0.009896357
vn -0.999951 0 0.009896357
vn 0.02362946 0.9963306 0.08226177
vn 0.02362946 0.9963306 0.08226177
vn 0.02362946 0.9963306 0.08226177
vn 0.02362946 0.9963306 0.08226177
vn -0.02362945 0.9963306 0.08226177
vn -0.02362945 0.9963306 0.08226177
vn -0.02362945 0.9963306 0.08226177
vn -0.02362945 0.9963306 0.08226177
vn -0.996402 0 0.08475339
vn -0.996402 0 0.08475339
vn -0.996402 0 0.08475339
vn -0.996402 0 0.08475339
vn 0.996402 0 0.08475334
vn 0.996402 0 0.08475334
vn 0.996402 0 0.08475334
vn 0.996402 0 0.08475334
vn -0.002984933 -0.9999416 0.01039151
vn -0.002984933 -0.9999416 0.01039151
vn -0.002984933 -0.9999416 0.01039151
vn -0.002984933 -0.9999416 0.01039151
g Ballistic Spire_0
f 3/3/3 2/2/2 1/1/1
f 4/4/4 3/3/3 1/1/1
f 7/7/7 6/6/6 5/5/5
f 8/8/8 7/7/7 5/5/5
f 11/11/11 10/10/10 9/9/9
f 12/12/12 11/11/11 9/9/9
f 15/15/15 14/14/14 13/13/13
f 16/16/16 15/15/15 13/13/13
f 19/19/19 18/18/18 17/17/17
f 18/18/18 20/20/20 17/17/17
f 18/18/18 21/21/21 20/20/20
f 21/21/21 22/22/22 20/20/20
f 25/25/25 24/24/24 23/23/23
f 26/26/26 25/25/25 23/23/23
f 29/29/29 28/28/28 27/27/27
f 30/30/30 29/29/29 27/27/27
f 32/32/32 31/31/31 29/29/29
f 33/33/33 32/32/32 29/29/29
f 30/30/30 35/35/35 34/34/34
f 35/35/35 36/36/36 34/34/34
f 39/39/39 38/38/38 37/37/37
f 40/40/40 39/39/39 37/37/37
f 42/42/42 41/41/41 39/39/39
f 43/43/43 42/42/42 39/39/39
f 40/40/40 45/45/45 44/44/44
f 45/45/45 46/46/46 44/44/44
f 49/49/49 48/48/48 47/47/47
f 48/48/48 50/50/50 47/47/47
f 47/47/47 50/50/50 51/51/51
f 50/50/50 52/52/52 51/51/51
f 55/55/55 54/54/54 53/53/53
f 56/56/56 55/55/55 53/53/53
f 59/59/59 58/58/58 57/57/57
f 60/60/60 59/59/59 57/57/57
f 63/63/63 62/62/62 61/61/61
f 64/64/64 63/63/63 61/61/61
f 65/65/65 63/63/63 64/64/64
f 66/66/66 65/65/65 64/64/64
f 69/69/69 68/68/68 67/67/67
f 70/70/70 69/69/69 67/67/67
f 73/73/73 72/72/72 71/71/71
f 74/74/74 73/73/73 71/71/71
f 77/77/77 76/76/76 75/75/75
f 78/78/78 77/77/77 75/75/75
f 81/81/81 80/80/80 79/79/79
f 80/80/80 82/82/82 79/79/79
f 79/79/79 82/82/82 83/83/83
f 82/82/82 84/84/84 83/83/83
f 87/87/87 86/86/86 85/85/85
f 88/88/88 87/87/87 85/85/85
f 91/91/91 90/90/90 89/89/89
f 90/90/90 92/92/92 89/89/89
f 89/89/89 92/92/92 93/93/93
f 92/92/92 94/94/94 93/93/93
f 97/97/97 96/96/96 95/95/95
f 98/98/98 97/97/97 95/95/95
f 101/101/101 100/100/100 99/99/99
f 102/102/102 101/101/101 99/99/99
f 103/103/103 101/101/101 102/102/102
f 104/104/104 103/103/103 102/102/102
f 107/107/107 106/106/106 105/105/105
f 108/108/108 107/107/107 105/105/105
f 111/111/111 110/110/110 109/109/109
f 112/112/112 111/111/111 109/109/109
f 115/115/115 114/114/114 113/113/113
f 116/116/116 115/115/115 113/113/113
f 119/119/119 118/118/118 117/117/117
f 120/120/120 119/119/119 117/117/117
f 123/123/123 122/122/122 121/121/121
f 124/124/124 123/123/123 121/121/121
f 127/127/127 126/126/126 125/125/125
f 128/128/128 127/127/127 125/125/125
f 131/131/131 130/130/130 129/129/129
f 132/132/132 131/131/131 129/129/129
f 135/135/135 134/134/134 133/133/133
f 136/136/136 135/135/135 133/133/133
f 139/139/139 138/138/138 137/137/137
f 140/140/140 139/139/139 137/137/137
f 143/143/143 142/142/142 141/141/141
f 144/144/144 143/143/143 141/141/141
f 147/147/147 146/146/146 145/145/145
f 148/148/148 147/147/147 145/145/145
f 151/151/151 150/150/150 149/149/149
f 152/152/152 151/151/151 149/149/149
f 155/155/155 154/154/154 153/153/153
f 156/156/156 155/155/155 153/153/153
f 159/159/159 158/158/158 157/157/157
f 160/160/160 159/159/159 157/157/157
f 163/163/163 162/162/162 161/161/161
f 164/164/164 163/163/163 161/161/161
f 167/167/167 166/166/166 165/165/165
f 168/168/168 167/167/167 165/165/165
f 169/169/169 167/167/167 168/168/168
f 170/170/170 169/169/169 168/168/168
f 173/173/173 172/172/172 171/171/171
f 172/172/172 174/174/174 171/171/171
f 171/171/171 174/174/174 175/175/175
f 174/174/174 176/176/176 175/175/175
f 179/179/179 178/178/178 177/177/177
f 180/180/180 179/179/179 177/177/177
f 183/183/183 182/182/182 181/181/181
f 182/182/182 184/184/184 181/181/181
f 182/182/182 185/185/185 184/184/184
f 185/185/185 186/186/186 184/184/184
f 189/189/189 188/188/188 187/187/187
f 190/190/190 189/189/189 187/187/187
f 191/191/191 189/189/189 190/190/190
f 192/192/192 191/191/191 190/190/190
f 195/195/195 194/194/194 193/193/193
f 196/196/196 195/195/195 193/193/193
f 199/199/199 198/198/198 197/197/197
f 200/200/200 199/199/199 197/197/197
f 203/203/203 202/202/202 201/201/201
f 204/204/204 203/203/203 201/201/201
f 207/207/207 206/206/206 205/205/205
f 208/208/208 207/207/207 205/205/205
f 211/211/211 210/210/210 209/209/209
f 212/212/212 211/211/211 209/209/209
f 215/215/215 214/214/214 213/213/213
f 216/216/216 215/215/215 213/213/213
f 219/219/219 218/218/218 217/217/217
f 220/220/220 219/219/219 217/217/217
f 223/223/223 222/222/222 221/221/221
f 224/224/224 223/223/223 221/221/221
f 227/227/227 226/226/226 225/225/225
f 228/228/228 227/227/227 225/225/225
f 231/231/231 230/230/230 229/229/229
f 232/232/232 231/231/231 229/229/229
f 235/235/235 234/234/234 233/233/233
f 236/236/236 235/235/235 233/233/233
f 239/239/239 238/238/238 237/237/237
f 240/240/240 239/239/239 237/237/237
f 243/243/243 242/242/242 241/241/241
f 244/244/244 243/243/243 241/241/241
f 247/247/247 246/246/246 245/245/245
f 248/248/248 247/247/247 245/245/245
