g Barrel Knight Body.001
v -0.2755829 0.3504502 2.045899
v 0.2755829 0.3504502 2.045899
v 0.2755829 0.3504502 2.441577
v -0.2755829 0.3504502 2.441577
v 0.4571209 0.2171682 2.585791
v 0.06188175 -0.6756791 2.188306
v -0.06188175 -0.6756791 2.188306
v -0.4571209 0.2171682 2.585791
v 0.06188175 -0.6756791 2.064542
v -0.06188175 -0.6756791 2.064542
v -0.06188175 -0.6756791 2.188306
v 0.06188175 -0.6756791 2.188306
v -0.06188175 -0.6756791 2.064542
v -0.457097 0.2171 1.884283
v -0.4571209 0.2171682 2.585791
v -0.06188175 -0.6756791 2.188306
v 0.457097 0.2171 1.884283
v 0.06188175 -0.6756791 2.064542
v 0.06188175 -0.6756791 2.188306
v 0.4571209 0.2171682 2.585791
v -0.2755829 0.3504502 2.441577
v -0.4571209 0.2171682 2.585791
v -0.457097 0.2171 1.884283
v -0.2755829 0.3504502 2.045899
v 0.457097 0.2171 1.884283
v 0.2755829 0.3504502 2.045899
v -0.2755829 0.3504502 2.045899
v -0.457097 0.2171 1.884283
v -0.4571209 0.2171682 2.585791
v -0.2755829 0.3504502 2.441577
v 0.2755829 0.3504502 2.441577
v 0.4571209 0.2171682 2.585791
v 0.4571209 0.2171682 2.585791
v 0.2755829 0.3504502 2.441577
v 0.2755829 0.3504502 2.045899
v 0.457097 0.2171 1.884283
v -0.457097 0.2171 1.884283
v -0.06188175 -0.6756791 2.064542
v 0.06188175 -0.6756791 2.064542
v 0.457097 0.2171 1.884283
vt 0.4005084 0.2694309
vt 0.4005084 0.4805691
vt 0.5994915 0.4805691
vt 0.5994915 0.2694309
vt 0.625 0.5185506
vt 0.625 0.75
vt 0.875 0.75
vt 0.8750001 0.5185506
vt 0.375 0.75
vt 0.375 1
vt 0.625 1
vt 0.625 0.75
vt 0.375 0
vt 0.375 0.2314318
vt 0.625 0.2314494
vt 0.625 0
vt 0.375 0.5185683
vt 0.375 0.75
vt 0.625 0.75
vt 0.625 0.5185506
vt 0.5994915 0.2694309
vt 0.625 0.2314494
vt 0.375 0.2314318
vt 0.4005084 0.2694309
vt 0.375 0.4934915
vt 0.4005084 0.4805691
vt 0.4005084 0.2694309
vt 0.375 0.2565085
vt 0.625 0.2565023
vt 0.5994915 0.2694309
vt 0.5994915 0.4805691
vt 0.625 0.4934977
vt 0.625 0.5185506
vt 0.5994915 0.4805691
vt 0.4005084 0.4805691
vt 0.375 0.5185683
vt 0.125 0.5185682
vt 0.125 0.75
vt 0.375 0.75
vt 0.375 0.5185682
vn 0 1 0
vn 0 1 0
vn 0 1 0
vn 0 1 0
vn 0 -0.4067063 0.913559
vn 0 -0.4067063 0.913559
vn 0 -0.4067063 0.913559
vn 0 -0.4067063 0.913559
vn 0 -1 0
vn 0 -1 0
vn 0 -1 0
vn 0 -1 0
vn -0.9144103 -0.4047885 0
vn -0.9144103 -0.4047885 0
vn -0.9144103 -0.4047885 0
vn -0.9144103 -0.4047885 0
vn 0.9144104 -0.4047885 0
vn 0.9144104 -0.4047885 0
vn 0.9144104 -0.4047885 0
vn 0.9144104 -0.4047885 0
vn -0.5919303 0.8059891 -6.301128E-05
vn -0.5919303 0.8059891 -6.301128E-05
vn -0.5919303 0.8059891 -6.301128E-05
vn -0.5919303 0.8059891 -6.301128E-05
vn 0 0.7713351 -0.6364292
vn 0 0.7713351 -0.6364292
vn 0 0.7713351 -0.6364292
vn 0 0.7713351 -0.6364292
vn 0 0.7343948 0.6787226
vn 0 0.7343948 0.6787226
vn 0 0.7343948 0.6787226
vn 0 0.7343948 0.6787226
vn 0.5919304 0.805989 -6.301527E-05
vn 0.5919304 0.805989 -6.301527E-05
vn 0.5919304 0.805989 -6.301527E-05
vn 0.5919304 0.805989 -6.301527E-05
vn 0 -0.1979143 -0.9802193
vn 0 -0.1979143 -0.9802193
vn 0 -0.1979143 -0.9802193
vn 0 -0.1979143 -0.9802193
g Barrel Knight Body.001_0
f 3/3/3 2/2/2 1/1/1
f 4/4/4 3/3/3 1/1/1
f 7/7/7 6/6/6 5/5/5
f 8/8/8 7/7/7 5/5/5
f 11/11/11 10/10/10 9/9/9
f 12/12/12 11/11/11 9/9/9
f 15/15/15 14/14/14 13/13/13
f 16/16/16 15/15/15 13/13/13
f 19/19/19 18/18/18 17/17/17
f 20/20/20 19/19/19 17/17/17
f 23/23/23 22/22/22 21/21/21
f 24/24/24 23/23/23 21/21/21
f 27/27/27 26/26/26 25/25/25
f 28/28/28 27/27/27 25/25/25
f 31/31/31 30/30/30 29/29/29
f 32/32/32 31/31/31 29/29/29
f 35/35/35 34/34/34 33/33/33
f 36/36/36 35/35/35 33/33/33
f 39/39/39 38/38/38 37/37/37
f 40/40/40 39/39/39 37/37/37
