g Blob Tree
v 0 -1.770741E-07 0
v 0.914381 0.5279182 0.2314838
v -0.5792278 0.8610425 0.2327407
v 0.3961696 1.74605 1.001634
v 1.519118 0.8770632 1.012745
v 1.684712 -0.4867269 0.9474999
v 0.2619304 -0.9775385 0.1883619
v 0 -1.770741E-07 0
v 2.035986 -0.545541 2.025491
v 1.419968 1.506174 2.072595
v 0.8770633 -1.519119 1.012745
v -0.5474197 -1.695947 0.9770156
v -0.9769367 -0.3120929 0.259528
v 0 -1.770741E-07 0
v -1.702366 -0.4208382 0.9474999
v 0.4766407 -2.014369 1.978386
v -1.475158 -1.475158 2.025491
v -2.012215 0.5849433 2.074298
v -1.28376 -1.234678 3.084294
v -1.685028 0.4515018 3.131521
v -0.9775379 0.2619301 3.862621
v -3.219165E-08 -1.754127 3.038237
v -0.3120927 -0.9769363 3.791455
v -1.439198E-14 -3.541481E-07 4.050982
v 1.263873 -1.21564 3.103482
v 0.9594238 -0.340316 3.873433
v -1.439198E-14 -3.541481E-07 4.050982
v 1.729108 0.4273822 3.084294
v 0.2698235 1.006996 3.788084
v -1.439198E-14 -3.541481E-07 4.050982
v 0.5299324 1.710209 3.049348
v -0.4766399 2.014369 1.978387
v -0.8770632 1.519118 3.038237
v -1.28376 1.234677 0.9666879
v -0.9775379 0.2619301 3.862621
v -1.439198E-14 -3.541481E-07 4.050982
v -1.685028 0.4515018 3.131521
v -2.012215 0.5849433 2.074298
v -1.702366 -0.4208382 0.9474999
v -0.9769367 -0.3120929 0.259528
v 0 -1.770741E-07 0
vt 0.7083333 0
vt 0.5821947 0.1666667
vt 0.843882 0.1666667
vt 0.714688 0.3333333
vt 0.5833333 0.3333333
vt 0.4552031 0.3333333
vt 0.2919545 0.1666667
vt 0.4583333 0
vt 0.4583333 0.5
vt 0.6298449 0.5
vt 0.3333333 0.3333333
vt 0.2000896 0.3333333
vt 0.04939357 0.1666667
vt 0.125 0
vt 0.0385365 0.3333333
vt 0.2868217 0.5
vt 0.125 0.5
vt 0 0.5
vt 0.1218148 0.6666666
vt 0 0.6666667
vt 0.03393973 0.8333334
vt 0.25 0.6666666
vt 0.2006064 0.8333333
vt 0.125 1
vt 0.3781301 0.6666666
vt 0.4453713 0.8333333
vt 0.2916666 1
vt 0.5384814 0.6666666
vt 0.7083334 0.8333334
vt 0.625 1
vt 0.7019787 0.6666666
vt 0.7868216 0.5
vt 0.8333334 0.6666667
vt 0.8781852 0.3333333
vt 0.940312 0.8333334
vt 0.7916666 1
vt 0.9583333 0.6666667
vt 0.9548193 0.5
vt 1 0.3333333
vt 1 0.1666667
vt 0.9583334 0
vn 0.004607547 0.0073916 -0.9999621
vn 0.4401892 0.2516239 -0.8619274
vn -0.2849128 0.4357184 -0.8537998
vn 0.1858326 0.8548951 -0.4843766
vn 0.7880445 0.4194279 -0.4506285
vn 0.8387013 -0.244305 -0.4867188
vn 0.1148264 -0.4766304 -0.8715723
vn 0.004607547 0.0073916 -0.9999621
vn 0.9655895 -0.2585828 0.02778247
vn 0.7045603 0.7096073 0.007225007
vn 0.4802504 -0.7446387 -0.4635437
vn -0.2953116 -0.8258876 -0.4803131
vn -0.4865267 -0.1648958 -0.8579634
vn 0.004607547 0.0073916 -0.9999621
vn -0.8291279 -0.2082653 -0.5188183
vn 0.2385856 -0.9710212 -0.01396163
vn -0.7171264 -0.6969281 -0.004582954
vn -0.9628975 0.2698191 0.005101986
vn -0.650076 -0.5889624 0.4801295
vn -0.8575045 0.208738 0.4702282
vn -0.465037 0.1436172 0.8735644
vn -0.01289681 -0.872483 0.4884743
vn -0.1399765 -0.4951729 0.8574441
vn -0.001067405 0.006105356 0.9999808
vn 0.6186575 -0.6176389 0.4855772
vn 0.4773986 -0.1478018 0.8661669
vn -0.001067405 0.006105356 0.9999808
vn 0.8429537 0.2386354 0.4821639
vn 0.1385497 0.4827919 0.8647057
vn -0.001067405 0.006105356 0.9999808
vn 0.2551455 0.8136264 0.5224106
vn -0.2529582 0.9674432 -0.008112993
vn -0.4564755 0.7450722 0.48631
vn -0.6379241 0.6053966 -0.4759704
vn -0.465037 0.1436172 0.8735644
vn -0.001067405 0.006105356 0.9999808
vn -0.8575045 0.208738 0.4702282
vn -0.9628975 0.2698191 0.005101986
vn -0.8291279 -0.2082653 -0.5188183
vn -0.4865267 -0.1648958 -0.8579634
vn 0.004607547 0.0073916 -0.9999621
g Blob Tree_0
f 3/3/3 2/2/2 1/1/1
f 2/2/2 3/3/3 4/4/4
f 4/4/4 5/5/5 2/2/2
f 6/6/6 2/2/2 5/5/5
f 6/6/6 7/7/7 2/2/2
f 2/2/2 7/7/7 8/8/8
f 6/6/6 5/5/5 9/9/9
f 5/5/5 4/4/4 10/10/10
f 5/5/5 10/10/10 9/9/9
f 11/11/11 7/7/7 6/6/6
f 6/6/6 9/9/9 11/11/11
f 12/12/12 7/7/7 11/11/11
f 7/7/7 12/12/12 13/13/13
f 7/7/7 13/13/13 14/14/14
f 12/12/12 15/15/15 13/13/13
f 16/16/16 12/12/12 11/11/11
f 9/9/9 16/16/16 11/11/11
f 17/17/17 15/15/15 12/12/12
f 17/17/17 12/12/12 16/16/16
f 18/18/18 15/15/15 17/17/17
f 17/17/17 19/19/19 18/18/18
f 19/19/19 20/20/20 18/18/18
f 20/20/20 19/19/19 21/21/21
f 16/16/16 22/22/22 17/17/17
f 22/22/22 19/19/19 17/17/17
f 21/21/21 19/19/19 23/23/23
f 19/19/19 22/22/22 23/23/23
f 24/24/24 21/21/21 23/23/23
f 25/25/25 16/16/16 9/9/9
f 25/25/25 22/22/22 16/16/16
f 26/26/26 23/23/23 22/22/22
f 25/25/25 26/26/26 22/22/22
f 27/27/27 23/23/23 26/26/26
f 25/25/25 9/9/9 28/28/28
f 25/25/25 28/28/28 26/26/26
f 9/9/9 10/10/10 28/28/28
f 29/29/29 26/26/26 28/28/28
f 30/30/30 26/26/26 29/29/29
f 28/28/28 10/10/10 31/31/31
f 31/31/31 29/29/29 28/28/28
f 10/10/10 32/32/32 31/31/31
f 10/10/10 4/4/4 32/32/32
f 31/31/31 33/33/33 29/29/29
f 31/31/31 32/32/32 33/33/33
f 4/4/4 34/34/34 32/32/32
f 4/4/4 3/3/3 34/34/34
f 33/33/33 35/35/35 29/29/29
f 36/36/36 29/29/29 35/35/35
f 35/35/35 33/33/33 37/37/37
f 38/38/38 37/37/37 33/33/33
f 32/32/32 38/38/38 33/33/33
f 32/32/32 34/34/34 38/38/38
f 34/34/34 39/39/39 38/38/38
f 39/39/39 34/34/34 3/3/3
f 40/40/40 39/39/39 3/3/3
f 40/40/40 3/3/3 41/41/41
