g Bridge A
v -0.2126428 0.7313179 0.1349
v -0.1439396 0.7180237 0.1349
v -0.241315 0.7182954 0.1349
v -0.122195 0.6952455 0.1349
v -0.1153012 0.6490781 0.1349
v -0.2649333 0.6780322 0.1349
v -0.1221129 0.6076394 0.1427381
v -0.273756 0.6386736 0.1427381
v -0.1332442 0.5616482 0.1513568
v -0.2816832 0.5959412 0.1513568
v -0.1398955 0.5151767 0.146862
v -0.2962038 0.556997 0.146862
v -0.1464411 0.4704834 0.1349
v -0.3135753 0.5185812 0.1349
v -0.1743472 0.4257852 0.1284928
v -0.3136967 0.4658871 0.1284928
v -0.2880476 0.4366648 0.1284928
v -0.2116056 0.4146663 0.1284928
v -0.1464411 0.4704834 0.11
v -0.1464411 0.4704834 0.1349
v -0.1398955 0.5151767 0.146862
v -0.1398955 0.5151767 0.126862
v -0.1332442 0.5616482 0.1513568
v -0.1332442 0.5616482 0.1313911
v -0.1332442 0.5616482 0.1313911
v -0.1332442 0.5616482 0.1513568
v -0.1221129 0.6076394 0.1427381
v -0.1221129 0.6076394 0.1227381
v -0.122195 0.6952455 0.112
v -0.122195 0.6952455 0.1349
v -0.1439396 0.7180237 0.1349
v -0.1439396 0.7180237 0.112
v -0.1221129 0.6076394 0.1227381
v -0.1221129 0.6076394 0.1427381
v -0.1153012 0.6490781 0.1349
v -0.1153012 0.6490781 0.112
v -0.1153012 0.6490781 0.112
v -0.1153012 0.6490781 0.1349
v -0.122195 0.6952455 0.1349
v -0.122195 0.6952455 0.112
v -0.2116056 0.4146663 0.11
v -0.2116056 0.4146663 0.1284928
v -0.1743472 0.4257852 0.1284928
v -0.1743472 0.4257852 0.11
v -0.3135753 0.5185812 0.11
v -0.3135753 0.5185812 0.1349
v -0.3136967 0.4658871 0.1284928
v -0.3136967 0.4658871 0.11
v -0.1743472 0.4257852 0.11
v -0.1743472 0.4257852 0.1284928
v -0.1464411 0.4704834 0.1349
v -0.1464411 0.4704834 0.11
v -0.2649333 0.6780322 0.112
v -0.2649333 0.6780322 0.1349
v -0.273756 0.6386736 0.1427381
v -0.273756 0.6386736 0.1227381
v -0.2816832 0.5959412 0.1513568
v -0.2816832 0.5959412 0.1313911
v -0.2816832 0.5959412 0.1313911
v -0.2816832 0.5959412 0.1513568
v -0.2962038 0.556997 0.146862
v -0.2962038 0.556997 0.126862
v -0.2962038 0.556997 0.126862
v -0.2962038 0.556997 0.146862
v -0.3135753 0.5185812 0.1349
v -0.3135753 0.5185812 0.11
v -0.2126428 0.7313179 0.112
v -0.2126428 0.7313179 0.1349
v -0.241315 0.7182954 0.1349
v -0.241315 0.7182954 0.112
v -0.2880476 0.4366648 0.11
v -0.2880476 0.4366648 0.1284928
v -0.2116056 0.4146663 0.1284928
v -0.2116056 0.4146663 0.11
v -0.241315 0.7182954 0.112
v -0.241315 0.7182954 0.1349
v -0.2649333 0.6780322 0.1349
v -0.2649333 0.6780322 0.112
v -0.1439396 0.7180237 0.112
v -0.1439396 0.7180237 0.1349
v -0.2126428 0.7313179 0.1349
v -0.2126428 0.7313179 0.112
v -0.3136967 0.4658871 0.11
v -0.3136967 0.4658871 0.1284928
v -0.2880476 0.4366648 0.1284928
v -0.2880476 0.4366648 0.11
vt 0.4392971 0.6889118
vt 0.4627861 0.6843666
vt 0.4294942 0.6844595
vt 0.4702205 0.6765789
vt 0.4725775 0.6607947
vt 0.4214193 0.6706938
vt 0.4702485 0.6466269
vt 0.418403 0.6572375
vt 0.4664428 0.6309031
vt 0.4156927 0.6426276
vt 0.4641688 0.6150148
vt 0.4107282 0.6293128
vt 0.4619309 0.5997345
vt 0.404789 0.6161788
vt 0.4523901 0.5844525
vt 0.4047475 0.5981629
vt 0.4135168 0.5881721
vt 0.4396518 0.5806509
vt 0.4619309 0.5997345
vt 0.4619309 0.5997345
vt 0.4641688 0.6150148
vt 0.4641688 0.6150148
vt 0.4664428 0.6309031
vt 0.4664428 0.6309031
vt 0.4664428 0.6309031
vt 0.4664428 0.6309031
vt 0.4702485 0.6466269
vt 0.4702485 0.6466269
vt 0.4702205 0.6765789
vt 0.4702205 0.6765789
vt 0.4627861 0.6843666
vt 0.4627861 0.6843666
vt 0.4702485 0.6466269
vt 0.4702485 0.6466269
vt 0.4725775 0.6607947
vt 0.4725775 0.6607947
vt 0.4725775 0.6607947
vt 0.4725775 0.6607947
vt 0.4702205 0.6765789
vt 0.4702205 0.6765789
vt 0.4396518 0.5806509
vt 0.4396518 0.5806509
vt 0.4523901 0.5844525
vt 0.4523901 0.5844525
vt 0.404789 0.6161788
vt 0.404789 0.6161788
vt 0.4047475 0.5981629
vt 0.4047475 0.5981629
vt 0.4523901 0.5844525
vt 0.4523901 0.5844525
vt 0.4619309 0.5997345
vt 0.4619309 0.5997345
vt 0.4214193 0.6706938
vt 0.4214193 0.6706938
vt 0.418403 0.6572375
vt 0.418403 0.6572375
vt 0.4156927 0.6426276
vt 0.4156927 0.6426276
vt 0.4156927 0.6426276
vt 0.4156927 0.6426276
vt 0.4107282 0.6293128
vt 0.4107282 0.6293128
vt 0.4107282 0.6293128
vt 0.4107282 0.6293128
vt 0.404789 0.6161788
vt 0.404789 0.6161788
vt 0.4392971 0.6889118
vt 0.4392971 0.6889118
vt 0.4294942 0.6844595
vt 0.4294942 0.6844595
vt 0.4135168 0.5881721
vt 0.4135168 0.5881721
vt 0.4396518 0.5806509
vt 0.4396518 0.5806509
vt 0.4294942 0.6844595
vt 0.4294942 0.6844595
vt 0.4214193 0.6706938
vt 0.4214193 0.6706938
vt 0.4627861 0.6843666
vt 0.4627861 0.6843666
vt 0.4392971 0.6889118
vt 0.4392971 0.6889118
vt 0.4047475 0.5981629
vt 0.4047475 0.5981629
vt 0.4135168 0.5881721
vt 0.4135168 0.5881721
vn 1.494944E-07 0 1
vn 0 0 1
vn 0 0 1
vn 0 0 1
vn 0.02073124 0.104117 0.9943489
vn 0.02073744 0.1041481 0.9943456
vn 0.03812042 0.1829316 0.9823862
vn 0.03811886 0.1829322 0.9823862
vn 0.006869126 0.03905879 0.9992133
vn 0.006768078 0.03861741 0.9992311
vn -0.04991895 -0.1842185 0.9816169
vn -0.0500361 -0.1846148 0.9815364
vn -0.05417143 -0.1928467 0.9797324
vn -0.05411599 -0.1926409 0.979776
vn -0.0265448 -0.09223997 0.995383
vn -0.02654478 -0.09223998 0.9953828
vn 1.163291E-07 0 1
vn 0 0 1
vn 0.9894447 -0.1449106 0
vn 0.9894447 -0.1449106 0
vn 0.9897077 -0.1431038 0
vn 0.9896487 -0.1435111 0
vn 0.9899125 -0.1416808 0
vn 0.9899125 -0.1416808 0
vn 0.9719373 -0.2352401 0
vn 0.9719373 -0.2352401 0
vn 0.9719373 -0.2352401 0
vn 0.9719373 -0.2352401 0
vn 0.7233261 0.6905066 0
vn 0.7233261 0.6905066 0
vn 0.7233261 0.6905066 0
vn 0.7233261 0.6905066 0
vn 0.9867573 -0.1622039 0
vn 0.9867573 -0.1622039 0
vn 0.9867573 -0.1622039 0
vn 0.9867573 -0.1622039 0
vn 0.9890344 0.1476851 0
vn 0.9890344 0.1476851 0
vn 0.9890344 0.1476851 0
vn 0.9890344 0.1476851 0
vn 0.2859641 -0.9582403 0
vn 0.2859641 -0.9582403 0
vn 0.2859641 -0.9582403 0
vn 0.2859641 -0.9582403 0
vn -0.9999974 0.002303948 0
vn -0.9999974 0.002303948 0
vn -0.9999974 0.002303948 0
vn -0.9999974 0.002303948 0
vn 0.8482565 -0.5295855 0
vn 0.8482565 -0.5295855 0
vn 0.8482565 -0.5295855 0
vn 0.8482565 -0.5295855 0
vn -0.9757845 0.2187342 0
vn -0.9757845 0.2187342 0
vn -0.9757845 0.2187342 0
vn -0.9757845 0.2187342 0
vn -0.9832249 0.1823972 0
vn -0.9832249 0.1823972 0
vn -0.9369882 0.3493611 0
vn -0.9369882 0.3493611 0
vn -0.9369882 0.3493611 0
vn -0.9369882 0.3493611 0
vn -0.9111713 0.4120278 0
vn -0.9111713 0.4120278 0
vn -0.9111713 0.4120278 0
vn -0.9111713 0.4120278 0
vn -0.4135329 0.9104891 0
vn -0.4135329 0.9104891 0
vn -0.4135329 0.9104891 0
vn -0.4135329 0.9104891 0
vn -0.2765557 -0.9609979 0
vn -0.2765557 -0.9609979 0
vn -0.2765557 -0.9609979 0
vn -0.2765557 -0.9609979 0
vn -0.8625511 0.50597 0
vn -0.8625511 0.50597 0
vn -0.8625511 0.50597 0
vn -0.8625511 0.50597 0
vn 0.1899793 0.9817882 0
vn 0.1899793 0.9817882 0
vn 0.1899793 0.9817882 0
vn 0.1899793 0.9817882 0
vn -0.7515624 -0.659662 0
vn -0.7515624 -0.659662 0
vn -0.7515624 -0.659662 0
vn -0.7515624 -0.659662 0
g Bridge A_0
f 3/3/3 2/2/2 1/1/1
f 2/2/2 3/3/3 4/4/4
f 4/4/4 3/3/3 5/5/5
f 3/3/3 6/6/6 5/5/5
f 5/5/5 6/6/6 7/7/7
f 6/6/6 8/8/8 7/7/7
f 7/7/7 8/8/8 9/9/9
f 8/8/8 10/10/10 9/9/9
f 9/9/9 10/10/10 11/11/11
f 10/10/10 12/12/12 11/11/11
f 11/11/11 12/12/12 13/13/13
f 12/12/12 14/14/14 13/13/13
f 13/13/13 14/14/14 15/15/15
f 14/14/14 16/16/16 15/15/15
f 17/17/17 15/15/15 16/16/16
f 15/15/15 17/17/17 18/18/18
g Bridge A_1
f 21/21/21 20/20/20 19/19/19
f 22/22/22 21/21/21 19/19/19
f 23/23/23 21/21/21 22/22/22
f 24/24/24 23/23/23 22/22/22
f 27/27/27 26/26/26 25/25/25
f 28/28/28 27/27/27 25/25/25
f 31/31/31 30/30/30 29/29/29
f 32/32/32 31/31/31 29/29/29
f 35/35/35 34/34/34 33/33/33
f 36/36/36 35/35/35 33/33/33
f 39/39/39 38/38/38 37/37/37
f 40/40/40 39/39/39 37/37/37
f 43/43/43 42/42/42 41/41/41
f 44/44/44 43/43/43 41/41/41
f 47/47/47 46/46/46 45/45/45
f 48/48/48 47/47/47 45/45/45
f 51/51/51 50/50/50 49/49/49
f 52/52/52 51/51/51 49/49/49
f 55/55/55 54/54/54 53/53/53
f 56/56/56 55/55/55 53/53/53
f 57/57/57 55/55/55 56/56/56
f 58/58/58 57/57/57 56/56/56
f 61/61/61 60/60/60 59/59/59
f 62/62/62 61/61/61 59/59/59
f 65/65/65 64/64/64 63/63/63
f 66/66/66 65/65/65 63/63/63
f 69/69/69 68/68/68 67/67/67
f 70/70/70 69/69/69 67/67/67
f 73/73/73 72/72/72 71/71/71
f 74/74/74 73/73/73 71/71/71
f 77/77/77 76/76/76 75/75/75
f 78/78/78 77/77/77 75/75/75
f 81/81/81 80/80/80 79/79/79
f 82/82/82 81/81/81 79/79/79
f 85/85/85 84/84/84 83/83/83
f 86/86/86 85/85/85 83/83/83
