g Bridge C
v 0.4453827 0.6178002 0.1349
v 0.4772033 0.5554759 0.1349
v 0.4174687 0.6323772 0.1349
v 0.4726406 0.5243173 0.1349
v 0.4405037 0.4904621 0.1349
v 0.3711999 0.626201 0.1349
v 0.4036555 0.4703183 0.1427381
v 0.3347528 0.6089227 0.1427381
v 0.3605605 0.4507759 0.1493759
v 0.2961983 0.5888615 0.1493759
v 0.319845 0.4274071 0.1468619
v 0.2565698 0.5763282 0.1468619
v 0.2805959 0.40505 0.1349
v 0.2156027 0.5663668 0.1349
v 0.2281924 0.3995224 0.1312011
v 0.1740037 0.5340216 0.1312011
v 0.1667666 0.4958189 0.1312011
v 0.1964925 0.4220376 0.1312011
v 0.2805959 0.40505 0.11
v 0.2805959 0.40505 0.1349
v 0.319845 0.4274071 0.1468619
v 0.319845 0.4274071 0.1268619
v 0.3605605 0.4507759 0.1493759
v 0.3605605 0.4507759 0.1293759
v 0.3605605 0.4507759 0.1293759
v 0.3605605 0.4507759 0.1493759
v 0.4036555 0.4703183 0.1427381
v 0.4036555 0.4703183 0.1227381
v 0.1964925 0.4220376 0.11
v 0.1964925 0.4220376 0.1312011
v 0.2281924 0.3995224 0.1312011
v 0.2281924 0.3995224 0.11
v 0.4726406 0.5243173 0.112
v 0.4726406 0.5243173 0.1349
v 0.4772033 0.5554759 0.1349
v 0.4772033 0.5554759 0.112
v 0.4036555 0.4703183 0.1227381
v 0.4036555 0.4703183 0.1427381
v 0.4405037 0.4904621 0.1349
v 0.4405037 0.4904621 0.112
v 0.2281924 0.3995224 0.11
v 0.2281924 0.3995224 0.1312011
v 0.2805959 0.40505 0.1349
v 0.2805959 0.40505 0.11
v 0.4453827 0.6178002 0.112
v 0.4453827 0.6178002 0.1349
v 0.4174687 0.6323772 0.1349
v 0.4174687 0.6323772 0.112
v 0.4405037 0.4904621 0.112
v 0.4405037 0.4904621 0.1349
v 0.4726406 0.5243173 0.1349
v 0.4726406 0.5243173 0.112
v 0.2156027 0.5663668 0.11
v 0.2156027 0.5663668 0.1349
v 0.1740037 0.5340216 0.1312011
v 0.1740037 0.5340216 0.11
v 0.3711999 0.626201 0.112
v 0.3711999 0.626201 0.1349
v 0.3347528 0.6089227 0.1427381
v 0.3347528 0.6089227 0.1227381
v 0.2961983 0.5888615 0.1493759
v 0.2961983 0.5888615 0.1293759
v 0.2961983 0.5888615 0.1293759
v 0.2961983 0.5888615 0.1493759
v 0.2565698 0.5763282 0.1468619
v 0.2565698 0.5763282 0.1268619
v 0.2565698 0.5763282 0.1268619
v 0.2565698 0.5763282 0.1468619
v 0.2156027 0.5663668 0.1349
v 0.2156027 0.5663668 0.11
v 0.1667666 0.4958189 0.11
v 0.1667666 0.4958189 0.1312011
v 0.1964925 0.4220376 0.1312011
v 0.1964925 0.4220376 0.11
v 0.4174687 0.6323772 0.112
v 0.4174687 0.6323772 0.1349
v 0.3711999 0.626201 0.1349
v 0.3711999 0.626201 0.112
v 0.4772033 0.5554759 0.112
v 0.4772033 0.5554759 0.1349
v 0.4453827 0.6178002 0.1349
v 0.4453827 0.6178002 0.112
v 0.1740037 0.5340216 0.11
v 0.1740037 0.5340216 0.1312011
v 0.1667666 0.4958189 0.1312011
v 0.1667666 0.4958189 0.11
vt 0.734359 0.4405209
vt 0.7452381 0.4192127
vt 0.7248155 0.4455046
vt 0.7436782 0.4085598
vt 0.7326909 0.3969849
vt 0.7089966 0.4433931
vt 0.7200928 0.390098
vt 0.6965355 0.4374857
vt 0.7053589 0.3834165
vt 0.6833539 0.430627
vt 0.6914386 0.3754269
vt 0.6698053 0.4263419
vt 0.6780196 0.3677832
vt 0.6557989 0.4229362
vt 0.6601033 0.3658933
vt 0.6415765 0.4118776
vt 0.6391023 0.3988164
vt 0.6492652 0.3735911
vt 0.6780196 0.3677832
vt 0.6780196 0.3677832
vt 0.6914386 0.3754269
vt 0.6914386 0.3754269
vt 0.7053589 0.3834165
vt 0.7053589 0.3834165
vt 0.7053589 0.3834165
vt 0.7053589 0.3834165
vt 0.7200928 0.390098
vt 0.7200928 0.390098
vt 0.6492652 0.3735911
vt 0.6492652 0.3735911
vt 0.6601033 0.3658933
vt 0.6601033 0.3658933
vt 0.7436782 0.4085598
vt 0.7436782 0.4085598
vt 0.7452381 0.4192127
vt 0.7452381 0.4192127
vt 0.7200928 0.390098
vt 0.7200928 0.390098
vt 0.7326909 0.3969849
vt 0.7326909 0.3969849
vt 0.6601033 0.3658933
vt 0.6601033 0.3658933
vt 0.6780196 0.3677832
vt 0.6780196 0.3677832
vt 0.734359 0.4405209
vt 0.734359 0.4405209
vt 0.7248155 0.4455046
vt 0.7248155 0.4455046
vt 0.7326909 0.3969849
vt 0.7326909 0.3969849
vt 0.7436782 0.4085598
vt 0.7436782 0.4085598
vt 0.6557989 0.4229362
vt 0.6557989 0.4229362
vt 0.6415765 0.4118776
vt 0.6415765 0.4118776
vt 0.7089966 0.4433931
vt 0.7089966 0.4433931
vt 0.6965355 0.4374857
vt 0.6965355 0.4374857
vt 0.6833539 0.430627
vt 0.6833539 0.430627
vt 0.6833539 0.430627
vt 0.6833539 0.430627
vt 0.6698053 0.4263419
vt 0.6698053 0.4263419
vt 0.6698053 0.4263419
vt 0.6698053 0.4263419
vt 0.6557989 0.4229362
vt 0.6557989 0.4229362
vt 0.6391023 0.3988164
vt 0.6391023 0.3988164
vt 0.6492652 0.3735911
vt 0.6492652 0.3735911
vt 0.7248155 0.4455046
vt 0.7248155 0.4455046
vt 0.7089966 0.4433931
vt 0.7089966 0.4433931
vt 0.7452381 0.4192127
vt 0.7452381 0.4192127
vt 0.734359 0.4405209
vt 0.734359 0.4405209
vt 0.6415765 0.4118776
vt 0.6415765 0.4118776
vt 0.6391023 0.3988164
vt 0.6391023 0.3988164
vn 0 0 1
vn -6.383073E-07 0 1
vn 0 0 1
vn 0 0 1
vn 0.09480891 0.04776216 0.9943491
vn 0.09483726 0.04777645 0.9943456
vn 0.1487805 0.07350656 0.9861345
vn 0.1487981 0.07351681 0.9861311
vn 0.0372384 0.01892477 0.9991272
vn 0.03695406 0.01879081 0.9991403
vn -0.1573109 -0.06579945 0.9853547
vn -0.1577982 -0.06599681 0.9852635
vn -0.1625564 -0.06687023 0.9844307
vn -0.1622858 -0.06675728 0.9844829
vn -0.0516284 -0.02080076 0.9984497
vn -0.05162854 -0.02080076 0.9984497
vn 0 0 1
vn 9.139297E-07 0 1
vn 0.4949534 -0.8689195 0
vn 0.4949534 -0.8689195 0
vn 0.4965224 -0.868024 0
vn 0.4962025 -0.8682068 0
vn 0.4977883 -0.8672985 0
vn 0.4977883 -0.8672985 0
vn 0.4129942 -0.9107336 0
vn 0.4129942 -0.9107336 0
vn 0.4129942 -0.9107336 0
vn 0.4129942 -0.9107336 0
vn -0.5790639 -0.8152823 0
vn -0.5790639 -0.8152823 0
vn -0.5790639 -0.8152823 0
vn -0.5790639 -0.8152823 0
vn 0.9894478 -0.1448896 0
vn 0.9894478 -0.1448896 0
vn 0.9894478 -0.1448896 0
vn 0.9894478 -0.1448896 0
vn 0.479672 -0.8774479 0
vn 0.479672 -0.8774479 0
vn 0.479672 -0.8774479 0
vn 0.479672 -0.8774479 0
vn 0.1049011 -0.9944828 0
vn 0.1049011 -0.9944828 0
vn 0.1049011 -0.9944828 0
vn 0.1049011 -0.9944828 0
vn 0.4628961 0.8864125 0
vn 0.4628961 0.8864125 0
vn 0.4628961 0.8864125 0
vn 0.4628961 0.8864125 0
vn 0.7252739 -0.6884604 0
vn 0.7252739 -0.6884604 0
vn 0.7252739 -0.6884604 0
vn 0.7252739 -0.6884604 0
vn -0.6138284 0.7894394 0
vn -0.6138284 0.7894394 0
vn -0.6138284 0.7894394 0
vn -0.6138284 0.7894394 0
vn -0.4283691 0.9036039 0
vn -0.4283691 0.9036039 0
vn -0.4283691 0.9036039 0
vn -0.4283691 0.9036039 0
vn -0.4615847 0.8870961 0
vn -0.4615847 0.8870961 0
vn -0.3015487 0.9534507 0
vn -0.3015487 0.9534507 0
vn -0.3015487 0.9534507 0
vn -0.3015487 0.9534507 0
vn -0.2362712 0.9716873 0
vn -0.2362712 0.9716873 0
vn -0.2362712 0.9716873 0
vn -0.2362712 0.9716873 0
vn -0.9275488 -0.3737019 0
vn -0.9275488 -0.3737019 0
vn -0.9275488 -0.3737019 0
vn -0.9275488 -0.3737019 0
vn -0.1323112 0.9912082 0
vn -0.1323112 0.9912082 0
vn -0.1323112 0.9912082 0
vn -0.1323112 0.9912082 0
vn 0.8906319 0.4547251 0
vn 0.8906319 0.4547251 0
vn 0.8906319 0.4547251 0
vn 0.8906319 0.4547251 0
vn -0.9825251 0.18613 0
vn -0.9825251 0.18613 0
vn -0.9825251 0.18613 0
vn -0.9825251 0.18613 0
g Bridge C_0
f 3/3/3 2/2/2 1/1/1
f 2/2/2 3/3/3 4/4/4
f 4/4/4 3/3/3 5/5/5
f 3/3/3 6/6/6 5/5/5
f 5/5/5 6/6/6 7/7/7
f 6/6/6 8/8/8 7/7/7
f 7/7/7 8/8/8 9/9/9
f 8/8/8 10/10/10 9/9/9
f 9/9/9 10/10/10 11/11/11
f 10/10/10 12/12/12 11/11/11
f 11/11/11 12/12/12 13/13/13
f 12/12/12 14/14/14 13/13/13
f 13/13/13 14/14/14 15/15/15
f 14/14/14 16/16/16 15/15/15
f 17/17/17 15/15/15 16/16/16
f 15/15/15 17/17/17 18/18/18
g Bridge C_1
f 21/21/21 20/20/20 19/19/19
f 22/22/22 21/21/21 19/19/19
f 23/23/23 21/21/21 22/22/22
f 24/24/24 23/23/23 22/22/22
f 27/27/27 26/26/26 25/25/25
f 28/28/28 27/27/27 25/25/25
f 31/31/31 30/30/30 29/29/29
f 32/32/32 31/31/31 29/29/29
f 35/35/35 34/34/34 33/33/33
f 36/36/36 35/35/35 33/33/33
f 39/39/39 38/38/38 37/37/37
f 40/40/40 39/39/39 37/37/37
f 43/43/43 42/42/42 41/41/41
f 44/44/44 43/43/43 41/41/41
f 47/47/47 46/46/46 45/45/45
f 48/48/48 47/47/47 45/45/45
f 51/51/51 50/50/50 49/49/49
f 52/52/52 51/51/51 49/49/49
f 55/55/55 54/54/54 53/53/53
f 56/56/56 55/55/55 53/53/53
f 59/59/59 58/58/58 57/57/57
f 60/60/60 59/59/59 57/57/57
f 61/61/61 59/59/59 60/60/60
f 62/62/62 61/61/61 60/60/60
f 65/65/65 64/64/64 63/63/63
f 66/66/66 65/65/65 63/63/63
f 69/69/69 68/68/68 67/67/67
f 70/70/70 69/69/69 67/67/67
f 73/73/73 72/72/72 71/71/71
f 74/74/74 73/73/73 71/71/71
f 77/77/77 76/76/76 75/75/75
f 78/78/78 77/77/77 75/75/75
f 81/81/81 80/80/80 79/79/79
f 82/82/82 81/81/81 79/79/79
f 85/85/85 84/84/84 83/83/83
f 86/86/86 85/85/85 83/83/83
