g Corrupt King Monster Mount.014
v -3.486898 22.02984 1.531047
v -3.430235 21.58533 1.488982
v -3.366288 21.60499 1.461307
v -3.197134 21.00915 1.283208
v -3.311286 20.96863 1.33268
v -3.455936 21.57438 1.555779
v -3.486898 22.02984 1.531047
v -3.078718 21.03465 1.33268
v -3.301545 21.62186 1.488982
v -3.486898 22.02984 1.531047
v -2.987985 20.27242 1.104444
v -2.828585 20.31054 1.171941
v -3.354322 20.93683 1.452084
v -3.143633 20.2211 1.171941
v -3.428317 21.57857 1.622572
v -3.486898 22.02984 1.531047
v -3.025395 21.03021 1.452084
v -2.758791 20.31312 1.334851
v -3.273926 21.62605 1.555779
v -3.486898 22.02984 1.531047
v -2.565258 19.50524 1.096417
v -2.754159 19.44877 1.014783
v -2.488481 19.53389 1.293448
v -3.204374 20.18663 1.334851
v -3.300998 20.93239 1.571486
v -3.363576 21.59544 1.650249
v -3.486898 22.02984 1.531047
v -3.182584 20.9579 1.620959
v -3.13458 20.18921 1.497758
v -2.975183 20.22733 1.565254
v -2.94455 19.39756 1.096417
v -2.94815 19.41024 1.490478
v -2.759251 19.46671 1.572117
v -3.024927 19.3816 1.293448
v -2.756058 18.6405 1.608813
v -2.547517 18.72088 1.698753
v -2.831341 18.56801 1.391747
v -2.729201 18.5459 1.174681
v -2.509531 18.58708 1.084741
v -2.567308 17.90664 1.886589
v -2.346696 18.01349 1.977115
v -2.635493 17.78057 1.668097
v -2.511235 17.70913 1.449609
v -2.386165 17.21912 2.338684
v -2.158339 17.35001 2.422935
v -2.445785 17.04239 2.135346
v -2.214411 16.58011 2.961748
v -1.982041 16.729 3.036716
v -2.30099 18.66746 1.174681
v -2.267389 17.73413 1.359081
v -2.302198 16.92335 1.932007
v -2.267138 16.36502 2.78082
v -2.052441 15.98741 3.727906
v -1.816978 16.14757 3.794843
v -2.225707 18.73994 1.391745
v -2.039582 16.93169 1.847756
v -2.109256 16.2097 2.599891
v -2.100993 15.74842 3.566347
v -1.898219 15.4307 4.581061
v -1.660429 15.59612 4.644379
v -1.833316 16.20512 2.524926
v -1.934111 15.57059 3.404794
v -1.945316 15.18101 4.428238
v -1.745613 14.88575 5.43927
v -1.505435 15.05016 5.506378
v -1.649618 15.55804 3.337854
v -1.774047 14.99331 4.275422
v -1.794588 14.6396 5.277298
v -1.581704 14.30487 6.19897
v -1.336975 14.45676 6.2819
v -1.484809 14.97751 4.212101
v -1.623585 14.45591 5.115329
v -1.639817 14.08945 5.998816
v -1.382266 13.60105 6.715232
v -1.125592 13.71217 6.824055
v -1.332846 14.44222 5.048218
v -1.477187 13.93671 5.798663
v -1.468526 13.48425 6.452572
v -1.133791 12.7255 6.73991
v -0.8585234 12.77142 6.850565
v -0.8468871 11.71486 6.071199
v -0.5586727 11.7152 6.155232
v -1.0091 11.86547 5.868379
v -1.264764 12.76607 6.472839
v -0.9502175 12.07884 5.665563
v -1.174647 12.86941 6.205771
v -0.704815 12.22999 5.581531
v -1.333759 13.43018 6.189918
v -0.9163078 12.97497 6.095116
v -0.4166002 12.23033 5.665563
v -1.056987 13.47051 6.081089
v -0.6410407 13.0209 6.205771
v -0.2543876 12.07972 5.868379
v -1.189153 13.93606 5.715731
v -0.8003107 13.58162 6.189918
v -0.5100669 12.98032 6.472839
v -0.3132695 11.86635 6.071199
v -0.9444237 14.08796 5.798663
v -0.714052 13.69843 6.452572
v -0.6001843 12.87698 6.73991
v -0.5586727 11.7152 6.155232
v -0.8585234 12.77142 6.850565
v -0.8488176 13.75249 6.715232
v -1.125592 13.71217 6.824055
v -1.092667 14.60663 5.115329
v -0.8863106 14.30337 5.998816
v -1.048941 14.45612 6.19897
v -1.336975 14.45676 6.2819
v -1.247017 15.14293 4.275422
v -1.043692 14.85277 5.277298
v -1.214694 15.03647 5.439269
v -1.505435 15.05016 5.506378
v -1.414155 15.7182 3.404794
v -1.199921 15.39262 4.428238
v -1.371189 15.58032 4.581061
v -1.660429 15.59612 4.644379
v -1.600946 16.35401 2.599891
v -1.365602 15.95719 3.566347
v -1.532485 16.13502 3.727906
v -1.816978 16.14757 3.794843
v -1.811755 17.06258 1.932007
v -1.548219 16.56911 2.78082
v -1.706102 16.72442 2.961748
v -1.982041 16.729 3.036716
v -2.046775 17.84098 1.449609
v -1.752135 17.23931 2.135346
v -1.895723 17.35835 2.338684
v -2.158339 17.35001 2.422935
v -1.978591 17.96706 1.668097
v -2.102848 18.0385 1.886589
v -2.346696 18.01349 1.977115
v -2.327846 18.76206 1.608813
v -2.547517 18.72088 1.698753
v -2.568858 19.51792 1.490478
v -2.759251 19.46671 1.572117
v -2.819533 20.27865 1.497758
v -2.975183 20.22733 1.565254
v -3.068431 20.99842 1.571486
v -3.182584 20.9579 1.620959
v -3.299627 21.6151 1.622572
v -3.486898 22.02984 1.531047
v -3.363576 21.59544 1.650249
v -3.486898 22.02984 1.531047
vt 0 0.625
vt 0.06666667 0.625
vt 0.06666667 0.5
vt 0.1333333 0.5
vt 0.1333333 0.625
vt 0.06666667 0.75
vt 0 0.75
vt 0.1333333 0.375
vt 0.06666667 0.375
vt 0 0.5
vt 0.2 0.5
vt 0.2 0.375
vt 0.1333333 0.75
vt 0.2 0.625
vt 0.06666667 0.875
vt 0 0.875
vt 0.1333333 0.25
vt 0.2 0.25
vt 0.06666667 0.25
vt 0 0.375
vt 0.2666667 0.375
vt 0.2666667 0.5
vt 0.2666667 0.25
vt 0.2 0.75
vt 0.1333333 0.875
vt 0.06666667 1
vt 0 1
vt 0.1333333 1
vt 0.2 0.875
vt 0.2 1
vt 0.2666667 0.625
vt 0.2666667 0.875
vt 0.2666667 1
vt 0.2666667 0.75
vt 0.3333333 0.875
vt 0.3333333 1
vt 0.3333333 0.75
vt 0.3333333 0.625
vt 0.3333333 0.5
vt 0.4 0.875
vt 0.4 1
vt 0.4 0.75
vt 0.4 0.625
vt 0.4666667 0.875
vt 0.4666667 1
vt 0.4666667 0.75
vt 0.5333334 0.875
vt 0.5333334 1
vt 0.3333333 0.375
vt 0.4 0.5
vt 0.4666667 0.625
vt 0.5333334 0.75
vt 0.6 0.875
vt 0.6 1
vt 0.3333333 0.25
vt 0.4666667 0.5
vt 0.5333334 0.625
vt 0.6 0.75
vt 0.6666667 0.875
vt 0.6666667 1
vt 0.5333334 0.5
vt 0.6 0.625
vt 0.6666667 0.75
vt 0.7333333 0.875
vt 0.7333333 1
vt 0.6 0.5
vt 0.6666667 0.625
vt 0.7333333 0.75
vt 0.8 0.875
vt 0.8 1
vt 0.6666667 0.5
vt 0.7333333 0.625
vt 0.8 0.75
vt 0.8666667 0.875
vt 0.8666667 1
vt 0.7333333 0.5
vt 0.8 0.625
vt 0.8666667 0.75
vt 0.9333333 0.875
vt 0.9333333 1
vt 1 0.875
vt 1 1
vt 1 0.75
vt 0.9333333 0.75
vt 1 0.625
vt 0.9333333 0.625
vt 1 0.5
vt 0.8666667 0.625
vt 0.9333333 0.5
vt 1 0.375
vt 0.8666667 0.5
vt 0.9333333 0.375
vt 1 0.25
vt 0.8 0.5
vt 0.8666667 0.375
vt 0.9333333 0.25
vt 1 0.125
vt 0.8 0.375
vt 0.8666667 0.25
vt 0.9333333 0.125
vt 1 0
vt 0.9333333 0
vt 0.8666667 0.125
vt 0.8666667 0
vt 0.7333333 0.375
vt 0.8 0.25
vt 0.8 0.125
vt 0.8 0
vt 0.6666667 0.375
vt 0.7333333 0.25
vt 0.7333333 0.125
vt 0.7333333 0
vt 0.6 0.375
vt 0.6666667 0.25
vt 0.6666667 0.125
vt 0.6666667 0
vt 0.5333334 0.375
vt 0.6 0.25
vt 0.6 0.125
vt 0.6 0
vt 0.4666667 0.375
vt 0.5333334 0.25
vt 0.5333334 0.125
vt 0.5333334 0
vt 0.4 0.375
vt 0.4666667 0.25
vt 0.4666667 0.125
vt 0.4666667 0
vt 0.4 0.25
vt 0.4 0.125
vt 0.4 0
vt 0.3333333 0.125
vt 0.3333333 0
vt 0.2666667 0.125
vt 0.2666667 0
vt 0.2 0.125
vt 0.2 0
vt 0.1333333 0.125
vt 0.1333333 0
vt 0.06666667 0.125
vt 0 0.25
vt 0.06666667 0
vt 0 0.125
vn -0.7198373 -0.02611667 -0.6936514
vn -0.7403419 -0.001410559 -0.6722291
vn -0.0597377 0.2104261 -0.9757829
vn -0.06860151 0.2416489 -0.9679358
vn -0.7310584 0.006669784 -0.6822823
vn -0.9924683 -0.1167349 0.03714582
vn -0.9976957 -0.06740274 0.007747549
vn 0.6185042 0.389798 -0.6822829
vn 0.630649 0.3878012 -0.6722292
vn -0.04259789 0.1500531 -0.9877599
vn -0.0451614 0.1590804 -0.9862322
vn 0.6347827 0.3229273 -0.7019751
vn -0.9838042 -0.1788856 0.0113694
vn -0.7097732 -0.05877894 -0.7019736
vn -0.6910819 -0.07363535 0.7190158
vn -0.721475 0.04646465 0.6908797
vn 0.9310466 0.3647233 0.01136769
vn 0.9410173 0.3382954 -0.006536151
vn 0.9057624 0.4221552 0.03714113
vn 0.6261853 0.356006 -0.6936511
vn 0.6633638 0.2123261 -0.7175417
vn -0.003433772 0.01209319 -0.999921
vn 0.9472584 0.3196931 -0.02231318
vn -0.9784017 -0.2066088 -0.006535265
vn -0.674805 -0.2054829 0.7088123
vn -0.02766592 0.09744845 0.994856
vn -0.06970498 0.2455281 0.9668801
vn 0.0161062 -0.05673661 0.9982592
vn -0.6844627 -0.1964561 0.7020797
vn 0.00867613 -0.03056546 0.9994951
vn -0.675977 -0.1678995 -0.7175408
vn -0.7098487 -0.1236027 0.6934242
vn -0.02344305 0.08257473 0.9963091
vn -0.9739377 -0.2257154 -0.02231238
vn -0.7444848 -0.01279982 0.6675168
vn -0.07085793 0.2495916 0.9657552
vn -0.9692216 -0.2439699 -0.03298977
vn -0.6335999 -0.3103224 -0.7086968
vn 0.05145346 -0.1812479 -0.9820904
vn -0.7804954 0.1110679 0.6152161
vn -0.1232394 0.4341046 0.8923931
vn -0.9646745 -0.2610972 -0.03508971
vn -0.590115 -0.4626509 -0.661603
vn -0.8100833 0.221378 0.5429152
vn -0.1689685 0.5951842 0.7856241
vn -0.9615786 -0.272981 -0.02912058
vn -0.829708 0.3019334 0.46949
vn -0.2013324 0.709188 0.6756608
vn 0.7021426 0.06888221 -0.7086967
vn 0.1102199 -0.3882541 -0.9149373
vn -0.5545762 -0.5937543 -0.5830104
vn -0.960455 -0.2777216 -0.01992377
vn -0.8398601 0.3510642 0.4139916
vn -0.220129 0.7754015 0.5918579
vn 0.952837 0.301684 -0.03299155
vn 0.1610609 -0.5673399 -0.8075796
vn -0.5316576 -0.6851079 -0.4979632
vn -0.9608294 -0.2769047 -0.01142209
vn -0.8415939 0.3727711 0.390847
vn -0.2272437 0.8004652 0.5546313
vn 0.1969418 -0.6937277 -0.6927884
vn -0.5205811 -0.7369784 -0.4311127
vn -0.9621927 -0.2723376 -0.00416019
vn -0.832471 0.3642531 0.4175066
vn -0.2211773 0.7790977 0.5865897
vn 0.2178046 -0.7672135 -0.6032782
vn -0.5193988 -0.7560688 -0.3982272
vn -0.9645277 -0.2639413 0.00461086
vn -0.7985831 0.2908818 0.5269278
vn -0.1873808 0.6600475 0.727479
vn 0.2260616 -0.7962973 -0.5610765
vn -0.5294893 -0.7408295 -0.4132949
vn -0.967667 -0.2510247 0.024641
vn -0.7130699 0.03876476 0.7000205
vn -0.0859359 0.3027073 0.9492014
vn 0.2210405 -0.7786124 -0.5872851
vn -0.5625421 -0.660441 -0.4973569
vn -0.9655095 -0.2511557 0.06864575
vn -0.5955557 -0.3729999 0.7114666
vn 0.07265662 -0.2559324 0.9639604
vn -0.5420539 -0.5652706 0.6218092
vn 0.1463749 -0.5156044 0.8442313
vn -0.9548165 -0.2947403 0.03812758
vn -0.9543731 -0.2902968 0.06999844
vn -0.7960601 0.1706971 -0.5806468
vn -0.7687995 -0.03000093 -0.6387857
vn -0.1504642 0.5300018 -0.834541
vn -0.6610268 -0.4120689 -0.6270908
vn -0.0750199 0.2642542 -0.961531
vn 0.5876248 0.5635118 -0.5806473
vn 0.08986397 -0.3165444 -0.9443115
vn 0.6698847 0.3784276 -0.6387855
vn 0.9672573 0.2509171 0.03812881
vn 0.190663 -0.6716065 -0.7159554
vn 0.7789398 -0.003276236 -0.6270903
vn 0.9645454 0.254465 0.06999885
vn 0.7582105 -0.1961376 0.6218094
vn 0.8256488 -0.2663471 -0.4973563
vn 0.9534544 0.2936197 0.06864592
vn 0.7027057 -0.004435379 0.7114669
vn 0.1463749 -0.5156044 0.8442313
vn 0.07265662 -0.2559324 0.9639604
vn 0.5863357 0.4076546 0.7000203
vn -0.0859359 0.3027073 0.9492014
vn 0.8397649 -0.352112 -0.4132941
vn 0.9552209 0.2948656 0.02464113
vn 0.5266223 0.6670958 0.5269271
vn -0.1873808 0.6600475 0.727479
vn 0.8391871 -0.3703792 -0.3982266
vn 0.9593371 0.2822251 0.004611241
vn 0.5169054 0.7473269 0.417506
vn -0.2211773 0.7790977 0.5865897
vn 0.8301619 -0.3535153 -0.4311125
vn 0.9617623 0.2738539 -0.004160394
vn 0.5201916 0.7593677 0.3908472
vn -0.2272437 0.8004652 0.5546313
vn 0.812331 -0.3035632 -0.4979635
vn 0.963002 0.2692524 -0.01142188
vn 0.5301213 0.7399883 0.4139913
vn -0.220129 0.7754015 0.5918579
vn 0.7838308 -0.2137945 -0.5830105
vn 0.9631125 0.2683603 -0.01992396
vn 0.5472977 0.6928521 0.4694903
vn -0.2013324 0.709188 0.6756608
vn 0.7451829 -0.0835733 -0.6616024
vn 0.9615777 0.2729844 -0.02912126
vn 0.5729271 0.6140015 0.5429151
vn -0.1689685 0.5951842 0.7856241
vn 0.9579674 0.284723 -0.03509039
vn 0.6057148 0.5045998 0.6152143
vn -0.1232394 0.4341046 0.8923931
vn 0.64016 0.3802871 0.6675155
vn -0.07085793 0.2495916 0.9657552
vn 0.6689084 0.2678126 0.6934248
vn -0.02344305 0.08257473 0.9963091
vn 0.6855879 0.1924871 0.7020811
vn 0.00867613 -0.03056546 0.9994951
vn 0.6821148 0.1797338 0.7088125
vn 0.0161062 -0.05673661 0.9982592
vn 0.6266881 0.3004678 0.719014
vn 0.8842896 0.4668748 0.007741425
vn -0.02766592 0.09744845 0.994856
vn 0.589444 0.4186226 0.6908768
g Corrupt King Monster Mount.014_0
f 3/3/3 2/2/2 1/1/1
f 3/3/3 4/4/4 2/2/2
f 4/4/4 5/5/5 2/2/2
f 2/2/2 5/5/5 6/6/6
f 2/2/2 6/6/6 7/7/7
f 8/8/8 4/4/4 3/3/3
f 9/9/9 8/8/8 3/3/3
f 9/9/9 3/3/3 10/10/10
f 4/4/4 11/11/11 5/5/5
f 8/8/8 12/12/12 4/4/4
f 12/12/12 11/11/11 4/4/4
f 5/5/5 13/13/13 6/6/6
f 11/11/11 14/14/14 5/5/5
f 5/5/5 14/14/14 13/13/13
f 6/6/6 13/13/13 15/15/15
f 6/6/6 15/15/15 16/16/16
f 17/17/17 8/8/8 9/9/9
f 18/18/18 12/12/12 8/8/8
f 17/17/17 18/18/18 8/8/8
f 19/19/19 17/17/17 9/9/9
f 19/19/19 9/9/9 20/20/20
f 12/12/12 21/21/21 11/11/11
f 11/11/11 22/22/22 14/14/14
f 21/21/21 22/22/22 11/11/11
f 18/18/18 23/23/23 12/12/12
f 23/23/23 21/21/21 12/12/12
f 14/14/14 24/24/24 13/13/13
f 13/13/13 25/25/25 15/15/15
f 13/13/13 24/24/24 25/25/25
f 15/15/15 25/25/25 26/26/26
f 15/15/15 26/26/26 27/27/27
f 25/25/25 28/28/28 26/26/26
f 25/25/25 29/29/29 28/28/28
f 24/24/24 29/29/29 25/25/25
f 29/29/29 30/30/30 28/28/28
f 14/14/14 31/31/31 24/24/24
f 22/22/22 31/31/31 14/14/14
f 29/29/29 32/32/32 30/30/30
f 32/32/32 33/33/33 30/30/30
f 24/24/24 34/34/34 29/29/29
f 31/31/31 34/34/34 24/24/24
f 34/34/34 32/32/32 29/29/29
f 32/32/32 35/35/35 33/33/33
f 35/35/35 36/36/36 33/33/33
f 34/34/34 37/37/37 32/32/32
f 37/37/37 35/35/35 32/32/32
f 31/31/31 38/38/38 34/34/34
f 38/38/38 37/37/37 34/34/34
f 22/22/22 39/39/39 31/31/31
f 39/39/39 38/38/38 31/31/31
f 35/35/35 40/40/40 36/36/36
f 40/40/40 41/41/41 36/36/36
f 37/37/37 42/42/42 35/35/35
f 42/42/42 40/40/40 35/35/35
f 38/38/38 43/43/43 37/37/37
f 43/43/43 42/42/42 37/37/37
f 40/40/40 44/44/44 41/41/41
f 44/44/44 45/45/45 41/41/41
f 42/42/42 46/46/46 40/40/40
f 46/46/46 44/44/44 40/40/40
f 44/44/44 47/47/47 45/45/45
f 47/47/47 48/48/48 45/45/45
f 49/49/49 39/39/39 22/22/22
f 21/21/21 49/49/49 22/22/22
f 39/39/39 50/50/50 38/38/38
f 50/50/50 43/43/43 38/38/38
f 43/43/43 51/51/51 42/42/42
f 51/51/51 46/46/46 42/42/42
f 46/46/46 52/52/52 44/44/44
f 52/52/52 47/47/47 44/44/44
f 47/47/47 53/53/53 48/48/48
f 53/53/53 54/54/54 48/48/48
f 55/55/55 49/49/49 21/21/21
f 23/23/23 55/55/55 21/21/21
f 50/50/50 56/56/56 43/43/43
f 56/56/56 51/51/51 43/43/43
f 51/51/51 57/57/57 46/46/46
f 57/57/57 52/52/52 46/46/46
f 52/52/52 58/58/58 47/47/47
f 58/58/58 53/53/53 47/47/47
f 53/53/53 59/59/59 54/54/54
f 59/59/59 60/60/60 54/54/54
f 56/56/56 61/61/61 51/51/51
f 61/61/61 57/57/57 51/51/51
f 57/57/57 62/62/62 52/52/52
f 62/62/62 58/58/58 52/52/52
f 58/58/58 63/63/63 53/53/53
f 63/63/63 59/59/59 53/53/53
f 59/59/59 64/64/64 60/60/60
f 64/64/64 65/65/65 60/60/60
f 61/61/61 66/66/66 57/57/57
f 66/66/66 62/62/62 57/57/57
f 62/62/62 67/67/67 58/58/58
f 67/67/67 63/63/63 58/58/58
f 63/63/63 68/68/68 59/59/59
f 68/68/68 64/64/64 59/59/59
f 64/64/64 69/69/69 65/65/65
f 69/69/69 70/70/70 65/65/65
f 66/66/66 71/71/71 62/62/62
f 71/71/71 67/67/67 62/62/62
f 67/67/67 72/72/72 63/63/63
f 72/72/72 68/68/68 63/63/63
f 68/68/68 73/73/73 64/64/64
f 73/73/73 69/69/69 64/64/64
f 69/69/69 74/74/74 70/70/70
f 74/74/74 75/75/75 70/70/70
f 71/71/71 76/76/76 67/67/67
f 76/76/76 72/72/72 67/67/67
f 72/72/72 77/77/77 68/68/68
f 77/77/77 73/73/73 68/68/68
f 73/73/73 78/78/78 69/69/69
f 78/78/78 74/74/74 69/69/69
f 74/74/74 79/79/79 75/75/75
f 79/79/79 80/80/80 75/75/75
f 79/79/79 81/81/81 80/80/80
f 81/81/81 82/82/82 80/80/80
f 83/83/83 81/81/81 79/79/79
f 84/84/84 79/79/79 74/74/74
f 84/84/84 83/83/83 79/79/79
f 78/78/78 84/84/84 74/74/74
f 85/85/85 83/83/83 84/84/84
f 86/86/86 85/85/85 84/84/84
f 86/86/86 84/84/84 78/78/78
f 87/87/87 85/85/85 86/86/86
f 88/88/88 78/78/78 73/73/73
f 88/88/88 86/86/86 78/78/78
f 77/77/77 88/88/88 73/73/73
f 89/89/89 87/87/87 86/86/86
f 89/89/89 86/86/86 88/88/88
f 90/90/90 87/87/87 89/89/89
f 91/91/91 88/88/88 77/77/77
f 91/91/91 89/89/89 88/88/88
f 92/92/92 90/90/90 89/89/89
f 92/92/92 89/89/89 91/91/91
f 93/93/93 90/90/90 92/92/92
f 94/94/94 91/91/91 77/77/77
f 94/94/94 77/77/77 72/72/72
f 76/76/76 94/94/94 72/72/72
f 95/95/95 92/92/92 91/91/91
f 95/95/95 91/91/91 94/94/94
f 96/96/96 93/93/93 92/92/92
f 96/96/96 92/92/92 95/95/95
f 97/97/97 93/93/93 96/96/96
f 98/98/98 94/94/94 76/76/76
f 98/98/98 95/95/95 94/94/94
f 99/99/99 96/96/96 95/95/95
f 99/99/99 95/95/95 98/98/98
f 100/100/100 97/97/97 96/96/96
f 100/100/100 96/96/96 99/99/99
f 101/101/101 97/97/97 100/100/100
f 102/102/102 101/101/101 100/100/100
f 102/102/102 100/100/100 103/103/103
f 103/103/103 100/100/100 99/99/99
f 104/104/104 102/102/102 103/103/103
f 105/105/105 98/98/98 76/76/76
f 105/105/105 76/76/76 71/71/71
f 106/106/106 99/99/99 98/98/98
f 103/103/103 99/99/99 106/106/106
f 106/106/106 98/98/98 105/105/105
f 104/104/104 103/103/103 107/107/107
f 107/107/107 103/103/103 106/106/106
f 108/108/108 104/104/104 107/107/107
f 109/109/109 105/105/105 71/71/71
f 109/109/109 71/71/71 66/66/66
f 110/110/110 106/106/106 105/105/105
f 107/107/107 106/106/106 110/110/110
f 110/110/110 105/105/105 109/109/109
f 108/108/108 107/107/107 111/111/111
f 111/111/111 107/107/107 110/110/110
f 112/112/112 108/108/108 111/111/111
f 113/113/113 109/109/109 66/66/66
f 113/113/113 66/66/66 61/61/61
f 114/114/114 110/110/110 109/109/109
f 111/111/111 110/110/110 114/114/114
f 114/114/114 109/109/109 113/113/113
f 112/112/112 111/111/111 115/115/115
f 115/115/115 111/111/111 114/114/114
f 116/116/116 112/112/112 115/115/115
f 117/117/117 113/113/113 61/61/61
f 117/117/117 61/61/61 56/56/56
f 118/118/118 114/114/114 113/113/113
f 115/115/115 114/114/114 118/118/118
f 118/118/118 113/113/113 117/117/117
f 116/116/116 115/115/115 119/119/119
f 119/119/119 115/115/115 118/118/118
f 120/120/120 116/116/116 119/119/119
f 121/121/121 117/117/117 56/56/56
f 121/121/121 56/56/56 50/50/50
f 122/122/122 118/118/118 117/117/117
f 119/119/119 118/118/118 122/122/122
f 122/122/122 117/117/117 121/121/121
f 120/120/120 119/119/119 123/123/123
f 123/123/123 119/119/119 122/122/122
f 124/124/124 120/120/120 123/123/123
f 125/125/125 121/121/121 50/50/50
f 125/125/125 50/50/50 39/39/39
f 49/49/49 125/125/125 39/39/39
f 126/126/126 122/122/122 121/121/121
f 123/123/123 122/122/122 126/126/126
f 126/126/126 121/121/121 125/125/125
f 124/124/124 123/123/123 127/127/127
f 127/127/127 123/123/123 126/126/126
f 128/128/128 124/124/124 127/127/127
f 129/129/129 125/125/125 49/49/49
f 129/129/129 126/126/126 125/125/125
f 127/127/127 126/126/126 129/129/129
f 55/55/55 129/129/129 49/49/49
f 128/128/128 127/127/127 130/130/130
f 130/130/130 127/127/127 129/129/129
f 130/130/130 129/129/129 55/55/55
f 131/131/131 128/128/128 130/130/130
f 132/132/132 130/130/130 55/55/55
f 131/131/131 130/130/130 132/132/132
f 132/132/132 55/55/55 23/23/23
f 133/133/133 131/131/131 132/132/132
f 134/134/134 132/132/132 23/23/23
f 133/133/133 132/132/132 134/134/134
f 134/134/134 23/23/23 18/18/18
f 135/135/135 133/133/133 134/134/134
f 136/136/136 134/134/134 18/18/18
f 135/135/135 134/134/134 136/136/136
f 136/136/136 18/18/18 17/17/17
f 137/137/137 135/135/135 136/136/136
f 138/138/138 136/136/136 17/17/17
f 137/137/137 136/136/136 138/138/138
f 138/138/138 17/17/17 19/19/19
f 139/139/139 137/137/137 138/138/138
f 140/140/140 138/138/138 19/19/19
f 139/139/139 138/138/138 140/140/140
f 140/140/140 19/19/19 141/141/141
f 142/142/142 139/139/139 140/140/140
f 142/142/142 140/140/140 143/143/143
