g Corrupt King Monster Mount.015
v -9.221195 17.95424 0.3712599
v -8.86338 17.4015 0.3712599
v -8.83864 17.43174 0.2769592
v -8.105679 16.86226 0.2008402
v -8.144478 16.80327 0.3712599
v -7.242783 16.21773 0.1404009
v -7.299662 16.14082 0.3712599
v -6.401333 15.46605 0.09332371
v -6.481634 15.3835 0.3712599
v -5.686701 14.59032 0.05747724
v -5.793277 14.51586 0.3712599
v -5.160298 13.58196 0.03091478
v -5.290546 13.52791 0.3712599
v -4.847929 12.43606 0.01187539
v -4.994285 12.40863 0.3712599
v -4.749117 11.15858 -0.001216888
v -4.903426 11.15609 0.3712599
v -4.835303 9.776689 -0.009751558
v -4.99242 9.792048 0.3712599
v -5.042344 8.338925 -0.0149343
v -5.200646 8.362262 0.3712599
v -5.266436 6.907042 -0.01778412
v -5.42664 6.924884 0.3712599
v -5.357806 5.542165 -0.01913595
v -5.519166 5.530905 0.3712599
v -5.084754 4.309742 -0.01963806
v -5.226378 4.231165 0.3712599
v -4.159063 3.420504 -0.01975393
v -4.231728 3.275705 0.3712599
v -2.42905 3.12111 -0.01976156
v -2.427038 2.959109 0.3712599
v -2.433906 3.512101 -0.1817749
v -3.983682 3.769981 -0.1817639
v -2.438762 3.903093 -0.01976156
v -4.742942 4.49939 -0.1816001
v -3.808301 4.119456 -0.01975393
v -2.440774 4.065094 0.3712599
v -4.968355 5.569341 -0.1808904
v -4.401131 4.689036 -0.01963806
v -3.735635 4.264256 0.3712599
v -2.438762 3.903093 0.7622817
v -4.879782 6.863981 -0.1789785
v -4.578907 5.596515 -0.01913595
v -4.259508 4.767613 0.3712599
v -3.808301 4.119456 0.762274
v -2.433906 3.512101 0.9242949
v -4.66028 8.2826 -0.1749475
v -4.493128 6.820921 -0.01778412
v -4.417545 5.607775 0.3712599
v -4.401131 4.689036 0.7621582
v -3.983682 3.769981 0.924284
v -2.42905 3.12111 0.7622817
v -4.456099 9.739619 -0.1676174
v -4.278214 8.226272 -0.0149343
v -4.332925 6.803079 0.3712599
v -4.578907 5.596515 0.761656
v -4.742942 4.49939 0.9241202
v -4.159063 3.420504 0.762274
v -2.427038 2.959109 0.3712599
v -4.231728 3.275705 0.3712599
v -5.084754 4.309742 0.7621582
v -5.226378 4.231165 0.3712599
v -4.968355 5.569341 0.9234102
v -5.357806 5.542165 0.761656
v -5.519166 5.530905 0.3712599
v -4.493128 6.820921 0.7603042
v -5.266436 6.907042 0.7603042
v -5.42664 6.924884 0.3712599
v -4.879782 6.863981 0.9214985
v -4.119912 8.202935 0.3712599
v -5.042344 8.338925 0.7574544
v -5.200646 8.362262 0.3712599
v -4.66028 8.2826 0.9174674
v -4.278214 8.226272 0.7574544
v -4.076896 9.702548 -0.009751558
v -4.835303 9.776689 0.7522717
v -4.99242 9.792048 0.3712599
v -3.919779 9.687189 0.3712599
v -4.456099 9.739619 0.9101374
v -4.076895 9.702548 0.7522717
v -4.376689 11.1646 -0.1555462
v -4.749117 11.15858 0.743737
v -4.903426 11.15609 0.3712599
v -4.004261 11.17062 -0.001216888
v -4.494692 12.50225 -0.1370294
v -3.849951 11.17311 0.3712599
v -4.376689 11.1646 0.8980663
v -4.004261 11.17062 0.743737
v -4.847929 12.43606 0.7306445
v -4.994285 12.40863 0.3712599
v -4.845943 13.7124 -0.1101017
v -4.141455 12.56844 0.01187539
v -3.995099 12.59587 0.3712599
v -4.494692 12.50225 0.8795495
v -4.141455 12.56844 0.7306445
v -5.160298 13.58196 0.7116053
v -5.290546 13.52791 0.3712599
v -4.531588 13.84285 0.03091478
v -4.40134 13.89689 0.3712599
v -4.845943 13.7124 0.8526216
v -4.531588 13.84285 0.7116053
v -5.686701 14.59032 0.6850431
v -5.793277 14.51586 0.3712599
v -5.429479 14.77003 -0.07253361
v -5.172256 14.94974 0.057477
v -6.207524 15.66526 -0.02183461
v -5.06568 15.02421 0.3712599
v -5.429479 14.77003 0.8150535
v -5.172256 14.94974 0.6850426
v -7.105503 16.40333 0.04474807
v -6.013714 15.86448 0.09332371
v -5.933414 15.94702 0.3712599
v -6.013714 15.86448 0.6491964
v -6.207524 15.66526 0.7643547
v -8.012033 17.00465 0.1302297
v -6.968224 16.58894 0.1404009
v -6.911345 16.66585 0.3712599
v -8.778929 17.50473 0.2378871
v -9.221195 17.95424 0.3712599
v -7.918389 17.14703 0.2008402
v -6.968224 16.58894 0.6021192
v -6.401333 15.46605 0.6491964
v -6.481634 15.3835 0.3712599
v -8.719217 17.57772 0.2769592
v -9.221195 17.95424 0.3712599
v -7.879589 17.20603 0.3712599
v -7.105503 16.40333 0.6977718
v -7.242783 16.21773 0.6021192
v -7.299662 16.14082 0.3712599
v -8.694477 17.60796 0.3712599
v -9.221195 17.95424 0.3712599
v -7.918389 17.14703 0.5416796
v -8.105679 16.86226 0.5416796
v -8.144478 16.80327 0.3712599
v -8.012033 17.00465 0.6122904
v -8.719217 17.57772 0.4655609
v -9.221195 17.95424 0.3712599
v -8.778929 17.50473 0.5046327
v -9.221195 17.95424 0.3712599
v -8.83864 17.43174 0.4655609
v -9.221195 17.95424 0.3712599
v -8.86338 17.4015 0.3712599
v -9.221195 17.95424 0.3712599
vt 0 1
vt 0.06666667 1
vt 0.06666667 0.875
vt 0.1333333 0.875
vt 0.1333333 1
vt 0.2 0.875
vt 0.2 1
vt 0.2666667 0.875
vt 0.2666667 1
vt 0.3333333 0.875
vt 0.3333333 1
vt 0.4 0.875
vt 0.4 1
vt 0.4666667 0.875
vt 0.4666667 1
vt 0.5333334 0.875
vt 0.5333334 1
vt 0.6 0.875
vt 0.6 1
vt 0.6666667 0.875
vt 0.6666667 1
vt 0.7333333 0.875
vt 0.7333333 1
vt 0.8 0.875
vt 0.8 1
vt 0.8666667 0.875
vt 0.8666667 1
vt 0.9333333 0.875
vt 0.9333333 1
vt 1 0.875
vt 1 1
vt 1 0.75
vt 0.9333333 0.75
vt 1 0.625
vt 0.8666667 0.75
vt 0.9333333 0.625
vt 1 0.5
vt 0.8 0.75
vt 0.8666667 0.625
vt 0.9333333 0.5
vt 1 0.375
vt 0.7333333 0.75
vt 0.8 0.625
vt 0.8666667 0.5
vt 0.9333333 0.375
vt 1 0.25
vt 0.6666667 0.75
vt 0.7333333 0.625
vt 0.8 0.5
vt 0.8666667 0.375
vt 0.9333333 0.25
vt 1 0.125
vt 0.6 0.75
vt 0.6666667 0.625
vt 0.7333333 0.5
vt 0.8 0.375
vt 0.8666667 0.25
vt 0.9333333 0.125
vt 1 0
vt 0.9333333 0
vt 0.8666667 0.125
vt 0.8666667 0
vt 0.8 0.25
vt 0.8 0.125
vt 0.8 0
vt 0.7333333 0.375
vt 0.7333333 0.125
vt 0.7333333 0
vt 0.7333333 0.25
vt 0.6666667 0.5
vt 0.6666667 0.125
vt 0.6666667 0
vt 0.6666667 0.25
vt 0.6666667 0.375
vt 0.6 0.625
vt 0.6 0.125
vt 0.6 0
vt 0.6 0.5
vt 0.6 0.25
vt 0.6 0.375
vt 0.5333334 0.75
vt 0.5333334 0.125
vt 0.5333334 0
vt 0.5333334 0.625
vt 0.4666667 0.75
vt 0.5333334 0.5
vt 0.5333334 0.25
vt 0.5333334 0.375
vt 0.4666667 0.125
vt 0.4666667 0
vt 0.4 0.75
vt 0.4666667 0.625
vt 0.4666667 0.5
vt 0.4666667 0.25
vt 0.4666667 0.375
vt 0.4 0.125
vt 0.4 0
vt 0.4 0.625
vt 0.4 0.5
vt 0.4 0.25
vt 0.4 0.375
vt 0.3333333 0.125
vt 0.3333333 0
vt 0.3333333 0.75
vt 0.3333333 0.625
vt 0.2666667 0.75
vt 0.3333333 0.5
vt 0.3333333 0.25
vt 0.3333333 0.375
vt 0.2 0.75
vt 0.2666667 0.625
vt 0.2666667 0.5
vt 0.2666667 0.375
vt 0.2666667 0.25
vt 0.1333333 0.75
vt 0.2 0.625
vt 0.2 0.5
vt 0.06666667 0.75
vt 0 0.875
vt 0.1333333 0.625
vt 0.2 0.375
vt 0.2666667 0.125
vt 0.2666667 0
vt 0.06666667 0.625
vt 0 0.75
vt 0.1333333 0.5
vt 0.2 0.25
vt 0.2 0.125
vt 0.2 0
vt 0.06666667 0.5
vt 0 0.625
vt 0.1333333 0.375
vt 0.1333333 0.125
vt 0.1333333 0
vt 0.1333333 0.25
vt 0.06666667 0.375
vt 0 0.5
vt 0.06666667 0.25
vt 0 0.375
vt 0.06666667 0.125
vt 0 0.25
vt 0.06666667 0
vt 0 0.125
vn -0.8394604 -0.5434208 0
vn -0.7444247 -0.6677063 0
vn -0.5710813 -0.4525016 -0.684915
vn -0.4671047 -0.5333012 -0.7052681
vn -0.6281642 -0.7780808 0
vn -0.4709473 -0.5207017 -0.7120943
vn -0.6491195 -0.7606864 0
vn -0.522091 -0.462471 -0.7166181
vn -0.73397 -0.6791819 0
vn -0.5904957 -0.3652105 -0.7196777
vn -0.8418288 -0.5397446 0
vn -0.6507111 -0.2397147 -0.7204943
vn -0.9343327 -0.356402 0
vn -0.6865243 -0.1093841 -0.718832
vn -0.9863364 -0.1647441 0
vn -0.6983976 0.0006821809 -0.7157096
vn -0.9999933 -0.003656809 0
vn -0.6980599 0.07540423 -0.712058
vn -0.9945092 0.1046499 0
vn -0.6982805 0.1068955 -0.7077978
vn -0.9887284 0.1497204 0
vn -0.7083168 0.07998554 -0.7013484
vn -0.9938054 0.1111342 0
vn -0.7228988 -0.05467834 -0.688787
vn -0.9970801 -0.07636177 0
vn -0.6427132 -0.3616402 -0.6753785
vn -0.8715282 -0.4903453 0
vn -0.3336826 -0.6582746 -0.6747818
vn -0.4519198 -0.8920586 0
vn -0.1257275 -0.7262629 -0.6758214
vn -0.1716826 -0.9851522 0
vn -0.008810855 -0.04353193 -0.9990132
vn -0.03333214 -0.06431123 -0.9973731
vn 0.1084833 0.6863001 -0.7191826
vn -0.06252215 -0.03592357 -0.9973968
vn 0.2959235 0.5943663 -0.7477686
vn 0.1540903 0.9880568 0
vn -0.03343817 -0.002892071 -0.9994366
vn 0.5816897 0.3185654 -0.7484338
vn 0.4438888 0.8960818 0
vn 0.1084833 0.6863002 0.7191825
vn -0.01013466 0.002984745 -0.9999442
vn 0.6910086 0.04371526 -0.7215235
vn 0.8788772 0.477048 0
vn 0.2959235 0.5943663 0.7477686
vn -0.008810847 -0.04353191 0.9990132
vn 0.002214507 0.003607819 -0.9999911
vn 0.6983172 -0.07658143 -0.7116798
vn 0.9982132 0.05975264 0
vn 0.5816897 0.3185654 0.7484338
vn -0.03333213 -0.06431127 0.9973731
vn -0.1257276 -0.7262631 0.6758214
vn 0.01062688 0.005772323 -0.9999269
vn 0.701059 -0.09944705 -0.706135
vn 0.9939005 -0.11028 0
vn 0.6910084 0.04371529 0.7215236
vn -0.06252215 -0.03592347 0.9973968
vn -0.3336826 -0.6582745 0.6747818
vn -0.1716826 -0.9851522 0
vn -0.4519198 -0.8920586 0
vn -0.6427132 -0.3616401 0.6753786
vn -0.8715282 -0.4903453 0
vn -0.03343814 -0.002892021 0.9994366
vn -0.7228987 -0.05467843 0.688787
vn -0.9970801 -0.07636177 0
vn 0.6983172 -0.07658145 0.7116799
vn -0.7083167 0.07998548 0.7013485
vn -0.9938054 0.1111342 0
vn -0.0101346 0.002984685 0.9999442
vn 0.9898611 -0.1420385 0
vn -0.6982805 0.1068955 0.7077979
vn -0.9887284 0.1497204 0
vn 0.002214414 0.003607781 0.9999911
vn 0.701059 -0.09944721 0.706135
vn 0.7093683 -0.06254502 -0.7020575
vn -0.6980599 0.07540423 0.7120581
vn -0.9945092 0.1046499 0
vn 0.9958987 -0.09047496 0
vn 0.01062682 0.005772312 0.9999269
vn 0.7093684 -0.06254508 0.7020574
vn 0.01700779 0.01146354 -0.9997897
vn -0.6983976 0.0006822369 0.7157096
vn -0.9999933 -0.003656809 0
vn 0.7152094 0.02251786 -0.6985474
vn 0.01959627 0.02154152 -0.9995759
vn 0.9996316 0.0271407 0
vn 0.01700785 0.0114636 0.9997897
vn 0.7152095 0.02251803 0.6985473
vn -0.6865245 -0.1093841 0.7188318
vn -0.9863364 -0.1647441 0
vn 0.01452847 0.03421813 -0.9993088
vn 0.7028085 0.1487767 -0.6956477
vn 0.9797014 0.2004626 0
vn 0.01959631 0.02154153 0.9995759
vn 0.7028085 0.1487767 0.6956476
vn -0.6507111 -0.2397147 0.7204943
vn -0.9343327 -0.356402 0
vn 0.6552304 0.2983165 -0.694032
vn 0.914248 0.4051549 0
vn 0.01452864 0.03421827 0.9993088
vn 0.6552303 0.2983165 0.6940321
vn -0.5904955 -0.3652105 0.7196779
vn -0.8418288 -0.5397446 0
vn 1.011202E-05 0.0445877 -0.9990055
vn 0.5697477 0.4397564 -0.6942635
vn -0.02111477 0.04937526 -0.998557
vn 0.8002708 0.5996389 0
vn 1.041034E-05 0.04458783 0.9990055
vn 0.5697477 0.4397565 0.6942635
vn -0.04622701 0.05089811 -0.9976335
vn 0.4657965 0.5462873 -0.6961349
vn 0.6636099 0.7480788 0
vn 0.4657965 0.5462874 0.6961349
vn -0.02111445 0.04937551 0.998557
vn -0.07909481 0.05659443 -0.9952593
vn 0.3708485 0.6116289 -0.698843
vn 0.5413778 0.8407795 0
vn -0.1424136 0.07935543 -0.986621
vn -0.6437455 -0.3483562 -0.6813514
vn 0.3067274 0.6433487 -0.7014418
vn 0.3708481 0.6116284 0.6988436
vn -0.5220909 -0.4624708 0.7166184
vn -0.73397 -0.6791819 0
vn 0.3038435 0.632394 -0.7125706
vn -0.1587865 0.1339983 -0.9781775
vn 0.4655777 0.885007 0
vn -0.04622679 0.05089853 0.9976335
vn -0.4709472 -0.5207015 0.7120946
vn -0.6491195 -0.7606864 0
vn 0.494867 0.8689688 0
vn 0.3399877 0.6284835 -0.6995834
vn 0.3067272 0.6433483 0.7014424
vn -0.4671047 -0.5333012 0.705268
vn -0.6281642 -0.7780808 0
vn -0.07909472 0.05659454 0.9952593
vn 0.3038432 0.6323938 0.7125709
vn 0.549351 0.8355917 0
vn -0.1424135 0.07935524 0.986621
vn 0.3399873 0.6284832 0.6995839
vn -0.5710811 -0.4525017 0.6849151
vn -0.1587866 0.1339978 0.9781777
vn -0.7444247 -0.6677063 0
vn -0.6437452 -0.3483562 0.6813517
g Corrupt King Monster Mount.015_0
f 3/3/3 2/2/2 1/1/1
f 3/3/3 4/4/4 2/2/2
f 4/4/4 5/5/5 2/2/2
f 4/4/4 6/6/6 5/5/5
f 6/6/6 7/7/7 5/5/5
f 6/6/6 8/8/8 7/7/7
f 8/8/8 9/9/9 7/7/7
f 8/8/8 10/10/10 9/9/9
f 10/10/10 11/11/11 9/9/9
f 10/10/10 12/12/12 11/11/11
f 12/12/12 13/13/13 11/11/11
f 12/12/12 14/14/14 13/13/13
f 14/14/14 15/15/15 13/13/13
f 14/14/14 16/16/16 15/15/15
f 16/16/16 17/17/17 15/15/15
f 16/16/16 18/18/18 17/17/17
f 18/18/18 19/19/19 17/17/17
f 18/18/18 20/20/20 19/19/19
f 20/20/20 21/21/21 19/19/19
f 20/20/20 22/22/22 21/21/21
f 22/22/22 23/23/23 21/21/21
f 22/22/22 24/24/24 23/23/23
f 24/24/24 25/25/25 23/23/23
f 24/24/24 26/26/26 25/25/25
f 26/26/26 27/27/27 25/25/25
f 26/26/26 28/28/28 27/27/27
f 28/28/28 29/29/29 27/27/27
f 28/28/28 30/30/30 29/29/29
f 30/30/30 31/31/31 29/29/29
f 32/32/32 30/30/30 28/28/28
f 33/33/33 32/32/32 28/28/28
f 33/33/33 28/28/28 26/26/26
f 34/34/34 32/32/32 33/33/33
f 35/35/35 26/26/26 24/24/24
f 35/35/35 33/33/33 26/26/26
f 36/36/36 34/34/34 33/33/33
f 36/36/36 33/33/33 35/35/35
f 37/37/37 34/34/34 36/36/36
f 38/38/38 24/24/24 22/22/22
f 38/38/38 35/35/35 24/24/24
f 39/39/39 36/36/36 35/35/35
f 39/39/39 35/35/35 38/38/38
f 40/40/40 37/37/37 36/36/36
f 40/40/40 36/36/36 39/39/39
f 41/41/41 37/37/37 40/40/40
f 42/42/42 38/38/38 22/22/22
f 42/42/42 22/22/22 20/20/20
f 43/43/43 39/39/39 38/38/38
f 43/43/43 38/38/38 42/42/42
f 44/44/44 40/40/40 39/39/39
f 44/44/44 39/39/39 43/43/43
f 45/45/45 41/41/41 40/40/40
f 45/45/45 40/40/40 44/44/44
f 46/46/46 41/41/41 45/45/45
f 47/47/47 42/42/42 20/20/20
f 47/47/47 20/20/20 18/18/18
f 48/48/48 43/43/43 42/42/42
f 48/48/48 42/42/42 47/47/47
f 49/49/49 44/44/44 43/43/43
f 49/49/49 43/43/43 48/48/48
f 50/50/50 45/45/45 44/44/44
f 50/50/50 44/44/44 49/49/49
f 51/51/51 46/46/46 45/45/45
f 51/51/51 45/45/45 50/50/50
f 52/52/52 46/46/46 51/51/51
f 53/53/53 47/47/47 18/18/18
f 53/53/53 18/18/18 16/16/16
f 54/54/54 48/48/48 47/47/47
f 54/54/54 47/47/47 53/53/53
f 55/55/55 49/49/49 48/48/48
f 55/55/55 48/48/48 54/54/54
f 56/56/56 50/50/50 49/49/49
f 56/56/56 49/49/49 55/55/55
f 57/57/57 51/51/51 50/50/50
f 57/57/57 50/50/50 56/56/56
f 58/58/58 52/52/52 51/51/51
f 58/58/58 51/51/51 57/57/57
f 59/59/59 52/52/52 58/58/58
f 60/60/60 59/59/59 58/58/58
f 60/60/60 58/58/58 61/61/61
f 61/61/61 58/58/58 57/57/57
f 62/62/62 60/60/60 61/61/61
f 63/63/63 57/57/57 56/56/56
f 61/61/61 57/57/57 63/63/63
f 62/62/62 61/61/61 64/64/64
f 64/64/64 61/61/61 63/63/63
f 65/65/65 62/62/62 64/64/64
f 66/66/66 56/56/56 55/55/55
f 63/63/63 56/56/56 66/66/66
f 65/65/65 64/64/64 67/67/67
f 68/68/68 65/65/65 67/67/67
f 64/64/64 63/63/63 69/69/69
f 69/69/69 63/63/63 66/66/66
f 67/67/67 64/64/64 69/69/69
f 66/66/66 55/55/55 70/70/70
f 70/70/70 55/55/55 54/54/54
f 68/68/68 67/67/67 71/71/71
f 72/72/72 68/68/68 71/71/71
f 67/67/67 69/69/69 73/73/73
f 71/71/71 67/67/67 73/73/73
f 69/69/69 66/66/66 74/74/74
f 74/74/74 66/66/66 70/70/70
f 73/73/73 69/69/69 74/74/74
f 70/70/70 54/54/54 75/75/75
f 75/75/75 54/54/54 53/53/53
f 72/72/72 71/71/71 76/76/76
f 77/77/77 72/72/72 76/76/76
f 74/74/74 70/70/70 78/78/78
f 78/78/78 70/70/70 75/75/75
f 71/71/71 73/73/73 79/79/79
f 76/76/76 71/71/71 79/79/79
f 73/73/73 74/74/74 80/80/80
f 80/80/80 74/74/74 78/78/78
f 79/79/79 73/73/73 80/80/80
f 75/75/75 53/53/53 81/81/81
f 81/81/81 53/53/53 16/16/16
f 81/81/81 16/16/16 14/14/14
f 77/77/77 76/76/76 82/82/82
f 83/83/83 77/77/77 82/82/82
f 78/78/78 75/75/75 84/84/84
f 84/84/84 75/75/75 81/81/81
f 85/85/85 81/81/81 14/14/14
f 84/84/84 81/81/81 85/85/85
f 85/85/85 14/14/14 12/12/12
f 80/80/80 78/78/78 86/86/86
f 86/86/86 78/78/78 84/84/84
f 76/76/76 79/79/79 87/87/87
f 82/82/82 76/76/76 87/87/87
f 79/79/79 80/80/80 88/88/88
f 88/88/88 80/80/80 86/86/86
f 87/87/87 79/79/79 88/88/88
f 83/83/83 82/82/82 89/89/89
f 90/90/90 83/83/83 89/89/89
f 91/91/91 85/85/85 12/12/12
f 91/91/91 12/12/12 10/10/10
f 92/92/92 84/84/84 85/85/85
f 86/86/86 84/84/84 92/92/92
f 92/92/92 85/85/85 91/91/91
f 88/88/88 86/86/86 93/93/93
f 93/93/93 86/86/86 92/92/92
f 82/82/82 87/87/87 94/94/94
f 89/89/89 82/82/82 94/94/94
f 87/87/87 88/88/88 95/95/95
f 95/95/95 88/88/88 93/93/93
f 94/94/94 87/87/87 95/95/95
f 90/90/90 89/89/89 96/96/96
f 97/97/97 90/90/90 96/96/96
f 98/98/98 92/92/92 91/91/91
f 93/93/93 92/92/92 98/98/98
f 95/95/95 93/93/93 99/99/99
f 99/99/99 93/93/93 98/98/98
f 89/89/89 94/94/94 100/100/100
f 96/96/96 89/89/89 100/100/100
f 94/94/94 95/95/95 101/101/101
f 101/101/101 95/95/95 99/99/99
f 100/100/100 94/94/94 101/101/101
f 97/97/97 96/96/96 102/102/102
f 103/103/103 97/97/97 102/102/102
f 98/98/98 91/91/91 104/104/104
f 104/104/104 91/91/91 10/10/10
f 104/104/104 10/10/10 8/8/8
f 99/99/99 98/98/98 105/105/105
f 105/105/105 98/98/98 104/104/104
f 106/106/106 104/104/104 8/8/8
f 105/105/105 104/104/104 106/106/106
f 106/106/106 8/8/8 6/6/6
f 101/101/101 99/99/99 107/107/107
f 107/107/107 99/99/99 105/105/105
f 96/96/96 100/100/100 108/108/108
f 102/102/102 96/96/96 108/108/108
f 100/100/100 101/101/101 109/109/109
f 109/109/109 101/101/101 107/107/107
f 108/108/108 100/100/100 109/109/109
f 110/110/110 106/106/106 6/6/6
f 110/110/110 6/6/6 4/4/4
f 111/111/111 105/105/105 106/106/106
f 107/107/107 105/105/105 111/111/111
f 111/111/111 106/106/106 110/110/110
f 109/109/109 107/107/107 112/112/112
f 112/112/112 107/107/107 111/111/111
f 108/108/108 109/109/109 113/113/113
f 113/113/113 109/109/109 112/112/112
f 102/102/102 108/108/108 114/114/114
f 114/114/114 108/108/108 113/113/113
f 115/115/115 110/110/110 4/4/4
f 115/115/115 4/4/4 3/3/3
f 116/116/116 111/111/111 110/110/110
f 112/112/112 111/111/111 116/116/116
f 116/116/116 110/110/110 115/115/115
f 113/113/113 112/112/112 117/117/117
f 117/117/117 112/112/112 116/116/116
f 118/118/118 115/115/115 3/3/3
f 118/118/118 3/3/3 119/119/119
f 120/120/120 116/116/116 115/115/115
f 120/120/120 115/115/115 118/118/118
f 117/117/117 116/116/116 120/120/120
f 121/121/121 113/113/113 117/117/117
f 114/114/114 113/113/113 121/121/121
f 122/122/122 102/102/102 114/114/114
f 103/103/103 102/102/102 122/122/122
f 123/123/123 103/103/103 122/122/122
f 124/124/124 120/120/120 118/118/118
f 124/124/124 118/118/118 125/125/125
f 126/126/126 117/117/117 120/120/120
f 126/126/126 120/120/120 124/124/124
f 121/121/121 117/117/117 126/126/126
f 122/122/122 114/114/114 127/127/127
f 127/127/127 114/114/114 121/121/121
f 123/123/123 122/122/122 128/128/128
f 128/128/128 122/122/122 127/127/127
f 129/129/129 123/123/123 128/128/128
f 130/130/130 126/126/126 124/124/124
f 130/130/130 124/124/124 131/131/131
f 132/132/132 121/121/121 126/126/126
f 127/127/127 121/121/121 132/132/132
f 132/132/132 126/126/126 130/130/130
f 129/129/129 128/128/128 133/133/133
f 134/134/134 129/129/129 133/133/133
f 128/128/128 127/127/127 135/135/135
f 135/135/135 127/127/127 132/132/132
f 133/133/133 128/128/128 135/135/135
f 136/136/136 132/132/132 130/130/130
f 135/135/135 132/132/132 136/136/136
f 136/136/136 130/130/130 137/137/137
f 138/138/138 135/135/135 136/136/136
f 133/133/133 135/135/135 138/138/138
f 138/138/138 136/136/136 139/139/139
f 134/134/134 133/133/133 140/140/140
f 140/140/140 133/133/133 138/138/138
f 140/140/140 138/138/138 141/141/141
f 142/142/142 134/134/134 140/140/140
f 142/142/142 140/140/140 143/143/143
