g Corrupt King Monster Mount.011
v 4.411552 18.32197 12.49701
v 4.336865 18.13781 12.08029
v 4.391696 18.08923 12.09522
v 4.257804 17.94286 11.44892
v 4.35593 17.8527 11.47118
v 4.396073 18.02388 12.13127
v 4.411552 18.32197 12.49701
v 4.124592 17.94652 11.47118
v 4.263686 18.14115 12.09522
v 4.411552 18.32197 12.49701
v 4.14679 17.66912 10.69248
v 3.966996 17.6757 10.72609
v 4.361518 17.72886 11.52493
v 4.280379 17.54861 10.72609
v 4.347413 17.98004 12.16732
v 4.411552 18.32197 12.49701
v 4.034328 17.86156 11.52493
v 3.846312 17.56454 10.80718
v 4.215024 18.0973 12.13127
v 4.411552 18.32197 12.49701
v 3.773261 17.28974 9.961235
v 3.987423 17.27616 9.911203
v 3.63351 17.16957 10.082
v 4.28954 17.38479 10.80718
v 4.271255 17.6439 11.57868
v 4.274234 17.98338 12.18225
v 4.411552 18.32197 12.49701
v 4.138044 17.64756 11.60095
v 4.168859 17.27362 10.88828
v 3.989065 17.2802 10.92188
v 4.150549 17.13673 9.961235
v 4.02737 16.833 10.20276
v 3.813207 16.84658 10.25279
v 4.167121 16.95317 10.082
v 3.839681 16.30033 9.59688
v 3.602407 16.32679 9.666788
v 3.986572 16.40916 9.428164
v 3.956976 16.58956 9.259446
v 3.768301 16.73585 9.189537
v 3.602462 15.66364 9.114354
v 3.351839 15.70894 9.203472
v 3.745531 15.74159 8.899267
v 3.697171 15.89717 8.68418
v 3.314612 14.91676 8.773415
v 3.057721 14.98371 8.876874
v 3.44697 14.95292 8.523708
v 2.978841 14.0633 8.574308
v 2.719565 14.14989 8.686029
v 3.531027 16.7623 9.259446
v 3.485789 16.03923 8.595062
v 3.377192 15.07106 8.273999
v 3.09919 14.05929 8.304676
v 2.604566 13.12378 8.499024
v 2.344262 13.22447 8.614562
v 3.384137 16.65348 9.428162
v 3.146232 15.20196 8.170539
v 3.010042 14.14023 8.035041
v 2.715819 13.09045 8.220177
v 2.208252 12.13646 8.505863
v 1.946561 12.24382 8.623055
v 2.763694 14.2587 7.923321
v 2.612775 13.14402 7.941331
v 2.31582 12.08985 8.223018
v 1.81132 11.15215 8.525659
v 1.546125 11.25643 8.643681
v 2.355872 13.25309 7.825794
v 2.206173 12.13133 7.940173
v 1.923478 11.11456 8.240805
v 1.436617 10.22558 8.455832
v 1.162525 10.31055 8.571793
v 1.943621 12.23657 7.822981
v 1.81682 11.16571 7.955955
v 1.568413 10.23532 8.175956
v 1.111115 9.421975 8.134791
v 0.8190652 9.463653 8.229717
v 1.553903 11.27561 7.83793
v 1.480632 10.33411 7.896083
v 1.285573 9.53651 7.905687
v 0.9033998 8.909568 7.374423
v 0.5957968 8.913117 7.412707
v 0.8866058 8.86814 6.089261
v 0.5771057 8.867029 6.071645
v 1.103009 9.086004 6.13178
v 1.115235 9.116176 7.282018
v 1.099485 9.393057 6.174298
v 1.107148 9.41197 7.189617
v 0.8781878 9.609435 6.191916
v 1.240171 9.740201 7.676581
v 0.8839651 9.62368 7.15133
v 0.5686871 9.608323 6.174298
v 1.001593 9.913725 7.581657
v 0.5763611 9.62723 7.189617
v 0.3522844 9.39046 6.13178
v 1.224777 10.46405 7.780119
v 0.7095414 9.955398 7.676581
v 0.3645255 9.420625 7.282018
v 0.3558077 9.083407 6.089261
v 0.9506839 10.54903 7.896083
v 0.5350856 9.840869 7.905687
v 0.3726127 9.124827 7.374423
v 0.5771057 8.867029 6.071645
v 0.5957968 8.913117 7.412707
v 0.580485 9.637173 8.134791
v 0.8190652 9.463653 8.229717
v 1.288706 11.37989 7.955955
v 0.8188881 10.53928 8.175956
v 0.9066687 10.4405 8.455832
v 1.162525 10.31055 8.571793
v 1.681928 12.34394 7.940173
v 1.176549 11.41747 8.240805
v 1.283206 11.36632 8.525656
v 1.546125 11.25643 8.643681
v 2.095566 13.35378 7.941331
v 1.574363 12.39055 8.223018
v 1.684007 12.34906 8.505863
v 1.946561 12.24382 8.623055
v 2.504417 14.34529 8.035041
v 1.984314 13.38711 8.220177
v 2.087358 13.33354 8.499024
v 2.344262 13.22447 8.614562
v 2.889341 15.26891 8.273999
v 2.384069 14.3493 8.304676
v 2.473217 14.26835 8.574308
v 2.719565 14.14989 8.686029
v 3.235165 16.08454 8.68418
v 2.756984 15.23275 8.523708
v 2.826761 15.1146 8.773415
v 3.057721 14.98371 8.876874
v 3.092099 16.00659 8.899267
v 3.140457 15.85101 9.114354
v 3.351839 15.70894 9.203472
v 3.413732 16.47308 9.59688
v 3.602407 16.32679 9.666788
v 3.650082 16.98601 10.20276
v 3.813207 16.84658 10.25279
v 3.855475 17.40072 10.88828
v 3.989065 17.2802 10.92188
v 4.039916 17.73772 11.57868
v 4.138044 17.64756 11.60095
v 4.219403 18.03195 12.16732
v 4.411552 18.32197 12.49701
v 4.274234 17.98338 12.18225
v 4.411552 18.32197 12.49701
vt 0 0.5
vt 0.06666667 0.5
vt 0.06666667 0.625
vt 0.1333333 0.5
vt 0.1333333 0.625
vt 0.06666667 0.75
vt 0 0.625
vt 0.1333333 0.375
vt 0.06666667 0.375
vt 0 0.375
vt 0.2 0.5
vt 0.2 0.375
vt 0.1333333 0.75
vt 0.2 0.625
vt 0.06666667 0.875
vt 0 0.75
vt 0.1333333 0.25
vt 0.2 0.25
vt 0.06666667 0.25
vt 0 0.25
vt 0.2666667 0.375
vt 0.2666667 0.5
vt 0.2666667 0.25
vt 0.2 0.75
vt 0.1333333 0.875
vt 0.06666667 1
vt 0 0.875
vt 0.1333333 1
vt 0.2 0.875
vt 0.2 1
vt 0.2666667 0.625
vt 0.2666667 0.875
vt 0.2666667 1
vt 0.2666667 0.75
vt 0.3333333 0.875
vt 0.3333333 1
vt 0.3333333 0.75
vt 0.3333333 0.625
vt 0.3333333 0.5
vt 0.4 0.875
vt 0.4 1
vt 0.4 0.75
vt 0.4 0.625
vt 0.4666667 0.875
vt 0.4666667 1
vt 0.4666667 0.75
vt 0.5333334 0.875
vt 0.5333334 1
vt 0.3333333 0.375
vt 0.4 0.5
vt 0.4666667 0.625
vt 0.5333334 0.75
vt 0.6 0.875
vt 0.6 1
vt 0.3333333 0.25
vt 0.4666667 0.5
vt 0.5333334 0.625
vt 0.6 0.75
vt 0.6666667 0.875
vt 0.6666667 1
vt 0.5333334 0.5
vt 0.6 0.625
vt 0.6666667 0.75
vt 0.7333333 0.875
vt 0.7333333 1
vt 0.6 0.5
vt 0.6666667 0.625
vt 0.7333333 0.75
vt 0.8 0.875
vt 0.8 1
vt 0.6666667 0.5
vt 0.7333333 0.625
vt 0.8 0.75
vt 0.8666667 0.875
vt 0.8666667 1
vt 0.7333333 0.5
vt 0.8 0.625
vt 0.8666667 0.75
vt 0.9333333 0.875
vt 0.9333333 1
vt 1 0.875
vt 1 1
vt 1 0.75
vt 0.9333333 0.75
vt 1 0.625
vt 0.9333333 0.625
vt 1 0.5
vt 0.8666667 0.625
vt 0.9333333 0.5
vt 1 0.375
vt 0.8666667 0.5
vt 0.9333333 0.375
vt 1 0.25
vt 0.8 0.5
vt 0.8666667 0.375
vt 0.9333333 0.25
vt 1 0.125
vt 0.8 0.375
vt 0.8666667 0.25
vt 0.9333333 0.125
vt 1 0
vt 0.9333333 0
vt 0.8666667 0.125
vt 0.8666667 0
vt 0.7333333 0.375
vt 0.8 0.25
vt 0.8 0.125
vt 0.8 0
vt 0.6666667 0.375
vt 0.7333333 0.25
vt 0.7333333 0.125
vt 0.7333333 0
vt 0.6 0.375
vt 0.6666667 0.25
vt 0.6666667 0.125
vt 0.6666667 0
vt 0.5333334 0.375
vt 0.6 0.25
vt 0.6 0.125
vt 0.6 0
vt 0.4666667 0.375
vt 0.5333334 0.25
vt 0.5333334 0.125
vt 0.5333334 0
vt 0.4 0.375
vt 0.4666667 0.25
vt 0.4666667 0.125
vt 0.4666667 0
vt 0.4 0.25
vt 0.4 0.125
vt 0.4 0
vt 0.3333333 0.125
vt 0.3333333 0
vt 0.2666667 0.125
vt 0.2666667 0
vt 0.2 0.125
vt 0.2 0
vt 0.1333333 0.125
vt 0.1333333 0
vt 0.06666667 0.125
vt 0 0.125
vt 0.06666667 0
vt 0 0
vn 0.3392343 0.8364406 -0.4304499
vn 0.3488708 0.8602073 -0.3719309
vn 0.9113448 0.3511001 -0.2148939
vn 0.3533376 0.8712375 -0.3407313
vn 0.9052529 0.3657137 -0.2162653
vn 0.9365513 -0.3159097 0.1518963
vn 0.899709 0.3569433 -0.2512271
vn -0.3947995 0.892952 -0.2162641
vn -0.4093513 0.8867089 -0.2148927
vn -0.3969346 0.882795 -0.2512289
vn 0.3407449 0.8402008 -0.4218479
vn -0.4009134 0.870948 -0.2841091
vn 0.9393227 -0.3320629 0.08606522
vn 0.8943132 0.3456687 -0.2841073
vn 0.4369992 -0.7448927 0.5041493
vn 0.9482337 -0.2646348 0.1755596
vn -0.9052784 0.4160087 0.08606815
vn -0.9079161 0.4158222 0.05272876
vn -0.8920405 0.4256644 0.1518994
vn -0.8647095 0.4705897 0.1755641
vn -0.4178713 0.821924 -0.3870718
vn 0.3124845 0.7705213 -0.555563
vn -0.9080529 0.4179425 0.02764041
vn 0.9410849 -0.3340347 0.05272626
vn 0.4311065 -0.8135977 0.3901358
vn -0.2867006 -0.7069275 0.6465728
vn 0.4687484 -0.6571116 0.5903213
vn -0.321841 -0.7935908 0.5163642
vn 0.4419318 -0.8050793 0.3956558
vn -0.3164347 -0.7802666 0.5394934
vn 0.8723331 0.298683 -0.3870703
vn 0.4651868 -0.7597742 0.4542514
vn -0.2904318 -0.7161474 0.6346512
vn 0.9426591 -0.3326106 0.02764003
vn 0.5007296 -0.6802671 0.5352631
vn -0.2440374 -0.6017467 0.7604909
vn 0.9423726 -0.3345102 0.006060336
vn 0.836256 0.2147 -0.5045591
vn 0.2642107 0.651488 -0.7111652
vn 0.5451258 -0.57296 0.6120087
vn -0.1805106 -0.4451001 0.8770985
vn 0.9395359 -0.3423121 -0.009734098
vn 0.7877545 0.09572248 -0.6085064
vn 0.5902771 -0.4572028 0.6652356
vn -0.1118132 -0.2757081 0.9547162
vn 0.9353229 -0.3534113 -0.01647831
vn 0.6277578 -0.3564808 0.6919837
vn -0.05253591 -0.1295431 0.9901811
vn -0.4504827 0.736536 -0.5045593
vn 0.1976339 0.4873222 -0.8505633
vn 0.7360103 -0.03616714 -0.6760036
vn 0.9316362 -0.3630705 -0.01528808
vn 0.6522122 -0.2864657 0.7018238
vn -0.01193121 -0.02941827 0.999496
vn -0.9091691 0.4163829 0.006060156
vn 0.1247733 0.3076627 -0.943279
vn 0.6923243 -0.1516058 -0.7054805
vn 0.9293181 -0.3691517 -0.009743257
vn 0.6599777 -0.2559808 0.7063309
vn 0.005146382 0.01268841 0.9999063
vn 0.06126269 0.1510563 -0.986625
vn 0.6636073 -0.231755 -0.711277
vn 0.9281411 -0.3722246 -0.001704041
vn 0.643468 -0.2795292 0.7126095
vn -0.009480936 -0.02337721 0.9996817
vn 0.01728089 0.04260676 -0.9989424
vn 0.6532207 -0.2682136 -0.7080707
vn 0.9272337 -0.3743377 0.01044393
vn 0.5809427 -0.4002777 0.7087195
vn -0.07945753 -0.1959229 0.9773949
vn -0.002226515 -0.005492343 -0.9999825
vn 0.6667328 -0.2496524 -0.7022399
vn 0.9233831 -0.3824821 0.0327314
vn 0.4583316 -0.666931 0.5874821
vn -0.227165 -0.5601405 0.7966422
vn 0.009804684 0.02417312 -0.9996597
vn 0.7202704 -0.1438343 -0.678618
vn 0.9077065 -0.4157096 0.05704714
vn 0.3631507 -0.9000389 0.2409389
vn -0.3552581 -0.8759902 0.3262406
vn 0.3494446 -0.9366055 0.02566292
vn -0.3755777 -0.9260939 0.03593617
vn 0.9091206 -0.4165236 0.002802194
vn 0.8986096 -0.4380777 0.02426311
vn 0.9275363 0.3734699 -0.01402123
vn 0.9293897 0.30198 -0.2122331
vn 0.375759 0.9265404 -0.01811412
vn 0.8419451 0.08458836 -0.5328915
vn 0.3563456 0.878671 -0.3177344
vn -0.4053872 0.9140375 -0.01402067
vn 0.2225918 0.5488617 -0.8057318
vn -0.4565135 0.8640329 -0.2122328
vn -0.942437 0.334372 0.002800817
vn 0.07333118 0.1808165 -0.9807793
vn -0.5451916 0.6471413 -0.5328923
vn -0.9499081 0.3115861 0.02426342
vn -0.903115 -0.4286313 0.02566167
vn -0.616993 0.398492 -0.6786189
vn -0.9408547 0.3339731 0.05704762
vn -0.8874794 -0.3928472 0.2409384
vn -0.3755777 -0.9260939 0.03593617
vn -0.3552581 -0.8759902 0.3262406
vn -0.7934049 -0.1592907 0.587482
vn -0.227165 -0.5601405 0.7966422
vn -0.652285 0.2852758 -0.7022406
vn -0.9289587 0.3687337 0.03273204
vn -0.695647 0.117442 0.7087191
vn -0.07945753 -0.1959229 0.9773949
vn -0.6555191 0.262546 -0.7080708
vn -0.9260486 0.3772598 0.01044442
vn -0.6564041 0.2476318 0.7126093
vn -0.009480936 -0.02337721 0.9996817
vn -0.6375763 0.2959397 -0.7112778
vn -0.9252276 0.3794086 -0.001704193
vn -0.6518478 0.2760277 0.7063308
vn 0.005146382 0.01268841 0.9999063
vn -0.6023527 0.3734508 -0.7054827
vn -0.9239319 0.3824329 -0.009743161
vn -0.6675097 0.2487468 0.7018233
vn -0.01193121 -0.02941827 0.999496
vn -0.5532905 0.4867099 -0.6760052
vn -0.9213596 0.3884105 -0.01528915
vn -0.6987304 0.1814758 0.6919844
vn -0.05253591 -0.1295431 0.9901811
vn -0.4985533 0.6173853 -0.6085064
vn -0.9172766 0.3979095 -0.0164807
vn -0.7419949 0.08309877 0.6652355
vn -0.1118132 -0.2757081 0.9547162
vn -0.912568 0.4088091 -0.009734929
vn -0.790228 -0.0314075 0.6120076
vn -0.1805106 -0.4451001 0.8770985
vn -0.8331156 -0.1393261 0.5352633
vn -0.2440374 -0.6017467 0.7604909
vn -0.8629912 -0.2211349 0.4542526
vn -0.2904318 -0.7161474 0.6346512
vn -0.877861 -0.2698436 0.395657
vn -0.3164347 -0.7802666 0.5394934
vn -0.8760293 -0.2834923 0.3901345
vn -0.321841 -0.7935908 0.5163642
vn -0.8324058 -0.2300812 0.504146
vn -0.7940456 -0.1449783 0.5903159
vn -0.2867006 -0.7069275 0.6465728
vn -0.245294 -0.6048175 0.7576454
g Corrupt King Monster Mount.011_0
f 3/3/3 2/2/2 1/1/1
f 4/4/4 2/2/2 3/3/3
f 5/5/5 4/4/4 3/3/3
f 5/5/5 3/3/3 6/6/6
f 6/6/6 3/3/3 7/7/7
f 4/4/4 8/8/8 2/2/2
f 8/8/8 9/9/9 2/2/2
f 2/2/2 9/9/9 10/10/10
f 11/11/11 4/4/4 5/5/5
f 12/12/12 8/8/8 4/4/4
f 11/11/11 12/12/12 4/4/4
f 13/13/13 5/5/5 6/6/6
f 14/14/14 11/11/11 5/5/5
f 14/14/14 5/5/5 13/13/13
f 13/13/13 6/6/6 15/15/15
f 15/15/15 6/6/6 16/16/16
f 8/8/8 17/17/17 9/9/9
f 12/12/12 18/18/18 8/8/8
f 18/18/18 17/17/17 8/8/8
f 17/17/17 19/19/19 9/9/9
f 9/9/9 19/19/19 20/20/20
f 21/21/21 12/12/12 11/11/11
f 22/22/22 11/11/11 14/14/14
f 22/22/22 21/21/21 11/11/11
f 23/23/23 18/18/18 12/12/12
f 21/21/21 23/23/23 12/12/12
f 24/24/24 14/14/14 13/13/13
f 25/25/25 13/13/13 15/15/15
f 24/24/24 13/13/13 25/25/25
f 25/25/25 15/15/15 26/26/26
f 26/26/26 15/15/15 27/27/27
f 28/28/28 25/25/25 26/26/26
f 29/29/29 25/25/25 28/28/28
f 29/29/29 24/24/24 25/25/25
f 30/30/30 29/29/29 28/28/28
f 31/31/31 14/14/14 24/24/24
f 31/31/31 22/22/22 14/14/14
f 32/32/32 29/29/29 30/30/30
f 33/33/33 32/32/32 30/30/30
f 34/34/34 24/24/24 29/29/29
f 34/34/34 31/31/31 24/24/24
f 32/32/32 34/34/34 29/29/29
f 35/35/35 32/32/32 33/33/33
f 36/36/36 35/35/35 33/33/33
f 37/37/37 34/34/34 32/32/32
f 35/35/35 37/37/37 32/32/32
f 38/38/38 31/31/31 34/34/34
f 37/37/37 38/38/38 34/34/34
f 39/39/39 22/22/22 31/31/31
f 38/38/38 39/39/39 31/31/31
f 40/40/40 35/35/35 36/36/36
f 41/41/41 40/40/40 36/36/36
f 42/42/42 37/37/37 35/35/35
f 40/40/40 42/42/42 35/35/35
f 43/43/43 38/38/38 37/37/37
f 42/42/42 43/43/43 37/37/37
f 44/44/44 40/40/40 41/41/41
f 45/45/45 44/44/44 41/41/41
f 46/46/46 42/42/42 40/40/40
f 44/44/44 46/46/46 40/40/40
f 47/47/47 44/44/44 45/45/45
f 48/48/48 47/47/47 45/45/45
f 39/39/39 49/49/49 22/22/22
f 49/49/49 21/21/21 22/22/22
f 50/50/50 39/39/39 38/38/38
f 43/43/43 50/50/50 38/38/38
f 51/51/51 43/43/43 42/42/42
f 46/46/46 51/51/51 42/42/42
f 52/52/52 46/46/46 44/44/44
f 47/47/47 52/52/52 44/44/44
f 53/53/53 47/47/47 48/48/48
f 54/54/54 53/53/53 48/48/48
f 49/49/49 55/55/55 21/21/21
f 55/55/55 23/23/23 21/21/21
f 56/56/56 50/50/50 43/43/43
f 51/51/51 56/56/56 43/43/43
f 57/57/57 51/51/51 46/46/46
f 52/52/52 57/57/57 46/46/46
f 58/58/58 52/52/52 47/47/47
f 53/53/53 58/58/58 47/47/47
f 59/59/59 53/53/53 54/54/54
f 60/60/60 59/59/59 54/54/54
f 61/61/61 56/56/56 51/51/51
f 57/57/57 61/61/61 51/51/51
f 62/62/62 57/57/57 52/52/52
f 58/58/58 62/62/62 52/52/52
f 63/63/63 58/58/58 53/53/53
f 59/59/59 63/63/63 53/53/53
f 64/64/64 59/59/59 60/60/60
f 65/65/65 64/64/64 60/60/60
f 66/66/66 61/61/61 57/57/57
f 62/62/62 66/66/66 57/57/57
f 67/67/67 62/62/62 58/58/58
f 63/63/63 67/67/67 58/58/58
f 68/68/68 63/63/63 59/59/59
f 64/64/64 68/68/68 59/59/59
f 69/69/69 64/64/64 65/65/65
f 70/70/70 69/69/69 65/65/65
f 71/71/71 66/66/66 62/62/62
f 67/67/67 71/71/71 62/62/62
f 72/72/72 67/67/67 63/63/63
f 68/68/68 72/72/72 63/63/63
f 73/73/73 68/68/68 64/64/64
f 69/69/69 73/73/73 64/64/64
f 74/74/74 69/69/69 70/70/70
f 75/75/75 74/74/74 70/70/70
f 76/76/76 71/71/71 67/67/67
f 72/72/72 76/76/76 67/67/67
f 77/77/77 72/72/72 68/68/68
f 73/73/73 77/77/77 68/68/68
f 78/78/78 73/73/73 69/69/69
f 74/74/74 78/78/78 69/69/69
f 79/79/79 74/74/74 75/75/75
f 80/80/80 79/79/79 75/75/75
f 81/81/81 79/79/79 80/80/80
f 82/82/82 81/81/81 80/80/80
f 81/81/81 83/83/83 79/79/79
f 79/79/79 84/84/84 74/74/74
f 83/83/83 84/84/84 79/79/79
f 84/84/84 78/78/78 74/74/74
f 83/83/83 85/85/85 84/84/84
f 85/85/85 86/86/86 84/84/84
f 84/84/84 86/86/86 78/78/78
f 85/85/85 87/87/87 86/86/86
f 78/78/78 88/88/88 73/73/73
f 86/86/86 88/88/88 78/78/78
f 88/88/88 77/77/77 73/73/73
f 87/87/87 89/89/89 86/86/86
f 86/86/86 89/89/89 88/88/88
f 87/87/87 90/90/90 89/89/89
f 88/88/88 91/91/91 77/77/77
f 89/89/89 91/91/91 88/88/88
f 90/90/90 92/92/92 89/89/89
f 89/89/89 92/92/92 91/91/91
f 90/90/90 93/93/93 92/92/92
f 91/91/91 94/94/94 77/77/77
f 77/77/77 94/94/94 72/72/72
f 94/94/94 76/76/76 72/72/72
f 92/92/92 95/95/95 91/91/91
f 91/91/91 95/95/95 94/94/94
f 93/93/93 96/96/96 92/92/92
f 92/92/92 96/96/96 95/95/95
f 93/93/93 97/97/97 96/96/96
f 94/94/94 98/98/98 76/76/76
f 95/95/95 98/98/98 94/94/94
f 96/96/96 99/99/99 95/95/95
f 95/95/95 99/99/99 98/98/98
f 97/97/97 100/100/100 96/96/96
f 96/96/96 100/100/100 99/99/99
f 97/97/97 101/101/101 100/100/100
f 101/101/101 102/102/102 100/100/100
f 100/100/100 102/102/102 103/103/103
f 100/100/100 103/103/103 99/99/99
f 102/102/102 104/104/104 103/103/103
f 98/98/98 105/105/105 76/76/76
f 76/76/76 105/105/105 71/71/71
f 99/99/99 106/106/106 98/98/98
f 99/99/99 103/103/103 106/106/106
f 98/98/98 106/106/106 105/105/105
f 103/103/103 104/104/104 107/107/107
f 103/103/103 107/107/107 106/106/106
f 104/104/104 108/108/108 107/107/107
f 105/105/105 109/109/109 71/71/71
f 71/71/71 109/109/109 66/66/66
f 106/106/106 110/110/110 105/105/105
f 106/106/106 107/107/107 110/110/110
f 105/105/105 110/110/110 109/109/109
f 107/107/107 108/108/108 111/111/111
f 107/107/107 111/111/111 110/110/110
f 108/108/108 112/112/112 111/111/111
f 109/109/109 113/113/113 66/66/66
f 66/66/66 113/113/113 61/61/61
f 110/110/110 114/114/114 109/109/109
f 110/110/110 111/111/111 114/114/114
f 109/109/109 114/114/114 113/113/113
f 111/111/111 112/112/112 115/115/115
f 111/111/111 115/115/115 114/114/114
f 112/112/112 116/116/116 115/115/115
f 113/113/113 117/117/117 61/61/61
f 61/61/61 117/117/117 56/56/56
f 114/114/114 118/118/118 113/113/113
f 114/114/114 115/115/115 118/118/118
f 113/113/113 118/118/118 117/117/117
f 115/115/115 116/116/116 119/119/119
f 115/115/115 119/119/119 118/118/118
f 116/116/116 120/120/120 119/119/119
f 117/117/117 121/121/121 56/56/56
f 56/56/56 121/121/121 50/50/50
f 118/118/118 122/122/122 117/117/117
f 118/118/118 119/119/119 122/122/122
f 117/117/117 122/122/122 121/121/121
f 119/119/119 120/120/120 123/123/123
f 119/119/119 123/123/123 122/122/122
f 120/120/120 124/124/124 123/123/123
f 121/121/121 125/125/125 50/50/50
f 50/50/50 125/125/125 39/39/39
f 125/125/125 49/49/49 39/39/39
f 122/122/122 126/126/126 121/121/121
f 122/122/122 123/123/123 126/126/126
f 121/121/121 126/126/126 125/125/125
f 123/123/123 124/124/124 127/127/127
f 123/123/123 127/127/127 126/126/126
f 124/124/124 128/128/128 127/127/127
f 125/125/125 129/129/129 49/49/49
f 126/126/126 129/129/129 125/125/125
f 126/126/126 127/127/127 129/129/129
f 129/129/129 55/55/55 49/49/49
f 127/127/127 128/128/128 130/130/130
f 127/127/127 130/130/130 129/129/129
f 129/129/129 130/130/130 55/55/55
f 128/128/128 131/131/131 130/130/130
f 130/130/130 132/132/132 55/55/55
f 130/130/130 131/131/131 132/132/132
f 55/55/55 132/132/132 23/23/23
f 131/131/131 133/133/133 132/132/132
f 132/132/132 134/134/134 23/23/23
f 132/132/132 133/133/133 134/134/134
f 23/23/23 134/134/134 18/18/18
f 133/133/133 135/135/135 134/134/134
f 134/134/134 136/136/136 18/18/18
f 134/134/134 135/135/135 136/136/136
f 18/18/18 136/136/136 17/17/17
f 135/135/135 137/137/137 136/136/136
f 136/136/136 138/138/138 17/17/17
f 136/136/136 137/137/137 138/138/138
f 17/17/17 138/138/138 19/19/19
f 137/137/137 139/139/139 138/138/138
f 138/138/138 140/140/140 19/19/19
f 138/138/138 139/139/139 140/140/140
f 19/19/19 140/140/140 141/141/141
f 139/139/139 142/142/142 140/140/140
f 140/140/140 142/142/142 143/143/143
