g Corrupt King Hammer
v -3.0877E-08 0.05710622 2.457608
v 0.1012362 0.05710622 2.563748
v 0.1012362 -0.05710622 2.563748
v -3.0877E-08 -0.05710622 2.457608
v -3.0877E-08 0.05710622 -0.4482042
v 0.1012362 0.05710622 -0.4482042
v 0.1012362 0.05710622 2.563748
v -3.0877E-08 0.05710622 2.457608
v -0.1012362 0.05710622 -0.4482042
v -0.1012362 0.05710622 2.563748
v -3.0877E-08 0.05710622 -0.4482042
v 0.1012362 -0.05710622 -0.4482042
v 0.1012362 0.05710622 -0.4482042
v -3.0877E-08 -0.05710622 -0.4482042
v -0.1012362 0.05710622 -0.4482042
v -0.1012362 -0.05710622 -0.4482042
v -3.0877E-08 -0.05710622 -0.4482042
v -0.1012362 -0.05710622 -0.4482042
v -0.1012362 -0.05710622 2.563748
v -3.0877E-08 -0.05710622 2.457608
v 0.1012362 -0.05710622 -0.4482042
v 0.1012362 -0.05710622 2.563748
v 0.1012362 0.05710622 -0.4482042
v 0.1012362 -0.05710622 -0.4482042
v 0.1012362 -0.05710622 2.563748
v 0.1012362 0.05710622 2.563748
v -0.1012362 -0.05710622 -0.4482042
v -0.1012362 0.05710622 -0.4482042
v -0.1012362 0.05710622 2.563748
v -0.1012362 -0.05710622 2.563748
v 0.2169481 0.2025561 1.81768
v 0.2169481 -0.2025586 1.81768
v 0.8018278 -0.2025586 1.81768
v 0.8018278 0.2025561 1.81768
v -0.216948 0.2025561 2.278304
v -0.216948 -0.2025586 2.278304
v -0.801828 -0.2025586 2.278304
v -0.801828 0.2025561 2.278304
v 0.2169481 0.2025561 1.81768
v 0.8018278 0.2025561 1.81768
v 0.8018278 0.2025561 2.278304
v 0.2169481 0.2025561 2.278304
v 0.8018278 0.2025561 1.81768
v 0.8018278 -0.2025586 1.81768
v 0.8018278 -0.2025586 2.278304
v 0.8018278 0.2025561 2.278304
v -0.1012362 0.05710622 2.563748
v -3.0877E-08 0.05710622 2.457608
v -3.0877E-08 -0.05710622 2.457608
v -0.1012362 -0.05710622 2.563748
v -0.216948 -0.2025586 1.81768
v -0.801828 -0.2025586 1.81768
v -0.801828 -0.2025586 2.278304
v -0.216948 -0.2025586 2.278304
v -0.801828 -0.2025586 1.81768
v -0.801828 0.2025561 1.81768
v -0.801828 0.2025561 2.278304
v -0.801828 -0.2025586 2.278304
v -0.1493578 -0.1493587 0.4779982
v -0.1493578 0.1493569 0.4779982
v -0.1493578 0.1493569 0.5586764
v -0.1493578 -0.1493587 0.5586764
v -0.1493578 0.1493569 0.4779982
v 0.1493578 0.1493569 0.4779982
v 0.1493578 0.1493569 0.5586764
v -0.1493578 0.1493569 0.5586764
v 0.1493578 0.1493569 0.4779982
v 0.1493578 -0.1493587 0.4779982
v 0.1493578 -0.1493587 0.5586764
v 0.1493578 0.1493569 0.5586764
v 0.1493578 -0.1493587 0.4779982
v -0.1493578 -0.1493587 0.4779982
v -0.1493578 -0.1493587 0.5586764
v 0.1493578 -0.1493587 0.5586764
v -0.1493578 0.1493569 0.4779982
v -0.1493578 -0.1493587 0.4779982
v 0.1493578 -0.1493587 0.4779982
v 0.1493578 0.1493569 0.4779982
v 0.1493578 0.1493569 0.5586764
v 0.1493578 -0.1493587 0.5586764
v -0.1493578 -0.1493587 0.5586764
v -0.1493578 0.1493569 0.5586764
v -0.1493578 -0.1493587 0.8687785
v -0.1493578 0.1493569 0.8687785
v -0.1493578 0.1493569 0.9494567
v -0.1493578 -0.1493587 0.9494567
v -0.1493578 0.1493569 0.8687785
v 0.1493578 0.1493569 0.8687785
v 0.1493578 0.1493569 0.9494567
v -0.1493578 0.1493569 0.9494567
v 0.1493578 0.1493569 0.8687785
v 0.1493578 -0.1493587 0.8687785
v 0.1493578 -0.1493587 0.9494567
v 0.1493578 0.1493569 0.9494567
v 0.1493578 -0.1493587 0.8687785
v -0.1493578 -0.1493587 0.8687785
v -0.1493578 -0.1493587 0.9494567
v 0.1493578 -0.1493587 0.9494567
v -0.1493578 0.1493569 0.8687785
v -0.1493578 -0.1493587 0.8687785
v 0.1493578 -0.1493587 0.8687785
v 0.1493578 0.1493569 0.8687785
v 0.1493578 0.1493569 0.9494567
v 0.1493578 -0.1493587 0.9494567
v -0.1493578 -0.1493587 0.9494567
v -0.1493578 0.1493569 0.9494567
v -0.1493578 -0.1493587 1.759089
v -0.1493578 0.1493569 1.759089
v -0.1493578 0.1493569 1.839767
v -0.1493578 -0.1493587 1.839767
v -0.1493578 0.1493569 1.759089
v 0.1493578 0.1493569 1.759089
v 0.1493578 0.1493569 1.839767
v -0.1493578 0.1493569 1.839767
v 0.1493578 0.1493569 1.759089
v 0.1493578 -0.1493587 1.759089
v 0.1493578 -0.1493587 1.839767
v 0.1493578 0.1493569 1.839767
v 0.1493578 -0.1493587 1.759089
v -0.1493578 -0.1493587 1.759089
v -0.1493578 -0.1493587 1.839767
v 0.1493578 -0.1493587 1.839767
v -0.1493578 0.1493569 1.759089
v -0.1493578 -0.1493587 1.759089
v 0.1493578 -0.1493587 1.759089
v 0.1493578 0.1493569 1.759089
v 0.1493578 0.1493569 1.839767
v 0.1493578 -0.1493587 1.839767
v -0.1493578 -0.1493587 1.839767
v -0.1493578 0.1493569 1.839767
v -0.1493578 -0.1493587 2.255686
v -0.1493578 0.1493569 2.255686
v -0.1493578 0.1493569 2.336364
v -0.1493578 -0.1493587 2.336364
v -0.1493578 0.1493569 2.255686
v 0.1493578 0.1493569 2.255686
v 0.1493578 0.1493569 2.336364
v -0.1493578 0.1493569 2.336364
v 0.1493578 0.1493569 2.255686
v 0.1493578 -0.1493587 2.255686
v 0.1493578 -0.1493587 2.336364
v 0.1493578 0.1493569 2.336364
v 0.1493578 -0.1493587 2.255686
v -0.1493578 -0.1493587 2.255686
v -0.1493578 -0.1493587 2.336364
v 0.1493578 -0.1493587 2.336364
v -0.1493578 0.1493569 2.255686
v -0.1493578 -0.1493587 2.255686
v 0.1493578 -0.1493587 2.255686
v 0.1493578 0.1493569 2.255686
v 0.1493578 0.1493569 2.336364
v 0.1493578 -0.1493587 2.336364
v -0.1493578 -0.1493587 2.336364
v -0.1493578 0.1493569 2.336364
v 0.8018278 -0.2025586 1.81768
v 0.2169481 -0.2025586 1.81768
v 0.2169481 -0.2025586 2.278304
v 0.8018278 -0.2025586 2.278304
v 0.2169481 -0.2025586 1.81768
v 3.887489E-08 -0.09636027 1.93843
v 2.26221E-08 -0.09636027 2.157554
v 0.2169481 -0.2025586 2.278304
v 3.887489E-08 -0.09636027 1.93843
v -0.216948 -0.2025586 1.81768
v -0.216948 -0.2025586 2.278304
v 2.26221E-08 -0.09636027 2.157554
v -0.801828 0.2025561 1.81768
v -0.216948 0.2025561 1.81768
v -0.216948 0.2025561 2.278304
v -0.801828 0.2025561 2.278304
v -0.216948 0.2025561 1.81768
v 2.26221E-08 0.0963574 1.93843
v 3.887489E-08 0.0963574 2.157554
v -0.216948 0.2025561 2.278304
v 2.26221E-08 0.0963574 1.93843
v 0.2169481 0.2025561 1.81768
v 0.2169481 0.2025561 2.278304
v 3.887489E-08 0.0963574 2.157554
v 0.8018278 0.2025561 2.278304
v 0.8018278 -0.2025586 2.278304
v 0.2169481 -0.2025586 2.278304
v 0.2169481 0.2025561 2.278304
v 0.2169481 0.2025561 2.278304
v 0.2169481 -0.2025586 2.278304
v 2.26221E-08 -0.09636027 2.157554
v 3.887489E-08 0.0963574 2.157554
v 3.887489E-08 0.0963574 2.157554
v 2.26221E-08 -0.09636027 2.157554
v -0.216948 -0.2025586 2.278304
v -0.216948 0.2025561 2.278304
v -0.801828 0.2025561 1.81768
v -0.801828 -0.2025586 1.81768
v -0.216948 -0.2025586 1.81768
v -0.216948 0.2025561 1.81768
v -0.216948 0.2025561 1.81768
v -0.216948 -0.2025586 1.81768
v 3.887489E-08 -0.09636027 1.93843
v 2.26221E-08 0.0963574 1.93843
v 2.26221E-08 0.0963574 1.93843
v 3.887489E-08 -0.09636027 1.93843
v 0.2169481 -0.2025586 1.81768
v 0.2169481 0.2025561 1.81768
v -0.5545811 -0.2824616 1.765872
v -0.5545811 0.2824593 1.765872
v -0.5545811 0.2824593 2.330793
v -0.5545811 -0.2824616 2.330793
v -0.5545811 0.2824593 1.765872
v -0.4235212 0.2824593 1.765872
v -0.4235212 0.2824593 2.330793
v -0.5545811 0.2824593 2.330793
v -0.4235212 0.2824593 1.765872
v -0.4235212 -0.2824616 1.765872
v -0.4235212 -0.2824616 2.330793
v -0.4235212 0.2824593 2.330793
v -0.4235212 -0.2824616 1.765872
v -0.5545811 -0.2824616 1.765872
v -0.5545811 -0.2824616 2.330793
v -0.4235212 -0.2824616 2.330793
v -0.5545811 0.2824593 1.765872
v -0.5545811 -0.2824616 1.765872
v -0.4235212 -0.2824616 1.765872
v -0.4235212 0.2824593 1.765872
v -0.4235212 0.2824593 2.330793
v -0.4235212 -0.2824616 2.330793
v -0.5545811 -0.2824616 2.330793
v -0.5545811 0.2824593 2.330793
v 0.3898133 -0.2824616 1.765872
v 0.3898133 0.2824593 1.765872
v 0.3898133 0.2824593 2.330793
v 0.3898133 -0.2824616 2.330793
v 0.3898133 0.2824593 1.765872
v 0.5208732 0.2824593 1.765872
v 0.5208732 0.2824593 2.330793
v 0.3898133 0.2824593 2.330793
v 0.5208732 0.2824593 1.765872
v 0.5208732 -0.2824616 1.765872
v 0.5208732 -0.2824616 2.330793
v 0.5208732 0.2824593 2.330793
v 0.5208732 -0.2824616 1.765872
v 0.3898133 -0.2824616 1.765872
v 0.3898133 -0.2824616 2.330793
v 0.5208732 -0.2824616 2.330793
v 0.3898133 0.2824593 1.765872
v 0.3898133 -0.2824616 1.765872
v 0.5208732 -0.2824616 1.765872
v 0.5208732 0.2824593 1.765872
v 0.5208732 0.2824593 2.330793
v 0.5208732 -0.2824616 2.330793
v 0.3898133 -0.2824616 2.330793
v 0.3898133 0.2824593 2.330793
vt 0.25 0.5
vt 0.375 0.5
vt 0.375 0.75
vt 0.25 0.75
vt 0.25 0.5
vt 0.375 0.5
vt 0.375 0.5
vt 0.25 0.5
vt 0.125 0.5
vt 0.125 0.5
vt 0.25 0.5
vt 0.375 0.75
vt 0.375 0.5
vt 0.25 0.75
vt 0.125 0.5
vt 0.125 0.75
vt 0.25 0.75
vt 0.125 0.75
vt 0.125 0.75
vt 0.25 0.75
vt 0.375 0.75
vt 0.375 0.75
vt 0.375 0.5
vt 0.375 0.75
vt 0.375 0.75
vt 0.375 0.5
vt 0.125 0.75
vt 0.125 0.5
vt 0.125 0.5
vt 0.125 0.75
vt 0.5625 0
vt 0.5625 0.25
vt 0.625 0.25
vt 0.625 0
vt 0.5625 0.25
vt 0.5625 0.5
vt 0.625 0.5
vt 0.625 0.25
vt 0.375 0.6875
vt 0.375 0.75
vt 0.625 0.75
vt 0.625 0.6875
vt 0.375 0.75
vt 0.375 1
vt 0.625 1
vt 0.625 0.75
vt 0.125 0.5
vt 0.25 0.5
vt 0.25 0.75
vt 0.125 0.75
vt 0.125 0.6875
vt 0.125 0.75
vt 0.375 0.75
vt 0.375 0.6875
vt 0.625 0.5
vt 0.625 0.75
vt 0.875 0.75
vt 0.875 0.5
vt 0.375 0
vt 0.375 0.25
vt 0.625 0.25
vt 0.625 0
vt 0.375 0.25
vt 0.375 0.5
vt 0.625 0.5
vt 0.625 0.25
vt 0.375 0.5
vt 0.375 0.75
vt 0.625 0.75
vt 0.625 0.5
vt 0.375 0.75
vt 0.375 1
vt 0.625 1
vt 0.625 0.75
vt 0.125 0.5
vt 0.125 0.75
vt 0.375 0.75
vt 0.375 0.5
vt 0.625 0.5
vt 0.625 0.75
vt 0.875 0.75
vt 0.875 0.5
vt 0.375 0
vt 0.375 0.25
vt 0.625 0.25
vt 0.625 0
vt 0.375 0.25
vt 0.375 0.5
vt 0.625 0.5
vt 0.625 0.25
vt 0.375 0.5
vt 0.375 0.75
vt 0.625 0.75
vt 0.625 0.5
vt 0.375 0.75
vt 0.375 1
vt 0.625 1
vt 0.625 0.75
vt 0.125 0.5
vt 0.125 0.75
vt 0.375 0.75
vt 0.375 0.5
vt 0.625 0.5
vt 0.625 0.75
vt 0.875 0.75
vt 0.875 0.5
vt 0.375 0
vt 0.375 0.25
vt 0.625 0.25
vt 0.625 0
vt 0.375 0.25
vt 0.375 0.5
vt 0.625 0.5
vt 0.625 0.25
vt 0.375 0.5
vt 0.375 0.75
vt 0.625 0.75
vt 0.625 0.5
vt 0.375 0.75
vt 0.375 1
vt 0.625 1
vt 0.625 0.75
vt 0.125 0.5
vt 0.125 0.75
vt 0.375 0.75
vt 0.375 0.5
vt 0.625 0.5
vt 0.625 0.75
vt 0.875 0.75
vt 0.875 0.5
vt 0.375 0
vt 0.375 0.25
vt 0.625 0.25
vt 0.625 0
vt 0.375 0.25
vt 0.375 0.5
vt 0.625 0.5
vt 0.625 0.25
vt 0.375 0.5
vt 0.375 0.75
vt 0.625 0.75
vt 0.625 0.5
vt 0.375 0.75
vt 0.375 1
vt 0.625 1
vt 0.625 0.75
vt 0.125 0.5
vt 0.125 0.75
vt 0.375 0.75
vt 0.375 0.5
vt 0.625 0.5
vt 0.625 0.75
vt 0.875 0.75
vt 0.875 0.5
vt 0.125 0.5
vt 0.125 0.5625
vt 0.375 0.5625
vt 0.375 0.5
vt 0.125 0.5625
vt 0.125 0.625
vt 0.375 0.625
vt 0.375 0.5625
vt 0.125 0.625
vt 0.125 0.6875
vt 0.375 0.6875
vt 0.375 0.625
vt 0.375 0.5
vt 0.375 0.5625
vt 0.625 0.5625
vt 0.625 0.5
vt 0.375 0.5625
vt 0.375 0.625
vt 0.625 0.625
vt 0.625 0.5625
vt 0.375 0.625
vt 0.375 0.6875
vt 0.625 0.6875
vt 0.625 0.625
vt 0.375 0.25
vt 0.375 0.5
vt 0.4375 0.5
vt 0.4375 0.25
vt 0.4375 0.25
vt 0.4375 0.5
vt 0.5 0.5
vt 0.5 0.25
vt 0.5 0.25
vt 0.5 0.5
vt 0.5625 0.5
vt 0.5625 0.25
vt 0.375 0
vt 0.375 0.25
vt 0.4375 0.25
vt 0.4375 0
vt 0.4375 0
vt 0.4375 0.25
vt 0.5 0.25
vt 0.5 0
vt 0.5 0
vt 0.5 0.25
vt 0.5625 0.25
vt 0.5625 0
vt 0.375 0
vt 0.375 0.25
vt 0.625 0.25
vt 0.625 0
vt 0.375 0.25
vt 0.375 0.5
vt 0.625 0.5
vt 0.625 0.25
vt 0.375 0.5
vt 0.375 0.75
vt 0.625 0.75
vt 0.625 0.5
vt 0.375 0.75
vt 0.375 1
vt 0.625 1
vt 0.625 0.75
vt 0.125 0.5
vt 0.125 0.75
vt 0.375 0.75
vt 0.375 0.5
vt 0.625 0.5
vt 0.625 0.75
vt 0.875 0.75
vt 0.875 0.5
vt 0.375 0
vt 0.375 0.25
vt 0.625 0.25
vt 0.625 0
vt 0.375 0.25
vt 0.375 0.5
vt 0.625 0.5
vt 0.625 0.25
vt 0.375 0.5
vt 0.375 0.75
vt 0.625 0.75
vt 0.625 0.5
vt 0.375 0.75
vt 0.375 1
vt 0.625 1
vt 0.625 0.75
vt 0.125 0.5
vt 0.125 0.75
vt 0.375 0.75
vt 0.375 0.5
vt 0.625 0.5
vt 0.625 0.75
vt 0.875 0.75
vt 0.875 0.5
vn -0.7236272 0 0.690191
vn -0.7236272 0 0.690191
vn -0.7236272 0 0.690191
vn -0.7236272 0 0.690191
vn 0 1 0
vn 0 1 0
vn 0 1 0
vn 0 1 0
vn 0 1 0
vn 0 1 0
vn 0 0 -1
vn 0 0 -1
vn 0 0 -1
vn 0 0 -1
vn 0 0 -1
vn 0 0 -1
vn 0 -1 0
vn 0 -1 0
vn 0 -1 0
vn 0 -1 0
vn 0 -1 0
vn 0 -1 0
vn 1 0 0
vn 1 0 0
vn 1 0 0
vn 1 0 0
vn -1 0 0
vn -1 0 0
vn -1 0 0
vn -1 0 0
vn 0 0 -1
vn 0 0 -1
vn 0 0 -1
vn 0 0 -1
vn 0 0 1
vn 0 0 1
vn 0 0 1
vn 0 0 1
vn 0 1 0
vn 0 1 0
vn 0 1 0
vn 0 1 0
vn 1 0 0
vn 1 0 0
vn 1 0 0
vn 1 0 0
vn 0.7236272 0 0.690191
vn 0.7236272 0 0.690191
vn 0.7236272 0 0.690191
vn 0.7236272 0 0.690191
vn 0 -1 0
vn 0 -1 0
vn 0 -1 0
vn 0 -1 0
vn -1 0 0
vn -1 0 0
vn -1 0 0
vn -1 0 0
vn -1 0 0
vn -1 0 0
vn -1 0 0
vn -1 0 0
vn 0 1 0
vn 0 1 0
vn 0 1 0
vn 0 1 0
vn 1 0 0
vn 1 0 0
vn 1 0 0
vn 1 0 0
vn 0 -1 0
vn 0 -1 0
vn 0 -1 0
vn 0 -1 0
vn 0 0 -1
vn 0 0 -1
vn 0 0 -1
vn 0 0 -1
vn 0 0 1
vn 0 0 1
vn 0 0 1
vn 0 0 1
vn -1 0 0
vn -1 0 0
vn -1 0 0
vn -1 0 0
vn 0 1 0
vn 0 1 0
vn 0 1 0
vn 0 1 0
vn 1 0 0
vn 1 0 0
vn 1 0 0
vn 1 0 0
vn 0 -1 0
vn 0 -1 0
vn 0 -1 0
vn 0 -1 0
vn 0 0 -1
vn 0 0 -1
vn 0 0 -1
vn 0 0 -1
vn 0 0 1
vn 0 0 1
vn 0 0 1
vn 0 0 1
vn -1 0 0
vn -1 0 0
vn -1 0 0
vn -1 0 0
vn 0 1 0
vn 0 1 0
vn 0 1 0
vn 0 1 0
vn 1 0 0
vn 1 0 0
vn 1 0 0
vn 1 0 0
vn 0 -1 0
vn 0 -1 0
vn 0 -1 0
vn 0 -1 0
vn 0 0 -1
vn 0 0 -1
vn 0 0 -1
vn 0 0 -1
vn 0 0 1
vn 0 0 1
vn 0 0 1
vn 0 0 1
vn -1 0 0
vn -1 0 0
vn -1 0 0
vn -1 0 0
vn 0 1 0
vn 0 1 0
vn 0 1 0
vn 0 1 0
vn 1 0 0
vn 1 0 0
vn 1 0 0
vn 1 0 0
vn 0 -1 0
vn 0 -1 0
vn 0 -1 0
vn 0 -1 0
vn 0 0 -1
vn 0 0 -1
vn 0 0 -1
vn 0 0 -1
vn 0 0 1
vn 0 0 1
vn 0 0 1
vn 0 0 1
vn 0 -1 0
vn 0 -1 0
vn 0 -1 0
vn 0 -1 0
vn -0.4396605 -0.898164 0
vn -0.4396605 -0.898164 0
vn -0.4396605 -0.898164 0
vn -0.4396605 -0.898164 0
vn 0.4396607 -0.898164 0
vn 0.4396607 -0.898164 0
vn 0.4396607 -0.898164 0
vn 0.4396607 -0.898164 0
vn 0 1 0
vn 0 1 0
vn 0 1 0
vn 0 1 0
vn 0.4396623 0.8981632 0
vn 0.4396623 0.8981632 0
vn 0.4396623 0.8981632 0
vn 0.4396623 0.8981632 0
vn -0.4396622 0.8981633 0
vn -0.4396622 0.8981633 0
vn -0.4396622 0.8981633 0
vn -0.4396622 0.8981633 0
vn 0 0 1
vn 0 0 1
vn 0 0 1
vn 0 0 1
vn -0.4863296 0 0.8737755
vn -0.4863296 0 0.8737755
vn -0.4863296 0 0.8737755
vn -0.4863296 0 0.8737755
vn 0.48633 0 0.8737753
vn 0.48633 0 0.8737753
vn 0.48633 0 0.8737753
vn 0.48633 0 0.8737753
vn 0 0 -1
vn 0 0 -1
vn 0 0 -1
vn 0 0 -1
vn 0.4863309 0 -0.8737748
vn 0.4863309 0 -0.8737748
vn 0.4863309 0 -0.8737748
vn 0.4863309 0 -0.8737748
vn -0.4863311 0 -0.8737746
vn -0.4863311 0 -0.8737746
vn -0.4863311 0 -0.8737746
vn -0.4863311 0 -0.8737746
vn -1 0 0
vn -1 0 0
vn -1 0 0
vn -1 0 0
vn 0 1 0
vn 0 1 0
vn 0 1 0
vn 0 1 0
vn 1 0 0
vn 1 0 0
vn 1 0 0
vn 1 0 0
vn 0 -1 0
vn 0 -1 0
vn 0 -1 0
vn 0 -1 0
vn 0 0 -1
vn 0 0 -1
vn 0 0 -1
vn 0 0 -1
vn 0 0 1
vn 0 0 1
vn 0 0 1
vn 0 0 1
vn -1 0 0
vn -1 0 0
vn -1 0 0
vn -1 0 0
vn 0 1 0
vn 0 1 0
vn 0 1 0
vn 0 1 0
vn 1 0 0
vn 1 0 0
vn 1 0 0
vn 1 0 0
vn 0 -1 0
vn 0 -1 0
vn 0 -1 0
vn 0 -1 0
vn 0 0 -1
vn 0 0 -1
vn 0 0 -1
vn 0 0 -1
vn 0 0 1
vn 0 0 1
vn 0 0 1
vn 0 0 1
g Corrupt King Hammer_0
f 3/3/3 2/2/2 1/1/1
f 4/4/4 3/3/3 1/1/1
f 7/7/7 6/6/6 5/5/5
f 8/8/8 7/7/7 5/5/5
f 8/8/8 5/5/5 9/9/9
f 10/10/10 8/8/8 9/9/9
f 13/13/13 12/12/12 11/11/11
f 12/12/12 14/14/14 11/11/11
f 11/11/11 14/14/14 15/15/15
f 14/14/14 16/16/16 15/15/15
f 19/19/19 18/18/18 17/17/17
f 20/20/20 19/19/19 17/17/17
f 20/20/20 17/17/17 21/21/21
f 22/22/22 20/20/20 21/21/21
f 25/25/25 24/24/24 23/23/23
f 26/26/26 25/25/25 23/23/23
f 29/29/29 28/28/28 27/27/27
f 30/30/30 29/29/29 27/27/27
f 33/33/33 32/32/32 31/31/31
f 34/34/34 33/33/33 31/31/31
f 37/37/37 36/36/36 35/35/35
f 38/38/38 37/37/37 35/35/35
f 41/41/41 40/40/40 39/39/39
f 42/42/42 41/41/41 39/39/39
f 45/45/45 44/44/44 43/43/43
f 46/46/46 45/45/45 43/43/43
f 49/49/49 48/48/48 47/47/47
f 50/50/50 49/49/49 47/47/47
f 53/53/53 52/52/52 51/51/51
f 54/54/54 53/53/53 51/51/51
f 57/57/57 56/56/56 55/55/55
f 58/58/58 57/57/57 55/55/55
f 61/61/61 60/60/60 59/59/59
f 62/62/62 61/61/61 59/59/59
f 65/65/65 64/64/64 63/63/63
f 66/66/66 65/65/65 63/63/63
f 69/69/69 68/68/68 67/67/67
f 70/70/70 69/69/69 67/67/67
f 73/73/73 72/72/72 71/71/71
f 74/74/74 73/73/73 71/71/71
f 77/77/77 76/76/76 75/75/75
f 78/78/78 77/77/77 75/75/75
f 81/81/81 80/80/80 79/79/79
f 82/82/82 81/81/81 79/79/79
f 85/85/85 84/84/84 83/83/83
f 86/86/86 85/85/85 83/83/83
f 89/89/89 88/88/88 87/87/87
f 90/90/90 89/89/89 87/87/87
f 93/93/93 92/92/92 91/91/91
f 94/94/94 93/93/93 91/91/91
f 97/97/97 96/96/96 95/95/95
f 98/98/98 97/97/97 95/95/95
f 101/101/101 100/100/100 99/99/99
f 102/102/102 101/101/101 99/99/99
f 105/105/105 104/104/104 103/103/103
f 106/106/106 105/105/105 103/103/103
f 109/109/109 108/108/108 107/107/107
f 110/110/110 109/109/109 107/107/107
f 113/113/113 112/112/112 111/111/111
f 114/114/114 113/113/113 111/111/111
f 117/117/117 116/116/116 115/115/115
f 118/118/118 117/117/117 115/115/115
f 121/121/121 120/120/120 119/119/119
f 122/122/122 121/121/121 119/119/119
f 125/125/125 124/124/124 123/123/123
f 126/126/126 125/125/125 123/123/123
f 129/129/129 128/128/128 127/127/127
f 130/130/130 129/129/129 127/127/127
f 133/133/133 132/132/132 131/131/131
f 134/134/134 133/133/133 131/131/131
f 137/137/137 136/136/136 135/135/135
f 138/138/138 137/137/137 135/135/135
f 141/141/141 140/140/140 139/139/139
f 142/142/142 141/141/141 139/139/139
f 145/145/145 144/144/144 143/143/143
f 146/146/146 145/145/145 143/143/143
f 149/149/149 148/148/148 147/147/147
f 150/150/150 149/149/149 147/147/147
f 153/153/153 152/152/152 151/151/151
f 154/154/154 153/153/153 151/151/151
f 157/157/157 156/156/156 155/155/155
f 158/158/158 157/157/157 155/155/155
f 161/161/161 160/160/160 159/159/159
f 162/162/162 161/161/161 159/159/159
f 165/165/165 164/164/164 163/163/163
f 166/166/166 165/165/165 163/163/163
f 169/169/169 168/168/168 167/167/167
f 170/170/170 169/169/169 167/167/167
f 173/173/173 172/172/172 171/171/171
f 174/174/174 173/173/173 171/171/171
f 177/177/177 176/176/176 175/175/175
f 178/178/178 177/177/177 175/175/175
f 181/181/181 180/180/180 179/179/179
f 182/182/182 181/181/181 179/179/179
f 185/185/185 184/184/184 183/183/183
f 186/186/186 185/185/185 183/183/183
f 189/189/189 188/188/188 187/187/187
f 190/190/190 189/189/189 187/187/187
f 193/193/193 192/192/192 191/191/191
f 194/194/194 193/193/193 191/191/191
f 197/197/197 196/196/196 195/195/195
f 198/198/198 197/197/197 195/195/195
f 201/201/201 200/200/200 199/199/199
f 202/202/202 201/201/201 199/199/199
f 205/205/205 204/204/204 203/203/203
f 206/206/206 205/205/205 203/203/203
f 209/209/209 208/208/208 207/207/207
f 210/210/210 209/209/209 207/207/207
f 213/213/213 212/212/212 211/211/211
f 214/214/214 213/213/213 211/211/211
f 217/217/217 216/216/216 215/215/215
f 218/218/218 217/217/217 215/215/215
f 221/221/221 220/220/220 219/219/219
f 222/222/222 221/221/221 219/219/219
f 225/225/225 224/224/224 223/223/223
f 226/226/226 225/225/225 223/223/223
f 229/229/229 228/228/228 227/227/227
f 230/230/230 229/229/229 227/227/227
f 233/233/233 232/232/232 231/231/231
f 234/234/234 233/233/233 231/231/231
f 237/237/237 236/236/236 235/235/235
f 238/238/238 237/237/237 235/235/235
f 241/241/241 240/240/240 239/239/239
f 242/242/242 241/241/241 239/239/239
f 245/245/245 244/244/244 243/243/243
f 246/246/246 245/245/245 243/243/243
f 249/249/249 248/248/248 247/247/247
f 250/250/250 249/249/249 247/247/247
