g Dead Classic Conetree
v 0.01229398 -0.1281237 5.066832
v -0.03151685 0.03151685 11.12715
v -0.03151685 -0.03151685 11.12715
v 0.01229398 0.06251845 5.066832
v -0.1823968 -0.1823968 0
v -0.1823968 0.1823968 0
v 0.03151685 0.03151685 11.12715
v 0.2029361 0.06251845 5.066832
v 0.1823968 0.1823968 0
v 0.2029361 -0.1281237 5.066832
v 0.1823968 -0.1823968 0
v 0.03151685 -0.03151685 11.12715
v -0.03151685 -0.03151685 11.12715
v -0.03151685 0.03151685 11.12715
v -0.03151685 -0.03151685 11.12715
v 0.01229398 -0.1281237 5.066832
v -0.1823968 -0.1823968 0
v 0.1497488 -0.1465539 5.252606
v -0.1386912 -0.5119569 4.969939
v 0.141084 -0.1557498 5.361314
v -0.1306388 -0.503411 4.868915
v -0.2078697 -0.4615402 4.961992
v 0.03637121 -0.07943589 5.349285
v 0.141084 -0.1557498 5.361314
v -0.1998173 -0.4529942 4.860969
v 0.1497488 -0.1465539 5.252606
v 0.04503604 -0.07024002 5.240578
v 0.03637121 -0.07943589 5.349285
v 0.04503604 -0.07024002 5.240578
v 0.006427077 -0.04417135 6.643026
v -0.08764866 0.3826673 6.612904
v -0.006766866 -0.01016494 6.969904
v -0.08015846 0.3633619 6.427336
v -0.01430439 0.4040951 6.617556
v -0.006814193 0.3847897 6.431988
v 0.1224289 0.02758015 6.978099
v -0.006766866 -0.01016494 6.969904
v 0.1224289 0.02758015 6.978099
v 0.1356228 -0.006426258 6.65122
v 0.05525805 0.06322973 3.98149
v 0.1798002 0.437831 3.755504
v 0.06358406 0.07775904 4.121652
v 0.1742049 0.428067 3.661313
v 0.2743837 0.4129782 3.736151
v 0.2687884 0.4032141 3.64196
v 0.2202343 0.0365976 4.089598
v 0.06358406 0.07775904 4.121652
v 0.2202343 0.0365976 4.089598
v 0.2119083 0.02206826 3.949436
v 0.09200309 -0.03664963 8.284799
v -0.1843119 -0.2918498 8.117067
v 0.06876276 -0.07398219 8.5592
v -0.1781388 -0.2819335 8.044181
v -0.2081154 -0.2718069 8.12159
v -0.02085175 0.001475085 8.576225
v 0.06876276 -0.07398219 8.5592
v -0.2019422 -0.2618906 8.048702
v 0.09200309 -0.03664963 8.284799
v 0.002388601 0.03880766 8.301823
v -0.02085175 0.001475085 8.576225
v 0.002388601 0.03880766 8.301823
v 0.1940804 -0.06344206 4.281336
v 0.5742412 -0.355727 4.227089
v 0.2002361 -0.06804575 4.422122
v 0.5701927 -0.3526992 4.134496
v 0.5226732 -0.4264533 4.22672
v 0.5186246 -0.4234255 4.134127
v 0.1342468 -0.1585509 4.42165
v 0.2002361 -0.06804575 4.422122
v 0.1342468 -0.1585509 4.42165
v 0.1280911 -0.1539473 4.280865
v -0.04290551 -0.1365033 4.371391
v -0.2488464 0.3269844 4.133828
v -0.05413533 -0.1211107 4.542388
v -0.2412565 0.316581 4.018257
v -0.1577616 0.3743129 4.144779
v -0.1501718 0.3639095 4.029208
v 0.08474105 -0.04894911 4.559084
v -0.05413533 -0.1211107 4.542388
v 0.08474105 -0.04894911 4.559084
v 0.09597086 -0.06434177 4.388088
vt 0.5626845 -0.02889077
vt 0.625 0.25
vt 0.625 0
vt 0.5625562 0.3443561
vt 0.5 0
vt 0.5 0.25
vt 0.625 0.5
vt 0.5623155 0.5287973
vt 0.5 0.5
vt 0.5623155 0.7756754
vt 0.5 0.75
vt 0.625 0.75
vt 0.875 0.75
vt 0.875 0.5
vt 0.625 1
vt 0.5624437 0.9056403
vt 0.5 1
vt 0.375 0.375
vt 0.6469423 0.4779348
vt 0.625 0.375
vt 0.408877 0.479135
vt 0.6470038 0.7720037
vt 0.75 0.75
vt 0.75 0.5
vt 0.4094193 0.7714074
vt 0.25 0.5
vt 0.25 0.75
vt 0.625 0.875
vt 0.375 0.875
vt 0.375 0.375
vt 0.6440383 0.4809897
vt 0.625 0.375
vt 0.375 0.4619515
vt 0.6441178 0.7689307
vt 0.375 0.7880485
vt 0.75 0.75
vt 0.75 0.5
vt 0.625 0.875
vt 0.375 0.875
vt 0.5356897 0.375
vt 0.6497673 0.4752403
vt 0.625 0.375
vt 0.5179638 0.450473
vt 0.6499951 0.7745318
vt 0.5179638 0.7995269
vt 0.75 0.75
vt 0.75 0.5
vt 0.625 0.875
vt 0.5356895 0.875
vt 0.375 0.375
vt 0.625 0.5
vt 0.625 0.375
vt 0.375 0.5
vt 0.625 0.75
vt 0.75 0.75
vt 0.75 0.5
vt 0.375 0.75
vt 0.25 0.5
vt 0.25 0.75
vt 0.625 0.875
vt 0.375 0.875
vt 0.4992378 0.375
vt 0.651498 0.4734726
vt 0.625 0.375
vt 0.5243255 0.4469747
vt 0.6518113 0.7762139
vt 0.5243255 0.8030254
vt 0.75 0.75
vt 0.75 0.5
vt 0.625 0.875
vt 0.4992378 0.875
vt 0.5126073 0.375
vt 0.6488392 0.4761586
vt 0.625 0.375
vt 0.5075417 0.4523194
vt 0.6488564 0.7738242
vt 0.5075417 0.7976806
vt 0.75 0.75
vt 0.75 0.5
vt 0.625 0.875
vt 0.5126073 0.875
vn -0.701149 -0.7127187 0.02054595
vn -0.5798948 0.5753656 0.5767811
vn -0.5804748 -0.5719516 0.5795864
vn -0.7038385 0.7100376 0.02139767
vn -0.7127343 -0.7005658 0.03489057
vn -0.7096387 0.7031965 0.04390477
vn 0.5686415 0.5772153 0.5860625
vn 0.7126718 0.7012492 0.01866656
vn 0.7008384 0.7131822 0.0140325
vn 0.7100134 -0.7039614 0.01786951
vn 0.7037823 -0.7103998 0.004756495
vn 0.5691746 -0.5737544 0.5889365
vn -0.5804748 -0.5719516 0.5795864
vn -0.5798948 0.5753656 0.5767811
vn -0.5804748 -0.5719516 0.5795864
vn -0.701149 -0.7127187 0.02054595
vn -0.7127343 -0.7005658 0.03489057
vn 0.8764567 -0.2396329 -0.4176118
vn 0.02910726 -0.9498389 0.3113822
vn 0.06174091 -0.7597179 0.6473151
vn 0.2809349 -0.5996851 -0.749302
vn -0.9353328 -0.2428387 0.2572583
vn -0.7832552 -0.1180264 0.6103943
vn 0.06174091 -0.7597179 0.6473151
vn -0.5887054 0.0481858 -0.8069102
vn 0.8764567 -0.2396329 -0.4176118
vn -0.4306301 0.7593177 -0.4878465
vn -0.7832552 -0.1180264 0.6103943
vn -0.4306301 0.7593177 -0.4878465
vn -0.9761716 -0.2163416 -0.01689483
vn -0.7894356 0.5564811 0.2590757
vn -0.6846043 0.407987 0.6040393
vn -0.7960356 0.597854 -0.09432801
vn 0.346508 0.8909165 0.2935984
vn 0.3277106 0.9409769 -0.08466613
vn 0.3120937 0.7137563 0.6270164
vn -0.6846043 0.407987 0.6040393
vn 0.3120937 0.7137563 0.6270164
vn 0.9392568 0.3432079 0.002206412
vn -0.9446163 0.3274272 0.0221715
vn -0.3427565 0.8846663 0.3160435
vn -0.2685933 0.7280487 0.6307161
vn -0.2584463 0.9623312 -0.0844047
vn 0.7886723 0.5786911 0.2076359
vn 0.7399088 0.6631992 -0.1127016
vn 0.710835 0.4244283 0.5608692
vn -0.2685933 0.7280487 0.6307161
vn 0.710835 0.4244283 0.5608692
vn 0.9830669 -0.1788604 -0.03985634
vn 0.7686027 -0.2843173 -0.5730737
vn -0.04676911 -0.9892896 0.1382703
vn -0.0884878 -0.8724777 0.4805753
vn 0.1408456 -0.5606519 -0.8159853
vn -0.9481761 -0.238894 0.2095034
vn -0.800168 -0.3079394 0.5146888
vn -0.0884878 -0.8724777 0.4805753
vn -0.6774185 0.1094571 -0.7274086
vn 0.7686027 -0.2843173 -0.5730737
vn -0.5138972 0.7293565 -0.4516069
vn -0.800168 -0.3079394 0.5146888
vn -0.5138972 0.7293565 -0.4516069
vn 0.6094557 0.7928198 -0.0007223629
vn 0.9007232 0.07009214 0.4287013
vn 0.6180786 0.3153634 0.7200867
vn 0.9973356 0.05989185 -0.04164886
vn 0.2075669 -0.880641 0.4258962
vn 0.2460667 -0.9683241 -0.04242296
vn -0.1139561 -0.6872382 0.7174382
vn 0.6180786 0.3153634 0.7200867
vn -0.1139561 -0.6872382 0.7174382
vn -0.5684596 -0.8227087 -0.002046836
vn -0.9093287 -0.4154796 -0.02231757
vn -0.887925 0.3805999 0.2583267
vn -0.760258 0.2252164 0.6093318
vn -0.8763375 0.4712102 -0.09996832
vn 0.1660948 0.9326149 0.3203779
vn 0.08172568 0.9931062 -0.08402957
vn 0.1734741 0.7378638 0.6522759
vn -0.760258 0.2252164 0.6093318
vn 0.1734741 0.7378638 0.6522759
vn 0.8628654 0.50531 0.01117991
g Dead Classic Conetree_0
f 3/3/3 2/2/2 1/1/1
f 2/2/2 4/4/4 1/1/1
f 1/1/1 4/4/4 5/5/5
f 4/4/4 6/6/6 5/5/5
f 2/2/2 7/7/7 4/4/4
f 4/4/4 8/8/8 6/6/6
f 7/7/7 8/8/8 4/4/4
f 8/8/8 9/9/9 6/6/6
f 8/8/8 10/10/10 9/9/9
f 10/10/10 11/11/11 9/9/9
f 7/7/7 12/12/12 8/8/8
f 12/12/12 10/10/10 8/8/8
f 13/13/13 12/12/12 7/7/7
f 14/14/14 13/13/13 7/7/7
f 12/12/12 15/15/15 10/10/10
f 15/15/15 16/16/16 10/10/10
f 10/10/10 16/16/16 11/11/11
f 16/16/16 17/17/17 11/11/11
f 20/20/20 19/19/19 18/18/18
f 19/19/19 21/21/21 18/18/18
f 19/19/19 22/22/22 21/21/21
f 23/23/23 22/22/22 19/19/19
f 24/24/24 23/23/23 19/19/19
f 22/22/22 25/25/25 21/21/21
f 21/21/21 25/25/25 26/26/26
f 25/25/25 27/27/27 26/26/26
f 22/22/22 28/28/28 25/25/25
f 28/28/28 29/29/29 25/25/25
f 32/32/32 31/31/31 30/30/30
f 31/31/31 33/33/33 30/30/30
f 31/31/31 34/34/34 33/33/33
f 34/34/34 35/35/35 33/33/33
f 36/36/36 34/34/34 31/31/31
f 37/37/37 36/36/36 31/31/31
f 34/34/34 38/38/38 35/35/35
f 38/38/38 39/39/39 35/35/35
f 42/42/42 41/41/41 40/40/40
f 41/41/41 43/43/43 40/40/40
f 41/41/41 44/44/44 43/43/43
f 44/44/44 45/45/45 43/43/43
f 46/46/46 44/44/44 41/41/41
f 47/47/47 46/46/46 41/41/41
f 44/44/44 48/48/48 45/45/45
f 48/48/48 49/49/49 45/45/45
f 52/52/52 51/51/51 50/50/50
f 51/51/51 53/53/53 50/50/50
f 51/51/51 54/54/54 53/53/53
f 55/55/55 54/54/54 51/51/51
f 56/56/56 55/55/55 51/51/51
f 54/54/54 57/57/57 53/53/53
f 53/53/53 57/57/57 58/58/58
f 57/57/57 59/59/59 58/58/58
f 54/54/54 60/60/60 57/57/57
f 60/60/60 61/61/61 57/57/57
f 64/64/64 63/63/63 62/62/62
f 63/63/63 65/65/65 62/62/62
f 63/63/63 66/66/66 65/65/65
f 66/66/66 67/67/67 65/65/65
f 68/68/68 66/66/66 63/63/63
f 69/69/69 68/68/68 63/63/63
f 66/66/66 70/70/70 67/67/67
f 70/70/70 71/71/71 67/67/67
f 74/74/74 73/73/73 72/72/72
f 73/73/73 75/75/75 72/72/72
f 73/73/73 76/76/76 75/75/75
f 76/76/76 77/77/77 75/75/75
f 78/78/78 76/76/76 73/73/73
f 79/79/79 78/78/78 73/73/73
f 76/76/76 80/80/80 77/77/77
f 80/80/80 81/81/81 77/77/77
