g Eismoloch Claw
v 0.8206328 8.086185 0.2393274
v -1.923723 9.491693 0
v 0.8206328 8.086185 -0.2393274
v 0.3419781 8.086185 0.2393274
v -1.923723 9.491693 0
v 0.5813054 8.086185 0.3766588
v 0.5813054 8.086185 -0.3766588
v -1.923723 9.491693 0
v 0.3419781 8.086185 -0.2393274
v 0.8206328 8.086185 -0.2393274
v -1.923723 9.491693 0
v 0.5813054 8.086185 -0.3766588
v 0.5813054 8.086185 0.3766588
v -1.923723 9.491693 0
v 0.8206328 8.086185 0.2393274
v 0.3419781 8.086185 -0.2393274
v -1.923723 9.491693 0
v 0.3419781 8.086185 0.2393274
v -1 -0.06085575 -1
v 1.639847 3.050871 -0.6262067
v 1.639847 3.050871 0.6262067
v -1 -0.06085575 1
v 2.266054 3.050871 0.9855381
v 2.266055 5.666802 0.7482626
v 2.741498 5.666802 0.4754429
v 2.89226 3.050871 0.6262067
v 2.89226 3.050871 -0.6262067
v 1 -0.06085575 -1
v 1 -0.06085575 1
v 2.89226 3.050871 0.6262067
v 0 -0.06085575 1.573822
v -2.227264 -2.172302 1.296227
v -2.825585 -1.606302 0.8236168
v -1 -0.06085575 1
v 2.266054 3.050871 -0.9855381
v 0 -0.06085575 -1.573822
v 1 -0.06085575 -1
v 2.89226 3.050871 -0.6262067
v 2.266054 3.050871 0.9855381
v 0 -0.06085575 1.573822
v -1 -0.06085575 1
v 1.639847 3.050871 0.6262067
v 2.89226 3.050871 0.6262067
v 1 -0.06085575 1
v 0 -0.06085575 1.573822
v 2.266054 3.050871 0.9855381
v 1.639847 3.050871 -0.6262067
v -1 -0.06085575 -1
v 0 -0.06085575 -1.573822
v 2.266054 3.050871 -0.9855381
v 1 -0.06085575 -1
v -1.628943 -2.738303 -0.8236168
v -1.628943 -2.738303 0.8236168
v 1 -0.06085575 1
v 1.639847 3.050871 0.6262067
v 1.790612 5.666802 0.4754429
v 2.266055 5.666802 0.7482626
v 2.266054 3.050871 0.9855381
v 2.266055 5.666802 0.7482626
v 0.5813054 8.086185 0.3766588
v 0.8206328 8.086185 0.2393274
v 2.741498 5.666802 0.4754429
v 2.741498 5.666802 -0.4754429
v 0.8206328 8.086185 -0.2393274
v 0.5813054 8.086185 -0.3766588
v 2.266055 5.666802 -0.7482626
v 1.639847 3.050871 -0.6262067
v 1.790612 5.666802 -0.4754429
v 1.790612 5.666802 0.4754429
v 1.639847 3.050871 0.6262067
v 2.89226 3.050871 -0.6262067
v 2.741498 5.666802 -0.4754429
v 2.266055 5.666802 -0.7482626
v 2.266054 3.050871 -0.9855381
v 2.89226 3.050871 0.6262067
v 2.741498 5.666802 0.4754429
v 2.741498 5.666802 -0.4754429
v 2.89226 3.050871 -0.6262067
v 2.266054 3.050871 -0.9855381
v 2.266055 5.666802 -0.7482626
v 1.790612 5.666802 -0.4754429
v 1.639847 3.050871 -0.6262067
v 1.790612 5.666802 -0.4754429
v 0.3419781 8.086185 -0.2393274
v 0.3419781 8.086185 0.2393274
v 1.790612 5.666802 0.4754429
v 1.790612 5.666802 0.4754429
v 0.3419781 8.086185 0.2393274
v 0.5813054 8.086185 0.3766588
v 2.266055 5.666802 0.7482626
v 2.741498 5.666802 0.4754429
v 0.8206328 8.086185 0.2393274
v 0.8206328 8.086185 -0.2393274
v 2.741498 5.666802 -0.4754429
v 2.266055 5.666802 -0.7482626
v 0.5813054 8.086185 -0.3766588
v 0.3419781 8.086185 -0.2393274
v 1.790612 5.666802 -0.4754429
v -1 -0.06085575 -1
v -2.825585 -1.606302 -0.8236168
v -2.227264 -2.172302 -1.296227
v 0 -0.06085575 -1.573822
v 1 -0.06085575 1
v -1.628943 -2.738303 0.8236168
v -2.227264 -2.172302 1.296227
v 0 -0.06085575 1.573822
v -1.628943 -2.738303 -0.8236168
v -2.227264 -2.172302 1.296227
v -1.628943 -2.738303 0.8236168
v -2.227264 -2.172302 -1.296227
v -2.825585 -1.606302 -0.8236168
v -2.825585 -1.606302 0.8236168
v -1 -0.06085575 1
v -2.825585 -1.606302 0.8236168
v -2.825585 -1.606302 -0.8236168
v -1 -0.06085575 -1
v 0 -0.06085575 -1.573822
v -2.227264 -2.172302 -1.296227
v -1.628943 -2.738303 -0.8236168
v 1 -0.06085575 -1
vt 0.625 0.5
vt 0.625 0.5
vt 0.375 0.5
vt 0.875 0.5
vt 0.875 0.5
vt 0.7500001 0.5
vt 0.25 0.5
vt 0.25 0.5
vt 0.125 0.5
vt 0.375 0.5
vt 0.375 0.5
vt 0.25 0.5
vt 0.7500001 0.5
vt 0.7500001 0.5
vt 0.625 0.5
vt 0.375 0.25
vt 0.375 0.25
vt 0.625 0.25
vt 0.375 0
vt 0.375 0.25
vt 0.625 0.25
vt 0.625 0
vt 0.7500001 0.5
vt 0.7500001 0.5
vt 0.625 0.5
vt 0.625 0.5
vt 0.375 0.5
vt 0.375 0.75
vt 0.625 0.75
vt 0.625 0.5
vt 0.75 0.75
vt 0.75 0.75
vt 0.875 0.75
vt 0.875 0.75
vt 0.25 0.5
vt 0.25 0.75
vt 0.375 0.75
vt 0.375 0.5
vt 0.7500001 0.5
vt 0.75 0.75
vt 0.875 0.75
vt 0.875 0.5
vt 0.625 0.5
vt 0.625 0.75
vt 0.75 0.75
vt 0.7500001 0.5
vt 0.125 0.5
vt 0.125 0.75
vt 0.25 0.75
vt 0.25 0.5
vt 0.375 0.75
vt 0.375 0.75
vt 0.625 0.75
vt 0.625 0.75
vt 0.875 0.5
vt 0.875 0.5
vt 0.7500001 0.5
vt 0.7500001 0.5
vt 0.7500001 0.5
vt 0.7500001 0.5
vt 0.625 0.5
vt 0.625 0.5
vt 0.375 0.5
vt 0.375 0.5
vt 0.25 0.5
vt 0.25 0.5
vt 0.375 0.25
vt 0.375 0.25
vt 0.625 0.25
vt 0.625 0.25
vt 0.375 0.5
vt 0.375 0.5
vt 0.25 0.5
vt 0.25 0.5
vt 0.625 0.5
vt 0.625 0.5
vt 0.375 0.5
vt 0.375 0.5
vt 0.25 0.5
vt 0.25 0.5
vt 0.125 0.5
vt 0.125 0.5
vt 0.375 0.25
vt 0.375 0.25
vt 0.625 0.25
vt 0.625 0.25
vt 0.875 0.5
vt 0.875 0.5
vt 0.7500001 0.5
vt 0.7500001 0.5
vt 0.625 0.5
vt 0.625 0.5
vt 0.375 0.5
vt 0.375 0.5
vt 0.25 0.5
vt 0.25 0.5
vt 0.125 0.5
vt 0.125 0.5
vt 0.125 0.75
vt 0.125 0.75
vt 0.25 0.75
vt 0.25 0.75
vt 0.625 0.75
vt 0.625 0.75
vt 0.75 0.75
vt 0.75 0.75
vt 0.375 0.75
vt 0.75 0.75
vt 0.625 0.75
vt 0.25 0.75
vt 0.125 0.75
vt 0.875 0.75
vt 0.625 0
vt 0.625 0
vt 0.375 0
vt 0.375 0
vt 0.25 0.75
vt 0.25 0.75
vt 0.375 0.75
vt 0.375 0.75
vn 0.4558402 0.8900616 0
vn 0.4558402 0.8900616 0
vn 0.4558402 0.8900616 0
vn -0.4164133 -0.5476972 0.7256911
vn -0.4164133 -0.5476972 0.7256911
vn -0.4164133 -0.5476972 0.7256911
vn -0.4164133 -0.5476972 -0.7256911
vn -0.4164133 -0.5476972 -0.7256911
vn -0.4164133 -0.5476972 -0.7256911
vn 0.3315631 0.7457907 -0.577808
vn 0.3315631 0.7457907 -0.577808
vn 0.3315631 0.7457907 -0.577808
vn 0.3315631 0.7457907 0.577808
vn 0.3315631 0.7457907 0.577808
vn 0.3315631 0.7457907 0.577808
vn -0.5271488 -0.849773 0
vn -0.5271488 -0.849773 0
vn -0.5271488 -0.849773 0
vn -0.7625582 0.6469196 0
vn -0.7625582 0.6469196 0
vn -0.7625582 0.6469196 0
vn -0.7625582 0.6469196 0
vn 0.4961703 0.07842928 0.8646756
vn 0.4961703 0.07842928 0.8646756
vn 0.4961703 0.07842928 0.8646756
vn 0.4961703 0.07842928 0.8646756
vn 0.8544222 -0.5195794 0
vn 0.8544222 -0.5195794 0
vn 0.8544222 -0.5195794 0
vn 0.8544222 -0.5195794 0
vn -0.4183691 0.3601553 0.8338199
vn -0.4183691 0.3601553 0.8338199
vn -0.4183691 0.3601553 0.8338199
vn -0.4183691 0.3601553 0.8338199
vn 0.4881817 -0.1946702 -0.8507538
vn 0.4881817 -0.1946702 -0.8507538
vn 0.4881817 -0.1946702 -0.8507538
vn 0.4881817 -0.1946702 -0.8507538
vn -0.4404082 0.4658172 0.767499
vn -0.4404082 0.4658172 0.767499
vn -0.4404082 0.4658172 0.767499
vn -0.4404082 0.4658172 0.767499
vn 0.4881817 -0.1946702 0.8507538
vn 0.4881817 -0.1946702 0.8507538
vn 0.4881817 -0.1946702 0.8507538
vn 0.4881817 -0.1946702 0.8507538
vn -0.4404082 0.4658172 -0.767499
vn -0.4404082 0.4658172 -0.767499
vn -0.4404082 0.4658172 -0.767499
vn -0.4404082 0.4658172 -0.767499
vn 0.7135404 -0.7006142 0
vn 0.7135404 -0.7006142 0
vn 0.7135404 -0.7006142 0
vn 0.7135404 -0.7006142 0
vn -0.4961703 0.07842984 0.8646755
vn -0.4961703 0.07842984 0.8646755
vn -0.4961703 0.07842984 0.8646755
vn -0.4961703 0.07842984 0.8646755
vn 0.4487265 0.4325829 0.7819952
vn 0.4487265 0.4325829 0.7819952
vn 0.4487265 0.4325829 0.7819952
vn 0.4487265 0.4325829 0.7819952
vn 0.4487265 0.4325829 -0.7819952
vn 0.4487265 0.4325829 -0.7819952
vn 0.4487265 0.4325829 -0.7819952
vn 0.4487265 0.4325829 -0.7819952
vn -0.9983433 0.05753804 0
vn -0.9983433 0.05753804 0
vn -0.9983433 0.05753804 0
vn -0.9983433 0.05753804 0
vn 0.4961703 0.07842932 -0.8646756
vn 0.4961703 0.07842932 -0.8646756
vn 0.4961703 0.07842932 -0.8646756
vn 0.4961703 0.07842932 -0.8646756
vn 0.9983433 0.05753688 0
vn 0.9983433 0.05753688 0
vn 0.9983433 0.05753688 0
vn 0.9983433 0.05753688 0
vn -0.4961703 0.07842984 -0.8646755
vn -0.4961703 0.07842984 -0.8646755
vn -0.4961703 0.07842984 -0.8646755
vn -0.4961703 0.07842984 -0.8646755
vn -0.8579612 -0.5137144 0
vn -0.8579612 -0.5137144 0
vn -0.8579612 -0.5137144 0
vn -0.8579612 -0.5137144 0
vn -0.486748 -0.208662 0.848255
vn -0.486748 -0.208662 0.848255
vn -0.486748 -0.208662 0.848255
vn -0.486748 -0.208662 0.848255
vn 0.7831755 0.6218008 0
vn 0.7831755 0.6218008 0
vn 0.7831755 0.6218008 0
vn 0.7831755 0.6218008 0
vn -0.486748 -0.208662 -0.848255
vn -0.486748 -0.208662 -0.848255
vn -0.486748 -0.208662 -0.848255
vn -0.486748 -0.208662 -0.848255
vn -0.4183691 0.3601553 -0.8338199
vn -0.4183691 0.3601553 -0.8338199
vn -0.4183691 0.3601553 -0.8338199
vn -0.4183691 0.3601553 -0.8338199
vn 0.3706316 -0.45272 0.8109728
vn 0.3706316 -0.45272 0.8109728
vn 0.3706316 -0.45272 0.8109728
vn 0.3706316 -0.45272 0.8109728
vn -0.6872131 -0.7264559 0
vn -0.6872131 -0.7264559 0
vn -0.6872131 -0.7264559 0
vn -0.6872131 -0.7264559 0
vn -0.687213 -0.726456 0
vn -0.687213 -0.726456 0
vn -0.6461177 0.7632378 0
vn -0.6461177 0.7632378 0
vn -0.6461177 0.7632378 0
vn -0.6461177 0.7632378 0
vn 0.3706317 -0.45272 -0.8109728
vn 0.3706317 -0.45272 -0.8109728
vn 0.3706317 -0.45272 -0.8109728
vn 0.3706317 -0.45272 -0.8109728
g Eismoloch Claw_0
f 3/3/3 2/2/2 1/1/1
f 6/6/6 5/5/5 4/4/4
f 9/9/9 8/8/8 7/7/7
f 12/12/12 11/11/11 10/10/10
f 15/15/15 14/14/14 13/13/13
f 18/18/18 17/17/17 16/16/16
f 21/21/21 20/20/20 19/19/19
f 22/22/22 21/21/21 19/19/19
f 25/25/25 24/24/24 23/23/23
f 26/26/26 25/25/25 23/23/23
f 29/29/29 28/28/28 27/27/27
f 30/30/30 29/29/29 27/27/27
f 33/33/33 32/32/32 31/31/31
f 34/34/34 33/33/33 31/31/31
f 37/37/37 36/36/36 35/35/35
f 38/38/38 37/37/37 35/35/35
f 41/41/41 40/40/40 39/39/39
f 42/42/42 41/41/41 39/39/39
f 45/45/45 44/44/44 43/43/43
f 46/46/46 45/45/45 43/43/43
f 49/49/49 48/48/48 47/47/47
f 50/50/50 49/49/49 47/47/47
f 53/53/53 52/52/52 51/51/51
f 54/54/54 53/53/53 51/51/51
f 57/57/57 56/56/56 55/55/55
f 58/58/58 57/57/57 55/55/55
f 61/61/61 60/60/60 59/59/59
f 62/62/62 61/61/61 59/59/59
f 65/65/65 64/64/64 63/63/63
f 66/66/66 65/65/65 63/63/63
f 69/69/69 68/68/68 67/67/67
f 70/70/70 69/69/69 67/67/67
f 73/73/73 72/72/72 71/71/71
f 74/74/74 73/73/73 71/71/71
f 77/77/77 76/76/76 75/75/75
f 78/78/78 77/77/77 75/75/75
f 81/81/81 80/80/80 79/79/79
f 82/82/82 81/81/81 79/79/79
f 85/85/85 84/84/84 83/83/83
f 86/86/86 85/85/85 83/83/83
f 89/89/89 88/88/88 87/87/87
f 90/90/90 89/89/89 87/87/87
f 93/93/93 92/92/92 91/91/91
f 94/94/94 93/93/93 91/91/91
f 97/97/97 96/96/96 95/95/95
f 98/98/98 97/97/97 95/95/95
f 101/101/101 100/100/100 99/99/99
f 102/102/102 101/101/101 99/99/99
f 105/105/105 104/104/104 103/103/103
f 106/106/106 105/105/105 103/103/103
f 109/109/109 108/108/108 107/107/107
f 108/108/108 110/110/110 107/107/107
f 110/110/110 108/108/108 111/111/111
f 108/108/108 112/112/112 111/111/111
f 115/115/115 114/114/114 113/113/113
f 116/116/116 115/115/115 113/113/113
f 119/119/119 118/118/118 117/117/117
f 120/120/120 119/119/119 117/117/117
