g Explosive Mill lvl2
v 1.41842 1.41842 1.9221
v 1.164768 1.164768 3.189553
v -1.164768 1.164768 3.189553
v -1.41842 1.41842 1.9221
v 1.436447 1.436447 1.597508
v 1.538303 1.538303 1.619
v -1.538303 1.538303 1.619
v -1.436447 1.436447 1.597508
v -1.41842 -1.41842 1.9221
v -1.521289 -1.521289 1.943592
v -1.521289 1.521289 1.943592
v -1.41842 1.41842 1.9221
v 1.41842 1.41842 1.9221
v 1.521289 1.521289 1.943592
v 1.521289 -1.521289 1.943592
v 1.41842 -1.41842 1.9221
v -1.436447 -1.436447 1.597508
v -1.538303 -1.538303 1.619
v 1.538303 -1.538303 1.619
v 1.436447 -1.436447 1.597508
v -1.41842 -1.41842 1.9221
v -1.164768 -1.164768 3.189553
v 1.164768 -1.164768 3.189553
v 1.41842 -1.41842 1.9221
v 1.41842 -1.41842 1.9221
v 1.164768 -1.164768 3.189553
v 1.164768 1.164768 3.189553
v 1.41842 1.41842 1.9221
v -1.41842 1.41842 1.9221
v -1.164768 1.164768 3.189553
v -1.164768 -1.164768 3.189553
v -1.41842 -1.41842 1.9221
v 1.164768 -1.164768 3.189553
v 1.200495 -1.200495 3.804901
v 1.254013 -0.3291303 4.726682
v 1.164768 1.164768 3.189553
v 1.254013 0.3291303 4.726682
v 1.200495 1.200495 3.804901
v -0.7682428 0.7682428 5.105004
v -0.3291303 1.254013 4.726682
v 0.3291303 1.254013 4.726682
v 0.7682428 0.7682428 5.105004
v -0.8814585 0.8814585 5.105062
v 0.8814585 0.8814585 5.105062
v -1.254013 -0.3291303 4.726682
v -1.200495 -1.200495 3.804901
v -1.164768 -1.164768 3.189553
v -1.164768 1.164768 3.189553
v -1.254013 0.3291303 4.726682
v -1.200495 1.200495 3.804901
v 0.7682428 -0.7682428 5.105004
v 0.8814585 -0.8814585 5.105062
v 0.8814585 0.8814585 5.105062
v 0.7682428 0.7682428 5.105004
v 1.254013 -0.3291303 4.726682
v 1.254013 0.3291303 4.726682
v -1.200495 1.200495 3.804901
v -1.164768 1.164768 3.189553
v 1.164768 1.164768 3.189553
v 1.200495 1.200495 3.804901
v -0.3291303 1.254013 4.726682
v 0.3291303 1.254013 4.726682
v 0.7682428 -0.7682428 5.105004
v 0.3291303 -1.254013 4.726682
v -0.3291303 -1.254013 4.726682
v -0.7682428 -0.7682428 5.105004
v 0.8814585 -0.8814585 5.105062
v -0.8814585 -0.8814585 5.105062
v 1.200495 -1.200495 3.804901
v 1.164768 -1.164768 3.189553
v -1.164768 -1.164768 3.189553
v -1.200495 -1.200495 3.804901
v 0.3291303 -1.254013 4.726682
v -0.3291303 -1.254013 4.726682
v 1.466021 -1.466021 1.065006
v 1.436447 -1.436447 1.597508
v 1.436447 1.436447 1.597508
v 1.466021 1.466021 1.065005
v -1.466021 -1.466021 1.065006
v -1.436447 -1.436447 1.597508
v 1.436447 -1.436447 1.597508
v 1.466021 -1.466021 1.065006
v 1.466021 1.466021 1.065005
v 1.436447 1.436447 1.597508
v -1.436447 1.436447 1.597508
v -1.466021 1.466021 1.065005
v -1.466021 1.466021 1.065005
v -1.436447 1.436447 1.597508
v -1.436447 -1.436447 1.597508
v -1.466021 -1.466021 1.065006
v -1.538303 1.538303 1.619
v -1.521289 1.521289 1.943592
v -1.521289 -1.521289 1.943592
v -1.538303 -1.538303 1.619
v 1.538303 1.538303 1.619
v 1.521289 1.521289 1.943592
v -1.521289 1.521289 1.943592
v -1.538303 1.538303 1.619
v -1.538303 -1.538303 1.619
v -1.521289 -1.521289 1.943592
v 1.521289 -1.521289 1.943592
v 1.538303 -1.538303 1.619
v 1.538303 -1.538303 1.619
v 1.521289 -1.521289 1.943592
v 1.521289 1.521289 1.943592
v 1.538303 1.538303 1.619
v 1.436447 -1.436447 1.597508
v 1.538303 -1.538303 1.619
v 1.538303 1.538303 1.619
v 1.436447 1.436447 1.597508
v -1.41842 1.41842 1.9221
v -1.521289 1.521289 1.943592
v 1.521289 1.521289 1.943592
v 1.41842 1.41842 1.9221
v 1.41842 -1.41842 1.9221
v 1.521289 -1.521289 1.943592
v -1.521289 -1.521289 1.943592
v -1.41842 -1.41842 1.9221
v -1.436447 1.436447 1.597508
v -1.538303 1.538303 1.619
v -1.538303 -1.538303 1.619
v -1.436447 -1.436447 1.597508
v 0.8814585 0.8814585 5.105062
v 0.7792204 0.7792204 6.406602
v -0.7792204 0.7792204 6.406602
v -0.8814585 0.8814585 5.105062
v -0.4942776 -0.4942776 6.677743
v -0.4942776 0.4942776 6.677743
v 0.4942776 0.4942776 6.677743
v 0.4942776 -0.4942776 6.677743
v -0.8814585 -0.8814585 5.105062
v -0.7792204 -0.7792204 6.406602
v 0.7792204 -0.7792204 6.406602
v 0.8814585 -0.8814585 5.105062
v 0.8814585 -0.8814585 5.105062
v 0.7792204 -0.7792204 6.406602
v 0.7792204 0.7792204 6.406602
v 0.8814585 0.8814585 5.105062
v -1.525168 1.525168 0
v -1.495594 1.495594 0.6928635
v -1.495594 -1.495594 0.6928636
v -1.525168 -1.525168 0
v -1.466021 -1.466021 1.065006
v -1.541507 -1.541507 1.086818
v -1.541507 1.541507 1.086818
v -1.466021 1.466021 1.065005
v 1.525168 1.525168 0
v 1.495594 1.495594 0.6928635
v -1.495594 1.495594 0.6928635
v -1.525168 1.525168 0
v -1.466021 1.466021 1.065005
v -1.541507 1.541507 1.086818
v 1.541507 1.541507 1.086818
v 1.466021 1.466021 1.065005
v -1.525168 -1.525168 0
v -1.495594 -1.495594 0.6928636
v 1.495594 -1.495594 0.6928636
v 1.525168 -1.525168 0
v 1.466021 -1.466021 1.065006
v 1.541507 -1.541507 1.086818
v -1.541507 -1.541507 1.086818
v -1.466021 -1.466021 1.065006
v 1.525168 -1.525168 0
v 1.495594 -1.495594 0.6928636
v 1.495594 1.495594 0.6928635
v 1.525168 1.525168 0
v 1.466021 1.466021 1.065005
v 1.541507 1.541507 1.086818
v 1.541507 -1.541507 1.086818
v 1.466021 -1.466021 1.065006
v -1.569942 1.569942 0.7146763
v -1.541507 1.541507 1.086818
v -1.541507 -1.541507 1.086818
v -1.569942 -1.569942 0.7146763
v 1.569942 1.569942 0.7146763
v 1.541507 1.541507 1.086818
v -1.541507 1.541507 1.086818
v -1.569942 1.569942 0.7146763
v -1.569942 -1.569942 0.7146763
v -1.541507 -1.541507 1.086818
v 1.541507 -1.541507 1.086818
v 1.569942 -1.569942 0.7146763
v 1.569942 -1.569942 0.7146763
v 1.541507 -1.541507 1.086818
v 1.541507 1.541507 1.086818
v 1.569942 1.569942 0.7146763
v 1.495594 -1.495594 0.6928636
v 1.569942 -1.569942 0.7146763
v 1.569942 1.569942 0.7146763
v 1.495594 1.495594 0.6928635
v -1.495594 -1.495594 0.6928636
v -1.569942 -1.569942 0.7146763
v 1.569942 -1.569942 0.7146763
v 1.495594 -1.495594 0.6928636
v 1.495594 1.495594 0.6928635
v 1.569942 1.569942 0.7146763
v -1.569942 1.569942 0.7146763
v -1.495594 1.495594 0.6928635
v -1.495594 1.495594 0.6928635
v -1.569942 1.569942 0.7146763
v -1.569942 -1.569942 0.7146763
v -1.495594 -1.495594 0.6928636
v -0.7792204 0.7792204 6.406602
v -0.4942776 0.4942776 6.677743
v -0.4942776 -0.4942776 6.677743
v -0.7792204 -0.7792204 6.406602
v -0.7792204 -0.7792204 6.406602
v -0.4942776 -0.4942776 6.677743
v 0.4942776 -0.4942776 6.677743
v 0.7792204 -0.7792204 6.406602
v 0.7792204 -0.7792204 6.406602
v 0.4942776 -0.4942776 6.677743
v 0.4942776 0.4942776 6.677743
v 0.7792204 0.7792204 6.406602
v 0.7792204 0.7792204 6.406602
v 0.4942776 0.4942776 6.677743
v -0.4942776 0.4942776 6.677743
v -0.7792204 0.7792204 6.406602
v -0.8814585 0.8814585 5.105062
v -0.7792204 0.7792204 6.406602
v -0.7792204 -0.7792204 6.406602
v -0.8814585 -0.8814585 5.105062
v -0.7682428 0.7682428 5.105004
v -1.254013 0.3291303 4.726682
v -1.200495 1.200495 3.804901
v -0.3291303 1.254013 4.726682
v -1.254013 -0.3291303 4.726682
v -0.7682428 -0.7682428 5.105004
v -0.3291303 -1.254013 4.726682
v -1.200495 -1.200495 3.804901
v 0.3291303 -1.254013 4.726682
v 0.7682428 -0.7682428 5.105004
v 1.254013 -0.3291303 4.726682
v 1.200495 -1.200495 3.804901
v 1.254013 0.3291303 4.726682
v 0.7682428 0.7682428 5.105004
v 0.3291303 1.254013 4.726682
v 1.200495 1.200495 3.804901
v -0.8814585 0.8814585 5.105062
v -0.8814585 -0.8814585 5.105062
v -0.7682428 -0.7682428 5.105004
v -0.7682428 0.7682428 5.105004
v -1.254013 -0.3291303 4.726682
v -1.254013 0.3291303 4.726682
vt 1 1
vt 1 1
vt 0 1
vt 0 1
vt 0.9999999 0.9999999
vt 0.9999999 0.9999999
vt 0 0.9999999
vt 0 0.9999999
vt 0 0
vt 0 0
vt 0 1
vt 0 1
vt 1 1
vt 1 1
vt 1 0
vt 1 0
vt 0 0
vt 0 0
vt 0.9999999 0
vt 0.9999999 0
vt 0 0
vt 0 0
vt 1 0
vt 1 0
vt 1 0
vt 1 0
vt 1 1
vt 1 1
vt 0 1
vt 0 1
vt 0 0
vt 0 0
vt 1 0
vt 1 0
vt 1 0.3687692
vt 1 1
vt 1 0.6312308
vt 1 1
vt 0 1
vt 0.3687692 1
vt 0.6312308 1
vt 1 1
vt 0 1
vt 1 1
vt 0 0.3687692
vt 0 0
vt 0 0
vt 0 1
vt 0 0.6312308
vt 0 1
vt 1 0
vt 1 0
vt 1 1
vt 1 1
vt 1 0.3687692
vt 1 0.6312308
vt 0 1
vt 0 1
vt 1 1
vt 1 1
vt 0.3687692 1
vt 0.6312308 1
vt 1 0
vt 0.6312308 0
vt 0.3687692 0
vt 0 0
vt 1 0
vt 0 0
vt 1 0
vt 1 0
vt 0 0
vt 0 0
vt 0.6312308 0
vt 0.3687692 0
vt 0.9999999 0
vt 0.9999999 0
vt 0.9999999 0.9999999
vt 0.9999999 0.9999999
vt 0 0
vt 0 0
vt 0.9999999 0
vt 0.9999999 0
vt 0.9999999 0.9999999
vt 0.9999999 0.9999999
vt 0 0.9999999
vt 0 0.9999999
vt 0 0.9999999
vt 0 0.9999999
vt 0 0
vt 0 0
vt 0 0.9999999
vt 0 1
vt 0 0
vt 0 0
vt 0.9999999 0.9999999
vt 1 1
vt 0 1
vt 0 0.9999999
vt 0 0
vt 0 0
vt 1 0
vt 0.9999999 0
vt 0.9999999 0
vt 1 0
vt 1 1
vt 0.9999999 0.9999999
vt 0.9999999 0
vt 0.9999999 0
vt 0.9999999 0.9999999
vt 0.9999999 0.9999999
vt 0 1
vt 0 1
vt 1 1
vt 1 1
vt 1 0
vt 1 0
vt 0 0
vt 0 0
vt 0 0.9999999
vt 0 0.9999999
vt 0 0
vt 0 0
vt 1 1
vt 1 1
vt 0 1
vt 0 1
vt 0.08780288 0.08780288
vt 0.08780288 0.9121971
vt 0.9121971 0.9121971
vt 0.9121971 0.08780288
vt 0 0
vt 0 0
vt 1 0
vt 1 0
vt 1 0
vt 1 0
vt 1 1
vt 1 1
vt 0 1
vt 0 0.9999999
vt 0 0
vt 0 0
vt 0 0
vt 0 0
vt 0 0.9999999
vt 0 0.9999999
vt 1 1
vt 0.9999999 0.9999999
vt 0 0.9999999
vt 0 1
vt 0 0.9999999
vt 0 0.9999999
vt 0.9999999 0.9999999
vt 0.9999999 0.9999999
vt 0 0
vt 0 0
vt 0.9999999 0
vt 1 0
vt 0.9999999 0
vt 0.9999999 0
vt 0 0
vt 0 0
vt 1 0
vt 0.9999999 0
vt 0.9999999 0.9999999
vt 1 1
vt 0.9999999 0.9999999
vt 0.9999999 0.9999999
vt 0.9999999 0
vt 0.9999999 0
vt 0 0.9999999
vt 0 0.9999999
vt 0 0
vt 0 0
vt 0.9999999 0.9999999
vt 0.9999999 0.9999999
vt 0 0.9999999
vt 0 0.9999999
vt 0 0
vt 0 0
vt 0.9999999 0
vt 0.9999999 0
vt 0.9999999 0
vt 0.9999999 0
vt 0.9999999 0.9999999
vt 0.9999999 0.9999999
vt 0.9999999 0
vt 0.9999999 0
vt 0.9999999 0.9999999
vt 0.9999999 0.9999999
vt 0 0
vt 0 0
vt 0.9999999 0
vt 0.9999999 0
vt 0.9999999 0.9999999
vt 0.9999999 0.9999999
vt 0 0.9999999
vt 0 0.9999999
vt 0 0.9999999
vt 0 0.9999999
vt 0 0
vt 0 0
vt 0 1
vt 0.08780288 0.9121971
vt 0.08780288 0.08780288
vt 0 0
vt 0 0
vt 0.08780288 0.08780288
vt 0.9121971 0.08780288
vt 1 0
vt 1 0
vt 0.9121971 0.08780288
vt 0.9121971 0.9121971
vt 1 1
vt 1 1
vt 0.9121971 0.9121971
vt 0.08780288 0.9121971
vt 0 1
vt 0 1
vt 0 1
vt 0 0
vt 0 0
vt 0 1
vt 0 0.6312308
vt 0 1
vt 0.3687692 1
vt 0 0.3687692
vt 0 0
vt 0.3687692 0
vt 0 0
vt 0.6312308 0
vt 1 0
vt 1 0.3687692
vt 1 0
vt 1 0.6312308
vt 1 1
vt 0.6312308 1
vt 1 1
vt 0 1
vt 0 0
vt 0 0
vt 0 1
vt 0 0.3687692
vt 0 0.6312308
vn 0 0.9805566 0.1962365
vn 0 0.9805566 0.1962365
vn 0 0.9805566 0.1962365
vn 0 0.9805566 0.1962365
vn 0 0.2064609 -0.9784549
vn 0 0.2064609 -0.9784549
vn 0 0.2064609 -0.9784549
vn 0 0.2064609 -0.9784549
vn 0.204512 0 0.9788641
vn 0.204512 0 0.9788641
vn 0.204512 0 0.9788641
vn 0.204512 0 0.9788641
vn -0.204512 0 0.9788641
vn -0.204512 0 0.9788641
vn -0.204512 0 0.9788641
vn -0.204512 0 0.9788641
vn 0 -0.2064609 -0.9784549
vn 0 -0.2064609 -0.9784549
vn 0 -0.2064609 -0.9784549
vn 0 -0.2064609 -0.9784549
vn 0 -0.9805566 0.1962365
vn 0 -0.9805566 0.1962365
vn 0 -0.9805566 0.1962365
vn 0 -0.9805566 0.1962365
vn 0.9805566 0 0.1962366
vn 0.9805566 0 0.1962366
vn 0.9805566 0 0.1962366
vn 0.9805566 0 0.1962366
vn -0.9805566 0 0.1962366
vn -0.9805566 0 0.1962366
vn -0.9805566 0 0.1962366
vn -0.9805566 0 0.1962366
vn 0.9983188 0 -0.0579625
vn 0.9983188 0 -0.0579625
vn 0.9983188 0 -0.0579625
vn 0.9983188 0 -0.0579625
vn 0.9983188 0 -0.0579625
vn 0.9983188 0 -0.0579625
vn 0 0.767991 0.6404606
vn 0 0.767991 0.6404606
vn 0 0.767991 0.6404606
vn 0 0.767991 0.6404606
vn 0 0.767991 0.6404606
vn 0 0.767991 0.6404606
vn -0.9983188 0 -0.0579625
vn -0.9983188 0 -0.0579625
vn -0.9983188 0 -0.0579625
vn -0.9983188 0 -0.0579625
vn -0.9983188 0 -0.0579625
vn -0.9983188 0 -0.0579625
vn 0.7679909 0 0.6404607
vn 0.7679909 0 0.6404607
vn 0.7679909 0 0.6404607
vn 0.7679909 0 0.6404607
vn 0.7679909 0 0.6404607
vn 0.7679909 0 0.6404607
vn 0 0.9983188 -0.05796256
vn 0 0.9983188 -0.05796256
vn 0 0.9983188 -0.05796256
vn 0 0.9983188 -0.05796256
vn 0 0.9983188 -0.05796256
vn 0 0.9983188 -0.05796256
vn 0 -0.767991 0.6404606
vn 0 -0.767991 0.6404606
vn 0 -0.767991 0.6404606
vn 0 -0.767991 0.6404606
vn 0 -0.767991 0.6404606
vn 0 -0.767991 0.6404606
vn 0 -0.9983188 -0.05796256
vn 0 -0.9983188 -0.05796256
vn 0 -0.9983188 -0.05796256
vn 0 -0.9983188 -0.05796256
vn 0 -0.9983188 -0.05796256
vn 0 -0.9983188 -0.05796256
vn 0.9984614 0 0.05545172
vn 0.9984614 0 0.05545172
vn 0.9984614 0 0.05545172
vn 0.9984614 0 0.05545172
vn 0 -0.9984614 0.05545187
vn 0 -0.9984614 0.05545187
vn 0 -0.9984614 0.05545187
vn 0 -0.9984614 0.05545187
vn 0 0.9984614 0.05545185
vn 0 0.9984614 0.05545185
vn 0 0.9984614 0.05545185
vn 0 0.9984614 0.05545185
vn -0.9984614 0 0.05545172
vn -0.9984614 0 0.05545172
vn -0.9984614 0 0.05545172
vn -0.9984614 0 0.05545172
vn -0.9986292 0 0.05234298
vn -0.9986292 0 0.05234298
vn -0.9986292 0 0.05234298
vn -0.9986292 0 0.05234298
vn 0 0.9986292 0.05234275
vn 0 0.9986292 0.05234275
vn 0 0.9986292 0.05234275
vn 0 0.9986292 0.05234275
vn 0 -0.9986292 0.05234275
vn 0 -0.9986292 0.05234275
vn 0 -0.9986292 0.05234275
vn 0 -0.9986292 0.05234275
vn 0.9986292 0 0.05234298
vn 0.9986292 0 0.05234298
vn 0.9986292 0 0.05234298
vn 0.9986292 0 0.05234298
vn 0.2064629 0 -0.9784545
vn 0.2064629 0 -0.9784545
vn 0.2064629 0 -0.9784545
vn 0.2064629 0 -0.9784545
vn 0 -0.204511 0.9788643
vn 0 -0.204511 0.9788643
vn 0 -0.204511 0.9788643
vn 0 -0.204511 0.9788643
vn 0 0.204511 0.9788643
vn 0 0.204511 0.9788643
vn 0 0.204511 0.9788643
vn 0 0.204511 0.9788643
vn -0.2064629 0 -0.9784545
vn -0.2064629 0 -0.9784545
vn -0.2064629 0 -0.9784545
vn -0.2064629 0 -0.9784545
vn 0 0.996929 0.07831036
vn 0 0.996929 0.07831036
vn 0 0.996929 0.07831036
vn 0 0.996929 0.07831036
vn 0 0 1
vn 0 0 1
vn 0 0 1
vn 0 0 1
vn 0 -0.996929 0.07831036
vn 0 -0.996929 0.07831036
vn 0 -0.996929 0.07831036
vn 0 -0.996929 0.07831036
vn 0.996929 0 0.07831036
vn 0.996929 0 0.07831036
vn 0.996929 0 0.07831036
vn 0.996929 0 0.07831036
vn -0.9990903 0 0.04264461
vn -0.9990903 0 0.04264461
vn -0.9990903 0 0.04264461
vn -0.9990903 0 0.04264461
vn 0.2776031 0 0.9606959
vn 0.2776031 0 0.9606959
vn 0.2776031 0 0.9606959
vn 0.2776031 0 0.9606959
vn 0 0.9990903 0.04264463
vn 0 0.9990903 0.04264463
vn 0 0.9990903 0.04264463
vn 0 0.9990903 0.04264463
vn 0 -0.2776043 0.9606956
vn 0 -0.2776043 0.9606956
vn 0 -0.2776043 0.9606956
vn 0 -0.2776043 0.9606956
vn 0 -0.9990903 0.04264463
vn 0 -0.9990903 0.04264463
vn 0 -0.9990903 0.04264463
vn 0 -0.9990903 0.04264463
vn 0 0.2776037 0.9606957
vn 0 0.2776037 0.9606957
vn 0 0.2776037 0.9606957
vn 0 0.2776037 0.9606957
vn 0.9990903 0 0.04264461
vn 0.9990903 0 0.04264461
vn 0.9990903 0 0.04264461
vn 0.9990903 0 0.04264461
vn -0.2776031 0 0.9606959
vn -0.2776031 0 0.9606959
vn -0.2776031 0 0.9606959
vn -0.2776031 0 0.9606959
vn -0.9970937 0 0.07618597
vn -0.9970937 0 0.07618597
vn -0.9970937 0 0.07618597
vn -0.9970937 0 0.07618597
vn 0 0.9970937 0.07618512
vn 0 0.9970937 0.07618512
vn 0 0.9970937 0.07618512
vn 0 0.9970937 0.07618512
vn 0 -0.9970937 0.07618593
vn 0 -0.9970937 0.07618593
vn 0 -0.9970937 0.07618593
vn 0 -0.9970937 0.07618593
vn 0.9970937 0 0.07618597
vn 0.9970937 0 0.07618597
vn 0.9970937 0 0.07618597
vn 0.9970937 0 0.07618597
vn 0.2815218 0 -0.9595549
vn 0.2815218 0 -0.9595549
vn 0.2815218 0 -0.9595549
vn 0.2815218 0 -0.9595549
vn 0 -0.2815218 -0.9595549
vn 0 -0.2815218 -0.9595549
vn 0 -0.2815218 -0.9595549
vn 0 -0.2815218 -0.9595549
vn 0 0.2815229 -0.9595546
vn 0 0.2815229 -0.9595546
vn 0 0.2815229 -0.9595546
vn 0 0.2815229 -0.9595546
vn -0.2815218 0 -0.9595549
vn -0.2815218 0 -0.9595549
vn -0.2815218 0 -0.9595549
vn -0.2815218 0 -0.9595549
vn -0.6893446 0 0.7244335
vn -0.6893446 0 0.7244335
vn -0.6893446 0 0.7244335
vn -0.6893446 0 0.7244335
vn 0 -0.6893439 0.7244343
vn 0 -0.6893439 0.7244343
vn 0 -0.6893439 0.7244343
vn 0 -0.6893439 0.7244343
vn 0.6893446 0 0.7244335
vn 0.6893446 0 0.7244335
vn 0.6893446 0 0.7244335
vn 0.6893446 0 0.7244335
vn 0 0.6893439 0.7244343
vn 0 0.6893439 0.7244343
vn 0 0.6893439 0.7244343
vn 0 0.6893439 0.7244343
vn -0.996929 0 0.07831036
vn -0.996929 0 0.07831036
vn -0.996929 0 0.07831036
vn -0.996929 0 0.07831036
vn -0.6399016 0.6399012 0.4255024
vn -0.6399016 0.6399012 0.4255024
vn -0.6399016 0.6399012 0.4255024
vn -0.6399016 0.6399012 0.4255024
vn -0.6399016 -0.6399012 0.4255024
vn -0.6399016 -0.6399012 0.4255024
vn -0.6399016 -0.6399012 0.4255024
vn -0.6399016 -0.6399012 0.4255024
vn 0.6399016 -0.6399012 0.4255024
vn 0.6399016 -0.6399012 0.4255024
vn 0.6399016 -0.6399012 0.4255024
vn 0.6399016 -0.6399012 0.4255024
vn 0.6399016 0.6399012 0.4255024
vn 0.6399016 0.6399012 0.4255024
vn 0.6399016 0.6399012 0.4255024
vn 0.6399016 0.6399012 0.4255024
vn -0.7679909 0 0.6404607
vn -0.7679909 0 0.6404607
vn -0.7679909 0 0.6404607
vn -0.7679909 0 0.6404607
vn -0.7679909 0 0.6404607
vn -0.7679909 0 0.6404607
g Explosive Mill lvl2_0
f 3/3/3 2/2/2 1/1/1
f 4/4/4 3/3/3 1/1/1
f 7/7/7 6/6/6 5/5/5
f 8/8/8 7/7/7 5/5/5
f 11/11/11 10/10/10 9/9/9
f 12/12/12 11/11/11 9/9/9
f 15/15/15 14/14/14 13/13/13
f 16/16/16 15/15/15 13/13/13
f 19/19/19 18/18/18 17/17/17
f 20/20/20 19/19/19 17/17/17
f 23/23/23 22/22/22 21/21/21
f 24/24/24 23/23/23 21/21/21
f 27/27/27 26/26/26 25/25/25
f 28/28/28 27/27/27 25/25/25
f 31/31/31 30/30/30 29/29/29
f 32/32/32 31/31/31 29/29/29
f 35/35/35 34/34/34 33/33/33
f 33/33/33 36/36/36 35/35/35
f 36/36/36 37/37/37 35/35/35
f 36/36/36 38/38/38 37/37/37
f 41/41/41 40/40/40 39/39/39
f 39/39/39 42/42/42 41/41/41
f 39/39/39 43/43/43 42/42/42
f 43/43/43 44/44/44 42/42/42
f 47/47/47 46/46/46 45/45/45
f 45/45/45 48/48/48 47/47/47
f 45/45/45 49/49/49 48/48/48
f 49/49/49 50/50/50 48/48/48
f 53/53/53 52/52/52 51/51/51
f 51/51/51 54/54/54 53/53/53
f 51/51/51 55/55/55 54/54/54
f 55/55/55 56/56/56 54/54/54
f 59/59/59 58/58/58 57/57/57
f 57/57/57 60/60/60 59/59/59
f 57/57/57 61/61/61 60/60/60
f 61/61/61 62/62/62 60/60/60
f 65/65/65 64/64/64 63/63/63
f 63/63/63 66/66/66 65/65/65
f 63/63/63 67/67/67 66/66/66
f 67/67/67 68/68/68 66/66/66
f 71/71/71 70/70/70 69/69/69
f 69/69/69 72/72/72 71/71/71
f 69/69/69 73/73/73 72/72/72
f 73/73/73 74/74/74 72/72/72
f 77/77/77 76/76/76 75/75/75
f 78/78/78 77/77/77 75/75/75
f 81/81/81 80/80/80 79/79/79
f 82/82/82 81/81/81 79/79/79
f 85/85/85 84/84/84 83/83/83
f 86/86/86 85/85/85 83/83/83
f 89/89/89 88/88/88 87/87/87
f 90/90/90 89/89/89 87/87/87
f 93/93/93 92/92/92 91/91/91
f 94/94/94 93/93/93 91/91/91
f 97/97/97 96/96/96 95/95/95
f 98/98/98 97/97/97 95/95/95
f 101/101/101 100/100/100 99/99/99
f 102/102/102 101/101/101 99/99/99
f 105/105/105 104/104/104 103/103/103
f 106/106/106 105/105/105 103/103/103
f 109/109/109 108/108/108 107/107/107
f 110/110/110 109/109/109 107/107/107
f 113/113/113 112/112/112 111/111/111
f 114/114/114 113/113/113 111/111/111
f 117/117/117 116/116/116 115/115/115
f 118/118/118 117/117/117 115/115/115
f 121/121/121 120/120/120 119/119/119
f 122/122/122 121/121/121 119/119/119
f 125/125/125 124/124/124 123/123/123
f 126/126/126 125/125/125 123/123/123
f 129/129/129 128/128/128 127/127/127
f 130/130/130 129/129/129 127/127/127
f 133/133/133 132/132/132 131/131/131
f 134/134/134 133/133/133 131/131/131
f 137/137/137 136/136/136 135/135/135
f 138/138/138 137/137/137 135/135/135
f 141/141/141 140/140/140 139/139/139
f 142/142/142 141/141/141 139/139/139
f 145/145/145 144/144/144 143/143/143
f 146/146/146 145/145/145 143/143/143
f 149/149/149 148/148/148 147/147/147
f 150/150/150 149/149/149 147/147/147
f 153/153/153 152/152/152 151/151/151
f 154/154/154 153/153/153 151/151/151
f 157/157/157 156/156/156 155/155/155
f 158/158/158 157/157/157 155/155/155
f 161/161/161 160/160/160 159/159/159
f 162/162/162 161/161/161 159/159/159
f 165/165/165 164/164/164 163/163/163
f 166/166/166 165/165/165 163/163/163
f 169/169/169 168/168/168 167/167/167
f 170/170/170 169/169/169 167/167/167
f 173/173/173 172/172/172 171/171/171
f 174/174/174 173/173/173 171/171/171
f 177/177/177 176/176/176 175/175/175
f 178/178/178 177/177/177 175/175/175
f 181/181/181 180/180/180 179/179/179
f 182/182/182 181/181/181 179/179/179
f 185/185/185 184/184/184 183/183/183
f 186/186/186 185/185/185 183/183/183
f 189/189/189 188/188/188 187/187/187
f 190/190/190 189/189/189 187/187/187
f 193/193/193 192/192/192 191/191/191
f 194/194/194 193/193/193 191/191/191
f 197/197/197 196/196/196 195/195/195
f 198/198/198 197/197/197 195/195/195
f 201/201/201 200/200/200 199/199/199
f 202/202/202 201/201/201 199/199/199
f 205/205/205 204/204/204 203/203/203
f 206/206/206 205/205/205 203/203/203
f 209/209/209 208/208/208 207/207/207
f 210/210/210 209/209/209 207/207/207
f 213/213/213 212/212/212 211/211/211
f 214/214/214 213/213/213 211/211/211
f 217/217/217 216/216/216 215/215/215
f 218/218/218 217/217/217 215/215/215
f 221/221/221 220/220/220 219/219/219
f 222/222/222 221/221/221 219/219/219
f 225/225/225 224/224/224 223/223/223
f 226/226/226 225/225/225 223/223/223
f 229/229/229 228/228/228 227/227/227
f 230/230/230 229/229/229 227/227/227
f 233/233/233 232/232/232 231/231/231
f 234/234/234 233/233/233 231/231/231
f 237/237/237 236/236/236 235/235/235
f 238/238/238 237/237/237 235/235/235
f 241/241/241 240/240/240 239/239/239
f 239/239/239 242/242/242 241/241/241
f 242/242/242 243/243/243 241/241/241
f 242/242/242 244/244/244 243/243/243
