g Field
v -2.25 -2.25 2.081799E-07
v -2.25 2.25 2.081799E-07
v -2.25 2.25 0.1000002
v -2.25 -2.25 0.1000002
v -2.25 -2.25 0.187502
v -2.25 2.25 0.187502
v 2.25 2.25 2.081799E-07
v 2.25 -2.25 2.081799E-07
v 2.25 -2.25 0.1000002
v 2.25 2.25 0.1000002
v 1.8 2.25 2.081799E-07
v 2.25 2.25 2.081799E-07
v 2.25 2.25 0.1000002
v 1.8 2.25 0.1000002
v 1.35 2.25 2.081799E-07
v 1.35 2.25 0.1000002
v 0.9000001 2.25 2.081799E-07
v 1.35 2.25 0.1513304
v 1.8 2.25 0.1513304
v 0.9 2.25 0.1000002
v 0.45 2.25 2.081799E-07
v 0.9 2.25 0.2465379
v 1.35 2.25 0.2465379
v 0.45 2.25 0.1000002
v 0 2.25 2.081799E-07
v 0 2.25 0.1000002
v -0.45 2.25 2.081799E-07
v -0.45 2.25 0.1000002
v -0.9 2.25 2.081799E-07
v -0.9000001 2.25 0.1000002
v -1.35 2.25 2.081799E-07
v -1.35 2.25 0.1000002
v -1.8 2.25 2.081799E-07
v -1.8 2.25 0.1000002
v -2.25 2.25 2.081799E-07
v -2.25 2.25 0.1000002
v -2.25 2.25 0.187502
v -1.8 2.25 0.187502
v -1.8 -2.25 2.081799E-07
v -2.25 -2.25 2.081799E-07
v -2.25 -2.25 0.1000002
v -1.8 -2.25 0.1000002
v -1.35 -2.25 2.081799E-07
v -1.8 -2.25 0.187502
v -2.25 -2.25 0.187502
v -1.35 -2.25 0.1000002
v -0.9000001 -2.25 2.081799E-07
v -0.9 -2.25 0.1000002
v -0.45 -2.25 2.081799E-07
v -0.9 -2.25 0.1856008
v -1.35 -2.25 0.1856008
v -0.45 -2.25 0.1000002
v 0 -2.25 2.081799E-07
v 0 -2.25 0.1000002
v 0.45 -2.25 2.081799E-07
v 0.45 -2.25 0.1000002
v 0.9 -2.25 2.081799E-07
v 0.9000001 -2.25 0.1000002
v 1.35 -2.25 2.081799E-07
v 1.35 -2.25 0.1000002
v 1.8 -2.25 2.081799E-07
v 1.8 -2.25 0.1000002
v 2.25 -2.25 2.081799E-07
v 2.25 -2.25 0.1000002
v 1.8 -2.25 0.1513304
v 1.35 -2.25 0.1513304
v 1.8 2.25 2.081799E-07
v 2.25 -2.25 2.081799E-07
v 2.25 2.25 2.081799E-07
v 1.8 -2.25 2.081799E-07
v 1.35 2.25 2.081799E-07
v 1.35 -2.25 2.081799E-07
v 0.9000001 2.25 2.081799E-07
v 0.9 -2.25 2.081799E-07
v 0.45 2.25 2.081799E-07
v 0.45 -2.25 2.081799E-07
v 0 2.25 2.081799E-07
v 0 -2.25 2.081799E-07
v -0.45 2.25 2.081799E-07
v -0.45 -2.25 2.081799E-07
v -0.9 2.25 2.081799E-07
v -0.9000001 -2.25 2.081799E-07
v -1.35 2.25 2.081799E-07
v -1.35 -2.25 2.081799E-07
v -1.8 2.25 2.081799E-07
v -1.8 -2.25 2.081799E-07
v -2.25 2.25 2.081799E-07
v -2.25 -2.25 2.081799E-07
v -1.8 -2.25 0.1000002
v -1.8 -2.25 0.187502
v -1.8 2.25 0.187502
v -1.8 2.25 0.1000002
v 2.25 2.25 0.1000002
v 2.25 -2.25 0.1000002
v 1.8 -2.25 0.1000002
v 1.8 2.25 0.1000002
v 1.8 -2.25 0.1000002
v 1.8 -2.25 0.1513304
v 1.8 2.25 0.1513304
v 1.8 2.25 0.1000002
v 0.9000001 -2.25 0.1000002
v 0.9000001 -2.25 0.2465379
v 1.35 -2.25 0.2465379
v 1.35 -2.25 0.1000002
v 0.45 -2.25 0.1000002
v 0.9000001 -2.25 0.1241427
v 0.45 -2.25 0.1241427
v 0 -2.25 0.1000002
v 0.45 -2.25 0.2525288
v 0 -2.25 0.2525288
v -0.45 -2.25 0.1000002
v 0 -2.25 0.1804227
v -0.45 -2.25 0.1804227
v 0.9000001 -2.25 0.1000002
v 0.9000001 -2.25 0.1241427
v 0.9 2.25 0.1241427
v 0.9 2.25 0.1000002
v 0 2.25 0.1000002
v 0 2.25 0.1804227
v -0.45 2.25 0.1804227
v -0.45 2.25 0.1000002
v 0.45 2.25 0.1000002
v 0 2.25 0.2525288
v 0.45 2.25 0.2525288
v 0.9 2.25 0.1000002
v 0.45 2.25 0.1241427
v 0.9 2.25 0.1241427
v -0.45 2.25 0.1000002
v -0.45 -2.25 0.1000002
v -0.9 -2.25 0.1000002
v -0.9000001 2.25 0.1000002
v -0.9000001 2.25 0.1000002
v -0.9000001 2.25 0.1856008
v -1.35 2.25 0.1856008
v -1.35 2.25 0.1000002
v -1.35 2.25 0.1000002
v -1.35 -2.25 0.1000002
v -1.8 -2.25 0.1000002
v -1.8 2.25 0.1000002
v 1.8 2.25 0.1513304
v 1.8 -2.25 0.1513304
v 1.35 -2.25 0.1513304
v 1.35 2.25 0.1513304
v 1.35 2.25 0.1000002
v 1.35 2.25 0.1513304
v 1.35 -2.25 0.1513304
v 1.35 -2.25 0.1000002
v 1.35 2.25 0.2465379
v 1.35 -2.25 0.2465379
v 0.9000001 -2.25 0.2465379
v 0.9 2.25 0.2465379
v 0.9 2.25 0.1000002
v 0.9 2.25 0.2465379
v 0.9000001 -2.25 0.2465379
v 0.9000001 -2.25 0.1000002
v 1.35 -2.25 0.1000002
v 1.35 -2.25 0.2465379
v 1.35 2.25 0.2465379
v 1.35 2.25 0.1000002
v 0.9 2.25 0.1241427
v 0.9000001 -2.25 0.1241427
v 0.45 -2.25 0.1241427
v 0.45 2.25 0.1241427
v 0.45 2.25 0.1000002
v 0.45 2.25 0.1241427
v 0.45 -2.25 0.1241427
v 0.45 -2.25 0.1000002
v 0.45 2.25 0.2525288
v 0.45 -2.25 0.2525288
v 0 -2.25 0.2525288
v 0 2.25 0.2525288
v 0 2.25 0.1000002
v 0 2.25 0.2525288
v 0 -2.25 0.2525288
v 0 -2.25 0.1000002
v 0.45 -2.25 0.1000002
v 0.45 -2.25 0.2525288
v 0.45 2.25 0.2525288
v 0.45 2.25 0.1000002
v 0 2.25 0.1804227
v 0 -2.25 0.1804227
v -0.45 -2.25 0.1804227
v -0.45 2.25 0.1804227
v 0 -2.25 0.1000002
v 0 -2.25 0.1804227
v 0 2.25 0.1804227
v 0 2.25 0.1000002
v -0.45 2.25 0.1000002
v -0.45 2.25 0.1804227
v -0.45 -2.25 0.1804227
v -0.45 -2.25 0.1000002
v -0.9000001 2.25 0.1856008
v -0.9 -2.25 0.1856008
v -1.35 -2.25 0.1856008
v -1.35 2.25 0.1856008
v -0.9 -2.25 0.1000002
v -0.9 -2.25 0.1856008
v -0.9000001 2.25 0.1856008
v -0.9000001 2.25 0.1000002
v -1.35 2.25 0.1000002
v -1.35 2.25 0.1856008
v -1.35 -2.25 0.1856008
v -1.35 -2.25 0.1000002
v -1.8 2.25 0.187502
v -1.8 -2.25 0.187502
v -2.25 -2.25 0.187502
v -2.25 2.25 0.187502
vt 0.375 0
vt 0.375 0.25
vt 0.625 0.25
vt 0.625 0
vt 0.625 0
vt 0.625 0.25
vt 0.375 0.5
vt 0.375 0.75
vt 0.625 0.75
vt 0.625 0.5
vt 0.375 0.475
vt 0.375 0.5
vt 0.625 0.5
vt 0.625 0.475
vt 0.375 0.45
vt 0.625 0.45
vt 0.375 0.425
vt 0.625 0.45
vt 0.625 0.475
vt 0.625 0.425
vt 0.375 0.4
vt 0.625 0.425
vt 0.625 0.45
vt 0.625 0.4
vt 0.375 0.375
vt 0.625 0.375
vt 0.375 0.35
vt 0.625 0.35
vt 0.375 0.325
vt 0.625 0.325
vt 0.375 0.3
vt 0.625 0.3
vt 0.375 0.275
vt 0.625 0.275
vt 0.375 0.25
vt 0.625 0.25
vt 0.625 0.25
vt 0.625 0.275
vt 0.375 0.975
vt 0.375 1
vt 0.625 1
vt 0.625 0.975
vt 0.375 0.9499999
vt 0.625 0.975
vt 0.625 1
vt 0.625 0.9499999
vt 0.375 0.925
vt 0.625 0.925
vt 0.375 0.9
vt 0.625 0.925
vt 0.625 0.9499999
vt 0.625 0.9
vt 0.375 0.8749999
vt 0.625 0.875
vt 0.375 0.85
vt 0.625 0.85
vt 0.375 0.825
vt 0.625 0.8249999
vt 0.375 0.8
vt 0.625 0.8
vt 0.375 0.775
vt 0.625 0.775
vt 0.375 0.75
vt 0.625 0.75
vt 0.625 0.775
vt 0.625 0.8
vt 0.35 0.5
vt 0.375 0.75
vt 0.375 0.5
vt 0.35 0.75
vt 0.325 0.5
vt 0.325 0.75
vt 0.3 0.5
vt 0.3 0.75
vt 0.275 0.5
vt 0.275 0.75
vt 0.25 0.5
vt 0.25 0.7499999
vt 0.225 0.5
vt 0.225 0.7499999
vt 0.2 0.5
vt 0.2 0.7499999
vt 0.175 0.5
vt 0.175 0.7499999
vt 0.15 0.5
vt 0.15 0.7499999
vt 0.125 0.5
vt 0.125 0.75
vt 0.85 0.75
vt 0.85 0.75
vt 0.85 0.5
vt 0.85 0.5
vt 0.625 0.5
vt 0.625 0.75
vt 0.65 0.7499999
vt 0.65 0.5
vt 0.65 0.7499999
vt 0.65 0.7499999
vt 0.65 0.5
vt 0.65 0.5
vt 0.625 0.8249999
vt 0.625 0.8249999
vt 0.625 0.8
vt 0.625 0.8
vt 0.625 0.85
vt 0.625 0.8249999
vt 0.625 0.85
vt 0.625 0.875
vt 0.625 0.85
vt 0.625 0.875
vt 0.625 0.9
vt 0.625 0.875
vt 0.625 0.9
vt 0.6999999 0.7499999
vt 0.6999999 0.7499999
vt 0.7 0.5
vt 0.7 0.5
vt 0.625 0.375
vt 0.625 0.375
vt 0.625 0.35
vt 0.625 0.35
vt 0.625 0.4
vt 0.625 0.375
vt 0.625 0.4
vt 0.625 0.425
vt 0.625 0.4
vt 0.625 0.425
vt 0.775 0.5
vt 0.775 0.75
vt 0.8 0.75
vt 0.8 0.5
vt 0.625 0.325
vt 0.625 0.325
vt 0.625 0.3
vt 0.625 0.3
vt 0.8249999 0.5
vt 0.825 0.75
vt 0.85 0.75
vt 0.85 0.5
vt 0.65 0.5
vt 0.65 0.7499999
vt 0.675 0.7499999
vt 0.675 0.5
vt 0.675 0.5
vt 0.675 0.5
vt 0.675 0.7499999
vt 0.675 0.7499999
vt 0.675 0.5
vt 0.675 0.7499999
vt 0.6999999 0.7499999
vt 0.7 0.5
vt 0.7 0.5
vt 0.7 0.5
vt 0.6999999 0.7499999
vt 0.6999999 0.7499999
vt 0.675 0.7499999
vt 0.675 0.7499999
vt 0.675 0.5
vt 0.675 0.5
vt 0.7 0.5
vt 0.6999999 0.7499999
vt 0.725 0.7499999
vt 0.725 0.5
vt 0.725 0.5
vt 0.725 0.5
vt 0.725 0.7499999
vt 0.725 0.7499999
vt 0.725 0.5
vt 0.725 0.7499999
vt 0.75 0.7499999
vt 0.75 0.5
vt 0.75 0.5
vt 0.75 0.5
vt 0.75 0.7499999
vt 0.75 0.7499999
vt 0.725 0.7499999
vt 0.725 0.7499999
vt 0.725 0.5
vt 0.725 0.5
vt 0.75 0.5
vt 0.75 0.7499999
vt 0.775 0.75
vt 0.775 0.5
vt 0.75 0.7499999
vt 0.75 0.7499999
vt 0.75 0.5
vt 0.75 0.5
vt 0.775 0.5
vt 0.775 0.5
vt 0.775 0.75
vt 0.775 0.75
vt 0.8 0.5
vt 0.8 0.75
vt 0.825 0.75
vt 0.8249999 0.5
vt 0.8 0.75
vt 0.8 0.75
vt 0.8 0.5
vt 0.8 0.5
vt 0.8249999 0.5
vt 0.8249999 0.5
vt 0.825 0.75
vt 0.825 0.75
vt 0.85 0.5
vt 0.85 0.75
vt 0.875 0.75
vt 0.875 0.5
vn -1 0 0
vn -1 0 0
vn -1 0 0
vn -1 0 0
vn -1 0 0
vn -1 0 0
vn 1 0 0
vn 1 0 0
vn 1 0 0
vn 1 0 0
vn 0 1 0
vn 0 1 0
vn 0 1 0
vn 0 1 0
vn 0 1 0
vn 0 1 0
vn 0 1 0
vn 0 1 0
vn 0 1 0
vn 0 1 0
vn 0 1 0
vn 0 1 0
vn 0 1 0
vn 0 1 0
vn 0 1 0
vn 0 1 0
vn 0 1 0
vn 0 1 0
vn 0 1 0
vn 0 1 0
vn 0 1 0
vn 0 1 0
vn 0 1 0
vn 0 1 0
vn 0 1 0
vn 0 1 0
vn 0 1 0
vn 0 1 0
vn 0 -1 0
vn 0 -1 0
vn 0 -1 0
vn 0 -1 0
vn 0 -1 0
vn 0 -1 0
vn 0 -1 0
vn 0 -1 0
vn 0 -1 0
vn 0 -1 0
vn 0 -1 0
vn 0 -1 0
vn 0 -1 0
vn 0 -1 0
vn 0 -1 0
vn 0 -1 0
vn 0 -1 0
vn 0 -1 0
vn 0 -1 0
vn 0 -1 0
vn 0 -1 0
vn 0 -1 0
vn 0 -1 0
vn 0 -1 0
vn 0 -1 0
vn 0 -1 0
vn 0 -1 0
vn 0 -1 0
vn 0 0 -1
vn 0 0 -1
vn 0 0 -1
vn 0 0 -1
vn 0 0 -1
vn 0 0 -1
vn 0 0 -1
vn 0 0 -1
vn 0 0 -1
vn 0 0 -1
vn 0 0 -1
vn 0 0 -1
vn 0 0 -1
vn 0 0 -1
vn 0 0 -1
vn 0 0 -1
vn 0 0 -1
vn 0 0 -1
vn 0 0 -1
vn 0 0 -1
vn 0 0 -1
vn 0 0 -1
vn 1 0 0
vn 1 0 0
vn 1 0 0
vn 1 0 0
vn 0 0 1
vn 0 0 1
vn 0 0 1
vn 0 0 1
vn 1 0 0
vn 1 0 0
vn 1 0 0
vn 1 0 0
vn 0 -1 0
vn 0 -1 0
vn 0 -1 0
vn 0 -1 0
vn 0 -1 0
vn 0 -1 0
vn 0 -1 0
vn 0 -1 0
vn 0 -1 0
vn 0 -1 0
vn 0 -1 0
vn 0 -1 0
vn 0 -1 0
vn 1 0 0
vn 1 0 0
vn 1 0 0
vn 1 0 0
vn 0 1 0
vn 0 1 0
vn 0 1 0
vn 0 1 0
vn 0 1 0
vn 0 1 0
vn 0 1 0
vn 0 1 0
vn 0 1 0
vn 0 1 0
vn 0 0 1
vn 0 0 1
vn 0 0 1
vn 0 0 1
vn 0 1 0
vn 0 1 0
vn 0 1 0
vn 0 1 0
vn 0 0 1
vn 0 0 1
vn 0 0 1
vn 0 0 1
vn 0 0 1
vn 0 0 1
vn 0 0 1
vn 0 0 1
vn -1 0 0
vn -1 0 0
vn -1 0 0
vn -1 0 0
vn 0 0 1
vn 0 0 1
vn 0 0 1
vn 0 0 1
vn -1 0 0
vn -1 0 0
vn -1 0 0
vn -1 0 0
vn 1 0 0
vn 1 0 0
vn 1 0 0
vn 1 0 0
vn 0 0 1
vn 0 0 1
vn 0 0 1
vn 0 0 1
vn -1 0 0
vn -1 0 0
vn -1 0 0
vn -1 0 0
vn 0 0 1
vn 0 0 1
vn 0 0 1
vn 0 0 1
vn -1 0 0
vn -1 0 0
vn -1 0 0
vn -1 0 0
vn 1 0 0
vn 1 0 0
vn 1 0 0
vn 1 0 0
vn 0 0 1
vn 0 0 1
vn 0 0 1
vn 0 0 1
vn 1 0 0
vn 1 0 0
vn 1 0 0
vn 1 0 0
vn -1 0 0
vn -1 0 0
vn -1 0 0
vn -1 0 0
vn 0 0 1
vn 0 0 1
vn 0 0 1
vn 0 0 1
vn 1 0 0
vn 1 0 0
vn 1 0 0
vn 1 0 0
vn -1 0 0
vn -1 0 0
vn -1 0 0
vn -1 0 0
vn 0 0 1
vn 0 0 1
vn 0 0 1
vn 0 0 1
g Field_0
f 3/3/3 2/2/2 1/1/1
f 4/4/4 3/3/3 1/1/1
f 4/4/4 5/5/5 3/3/3
f 5/5/5 6/6/6 3/3/3
f 9/9/9 8/8/8 7/7/7
f 10/10/10 9/9/9 7/7/7
f 13/13/13 12/12/12 11/11/11
f 14/14/14 13/13/13 11/11/11
f 14/14/14 11/11/11 15/15/15
f 16/16/16 14/14/14 15/15/15
f 16/16/16 15/15/15 17/17/17
f 16/16/16 18/18/18 14/14/14
f 18/18/18 19/19/19 14/14/14
f 20/20/20 16/16/16 17/17/17
f 20/20/20 17/17/17 21/21/21
f 20/20/20 22/22/22 16/16/16
f 22/22/22 23/23/23 16/16/16
f 24/24/24 20/20/20 21/21/21
f 24/24/24 21/21/21 25/25/25
f 26/26/26 24/24/24 25/25/25
f 26/26/26 25/25/25 27/27/27
f 28/28/28 26/26/26 27/27/27
f 28/28/28 27/27/27 29/29/29
f 30/30/30 28/28/28 29/29/29
f 30/30/30 29/29/29 31/31/31
f 32/32/32 30/30/30 31/31/31
f 32/32/32 31/31/31 33/33/33
f 34/34/34 32/32/32 33/33/33
f 34/34/34 33/33/33 35/35/35
f 36/36/36 34/34/34 35/35/35
f 36/36/36 37/37/37 34/34/34
f 37/37/37 38/38/38 34/34/34
f 41/41/41 40/40/40 39/39/39
f 42/42/42 41/41/41 39/39/39
f 42/42/42 39/39/39 43/43/43
f 42/42/42 44/44/44 41/41/41
f 44/44/44 45/45/45 41/41/41
f 46/46/46 42/42/42 43/43/43
f 46/46/46 43/43/43 47/47/47
f 48/48/48 46/46/46 47/47/47
f 48/48/48 47/47/47 49/49/49
f 48/48/48 50/50/50 46/46/46
f 50/50/50 51/51/51 46/46/46
f 52/52/52 48/48/48 49/49/49
f 52/52/52 49/49/49 53/53/53
f 54/54/54 52/52/52 53/53/53
f 54/54/54 53/53/53 55/55/55
f 56/56/56 54/54/54 55/55/55
f 56/56/56 55/55/55 57/57/57
f 58/58/58 56/56/56 57/57/57
f 58/58/58 57/57/57 59/59/59
f 60/60/60 58/58/58 59/59/59
f 60/60/60 59/59/59 61/61/61
f 62/62/62 60/60/60 61/61/61
f 62/62/62 61/61/61 63/63/63
f 64/64/64 62/62/62 63/63/63
f 62/62/62 65/65/65 60/60/60
f 65/65/65 66/66/66 60/60/60
f 69/69/69 68/68/68 67/67/67
f 68/68/68 70/70/70 67/67/67
f 67/67/67 70/70/70 71/71/71
f 70/70/70 72/72/72 71/71/71
f 71/71/71 72/72/72 73/73/73
f 72/72/72 74/74/74 73/73/73
f 73/73/73 74/74/74 75/75/75
f 74/74/74 76/76/76 75/75/75
f 75/75/75 76/76/76 77/77/77
f 76/76/76 78/78/78 77/77/77
f 77/77/77 78/78/78 79/79/79
f 78/78/78 80/80/80 79/79/79
f 79/79/79 80/80/80 81/81/81
f 80/80/80 82/82/82 81/81/81
f 81/81/81 82/82/82 83/83/83
f 82/82/82 84/84/84 83/83/83
f 83/83/83 84/84/84 85/85/85
f 84/84/84 86/86/86 85/85/85
f 85/85/85 86/86/86 87/87/87
f 86/86/86 88/88/88 87/87/87
f 91/91/91 90/90/90 89/89/89
f 92/92/92 91/91/91 89/89/89
f 95/95/95 94/94/94 93/93/93
f 96/96/96 95/95/95 93/93/93
f 99/99/99 98/98/98 97/97/97
f 100/100/100 99/99/99 97/97/97
f 103/103/103 102/102/102 101/101/101
f 104/104/104 103/103/103 101/101/101
f 101/101/101 106/106/106 105/105/105
f 106/106/106 107/107/107 105/105/105
f 105/105/105 109/109/109 108/108/108
f 109/109/109 110/110/110 108/108/108
f 108/108/108 112/112/112 111/111/111
f 112/112/112 113/113/113 111/111/111
f 116/116/116 115/115/115 114/114/114
f 117/117/117 116/116/116 114/114/114
f 120/120/120 119/119/119 118/118/118
f 121/121/121 120/120/120 118/118/118
f 118/118/118 123/123/123 122/122/122
f 123/123/123 124/124/124 122/122/122
f 122/122/122 126/126/126 125/125/125
f 126/126/126 127/127/127 125/125/125
f 130/130/130 129/129/129 128/128/128
f 131/131/131 130/130/130 128/128/128
f 134/134/134 133/133/133 132/132/132
f 135/135/135 134/134/134 132/132/132
f 138/138/138 137/137/137 136/136/136
f 139/139/139 138/138/138 136/136/136
f 142/142/142 141/141/141 140/140/140
f 143/143/143 142/142/142 140/140/140
f 146/146/146 145/145/145 144/144/144
f 147/147/147 146/146/146 144/144/144
f 150/150/150 149/149/149 148/148/148
f 151/151/151 150/150/150 148/148/148
f 154/154/154 153/153/153 152/152/152
f 155/155/155 154/154/154 152/152/152
f 158/158/158 157/157/157 156/156/156
f 159/159/159 158/158/158 156/156/156
f 162/162/162 161/161/161 160/160/160
f 163/163/163 162/162/162 160/160/160
f 166/166/166 165/165/165 164/164/164
f 167/167/167 166/166/166 164/164/164
f 170/170/170 169/169/169 168/168/168
f 171/171/171 170/170/170 168/168/168
f 174/174/174 173/173/173 172/172/172
f 175/175/175 174/174/174 172/172/172
f 178/178/178 177/177/177 176/176/176
f 179/179/179 178/178/178 176/176/176
f 182/182/182 181/181/181 180/180/180
f 183/183/183 182/182/182 180/180/180
f 186/186/186 185/185/185 184/184/184
f 187/187/187 186/186/186 184/184/184
f 190/190/190 189/189/189 188/188/188
f 191/191/191 190/190/190 188/188/188
f 194/194/194 193/193/193 192/192/192
f 195/195/195 194/194/194 192/192/192
f 198/198/198 197/197/197 196/196/196
f 199/199/199 198/198/198 196/196/196
f 202/202/202 201/201/201 200/200/200
f 203/203/203 202/202/202 200/200/200
f 206/206/206 205/205/205 204/204/204
f 207/207/207 206/206/206 204/204/204
