g Field Ruins
v -0.6082303 -0.2310412 1.117587E-07
v -0.5471916 -1.690457 0.01410535
v -0.2185998 -1.681413 0.01950434
v -0.2663613 -0.5565001 1.117587E-07
v 0.8787639 -1.064326 1.094009E-07
v 0.4763719 -1.157133 1.094009E-07
v 0.4081621 -1.917367 1.094009E-07
v 0.9065656 -1.983933 1.094009E-07
v -0.6082303 -0.2310412 0.4884143
v -0.2663613 -0.5565001 0.4884143
v -0.2185998 -1.681413 0.5079186
v -0.5471916 -1.690457 0.5025196
v 0.8787639 -1.064326 0.4884143
v 0.9065656 -1.983933 0.4884143
v 0.4081621 -1.917367 0.4884143
v 0.4763719 -1.157133 0.4884143
v -0.2663613 -0.5565001 1.117587E-07
v -0.2185998 -1.681413 0.01950434
v -0.2185998 -1.681413 0.5079186
v -0.2663613 -0.5565001 0.4884143
v 0.9065656 -1.983933 1.094009E-07
v 0.4081621 -1.917367 1.094009E-07
v 0.4081621 -1.917367 0.4884143
v 0.9065656 -1.983933 0.4884143
v -0.5471916 -1.690457 0.01410535
v -0.6082303 -0.2310412 1.117587E-07
v -0.6082303 -0.2310412 0.4884143
v -0.5471916 -1.690457 0.5025196
v -0.6082303 -0.2310412 1.117587E-07
v -0.2663613 -0.5565001 1.117587E-07
v -0.2663613 -0.5565001 0.4884143
v -0.6082303 -0.2310412 0.4884143
v 0.4763719 -1.157133 1.094009E-07
v 0.8787639 -1.064326 1.094009E-07
v 0.8787639 -1.064326 0.4884143
v 0.4763719 -1.157133 0.4884143
v 0.8787639 -1.064326 1.094009E-07
v 0.9065656 -1.983933 1.094009E-07
v 0.9065656 -1.983933 0.4884143
v 0.8787639 -1.064326 0.4884143
v -0.8300163 1.48146 1.043081E-07
v -1.175033 1.560075 1.043081E-07
v -1.228688 0.9979597 1.043081E-07
v -0.7750173 0.7940717 1.043081E-07
v -0.8300163 1.48146 0.4884143
v -0.7750173 0.7940717 0.4884143
v -1.228688 0.9979597 0.4884143
v -1.175033 1.560075 0.4884143
v -0.7750173 0.7940717 1.043081E-07
v -1.228688 0.9979597 1.043081E-07
v -1.228688 0.9979597 0.4884143
v -0.7750173 0.7940717 0.4884143
v -1.175033 1.560075 1.043081E-07
v -0.8300163 1.48146 1.043081E-07
v -0.8300163 1.48146 0.4884143
v -1.175033 1.560075 0.4884143
v -0.8300163 1.48146 1.043081E-07
v -0.7750173 0.7940717 1.043081E-07
v -0.7750173 0.7940717 0.4884143
v -0.8300163 1.48146 0.4884143
v -1.228688 0.9979597 1.043081E-07
v -1.175033 1.560075 1.043081E-07
v -1.175033 1.560075 0.4884143
v -1.228688 0.9979597 0.4884143
v 0.4081621 -1.917367 1.094009E-07
v 0.4763719 -1.157133 1.094009E-07
v 0.4763719 -1.157133 0.4884143
v 0.4081621 -1.917367 0.4884143
v -0.2185998 -1.681413 0.01950434
v -0.5471916 -1.690457 0.01410535
v -0.5471916 -1.690457 0.5025196
v -0.2185998 -1.681413 0.5079186
v 0.8656908 0.8399581 1.639128E-07
v 0.9230326 1.464203 1.639128E-07
v 0.4729341 1.292493 1.639128E-07
v 0.4803132 0.7767746 1.639128E-07
v 0.8656908 0.8399581 0.4884144
v 0.4803132 0.7767746 0.4884144
v 0.4729341 1.292493 0.4884144
v 0.9230326 1.464203 0.4884144
v 0.4803132 0.7767746 1.639128E-07
v 0.4729341 1.292493 1.639128E-07
v 0.4729341 1.292493 0.4884144
v 0.4803132 0.7767746 0.4884144
v 0.9230326 1.464203 1.639128E-07
v 0.8656908 0.8399581 1.639128E-07
v 0.8656908 0.8399581 0.4884144
v 0.9230326 1.464203 0.4884144
v 0.8656908 0.8399581 1.639128E-07
v 0.4803132 0.7767746 1.639128E-07
v 0.4803132 0.7767746 0.4884144
v 0.8656908 0.8399581 0.4884144
v 0.4729341 1.292493 1.639128E-07
v 0.9230326 1.464203 1.639128E-07
v 0.9230326 1.464203 0.4884144
v 0.4729341 1.292493 0.4884144
v 0.9058967 -0.6124569 1.639128E-07
v 0.7652073 -0.0206798 1.639128E-07
v 0.4869611 -0.1268291 1.639128E-07
v 0.5360602 -0.6730924 1.639128E-07
v 0.9058967 -0.6124569 0.4884144
v 0.5360602 -0.6730924 0.4884144
v 0.4869611 -0.1268291 0.4884144
v 0.7652073 -0.0206798 0.4884144
v 0.5360602 -0.6730924 1.639128E-07
v 0.4869611 -0.1268291 1.639128E-07
v 0.4869611 -0.1268291 0.4884144
v 0.5360602 -0.6730924 0.4884144
v 0.7652073 -0.0206798 1.639128E-07
v 0.9058967 -0.6124569 1.639128E-07
v 0.9058967 -0.6124569 0.4884144
v 0.7652073 -0.0206798 0.4884144
v 0.9058967 -0.6124569 1.639128E-07
v 0.5360602 -0.6730924 1.639128E-07
v 0.5360602 -0.6730924 0.4884144
v 0.9058967 -0.6124569 0.4884144
v 0.4869611 -0.1268291 1.639128E-07
v 0.7652073 -0.0206798 1.639128E-07
v 0.7652073 -0.0206798 0.4884144
v 0.4869611 -0.1268291 0.4884144
vt 0 0
vt 0 0
vt 0 0
vt 0 0
vt 0 0
vt 0 0
vt 0 0
vt 0 0
vt 0 0
vt 0 0
vt 0 0
vt 0 0
vt 0 0
vt 0 0
vt 0 0
vt 0 0
vt 0 0
vt 0 0
vt 0 0
vt 0 0
vt 0 0
vt 0 0
vt 0 0
vt 0 0
vt 0 0
vt 0 0
vt 0 0
vt 0 0
vt 0 0
vt 0 0
vt 0 0
vt 0 0
vt 0 0
vt 0 0
vt 0 0
vt 0 0
vt 0 0
vt 0 0
vt 0 0
vt 0 0
vt 0 0
vt 0 0
vt 0 0
vt 0 0
vt 0 0
vt 0 0
vt 0 0
vt 0 0
vt 0 0
vt 0 0
vt 0 0
vt 0 0
vt 0 0
vt 0 0
vt 0 0
vt 0 0
vt 0 0
vt 0 0
vt 0 0
vt 0 0
vt 0 0
vt 0 0
vt 0 0
vt 0 0
vt 0 0
vt 0 0
vt 0 0
vt 0 0
vt 0 0
vt 0 0
vt 0 0
vt 0 0
vt 0 0
vt 0 0
vt 0 0
vt 0 0
vt 0 0
vt 0 0
vt 0 0
vt 0 0
vt 0 0
vt 0 0
vt 0 0
vt 0 0
vt 0 0
vt 0 0
vt 0 0
vt 0 0
vt 0 0
vt 0 0
vt 0 0
vt 0 0
vt 0 0
vt 0 0
vt 0 0
vt 0 0
vt 0 0
vt 0 0
vt 0 0
vt 0 0
vt 0 0
vt 0 0
vt 0 0
vt 0 0
vt 0 0
vt 0 0
vt 0 0
vt 0 0
vt 0 0
vt 0 0
vt 0 0
vt 0 0
vt 0 0
vt 0 0
vt 0 0
vt 0 0
vt 0 0
vt 0 0
vt 0 0
vt 0 0
vn 0.001953725 -0.01292175 -0.9999146
vn 0.001953725 -0.01292175 -0.9999146
vn 0.001953725 -0.01292175 -0.9999146
vn 0.001953725 -0.01292175 -0.9999146
vn 0 0 -1
vn 0 0 -1
vn 0 0 -1
vn 0 0 -1
vn -0.001953775 0.01292176 0.9999146
vn -0.001953775 0.01292176 0.9999146
vn -0.001953775 0.01292176 0.9999146
vn -0.001953775 0.01292176 0.9999146
vn 0 0 1
vn 0 0 1
vn 0 0 1
vn 0 0 1
vn 0.9990999 0.04241974 0
vn 0.9990999 0.04241974 0
vn 0.9990999 0.04241974 0
vn 0.9990999 0.04241974 0
vn -0.1323829 -0.9911986 0
vn -0.1323829 -0.9911986 0
vn -0.1323829 -0.9911986 0
vn -0.1323829 -0.9911986 0
vn -0.9991265 -0.04178752 0
vn -0.9991265 -0.04178752 0
vn -0.9991265 -0.04178752 0
vn -0.9991265 -0.04178752 0
vn 0.6895101 0.7242761 0
vn 0.6895101 0.7242761 0
vn 0.6895101 0.7242761 0
vn 0.6895101 0.7242761 0
vn -0.2247391 0.9744189 0
vn -0.2247391 0.9744189 0
vn -0.2247391 0.9744189 0
vn -0.2247391 0.9744189 0
vn 0.9995433 0.03021839 0
vn 0.9995433 0.03021839 0
vn 0.9995433 0.03021839 0
vn 0.9995433 0.03021839 0
vn 0 0 -1
vn 0 0 -1
vn 0 0 -1
vn 0 0 -1
vn 0 0 1
vn 0 0 1
vn 0 0 1
vn 0 0 1
vn -0.4099238 -0.9121197 0
vn -0.4099238 -0.9121197 0
vn -0.4099238 -0.9121197 0
vn -0.4099238 -0.9121197 0
vn 0.2221644 0.9750093 0
vn 0.2221644 0.9750093 0
vn 0.2221644 0.9750093 0
vn 0.2221644 0.9750093 0
vn 0.9968143 0.07975662 0
vn 0.9968143 0.07975662 0
vn 0.9968143 0.07975662 0
vn 0.9968143 0.07975662 0
vn -0.9954754 0.09501969 0
vn -0.9954754 0.09501969 0
vn -0.9954754 0.09501969 0
vn -0.9954754 0.09501969 0
vn -0.9959991 0.08936322 0
vn -0.9959991 0.08936322 0
vn -0.9959991 0.08936322 0
vn -0.9959991 0.08936322 0
vn 0.02751216 -0.9996215 0
vn 0.02751216 -0.9996215 0
vn 0.02751216 -0.9996215 0
vn 0.02751216 -0.9996215 0
vn 0 0 -1
vn 0 0 -1
vn 0 0 -1
vn 0 0 -1
vn 0 0 1
vn 0 0 1
vn 0 0 1
vn 0 0 1
vn -0.9998977 -0.0143068 0
vn -0.9998977 -0.0143068 0
vn -0.9998977 -0.0143068 0
vn -0.9998977 -0.0143068 0
vn 0.9958075 -0.09147279 0
vn 0.9958075 -0.09147279 0
vn 0.9958075 -0.09147279 0
vn 0.9958075 -0.09147279 0
vn 0.1617922 -0.9868248 0
vn 0.1617922 -0.9868248 0
vn 0.1617922 -0.9868248 0
vn 0.1617922 -0.9868248 0
vn -0.3564374 0.9343191 0
vn -0.3564374 0.9343191 0
vn -0.3564374 0.9343191 0
vn -0.3564374 0.9343191 0
vn 0 0 -1
vn 0 0 -1
vn 0 0 -1
vn 0 0 -1
vn 0 0 1
vn 0 0 1
vn 0 0 1
vn 0 0 1
vn -0.995985 -0.0895208 0
vn -0.995985 -0.0895208 0
vn -0.995985 -0.0895208 0
vn -0.995985 -0.0895208 0
vn 0.9728839 0.2312938 0
vn 0.9728839 0.2312938 0
vn 0.9728839 0.2312938 0
vn 0.9728839 0.2312938 0
vn 0.161792 -0.9868249 0
vn 0.161792 -0.9868249 0
vn 0.161792 -0.9868249 0
vn 0.161792 -0.9868249 0
vn -0.3564375 0.9343191 0
vn -0.3564375 0.9343191 0
vn -0.3564375 0.9343191 0
vn -0.3564375 0.9343191 0
g Field Ruins_0
f 3/3/3 2/2/2 1/1/1
f 4/4/4 3/3/3 1/1/1
f 7/7/7 6/6/6 5/5/5
f 8/8/8 7/7/7 5/5/5
f 11/11/11 10/10/10 9/9/9
f 12/12/12 11/11/11 9/9/9
f 15/15/15 14/14/14 13/13/13
f 16/16/16 15/15/15 13/13/13
f 19/19/19 18/18/18 17/17/17
f 20/20/20 19/19/19 17/17/17
f 23/23/23 22/22/22 21/21/21
f 24/24/24 23/23/23 21/21/21
f 27/27/27 26/26/26 25/25/25
f 28/28/28 27/27/27 25/25/25
f 31/31/31 30/30/30 29/29/29
f 32/32/32 31/31/31 29/29/29
f 35/35/35 34/34/34 33/33/33
f 36/36/36 35/35/35 33/33/33
f 39/39/39 38/38/38 37/37/37
f 40/40/40 39/39/39 37/37/37
f 43/43/43 42/42/42 41/41/41
f 44/44/44 43/43/43 41/41/41
f 47/47/47 46/46/46 45/45/45
f 48/48/48 47/47/47 45/45/45
f 51/51/51 50/50/50 49/49/49
f 52/52/52 51/51/51 49/49/49
f 55/55/55 54/54/54 53/53/53
f 56/56/56 55/55/55 53/53/53
f 59/59/59 58/58/58 57/57/57
f 60/60/60 59/59/59 57/57/57
f 63/63/63 62/62/62 61/61/61
f 64/64/64 63/63/63 61/61/61
f 67/67/67 66/66/66 65/65/65
f 68/68/68 67/67/67 65/65/65
f 71/71/71 70/70/70 69/69/69
f 72/72/72 71/71/71 69/69/69
f 75/75/75 74/74/74 73/73/73
f 76/76/76 75/75/75 73/73/73
f 79/79/79 78/78/78 77/77/77
f 80/80/80 79/79/79 77/77/77
f 83/83/83 82/82/82 81/81/81
f 84/84/84 83/83/83 81/81/81
f 87/87/87 86/86/86 85/85/85
f 88/88/88 87/87/87 85/85/85
f 91/91/91 90/90/90 89/89/89
f 92/92/92 91/91/91 89/89/89
f 95/95/95 94/94/94 93/93/93
f 96/96/96 95/95/95 93/93/93
f 99/99/99 98/98/98 97/97/97
f 100/100/100 99/99/99 97/97/97
f 103/103/103 102/102/102 101/101/101
f 104/104/104 103/103/103 101/101/101
f 107/107/107 106/106/106 105/105/105
f 108/108/108 107/107/107 105/105/105
f 111/111/111 110/110/110 109/109/109
f 112/112/112 111/111/111 109/109/109
f 115/115/115 114/114/114 113/113/113
f 116/116/116 115/115/115 113/113/113
f 119/119/119 118/118/118 117/117/117
f 120/120/120 119/119/119 117/117/117
