g Firewing Head
v 0.2226887 0.1648748 0.09786557
v 0.1414665 0.07962579 0.04028361
v 0.08730477 0.08159731 0.1016893
v 0.1665773 0.06636116 -0.07417743
v 0.1367812 0.1780915 0.2018133
v -0.0006173212 0.1811706 0.4839194
v -0.0006183239 0.0801525 0.2855528
v -0.1380159 0.1780915 0.2018133
v -0.1171957 0.3363751 0.08837731
v -0.08854143 0.08159731 0.1016893
v -0.1427032 0.07962579 0.04028361
v -0.2239234 0.1648748 0.09786557
v -0.0006172516 0.3468871 0.2902626
v -0.2666791 0.1333382 -0.08833259
v -0.167814 0.06636116 -0.07417743
v -0.1787286 0.04531398 -0.2096235
v -0.2839992 0.09958725 -0.3096803
v -0.1663334 0.02975504 -0.2887219
v -0.2334419 0.2674042 -0.1804732
v -0.1919627 0.3101588 -0.01164268
v -0.2641566 0.0779198 -0.4464637
v -0.248528 0.2374942 -0.382614
v -0.1729511 0.4033073 -0.3039915
v -0.1345195 0.4713438 -0.2640178
v -0.1594946 0.05575639 -0.5181544
v -0.1024184 0.01482794 -0.3263604
v -0.0006173212 0.04313945 -0.8417001
v -0.0006183239 0.006020712 -0.4983357
v 0.15826 0.05575639 -0.5181544
v 0.1011817 0.01482794 -0.3263604
v 0.262922 0.0779198 -0.4464637
v 0.1650967 0.02975504 -0.2887219
v 0.1774919 0.04531398 -0.2096235
v 0.2827646 0.09958725 -0.3096803
v 0.2297583 0.2230275 -0.5181718
v 0.1338789 0.2059444 -0.5980523
v -0.0006172516 0.196936 -0.9834252
v -0.1351134 0.2059444 -0.5980523
v 0.2654445 0.1333382 -0.08833259
v 0.08292226 0.413642 -0.5875831
v 0.2472935 0.2374942 -0.382614
v 0.1907282 0.3101588 -0.01164268
v -0.2309928 0.2230275 -0.5181718
v -0.1615888 0.4267013 -0.4204998
v -0.0006172516 0.408544 -0.9528479
v 0.1515197 0.4220418 -0.5243791
v 0.2322074 0.2674042 -0.1804732
v -0.1527542 0.4220418 -0.5243791
v -0.103696 0.5172623 -0.4158506
v -0.08415677 0.413642 -0.5875831
v -0.1073153 0.5068419 -0.5009158
v -0.08335566 0.5092093 -0.1940143
v -0.05920071 0.5595667 -0.4086066
v -0.05946814 0.5352989 -0.531405
v -0.0006172516 0.5399039 -0.8597372
v -0.0006172516 0.5793482 -0.6245155
v -0.0006172516 0.5228847 -0.2168603
v 0.05823363 0.5352989 -0.531405
v 0.05796621 0.5595667 -0.4086066
v 0.08212116 0.5092093 -0.1940143
v 0.1159612 0.3363751 0.08837731
v 0.133285 0.4713438 -0.2640178
v 0.1024615 0.5172623 -0.4158506
v 0.1060808 0.5068419 -0.5009158
v 0.1603543 0.4267013 -0.4204998
v 0.1717166 0.4033073 -0.3039915
vn 0.8642546 -0.1813616 0.4692248
vn 0.5405113 -0.7644633 0.351345
vn 0.5501899 -0.7216272 0.4201729
vn 0.5821239 -0.7849076 0.2122537
vn 0.8514767 -0.1399372 0.5053761
vn 0 -0.1060752 0.9943581
vn 0 -0.8966817 0.4426759
vn -0.8514777 -0.1399321 0.505376
vn -0.6455822 0.6504745 0.4001332
vn -0.5501942 -0.7216219 0.4201765
vn -0.5405179 -0.764458 0.3513465
vn -0.8642554 -0.1813578 0.469225
vn 0 0.7994683 0.6007082
vn -0.9373766 -0.2909883 0.1914448
vn -0.5821317 -0.7849019 0.2122541
vn -0.5549398 -0.8206242 0.1364464
vn -0.931066 -0.3632472 0.03416659
vn -0.4263631 -0.9045186 -0.007787263
vn -0.9278464 0.3661486 0.07096615
vn -0.8268765 0.4963672 0.264376
vn -0.8009021 -0.5072095 -0.3182678
vn -0.9521722 0.2969285 -0.0721226
vn -0.8867557 0.461307 0.02933042
vn -0.7849699 0.6097883 0.1094552
vn -0.5564431 -0.7386835 -0.3804181
vn -0.2847394 -0.9518278 -0.1137857
vn 0 -0.71664 -0.6974433
vn 0 -0.9935682 -0.1132349
vn 0.556442 -0.7386849 -0.3804169
vn 0.2847375 -0.9518287 -0.1137836
vn 0.8009015 -0.507211 -0.3182667
vn 0.4263581 -0.904521 -0.007785695
vn 0.5549325 -0.8206292 0.1364469
vn 0.9310646 -0.3632511 0.03416758
vn 0.8469166 0.1033385 -0.5215873
vn 0.8369355 -0.03118817 -0.5464122
vn 0 0.03448164 -0.9994053
vn -0.8369355 -0.03118781 -0.5464122
vn 0.9373749 -0.2909931 0.1914454
vn 0.8447195 0.2575284 -0.4691781
vn 0.9521722 0.296928 -0.07212254
vn 0.8268768 0.4963669 0.2643761
vn -0.8469166 0.1033388 -0.5215874
vn -0.8862844 0.4601074 -0.05292498
vn 0 0.5555234 -0.8315009
vn 0.7960589 0.4026268 -0.4518649
vn 0.9278466 0.3661483 0.07096619
vn -0.796059 0.4026268 -0.4518649
vn -0.7498929 0.6611505 -0.02325235
vn -0.8447195 0.2575283 -0.4691781
vn -0.7285026 0.6096504 -0.3124268
vn -0.4883869 0.8307608 0.2670481
vn -0.3436233 0.9359753 0.07663745
vn -0.7584139 0.6026893 -0.2481411
vn 0 0.8087188 -0.5881954
vn 0 0.9910331 -0.1336165
vn 0 0.9667659 0.2556632
vn 0.7584138 0.6026893 -0.2481412
vn 0.3436233 0.9359753 0.0766374
vn 0.4883869 0.8307607 0.2670481
vn 0.6455823 0.6504743 0.4001333
vn 0.7849699 0.6097884 0.1094551
vn 0.7498929 0.6611506 -0.02325242
vn 0.7285025 0.6096504 -0.3124268
vn 0.8862844 0.4601074 -0.05292499
vn 0.8867557 0.461307 0.02933037
g Firewing Head_0
f 3/3/3 2/2/2 1/1/1
f 1/1/1 2/2/2 4/4/4
f 5/5/5 3/3/3 1/1/1
f 3/3/3 5/5/5 6/6/6
f 7/7/7 3/3/3 6/6/6
f 7/7/7 6/6/6 8/8/8
f 8/8/8 6/6/6 9/9/9
f 10/10/10 7/7/7 8/8/8
f 10/10/10 8/8/8 11/11/11
f 8/8/8 12/12/12 11/11/11
f 8/8/8 9/9/9 12/12/12
f 6/6/6 5/5/5 13/13/13
f 6/6/6 13/13/13 9/9/9
f 12/12/12 14/14/14 11/11/11
f 14/14/14 15/15/15 11/11/11
f 15/15/15 14/14/14 16/16/16
f 14/14/14 17/17/17 16/16/16
f 16/16/16 17/17/17 18/18/18
f 19/19/19 14/14/14 12/12/12
f 14/14/14 19/19/19 17/17/17
f 9/9/9 20/20/20 12/12/12
f 20/20/20 19/19/19 12/12/12
f 17/17/17 21/21/21 18/18/18
f 19/19/19 22/22/22 17/17/17
f 17/17/17 22/22/22 21/21/21
f 19/19/19 20/20/20 23/23/23
f 22/22/22 19/19/19 23/23/23
f 24/24/24 20/20/20 9/9/9
f 20/20/20 24/24/24 23/23/23
f 21/21/21 25/25/25 18/18/18
f 25/25/25 26/26/26 18/18/18
f 25/25/25 27/27/27 26/26/26
f 27/27/27 28/28/28 26/26/26
f 27/27/27 29/29/29 28/28/28
f 29/29/29 30/30/30 28/28/28
f 29/29/29 31/31/31 30/30/30
f 31/31/31 32/32/32 30/30/30
f 33/33/33 32/32/32 31/31/31
f 34/34/34 33/33/33 31/31/31
f 4/4/4 33/33/33 34/34/34
f 35/35/35 31/31/31 29/29/29
f 34/34/34 31/31/31 35/35/35
f 36/36/36 29/29/29 27/27/27
f 36/36/36 35/35/35 29/29/29
f 37/37/37 27/27/27 25/25/25
f 37/37/37 36/36/36 27/27/27
f 38/38/38 25/25/25 21/21/21
f 38/38/38 37/37/37 25/25/25
f 39/39/39 4/4/4 34/34/34
f 39/39/39 1/1/1 4/4/4
f 36/36/36 37/37/37 40/40/40
f 35/35/35 36/36/36 40/40/40
f 41/41/41 34/34/34 35/35/35
f 39/39/39 34/34/34 41/41/41
f 42/42/42 1/1/1 39/39/39
f 5/5/5 1/1/1 42/42/42
f 43/43/43 38/38/38 21/21/21
f 22/22/22 43/43/43 21/21/21
f 22/22/22 44/44/44 43/43/43
f 44/44/44 22/22/22 23/23/23
f 37/37/37 38/38/38 45/45/45
f 37/37/37 45/45/45 40/40/40
f 46/46/46 35/35/35 40/40/40
f 41/41/41 35/35/35 46/46/46
f 47/47/47 39/39/39 41/41/41
f 47/47/47 42/42/42 39/39/39
f 43/43/43 48/48/48 38/38/38
f 44/44/44 48/48/48 43/43/43
f 49/49/49 44/44/44 23/23/23
f 24/24/24 49/49/49 23/23/23
f 48/48/48 50/50/50 38/38/38
f 38/38/38 50/50/50 45/45/45
f 48/48/48 44/44/44 51/51/51
f 44/44/44 49/49/49 51/51/51
f 50/50/50 48/48/48 51/51/51
f 49/49/49 24/24/24 52/52/52
f 52/52/52 24/24/24 9/9/9
f 49/49/49 53/53/53 51/51/51
f 53/53/53 49/49/49 52/52/52
f 54/54/54 50/50/50 51/51/51
f 53/53/53 54/54/54 51/51/51
f 45/45/45 50/50/50 55/55/55
f 50/50/50 54/54/54 55/55/55
f 54/54/54 53/53/53 56/56/56
f 56/56/56 53/53/53 52/52/52
f 55/55/55 54/54/54 56/56/56
f 57/57/57 52/52/52 9/9/9
f 57/57/57 56/56/56 52/52/52
f 13/13/13 57/57/57 9/9/9
f 45/45/45 55/55/55 58/58/58
f 40/40/40 45/45/45 58/58/58
f 40/40/40 58/58/58 46/46/46
f 55/55/55 56/56/56 59/59/59
f 56/56/56 57/57/57 59/59/59
f 58/58/58 55/55/55 59/59/59
f 57/57/57 13/13/13 60/60/60
f 57/57/57 60/60/60 59/59/59
f 13/13/13 61/61/61 60/60/60
f 5/5/5 61/61/61 13/13/13
f 61/61/61 5/5/5 42/42/42
f 60/60/60 61/61/61 42/42/42
f 62/62/62 60/60/60 42/42/42
f 59/59/59 60/60/60 62/62/62
f 42/42/42 47/47/47 62/62/62
f 59/59/59 63/63/63 58/58/58
f 63/63/63 59/59/59 62/62/62
f 58/58/58 64/64/64 46/46/46
f 63/63/63 64/64/64 58/58/58
f 46/46/46 64/64/64 63/63/63
f 65/65/65 46/46/46 63/63/63
f 63/63/63 62/62/62 65/65/65
f 65/65/65 41/41/41 46/46/46
f 41/41/41 65/65/65 47/47/47
f 62/62/62 66/66/66 65/65/65
f 65/65/65 66/66/66 47/47/47
f 47/47/47 66/66/66 62/62/62
