g Firewing Body
v 0.207334 0.04749449 0.1085097
v 0.08730477 0.08159731 0.1016893
v 0.1414665 0.07962579 0.04028361
v 0.1665773 0.06636116 -0.07417743
v 0.2416022 0.0341539 -0.04409907
v 0.1774919 0.04531398 -0.2096235
v 0.1303231 0.04689075 0.1897759
v 0.3357905 -0.1131489 0.2566901
v -0.0006178848 0.04305694 0.449839
v -0.0006183239 0.0801525 0.2855528
v -0.1315589 0.04689075 0.1897759
v -0.08854143 0.08159731 0.1016893
v -0.1427032 0.07962579 0.04028361
v 0.2551986 0.008117236 -0.22197
v 0.3843516 -0.117916 0.05110148
v 0.2364797 -0.01301489 -0.3270911
v 0.1650967 0.02975504 -0.2887219
v 0.1011817 0.01482794 -0.3263604
v 0.1468555 -0.03232303 -0.3749074
v -0.0006183239 0.006020712 -0.4983357
v 0.3678819 -0.1764833 -0.3208462
v -0.0006178848 -0.04396953 -0.5863901
v -0.1024184 0.01482794 -0.3263604
v 0.3997633 -0.1468368 -0.1802624
v 0.2337487 -0.2006896 -0.3780703
v -0.1480913 -0.03232304 -0.3749074
v -0.1663334 0.02975504 -0.2887219
v 0.4541158 -0.3536236 -0.08964591
v 0.4109238 -0.3733879 -0.2274145
v -0.0006172516 -0.2160874 -0.5982638
v -0.2377154 -0.01301489 -0.3270911
v -0.2349832 -0.2006896 -0.3780703
v -0.2662646 -0.3884228 -0.2778856
v -0.0006172516 -0.3986488 -0.4300379
v 0.2650301 -0.3884228 -0.2778856
v 0.2361497 -0.5831361 -0.2216715
v -0.2564344 0.008117244 -0.22197
v -0.4009978 -0.1468368 -0.1802624
v -0.1787286 0.04531398 -0.2096235
v -0.167814 0.06636116 -0.07417743
v -0.3691164 -0.1764833 -0.3208462
v -0.242838 0.0341539 -0.04409907
v -0.2085697 0.04749449 0.1085097
v -0.4121583 -0.3733879 -0.2274145
v -0.4123863 -0.5911268 -0.1779497
v -0.3855861 -0.117916 0.05110148
v -0.218697 -0.1237858 0.3643301
v -0.4553503 -0.3536236 -0.08964591
v -0.4484376 -0.3413642 0.1014613
v -0.337025 -0.1131489 0.2566901
v -0.0006172516 -0.1347477 0.770609
v 0.2174625 -0.1237858 0.3643301
v 0.3968427 -0.3488535 0.2736558
v 0.2615332 -0.3636052 0.3625639
v -0.0006172516 -0.3754741 0.7553427
v -0.2627677 -0.3636052 0.3625639
v -0.3980772 -0.3488535 0.2736558
v -0.6387638 -0.5864949 0.09832682
v -0.4086394 -0.5910183 0.2311013
v -0.6989603 -0.8202142 0.05303333
v -0.6398295 -0.5901737 -0.06344394
v -0.2463266 -0.5914182 0.2971552
v -0.0006172516 -0.5891954 0.6269332
v -0.1663366 -0.7213485 0.2334624
v 0.245092 -0.5914182 0.2971552
v -0.2524395 -0.7883557 0.1695696
v -0.0006172516 -0.7474545 0.4569217
v -0.0006172516 -0.8288884 0.348208
v 0.2512049 -0.7883557 0.1695696
v 0.1651021 -0.7213485 0.2334624
v 0.4074049 -0.5910183 0.2311013
v 0.4472031 -0.3413642 0.1014613
v 0.637529 -0.5864949 0.09832682
v 0.6385946 -0.5901737 -0.06344394
v -0.0006172516 -1.041736 0.1342548
v 0.6977247 -0.8202142 0.05303333
v 0.6873706 -0.8216001 -0.07804009
v 0.4111518 -0.5911268 -0.1779497
v 0.2308851 -0.7853196 -0.1726692
v -0.0006172516 -1.041505 -0.07552537
v -0.0006172516 -0.8169555 -0.2273206
v -0.6886062 -0.8216001 -0.07804009
v -0.2321196 -0.7853196 -0.1726692
v -0.1512994 -0.7150366 -0.1990708
v -0.0006172516 -0.7412779 -0.2625565
v 0.1500649 -0.7150366 -0.1990708
v -0.0006172516 -0.5772015 -0.3286052
v -0.2373842 -0.5831361 -0.2216715
vn 0.4853256 0.8443679 0.2269405
vn 0.2937636 0.9313014 0.2153618
vn 0.3506148 0.9315676 0.09618315
vn 0.418854 0.9063382 -0.05578855
vn 0.5858002 0.8104357 -0.005661884
vn 0.409781 0.8970434 -0.1655074
vn 0.4235152 0.8472549 0.320615
vn 0.7186306 0.5015538 0.4816782
vn 0 0.9073811 0.4203087
vn 0 0.9777655 0.209701
vn -0.4235173 0.8472533 0.3206165
vn -0.2937655 0.9313005 0.2153633
vn -0.3506179 0.9315663 0.09618394
vn 0.5998001 0.7801298 -0.1778689
vn 0.8595982 0.5018517 0.09610405
vn 0.4827527 0.6371419 -0.6008329
vn 0.2831598 0.8570243 -0.4304996
vn 0.3318684 0.795992 -0.5062214
vn 0.4913672 0.5586359 -0.6681948
vn 0 0.8988008 -0.4383574
vn 0.7202944 0.1486113 -0.6775622
vn 0 0.5611164 -0.8277369
vn -0.33187 0.7959898 -0.5062239
vn 0.892531 0.4229014 -0.1566616
vn 0.533447 -0.1147443 -0.8380143
vn -0.4913694 0.5586323 -0.6681961
vn -0.2831626 0.8570232 -0.4304999
vn 0.9117063 0.3135871 -0.2654331
vn 0.66557 -0.07961006 -0.7420774
vn 0 -0.1158397 -0.993268
vn -0.4827548 0.6371397 -0.6008334
vn -0.5334474 -0.1147462 -0.8380138
vn -0.3996156 -0.3593216 -0.843324
vn 0 -0.4947863 -0.8690147
vn 0.3996156 -0.3593216 -0.843324
vn 0.3090253 -0.3030223 -0.9014882
vn -0.5998034 0.7801273 -0.1778688
vn -0.8925319 0.4228995 -0.1566613
vn -0.409785 0.8970417 -0.1655072
vn -0.4188578 0.9063365 -0.05578789
vn -0.7202949 0.1486095 -0.6775622
vn -0.5858036 0.8104332 -0.005661141
vn -0.4853279 0.8443661 0.2269416
vn -0.6655698 -0.07961004 -0.7420775
vn -0.3859113 -0.08121484 -0.9189541
vn -0.8595991 0.5018499 0.0961044
vn -0.6945437 0.447287 0.56351
vn -0.9117062 0.3135873 -0.2654333
vn -0.8933977 0.3640129 0.2633157
vn -0.718631 0.5015528 0.4816787
vn 0 0.4653592 0.8851219
vn 0.6945429 0.4472885 0.5635097
vn 0.7175018 0.1188576 0.686341
vn 0.7029504 -0.07212029 0.7075729
vn 0 -0.1467457 0.9891742
vn -0.7029504 -0.07212032 0.7075729
vn -0.7175017 0.1188577 0.6863411
vn -0.8430174 0.2128075 0.4939987
vn -0.4787675 -0.1797147 0.8593512
vn -0.7847763 -0.4814952 0.3902416
vn -0.8218335 0.2881109 -0.4915097
vn -0.5569818 -0.4183355 0.7174724
vn 0 -0.5717025 0.820461
vn -0.568801 -0.4789494 0.6686352
vn 0.5569819 -0.4183355 0.7174724
vn -0.3710592 -0.4374378 0.8191234
vn 0 -0.6917157 0.7221699
vn 0 -0.4879436 0.8728751
vn 0.3710595 -0.4374381 0.8191232
vn 0.5688009 -0.4789495 0.6686353
vn 0.4787678 -0.1797149 0.8593509
vn 0.8933979 0.3640125 0.2633156
vn 0.843018 0.2128064 0.4939981
vn 0.8218343 0.2881096 -0.4915091
vn 0 -0.8704183 0.4923127
vn 0.7847759 -0.4814962 0.3902414
vn 0.7310047 -0.4574476 -0.5063336
vn 0.3859117 -0.08121515 -0.9189539
vn 0.2207673 -0.3312204 -0.917363
vn 0 -0.8842977 -0.4669236
vn 0 -0.3676348 -0.9299703
vn -0.7310053 -0.4574469 -0.5063335
vn -0.2207671 -0.3312201 -0.9173632
vn -0.3093931 -0.2755013 -0.910151
vn 0 -0.3123591 -0.9499642
vn 0.3093932 -0.2755013 -0.910151
vn 0 -0.4102858 -0.911957
vn -0.3090253 -0.3030223 -0.9014882
g Firewing Body_0
f 3/3/3 2/2/2 1/1/1
f 4/4/4 3/3/3 1/1/1
f 5/5/5 4/4/4 1/1/1
f 4/4/4 5/5/5 6/6/6
f 2/2/2 7/7/7 1/1/1
f 5/5/5 1/1/1 8/8/8
f 1/1/1 7/7/7 8/8/8
f 9/9/9 7/7/7 2/2/2
f 10/10/10 9/9/9 2/2/2
f 9/9/9 10/10/10 11/11/11
f 10/10/10 12/12/12 11/11/11
f 12/12/12 13/13/13 11/11/11
f 5/5/5 14/14/14 6/6/6
f 15/15/15 5/5/5 8/8/8
f 5/5/5 15/15/15 14/14/14
f 6/6/6 14/14/14 16/16/16
f 17/17/17 6/6/6 16/16/16
f 18/18/18 17/17/17 16/16/16
f 19/19/19 18/18/18 16/16/16
f 20/20/20 18/18/18 19/19/19
f 16/16/16 14/14/14 21/21/21
f 19/19/19 16/16/16 21/21/21
f 22/22/22 20/20/20 19/19/19
f 20/20/20 22/22/22 23/23/23
f 15/15/15 24/24/24 14/14/14
f 14/14/14 24/24/24 21/21/21
f 22/22/22 19/19/19 25/25/25
f 25/25/25 19/19/19 21/21/21
f 22/22/22 26/26/26 23/23/23
f 23/23/23 26/26/26 27/27/27
f 21/21/21 24/24/24 28/28/28
f 24/24/24 15/15/15 28/28/28
f 21/21/21 29/29/29 25/25/25
f 29/29/29 21/21/21 28/28/28
f 22/22/22 30/30/30 26/26/26
f 30/30/30 22/22/22 25/25/25
f 26/26/26 31/31/31 27/27/27
f 30/30/30 32/32/32 26/26/26
f 26/26/26 32/32/32 31/31/31
f 32/32/32 30/30/30 33/33/33
f 30/30/30 25/25/25 34/34/34
f 30/30/30 34/34/34 33/33/33
f 29/29/29 35/35/35 25/25/25
f 25/25/25 35/35/35 34/34/34
f 34/34/34 35/35/35 36/36/36
f 35/35/35 29/29/29 36/36/36
f 27/27/27 31/31/31 37/37/37
f 37/37/37 31/31/31 38/38/38
f 39/39/39 27/27/27 37/37/37
f 40/40/40 39/39/39 37/37/37
f 32/32/32 41/41/41 31/31/31
f 41/41/41 32/32/32 33/33/33
f 31/31/31 41/41/41 38/38/38
f 42/42/42 40/40/40 37/37/37
f 42/42/42 37/37/37 38/38/38
f 40/40/40 42/42/42 13/13/13
f 42/42/42 43/43/43 13/13/13
f 13/13/13 43/43/43 11/11/11
f 44/44/44 41/41/41 33/33/33
f 41/41/41 44/44/44 38/38/38
f 44/44/44 33/33/33 45/45/45
f 42/42/42 46/46/46 43/43/43
f 46/46/46 42/42/42 38/38/38
f 11/11/11 43/43/43 47/47/47
f 9/9/9 11/11/11 47/47/47
f 44/44/44 48/48/48 38/38/38
f 48/48/48 44/44/44 45/45/45
f 46/46/46 38/38/38 49/49/49
f 38/38/38 48/48/48 49/49/49
f 46/46/46 50/50/50 43/43/43
f 43/43/43 50/50/50 47/47/47
f 50/50/50 46/46/46 49/49/49
f 51/51/51 9/9/9 47/47/47
f 9/9/9 51/51/51 7/7/7
f 51/51/51 52/52/52 7/7/7
f 7/7/7 52/52/52 8/8/8
f 8/8/8 52/52/52 53/53/53
f 8/8/8 53/53/53 15/15/15
f 52/52/52 51/51/51 54/54/54
f 52/52/52 54/54/54 53/53/53
f 51/51/51 47/47/47 55/55/55
f 51/51/51 55/55/55 54/54/54
f 47/47/47 50/50/50 56/56/56
f 47/47/47 56/56/56 55/55/55
f 57/57/57 50/50/50 49/49/49
f 50/50/50 57/57/57 56/56/56
f 57/57/57 49/49/49 58/58/58
f 49/49/49 48/48/48 58/58/58
f 57/57/57 59/59/59 56/56/56
f 59/59/59 57/57/57 58/58/58
f 59/59/59 58/58/58 60/60/60
f 48/48/48 61/61/61 58/58/58
f 58/58/58 61/61/61 60/60/60
f 61/61/61 48/48/48 45/45/45
f 56/56/56 62/62/62 55/55/55
f 59/59/59 62/62/62 56/56/56
f 54/54/54 55/55/55 63/63/63
f 62/62/62 63/63/63 55/55/55
f 62/62/62 59/59/59 64/64/64
f 63/63/63 62/62/62 64/64/64
f 65/65/65 54/54/54 63/63/63
f 53/53/53 54/54/54 65/65/65
f 66/66/66 59/59/59 60/60/60
f 59/59/59 66/66/66 64/64/64
f 67/67/67 63/63/63 64/64/64
f 63/63/63 67/67/67 65/65/65
f 66/66/66 68/68/68 64/64/64
f 68/68/68 66/66/66 60/60/60
f 68/68/68 67/67/67 64/64/64
f 68/68/68 69/69/69 67/67/67
f 67/67/67 70/70/70 65/65/65
f 69/69/69 70/70/70 67/67/67
f 65/65/65 70/70/70 69/69/69
f 71/71/71 53/53/53 65/65/65
f 71/71/71 65/65/65 69/69/69
f 53/53/53 71/71/71 72/72/72
f 53/53/53 72/72/72 15/15/15
f 15/15/15 72/72/72 28/28/28
f 71/71/71 73/73/73 72/72/72
f 71/71/71 69/69/69 73/73/73
f 28/28/28 72/72/72 74/74/74
f 72/72/72 73/73/73 74/74/74
f 28/28/28 74/74/74 29/29/29
f 68/68/68 75/75/75 69/69/69
f 75/75/75 68/68/68 60/60/60
f 69/69/69 76/76/76 73/73/73
f 75/75/75 76/76/76 69/69/69
f 73/73/73 76/76/76 77/77/77
f 76/76/76 75/75/75 77/77/77
f 74/74/74 73/73/73 77/77/77
f 74/74/74 78/78/78 29/29/29
f 29/29/29 78/78/78 36/36/36
f 79/79/79 78/78/78 74/74/74
f 77/77/77 79/79/79 74/74/74
f 78/78/78 79/79/79 36/36/36
f 75/75/75 60/60/60 80/80/80
f 75/75/75 80/80/80 77/77/77
f 79/79/79 77/77/77 81/81/81
f 77/77/77 80/80/80 81/81/81
f 60/60/60 82/82/82 80/80/80
f 61/61/61 82/82/82 60/60/60
f 82/82/82 61/61/61 45/45/45
f 82/82/82 83/83/83 80/80/80
f 83/83/83 81/81/81 80/80/80
f 83/83/83 82/82/82 45/45/45
f 81/81/81 83/83/83 84/84/84
f 83/83/83 45/45/45 84/84/84
f 81/81/81 85/85/85 79/79/79
f 85/85/85 81/81/81 84/84/84
f 79/79/79 86/86/86 36/36/36
f 85/85/85 86/86/86 79/79/79
f 36/36/36 86/86/86 85/85/85
f 87/87/87 36/36/36 85/85/85
f 87/87/87 85/85/85 84/84/84
f 87/87/87 34/34/34 36/36/36
f 34/34/34 87/87/87 33/33/33
f 45/45/45 88/88/88 84/84/84
f 33/33/33 88/88/88 45/45/45
f 88/88/88 87/87/87 84/84/84
f 87/87/87 88/88/88 33/33/33
