g Fire Snail Shell
v -0.1132714 0.2040058 0.8696994
v 0.03099328 0.1442495 0.8696994
v -0.1132714 -1.525714E-05 0.9102817
v -0.1132714 0.3769666 0.7541307
v 0.153295 0.2665511 0.7541307
v 0.09074968 -1.525714E-05 0.8696994
v -0.1132714 -1.525714E-05 0.9102817
v -0.3798378 0.2665511 0.7541307
v -0.2575361 0.1442495 0.8696994
v -0.1132714 -1.525714E-05 0.9102817
v -0.4902533 -1.525714E-05 0.7541307
v -0.3172925 -1.525714E-05 0.8696994
v -0.1132714 -1.525714E-05 0.9102817
v -0.6058218 -1.525714E-05 0.58117
v -0.4615572 0.3482705 0.58117
v -0.6464042 -1.525714E-05 0.3771489
v -0.1132714 0.4925352 0.58117
v -0.4902533 0.3769666 0.3771489
v -0.6058218 -1.525714E-05 0.1731278
v -0.4615572 0.3482705 0.1731278
v -0.4902533 -1.525714E-05 0.000167042
v -0.1132714 0.5331175 0.3771489
v 0.2350144 0.3482706 0.58117
v -0.3798378 0.2665511 0.000167042
v -0.3172925 -1.525714E-05 -0.1154017
v -0.1132714 0.4925352 0.1731278
v -0.2575361 0.1442495 -0.1154017
v -0.1132714 -1.525714E-05 -0.155984
v -0.1132714 0.3769666 0.000167042
v 0.2637105 0.3769666 0.3771489
v 0.2637104 -1.525714E-05 0.7541307
v -0.1132714 0.2040058 -0.1154017
v -0.1132714 -1.525714E-05 -0.155984
v 0.2350144 0.3482706 0.1731278
v 0.3792791 -1.525714E-05 0.58117
v 0.03099328 -0.14428 0.8696994
v -0.1132714 -1.525714E-05 0.9102817
v 0.153295 0.2665511 0.000167042
v 0.4198615 -1.525714E-05 0.3771489
v 0.153295 -0.2665817 0.7541307
v 0.03099328 0.1442495 -0.1154017
v -0.1132714 -1.525714E-05 -0.155984
v 0.3792791 -1.525714E-05 0.1731278
v 0.2350144 -0.348301 0.58117
v -0.1132714 -0.2040364 0.8696994
v -0.1132714 -1.525714E-05 0.9102817
v 0.2637104 -1.525714E-05 0.000167042
v 0.2637104 -0.3769971 0.3771489
v -0.1132714 -0.3769971 0.7541307
v 0.09074968 -1.525714E-05 -0.1154017
v -0.1132714 -1.525714E-05 -0.155984
v 0.2350144 -0.348301 0.1731278
v -0.1132714 -0.4925657 0.58117
v -0.2575361 -0.14428 0.8696994
v -0.1132714 -1.525714E-05 0.9102817
v 0.153295 -0.2665817 0.000167042
v -0.1132714 -0.5331481 0.3771489
v -0.3798378 -0.2665817 0.7541307
v -0.3172925 -1.525714E-05 0.8696994
v -0.1132714 -1.525714E-05 0.9102817
v -0.4902533 -1.525714E-05 0.7541307
v -0.4615572 -0.348301 0.58117
v -0.6058218 -1.525714E-05 0.58117
v -0.4902533 -0.3769971 0.3771489
v -0.6464042 -1.525714E-05 0.3771489
v -0.1132714 -0.4925657 0.1731278
v -0.4615572 -0.348301 0.1731278
v -0.6058218 -1.525714E-05 0.1731278
v -0.1132714 -0.3769971 0.000167042
v -0.3798378 -0.2665817 0.000167042
v -0.4902533 -1.525714E-05 0.000167042
v 0.03099328 -0.14428 -0.1154017
v -0.1132714 -1.525714E-05 -0.155984
v -0.1132714 -0.2040364 -0.1154017
v -0.1132714 -1.525714E-05 -0.155984
v -0.2575361 -0.14428 -0.1154017
v -0.1132714 -1.525714E-05 -0.155984
v -0.3172925 -1.525714E-05 -0.1154017
v -0.1132714 -1.525714E-05 -0.155984
v 0.6091877 0.2823463 1.05883
v 0.8088474 0.1996445 1.05883
v 0.6091877 -1.525723E-05 1.114995
v 0.6091877 0.5217209 0.8988851
v 0.9781109 0.3689079 0.8988851
v 0.8915492 -1.525723E-05 1.05883
v 0.6091877 -1.525723E-05 1.114995
v 0.2402645 0.3689079 0.8988851
v 0.4095279 0.1996445 1.05883
v 0.6091877 -1.525723E-05 1.114995
v 0.08745155 -1.525723E-05 0.8988851
v 0.3268261 -1.525723E-05 1.05883
v 0.6091877 -1.525723E-05 1.114995
v -0.07249334 -1.525723E-05 0.6595105
v 0.1271664 0.482006 0.6595105
v -0.1286586 -1.525723E-05 0.3771489
v 0.6091877 0.6816658 0.6595105
v 0.08745155 0.5217209 0.3771489
v -0.07249334 -1.525723E-05 0.0947873
v 0.1271664 0.482006 0.0947873
v 0.08745155 -1.525723E-05 -0.1445873
v 0.6091877 0.7378311 0.3771489
v 1.091209 0.4820061 0.6595105
v 0.2402645 0.3689079 -0.1445873
v 0.3268261 -1.525723E-05 -0.3045323
v 0.6091877 0.6816658 0.0947873
v 0.4095279 0.1996445 -0.3045323
v 0.6091877 -1.525723E-05 -0.3606975
v 0.6091877 0.5217209 -0.1445873
v 1.130924 0.5217209 0.3771489
v 1.130924 -1.525723E-05 0.8988851
v 0.6091877 0.2823463 -0.3045323
v 0.6091877 -1.525723E-05 -0.3606975
v 1.091209 0.4820061 0.0947873
v 1.290869 -1.525723E-05 0.6595105
v 0.8088474 -0.1996751 1.05883
v 0.6091877 -1.525723E-05 1.114995
v 0.9781109 0.3689079 -0.1445873
v 1.347034 -1.525723E-05 0.3771489
v 0.9781109 -0.3689384 0.8988851
v 0.8088474 0.1996445 -0.3045323
v 0.6091877 -1.525723E-05 -0.3606975
v 1.290869 -1.525723E-05 0.0947873
v 1.091209 -0.4820366 0.6595105
v 0.6091877 -0.2823768 1.05883
v 0.6091877 -1.525723E-05 1.114995
v 1.130924 -1.525723E-05 -0.1445873
v 1.130924 -0.5217514 0.3771489
v 0.6091877 -0.5217514 0.8988851
v 0.8915492 -1.525723E-05 -0.3045323
v 0.6091877 -1.525723E-05 -0.3606975
v 1.091209 -0.4820366 0.0947873
v 0.6091877 -0.6816963 0.6595105
v 0.4095279 -0.1996751 1.05883
v 0.6091877 -1.525723E-05 1.114995
v 0.9781109 -0.3689384 -0.1445873
v 0.6091877 -0.7378616 0.3771489
v 0.2402645 -0.3689384 0.8988851
v 0.3268261 -1.525723E-05 1.05883
v 0.6091877 -1.525723E-05 1.114995
v 0.08745155 -1.525723E-05 0.8988851
v 0.1271664 -0.4820366 0.6595105
v -0.07249334 -1.525723E-05 0.6595105
v 0.08745155 -0.5217514 0.3771489
v -0.1286586 -1.525723E-05 0.3771489
v 0.6091877 -0.6816963 0.0947873
v 0.1271664 -0.4820366 0.0947873
v -0.07249334 -1.525723E-05 0.0947873
v 0.6091877 -0.5217514 -0.1445873
v 0.2402645 -0.3689384 -0.1445873
v 0.08745155 -1.525723E-05 -0.1445873
v 0.8088474 -0.1996751 -0.3045323
v 0.6091877 -1.525723E-05 -0.3606975
v 0.6091877 -0.2823768 -0.3045323
v 0.6091877 -1.525723E-05 -0.3606975
v 0.4095279 -0.1996751 -0.3045323
v 0.6091877 -1.525723E-05 -0.3606975
v 0.3268261 -1.525723E-05 -0.3045323
v 0.6091877 -1.525723E-05 -0.3606975
vt 0.75 0.875
vt 0.625 0.875
vt 0.6875 1
vt 0.75 0.75
vt 0.625 0.75
vt 0.5 0.875
vt 0.5625 1
vt 0.875 0.75
vt 0.875 0.875
vt 0.8125 1
vt 1 0.75
vt 1 0.875
vt 0.9375 1
vt 1 0.6250001
vt 0.875 0.6250001
vt 1 0.5
vt 0.75 0.6250001
vt 0.875 0.5
vt 1 0.375
vt 0.875 0.375
vt 1 0.25
vt 0.75 0.5
vt 0.625 0.6250001
vt 0.875 0.25
vt 1 0.125
vt 0.75 0.375
vt 0.875 0.1250001
vt 0.9375 5.960464E-08
vt 0.75 0.25
vt 0.625 0.5
vt 0.5 0.75
vt 0.75 0.125
vt 0.8125 5.960464E-08
vt 0.625 0.375
vt 0.5 0.6250001
vt 0.375 0.875
vt 0.4375 1
vt 0.625 0.25
vt 0.5 0.5
vt 0.375 0.75
vt 0.625 0.1250001
vt 0.6875 5.960464E-08
vt 0.5 0.375
vt 0.375 0.6250001
vt 0.25 0.875
vt 0.3125 1
vt 0.5 0.25
vt 0.375 0.5
vt 0.25 0.75
vt 0.5 0.125
vt 0.5625 5.960464E-08
vt 0.375 0.375
vt 0.25 0.6250001
vt 0.125 0.875
vt 0.1875 1
vt 0.375 0.25
vt 0.25 0.5
vt 0.125 0.75
vt 0 0.875
vt 0.06250003 1
vt 0 0.75
vt 0.125 0.6250001
vt 0 0.6250001
vt 0.125 0.5
vt 0 0.5
vt 0.25 0.375
vt 0.125 0.375
vt 0 0.375
vt 0.25 0.25
vt 0.125 0.25
vt 0 0.25
vt 0.375 0.1250001
vt 0.4375 5.960464E-08
vt 0.25 0.125
vt 0.3125 5.960464E-08
vt 0.125 0.1250001
vt 0.1875 5.960464E-08
vt 0 0.125
vt 0.06250003 5.960464E-08
vt 0.75 0.875
vt 0.625 0.875
vt 0.6875 1
vt 0.75 0.75
vt 0.625 0.75
vt 0.5 0.875
vt 0.5625 1
vt 0.875 0.75
vt 0.875 0.875
vt 0.8125 1
vt 1 0.75
vt 1 0.875
vt 0.9375 1
vt 1 0.6250001
vt 0.875 0.6250001
vt 1 0.5
vt 0.75 0.6250001
vt 0.875 0.5
vt 1 0.375
vt 0.875 0.375
vt 1 0.25
vt 0.75 0.5
vt 0.625 0.6250001
vt 0.875 0.25
vt 1 0.125
vt 0.75 0.375
vt 0.875 0.1250001
vt 0.9375 5.960464E-08
vt 0.75 0.25
vt 0.625 0.5
vt 0.5 0.75
vt 0.75 0.125
vt 0.8125 5.960464E-08
vt 0.625 0.375
vt 0.5 0.6250001
vt 0.375 0.875
vt 0.4375 1
vt 0.625 0.25
vt 0.5 0.5
vt 0.375 0.75
vt 0.625 0.1250001
vt 0.6875 5.960464E-08
vt 0.5 0.375
vt 0.375 0.6250001
vt 0.25 0.875
vt 0.3125 1
vt 0.5 0.25
vt 0.375 0.5
vt 0.25 0.75
vt 0.5 0.125
vt 0.5625 5.960464E-08
vt 0.375 0.375
vt 0.25 0.6250001
vt 0.125 0.875
vt 0.1875 1
vt 0.375 0.25
vt 0.25 0.5
vt 0.125 0.75
vt 0 0.875
vt 0.06250003 1
vt 0 0.75
vt 0.125 0.6250001
vt 0 0.6250001
vt 0.125 0.5
vt 0 0.5
vt 0.25 0.375
vt 0.125 0.375
vt 0 0.375
vt 0.25 0.25
vt 0.125 0.25
vt 0 0.25
vt 0.375 0.1250001
vt 0.4375 5.960464E-08
vt 0.25 0.125
vt 0.3125 5.960464E-08
vt 0.125 0.1250001
vt 0.1875 5.960464E-08
vt 0 0.125
vt 0.06250003 5.960464E-08
vn 0 0.4962203 0.8681967
vn 0.3508807 0.3508807 0.8681967
vn 0 0 1
vn 0 0.7562649 0.6542656
vn 0.53476 0.53476 0.6542656
vn 0.4962203 0 0.8681967
vn 0 0 1
vn -0.53476 0.53476 0.6542656
vn -0.3508807 0.3508808 0.8681967
vn 0 0 1
vn -0.7562648 0 0.6542656
vn -0.4962203 0 0.8681967
vn 0 0 1
vn -0.9367894 0 0.3498939
vn -0.6624101 0.6624101 0.3498939
vn -1 0 0
vn 0 0.9367894 0.3498939
vn -0.7071068 0.7071068 0
vn -0.9367894 0 -0.3498938
vn -0.6624101 0.6624101 -0.3498939
vn -0.7562649 0 -0.6542656
vn 0 1 0
vn 0.66241 0.6624101 0.3498939
vn -0.5347599 0.5347601 -0.6542655
vn -0.4962203 0 -0.8681967
vn 0 0.9367894 -0.3498938
vn -0.3508807 0.3508808 -0.8681967
vn 0 0 -1
vn 0 0.7562649 -0.6542655
vn 0.7071068 0.7071067 0
vn 0.7562648 0 0.6542656
vn 0 0.4962204 -0.8681967
vn 0 0 -1
vn 0.66241 0.6624101 -0.3498939
vn 0.9367893 0 0.349894
vn 0.3508807 -0.3508807 0.8681967
vn 0 0 1
vn 0.53476 0.53476 -0.6542656
vn 1 0 0
vn 0.53476 -0.53476 0.6542656
vn 0.3508807 0.3508807 -0.8681967
vn 0 0 -1
vn 0.9367893 0 -0.349894
vn 0.66241 -0.6624101 0.3498939
vn 0 -0.4962203 0.8681967
vn 0 0 1
vn 0.7562649 0 -0.6542656
vn 0.7071068 -0.7071068 0
vn 0 -0.7562648 0.6542656
vn 0.4962203 0 -0.8681967
vn 0 0 -1
vn 0.66241 -0.6624101 -0.3498939
vn 0 -0.9367894 0.3498938
vn -0.3508807 -0.3508807 0.8681967
vn 0 0 1
vn 0.53476 -0.5347601 -0.6542655
vn 0 -1 0
vn -0.53476 -0.53476 0.6542656
vn -0.4962203 0 0.8681967
vn 0 0 1
vn -0.7562648 0 0.6542656
vn -0.6624101 -0.6624101 0.3498939
vn -0.9367894 0 0.3498939
vn -0.7071067 -0.7071068 0
vn -1 0 0
vn 0 -0.9367894 -0.3498938
vn -0.6624101 -0.6624101 -0.3498939
vn -0.9367894 0 -0.3498938
vn 0 -0.7562649 -0.6542655
vn -0.53476 -0.5347601 -0.6542655
vn -0.7562649 0 -0.6542656
vn 0.3508807 -0.3508807 -0.8681967
vn 0 0 -1
vn 0 -0.4962204 -0.8681967
vn 0 0 -1
vn -0.3508807 -0.3508808 -0.8681967
vn 0 0 -1
vn -0.4962203 0 -0.8681967
vn 0 0 -1
vn 0 0.4962202 0.8681967
vn 0.3508806 0.3508806 0.8681967
vn 0 0 1
vn 0 0.7562649 0.6542656
vn 0.5347601 0.5347599 0.6542656
vn 0.49622 0 0.8681967
vn 0 0 1
vn -0.53476 0.53476 0.6542656
vn -0.3508806 0.3508807 0.8681967
vn 0 0 1
vn -0.7562649 0 0.6542655
vn -0.4962201 0 0.8681967
vn 0 0 1
vn -0.9367894 0 0.3498938
vn -0.6624101 0.6624101 0.3498938
vn -1 0 0
vn 0 0.9367894 0.3498938
vn -0.7071067 0.7071068 0
vn -0.9367894 0 -0.3498938
vn -0.6624101 0.6624101 -0.3498938
vn -0.7562649 0 -0.6542655
vn 0 1 0
vn 0.6624101 0.6624101 0.3498939
vn -0.5347599 0.5347601 -0.6542655
vn -0.4962203 0 -0.8681967
vn 0 0.9367894 -0.3498938
vn -0.3508808 0.3508808 -0.8681967
vn 0 0 -1
vn 0 0.7562649 -0.6542656
vn 0.7071068 0.7071068 0
vn 0.7562649 0 0.6542656
vn 0 0.4962204 -0.8681967
vn 0 0 -1
vn 0.6624101 0.6624101 -0.3498939
vn 0.9367894 0 0.3498939
vn 0.3508806 -0.3508806 0.8681967
vn 0 0 1
vn 0.53476 0.53476 -0.6542656
vn 1 0 0
vn 0.5347601 -0.53476 0.6542656
vn 0.3508807 0.3508808 -0.8681967
vn 0 0 -1
vn 0.9367894 0 -0.3498939
vn 0.6624101 -0.6624101 0.3498939
vn 0 -0.4962201 0.8681967
vn 0 0 1
vn 0.7562649 0 -0.6542656
vn 0.7071067 -0.7071068 0
vn 0 -0.7562649 0.6542655
vn 0.4962202 0 -0.8681967
vn 0 0 -1
vn 0.6624101 -0.6624101 -0.3498939
vn 0 -0.9367894 0.3498939
vn -0.3508806 -0.3508806 0.8681967
vn 0 0 1
vn 0.5347599 -0.53476 -0.6542655
vn 0 -1 0
vn -0.53476 -0.53476 0.6542656
vn -0.4962201 0 0.8681967
vn 0 0 1
vn -0.7562649 0 0.6542655
vn -0.6624101 -0.6624101 0.3498938
vn -0.9367894 0 0.3498938
vn -0.7071067 -0.7071068 0
vn -1 0 0
vn 0 -0.9367894 -0.3498939
vn -0.6624101 -0.6624101 -0.3498939
vn -0.9367894 0 -0.3498938
vn 0 -0.7562649 -0.6542656
vn -0.5347599 -0.53476 -0.6542655
vn -0.7562649 0 -0.6542655
vn 0.3508807 -0.3508807 -0.8681967
vn 0 0 -1
vn 0 -0.4962203 -0.8681967
vn 0 0 -1
vn -0.3508807 -0.3508807 -0.8681967
vn 0 0 -1
vn -0.4962203 0 -0.8681967
vn 0 0 -1
g Fire Snail Shell_0
f 3/3/3 2/2/2 1/1/1
f 1/1/1 2/2/2 4/4/4
f 2/2/2 5/5/5 4/4/4
f 2/2/2 6/6/6 5/5/5
f 7/7/7 6/6/6 2/2/2
f 1/1/1 4/4/4 8/8/8
f 9/9/9 1/1/1 8/8/8
f 10/10/10 1/1/1 9/9/9
f 9/9/9 8/8/8 11/11/11
f 12/12/12 9/9/9 11/11/11
f 13/13/13 9/9/9 12/12/12
f 11/11/11 8/8/8 14/14/14
f 8/8/8 15/15/15 14/14/14
f 8/8/8 4/4/4 15/15/15
f 14/14/14 15/15/15 16/16/16
f 4/4/4 17/17/17 15/15/15
f 4/4/4 5/5/5 17/17/17
f 15/15/15 18/18/18 16/16/16
f 15/15/15 17/17/17 18/18/18
f 16/16/16 18/18/18 19/19/19
f 18/18/18 20/20/20 19/19/19
f 19/19/19 20/20/20 21/21/21
f 17/17/17 22/22/22 18/18/18
f 18/18/18 22/22/22 20/20/20
f 5/5/5 23/23/23 17/17/17
f 17/17/17 23/23/23 22/22/22
f 20/20/20 24/24/24 21/21/21
f 21/21/21 24/24/24 25/25/25
f 22/22/22 26/26/26 20/20/20
f 20/20/20 26/26/26 24/24/24
f 24/24/24 27/27/27 25/25/25
f 25/25/25 27/27/27 28/28/28
f 24/24/24 29/29/29 27/27/27
f 26/26/26 29/29/29 24/24/24
f 22/22/22 30/30/30 26/26/26
f 23/23/23 30/30/30 22/22/22
f 5/5/5 31/31/31 23/23/23
f 6/6/6 31/31/31 5/5/5
f 29/29/29 32/32/32 27/27/27
f 27/27/27 32/32/32 33/33/33
f 26/26/26 34/34/34 29/29/29
f 30/30/30 34/34/34 26/26/26
f 23/23/23 35/35/35 30/30/30
f 31/31/31 35/35/35 23/23/23
f 6/6/6 36/36/36 31/31/31
f 37/37/37 36/36/36 6/6/6
f 29/29/29 38/38/38 32/32/32
f 34/34/34 38/38/38 29/29/29
f 30/30/30 39/39/39 34/34/34
f 35/35/35 39/39/39 30/30/30
f 36/36/36 40/40/40 31/31/31
f 31/31/31 40/40/40 35/35/35
f 38/38/38 41/41/41 32/32/32
f 32/32/32 41/41/41 42/42/42
f 34/34/34 43/43/43 38/38/38
f 39/39/39 43/43/43 34/34/34
f 35/35/35 44/44/44 39/39/39
f 40/40/40 44/44/44 35/35/35
f 36/36/36 45/45/45 40/40/40
f 46/46/46 45/45/45 36/36/36
f 38/38/38 47/47/47 41/41/41
f 43/43/43 47/47/47 38/38/38
f 39/39/39 48/48/48 43/43/43
f 44/44/44 48/48/48 39/39/39
f 40/40/40 49/49/49 44/44/44
f 45/45/45 49/49/49 40/40/40
f 47/47/47 50/50/50 41/41/41
f 41/41/41 50/50/50 51/51/51
f 43/43/43 52/52/52 47/47/47
f 48/48/48 52/52/52 43/43/43
f 44/44/44 53/53/53 48/48/48
f 49/49/49 53/53/53 44/44/44
f 45/45/45 54/54/54 49/49/49
f 55/55/55 54/54/54 45/45/45
f 47/47/47 56/56/56 50/50/50
f 52/52/52 56/56/56 47/47/47
f 48/48/48 57/57/57 52/52/52
f 53/53/53 57/57/57 48/48/48
f 49/49/49 58/58/58 53/53/53
f 54/54/54 58/58/58 49/49/49
f 54/54/54 59/59/59 58/58/58
f 60/60/60 59/59/59 54/54/54
f 59/59/59 61/61/61 58/58/58
f 58/58/58 62/62/62 53/53/53
f 58/58/58 61/61/61 62/62/62
f 53/53/53 62/62/62 57/57/57
f 61/61/61 63/63/63 62/62/62
f 62/62/62 63/63/63 64/64/64
f 62/62/62 64/64/64 57/57/57
f 63/63/63 65/65/65 64/64/64
f 57/57/57 66/66/66 52/52/52
f 57/57/57 64/64/64 66/66/66
f 52/52/52 66/66/66 56/56/56
f 64/64/64 65/65/65 67/67/67
f 64/64/64 67/67/67 66/66/66
f 65/65/65 68/68/68 67/67/67
f 66/66/66 69/69/69 56/56/56
f 66/66/66 67/67/67 69/69/69
f 67/67/67 68/68/68 70/70/70
f 67/67/67 70/70/70 69/69/69
f 68/68/68 71/71/71 70/70/70
f 56/56/56 69/69/69 72/72/72
f 56/56/56 72/72/72 50/50/50
f 50/50/50 72/72/72 73/73/73
f 69/69/69 74/74/74 72/72/72
f 69/69/69 70/70/70 74/74/74
f 72/72/72 74/74/74 75/75/75
f 70/70/70 71/71/71 76/76/76
f 70/70/70 76/76/76 74/74/74
f 74/74/74 76/76/76 77/77/77
f 71/71/71 78/78/78 76/76/76
f 76/76/76 78/78/78 79/79/79
f 82/82/82 81/81/81 80/80/80
f 80/80/80 81/81/81 83/83/83
f 81/81/81 84/84/84 83/83/83
f 81/81/81 85/85/85 84/84/84
f 86/86/86 85/85/85 81/81/81
f 80/80/80 83/83/83 87/87/87
f 88/88/88 80/80/80 87/87/87
f 89/89/89 80/80/80 88/88/88
f 88/88/88 87/87/87 90/90/90
f 91/91/91 88/88/88 90/90/90
f 92/92/92 88/88/88 91/91/91
f 90/90/90 87/87/87 93/93/93
f 87/87/87 94/94/94 93/93/93
f 87/87/87 83/83/83 94/94/94
f 93/93/93 94/94/94 95/95/95
f 83/83/83 96/96/96 94/94/94
f 83/83/83 84/84/84 96/96/96
f 94/94/94 97/97/97 95/95/95
f 94/94/94 96/96/96 97/97/97
f 95/95/95 97/97/97 98/98/98
f 97/97/97 99/99/99 98/98/98
f 98/98/98 99/99/99 100/100/100
f 96/96/96 101/101/101 97/97/97
f 97/97/97 101/101/101 99/99/99
f 84/84/84 102/102/102 96/96/96
f 96/96/96 102/102/102 101/101/101
f 99/99/99 103/103/103 100/100/100
f 100/100/100 103/103/103 104/104/104
f 101/101/101 105/105/105 99/99/99
f 99/99/99 105/105/105 103/103/103
f 103/103/103 106/106/106 104/104/104
f 104/104/104 106/106/106 107/107/107
f 103/103/103 108/108/108 106/106/106
f 105/105/105 108/108/108 103/103/103
f 101/101/101 109/109/109 105/105/105
f 102/102/102 109/109/109 101/101/101
f 84/84/84 110/110/110 102/102/102
f 85/85/85 110/110/110 84/84/84
f 108/108/108 111/111/111 106/106/106
f 106/106/106 111/111/111 112/112/112
f 105/105/105 113/113/113 108/108/108
f 109/109/109 113/113/113 105/105/105
f 102/102/102 114/114/114 109/109/109
f 110/110/110 114/114/114 102/102/102
f 85/85/85 115/115/115 110/110/110
f 116/116/116 115/115/115 85/85/85
f 108/108/108 117/117/117 111/111/111
f 113/113/113 117/117/117 108/108/108
f 109/109/109 118/118/118 113/113/113
f 114/114/114 118/118/118 109/109/109
f 115/115/115 119/119/119 110/110/110
f 110/110/110 119/119/119 114/114/114
f 117/117/117 120/120/120 111/111/111
f 111/111/111 120/120/120 121/121/121
f 113/113/113 122/122/122 117/117/117
f 118/118/118 122/122/122 113/113/113
f 114/114/114 123/123/123 118/118/118
f 119/119/119 123/123/123 114/114/114
f 115/115/115 124/124/124 119/119/119
f 125/125/125 124/124/124 115/115/115
f 117/117/117 126/126/126 120/120/120
f 122/122/122 126/126/126 117/117/117
f 118/118/118 127/127/127 122/122/122
f 123/123/123 127/127/127 118/118/118
f 119/119/119 128/128/128 123/123/123
f 124/124/124 128/128/128 119/119/119
f 126/126/126 129/129/129 120/120/120
f 120/120/120 129/129/129 130/130/130
f 122/122/122 131/131/131 126/126/126
f 127/127/127 131/131/131 122/122/122
f 123/123/123 132/132/132 127/127/127
f 128/128/128 132/132/132 123/123/123
f 124/124/124 133/133/133 128/128/128
f 134/134/134 133/133/133 124/124/124
f 126/126/126 135/135/135 129/129/129
f 131/131/131 135/135/135 126/126/126
f 127/127/127 136/136/136 131/131/131
f 132/132/132 136/136/136 127/127/127
f 128/128/128 137/137/137 132/132/132
f 133/133/133 137/137/137 128/128/128
f 133/133/133 138/138/138 137/137/137
f 139/139/139 138/138/138 133/133/133
f 138/138/138 140/140/140 137/137/137
f 137/137/137 141/141/141 132/132/132
f 137/137/137 140/140/140 141/141/141
f 132/132/132 141/141/141 136/136/136
f 140/140/140 142/142/142 141/141/141
f 141/141/141 142/142/142 143/143/143
f 141/141/141 143/143/143 136/136/136
f 142/142/142 144/144/144 143/143/143
f 136/136/136 145/145/145 131/131/131
f 136/136/136 143/143/143 145/145/145
f 131/131/131 145/145/145 135/135/135
f 143/143/143 144/144/144 146/146/146
f 143/143/143 146/146/146 145/145/145
f 144/144/144 147/147/147 146/146/146
f 145/145/145 148/148/148 135/135/135
f 145/145/145 146/146/146 148/148/148
f 146/146/146 147/147/147 149/149/149
f 146/146/146 149/149/149 148/148/148
f 147/147/147 150/150/150 149/149/149
f 135/135/135 148/148/148 151/151/151
f 135/135/135 151/151/151 129/129/129
f 129/129/129 151/151/151 152/152/152
f 148/148/148 153/153/153 151/151/151
f 148/148/148 149/149/149 153/153/153
f 151/151/151 153/153/153 154/154/154
f 149/149/149 150/150/150 155/155/155
f 149/149/149 155/155/155 153/153/153
f 153/153/153 155/155/155 156/156/156
f 150/150/150 157/157/157 155/155/155
f 155/155/155 157/157/157 158/158/158
