g Flying Wizard Cape
v -0.6801955 0.04467309 -1.575141
v -0.3685052 -0.2435111 -2.330236
v -0.6801955 0.04467313 -2.172562
v -0.3463809 -0.2549111 -1.574291
v -0.3412018 -0.2576042 -1.147789
v -0.6801955 0.04467309 -1.15464
v 0 -0.3460591 -1.772386
v -0.6801955 0.05248358 -0.755864
v 0 -0.3454237 -1.573902
v 0.3685052 -0.2435111 -2.330236
v 0.3463809 -0.2549111 -1.574291
v 0.6801955 0.04467313 -2.115901
v 0.6801955 0.04467309 -1.575141
v 0.6801955 0.04467309 -1.15464
v 0 -0.3453088 -1.143868
v 0.3412018 -0.2576042 -1.147789
v 0.3487061 -0.2421751 -0.715823
v 0.6801955 0.05248358 -0.755864
v 0.6801955 0.1161244 -0.3879456
v 0 -0.3319616 -0.6967124
v -0.3487061 -0.2421751 -0.715823
v -0.3616309 -0.1421939 -0.2889859
v -0.6801955 0.1161244 -0.3879456
v -0.4755625 0.3145709 1.782838E-08
v -0.2877167 0.1566083 1.782838E-08
v 0 0.08698225 1.649124E-08
v 0 -0.2274801 -0.2576879
v 0.2877167 0.1566083 1.782838E-08
v 0.5331753 0.3630186 1.782838E-08
v 0.3616309 -0.1421939 -0.2889859
vn -0.6696863 -0.7426371 0.003236757
vn -0.556008 -0.831175 0.001766228
vn -0.6726254 -0.7399678 0.004762751
vn -0.4740225 -0.8805128 -1.113415E-05
vn -0.4685452 -0.8833643 0.01152952
vn -0.6661129 -0.7458053 0.008250842
vn 0 -0.999987 -0.005110833
vn -0.6635225 -0.7441561 0.07726332
vn 0 -0.9999946 -0.003274593
vn 0.5475083 -0.8367985 0.001700514
vn 0.4739454 -0.8805543 3.959138E-05
vn 0.6723595 -0.7402081 0.004964218
vn 0.6695527 -0.742757 0.003337611
vn 0.6661129 -0.7458053 0.008250838
vn 0 -0.9998932 0.01461459
vn 0.4685452 -0.8833643 0.01152952
vn 0.4633594 -0.8799264 0.1050122
vn 0.6635225 -0.7441561 0.07726333
vn 0.6352578 -0.6735242 0.3779057
vn 0 -0.9914795 0.1302626
vn -0.4633593 -0.8799264 0.1050122
vn -0.4406833 -0.7715173 0.4588674
vn -0.6404585 -0.675213 0.365924
vn -0.5641969 -0.5373318 0.6268624
vn -0.4022893 -0.5965515 0.6944708
vn 0 -0.6524115 0.757865
vn 0 -0.8598071 0.5106191
vn 0.3994805 -0.6012944 0.6919973
vn 0.5595681 -0.5464364 0.6231297
vn 0.4391356 -0.7731906 0.4575327
g Flying Wizard Cape_0
f 3/3/3 2/2/2 1/1/1
f 2/2/2 4/4/4 1/1/1
f 1/1/1 4/4/4 5/5/5
f 6/6/6 1/1/1 5/5/5
f 4/4/4 2/2/2 7/7/7
f 6/6/6 5/5/5 8/8/8
f 9/9/9 4/4/4 7/7/7
f 4/4/4 9/9/9 5/5/5
f 9/9/9 7/7/7 10/10/10
f 11/11/11 9/9/9 10/10/10
f 10/10/10 12/12/12 11/11/11
f 12/12/12 13/13/13 11/11/11
f 13/13/13 14/14/14 11/11/11
f 9/9/9 11/11/11 15/15/15
f 9/9/9 15/15/15 5/5/5
f 14/14/14 16/16/16 11/11/11
f 11/11/11 16/16/16 15/15/15
f 16/16/16 14/14/14 17/17/17
f 15/15/15 16/16/16 17/17/17
f 14/14/14 18/18/18 17/17/17
f 18/18/18 19/19/19 17/17/17
f 15/15/15 20/20/20 5/5/5
f 20/20/20 15/15/15 17/17/17
f 20/20/20 21/21/21 5/5/5
f 21/21/21 20/20/20 22/22/22
f 5/5/5 21/21/21 8/8/8
f 8/8/8 21/21/21 22/22/22
f 23/23/23 8/8/8 22/22/22
f 24/24/24 23/23/23 22/22/22
f 25/25/25 24/24/24 22/22/22
f 25/25/25 22/22/22 26/26/26
f 20/20/20 27/27/27 22/22/22
f 22/22/22 27/27/27 26/26/26
f 20/20/20 17/17/17 27/27/27
f 28/28/28 26/26/26 27/27/27
f 29/29/29 28/28/28 19/19/19
f 17/17/17 30/30/30 27/27/27
f 19/19/19 30/30/30 17/17/17
f 30/30/30 28/28/28 27/27/27
f 28/28/28 30/30/30 19/19/19
