g Frostsee
v 2.643186 1.039838 0
v 2.657824 -0.1536902 0
v 1.616614 -1.716493 0
v 1.613643 1.997555 0
v 0.9515257 -1.668946 0
v -0.4490122 2.783068 0
v 0.3892229 -1.387795 0
v -1.627311 -0.3989177 0
v -2.04252 1.708893 0
v -2.444536 0.7547725 0
vt 0 0
vt 0 0
vt 0 0
vt 0 0
vt 0 0
vt 0 0
vt 0 0
vt 0 0
vt 0 0
vt 0 0
vn 0 0 1
vn 0 0 1
vn 0 0 1
vn 0 0 1
vn 0 0 1
vn 0 0 1
vn 0 0 1
vn 0 0 1
vn 0 0 1
vn 0 0 1
g Frostsee_0
f 3/3/3 2/2/2 1/1/1
f 1/1/1 4/4/4 3/3/3
f 4/4/4 5/5/5 3/3/3
f 4/4/4 6/6/6 5/5/5
f 6/6/6 7/7/7 5/5/5
f 6/6/6 8/8/8 7/7/7
f 6/6/6 9/9/9 8/8/8
f 9/9/9 10/10/10 8/8/8
