g Fury Body
v 0.04347257 -3.299103 1.177642
v 0.04275489 -3.296688 1.131496
v 0 -3.3142 1.142748
v 0.1003299 -2.510864 0.7852883
v 0 -3.3134 1.19246
v 0.1561435 -2.472993 0.8632822
v 0.08058843 -2.417178 1.003886
v -0.04275489 -3.296688 1.131496
v 0 -2.52059 0.7568352
v 0 -2.416858 1.020327
v -0.04347257 -3.299103 1.177642
v 0.1267603 -2.541877 0.7606008
v 0 -2.554863 0.7237411
v -0.1003299 -2.510864 0.7852883
v -0.1561435 -2.472993 0.8632822
v -0.1267603 -2.541877 0.7606008
v -0.1974645 -2.495277 0.8551651
v -0.1813135 -2.417714 0.9486279
v -0.2210436 -2.425141 0.9738513
v -0.2197052 -2.444843 0.8228077
v -0.1402254 -2.49516 0.716809
v -0.08058843 -2.417178 1.003886
v -0.09628916 -2.41169 1.048532
v 0 -2.410559 1.067552
v -0.24229 -2.37292 0.9504224
v -4.367759E-11 -2.509528 0.6771121
v 0.09628916 -2.41169 1.048532
v -0.1120223 -2.354315 1.036892
v -4.367762E-11 -2.351561 1.059981
v -0.2010687 -2.363828 0.928332
v -0.1780947 -2.422885 0.8303074
v -0.09397145 -2.359503 0.9931076
v -0.1141491 -2.46404 0.7417374
v -0.5665417 -1.536168 0.2467861
v -4.367762E-11 -2.35786 1.012757
v -0.5506549 -1.410272 0.5691767
v -0.3307974 -1.338885 0.8023708
v 0.1120223 -2.354315 1.036892
v 0.09397145 -2.359503 0.9931076
v -8.165956E-10 -1.31384 0.8787875
v 0.2210436 -2.425141 0.9738513
v 0.1813135 -2.417714 0.9486279
v 0.1974645 -2.495277 0.8551651
v 0.24229 -2.37292 0.9504224
v 0.2010687 -2.363828 0.928332
v 0.1402254 -2.49516 0.716809
v 0.2197052 -2.444843 0.8228077
v -4.367759E-11 -2.475255 0.7102062
v 0.1780947 -2.422885 0.8303074
v 0.1141491 -2.46404 0.7417374
v 0.3307974 -1.338885 0.8023708
v -0.3586931 -1.635436 -0.02893817
v -8.165955E-10 -1.673013 -0.1149398
v 0.3586931 -1.635436 -0.02893817
v 0.5506549 -1.410272 0.5691767
v 0.5665417 -1.536168 0.2467861
v 0.3647145 -1.334743 0.8640496
v 0.6119302 -1.421297 0.6022762
v 0.6295143 -1.567274 0.240567
v 0.3954066 -1.68194 -0.06716569
v -8.165955E-10 -1.723618 -0.1640413
v -0.3954066 -1.68194 -0.06716569
v -8.165956E-10 -1.304777 0.9487135
v -0.6295143 -1.567274 0.240567
v -0.6119302 -1.421297 0.6022762
v -0.3647145 -1.334743 0.8640496
v -0.6563398 -1.505175 0.1964319
v -0.4120278 -1.622977 -0.1227412
v -8.718077E-10 -1.666311 -0.2229844
v -0.6382692 -1.3549 0.5732759
v -0.3845511 -1.26272 0.8487813
v 0.4120278 -1.622977 -0.1227412
v -8.718077E-10 -1.230199 0.9391437
v 0.3845511 -1.26272 0.8487813
v 0.6382692 -1.3549 0.5732759
v 0.6563398 -1.505175 0.1964319
v -0.575627 -1.342157 0.543521
v -0.3477147 -1.265979 0.7887458
v -8.718077E-10 -1.239262 0.8692176
v 0.3477147 -1.265979 0.7887458
v 0.575627 -1.342157 0.543521
v 0.5942898 -1.472827 0.2051031
v 0.3761617 -1.576246 -0.08399022
v 0.6306771 -0.8402378 0.0098987
v 0.6070445 -0.7310461 0.4005286
v 0.359773 -0.6586187 0.6896937
v 0 -0.6372363 0.7771324
v -8.718077E-10 -1.615706 -0.1738829
v -0.359773 -0.6586187 0.6896937
v -0.3761617 -1.576246 -0.08399022
v -0.5942898 -1.472827 0.2051031
v -0.4026175 -0.9223251 -0.3253707
v 0 -0.9406798 -0.4343722
v -0.6070445 -0.7310461 0.4005286
v 0.4026175 -0.9223251 -0.3253707
v -0.6306771 -0.8402378 0.0098987
v -0.2894892 -0.6495045 0.5733771
v -0.4847957 -0.7081837 0.3449859
v -0.5038171 -0.7962751 0.03283917
v -0.3257351 -0.8577595 -0.2333227
v 0 -0.8700674 -0.3178976
v 0.3257351 -0.8577595 -0.2333227
v -0.350939 -0.728981 -0.3029928
v 0 -0.6326754 0.6410015
v 0.5038171 -0.7962751 0.03283917
v 0.4847957 -0.7081837 0.3449859
v 0.2894892 -0.6495045 0.5733771
v 0.5397997 -0.666989 -0.01336521
v 0 -0.7391605 -0.3971363
v 0.5183054 -0.5776417 0.3241081
v 0.3085871 -0.5162405 0.5728004
v 0.350939 -0.728981 -0.3029928
v 0 -0.499234 0.6458043
v -0.3085871 -0.5162405 0.5728004
v -0.5183054 -0.5776417 0.3241081
v -0.5397997 -0.666989 -0.01336521
v 0.6406408 -0.6005557 0.3794384
v 0.6661837 -0.7114294 -0.03795378
v 0.4258031 -0.7939476 -0.3964119
v 0.3786295 -0.5253253 0.6892648
v 0 -0.5037949 0.7819352
v -0.3786295 -0.5253253 0.6892648
v -0.6406408 -0.6005557 0.3794384
v 0.7904916 -0.2604727 -0.2054847
v 0.7582611 -0.1437107 0.305602
v 0.4446459 -0.05866697 0.6877633
v 0 -0.03661846 0.7987498
v -0.6661837 -0.7114294 -0.03795378
v -0.4446459 -0.05866697 0.6877633
v -0.4258031 -0.7939476 -0.3964119
v 0 -0.809773 -0.5136108
v -0.5069759 -0.3444998 -0.6451262
v -0.7582611 -0.1437107 0.305602
v 0 -0.3514695 -0.7910244
v -0.7904916 -0.2604727 -0.2054847
v 0.5069759 -0.3444998 -0.6451262
v 0 -0.03850305 0.8542305
v -0.473792 -0.06249873 0.7348534
v -0.8082609 -0.1531149 0.327811
v -0.8423141 -0.2782399 -0.2144525
v -0.5388013 -0.3707276 -0.6822869
v 0 -0.3802417 -0.8384989
v 0.5388013 -0.3707276 -0.6822869
v -0.5607647 -0.2403087 -0.7557659
v 0.473792 -0.06249873 0.7348534
v 0.8423141 -0.2782399 -0.2144525
v 0.8082609 -0.1531149 0.327811
v 0.8780192 -0.1475094 -0.264764
v 0 -0.2469173 -0.9192009
v 0.8427392 -0.02037784 0.3056615
v 0.4931255 0.07323992 0.7343354
v 0.5607647 -0.2403087 -0.7557659
v 0 0.09740262 0.859122
v -0.4931255 0.07323992 0.7343354
v -0.8427392 -0.02037784 0.3056615
v -0.8780192 -0.1475094 -0.264764
v 0.7924779 -0.01081053 0.2841223
v 0.8266539 -0.1292855 -0.2542209
v 0.5305898 -0.2137516 -0.7174793
v 0.4638507 0.07708798 0.6873265
v 0 0.09928721 0.8036413
v -0.4638507 0.07708798 0.6873265
v -0.7924779 -0.01081053 0.2841223
v 0 -0.2181451 -0.8717265
v 0.3847989 0.6509995 -0.3557351
v -0.8266539 -0.1292855 -0.2542209
v -0.5305898 -0.2137516 -0.7174793
v -0.6147939 0.4791702 0.1587213
v -0.3843094 0.7151967 0.2562946
v -0.6168682 0.4604344 -0.1969622
v -0.3847989 0.6509995 -0.3557351
v 0 0.7155669 -0.4502828
v 0 0.8246469 0.3172388
v 0.3843094 0.7151967 0.2562946
v 0.6168682 0.4604344 -0.1969622
v 0.6147939 0.4791702 0.1587213
vn 0.708486 -0.5216566 0.4753126
vn 0.5915685 -0.5726094 -0.567596
vn 0 -0.9030541 -0.429527
vn 0.2378008 -0.9608217 0.1423807
vn 0 -0.6468085 0.7626525
vn 0.4051435 -0.7160064 0.5685012
vn 0.3995811 -0.7223824 0.5643568
vn -0.5915684 -0.5726094 -0.5675961
vn 0 -0.9995159 -0.03111262
vn 0 -0.6402469 0.7681693
vn -0.7084861 -0.5216565 0.4753125
vn 0.2982454 -0.9544649 -0.006804105
vn 0 -0.9950588 -0.09928817
vn -0.2378004 -0.960822 0.1423806
vn -0.4051434 -0.7160068 0.5685008
vn -0.2982451 -0.954465 -0.006804831
vn -0.4411941 -0.8583223 0.2619743
vn -0.1404337 -0.8653175 0.4811486
vn -0.5601701 -0.5867242 0.5847769
vn -0.8683773 0.1653024 -0.4675426
vn -0.5567778 -0.003512072 -0.830654
vn -0.3995813 -0.7223824 0.5643567
vn -0.2552647 -0.592111 0.7643588
vn 0 -0.5664987 0.8240627
vn -0.8477198 0.5094718 0.1476805
vn 0 -0.05547366 -0.9984602
vn 0.2552646 -0.5921109 0.7643591
vn -0.3161905 0.7285029 0.6077064
vn 0 0.7555877 0.6550474
vn -0.7846904 0.6088138 0.1166482
vn -0.826248 0.2714223 -0.4936032
vn -0.307647 0.7905254 0.5295496
vn -0.5126216 0.1275242 -0.8490916
vn -0.2360276 -0.9328558 0.27216
vn 0 0.8358435 0.5489678
vn -0.2797797 -0.8553951 0.4359159
vn -0.2032248 -0.7423806 0.6384126
vn 0.3161899 0.7285023 0.6077074
vn 0.3076467 0.7905248 0.5295509
vn 0 -0.6897193 0.7240769
vn 0.5601698 -0.5867242 0.5847774
vn 0.1404335 -0.8653172 0.4811492
vn 0.4411942 -0.858322 0.2619751
vn 0.8477196 0.5094718 0.1476826
vn 0.7846901 0.6088137 0.1166504
vn 0.5567783 -0.003512203 -0.8306538
vn 0.8683776 0.1653023 -0.467542
vn 0 0.02925144 -0.9995721
vn 0.8262481 0.2714224 -0.4936029
vn 0.5126217 0.1275241 -0.8490916
vn 0.2032248 -0.7423806 0.6384127
vn -0.1166634 -0.9730705 0.1988048
vn 0 -0.9910978 0.1331358
vn 0.1166633 -0.9730706 0.1988045
vn 0.2797797 -0.8553951 0.4359159
vn 0.2360274 -0.9328559 0.2721597
vn 0.2957257 -0.5774205 0.7610072
vn 0.5133432 -0.6879865 0.5129847
vn 0.4815103 -0.8525016 0.2034423
vn 0.2743765 -0.9607471 -0.04101802
vn 0 -0.9967362 -0.08072712
vn -0.2743765 -0.9607471 -0.04101778
vn 0 -0.5446161 0.8386855
vn -0.4815104 -0.8525016 0.2034426
vn -0.5133432 -0.6879866 0.5129846
vn -0.2957257 -0.5774205 0.7610071
vn -0.897616 0.2077782 -0.3887332
vn -0.5335571 0.009674322 -0.8457087
vn 0 -0.05838208 -0.9982943
vn -0.8583978 0.4889812 0.1550821
vn -0.479947 0.6817105 0.552197
vn 0.5335571 0.009674306 -0.8457087
vn 0 0.7562268 0.6543096
vn 0.479947 0.6817106 0.552197
vn 0.8583978 0.4889814 0.1550822
vn 0.897616 0.2077783 -0.3887332
vn -0.7416034 0.6687499 0.05289585
vn -0.4176757 0.8052378 0.4208791
vn 0 0.8333942 0.5526791
vn 0.4176757 0.8052378 0.420879
vn 0.7416035 0.6687498 0.05289585
vn 0.7620156 0.4828165 -0.4315328
vn 0.454566 0.3246884 -0.8294258
vn 0.8244969 0.4408811 -0.3547235
vn 0.7864236 0.5938895 0.1698031
vn 0.4453537 0.6820312 0.5800808
vn 0 0.7135059 0.7006491
vn 0 0.2508457 -0.9680271
vn -0.4453537 0.6820311 0.5800808
vn -0.454566 0.3246884 -0.8294258
vn -0.7620155 0.4828165 -0.4315328
vn -0.5056302 0.3057915 -0.8067401
vn 0 0.2810891 -0.9596817
vn -0.7864236 0.5938896 0.1698031
vn 0.5056303 0.3057915 -0.8067402
vn -0.8244968 0.4408811 -0.3547235
vn -0.440291 0.7144709 0.5437602
vn -0.7722968 0.6177877 0.1479733
vn -0.7979782 0.4926468 -0.3471742
vn -0.4952609 0.3763425 -0.7829961
vn 0 0.2897733 -0.9570954
vn 0.4952609 0.3763425 -0.7829962
vn -0.1654815 -0.9854264 -0.03937816
vn 0 0.7246684 0.6890978
vn 0.7979782 0.4926468 -0.3471742
vn 0.7722968 0.6177876 0.1479733
vn 0.440291 0.7144709 0.5437603
vn 0.3492658 -0.9275293 0.1330514
vn 0 -0.9918731 -0.1272312
vn 0.3461582 -0.8654914 0.3620763
vn 0.195488 -0.8293558 0.5234054
vn 0.1654815 -0.9854264 -0.03937823
vn 0 -0.7955681 0.6058641
vn -0.195488 -0.8293558 0.5234055
vn -0.3461582 -0.8654914 0.3620763
vn -0.3492658 -0.9275293 0.1330514
vn 0.5498818 -0.7304621 0.4050373
vn 0.5582296 -0.8275232 0.05987448
vn 0.3315639 -0.9074477 -0.2580775
vn 0.3198621 -0.6698552 0.6700613
vn 0 -0.6685457 0.7436711
vn -0.3198621 -0.6698552 0.6700613
vn -0.5498818 -0.7304621 0.4050374
vn 0.3433331 -0.933189 0.1062096
vn 0.357971 -0.8698253 0.3395008
vn 0.2080476 -0.8311239 0.5157027
vn 0 -0.7987996 0.6015972
vn -0.5582296 -0.8275233 0.05987447
vn -0.2080476 -0.8311239 0.5157027
vn -0.3315639 -0.9074477 -0.2580775
vn 0 -0.9401248 -0.3408307
vn -0.1521356 -0.9869178 -0.05336702
vn -0.357971 -0.8698253 0.3395008
vn 0 -0.9927247 -0.1204065
vn -0.343333 -0.9331892 0.1062096
vn 0.1521356 -0.9869178 -0.05336699
vn 0 -0.6693823 0.7429181
vn -0.3274697 -0.6711025 0.6651202
vn -0.5515925 -0.7368364 0.3909194
vn -0.5560707 -0.8297864 0.04733014
vn -0.3269287 -0.9076059 -0.2633802
vn 0 -0.9369714 -0.3494061
vn 0.3269287 -0.9076059 -0.2633802
vn -0.5491525 0.2229612 -0.8054314
vn 0.3274696 -0.6711025 0.6651203
vn 0.5560707 -0.8297864 0.04733013
vn 0.5515924 -0.7368364 0.3909194
vn 0.8750023 0.3615156 -0.3219899
vn 0 0.2140556 -0.9768215
vn 0.8345729 0.50967 0.2091045
vn 0.4833081 0.6061267 0.6316832
vn 0.5491525 0.2229613 -0.8054314
vn 0 0.641699 0.7669566
vn -0.4833081 0.6061267 0.6316832
vn -0.8345729 0.50967 0.2091045
vn -0.8750023 0.3615156 -0.3219899
vn 0.582907 0.8111055 0.04824084
vn 0.5789384 0.7462634 -0.3285136
vn 0.3450003 0.7210748 -0.6008545
vn 0.3207266 0.8858268 0.3353287
vn 0 0.9033638 0.4288751
vn -0.3207266 0.8858268 0.3353287
vn -0.582907 0.8111055 0.04824084
vn 0 0.6993219 -0.7148069
vn 0.4891065 0.7227262 -0.4883049
vn -0.5789384 0.7462634 -0.3285136
vn -0.3450003 0.7210748 -0.6008545
vn -0.8241074 0.5279565 0.2052048
vn -0.4879755 0.8022092 0.3440062
vn -0.8260783 0.4996119 -0.2607347
vn -0.4891065 0.7227262 -0.4883049
vn 0 0.7895556 -0.6136791
vn 0 0.9095596 0.4155735
vn 0.4879756 0.8022092 0.3440062
vn 0.8260783 0.4996118 -0.2607346
vn 0.8241074 0.5279565 0.2052048
g Fury Body_0
f 3/3/3 2/2/2 1/1/1
f 1/1/1 2/2/2 4/4/4
f 4/4/4 2/2/2 3/3/3
f 5/5/5 3/3/3 1/1/1
f 6/6/6 1/1/1 4/4/4
f 1/1/1 7/7/7 5/5/5
f 1/1/1 6/6/6 7/7/7
f 3/3/3 5/5/5 8/8/8
f 9/9/9 4/4/4 3/3/3
f 9/9/9 3/3/3 8/8/8
f 7/7/7 10/10/10 5/5/5
f 5/5/5 11/11/11 8/8/8
f 11/11/11 5/5/5 10/10/10
f 4/4/4 12/12/12 6/6/6
f 9/9/9 13/13/13 4/4/4
f 13/13/13 12/12/12 4/4/4
f 14/14/14 9/9/9 8/8/8
f 11/11/11 15/15/15 8/8/8
f 15/15/15 14/14/14 8/8/8
f 14/14/14 16/16/16 9/9/9
f 16/16/16 13/13/13 9/9/9
f 15/15/15 17/17/17 14/14/14
f 17/17/17 16/16/16 14/14/14
f 15/15/15 11/11/11 18/18/18
f 19/19/19 17/17/17 15/15/15
f 18/18/18 19/19/19 15/15/15
f 16/16/16 17/17/17 20/20/20
f 17/17/17 19/19/19 20/20/20
f 13/13/13 16/16/16 21/21/21
f 21/21/21 16/16/16 20/20/20
f 11/11/11 22/22/22 18/18/18
f 22/22/22 11/11/11 10/10/10
f 23/23/23 19/19/19 18/18/18
f 22/22/22 23/23/23 18/18/18
f 10/10/10 24/24/24 22/22/22
f 24/24/24 23/23/23 22/22/22
f 19/19/19 23/23/23 25/25/25
f 19/19/19 25/25/25 20/20/20
f 26/26/26 13/13/13 21/21/21
f 13/13/13 26/26/26 12/12/12
f 27/27/27 24/24/24 10/10/10
f 7/7/7 27/27/27 10/10/10
f 23/23/23 24/24/24 28/28/28
f 23/23/23 28/28/28 25/25/25
f 24/24/24 27/27/27 29/29/29
f 24/24/24 29/29/29 28/28/28
f 20/20/20 25/25/25 30/30/30
f 21/21/21 20/20/20 31/31/31
f 31/31/31 20/20/20 30/30/30
f 25/25/25 28/28/28 32/32/32
f 30/30/30 25/25/25 32/32/32
f 33/33/33 21/21/21 31/31/31
f 26/26/26 21/21/21 33/33/33
f 31/31/31 30/30/30 34/34/34
f 33/33/33 31/31/31 34/34/34
f 28/28/28 29/29/29 35/35/35
f 32/32/32 28/28/28 35/35/35
f 30/30/30 32/32/32 36/36/36
f 30/30/30 36/36/36 34/34/34
f 32/32/32 35/35/35 37/37/37
f 32/32/32 37/37/37 36/36/36
f 27/27/27 38/38/38 29/29/29
f 35/35/35 29/29/29 39/39/39
f 29/29/29 38/38/38 39/39/39
f 35/35/35 40/40/40 37/37/37
f 35/35/35 39/39/39 40/40/40
f 27/27/27 41/41/41 38/38/38
f 41/41/41 27/27/27 7/7/7
f 42/42/42 41/41/41 7/7/7
f 6/6/6 42/42/42 7/7/7
f 6/6/6 43/43/43 42/42/42
f 43/43/43 41/41/41 42/42/42
f 12/12/12 43/43/43 6/6/6
f 41/41/41 44/44/44 38/38/38
f 41/41/41 43/43/43 44/44/44
f 39/39/39 38/38/38 45/45/45
f 38/38/38 44/44/44 45/45/45
f 12/12/12 46/46/46 43/43/43
f 26/26/26 46/46/46 12/12/12
f 43/43/43 47/47/47 44/44/44
f 46/46/46 47/47/47 43/43/43
f 46/46/46 26/26/26 48/48/48
f 48/48/48 26/26/26 33/33/33
f 44/44/44 47/47/47 49/49/49
f 45/45/45 44/44/44 49/49/49
f 47/47/47 46/46/46 50/50/50
f 50/50/50 46/46/46 48/48/48
f 49/49/49 47/47/47 50/50/50
f 39/39/39 45/45/45 51/51/51
f 39/39/39 51/51/51 40/40/40
f 48/48/48 33/33/33 52/52/52
f 52/52/52 33/33/33 34/34/34
f 48/48/48 53/53/53 50/50/50
f 53/53/53 48/48/48 52/52/52
f 50/50/50 54/54/54 49/49/49
f 53/53/53 54/54/54 50/50/50
f 45/45/45 49/49/49 55/55/55
f 45/45/45 55/55/55 51/51/51
f 54/54/54 56/56/56 49/49/49
f 49/49/49 56/56/56 55/55/55
f 51/51/51 57/57/57 40/40/40
f 55/55/55 58/58/58 51/51/51
f 58/58/58 57/57/57 51/51/51
f 56/56/56 59/59/59 55/55/55
f 59/59/59 58/58/58 55/55/55
f 54/54/54 60/60/60 56/56/56
f 60/60/60 59/59/59 56/56/56
f 53/53/53 61/61/61 54/54/54
f 61/61/61 60/60/60 54/54/54
f 52/52/52 62/62/62 53/53/53
f 62/62/62 61/61/61 53/53/53
f 57/57/57 63/63/63 40/40/40
f 40/40/40 63/63/63 37/37/37
f 64/64/64 62/62/62 52/52/52
f 34/34/34 64/64/64 52/52/52
f 65/65/65 64/64/64 34/34/34
f 36/36/36 65/65/65 34/34/34
f 37/37/37 66/66/66 36/36/36
f 63/63/63 66/66/66 37/37/37
f 66/66/66 65/65/65 36/36/36
f 62/62/62 64/64/64 67/67/67
f 64/64/64 65/65/65 67/67/67
f 61/61/61 62/62/62 68/68/68
f 68/68/68 62/62/62 67/67/67
f 61/61/61 69/69/69 60/60/60
f 69/69/69 61/61/61 68/68/68
f 65/65/65 66/66/66 70/70/70
f 65/65/65 70/70/70 67/67/67
f 66/66/66 63/63/63 71/71/71
f 66/66/66 71/71/71 70/70/70
f 69/69/69 72/72/72 60/60/60
f 60/60/60 72/72/72 59/59/59
f 63/63/63 73/73/73 71/71/71
f 63/63/63 57/57/57 73/73/73
f 57/57/57 74/74/74 73/73/73
f 57/57/57 58/58/58 74/74/74
f 58/58/58 59/59/59 75/75/75
f 58/58/58 75/75/75 74/74/74
f 72/72/72 76/76/76 59/59/59
f 59/59/59 76/76/76 75/75/75
f 67/67/67 70/70/70 77/77/77
f 70/70/70 71/71/71 78/78/78
f 77/77/77 70/70/70 78/78/78
f 71/71/71 73/73/73 79/79/79
f 78/78/78 71/71/71 79/79/79
f 73/73/73 74/74/74 80/80/80
f 79/79/79 73/73/73 80/80/80
f 74/74/74 75/75/75 81/81/81
f 80/80/80 74/74/74 81/81/81
f 75/75/75 76/76/76 82/82/82
f 81/81/81 75/75/75 82/82/82
f 76/76/76 72/72/72 83/83/83
f 82/82/82 76/76/76 83/83/83
f 81/81/81 82/82/82 84/84/84
f 82/82/82 83/83/83 84/84/84
f 80/80/80 81/81/81 85/85/85
f 85/85/85 81/81/81 84/84/84
f 79/79/79 80/80/80 86/86/86
f 86/86/86 80/80/80 85/85/85
f 79/79/79 87/87/87 78/78/78
f 87/87/87 79/79/79 86/86/86
f 83/83/83 72/72/72 88/88/88
f 72/72/72 69/69/69 88/88/88
f 87/87/87 89/89/89 78/78/78
f 78/78/78 89/89/89 77/77/77
f 88/88/88 69/69/69 90/90/90
f 69/69/69 68/68/68 90/90/90
f 90/90/90 68/68/68 91/91/91
f 68/68/68 67/67/67 91/91/91
f 91/91/91 67/67/67 77/77/77
f 88/88/88 90/90/90 92/92/92
f 90/90/90 91/91/91 92/92/92
f 88/88/88 93/93/93 83/83/83
f 93/93/93 88/88/88 92/92/92
f 77/77/77 94/94/94 91/91/91
f 89/89/89 94/94/94 77/77/77
f 93/93/93 95/95/95 83/83/83
f 83/83/83 95/95/95 84/84/84
f 91/91/91 96/96/96 92/92/92
f 94/94/94 96/96/96 91/91/91
f 89/89/89 97/97/97 94/94/94
f 94/94/94 98/98/98 96/96/96
f 97/97/97 98/98/98 94/94/94
f 96/96/96 99/99/99 92/92/92
f 98/98/98 99/99/99 96/96/96
f 92/92/92 100/100/100 93/93/93
f 99/99/99 100/100/100 92/92/92
f 93/93/93 101/101/101 95/95/95
f 100/100/100 101/101/101 93/93/93
f 95/95/95 102/102/102 84/84/84
f 101/101/101 102/102/102 95/95/95
f 101/101/101 100/100/100 103/103/103
f 100/100/100 99/99/99 103/103/103
f 104/104/104 97/97/97 89/89/89
f 87/87/87 104/104/104 89/89/89
f 102/102/102 105/105/105 84/84/84
f 84/84/84 105/105/105 85/85/85
f 105/105/105 106/106/106 85/85/85
f 85/85/85 106/106/106 86/86/86
f 86/86/86 107/107/107 87/87/87
f 107/107/107 104/104/104 87/87/87
f 106/106/106 107/107/107 86/86/86
f 106/106/106 105/105/105 108/108/108
f 105/105/105 102/102/102 108/108/108
f 101/101/101 109/109/109 102/102/102
f 109/109/109 101/101/101 103/103/103
f 107/107/107 106/106/106 110/110/110
f 110/110/110 106/106/106 108/108/108
f 104/104/104 107/107/107 111/111/111
f 111/111/111 107/107/107 110/110/110
f 102/102/102 112/112/112 108/108/108
f 109/109/109 112/112/112 102/102/102
f 113/113/113 104/104/104 111/111/111
f 104/104/104 113/113/113 97/97/97
f 113/113/113 114/114/114 97/97/97
f 97/97/97 114/114/114 98/98/98
f 114/114/114 115/115/115 98/98/98
f 98/98/98 115/115/115 99/99/99
f 115/115/115 116/116/116 99/99/99
f 99/99/99 116/116/116 103/103/103
f 111/111/111 110/110/110 117/117/117
f 110/110/110 108/108/108 118/118/118
f 117/117/117 110/110/110 118/118/118
f 108/108/108 112/112/112 119/119/119
f 118/118/118 108/108/108 119/119/119
f 113/113/113 111/111/111 120/120/120
f 120/120/120 111/111/111 117/117/117
f 114/114/114 113/113/113 121/121/121
f 121/121/121 113/113/113 120/120/120
f 115/115/115 114/114/114 122/122/122
f 122/122/122 114/114/114 121/121/121
f 116/116/116 115/115/115 123/123/123
f 123/123/123 115/115/115 122/122/122
f 117/117/117 118/118/118 124/124/124
f 118/118/118 119/119/119 124/124/124
f 120/120/120 117/117/117 125/125/125
f 125/125/125 117/117/117 124/124/124
f 121/121/121 120/120/120 126/126/126
f 126/126/126 120/120/120 125/125/125
f 121/121/121 127/127/127 122/122/122
f 127/127/127 121/121/121 126/126/126
f 128/128/128 116/116/116 123/123/123
f 103/103/103 116/116/116 128/128/128
f 122/122/122 129/129/129 123/123/123
f 127/127/127 129/129/129 122/122/122
f 130/130/130 103/103/103 128/128/128
f 109/109/109 103/103/103 130/130/130
f 131/131/131 109/109/109 130/130/130
f 112/112/112 109/109/109 131/131/131
f 119/119/119 112/112/112 131/131/131
f 131/131/131 130/130/130 132/132/132
f 130/130/130 128/128/128 132/132/132
f 123/123/123 133/133/133 128/128/128
f 129/129/129 133/133/133 123/123/123
f 131/131/131 134/134/134 119/119/119
f 134/134/134 131/131/131 132/132/132
f 128/128/128 135/135/135 132/132/132
f 133/133/133 135/135/135 128/128/128
f 134/134/134 136/136/136 119/119/119
f 119/119/119 136/136/136 124/124/124
f 127/127/127 137/137/137 129/129/129
f 129/129/129 138/138/138 133/133/133
f 137/137/137 138/138/138 129/129/129
f 133/133/133 139/139/139 135/135/135
f 138/138/138 139/139/139 133/133/133
f 135/135/135 140/140/140 132/132/132
f 139/139/139 140/140/140 135/135/135
f 132/132/132 141/141/141 134/134/134
f 140/140/140 141/141/141 132/132/132
f 134/134/134 142/142/142 136/136/136
f 141/141/141 142/142/142 134/134/134
f 136/136/136 143/143/143 124/124/124
f 142/142/142 143/143/143 136/136/136
f 142/142/142 141/141/141 144/144/144
f 141/141/141 140/140/140 144/144/144
f 145/145/145 137/137/137 127/127/127
f 126/126/126 145/145/145 127/127/127
f 143/143/143 146/146/146 124/124/124
f 124/124/124 146/146/146 125/125/125
f 125/125/125 147/147/147 126/126/126
f 146/146/146 147/147/147 125/125/125
f 147/147/147 145/145/145 126/126/126
f 147/147/147 146/146/146 148/148/148
f 146/146/146 143/143/143 148/148/148
f 142/142/142 149/149/149 143/143/143
f 149/149/149 142/142/142 144/144/144
f 145/145/145 147/147/147 150/150/150
f 150/150/150 147/147/147 148/148/148
f 137/137/137 145/145/145 151/151/151
f 151/151/151 145/145/145 150/150/150
f 149/149/149 152/152/152 143/143/143
f 143/143/143 152/152/152 148/148/148
f 153/153/153 137/137/137 151/151/151
f 137/137/137 153/153/153 138/138/138
f 153/153/153 154/154/154 138/138/138
f 138/138/138 154/154/154 139/139/139
f 154/154/154 155/155/155 139/139/139
f 139/139/139 155/155/155 140/140/140
f 155/155/155 156/156/156 140/140/140
f 140/140/140 156/156/156 144/144/144
f 151/151/151 150/150/150 157/157/157
f 150/150/150 148/148/148 158/158/158
f 157/157/157 150/150/150 158/158/158
f 148/148/148 152/152/152 159/159/159
f 158/158/158 148/148/148 159/159/159
f 153/153/153 151/151/151 160/160/160
f 160/160/160 151/151/151 157/157/157
f 154/154/154 153/153/153 161/161/161
f 161/161/161 153/153/153 160/160/160
f 155/155/155 154/154/154 162/162/162
f 162/162/162 154/154/154 161/161/161
f 156/156/156 155/155/155 163/163/163
f 163/163/163 155/155/155 162/162/162
f 159/159/159 152/152/152 164/164/164
f 152/152/152 149/149/149 164/164/164
f 159/159/159 165/165/165 158/158/158
f 165/165/165 159/159/159 164/164/164
f 166/166/166 156/156/156 163/163/163
f 144/144/144 156/156/156 166/166/166
f 149/149/149 144/144/144 167/167/167
f 164/164/164 149/149/149 167/167/167
f 167/167/167 144/144/144 166/166/166
f 163/163/163 162/162/162 168/168/168
f 166/166/166 163/163/163 168/168/168
f 169/169/169 162/162/162 161/161/161
f 162/162/162 169/169/169 168/168/168
f 170/170/170 166/166/166 168/168/168
f 167/167/167 166/166/166 170/170/170
f 171/171/171 170/170/170 168/168/168
f 169/169/169 171/171/171 168/168/168
f 171/171/171 167/167/167 170/170/170
f 172/172/172 164/164/164 167/167/167
f 171/171/171 172/172/172 167/167/167
f 172/172/172 165/165/165 164/164/164
f 173/173/173 169/169/169 161/161/161
f 171/171/171 169/169/169 173/173/173
f 172/172/172 171/171/171 173/173/173
f 173/173/173 161/161/161 160/160/160
f 172/172/172 173/173/173 174/174/174
f 174/174/174 173/173/173 160/160/160
f 165/165/165 172/172/172 174/174/174
f 160/160/160 157/157/157 174/174/174
f 165/165/165 174/174/174 175/175/175
f 165/165/165 175/175/175 158/158/158
f 158/158/158 175/175/175 157/157/157
f 157/157/157 176/176/176 174/174/174
f 175/175/175 176/176/176 157/157/157
f 174/174/174 176/176/176 175/175/175
