g Gate Lvl1 Final Door R
v -1.66893E-06 -0.1190262 2.193654
v -1.66893E-06 0.1190243 3.041623
v -1.66893E-06 -0.1190262 3.041623
v -1.66893E-06 0.1190243 2.193654
v -1.66893E-06 -0.1190262 2.064619
v -1.66893E-06 -0.2012866 2.064619
v -1.66893E-06 -0.2012866 2.193654
v -1.66893E-06 0.1190243 2.064619
v -1.66893E-06 0.2012846 2.193654
v -1.66893E-06 0.2012846 2.064619
v -1.66893E-06 -0.1190262 0.9864268
v -1.66893E-06 0.1190243 0.9864268
v -1.66893E-06 -0.1190262 0.8385473
v -1.66893E-06 -0.2012866 0.8385473
v -1.66893E-06 -0.2012866 0.9864268
v -1.66893E-06 0.1190243 0.8385473
v -1.66893E-06 -0.1190262 0
v -1.66893E-06 0.1190243 0
v -1.66893E-06 0.2012846 0.9864268
v -1.66893E-06 0.2012846 0.8385473
v 1.952257 0.1190243 2.193654
v 2.440321 0.1190243 2.193654
v 2.440321 0.1190243 3.041623
v 1.952257 0.1190243 3.041623
v 1.464192 0.1190243 2.193654
v 1.464192 0.1190243 3.041623
v 0.9761275 0.1190243 2.193654
v 0.9761275 0.1190243 3.041623
v 0.4880629 0.1190243 2.193654
v 0.4880629 0.1190243 3.041623
v -1.66893E-06 0.1190243 2.193654
v -1.66893E-06 0.1190243 3.041623
v 2.440321 0.1190243 2.193654
v 2.440321 -0.1190262 3.041623
v 2.440321 0.1190243 3.041623
v 2.440321 -0.1190262 2.193654
v 2.440321 0.1190243 2.064619
v 2.440321 0.2012846 2.064619
v 2.440321 0.2012846 2.193654
v 2.440321 -0.1190262 2.064619
v 2.440321 -0.2012866 2.193654
v 2.440321 -0.2012866 2.064619
v 2.440321 0.1190243 0.9864268
v 2.440321 -0.1190262 0.9864268
v 2.440321 0.1190243 0.8385473
v 2.440321 0.2012846 0.8385473
v 2.440321 0.2012846 0.9864268
v 2.440321 -0.1190262 0.8385473
v 2.440321 0.1190243 0
v 2.440321 -0.1190262 0
v 2.440321 -0.2012866 0.9864268
v 2.440321 -0.2012866 0.8385473
v 0.4880629 -0.1190262 2.193654
v -1.66893E-06 -0.1190262 2.193654
v -1.66893E-06 -0.1190262 3.041623
v 0.4880629 -0.1190262 3.041623
v 0.9761275 -0.1190262 2.193654
v 0.9761275 -0.1190262 3.041623
v 1.464192 -0.1190262 2.193654
v 1.464192 -0.1190262 3.041623
v 1.952257 -0.1190262 2.193654
v 1.952257 -0.1190262 3.041623
v 2.440321 -0.1190262 2.193654
v 2.440321 -0.1190262 3.041623
v 1.952257 0.1190243 0
v 2.440321 -0.1190262 0
v 2.440321 0.1190243 0
v 1.952257 -0.1190262 0
v 1.464192 0.1190243 0
v 1.464192 -0.1190262 0
v 0.9761275 0.1190243 0
v 0.9761275 -0.1190262 0
v 0.4880629 0.1190243 0
v 0.4880629 -0.1190262 0
v -1.66893E-06 0.1190243 0
v -1.66893E-06 -0.1190262 0
v 0.4880629 0.1190243 3.041623
v -1.66893E-06 -0.1190262 3.041623
v -1.66893E-06 0.1190243 3.041623
v 0.4880629 -0.1190262 3.041623
v 0.9761275 0.1190243 3.041623
v 0.9761275 -0.1190262 3.041623
v 1.464192 0.1190243 3.041623
v 1.464192 -0.1190262 3.041623
v 1.952257 0.1190243 3.041623
v 1.952257 -0.1190262 3.041623
v 2.440321 0.1190243 3.041623
v 2.440321 -0.1190262 3.041623
v 0.4880629 -0.1190262 0
v -1.66893E-06 -0.1190262 0
v -1.66893E-06 -0.1190262 0.8385473
v 0.4880629 -0.1190262 0.8385473
v 0.9761275 -0.1190262 0
v 0.9761275 -0.1190262 0.8385473
v 1.464192 -0.1190262 0
v 1.464192 -0.1190262 0.8385473
v 1.952257 -0.1190262 0
v 1.952257 -0.1190262 0.8385473
v 2.440321 -0.1190262 0
v 2.440321 -0.1190262 0.8385473
v 1.952257 -0.1190262 2.064619
v 2.440321 -0.2012866 2.064619
v 2.440321 -0.1190262 2.064619
v 1.952257 -0.2012866 2.064619
v 1.464192 -0.1190262 2.064619
v 1.464192 -0.2012866 2.064619
v 0.9761275 -0.1190262 2.064619
v 0.9761275 -0.2012866 2.064619
v 0.4880629 -0.1190262 2.064619
v 0.4880629 -0.2012866 2.064619
v -1.66893E-06 -0.1190262 2.064619
v -1.66893E-06 -0.2012866 2.064619
v 0.4880629 -0.1190262 0.9864268
v -1.66893E-06 -0.1190262 0.9864268
v -1.66893E-06 -0.1190262 2.064619
v 0.4880629 -0.1190262 2.064619
v 0.9761275 -0.1190262 0.9864268
v 0.9761275 -0.1190262 2.064619
v 1.464192 -0.1190262 0.9864268
v 1.464192 -0.1190262 2.064619
v 1.952257 -0.1190262 0.9864268
v 1.952257 -0.1190262 2.064619
v 2.440321 -0.1190262 0.9864268
v 2.440321 -0.1190262 2.064619
v 1.952257 0.1190243 0
v 2.440321 0.1190243 0
v 2.440321 0.1190243 0.8385473
v 1.952257 0.1190243 0.8385473
v 1.464192 0.1190243 0
v 1.464192 0.1190243 0.8385473
v 0.9761275 0.1190243 0
v 0.9761275 0.1190243 0.8385473
v 0.4880629 0.1190243 0
v 0.4880629 0.1190243 0.8385473
v -1.66893E-06 0.1190243 0
v -1.66893E-06 0.1190243 0.8385473
v 1.952257 0.1190243 0.9864268
v 2.440321 0.1190243 0.9864268
v 2.440321 0.1190243 2.064619
v 1.952257 0.1190243 2.064619
v 1.464192 0.1190243 0.9864268
v 1.464192 0.1190243 2.064619
v 0.9761275 0.1190243 0.9864268
v 0.9761275 0.1190243 2.064619
v 0.4880629 0.1190243 0.9864268
v 0.4880629 0.1190243 2.064619
v -1.66893E-06 0.1190243 0.9864268
v -1.66893E-06 0.1190243 2.064619
v -1.66893E-06 0.1190243 0.9864268
v -1.66893E-06 0.2012846 0.9864268
v 0.4880629 0.2012846 0.9864268
v 0.4880629 0.1190243 0.9864268
v 0.9761275 0.2012846 0.9864268
v 0.9761275 0.1190243 0.9864268
v 1.464192 0.2012846 0.9864268
v 1.464192 0.1190243 0.9864268
v 1.952257 0.2012846 0.9864268
v 1.952257 0.1190243 0.9864268
v 2.440321 0.2012846 0.9864268
v 2.440321 0.1190243 0.9864268
v 1.952257 0.1190243 2.193654
v 2.440321 0.2012846 2.193654
v 2.440321 0.1190243 2.193654
v 1.952257 0.2012846 2.193654
v 1.464192 0.1190243 2.193654
v 1.464192 0.2012846 2.193654
v 0.9761275 0.1190243 2.193654
v 0.9761275 0.2012846 2.193654
v 0.4880629 0.1190243 2.193654
v 0.4880629 0.2012846 2.193654
v -1.66893E-06 0.1190243 2.193654
v -1.66893E-06 0.2012846 2.193654
v 2.440321 0.1190243 2.064619
v 2.440321 0.2012846 2.064619
v 1.952257 0.2012846 2.064619
v 1.952257 0.1190243 2.064619
v 1.464192 0.2012846 2.064619
v 1.464192 0.1190243 2.064619
v 0.9761275 0.2012846 2.064619
v 0.9761275 0.1190243 2.064619
v 0.4880629 0.2012846 2.064619
v 0.4880629 0.1190243 2.064619
v -1.66893E-06 0.2012846 2.064619
v -1.66893E-06 0.1190243 2.064619
v 2.440321 -0.1190262 0.9864268
v 2.440321 -0.2012866 0.9864268
v 1.952257 -0.2012866 0.9864268
v 1.952257 -0.1190262 0.9864268
v 1.464192 -0.2012866 0.9864268
v 1.464192 -0.1190262 0.9864268
v 0.9761275 -0.2012866 0.9864268
v 0.9761275 -0.1190262 0.9864268
v 0.4880629 -0.2012866 0.9864268
v 0.4880629 -0.1190262 0.9864268
v -1.66893E-06 -0.2012866 0.9864268
v -1.66893E-06 -0.1190262 0.9864268
v 0.4880629 -0.2012866 0.8385473
v -1.66893E-06 -0.2012866 0.8385473
v -1.66893E-06 -0.2012866 0.9864268
v 0.4880629 -0.2012866 0.9864268
v 0.9761275 -0.2012866 0.8385473
v 0.9761275 -0.2012866 0.9864268
v 1.464192 -0.2012866 0.8385473
v 1.464192 -0.2012866 0.9864268
v 1.952257 -0.2012866 0.8385473
v 1.952257 -0.2012866 0.9864268
v 2.440321 -0.2012866 0.8385473
v 2.440321 -0.2012866 0.9864268
v 0.4880629 -0.2012866 2.064619
v -1.66893E-06 -0.2012866 2.064619
v -1.66893E-06 -0.2012866 2.193654
v 0.4880629 -0.2012866 2.193654
v 0.9761275 -0.2012866 2.064619
v 0.9761275 -0.2012866 2.193654
v 1.464192 -0.2012866 2.064619
v 1.464192 -0.2012866 2.193654
v 1.952257 -0.2012866 2.064619
v 1.952257 -0.2012866 2.193654
v 2.440321 -0.2012866 2.064619
v 2.440321 -0.2012866 2.193654
v 1.952257 0.2012846 0.8385473
v 2.440321 0.2012846 0.8385473
v 2.440321 0.2012846 0.9864268
v 1.952257 0.2012846 0.9864268
v 1.464192 0.2012846 0.8385473
v 1.464192 0.2012846 0.9864268
v 0.9761275 0.2012846 0.8385473
v 0.9761275 0.2012846 0.9864268
v 0.4880629 0.2012846 0.8385473
v 0.4880629 0.2012846 0.9864268
v -1.66893E-06 0.2012846 0.8385473
v -1.66893E-06 0.2012846 0.9864268
v 1.952257 0.2012846 2.064619
v 2.440321 0.2012846 2.064619
v 2.440321 0.2012846 2.193654
v 1.952257 0.2012846 2.193654
v 1.464192 0.2012846 2.064619
v 1.464192 0.2012846 2.193654
v 0.9761275 0.2012846 2.064619
v 0.9761275 0.2012846 2.193654
v 0.4880629 0.2012846 2.064619
v 0.4880629 0.2012846 2.193654
v -1.66893E-06 0.2012846 2.064619
v -1.66893E-06 0.2012846 2.193654
v -1.66893E-06 -0.1190262 0.8385473
v -1.66893E-06 -0.2012866 0.8385473
v 0.4880629 -0.2012866 0.8385473
v 0.4880629 -0.1190262 0.8385473
v 0.9761275 -0.2012866 0.8385473
v 0.9761275 -0.1190262 0.8385473
v 1.464192 -0.2012866 0.8385473
v 1.464192 -0.1190262 0.8385473
v 1.952257 -0.2012866 0.8385473
v 1.952257 -0.1190262 0.8385473
v 2.440321 -0.2012866 0.8385473
v 2.440321 -0.1190262 0.8385473
v 0.4880629 -0.1190262 2.193654
v -1.66893E-06 -0.2012866 2.193654
v -1.66893E-06 -0.1190262 2.193654
v 0.4880629 -0.2012866 2.193654
v 0.9761275 -0.1190262 2.193654
v 0.9761275 -0.2012866 2.193654
v 1.464192 -0.1190262 2.193654
v 1.464192 -0.2012866 2.193654
v 1.952257 -0.1190262 2.193654
v 1.952257 -0.2012866 2.193654
v 2.440321 -0.1190262 2.193654
v 2.440321 -0.2012866 2.193654
v 0.4880629 0.1190243 0.8385473
v -1.66893E-06 0.2012846 0.8385473
v -1.66893E-06 0.1190243 0.8385473
v 0.4880629 0.2012846 0.8385473
v 0.9761275 0.1190243 0.8385473
v 0.9761275 0.2012846 0.8385473
v 1.464192 0.1190243 0.8385473
v 1.464192 0.2012846 0.8385473
v 1.952257 0.1190243 0.8385473
v 1.952257 0.2012846 0.8385473
v 2.440321 0.1190243 0.8385473
v 2.440321 0.2012846 0.8385473
vt 0.575 0
vt 0.625 0.25
vt 0.625 0
vt 0.575 0.25
vt 0.525 0
vt 0.525 0
vt 0.575 0
vt 0.525 0.25
vt 0.575 0.25
vt 0.525 0.25
vt 0.475 0
vt 0.475 0.25
vt 0.425 0
vt 0.425 0
vt 0.475 0
vt 0.425 0.25
vt 0.375 0
vt 0.375 0.25
vt 0.475 0.25
vt 0.425 0.25
vt 0.5749999 0.45
vt 0.575 0.5
vt 0.625 0.5
vt 0.625 0.45
vt 0.5749999 0.4
vt 0.625 0.4
vt 0.575 0.35
vt 0.625 0.35
vt 0.575 0.3
vt 0.625 0.3
vt 0.575 0.25
vt 0.625 0.25
vt 0.575 0.5
vt 0.625 0.75
vt 0.625 0.5
vt 0.575 0.75
vt 0.525 0.5
vt 0.525 0.5
vt 0.575 0.5
vt 0.525 0.75
vt 0.575 0.75
vt 0.525 0.75
vt 0.475 0.5
vt 0.475 0.75
vt 0.425 0.5
vt 0.425 0.5
vt 0.475 0.5
vt 0.425 0.75
vt 0.375 0.5
vt 0.375 0.75
vt 0.475 0.75
vt 0.425 0.75
vt 0.5749999 0.95
vt 0.575 1
vt 0.625 1
vt 0.625 0.95
vt 0.5749999 0.9
vt 0.625 0.9
vt 0.575 0.85
vt 0.625 0.85
vt 0.575 0.8
vt 0.625 0.8
vt 0.575 0.75
vt 0.625 0.75
vt 0.325 0.5
vt 0.375 0.75
vt 0.375 0.5
vt 0.325 0.75
vt 0.275 0.5
vt 0.275 0.75
vt 0.225 0.5
vt 0.225 0.75
vt 0.175 0.5
vt 0.175 0.75
vt 0.125 0.5
vt 0.125 0.75
vt 0.825 0.5
vt 0.875 0.75
vt 0.875 0.5
vt 0.825 0.75
vt 0.775 0.5
vt 0.775 0.75
vt 0.7249999 0.5
vt 0.725 0.75
vt 0.675 0.5
vt 0.675 0.75
vt 0.625 0.5
vt 0.625 0.75
vt 0.375 0.95
vt 0.375 1
vt 0.425 1
vt 0.425 0.95
vt 0.375 0.9
vt 0.425 0.9
vt 0.375 0.85
vt 0.425 0.85
vt 0.375 0.8
vt 0.425 0.8
vt 0.375 0.75
vt 0.425 0.75
vt 0.525 0.8
vt 0.525 0.75
vt 0.525 0.75
vt 0.525 0.8
vt 0.525 0.85
vt 0.525 0.85
vt 0.525 0.9
vt 0.525 0.9
vt 0.525 0.95
vt 0.525 0.95
vt 0.525 1
vt 0.525 1
vt 0.475 0.95
vt 0.475 1
vt 0.525 1
vt 0.525 0.95
vt 0.475 0.9
vt 0.525 0.9
vt 0.475 0.85
vt 0.525 0.85
vt 0.475 0.8
vt 0.525 0.8
vt 0.475 0.75
vt 0.525 0.75
vt 0.375 0.45
vt 0.375 0.5
vt 0.425 0.5
vt 0.425 0.45
vt 0.375 0.4
vt 0.425 0.4
vt 0.375 0.35
vt 0.425 0.35
vt 0.375 0.3
vt 0.425 0.3
vt 0.375 0.25
vt 0.425 0.25
vt 0.475 0.45
vt 0.475 0.5
vt 0.525 0.5
vt 0.525 0.45
vt 0.475 0.4
vt 0.525 0.4
vt 0.475 0.35
vt 0.525 0.35
vt 0.475 0.3
vt 0.525 0.3
vt 0.475 0.25
vt 0.525 0.25
vt 0.475 0.25
vt 0.475 0.25
vt 0.475 0.3
vt 0.475 0.3
vt 0.475 0.35
vt 0.475 0.35
vt 0.475 0.4
vt 0.475 0.4
vt 0.475 0.45
vt 0.475 0.45
vt 0.475 0.5
vt 0.475 0.5
vt 0.5749999 0.45
vt 0.575 0.5
vt 0.575 0.5
vt 0.5749999 0.45
vt 0.5749999 0.4
vt 0.5749999 0.4
vt 0.575 0.35
vt 0.575 0.35
vt 0.575 0.3
vt 0.575 0.3
vt 0.575 0.25
vt 0.575 0.25
vt 0.525 0.5
vt 0.525 0.5
vt 0.525 0.45
vt 0.525 0.45
vt 0.525 0.4
vt 0.525 0.4
vt 0.525 0.35
vt 0.525 0.35
vt 0.525 0.3
vt 0.525 0.3
vt 0.525 0.25
vt 0.525 0.25
vt 0.475 0.75
vt 0.475 0.75
vt 0.475 0.8
vt 0.475 0.8
vt 0.475 0.85
vt 0.475 0.85
vt 0.475 0.9
vt 0.475 0.9
vt 0.475 0.95
vt 0.475 0.95
vt 0.475 1
vt 0.475 1
vt 0.425 0.95
vt 0.425 1
vt 0.475 1
vt 0.475 0.95
vt 0.425 0.9
vt 0.475 0.9
vt 0.425 0.85
vt 0.475 0.85
vt 0.425 0.8
vt 0.475 0.8
vt 0.425 0.75
vt 0.475 0.75
vt 0.525 0.95
vt 0.525 1
vt 0.575 1
vt 0.5749999 0.95
vt 0.525 0.9
vt 0.5749999 0.9
vt 0.525 0.85
vt 0.575 0.85
vt 0.525 0.8
vt 0.575 0.8
vt 0.525 0.75
vt 0.575 0.75
vt 0.425 0.45
vt 0.425 0.5
vt 0.475 0.5
vt 0.475 0.45
vt 0.425 0.4
vt 0.475 0.4
vt 0.425 0.35
vt 0.475 0.35
vt 0.425 0.3
vt 0.475 0.3
vt 0.425 0.25
vt 0.475 0.25
vt 0.525 0.45
vt 0.525 0.5
vt 0.575 0.5
vt 0.5749999 0.45
vt 0.525 0.4
vt 0.5749999 0.4
vt 0.525 0.35
vt 0.575 0.35
vt 0.525 0.3
vt 0.575 0.3
vt 0.525 0.25
vt 0.575 0.25
vt 0.425 1
vt 0.425 1
vt 0.425 0.95
vt 0.425 0.95
vt 0.425 0.9
vt 0.425 0.9
vt 0.425 0.85
vt 0.425 0.85
vt 0.425 0.8
vt 0.425 0.8
vt 0.425 0.75
vt 0.425 0.75
vt 0.5749999 0.95
vt 0.575 1
vt 0.575 1
vt 0.5749999 0.95
vt 0.5749999 0.9
vt 0.5749999 0.9
vt 0.575 0.85
vt 0.575 0.85
vt 0.575 0.8
vt 0.575 0.8
vt 0.575 0.75
vt 0.575 0.75
vt 0.425 0.3
vt 0.425 0.25
vt 0.425 0.25
vt 0.425 0.3
vt 0.425 0.35
vt 0.425 0.35
vt 0.425 0.4
vt 0.425 0.4
vt 0.425 0.45
vt 0.425 0.45
vt 0.425 0.5
vt 0.425 0.5
vn -1 0 0
vn -1 0 0
vn -1 0 0
vn -1 0 0
vn -1 0 0
vn -1 0 0
vn -1 0 0
vn -1 0 0
vn -1 0 0
vn -1 0 0
vn -1 0 0
vn -1 0 0
vn -1 0 0
vn -1 0 0
vn -1 0 0
vn -1 0 0
vn -1 0 0
vn -1 0 0
vn -1 0 0
vn -1 0 0
vn 0 1 0
vn 0 1 0
vn 0 1 0
vn 0 1 0
vn 0 1 0
vn 0 1 0
vn 0 1 0
vn 0 1 0
vn 0 1 0
vn 0 1 0
vn 0 1 0
vn 0 1 0
vn 1 0 0
vn 1 0 0
vn 1 0 0
vn 1 0 0
vn 1 0 0
vn 1 0 0
vn 1 0 0
vn 1 0 0
vn 1 0 0
vn 1 0 0
vn 1 0 0
vn 1 0 0
vn 1 0 0
vn 1 0 0
vn 1 0 0
vn 1 0 0
vn 1 0 0
vn 1 0 0
vn 1 0 0
vn 1 0 0
vn 0 -1 0
vn 0 -1 0
vn 0 -1 0
vn 0 -1 0
vn 0 -1 0
vn 0 -1 0
vn 0 -1 0
vn 0 -1 0
vn 0 -1 0
vn 0 -1 0
vn 0 -1 0
vn 0 -1 0
vn 0 0 -1
vn 0 0 -1
vn 0 0 -1
vn 0 0 -1
vn 0 0 -1
vn 0 0 -1
vn 0 0 -1
vn 0 0 -1
vn 0 0 -1
vn 0 0 -1
vn 0 0 -1
vn 0 0 -1
vn 0 0 1
vn 0 0 1
vn 0 0 1
vn 0 0 1
vn 0 0 1
vn 0 0 1
vn 0 0 1
vn 0 0 1
vn 0 0 1
vn 0 0 1
vn 0 0 1
vn 0 0 1
vn 0 -1 0
vn 0 -1 0
vn 0 -1 0
vn 0 -1 0
vn 0 -1 0
vn 0 -1 0
vn 0 -1 0
vn 0 -1 0
vn 0 -1 0
vn 0 -1 0
vn 0 -1 0
vn 0 -1 0
vn 0 0 -1
vn 0 0 -1
vn 0 0 -1
vn 0 0 -1
vn 0 0 -1
vn 0 0 -1
vn 0 0 -1
vn 0 0 -1
vn 0 0 -1
vn 0 0 -1
vn 0 0 -1
vn 0 0 -1
vn 0 -1 0
vn 0 -1 0
vn 0 -1 0
vn 0 -1 0
vn 0 -1 0
vn 0 -1 0
vn 0 -1 0
vn 0 -1 0
vn 0 -1 0
vn 0 -1 0
vn 0 -1 0
vn 0 -1 0
vn 0 1 0
vn 0 1 0
vn 0 1 0
vn 0 1 0
vn 0 1 0
vn 0 1 0
vn 0 1 0
vn 0 1 0
vn 0 1 0
vn 0 1 0
vn 0 1 0
vn 0 1 0
vn 0 1 0
vn 0 1 0
vn 0 1 0
vn 0 1 0
vn 0 1 0
vn 0 1 0
vn 0 1 0
vn 0 1 0
vn 0 1 0
vn 0 1 0
vn 0 1 0
vn 0 1 0
vn 0 0 1
vn 0 0 1
vn 0 0 1
vn 0 0 1
vn 0 0 1
vn 0 0 1
vn 0 0 1
vn 0 0 1
vn 0 0 1
vn 0 0 1
vn 0 0 1
vn 0 0 1
vn 0 0 1
vn 0 0 1
vn 0 0 1
vn 0 0 1
vn 0 0 1
vn 0 0 1
vn 0 0 1
vn 0 0 1
vn 0 0 1
vn 0 0 1
vn 0 0 1
vn 0 0 1
vn 0 0 -1
vn 0 0 -1
vn 0 0 -1
vn 0 0 -1
vn 0 0 -1
vn 0 0 -1
vn 0 0 -1
vn 0 0 -1
vn 0 0 -1
vn 0 0 -1
vn 0 0 -1
vn 0 0 -1
vn 0 0 1
vn 0 0 1
vn 0 0 1
vn 0 0 1
vn 0 0 1
vn 0 0 1
vn 0 0 1
vn 0 0 1
vn 0 0 1
vn 0 0 1
vn 0 0 1
vn 0 0 1
vn 0 -1 0
vn 0 -1 0
vn 0 -1 0
vn 0 -1 0
vn 0 -1 0
vn 0 -1 0
vn 0 -1 0
vn 0 -1 0
vn 0 -1 0
vn 0 -1 0
vn 0 -1 0
vn 0 -1 0
vn 0 -1 0
vn 0 -1 0
vn 0 -1 0
vn 0 -1 0
vn 0 -1 0
vn 0 -1 0
vn 0 -1 0
vn 0 -1 0
vn 0 -1 0
vn 0 -1 0
vn 0 -1 0
vn 0 -1 0
vn 0 1 0
vn 0 1 0
vn 0 1 0
vn 0 1 0
vn 0 1 0
vn 0 1 0
vn 0 1 0
vn 0 1 0
vn 0 1 0
vn 0 1 0
vn 0 1 0
vn 0 1 0
vn 0 1 0
vn 0 1 0
vn 0 1 0
vn 0 1 0
vn 0 1 0
vn 0 1 0
vn 0 1 0
vn 0 1 0
vn 0 1 0
vn 0 1 0
vn 0 1 0
vn 0 1 0
vn 0 0 -1
vn 0 0 -1
vn 0 0 -1
vn 0 0 -1
vn 0 0 -1
vn 0 0 -1
vn 0 0 -1
vn 0 0 -1
vn 0 0 -1
vn 0 0 -1
vn 0 0 -1
vn 0 0 -1
vn 0 0 1
vn 0 0 1
vn 0 0 1
vn 0 0 1
vn 0 0 1
vn 0 0 1
vn 0 0 1
vn 0 0 1
vn 0 0 1
vn 0 0 1
vn 0 0 1
vn 0 0 1
vn 0 0 -1
vn 0 0 -1
vn 0 0 -1
vn 0 0 -1
vn 0 0 -1
vn 0 0 -1
vn 0 0 -1
vn 0 0 -1
vn 0 0 -1
vn 0 0 -1
vn 0 0 -1
vn 0 0 -1
g Gate Lvl1 Final Door R_0
f 3/3/3 2/2/2 1/1/1
f 2/2/2 4/4/4 1/1/1
f 1/1/1 4/4/4 5/5/5
f 5/5/5 6/6/6 1/1/1
f 6/6/6 7/7/7 1/1/1
f 4/4/4 8/8/8 5/5/5
f 4/4/4 9/9/9 8/8/8
f 9/9/9 10/10/10 8/8/8
f 5/5/5 8/8/8 11/11/11
f 8/8/8 12/12/12 11/11/11
f 11/11/11 12/12/12 13/13/13
f 13/13/13 14/14/14 11/11/11
f 14/14/14 15/15/15 11/11/11
f 12/12/12 16/16/16 13/13/13
f 13/13/13 16/16/16 17/17/17
f 16/16/16 18/18/18 17/17/17
f 12/12/12 19/19/19 16/16/16
f 19/19/19 20/20/20 16/16/16
f 23/23/23 22/22/22 21/21/21
f 24/24/24 23/23/23 21/21/21
f 24/24/24 21/21/21 25/25/25
f 26/26/26 24/24/24 25/25/25
f 26/26/26 25/25/25 27/27/27
f 28/28/28 26/26/26 27/27/27
f 28/28/28 27/27/27 29/29/29
f 30/30/30 28/28/28 29/29/29
f 30/30/30 29/29/29 31/31/31
f 32/32/32 30/30/30 31/31/31
f 35/35/35 34/34/34 33/33/33
f 34/34/34 36/36/36 33/33/33
f 33/33/33 36/36/36 37/37/37
f 37/37/37 38/38/38 33/33/33
f 38/38/38 39/39/39 33/33/33
f 36/36/36 40/40/40 37/37/37
f 36/36/36 41/41/41 40/40/40
f 41/41/41 42/42/42 40/40/40
f 37/37/37 40/40/40 43/43/43
f 40/40/40 44/44/44 43/43/43
f 43/43/43 44/44/44 45/45/45
f 45/45/45 46/46/46 43/43/43
f 46/46/46 47/47/47 43/43/43
f 44/44/44 48/48/48 45/45/45
f 45/45/45 48/48/48 49/49/49
f 48/48/48 50/50/50 49/49/49
f 44/44/44 51/51/51 48/48/48
f 51/51/51 52/52/52 48/48/48
f 55/55/55 54/54/54 53/53/53
f 56/56/56 55/55/55 53/53/53
f 56/56/56 53/53/53 57/57/57
f 58/58/58 56/56/56 57/57/57
f 58/58/58 57/57/57 59/59/59
f 60/60/60 58/58/58 59/59/59
f 60/60/60 59/59/59 61/61/61
f 62/62/62 60/60/60 61/61/61
f 62/62/62 61/61/61 63/63/63
f 64/64/64 62/62/62 63/63/63
f 67/67/67 66/66/66 65/65/65
f 66/66/66 68/68/68 65/65/65
f 65/65/65 68/68/68 69/69/69
f 68/68/68 70/70/70 69/69/69
f 69/69/69 70/70/70 71/71/71
f 70/70/70 72/72/72 71/71/71
f 71/71/71 72/72/72 73/73/73
f 72/72/72 74/74/74 73/73/73
f 73/73/73 74/74/74 75/75/75
f 74/74/74 76/76/76 75/75/75
f 79/79/79 78/78/78 77/77/77
f 78/78/78 80/80/80 77/77/77
f 77/77/77 80/80/80 81/81/81
f 80/80/80 82/82/82 81/81/81
f 81/81/81 82/82/82 83/83/83
f 82/82/82 84/84/84 83/83/83
f 83/83/83 84/84/84 85/85/85
f 84/84/84 86/86/86 85/85/85
f 85/85/85 86/86/86 87/87/87
f 86/86/86 88/88/88 87/87/87
f 91/91/91 90/90/90 89/89/89
f 92/92/92 91/91/91 89/89/89
f 92/92/92 89/89/89 93/93/93
f 94/94/94 92/92/92 93/93/93
f 94/94/94 93/93/93 95/95/95
f 96/96/96 94/94/94 95/95/95
f 96/96/96 95/95/95 97/97/97
f 98/98/98 96/96/96 97/97/97
f 98/98/98 97/97/97 99/99/99
f 100/100/100 98/98/98 99/99/99
f 103/103/103 102/102/102 101/101/101
f 102/102/102 104/104/104 101/101/101
f 101/101/101 104/104/104 105/105/105
f 104/104/104 106/106/106 105/105/105
f 105/105/105 106/106/106 107/107/107
f 106/106/106 108/108/108 107/107/107
f 107/107/107 108/108/108 109/109/109
f 108/108/108 110/110/110 109/109/109
f 109/109/109 110/110/110 111/111/111
f 110/110/110 112/112/112 111/111/111
f 115/115/115 114/114/114 113/113/113
f 116/116/116 115/115/115 113/113/113
f 116/116/116 113/113/113 117/117/117
f 118/118/118 116/116/116 117/117/117
f 118/118/118 117/117/117 119/119/119
f 120/120/120 118/118/118 119/119/119
f 120/120/120 119/119/119 121/121/121
f 122/122/122 120/120/120 121/121/121
f 122/122/122 121/121/121 123/123/123
f 124/124/124 122/122/122 123/123/123
f 127/127/127 126/126/126 125/125/125
f 128/128/128 127/127/127 125/125/125
f 128/128/128 125/125/125 129/129/129
f 130/130/130 128/128/128 129/129/129
f 130/130/130 129/129/129 131/131/131
f 132/132/132 130/130/130 131/131/131
f 132/132/132 131/131/131 133/133/133
f 134/134/134 132/132/132 133/133/133
f 134/134/134 133/133/133 135/135/135
f 136/136/136 134/134/134 135/135/135
f 139/139/139 138/138/138 137/137/137
f 140/140/140 139/139/139 137/137/137
f 140/140/140 137/137/137 141/141/141
f 142/142/142 140/140/140 141/141/141
f 142/142/142 141/141/141 143/143/143
f 144/144/144 142/142/142 143/143/143
f 144/144/144 143/143/143 145/145/145
f 146/146/146 144/144/144 145/145/145
f 146/146/146 145/145/145 147/147/147
f 148/148/148 146/146/146 147/147/147
f 151/151/151 150/150/150 149/149/149
f 152/152/152 151/151/151 149/149/149
f 153/153/153 151/151/151 152/152/152
f 154/154/154 153/153/153 152/152/152
f 155/155/155 153/153/153 154/154/154
f 156/156/156 155/155/155 154/154/154
f 157/157/157 155/155/155 156/156/156
f 158/158/158 157/157/157 156/156/156
f 159/159/159 157/157/157 158/158/158
f 160/160/160 159/159/159 158/158/158
f 163/163/163 162/162/162 161/161/161
f 162/162/162 164/164/164 161/161/161
f 161/161/161 164/164/164 165/165/165
f 164/164/164 166/166/166 165/165/165
f 165/165/165 166/166/166 167/167/167
f 166/166/166 168/168/168 167/167/167
f 167/167/167 168/168/168 169/169/169
f 168/168/168 170/170/170 169/169/169
f 169/169/169 170/170/170 171/171/171
f 170/170/170 172/172/172 171/171/171
f 175/175/175 174/174/174 173/173/173
f 176/176/176 175/175/175 173/173/173
f 177/177/177 175/175/175 176/176/176
f 178/178/178 177/177/177 176/176/176
f 179/179/179 177/177/177 178/178/178
f 180/180/180 179/179/179 178/178/178
f 181/181/181 179/179/179 180/180/180
f 182/182/182 181/181/181 180/180/180
f 183/183/183 181/181/181 182/182/182
f 184/184/184 183/183/183 182/182/182
f 187/187/187 186/186/186 185/185/185
f 188/188/188 187/187/187 185/185/185
f 189/189/189 187/187/187 188/188/188
f 190/190/190 189/189/189 188/188/188
f 191/191/191 189/189/189 190/190/190
f 192/192/192 191/191/191 190/190/190
f 193/193/193 191/191/191 192/192/192
f 194/194/194 193/193/193 192/192/192
f 195/195/195 193/193/193 194/194/194
f 196/196/196 195/195/195 194/194/194
f 199/199/199 198/198/198 197/197/197
f 200/200/200 199/199/199 197/197/197
f 200/200/200 197/197/197 201/201/201
f 202/202/202 200/200/200 201/201/201
f 202/202/202 201/201/201 203/203/203
f 204/204/204 202/202/202 203/203/203
f 204/204/204 203/203/203 205/205/205
f 206/206/206 204/204/204 205/205/205
f 206/206/206 205/205/205 207/207/207
f 208/208/208 206/206/206 207/207/207
f 211/211/211 210/210/210 209/209/209
f 212/212/212 211/211/211 209/209/209
f 212/212/212 209/209/209 213/213/213
f 214/214/214 212/212/212 213/213/213
f 214/214/214 213/213/213 215/215/215
f 216/216/216 214/214/214 215/215/215
f 216/216/216 215/215/215 217/217/217
f 218/218/218 216/216/216 217/217/217
f 218/218/218 217/217/217 219/219/219
f 220/220/220 218/218/218 219/219/219
f 223/223/223 222/222/222 221/221/221
f 224/224/224 223/223/223 221/221/221
f 224/224/224 221/221/221 225/225/225
f 226/226/226 224/224/224 225/225/225
f 226/226/226 225/225/225 227/227/227
f 228/228/228 226/226/226 227/227/227
f 228/228/228 227/227/227 229/229/229
f 230/230/230 228/228/228 229/229/229
f 230/230/230 229/229/229 231/231/231
f 232/232/232 230/230/230 231/231/231
f 235/235/235 234/234/234 233/233/233
f 236/236/236 235/235/235 233/233/233
f 236/236/236 233/233/233 237/237/237
f 238/238/238 236/236/236 237/237/237
f 238/238/238 237/237/237 239/239/239
f 240/240/240 238/238/238 239/239/239
f 240/240/240 239/239/239 241/241/241
f 242/242/242 240/240/240 241/241/241
f 242/242/242 241/241/241 243/243/243
f 244/244/244 242/242/242 243/243/243
f 247/247/247 246/246/246 245/245/245
f 248/248/248 247/247/247 245/245/245
f 249/249/249 247/247/247 248/248/248
f 250/250/250 249/249/249 248/248/248
f 251/251/251 249/249/249 250/250/250
f 252/252/252 251/251/251 250/250/250
f 253/253/253 251/251/251 252/252/252
f 254/254/254 253/253/253 252/252/252
f 255/255/255 253/253/253 254/254/254
f 256/256/256 255/255/255 254/254/254
f 259/259/259 258/258/258 257/257/257
f 258/258/258 260/260/260 257/257/257
f 257/257/257 260/260/260 261/261/261
f 260/260/260 262/262/262 261/261/261
f 261/261/261 262/262/262 263/263/263
f 262/262/262 264/264/264 263/263/263
f 263/263/263 264/264/264 265/265/265
f 264/264/264 266/266/266 265/265/265
f 265/265/265 266/266/266 267/267/267
f 266/266/266 268/268/268 267/267/267
f 271/271/271 270/270/270 269/269/269
f 270/270/270 272/272/272 269/269/269
f 269/269/269 272/272/272 273/273/273
f 272/272/272 274/274/274 273/273/273
f 273/273/273 274/274/274 275/275/275
f 274/274/274 276/276/276 275/275/275
f 275/275/275 276/276/276 277/277/277
f 276/276/276 278/278/278 277/277/277
f 277/277/277 278/278/278 279/279/279
f 278/278/278 280/280/280 279/279/279
