g GraveTop
v -0.3489705 1.79123 0.5263413
v -0.06634425 1.79123 0.3656164
v 0.216282 1.79123 0.5263413
v -0.06634425 1.79123 0.3656164
v -1.075953 1.79123 0.09387273
v -0.06634425 1.79123 -0.0001805425
v -1.075953 1.79123 -0.0001805425
v 0.9432647 1.79123 -0.0001805425
v 0.9432647 1.79123 0.09387273
v 0.216282 1.79123 0.5263413
v 0.9432647 -1.780577 -0.0001805425
v 0.9432647 -1.780577 0.09387273
v 0.9432647 1.79123 0.09387273
v 0.9432647 1.79123 -0.0001805425
v 0.9432647 1.79123 0.09387273
v 0.9432647 -1.780577 0.09387273
v 0.216282 -1.780577 0.5263413
v 0.216282 1.79123 0.5263413
v -1.075953 1.79123 -0.0001805425
v -1.075953 1.79123 0.09387273
v -1.075953 -1.780577 0.09387273
v -1.075953 -1.780577 -0.0001805425
v -0.3489705 1.79123 0.5263413
v -0.3489705 -1.780577 0.5263413
v -1.075953 -1.780577 0.09387273
v -1.075953 1.79123 0.09387273
v 0.9432647 -1.780577 0.09387273
v 0.9432647 -1.780577 -0.0001805425
v -0.06634425 -1.780577 -0.0001805425
v -0.06634425 -1.780577 0.3656164
v 0.216282 -1.780577 0.5263413
v -1.075953 -1.780577 -0.0001805425
v -1.075953 -1.780577 0.09387273
v -0.3489705 -1.780577 0.5263413
v 0.216282 -1.780577 0.5263413
v -0.8741701 1.503871 -0.0001805425
v -0.7145563 1.207779 0.1653569
v -0.06634732 1.207779 0.1653569
v -0.06634597 1.503871 -0.0001805425
v 0.5818616 1.207779 0.1653569
v 0.7414781 1.503871 -0.0001805425
v -0.8741701 -1.493218 -0.0001805425
v -0.7145563 -1.197125 0.1653569
v -0.7145563 1.207779 0.1653569
v -0.8741701 1.503871 -0.0001805425
v -0.06634597 -1.493218 -0.0001805425
v -0.7145563 -1.197125 0.1653569
v -0.8741701 -1.493218 -0.0001805425
v -0.06634732 -1.197125 0.1653569
v 0.7414781 -1.493218 -0.0001805425
v 0.5818616 -1.197125 0.1653569
v -0.06634732 1.207779 0.1653569
v 0.5818616 -1.197125 0.1653569
v 0.5818616 1.207779 0.1653569
v -0.06634732 -1.197125 0.1653569
v -0.7145563 1.207779 0.1653569
v -0.7145563 -1.197125 0.1653569
v -1.075953 1.79123 -0.0001805425
v -0.8741701 1.503871 -0.0001805425
v -0.06634597 1.503871 -0.0001805425
v -0.06634425 1.79123 -0.0001805425
v 0.7414781 1.503871 -0.0001805425
v 0.9432647 1.79123 -0.0001805425
v 0.9432647 -1.780577 -0.0001805425
v 0.7414781 -1.493218 -0.0001805425
v -0.06634597 -1.493218 -0.0001805425
v -0.06634425 -1.780577 -0.0001805425
v -0.8741701 -1.493218 -0.0001805425
v -1.075953 -1.780577 -0.0001805425
v -0.1307353 -1.784865 0.5032924
v -0.1307353 1.818055 0.5032924
v -0.1307353 1.818055 0.6650003
v -0.1307353 -1.784865 0.6650003
v -0.1307353 1.818055 0.5032924
v -0.0149697 1.818055 0.5032924
v -0.0149697 1.818055 0.6650003
v -0.1307353 1.818055 0.6650003
v -0.0149697 1.818055 0.5032924
v -0.0149697 -1.784865 0.5032924
v -0.0149697 -1.784865 0.6650003
v -0.0149697 1.818055 0.6650003
v -0.0149697 -1.784865 0.5032924
v -0.1307353 -1.784865 0.5032924
v -0.1307353 -1.784865 0.6650003
v -0.0149697 -1.784865 0.6650003
v -0.1307353 1.818055 0.5032924
v -0.1307353 -1.784865 0.5032924
v -0.0149697 -1.784865 0.5032924
v -0.0149697 1.818055 0.5032924
v -0.0149697 1.818055 0.6650003
v -0.0149697 -1.784865 0.6650003
v -0.1307353 -1.784865 0.6650003
v -0.1307353 1.818055 0.6650003
v -0.3489705 1.79123 0.5263413
v 0.216282 1.79123 0.5263413
v 0.216282 -1.780577 0.5263413
v -0.3489705 -1.780577 0.5263413
v 0.7414781 1.503871 -0.0001805425
v 0.5818616 1.207779 0.1653569
v 0.5818616 -1.197125 0.1653569
v 0.7414781 -1.493218 -0.0001805425
v -1.075953 -1.780577 -0.0001805425
v -0.8741701 -1.493218 -0.0001805425
v -0.8741701 1.503871 -0.0001805425
v -1.075953 1.79123 -0.0001805425
v 0.9432647 1.79123 -0.0001805425
v 0.7414781 1.503871 -0.0001805425
v 0.7414781 -1.493218 -0.0001805425
v 0.9432647 -1.780577 -0.0001805425
vt 0.375 0.590008
vt 0.375 0.625
vt 0.375 0.625
vt 0.375 0.625
vt 0.375 0.5
vt 0.375 0.625
vt 0.375 0.5
vt 0.375 0.7499999
vt 0.375 0.75
vt 0.375 0.659992
vt 0.625 1
vt 0.625 1
vt 0.625 0.75
vt 0.625 0.75
vt 0.375 0
vt 0.375 0.25
vt 0.4650079 0.25
vt 0.465008 0
vt 0.875 0.75
vt 0.875 0.75
vt 0.875 0.5
vt 0.875 0.5
vt 0.534992 0
vt 0.534992 0.25
vt 0.625 0.25
vt 0.625 0
vt 0.625 0.5
vt 0.625 0.5
vt 0.625 0.625
vt 0.625 0.625
vt 0.625 0.590008
vt 0.625 0.75
vt 0.625 0.75
vt 0.625 0.659992
vt 0.625 0.625
vt 0.375 0.5
vt 0.375 0.5
vt 0.375 0.625
vt 0.375 0.625
vt 0.375 0.7499999
vt 0.375 0.7499999
vt 0.875 0.5
vt 0.875 0.5
vt 0.875 0.75
vt 0.875 0.75
vt 0.625 0.625
vt 0.625 0.75
vt 0.625 0.75
vt 0.625 0.625
vt 0.625 0.5
vt 0.625 0.5
vt 0.375 0.625
vt 0.625 0.5
vt 0.625 0.75
vt 0.625 0.625
vt 0.375 0.5
vt 0.875 0.5
vt 0.375 0.5
vt 0.375 0.5
vt 0.375 0.625
vt 0.375 0.625
vt 0.375 0.7499999
vt 0.375 0.7499999
vt 0.625 0.5
vt 0.625 0.5
vt 0.625 0.625
vt 0.625 0.625
vt 0.625 0.75
vt 0.625 0.75
vt 0.375 0
vt 0.375 0.25
vt 0.625 0.25
vt 0.625 0
vt 0.375 0.25
vt 0.375 0.5
vt 0.625 0.5
vt 0.625 0.25
vt 0.375 0.5
vt 0.375 0.75
vt 0.625 0.75
vt 0.625 0.5
vt 0.375 0.75
vt 0.375 1
vt 0.625 1
vt 0.625 0.75
vt 0.125 0.5
vt 0.125 0.75
vt 0.375 0.75
vt 0.375 0.5
vt 0.625 0.5
vt 0.625 0.75
vt 0.875 0.75
vt 0.875 0.5
vt 0.534992 0
vt 0.465008 0
vt 0.4650079 0.25
vt 0.534992 0.25
vt 0.625 0.75
vt 0.625 0.75
vt 0.625 1
vt 0.625 1
vt 0.875 0.5
vt 0.875 0.5
vt 0.875 0.75
vt 0.875 0.75
vt 0.625 0.75
vt 0.625 0.75
vt 0.625 1
vt 0.625 1
vn 0 1 0
vn 0 1 0
vn 0 1 0
vn 0 1 0
vn 0 1 0
vn 0 1 0
vn 0 1 0
vn 0 1 0
vn 0 1 0
vn 0 1 0
vn 1 0 0
vn 1 0 0
vn 1 0 0
vn 1 0 0
vn 0.5112575 0 0.8594276
vn 0.5112575 0 0.8594276
vn 0.5112575 0 0.8594276
vn 0.5112575 0 0.8594276
vn -1 0 0
vn -1 0 0
vn -1 0 0
vn -1 0 0
vn -0.5112575 0 0.8594276
vn -0.5112575 0 0.8594276
vn -0.5112575 0 0.8594276
vn -0.5112575 0 0.8594276
vn 0 -1 0
vn 0 -1 0
vn 0 -1 0
vn 0 -1 0
vn 0 -1 0
vn 0 -1 0
vn 0 -1 0
vn 0 -1 0
vn 0 -1 0
vn 0 -0.4879884 -0.8728501
vn 0 -0.4879884 -0.8728501
vn 0 -0.4879884 -0.8728501
vn 0 -0.4879884 -0.8728501
vn 0 -0.4879882 -0.8728502
vn 0 -0.4879882 -0.8728502
vn 0.7198696 0 -0.6941094
vn 0.7198696 0 -0.6941094
vn 0.7198696 0 -0.6941094
vn 0.7198696 0 -0.6941094
vn 0 0.4879877 -0.8728505
vn 0 0.4879877 -0.8728505
vn 0 0.4879877 -0.8728505
vn 0 0.4879877 -0.8728505
vn 0 0.4879873 -0.8728507
vn 0 0.4879873 -0.8728507
vn 0 0 -1
vn 0 0 -1
vn 0 0 -1
vn 0 0 -1
vn 0 0 -1
vn 0 0 -1
vn 0 0 -1
vn 0 0 -1
vn 0 0 -1
vn 0 0 -1
vn 0 0 -1
vn 0 0 -1
vn 0 0 -1
vn 0 0 -1
vn 0 0 -1
vn 0 0 -1
vn 0 0 -1
vn 0 0 -1
vn -1 0 0
vn -1 0 0
vn -1 0 0
vn -1 0 0
vn 0 1 0
vn 0 1 0
vn 0 1 0
vn 0 1 0
vn 1 0 0
vn 1 0 0
vn 1 0 0
vn 1 0 0
vn 0 -1 0
vn 0 -1 0
vn 0 -1 0
vn 0 -1 0
vn 0 0 -1
vn 0 0 -1
vn 0 0 -1
vn 0 0 -1
vn 0 0 1
vn 0 0 1
vn 0 0 1
vn 0 0 1
vn 0 0 1
vn 0 0 1
vn 0 0 1
vn 0 0 1
vn -0.7198636 0 -0.6941155
vn -0.7198636 0 -0.6941155
vn -0.7198636 0 -0.6941155
vn -0.7198636 0 -0.6941155
vn 0 0 -1
vn 0 0 -1
vn 0 0 -1
vn 0 0 -1
vn 0 0 -1
vn 0 0 -1
vn 0 0 -1
vn 0 0 -1
g GraveTop_0
f 3/3/3 2/2/2 1/1/1
f 5/5/5 1/1/1 4/4/4
f 5/5/5 4/4/4 6/6/6
f 6/6/6 7/7/7 5/5/5
f 8/8/8 6/6/6 4/4/4
f 4/4/4 9/9/9 8/8/8
f 4/4/4 10/10/10 9/9/9
f 13/13/13 12/12/12 11/11/11
f 14/14/14 13/13/13 11/11/11
f 17/17/17 16/16/16 15/15/15
f 18/18/18 17/17/17 15/15/15
f 21/21/21 20/20/20 19/19/19
f 22/22/22 21/21/21 19/19/19
f 25/25/25 24/24/24 23/23/23
f 26/26/26 25/25/25 23/23/23
f 29/29/29 28/28/28 27/27/27
f 27/27/27 30/30/30 29/29/29
f 27/27/27 31/31/31 30/30/30
f 32/32/32 29/29/29 30/30/30
f 30/30/30 33/33/33 32/32/32
f 30/30/30 34/34/34 33/33/33
f 34/34/34 30/30/30 35/35/35
f 38/38/38 37/37/37 36/36/36
f 39/39/39 38/38/38 36/36/36
f 40/40/40 38/38/38 39/39/39
f 41/41/41 40/40/40 39/39/39
f 44/44/44 43/43/43 42/42/42
f 45/45/45 44/44/44 42/42/42
f 48/48/48 47/47/47 46/46/46
f 47/47/47 49/49/49 46/46/46
f 46/46/46 49/49/49 50/50/50
f 49/49/49 51/51/51 50/50/50
f 54/54/54 53/53/53 52/52/52
f 53/53/53 55/55/55 52/52/52
f 56/56/56 52/52/52 55/55/55
f 57/57/57 56/56/56 55/55/55
f 60/60/60 59/59/59 58/58/58
f 61/61/61 60/60/60 58/58/58
f 62/62/62 60/60/60 61/61/61
f 63/63/63 62/62/62 61/61/61
f 66/66/66 65/65/65 64/64/64
f 67/67/67 66/66/66 64/64/64
f 68/68/68 66/66/66 67/67/67
f 69/69/69 68/68/68 67/67/67
f 72/72/72 71/71/71 70/70/70
f 73/73/73 72/72/72 70/70/70
f 76/76/76 75/75/75 74/74/74
f 77/77/77 76/76/76 74/74/74
f 80/80/80 79/79/79 78/78/78
f 81/81/81 80/80/80 78/78/78
f 84/84/84 83/83/83 82/82/82
f 85/85/85 84/84/84 82/82/82
f 88/88/88 87/87/87 86/86/86
f 89/89/89 88/88/88 86/86/86
f 92/92/92 91/91/91 90/90/90
f 93/93/93 92/92/92 90/90/90
f 96/96/96 95/95/95 94/94/94
f 97/97/97 96/96/96 94/94/94
f 100/100/100 99/99/99 98/98/98
f 101/101/101 100/100/100 98/98/98
f 104/104/104 103/103/103 102/102/102
f 105/105/105 104/104/104 102/102/102
f 108/108/108 107/107/107 106/106/106
f 109/109/109 108/108/108 106/106/106
