g Graveyard Wall Post
v 0.6517757 0.6517773 0
v 0.6517757 -0.6517773 0
v 0.375479 -0.3754812 2.175501
v 0.375479 0.3754812 2.175501
v 0.6517757 -0.6517773 0
v -0.6517791 -0.6517773 0
v -0.3754835 -0.3754812 2.175501
v 0.375479 -0.3754812 2.175501
v -0.6517791 0.6517773 0
v 0.6517757 0.6517773 0
v 0.375479 0.3754812 2.175501
v -0.3754835 0.3754812 2.175501
v -0.3754835 -0.3754812 2.175501
v -0.3754835 0.3754812 2.175501
v 0.375479 0.3754812 2.175501
v 0.375479 -0.3754812 2.175501
v -0.6517791 0.6517773 0
v -0.3754835 0.3754812 2.175501
v -0.3754835 -0.3754812 2.175501
v -0.6517791 -0.6517773 0
vt 0.5 0.5
vt 0.5 0.75
vt 0.6508605 0.7241392
vt 0.6508605 0.5258606
vt 0.5 0.75
vt 0.5 1
vt 0.8491392 0.7241393
vt 0.6508605 0.7241392
vt 0.5 0.25
vt 0.5 0.5
vt 0.6508605 0.5258606
vt 0.8491391 0.5258607
vt 0.8491392 0.7241393
vt 0.8491391 0.5258607
vt 0.6508605 0.5258606
vt 0.6508605 0.7241392
vt 0.5 0.25
vt 0.8491391 0.5258607
vt 0.8491392 0.7241393
vt 0.5 0
vn 0.9920313 0 0.1259917
vn 0.9920313 0 0.1259917
vn 0.9920313 0 0.1259917
vn 0.9920313 0 0.1259917
vn 0 -0.9920313 0.1259914
vn 0 -0.9920313 0.1259914
vn 0 -0.9920313 0.1259914
vn 0 -0.9920313 0.1259914
vn 0 0.9920313 0.1259914
vn 0 0.9920313 0.1259914
vn 0 0.9920313 0.1259914
vn 0 0.9920313 0.1259914
vn 0 0 1
vn 0 0 1
vn 0 0 1
vn 0 0 1
vn -0.9920313 0 0.1259912
vn -0.9920313 0 0.1259912
vn -0.9920313 0 0.1259912
vn -0.9920313 0 0.1259912
g Graveyard Wall Post_0
f 3/3/3 2/2/2 1/1/1
f 4/4/4 3/3/3 1/1/1
f 7/7/7 6/6/6 5/5/5
f 8/8/8 7/7/7 5/5/5
f 11/11/11 10/10/10 9/9/9
f 12/12/12 11/11/11 9/9/9
f 15/15/15 14/14/14 13/13/13
f 16/16/16 15/15/15 13/13/13
f 19/19/19 18/18/18 17/17/17
f 20/20/20 19/19/19 17/17/17
