g Head
v -7.67376E-09 0.006787171 0.0001160534
v 0.0005342876 0.006644009 0.0001160534
v -7.67376E-09 0.00571858 0.0004023829
v -7.67376E-09 0.007569436 -0.0006662076
v 0.0009254181 0.007321473 -0.0006662076
v 0.0009254181 0.006252883 0.0001160534
v -7.67376E-09 0.00571858 0.0004023829
v -0.0009254334 0.007321473 -0.0006662076
v -0.000534302 0.006644009 0.0001160534
v -7.67376E-09 0.00571858 0.0004023829
v -7.67376E-09 0.00785576 -0.001734798
v -0.001068596 0.007569436 -0.001734798
v 0.001602877 0.006644009 -0.0006662076
v 0.001068582 0.007569436 -0.001734798
v 0.001068582 0.00571858 0.0001160534
v -7.67376E-09 0.00571858 0.0004023829
v -0.001602892 0.006644009 -0.0006662076
v -0.001850859 0.006787171 -0.001734798
v -0.0009254334 0.006252883 0.0001160534
v -7.67376E-09 0.00571858 0.0004023829
v -0.001850859 0.00571858 -0.0006662076
v -0.001068597 0.00571858 0.0001160534
v -7.67376E-09 0.00571858 0.0004023829
v -0.002137187 0.00571858 -0.001734798
v -0.001850859 0.00571858 -0.002803389
v -0.001602892 0.006644009 -0.002803389
v -0.001068598 0.00571858 -0.00358565
v -0.0009254334 0.007321473 -0.002803389
v -0.0009254334 0.006252883 -0.00358565
v -7.67376E-09 0.00571858 -0.003871979
v -7.67376E-09 0.007569436 -0.002803389
v -0.0005343029 0.006644009 -0.00358565
v -7.67376E-09 0.00571858 -0.003871979
v -7.67376E-09 0.006787171 -0.00358565
v -7.67376E-09 0.00571858 -0.003871979
v 0.0009254181 0.007321473 -0.002803389
v 0.001850844 0.006787171 -0.001734798
v 0.0005342876 0.006644009 -0.00358565
v -7.67376E-09 0.00571858 -0.003871979
v 0.001602877 0.006644009 -0.002803389
v 0.001850844 0.00571858 -0.0006662076
v 0.0009254181 0.006252883 -0.00358565
v -7.67376E-09 0.00571858 -0.003871979
v 0.002137171 0.00571858 -0.001734798
v 0.0009254181 0.00518428 0.0001160534
v -7.67376E-09 0.00571858 0.0004023829
v 0.001850844 0.00571858 -0.002803389
v 0.001602877 0.004793155 -0.0006662076
v 0.001068583 0.00571858 -0.00358565
v -7.67376E-09 0.00571858 -0.003871979
v 0.001850844 0.004649993 -0.001734798
v 0.0005342876 0.004793155 0.0001160534
v -7.67376E-09 0.00571858 0.0004023829
v 0.001602877 0.004793155 -0.002803389
v 0.0009254181 0.004115687 -0.0006662076
v 0.0009254181 0.00518428 -0.00358565
v -7.67376E-09 0.00571858 -0.003871979
v 0.001068582 0.003867724 -0.001734798
v -7.67376E-09 0.004649993 0.0001160534
v -7.67376E-09 0.00571858 0.0004023829
v 0.0009254181 0.004115687 -0.002803389
v -7.67376E-09 0.003867724 -0.0006662076
v 0.0005342876 0.004793155 -0.00358565
v -7.67376E-09 0.00571858 -0.003871979
v -7.67376E-09 0.0035814 -0.001734798
v -0.0005343029 0.004793155 0.0001160534
v -7.67376E-09 0.00571858 0.0004023829
v -7.67376E-09 0.003867724 -0.002803389
v -0.0009254334 0.004115687 -0.0006662076
v -7.67376E-09 0.004649993 -0.00358565
v -7.67376E-09 0.00571858 -0.003871979
v -0.001068597 0.003867724 -0.001734798
v -0.0009254334 0.00518428 0.0001160534
v -7.67376E-09 0.00571858 0.0004023829
v -0.0009254334 0.004115687 -0.002803389
v -0.001602892 0.004793155 -0.0006662076
v -0.001068597 0.00571858 0.0001160534
v -7.67376E-09 0.00571858 0.0004023829
v -0.001850859 0.00571858 -0.0006662076
v -0.001850859 0.004649993 -0.001734798
v -0.002137187 0.00571858 -0.001734798
v -0.001602892 0.004793155 -0.002803389
v -0.001850859 0.00571858 -0.002803389
v -0.0005343029 0.004793155 -0.00358565
v -7.67376E-09 0.00571858 -0.003871979
v -0.0009254334 0.00518428 -0.00358565
v -7.67376E-09 0.00571858 -0.003871979
v -0.001068598 0.00571858 -0.00358565
v -7.67376E-09 0.00571858 -0.003871979
vt 0.75 0.8333334
vt 0.6666666 0.8333334
vt 0.7083333 1
vt 0.75 0.6666666
vt 0.6666666 0.6666666
vt 0.5833333 0.8333333
vt 0.6249999 1
vt 0.8333334 0.6666666
vt 0.8333333 0.8333334
vt 0.7916666 1
vt 0.75 0.5
vt 0.8333333 0.5
vt 0.5833333 0.6666666
vt 0.6666666 0.5
vt 0.5 0.8333333
vt 0.5416666 1
vt 0.9166667 0.6666666
vt 0.9166666 0.5
vt 0.9166666 0.8333334
vt 0.875 1
vt 1 0.6666666
vt 1 0.8333334
vt 0.9583334 1
vt 1 0.5
vt 1 0.3333333
vt 0.9166666 0.3333333
vt 1 0.1666667
vt 0.8333334 0.3333333
vt 0.9166667 0.1666667
vt 0.9583334 0
vt 0.75 0.3333333
vt 0.8333334 0.1666667
vt 0.875 0
vt 0.75 0.1666667
vt 0.7916666 0
vt 0.6666666 0.3333333
vt 0.5833333 0.5
vt 0.6666666 0.1666667
vt 0.7083333 0
vt 0.5833333 0.3333333
vt 0.5 0.6666666
vt 0.5833333 0.1666667
vt 0.625 0
vt 0.5 0.5
vt 0.4166667 0.8333333
vt 0.4583333 1
vt 0.5 0.3333333
vt 0.4166667 0.6666666
vt 0.5 0.1666667
vt 0.5416666 0
vt 0.4166667 0.5
vt 0.3333333 0.8333333
vt 0.375 1
vt 0.4166667 0.3333333
vt 0.3333333 0.6666666
vt 0.4166667 0.1666668
vt 0.4583333 0
vt 0.3333333 0.5
vt 0.25 0.8333333
vt 0.2916667 1
vt 0.3333333 0.3333333
vt 0.25 0.6666666
vt 0.3333333 0.1666668
vt 0.375 0
vt 0.25 0.5
vt 0.1666667 0.8333333
vt 0.2083334 1
vt 0.25 0.3333333
vt 0.1666667 0.6666666
vt 0.25 0.1666668
vt 0.2916667 0
vt 0.1666667 0.5
vt 0.08333334 0.8333334
vt 0.1250001 1
vt 0.1666667 0.3333333
vt 0.08333334 0.6666666
vt 2.980232E-08 0.8333334
vt 0.04166675 1
vt 2.980232E-08 0.6666666
vt 0.08333331 0.5
vt 0 0.5
vt 0.08333334 0.3333333
vt 2.980232E-08 0.3333333
vt 0.1666667 0.1666668
vt 0.2083334 0
vt 0.08333334 0.1666668
vt 0.1250001 0
vt 2.980232E-08 0.1666667
vt 0.04166675 0
vn 0 0.5308989 0.8474352
vn 0.2654485 0.4597727 0.8474351
vn 0 -5.354948E-07 1
vn 0 0.8759835 0.4823411
vn 0.4379908 0.7586246 0.482341
vn 0.4597731 0.2654501 0.8474343
vn 0 -5.354948E-07 1
vn -0.4379908 0.7586245 0.4823411
vn -0.2654484 0.4597727 0.8474351
vn 0 -5.354948E-07 1
vn 0 1 0
vn -0.4999997 0.8660256 1.271625E-07
vn 0.7586247 0.4379903 0.4823413
vn 0.4999999 0.8660255 0
vn 0.5308999 -5.224943E-07 0.8474345
vn 0 -5.354948E-07 1
vn -0.7586244 0.4379906 0.4823414
vn -0.8660262 0.4999985 1.218639E-07
vn -0.4597733 0.2654504 0.8474341
vn 0 -5.354948E-07 1
vn -0.8759833 -5.911862E-07 0.4823414
vn -0.5309001 -4.768396E-07 0.8474344
vn 0 -5.354948E-07 1
vn -1 -5.987233E-07 0
vn -0.8759834 -5.597959E-07 -0.4823413
vn -0.7586245 0.4379907 -0.4823411
vn -0.5309002 -4.641578E-07 -0.8474344
vn -0.4379908 0.7586246 -0.482341
vn -0.4597731 0.2654505 -0.8474342
vn 0 -5.482447E-07 -1
vn 0 0.8759835 -0.4823411
vn -0.2654485 0.4597726 -0.8474351
vn 0 -5.482447E-07 -1
vn 0 0.5308987 -0.8474352
vn 0 -5.482447E-07 -1
vn 0.4379908 0.7586246 -0.4823409
vn 0.8660264 0.4999982 0
vn 0.2654485 0.4597726 -0.8474352
vn 0 -5.482447E-07 -1
vn 0.7586248 0.4379904 -0.482341
vn 0.8759834 -5.859544E-07 0.4823414
vn 0.4597731 0.2654504 -0.8474343
vn 0 -5.482447E-07 -1
vn 1 -5.934248E-07 0
vn 0.4597732 -0.2654501 0.8474342
vn 0 -5.354948E-07 1
vn 0.8759835 -5.807225E-07 -0.4823411
vn 0.7586249 -0.4379898 0.4823413
vn 0.5309003 -4.869851E-07 -0.8474343
vn 0 -5.482447E-07 -1
vn 0.8660269 -0.4999976 1.271622E-07
vn 0.2654485 -0.4597718 0.8474356
vn 0 -5.354948E-07 1
vn 0.7586249 -0.43799 -0.4823412
vn 0.4379914 -0.7586238 0.4823417
vn 0.4597729 -0.2654504 -0.8474343
vn 0 -5.482447E-07 -1
vn 0.5000011 -0.8660248 1.112673E-07
vn 0 -0.5308977 0.8474358
vn 0 -5.354948E-07 1
vn 0.4379915 -0.7586238 -0.4823416
vn 0 -0.8759829 0.4823422
vn 0.2654485 -0.4597718 -0.8474356
vn 0 -5.482447E-07 -1
vn 0 -1 0
vn -0.2654486 -0.4597718 0.8474355
vn 0 -5.354948E-07 1
vn 0 -0.8759831 -0.4823421
vn -0.4379915 -0.7586237 0.4823417
vn 0 -0.5308977 -0.8474358
vn 0 -5.482447E-07 -1
vn -0.5000011 -0.8660248 0
vn -0.4597733 -0.2654504 0.8474341
vn 0 -5.354948E-07 1
vn -0.4379915 -0.7586237 -0.4823417
vn -0.7586247 -0.4379901 0.4823414
vn -0.5309001 -4.768396E-07 0.8474344
vn 0 -5.354948E-07 1
vn -0.8759833 -5.911862E-07 0.4823414
vn -0.8660268 -0.4999977 0
vn -1 -5.987233E-07 0
vn -0.7586246 -0.4379901 -0.4823414
vn -0.8759834 -5.597959E-07 -0.4823413
vn -0.2654485 -0.4597718 -0.8474356
vn 0 -5.482447E-07 -1
vn -0.4597729 -0.2654505 -0.8474343
vn 0 -5.482447E-07 -1
vn -0.5309002 -4.641578E-07 -0.8474344
vn 0 -5.482447E-07 -1
g Head_0
f 3/3/3 2/2/2 1/1/1
f 1/1/1 2/2/2 4/4/4
f 2/2/2 5/5/5 4/4/4
f 2/2/2 6/6/6 5/5/5
f 7/7/7 6/6/6 2/2/2
f 1/1/1 4/4/4 8/8/8
f 9/9/9 1/1/1 8/8/8
f 10/10/10 1/1/1 9/9/9
f 4/4/4 5/5/5 11/11/11
f 8/8/8 4/4/4 12/12/12
f 4/4/4 11/11/11 12/12/12
f 6/6/6 13/13/13 5/5/5
f 5/5/5 14/14/14 11/11/11
f 5/5/5 13/13/13 14/14/14
f 6/6/6 15/15/15 13/13/13
f 16/16/16 15/15/15 6/6/6
f 9/9/9 8/8/8 17/17/17
f 8/8/8 12/12/12 18/18/18
f 17/17/17 8/8/8 18/18/18
f 19/19/19 9/9/9 17/17/17
f 20/20/20 9/9/9 19/19/19
f 19/19/19 17/17/17 21/21/21
f 22/22/22 19/19/19 21/21/21
f 23/23/23 19/19/19 22/22/22
f 21/21/21 17/17/17 24/24/24
f 17/17/17 18/18/18 24/24/24
f 24/24/24 18/18/18 25/25/25
f 18/18/18 26/26/26 25/25/25
f 18/18/18 12/12/12 26/26/26
f 25/25/25 26/26/26 27/27/27
f 12/12/12 28/28/28 26/26/26
f 12/12/12 11/11/11 28/28/28
f 26/26/26 29/29/29 27/27/27
f 26/26/26 28/28/28 29/29/29
f 27/27/27 29/29/29 30/30/30
f 11/11/11 31/31/31 28/28/28
f 11/11/11 14/14/14 31/31/31
f 28/28/28 32/32/32 29/29/29
f 28/28/28 31/31/31 32/32/32
f 29/29/29 32/32/32 33/33/33
f 31/31/31 34/34/34 32/32/32
f 32/32/32 34/34/34 35/35/35
f 14/14/14 36/36/36 31/31/31
f 31/31/31 36/36/36 34/34/34
f 14/14/14 37/37/37 36/36/36
f 13/13/13 37/37/37 14/14/14
f 36/36/36 38/38/38 34/34/34
f 34/34/34 38/38/38 39/39/39
f 36/36/36 40/40/40 38/38/38
f 37/37/37 40/40/40 36/36/36
f 13/13/13 41/41/41 37/37/37
f 15/15/15 41/41/41 13/13/13
f 40/40/40 42/42/42 38/38/38
f 38/38/38 42/42/42 43/43/43
f 37/37/37 44/44/44 40/40/40
f 41/41/41 44/44/44 37/37/37
f 15/15/15 45/45/45 41/41/41
f 46/46/46 45/45/45 15/15/15
f 40/40/40 47/47/47 42/42/42
f 44/44/44 47/47/47 40/40/40
f 45/45/45 48/48/48 41/41/41
f 41/41/41 48/48/48 44/44/44
f 47/47/47 49/49/49 42/42/42
f 42/42/42 49/49/49 50/50/50
f 44/44/44 51/51/51 47/47/47
f 48/48/48 51/51/51 44/44/44
f 45/45/45 52/52/52 48/48/48
f 53/53/53 52/52/52 45/45/45
f 47/47/47 54/54/54 49/49/49
f 51/51/51 54/54/54 47/47/47
f 52/52/52 55/55/55 48/48/48
f 48/48/48 55/55/55 51/51/51
f 54/54/54 56/56/56 49/49/49
f 49/49/49 56/56/56 57/57/57
f 51/51/51 58/58/58 54/54/54
f 55/55/55 58/58/58 51/51/51
f 52/52/52 59/59/59 55/55/55
f 60/60/60 59/59/59 52/52/52
f 54/54/54 61/61/61 56/56/56
f 58/58/58 61/61/61 54/54/54
f 59/59/59 62/62/62 55/55/55
f 55/55/55 62/62/62 58/58/58
f 61/61/61 63/63/63 56/56/56
f 56/56/56 63/63/63 64/64/64
f 58/58/58 65/65/65 61/61/61
f 62/62/62 65/65/65 58/58/58
f 59/59/59 66/66/66 62/62/62
f 67/67/67 66/66/66 59/59/59
f 61/61/61 68/68/68 63/63/63
f 65/65/65 68/68/68 61/61/61
f 66/66/66 69/69/69 62/62/62
f 62/62/62 69/69/69 65/65/65
f 68/68/68 70/70/70 63/63/63
f 63/63/63 70/70/70 71/71/71
f 65/65/65 72/72/72 68/68/68
f 69/69/69 72/72/72 65/65/65
f 66/66/66 73/73/73 69/69/69
f 74/74/74 73/73/73 66/66/66
f 68/68/68 75/75/75 70/70/70
f 72/72/72 75/75/75 68/68/68
f 73/73/73 76/76/76 69/69/69
f 69/69/69 76/76/76 72/72/72
f 73/73/73 77/77/77 76/76/76
f 78/78/78 77/77/77 73/73/73
f 77/77/77 79/79/79 76/76/76
f 76/76/76 80/80/80 72/72/72
f 76/76/76 79/79/79 80/80/80
f 72/72/72 80/80/80 75/75/75
f 79/79/79 81/81/81 80/80/80
f 80/80/80 81/81/81 82/82/82
f 80/80/80 82/82/82 75/75/75
f 81/81/81 83/83/83 82/82/82
f 75/75/75 84/84/84 70/70/70
f 75/75/75 82/82/82 84/84/84
f 70/70/70 84/84/84 85/85/85
f 82/82/82 83/83/83 86/86/86
f 82/82/82 86/86/86 84/84/84
f 84/84/84 86/86/86 87/87/87
f 83/83/83 88/88/88 86/86/86
f 86/86/86 88/88/88 89/89/89
