g Healing Spire
v 0.1448726 -0.1448735 7.276663
v -3.576279E-07 -4.917383E-07 8.988192
v 0.1448726 0.1448722 7.276663
v -0.1448732 0.1448722 7.276663
v -3.576279E-07 -4.917383E-07 8.988192
v -0.1448732 -0.1448735 7.276663
v -0.1448732 -0.1448735 7.276663
v -3.576279E-07 -4.917383E-07 8.988192
v 0.1448726 -0.1448735 7.276663
v 0.1448726 0.1448722 7.276663
v -3.576279E-07 -4.917383E-07 8.988192
v -0.1448732 0.1448722 7.276663
v -0.9922655 -0.9922661 -0.0183444
v -0.9922655 0.9922645 -0.0183444
v -0.04581535 0.04581475 7.171172
v -0.04581535 -0.04581508 7.171172
v -0.9922655 0.9922645 -0.0183444
v 0.9922649 0.9922645 -0.0183444
v 0.04581448 0.04581475 7.171172
v -0.04581535 0.04581475 7.171172
v 0.9922649 0.9922645 -0.0183444
v 0.9922649 -0.9922661 -0.0183444
v 0.04581448 -0.04581508 7.171172
v 0.04581448 0.04581475 7.171172
v 0.9922649 -0.9922661 -0.0183444
v -0.9922655 -0.9922661 -0.0183444
v -0.04581535 -0.04581508 7.171172
v 0.04581448 -0.04581508 7.171172
v 0.04581448 0.04581475 7.171172
v 0.1448726 0.1448722 7.276663
v -0.1448732 0.1448722 7.276663
v -0.04581535 0.04581475 7.171172
v 0.04581448 -0.04581508 7.171172
v 0.1448726 -0.1448735 7.276663
v 0.1448726 0.1448722 7.276663
v 0.04581448 0.04581475 7.171172
v -0.04581535 0.04581475 7.171172
v -0.1448732 0.1448722 7.276663
v -0.1448732 -0.1448735 7.276663
v -0.04581535 -0.04581508 7.171172
v -0.04581535 -0.04581508 7.171172
v -0.1448732 -0.1448735 7.276663
v 0.1448726 -0.1448735 7.276663
v 0.04581448 -0.04581508 7.171172
vt 0.625 0.7500001
vt 0.625 0.75
vt 0.625 0.5
vt 0.625 0.25
vt 0.625 0.25
vt 0.6249998 0
vt 0.6249999 0.9999999
vt 0.625 1
vt 0.625 0.7500001
vt 0.625 0.5
vt 0.625 0.5
vt 0.625 0.25
vt 0.375 0
vt 0.375 0.25
vt 0.625 0.25
vt 0.6249999 0
vt 0.375 0.25
vt 0.375 0.5
vt 0.625 0.5
vt 0.625 0.25
vt 0.375 0.5
vt 0.375 0.75
vt 0.625 0.7500001
vt 0.625 0.5
vt 0.375 0.75
vt 0.375 1
vt 0.625 1
vt 0.625 0.7500001
vt 0.625 0.5
vt 0.625 0.5
vt 0.625 0.25
vt 0.625 0.25
vt 0.625 0.7500001
vt 0.625 0.7500001
vt 0.625 0.5
vt 0.625 0.5
vt 0.625 0.25
vt 0.625 0.25
vt 0.6249998 0
vt 0.6249999 0
vt 0.625 1
vt 0.6249999 0.9999999
vt 0.625 0.7500001
vt 0.625 0.7500001
vn 0.9964367 0 0.08434378
vn 0.9964367 0 0.08434378
vn 0.9964367 0 0.08434378
vn -0.9964367 0 0.08434366
vn -0.9964367 0 0.08434366
vn -0.9964367 0 0.08434366
vn 0 -0.9964367 0.08434381
vn 0 -0.9964367 0.08434381
vn 0 -0.9964367 0.08434381
vn 0 0.9964367 0.0843436
vn 0 0.9964367 0.0843436
vn 0 0.9964367 0.0843436
vn -0.991446 0 0.130517
vn -0.991446 0 0.130517
vn -0.991446 0 0.130517
vn -0.991446 0 0.130517
vn 0 0.991446 0.130517
vn 0 0.991446 0.130517
vn 0 0.991446 0.130517
vn 0 0.991446 0.130517
vn 0.991446 0 0.1305171
vn 0.991446 0 0.1305171
vn 0.991446 0 0.1305171
vn 0.991446 0 0.1305171
vn 0 -0.991446 0.1305171
vn 0 -0.991446 0.1305171
vn 0 -0.991446 0.1305171
vn 0 -0.991446 0.1305171
vn 0 0.7289886 -0.6845258
vn 0 0.7289886 -0.6845258
vn 0 0.7289886 -0.6845258
vn 0 0.7289886 -0.6845258
vn 0.7289886 0 -0.6845259
vn 0.7289886 0 -0.6845259
vn 0.7289886 0 -0.6845259
vn 0.7289886 0 -0.6845259
vn -0.7289854 0 -0.6845292
vn -0.7289854 0 -0.6845292
vn -0.7289854 0 -0.6845292
vn -0.7289854 0 -0.6845292
vn 0 -0.7289851 -0.6845295
vn 0 -0.7289851 -0.6845295
vn 0 -0.7289851 -0.6845295
vn 0 -0.7289851 -0.6845295
g Healing Spire_0
f 3/3/3 2/2/2 1/1/1
f 6/6/6 5/5/5 4/4/4
f 9/9/9 8/8/8 7/7/7
f 12/12/12 11/11/11 10/10/10
f 15/15/15 14/14/14 13/13/13
f 16/16/16 15/15/15 13/13/13
f 19/19/19 18/18/18 17/17/17
f 20/20/20 19/19/19 17/17/17
f 23/23/23 22/22/22 21/21/21
f 24/24/24 23/23/23 21/21/21
f 27/27/27 26/26/26 25/25/25
f 28/28/28 27/27/27 25/25/25
f 31/31/31 30/30/30 29/29/29
f 32/32/32 31/31/31 29/29/29
f 35/35/35 34/34/34 33/33/33
f 36/36/36 35/35/35 33/33/33
f 39/39/39 38/38/38 37/37/37
f 40/40/40 39/39/39 37/37/37
f 43/43/43 42/42/42 41/41/41
f 44/44/44 43/43/43 41/41/41
