g Hexagon
v 0 1 -0.5
v 0.8660254 0.5 -0.5
v 0.8660254 0.5 0.5
v 0 1 0.5
v 0.8660254 0.5 -0.5
v 0.8660254 -0.5 -0.5
v 0.8660254 -0.5 0.5
v 0.8660254 0.5 0.5
v 0.8660254 -0.5 -0.5
v 0 -1 -0.5
v 0 -1 0.5
v 0.8660254 -0.5 0.5
v 0 -1 -0.5
v -0.8660254 -0.5 -0.5
v -0.8660254 -0.5 0.5
v 0 -1 0.5
v 0 1 0.5
v 0.8660254 0.5 0.5
v 0.8660254 -0.5 0.5
v 0 -1 0.5
v -0.8660254 0.5 0.5
v -0.8660254 -0.5 0.5
v -0.8660254 -0.5 -0.5
v -0.8660254 0.5 -0.5
v -0.8660254 0.5 0.5
v -0.8660254 -0.5 0.5
v -0.8660254 0.5 -0.5
v 0 1 -0.5
v 0 1 0.5
v -0.8660254 0.5 0.5
v 0 -1 -0.5
v 0.8660254 -0.5 -0.5
v 0.8660254 0.5 -0.5
v 0 1 -0.5
v -0.8660254 -0.5 -0.5
v -0.8660254 0.5 -0.5
vt 1 0.5
vt 0.8333333 0.5
vt 0.8333333 1
vt 1 1
vt 0.8333333 0.5
vt 0.6666666 0.5
vt 0.6666666 1
vt 0.8333333 1
vt 0.6666666 0.5
vt 0.4999999 0.5
vt 0.4999999 1
vt 0.6666666 1
vt 0.4999999 0.5
vt 0.3333333 0.5
vt 0.3333333 1
vt 0.4999999 1
vt 0.25 0.49
vt 0.4578461 0.37
vt 0.4578461 0.13
vt 0.25 0.01000001
vt 0.04215391 0.37
vt 0.04215391 0.13
vt 0.3333333 0.5
vt 0.1666666 0.5
vt 0.1666666 1
vt 0.3333333 1
vt 0.1666666 0.5
vt -8.940697E-08 0.5
vt -8.940697E-08 1
vt 0.1666666 1
vt 0.75 0.01000001
vt 0.9578461 0.13
vt 0.9578461 0.37
vt 0.75 0.49
vt 0.5421539 0.13
vt 0.5421539 0.37
vn 0.5 0.8660254 0
vn 0.5 0.8660254 0
vn 0.5 0.8660254 0
vn 0.5 0.8660254 0
vn 1 0 0
vn 1 0 0
vn 1 0 0
vn 1 0 0
vn 0.5 -0.8660254 0
vn 0.5 -0.8660254 0
vn 0.5 -0.8660254 0
vn 0.5 -0.8660254 0
vn -0.5 -0.8660254 0
vn -0.5 -0.8660254 0
vn -0.5 -0.8660254 0
vn -0.5 -0.8660254 0
vn 0 0 1
vn 0 0 1
vn 0 0 1
vn 0 0 1
vn 0 0 1
vn 0 0 1
vn -1 0 0
vn -1 0 0
vn -1 0 0
vn -1 0 0
vn -0.5 0.8660254 0
vn -0.5 0.8660254 0
vn -0.5 0.8660254 0
vn -0.5 0.8660254 0
vn 0 0 -1
vn 0 0 -1
vn 0 0 -1
vn 0 0 -1
vn 0 0 -1
vn 0 0 -1
g Hexagon_0
f 3/3/3 2/2/2 1/1/1
f 4/4/4 3/3/3 1/1/1
f 7/7/7 6/6/6 5/5/5
f 8/8/8 7/7/7 5/5/5
f 11/11/11 10/10/10 9/9/9
f 12/12/12 11/11/11 9/9/9
f 15/15/15 14/14/14 13/13/13
f 16/16/16 15/15/15 13/13/13
f 19/19/19 18/18/18 17/17/17
f 17/17/17 20/20/20 19/19/19
f 17/17/17 21/21/21 20/20/20
f 21/21/21 22/22/22 20/20/20
f 25/25/25 24/24/24 23/23/23
f 26/26/26 25/25/25 23/23/23
f 29/29/29 28/28/28 27/27/27
f 30/30/30 29/29/29 27/27/27
f 33/33/33 32/32/32 31/31/31
f 31/31/31 34/34/34 33/33/33
f 31/31/31 35/35/35 34/34/34
f 35/35/35 36/36/36 34/34/34
