g Iron Castle Motor Part B
v -1 -2.807356 4.768372E-07
v -1 2.80735 4.768372E-07
v -1 2.80735 2
v -1 -2.807356 2
v -1 2.80735 4.768372E-07
v 0.9999995 2.80735 4.768372E-07
v 0.9999995 2.80735 2
v -1 2.80735 2
v 0.9999995 2.80735 4.768372E-07
v 0.9999995 -2.807356 4.768372E-07
v 0.9999995 -2.807356 2
v 0.9999995 2.80735 2
v 0.9999995 -2.807356 4.768372E-07
v -1 -2.807356 4.768372E-07
v -1 -2.807356 2
v 0.9999995 -2.807356 2
v 0.9906293 2.781044 3.15847
v 0.7958207 2.234148 3.412768
v -0.7958212 2.234148 3.412768
v -0.99063 2.781044 3.15847
v 0.7958207 -2.234153 3.412768
v 1.027283 -2.883951 3.830866
v 1.027283 2.883945 3.830866
v 0.7958207 2.234148 3.412768
v 0.9906293 -2.78105 3.15847
v 0.7958207 -2.234153 3.412768
v 0.7958207 2.234148 3.412768
v 0.9906293 2.781044 3.15847
v -0.99063 2.781044 3.15847
v -0.7958212 2.234148 3.412768
v -0.7958212 -2.234153 3.412768
v -0.99063 -2.78105 3.15847
v -0.99063 -2.78105 3.15847
v -0.7958212 -2.234153 3.412768
v 0.7958207 -2.234153 3.412768
v 0.9906293 -2.78105 3.15847
v -1.027284 -2.883951 3.830866
v -0.797076 -2.237676 4.069764
v 0.7970756 -2.237676 4.069764
v 1.027283 -2.883951 3.830866
v -0.7958212 2.234148 3.412768
v -1.027284 2.883945 3.830866
v -1.027284 -2.883951 3.830866
v -0.7958212 -2.234153 3.412768
v -0.7958212 -2.234153 3.412768
v -1.027284 -2.883951 3.830866
v 1.027283 -2.883951 3.830866
v 0.7958207 -2.234153 3.412768
v 0.7958207 2.234148 3.412768
v 1.027283 2.883945 3.830866
v -1.027284 2.883945 3.830866
v -0.7958212 2.234148 3.412768
v 0.7970756 2.237672 4.069764
v 1.002567 2.814559 4.394762
v -1.002568 2.814559 4.394762
v -0.797076 2.237672 4.069764
v 1.027283 2.883945 3.830866
v 0.7970756 2.237672 4.069764
v -0.797076 2.237672 4.069764
v -1.027284 2.883945 3.830866
v 1.027283 -2.883951 3.830866
v 0.7970756 -2.237676 4.069764
v 0.7970756 2.237672 4.069764
v 1.027283 2.883945 3.830866
v -1.027284 2.883945 3.830866
v -0.797076 2.237672 4.069764
v -0.797076 -2.237676 4.069764
v -1.027284 -2.883951 3.830866
v 1.002567 -2.814565 4.394762
v 0.4865623 -1.365955 4.81549
v 0.4865623 1.365952 4.81549
v 1.002567 2.814559 4.394762
v 0.7970756 -2.237676 4.069764
v 1.002567 -2.814565 4.394762
v 1.002567 2.814559 4.394762
v 0.7970756 2.237672 4.069764
v -0.797076 2.237672 4.069764
v -1.002568 2.814559 4.394762
v -1.002568 -2.814565 4.394762
v -0.797076 -2.237676 4.069764
v -0.797076 -2.237676 4.069764
v -1.002568 -2.814565 4.394762
v 1.002567 -2.814565 4.394762
v 0.7970756 -2.237676 4.069764
v 0.4865623 1.365952 4.81549
v 0.4865623 -1.365955 4.81549
v -0.4865627 -1.365955 4.81549
v -0.4865627 1.365952 4.81549
v -1.002568 2.814559 4.394762
v -0.4865627 1.365952 4.81549
v -0.4865627 -1.365955 4.81549
v -1.002568 -2.814565 4.394762
v -1.002568 -2.814565 4.394762
v -0.4865627 -1.365955 4.81549
v 0.4865623 -1.365955 4.81549
v 1.002567 -2.814565 4.394762
v 1.002567 2.814559 4.394762
v 0.4865623 1.365952 4.81549
v -0.4865627 1.365952 4.81549
v -1.002568 2.814559 4.394762
v -0.7916415 -2.222419 2.743795
v -0.99063 -2.78105 3.15847
v 0.9906293 -2.78105 3.15847
v 0.7916408 -2.222419 2.743795
v -0.7916415 2.222414 2.743795
v -0.99063 2.781044 3.15847
v -0.99063 -2.78105 3.15847
v -0.7916415 -2.222419 2.743795
v 0.7916408 -2.222419 2.743795
v 0.9906293 -2.78105 3.15847
v 0.9906293 2.781044 3.15847
v 0.7916408 2.222414 2.743795
v 0.7916408 2.222414 2.743795
v 0.9906293 2.781044 3.15847
v -0.99063 2.781044 3.15847
v -0.7916415 2.222414 2.743795
v 0.9999995 2.80735 2
v 0.7916408 2.222414 2.743795
v -0.7916415 2.222414 2.743795
v -1 2.80735 2
v 0.9999995 -2.807356 2
v 0.7916408 -2.222419 2.743795
v 0.7916408 2.222414 2.743795
v 0.9999995 2.80735 2
v -1 2.80735 2
v -0.7916415 2.222414 2.743795
v -0.7916415 -2.222419 2.743795
v -1 -2.807356 2
v -1 -2.807356 2
v -0.7916415 -2.222419 2.743795
v 0.7916408 -2.222419 2.743795
v 0.9999995 -2.807356 2
vt 0.375 0
vt 0.375 0.25
vt 0.625 0.25
vt 0.625 0
vt 0.375 0.25
vt 0.375 0.5
vt 0.625 0.5
vt 0.625 0.25
vt 0.375 0.5
vt 0.375 0.75
vt 0.625 0.75
vt 0.625 0.5
vt 0.375 0.75
vt 0.375 1
vt 0.625 1
vt 0.625 0.75
vt 0.625 0.5
vt 0.625 0.5
vt 0.625 0.25
vt 0.625 0.25
vt 0.625 0.75
vt 0.625 0.75
vt 0.625 0.5
vt 0.625 0.5
vt 0.625 0.75
vt 0.625 0.75
vt 0.625 0.5
vt 0.625 0.5
vt 0.625 0.25
vt 0.625 0.25
vt 0.625 0
vt 0.6249999 0
vt 0.625 1
vt 0.625 1
vt 0.625 0.75
vt 0.625 0.75
vt 0.625 1
vt 0.625 1
vt 0.625 0.75
vt 0.625 0.75
vt 0.625 0.25
vt 0.625 0.25
vt 0.625 0
vt 0.625 0
vt 0.625 1
vt 0.625 1
vt 0.625 0.75
vt 0.625 0.75
vt 0.625 0.5
vt 0.625 0.5
vt 0.625 0.25
vt 0.625 0.25
vt 0.625 0.5
vt 0.625 0.5
vt 0.625 0.25
vt 0.625 0.25
vt 0.625 0.5
vt 0.625 0.5
vt 0.625 0.25
vt 0.625 0.25
vt 0.625 0.75
vt 0.625 0.75
vt 0.625 0.5
vt 0.625 0.5
vt 0.625 0.25
vt 0.625 0.25
vt 0.625 0
vt 0.625 0
vt 0.625 0.75
vt 0.625 0.75
vt 0.625 0.5
vt 0.625 0.5
vt 0.625 0.75
vt 0.625 0.75
vt 0.625 0.5
vt 0.625 0.5
vt 0.625 0.25
vt 0.625 0.25
vt 0.625 0
vt 0.625 0
vt 0.625 1
vt 0.625 1
vt 0.625 0.75
vt 0.625 0.75
vt 0.625 0.5
vt 0.625 0.75
vt 0.875 0.75
vt 0.875 0.5
vt 0.625 0.25
vt 0.625 0.25
vt 0.625 0
vt 0.625 0
vt 0.625 1
vt 0.625 1
vt 0.625 0.75
vt 0.625 0.75
vt 0.625 0.5
vt 0.625 0.5
vt 0.625 0.25
vt 0.625 0.25
vt 0.6249999 0.9744292
vt 0.625 1
vt 0.625 0.75
vt 0.6249999 0.7244222
vt 0.6249999 0.2244222
vt 0.625 0.25
vt 0.6249999 0
vt 0.6249999 0.0255778
vt 0.6249999 0.7244222
vt 0.625 0.75
vt 0.625 0.5
vt 0.625 0.5255778
vt 0.625 0.5255778
vt 0.625 0.5
vt 0.625 0.25
vt 0.6249999 0.2244222
vt 0.625 0.5
vt 0.625 0.5255778
vt 0.6249999 0.2244222
vt 0.625 0.25
vt 0.625 0.75
vt 0.6249999 0.7244222
vt 0.625 0.5255778
vt 0.625 0.5
vt 0.625 0.25
vt 0.6249999 0.2244222
vt 0.6249999 0.0255778
vt 0.625 0
vt 0.625 1
vt 0.6249999 0.9744292
vt 0.6249999 0.7244222
vt 0.625 0.75
vn -1 0 0
vn -1 0 0
vn -1 0 0
vn -1 0 0
vn 0 1 0
vn 0 1 0
vn 0 1 0
vn 0 1 0
vn 1 0 0
vn 1 0 0
vn 1 0 0
vn 1 0 0
vn 0 -1 0
vn 0 -1 0
vn 0 -1 0
vn 0 -1 0
vn 0 0.4216321 0.9067671
vn 0 0.4216321 0.9067671
vn 0 0.4216321 0.9067671
vn 0 0.4216321 0.9067671
vn 0.8748798 0 -0.48434
vn 0.8748798 0 -0.48434
vn 0.8748798 0 -0.48434
vn 0.8748798 0 -0.48434
vn 0.793837 0 0.6081306
vn 0.793837 0 0.6081306
vn 0.793837 0 0.6081306
vn 0.793837 0 0.6081306
vn -0.7938366 0 0.6081311
vn -0.7938366 0 0.6081311
vn -0.7938366 0 0.6081311
vn -0.7938366 0 0.6081311
vn 0 -0.4216314 0.9067673
vn 0 -0.4216314 0.9067673
vn 0 -0.4216314 0.9067673
vn 0 -0.4216314 0.9067673
vn 0 -0.3467226 0.9379677
vn 0 -0.3467226 0.9379677
vn 0 -0.3467226 0.9379677
vn 0 -0.3467226 0.9379677
vn -0.8748798 0 -0.48434
vn -0.8748798 0 -0.48434
vn -0.8748798 0 -0.48434
vn -0.8748798 0 -0.48434
vn 0 -0.5410974 -0.84096
vn 0 -0.5410974 -0.84096
vn 0 -0.5410974 -0.84096
vn 0 -0.5410974 -0.84096
vn 0 0.5410985 -0.8409593
vn 0 0.5410985 -0.8409593
vn 0 0.5410985 -0.8409593
vn 0 0.5410985 -0.8409593
vn 0 0.4908331 -0.8712536
vn 0 0.4908331 -0.8712536
vn 0 0.4908331 -0.8712536
vn 0 0.4908331 -0.8712536
vn 0 0.3467232 0.9379675
vn 0 0.3467232 0.9379675
vn 0 0.3467232 0.9379675
vn 0 0.3467232 0.9379675
vn 0.7200822 0 0.6938888
vn 0.7200822 0 0.6938888
vn 0.7200822 0 0.6938888
vn 0.7200822 0 0.6938888
vn -0.7200821 0 0.6938888
vn -0.7200821 0 0.6938888
vn -0.7200821 0 0.6938888
vn -0.7200821 0 0.6938888
vn 0.6319259 0 0.7750288
vn 0.6319259 0 0.7750288
vn 0.6319259 0 0.7750288
vn 0.6319259 0 0.7750288
vn 0.845219 0 -0.5344203
vn 0.845219 0 -0.5344203
vn 0.845219 0 -0.5344203
vn 0.845219 0 -0.5344203
vn -0.8452188 0 -0.5344204
vn -0.8452188 0 -0.5344204
vn -0.8452188 0 -0.5344204
vn -0.8452188 0 -0.5344204
vn 0 -0.4908326 -0.8712539
vn 0 -0.4908326 -0.8712539
vn 0 -0.4908326 -0.8712539
vn 0 -0.4908326 -0.8712539
vn 0 0 1
vn 0 0 1
vn 0 0 1
vn 0 0 1
vn -0.6319257 0 0.775029
vn -0.6319257 0 0.775029
vn -0.6319257 0 0.775029
vn -0.6319257 0 0.775029
vn 0 -0.2789107 0.9603171
vn 0 -0.2789107 0.9603171
vn 0 -0.2789107 0.9603171
vn 0 -0.2789107 0.9603171
vn 0 0.2789112 0.9603169
vn 0 0.2789112 0.9603169
vn 0 0.2789112 0.9603169
vn 0 0.2789112 0.9603169
vn 0 -0.5960383 -0.802956
vn 0 -0.5960383 -0.802956
vn 0 -0.5960383 -0.802956
vn 0 -0.5960383 -0.802956
vn -0.9015703 0 -0.432633
vn -0.9015703 0 -0.432633
vn -0.9015703 0 -0.432633
vn -0.9015703 0 -0.432633
vn 0.9015703 0 -0.4326328
vn 0.9015703 0 -0.4326328
vn 0.9015703 0 -0.4326328
vn 0.9015703 0 -0.4326328
vn 0 0.5960392 -0.8029553
vn 0 0.5960392 -0.8029553
vn 0 0.5960392 -0.8029553
vn 0 0.5960392 -0.8029553
vn 0 0.786048 0.6181656
vn 0 0.786048 0.6181656
vn 0 0.786048 0.6181656
vn 0 0.786048 0.6181656
vn 0.9629316 0 0.2697456
vn 0.9629316 0 0.2697456
vn 0.9629316 0 0.2697456
vn 0.9629316 0 0.2697456
vn -0.9629316 0 0.269746
vn -0.9629316 0 0.269746
vn -0.9629316 0 0.269746
vn -0.9629316 0 0.269746
vn 0 -0.7860473 0.6181664
vn 0 -0.7860473 0.6181664
vn 0 -0.7860473 0.6181664
vn 0 -0.7860473 0.6181664
g Iron Castle Motor Part B_0
f 3/3/3 2/2/2 1/1/1
f 4/4/4 3/3/3 1/1/1
f 7/7/7 6/6/6 5/5/5
f 8/8/8 7/7/7 5/5/5
f 11/11/11 10/10/10 9/9/9
f 12/12/12 11/11/11 9/9/9
f 15/15/15 14/14/14 13/13/13
f 16/16/16 15/15/15 13/13/13
f 19/19/19 18/18/18 17/17/17
f 20/20/20 19/19/19 17/17/17
f 23/23/23 22/22/22 21/21/21
f 24/24/24 23/23/23 21/21/21
f 27/27/27 26/26/26 25/25/25
f 28/28/28 27/27/27 25/25/25
f 31/31/31 30/30/30 29/29/29
f 32/32/32 31/31/31 29/29/29
f 35/35/35 34/34/34 33/33/33
f 36/36/36 35/35/35 33/33/33
f 39/39/39 38/38/38 37/37/37
f 40/40/40 39/39/39 37/37/37
f 43/43/43 42/42/42 41/41/41
f 44/44/44 43/43/43 41/41/41
f 47/47/47 46/46/46 45/45/45
f 48/48/48 47/47/47 45/45/45
f 51/51/51 50/50/50 49/49/49
f 52/52/52 51/51/51 49/49/49
f 55/55/55 54/54/54 53/53/53
f 56/56/56 55/55/55 53/53/53
f 59/59/59 58/58/58 57/57/57
f 60/60/60 59/59/59 57/57/57
f 63/63/63 62/62/62 61/61/61
f 64/64/64 63/63/63 61/61/61
f 67/67/67 66/66/66 65/65/65
f 68/68/68 67/67/67 65/65/65
f 71/71/71 70/70/70 69/69/69
f 72/72/72 71/71/71 69/69/69
f 75/75/75 74/74/74 73/73/73
f 76/76/76 75/75/75 73/73/73
f 79/79/79 78/78/78 77/77/77
f 80/80/80 79/79/79 77/77/77
f 83/83/83 82/82/82 81/81/81
f 84/84/84 83/83/83 81/81/81
f 87/87/87 86/86/86 85/85/85
f 88/88/88 87/87/87 85/85/85
f 91/91/91 90/90/90 89/89/89
f 92/92/92 91/91/91 89/89/89
f 95/95/95 94/94/94 93/93/93
f 96/96/96 95/95/95 93/93/93
f 99/99/99 98/98/98 97/97/97
f 100/100/100 99/99/99 97/97/97
f 103/103/103 102/102/102 101/101/101
f 104/104/104 103/103/103 101/101/101
f 107/107/107 106/106/106 105/105/105
f 108/108/108 107/107/107 105/105/105
f 111/111/111 110/110/110 109/109/109
f 112/112/112 111/111/111 109/109/109
f 115/115/115 114/114/114 113/113/113
f 116/116/116 115/115/115 113/113/113
f 119/119/119 118/118/118 117/117/117
f 120/120/120 119/119/119 117/117/117
f 123/123/123 122/122/122 121/121/121
f 124/124/124 123/123/123 121/121/121
f 127/127/127 126/126/126 125/125/125
f 128/128/128 127/127/127 125/125/125
f 131/131/131 130/130/130 129/129/129
f 132/132/132 131/131/131 129/129/129
