g Iron Castle Exhaust Small
v -0.3190513 0.7702646 0
v 4.768372E-07 0.8337281 0
v 9.536743E-07 1.46945 6.042041
v -0.5623317 1.357596 6.042041
v -0.5895295 0.5895369 0
v -0.7124572 1.357596 6.895489
v -0.1606407 1.46945 7.003733
v -1.039055 1.03906 6.042041
v -0.7702579 0.3190582 0
v -1.409888 1.357596 7.541476
v -0.948791 1.46945 7.863356
v -1.180264 1.03906 6.803725
v -1.357591 0.5623372 6.042041
v -0.8337212 6.914139E-06 0
v -2.271712 1.261753 7.859028
v -2.291811 1.365712 8.381273
v -2.254672 0.9657049 7.416289
v -1.800788 1.03906 7.268597
v -2.243286 0.5226381 7.120461
v -2.061979 0.5623372 7.086268
v -2.239287 4.768372E-06 7.016579
v -1.492843 0.5623372 6.742409
v -1.492843 0.5623372 6.742409
v -1.602606 4.529953E-06 6.720879
v -2.153698 4.529953E-06 7.022242
v -2.243286 -0.5226285 7.120461
v -1.602606 4.529953E-06 6.720879
v -1.469446 4.529953E-06 6.042041
v -1.492843 -0.5623283 6.742409
v -0.7702579 -0.3190446 0
v -2.061979 -0.5623283 7.086268
v -2.254672 -0.9656954 7.416289
v -1.492843 -0.5623283 6.742409
v -1.357591 -0.5623283 6.042041
v -0.5895295 -0.5895228 0
v -1.180264 -1.039051 6.803725
v -1.800788 -1.039051 7.268597
v -2.271712 -1.261743 7.859028
v -1.039055 -1.039051 6.042041
v -0.3190513 -0.7702513 0
v -1.409888 -1.357587 7.541476
v -2.291811 -1.365701 8.381273
v -0.5623317 -1.357587 6.042041
v 4.768372E-07 -0.8337145 0
v -0.7124572 -1.357587 6.895489
v -0.948791 -1.469442 7.863356
v -2.311913 -1.261743 8.903521
v 9.536743E-07 -1.469442 6.042041
v 0.3190517 -0.7702513 0
v -0.1606407 -1.469442 7.003733
v -0.4876928 -1.357587 8.185236
v -2.328952 -0.9656954 9.346262
v 0.5623341 -1.357587 6.042041
v 0.5895305 -0.5895228 0
v 0.3911762 -1.357587 7.111979
v -0.09679365 -1.039051 8.458113
v -2.340339 -0.5226285 9.64209
v 1.039057 -1.039051 6.042041
v 0.7702584 -0.3190446 0
v 0.858983 -1.039051 7.203743
v 0.1643977 -0.5623283 8.640444
v -2.344335 4.768372E-06 9.74597
v 0.2561154 4.529953E-06 8.70447
v -2.340339 0.5226381 9.64209
v 0.1643977 0.5623372 8.640444
v -2.328952 0.9657049 9.346262
v 1.171563 -0.5623283 7.265059
v 0.2561154 4.529953E-06 8.70447
v 1.357593 -0.5623283 6.042041
v 0.8337212 6.914139E-06 0
v 1.281325 4.529953E-06 7.286591
v 1.469448 4.529953E-06 6.042041
v 0.7702584 0.3190582 0
v -0.09679365 1.03906 8.458113
v -2.311913 1.261753 8.903521
v 1.171563 0.5623372 7.265059
v 1.357593 0.5623372 6.042041
v 0.5895305 0.5895369 0
v -0.4876928 1.357596 8.185236
v -2.291811 1.365712 8.381273
v -0.948791 1.46945 7.863356
v 0.858983 1.03906 7.203743
v 1.039057 1.03906 6.042041
v 0.3190517 0.7702646 0
v 0.3911762 1.357596 7.111979
v -0.1606407 1.46945 7.003733
v 0.5623341 1.357596 6.042041
v 4.768372E-07 0.8337281 0
v 9.536743E-07 1.46945 6.042041
v 0.7702584 -0.3190446 0
v 0.8337212 6.914139E-06 0
v 0.7702584 0.3190582 0
v 0.5895305 -0.5895228 0
v 0.5895305 0.5895369 0
v 0.3190517 -0.7702513 0
v 0.3190517 0.7702646 0
v 4.768372E-07 -0.8337145 0
v 4.768372E-07 0.8337281 0
v -0.3190513 -0.7702513 0
v -0.3190513 0.7702646 0
v -0.5895295 -0.5895228 0
v -0.5895295 0.5895369 0
v -0.7702579 -0.3190446 0
v -0.7702579 0.3190582 0
v -0.8337212 6.914139E-06 0
v -0.8471775 -0.5602238 8.669102
v -0.8382521 -0.6063821 8.437218
v -0.8293285 -0.5602238 8.205336
v -0.854743 -0.428776 8.865683
v -0.8217616 -0.428776 8.008757
v -0.8597984 -0.2320507 8.997032
v -0.8167067 -0.2320504 7.877406
v -0.8615732 3.33786E-06 9.043154
v -0.8149309 3.33786E-06 7.831282
v -0.8597989 0.2320573 8.997032
v -0.8167067 0.2320573 7.877406
v -0.854743 0.4287827 8.865683
v -0.8217616 0.4287827 8.008757
v -0.8471775 0.5602305 8.669102
v -0.8293285 0.5602305 8.205336
v -0.8382521 0.6063888 8.437218
v -2.327763 0.3871884 9.315327
v -0.8597989 0.2320573 8.997032
v -0.854743 0.4287827 8.865683
v -2.319326 0.7154255 9.096167
v -2.330723 4.768372E-06 9.392282
v -0.8471775 0.5602305 8.669102
v -0.8615732 3.33786E-06 9.043154
v -2.306704 0.9347472 8.768171
v -2.327762 -0.3871787 9.315327
v -0.8382521 0.6063888 8.437218
v -0.8597984 -0.2320507 8.997032
v -2.291811 1.011763 8.381273
v -2.319326 -0.7154157 9.096167
v -0.8293285 0.5602305 8.205336
v -0.854743 -0.428776 8.865683
v -2.276922 0.9347472 7.994378
v -2.306704 -0.9347372 8.768171
v -0.8217616 0.4287827 8.008757
v -0.8471775 -0.5602238 8.669102
v -2.264297 0.7154255 7.666382
v -2.291811 -1.011753 8.381273
v -0.8167067 0.2320573 7.877406
v -0.8382521 -0.6063821 8.437218
v -2.255863 0.387188 7.447224
v -2.276922 -0.9347372 7.994378
v -0.8149309 3.33786E-06 7.831282
v -0.8293285 -0.5602238 8.205336
v -2.252899 4.768372E-06 7.370266
v -2.264297 -0.715416 7.666382
v -0.8167067 -0.2320504 7.877406
v -0.8217616 -0.428776 8.008757
v -2.255863 -0.3871784 7.447224
v -2.264297 0.7154255 7.666382
v -2.254672 0.9657049 7.416289
v -2.271712 1.261753 7.859028
v -2.255863 0.387188 7.447224
v -2.276922 0.9347472 7.994378
v -2.243286 0.5226381 7.120461
v -2.291811 1.365712 8.381273
v -2.252899 4.768372E-06 7.370266
v -2.291811 1.011763 8.381273
v -2.239287 4.768372E-06 7.016579
v -2.311913 1.261753 8.903521
v -2.255863 -0.3871784 7.447224
v -2.306704 0.9347472 8.768171
v -2.243286 -0.5226285 7.120461
v -2.328952 0.9657049 9.346262
v -2.264297 -0.715416 7.666382
v -2.319326 0.7154255 9.096167
v -2.254672 -0.9656954 7.416289
v -2.340339 0.5226381 9.64209
v -2.276922 -0.9347372 7.994378
v -2.327763 0.3871884 9.315327
v -2.271712 -1.261743 7.859028
v -2.344335 4.768372E-06 9.74597
v -2.291811 -1.011753 8.381273
v -2.330723 4.768372E-06 9.392282
v -2.291811 -1.365701 8.381273
v -2.340339 -0.5226285 9.64209
v -2.306704 -0.9347372 8.768171
v -2.327762 -0.3871787 9.315327
v -2.311913 -1.261743 8.903521
v -2.328952 -0.9656954 9.346262
v -2.319326 -0.7154157 9.096167
vt 0.0625 0.5
vt 0 0.5
vt 0 1
vt 0.0625 1
vt 0.125 0.5
vt 0.0625 1
vt 0 1
vt 0.125 1
vt 0.1875 0.5
vt 0.0625 1
vt 0 1
vt 0.125 1
vt 0.1875 1
vt 0.25 0.5
vt 0.0625 1
vt 0 1
vt 0.125 1
vt 0.125 1
vt 0.1875 1
vt 0.1875 1
vt 0.25 1
vt 0.1875 1
vt 0.1875 1
vt 0.25 1
vt 0.25 1
vt 0.3125 1
vt 0.25 1
vt 0.25 1
vt 0.3125 1
vt 0.3125 0.5
vt 0.3125 1
vt 0.375 1
vt 0.3125 1
vt 0.3125 1
vt 0.375 0.5
vt 0.375 1
vt 0.375 1
vt 0.4375 1
vt 0.375 1
vt 0.4375 0.5
vt 0.4375 1
vt 0.5 1
vt 0.4375 1
vt 0.5 0.5
vt 0.4375 1
vt 0.5 1
vt 0.5625 1
vt 0.5 1
vt 0.5625 0.5
vt 0.5 1
vt 0.5625 1
vt 0.625 1
vt 0.5625 1
vt 0.625 0.5
vt 0.5625 1
vt 0.625 1
vt 0.6875 1
vt 0.625 1
vt 0.6875 0.5
vt 0.625 1
vt 0.6875 1
vt 0.75 1
vt 0.75 1
vt 0.8125 1
vt 0.8125 1
vt 0.875 1
vt 0.6875 1
vt 0.75 1
vt 0.6875 1
vt 0.75 0.5
vt 0.75 1
vt 0.75 1
vt 0.8125 0.5
vt 0.875 1
vt 0.9375 1
vt 0.8125 1
vt 0.8125 1
vt 0.875 0.5
vt 0.9375 1
vt 1 1
vt 1 1
vt 0.875 1
vt 0.875 1
vt 0.9375 0.5
vt 0.9375 1
vt 1 1
vt 0.9375 1
vt 1 0.5
vt 1 1
vt 0.9717311 0.158156
vt 0.99 0.25
vt 0.9717311 0.341844
vt 0.9197056 0.08029439
vt 0.9197056 0.4197056
vt 0.841844 0.02826892
vt 0.841844 0.4717311
vt 0.75 0.01000001
vt 0.75 0.49
vt 0.658156 0.02826892
vt 0.658156 0.4717311
vt 0.5802944 0.08029439
vt 0.5802944 0.4197056
vt 0.5282689 0.158156
vt 0.5282689 0.341844
vt 0.51 0.25
vt 0.3180411 0.08573472
vt 0.25 0.07220054
vt 0.181959 0.08573474
vt 0.3757234 0.1242768
vt 0.1242768 0.1242768
vt 0.4142654 0.181959
vt 0.08573474 0.181959
vt 0.4277993 0.25
vt 0.07220066 0.25
vt 0.4142654 0.318041
vt 0.08573483 0.3180409
vt 0.3757234 0.3757232
vt 0.1242768 0.3757232
vt 0.3180411 0.4142653
vt 0.181959 0.4142653
vt 0.25 0.4277995
vt 0.4142654 0.318041
vt 0.4142654 0.318041
vt 0.3757234 0.3757232
vt 0.3757234 0.3757232
vt 0.4277993 0.25
vt 0.3180411 0.4142653
vt 0.4277993 0.25
vt 0.3180411 0.4142653
vt 0.4142654 0.181959
vt 0.25 0.4277995
vt 0.4142654 0.181959
vt 0.25 0.4277995
vt 0.3757234 0.1242768
vt 0.181959 0.4142653
vt 0.3757234 0.1242768
vt 0.181959 0.4142653
vt 0.3180411 0.08573472
vt 0.1242768 0.3757232
vt 0.3180411 0.08573472
vt 0.1242768 0.3757232
vt 0.25 0.07220054
vt 0.08573483 0.3180409
vt 0.25 0.07220054
vt 0.08573483 0.3180409
vt 0.181959 0.08573474
vt 0.07220066 0.25
vt 0.181959 0.08573474
vt 0.07220066 0.25
vt 0.1242768 0.1242768
vt 0.08573474 0.181959
vt 0.1242768 0.1242768
vt 0.08573474 0.181959
vt 0.1242768 0.3757232
vt 0.08029439 0.4197056
vt 0.158156 0.4717311
vt 0.08573483 0.3180409
vt 0.181959 0.4142653
vt 0.02826892 0.341844
vt 0.25 0.49
vt 0.07220066 0.25
vt 0.25 0.4277995
vt 0.01000001 0.25
vt 0.341844 0.4717311
vt 0.08573474 0.181959
vt 0.3180411 0.4142653
vt 0.02826892 0.158156
vt 0.4197056 0.4197056
vt 0.1242768 0.1242768
vt 0.3757234 0.3757232
vt 0.08029439 0.08029439
vt 0.4717311 0.341844
vt 0.181959 0.08573474
vt 0.4142654 0.318041
vt 0.158156 0.02826892
vt 0.49 0.25
vt 0.25 0.07220054
vt 0.4277993 0.25
vt 0.25 0.01000001
vt 0.4717311 0.158156
vt 0.3180411 0.08573472
vt 0.4142654 0.181959
vt 0.341844 0.02826892
vt 0.4197056 0.08029439
vt 0.3757234 0.1242768
vn -0.3805822 0.9188078 -0.1046389
vn 0 0.9945103 -0.1046389
vn 0.01032313 0.9986591 -0.05072858
vn -0.3707604 0.9249053 -0.0841838
vn -0.7032248 0.7032251 -0.104639
vn -0.307252 0.9371732 -0.1652349
vn 0.0303559 0.9993104 0.02138176
vn -0.695039 0.709532 -0.116125
vn -0.9188075 0.3805829 -0.1046391
vn -0.2465001 0.9173887 -0.3124672
vn -0.01902419 0.9988167 0.04475811
vn -0.5820665 0.7250772 -0.3680512
vn -0.9124029 0.3846506 -0.1398741
vn -0.9945102 0 -0.1046393
vn -0.2128187 0.9221685 -0.3229761
vn -0.03942929 0.9956722 0.08415613
vn -0.309914 0.6750595 -0.6695132
vn -0.3809472 0.6742198 -0.6326981
vn -0.222838 0.3290376 -0.9176477
vn -0.3746399 0.3526391 -0.8574909
vn -0.1303729 0 -0.991465
vn -0.9083292 0.3801312 -0.1744657
vn -0.5005556 0.3502427 -0.7916908
vn -0.9815844 0 -0.1910291
vn -0.3061155 0 -0.9519944
vn -0.2228385 -0.3290373 -0.9176477
vn -0.499105 0 -0.8665416
vn -0.9888716 0 -0.1487712
vn -0.9083292 -0.3801312 -0.1744657
vn -0.9188074 -0.380583 -0.1046394
vn -0.3746406 -0.3526393 -0.8574905
vn -0.3099144 -0.6750597 -0.6695129
vn -0.5005558 -0.3502427 -0.7916906
vn -0.9124029 -0.3846507 -0.1398743
vn -0.7032247 -0.7032251 -0.1046395
vn -0.5820665 -0.7250773 -0.368051
vn -0.3809473 -0.6742201 -0.6326977
vn -0.2128189 -0.9221686 -0.3229756
vn -0.6950389 -0.7095321 -0.1161252
vn -0.3805826 -0.9188076 -0.1046396
vn -0.2465003 -0.9173886 -0.312467
vn -0.03942993 -0.9956721 0.08415643
vn -0.3707607 -0.9249051 -0.0841841
vn 0 -0.9945102 -0.1046397
vn -0.3072524 -0.9371731 -0.1652351
vn -0.01902455 -0.9988167 0.04475825
vn 0.1367205 -0.8778947 0.4589209
vn 0.01032318 -0.9986591 -0.05072892
vn 0.3805826 -0.9188076 -0.1046397
vn 0.03035602 -0.9993104 0.02138192
vn 0.2284142 -0.9040964 0.3611599
vn 0.2691989 -0.629876 0.7285521
vn 0.3900068 -0.9205793 -0.02069628
vn 0.7032249 -0.7032249 -0.1046397
vn 0.3720332 -0.9120547 0.1724751
vn 0.4374001 -0.6739225 0.5954071
vn 0.3458205 -0.3237832 0.8806659
vn 0.7108598 -0.7033287 0.002685986
vn 0.9188077 -0.3805824 -0.1046396
vn 0.6631324 -0.6927693 0.283419
vn 0.5741689 -0.3577166 0.736457
vn 0.3703941 0 0.9288747
vn 0.3703942 0 0.9288747
vn 0.3458208 0.3237832 0.8806658
vn 0.574169 0.3577166 0.736457
vn 0.269199 0.6298758 0.7285522
vn 0.8584038 -0.3735049 0.3516205
vn 0.8086107 0 0.588344
vn 0.9247387 -0.3802033 0.01743186
vn 0.9945102 0 -0.1046395
vn 0.9271468 0 0.3746984
vn 0.9997477 0 0.02246203
vn 0.9188078 0.3805822 -0.1046393
vn 0.4374004 0.6739223 0.5954071
vn 0.1367211 0.8778946 0.4589209
vn 0.8584038 0.3735049 0.3516206
vn 0.9247387 0.3802032 0.01743202
vn 0.7032249 0.703225 -0.1046392
vn 0.2284145 0.9040964 0.3611598
vn -0.03942929 0.9956722 0.08415613
vn -0.01902419 0.9988167 0.04475811
vn 0.6631325 0.692769 0.283419
vn 0.7108598 0.7033285 0.002686274
vn 0.3805822 0.9188078 -0.104639
vn 0.3720332 0.9120547 0.172475
vn 0.0303559 0.9993104 0.02138176
vn 0.3900066 0.9205794 -0.02069598
vn 0 0.9945103 -0.1046389
vn 0.01032313 0.9986591 -0.05072858
vn 0 0 -1
vn 0 0 -1
vn 0 0 -1
vn 0 0 -1
vn 0 0 -1
vn 0 0 -1
vn 0 0 -1
vn 0 0 -1
vn 0 0 -1
vn 0 0 -1
vn 0 0 -1
vn 0 0 -1
vn 0 0 -1
vn 0 0 -1
vn 0 0 -1
vn 0 0 -1
vn -0.9992601 0 -0.03845933
vn -0.9992601 0 -0.03845933
vn -0.9992601 0 -0.03845933
vn -0.9992601 0 -0.03845933
vn -0.9992601 0 -0.03845933
vn -0.9992601 0 -0.03845933
vn -0.9992601 0 -0.03845933
vn -0.9992601 0 -0.03845933
vn -0.9992601 0 -0.03845933
vn -0.9992601 0 -0.03845933
vn -0.9992601 0 -0.03845933
vn -0.9992601 0 -0.03845933
vn -0.9992601 0 -0.03845933
vn -0.9992601 0 -0.03845933
vn -0.9992601 0 -0.03845933
vn -0.9992601 0 -0.03845933
vn -0.234022 -0.3686335 -0.899635
vn -0.234022 -0.3686329 -0.8996352
vn -0.2420525 -0.6811522 -0.6909719
vn -0.2420525 -0.6811524 -0.6909718
vn -0.2312007 0 -0.9729061
vn -0.2540713 -0.8899682 -0.3786877
vn -0.2312007 0 -0.9729061
vn -0.2540713 -0.8899681 -0.3786878
vn -0.2340209 0.3686334 -0.8996352
vn -0.2682497 -0.963294 -0.01032363
vn -0.2340209 0.3686332 -0.8996353
vn -0.2682498 -0.963294 -0.01032352
vn -0.2420511 0.6811529 -0.6909718
vn -0.282427 -0.8899674 0.3580404
vn -0.2420511 0.6811529 -0.6909718
vn -0.282427 -0.8899674 0.3580403
vn -0.2540699 0.8899686 -0.3786878
vn -0.2944455 -0.6811516 0.670324
vn -0.2540699 0.8899687 -0.3786875
vn -0.2944455 -0.6811518 0.6703238
vn -0.2682474 0.9632948 -0.01032338
vn -0.3024758 -0.3686357 0.8789858
vn -0.2682474 0.9632948 -0.01032348
vn -0.3024758 -0.3686363 0.8789856
vn -0.2824247 0.8899681 0.3580405
vn -0.3052956 0 0.9522576
vn -0.2824247 0.8899682 0.3580404
vn -0.3052956 0 0.9522576
vn -0.2944442 0.681152 0.6703242
vn -0.3024754 0.368636 0.8789859
vn -0.2944442 0.681152 0.6703242
vn -0.3024754 0.3686362 0.8789858
vn -0.9992601 0 -0.03846018
vn -0.9992601 0 -0.03846018
vn -0.9992602 0 -0.03845834
vn -0.9992601 0 -0.03845963
vn -0.9992602 0 -0.03845834
vn -0.9992601 0 -0.03845963
vn -0.9992601 0 -0.03845922
vn -0.9992601 0 -0.03845963
vn -0.9992601 0 -0.03845922
vn -0.9992601 0 -0.03845963
vn -0.9992601 0 -0.03845992
vn -0.9992601 0 -0.03845966
vn -0.9992601 0 -0.03845992
vn -0.9992601 0 -0.03845966
vn -0.9992601 0 -0.03845872
vn -0.9992601 0 -0.03846018
vn -0.9992601 0 -0.03845872
vn -0.9992601 0 -0.03846018
vn -0.9992601 0 -0.0384585
vn -0.9992601 0 -0.03845834
vn -0.9992601 0 -0.0384585
vn -0.9992601 0 -0.03845834
vn -0.9992602 0 -0.03845767
vn -0.9992601 0 -0.03845926
vn -0.9992602 0 -0.03845767
vn -0.9992601 0 -0.03845926
vn -0.9992601 0 -0.03845957
vn -0.9992601 0 -0.0384599
vn -0.9992601 0 -0.03845957
vn -0.9992601 0 -0.0384599
vn -0.9992601 0 -0.038459
vn -0.9992601 0 -0.038459
g Iron Castle Exhaust Small_0
f 3/3/3 2/2/2 1/1/1
f 4/4/4 3/3/3 1/1/1
f 4/4/4 1/1/1 5/5/5
f 4/4/4 6/6/6 3/3/3
f 6/6/6 7/7/7 3/3/3
f 8/8/8 4/4/4 5/5/5
f 8/8/8 5/5/5 9/9/9
f 6/6/6 10/10/10 7/7/7
f 10/10/10 11/11/11 7/7/7
f 12/12/12 6/6/6 4/4/4
f 8/8/8 12/12/12 4/4/4
f 13/13/13 8/8/8 9/9/9
f 13/13/13 9/9/9 14/14/14
f 10/10/10 15/15/15 11/11/11
f 15/15/15 16/16/16 11/11/11
f 17/17/17 15/15/15 10/10/10
f 18/18/18 10/10/10 6/6/6
f 18/18/18 17/17/17 10/10/10
f 12/12/12 18/18/18 6/6/6
f 19/19/19 17/17/17 18/18/18
f 20/20/20 19/19/19 18/18/18
f 20/20/20 18/18/18 12/12/12
f 21/21/21 19/19/19 20/20/20
f 22/22/22 12/12/12 8/8/8
f 13/13/13 22/22/22 8/8/8
f 23/23/23 20/20/20 12/12/12
f 24/24/24 22/22/22 13/13/13
f 25/25/25 21/21/21 20/20/20
f 25/25/25 20/20/20 23/23/23
f 26/26/26 21/21/21 25/25/25
f 27/27/27 25/25/25 23/23/23
f 28/28/28 24/24/24 13/13/13
f 28/28/28 13/13/13 14/14/14
f 29/29/29 24/24/24 28/28/28
f 28/28/28 14/14/14 30/30/30
f 31/31/31 26/26/26 25/25/25
f 31/31/31 25/25/25 27/27/27
f 32/32/32 26/26/26 31/31/31
f 33/33/33 31/31/31 27/27/27
f 34/34/34 29/29/29 28/28/28
f 34/34/34 28/28/28 30/30/30
f 34/34/34 30/30/30 35/35/35
f 36/36/36 29/29/29 34/34/34
f 37/37/37 32/32/32 31/31/31
f 37/37/37 31/31/31 33/33/33
f 36/36/36 37/37/37 33/33/33
f 38/38/38 32/32/32 37/37/37
f 39/39/39 34/34/34 35/35/35
f 39/39/39 36/36/36 34/34/34
f 39/39/39 35/35/35 40/40/40
f 41/41/41 38/38/38 37/37/37
f 41/41/41 37/37/37 36/36/36
f 42/42/42 38/38/38 41/41/41
f 43/43/43 39/39/39 40/40/40
f 43/43/43 40/40/40 44/44/44
f 45/45/45 36/36/36 39/39/39
f 45/45/45 41/41/41 36/36/36
f 43/43/43 45/45/45 39/39/39
f 46/46/46 42/42/42 41/41/41
f 46/46/46 41/41/41 45/45/45
f 47/47/47 42/42/42 46/46/46
f 48/48/48 43/43/43 44/44/44
f 48/48/48 44/44/44 49/49/49
f 50/50/50 45/45/45 43/43/43
f 50/50/50 46/46/46 45/45/45
f 48/48/48 50/50/50 43/43/43
f 51/51/51 47/47/47 46/46/46
f 51/51/51 46/46/46 50/50/50
f 52/52/52 47/47/47 51/51/51
f 53/53/53 48/48/48 49/49/49
f 53/53/53 49/49/49 54/54/54
f 55/55/55 50/50/50 48/48/48
f 55/55/55 51/51/51 50/50/50
f 53/53/53 55/55/55 48/48/48
f 56/56/56 52/52/52 51/51/51
f 56/56/56 51/51/51 55/55/55
f 57/57/57 52/52/52 56/56/56
f 58/58/58 53/53/53 54/54/54
f 58/58/58 54/54/54 59/59/59
f 60/60/60 55/55/55 53/53/53
f 60/60/60 56/56/56 55/55/55
f 58/58/58 60/60/60 53/53/53
f 61/61/61 57/57/57 56/56/56
f 61/61/61 56/56/56 60/60/60
f 62/62/62 57/57/57 61/61/61
f 63/63/63 62/62/62 61/61/61
f 64/64/64 62/62/62 63/63/63
f 65/65/65 64/64/64 63/63/63
f 66/66/66 64/64/64 65/65/65
f 67/67/67 61/61/61 60/60/60
f 67/67/67 60/60/60 58/58/58
f 68/68/68 61/61/61 67/67/67
f 69/69/69 58/58/58 59/59/59
f 69/69/69 67/67/67 58/58/58
f 69/69/69 59/59/59 70/70/70
f 71/71/71 68/68/68 67/67/67
f 71/71/71 67/67/67 69/69/69
f 65/65/65 68/68/68 71/71/71
f 72/72/72 69/69/69 70/70/70
f 72/72/72 71/71/71 69/69/69
f 72/72/72 70/70/70 73/73/73
f 74/74/74 66/66/66 65/65/65
f 75/75/75 66/66/66 74/74/74
f 76/76/76 65/65/65 71/71/71
f 76/76/76 71/71/71 72/72/72
f 74/74/74 65/65/65 76/76/76
f 77/77/77 72/72/72 73/73/73
f 77/77/77 76/76/76 72/72/72
f 77/77/77 73/73/73 78/78/78
f 79/79/79 75/75/75 74/74/74
f 80/80/80 75/75/75 79/79/79
f 81/81/81 80/80/80 79/79/79
f 82/82/82 74/74/74 76/76/76
f 82/82/82 76/76/76 77/77/77
f 79/79/79 74/74/74 82/82/82
f 83/83/83 77/77/77 78/78/78
f 83/83/83 82/82/82 77/77/77
f 83/83/83 78/78/78 84/84/84
f 81/81/81 79/79/79 85/85/85
f 85/85/85 79/79/79 82/82/82
f 85/85/85 82/82/82 83/83/83
f 86/86/86 81/81/81 85/85/85
f 87/87/87 83/83/83 84/84/84
f 87/87/87 85/85/85 83/83/83
f 86/86/86 85/85/85 87/87/87
f 87/87/87 84/84/84 88/88/88
f 89/89/89 86/86/86 87/87/87
f 89/89/89 87/87/87 88/88/88
f 92/92/92 91/91/91 90/90/90
f 90/90/90 93/93/93 92/92/92
f 93/93/93 94/94/94 92/92/92
f 93/93/93 95/95/95 94/94/94
f 95/95/95 96/96/96 94/94/94
f 95/95/95 97/97/97 96/96/96
f 97/97/97 98/98/98 96/96/96
f 97/97/97 99/99/99 98/98/98
f 99/99/99 100/100/100 98/98/98
f 99/99/99 101/101/101 100/100/100
f 101/101/101 102/102/102 100/100/100
f 101/101/101 103/103/103 102/102/102
f 103/103/103 104/104/104 102/102/102
f 103/103/103 105/105/105 104/104/104
f 108/108/108 107/107/107 106/106/106
f 106/106/106 109/109/109 108/108/108
f 109/109/109 110/110/110 108/108/108
f 109/109/109 111/111/111 110/110/110
f 111/111/111 112/112/112 110/110/110
f 111/111/111 113/113/113 112/112/112
f 113/113/113 114/114/114 112/112/112
f 113/113/113 115/115/115 114/114/114
f 115/115/115 116/116/116 114/114/114
f 115/115/115 117/117/117 116/116/116
f 117/117/117 118/118/118 116/116/116
f 117/117/117 119/119/119 118/118/118
f 119/119/119 120/120/120 118/118/118
f 119/119/119 121/121/121 120/120/120
f 124/124/124 123/123/123 122/122/122
f 125/125/125 124/124/124 122/122/122
f 122/122/122 123/123/123 126/126/126
f 127/127/127 124/124/124 125/125/125
f 123/123/123 128/128/128 126/126/126
f 129/129/129 127/127/127 125/125/125
f 126/126/126 128/128/128 130/130/130
f 131/131/131 127/127/127 129/129/129
f 128/128/128 132/132/132 130/130/130
f 133/133/133 131/131/131 129/129/129
f 130/130/130 132/132/132 134/134/134
f 135/135/135 131/131/131 133/133/133
f 132/132/132 136/136/136 134/134/134
f 137/137/137 135/135/135 133/133/133
f 134/134/134 136/136/136 138/138/138
f 139/139/139 135/135/135 137/137/137
f 136/136/136 140/140/140 138/138/138
f 141/141/141 139/139/139 137/137/137
f 138/138/138 140/140/140 142/142/142
f 143/143/143 139/139/139 141/141/141
f 140/140/140 144/144/144 142/142/142
f 145/145/145 143/143/143 141/141/141
f 142/142/142 144/144/144 146/146/146
f 147/147/147 143/143/143 145/145/145
f 144/144/144 148/148/148 146/146/146
f 149/149/149 147/147/147 145/145/145
f 146/146/146 148/148/148 150/150/150
f 151/151/151 147/147/147 149/149/149
f 148/148/148 152/152/152 150/150/150
f 153/153/153 151/151/151 149/149/149
f 150/150/150 152/152/152 153/153/153
f 152/152/152 151/151/151 153/153/153
f 156/156/156 155/155/155 154/154/154
f 154/154/154 155/155/155 157/157/157
f 158/158/158 156/156/156 154/154/154
f 155/155/155 159/159/159 157/157/157
f 160/160/160 156/156/156 158/158/158
f 157/157/157 159/159/159 161/161/161
f 162/162/162 160/160/160 158/158/158
f 159/159/159 163/163/163 161/161/161
f 164/164/164 160/160/160 162/162/162
f 161/161/161 163/163/163 165/165/165
f 166/166/166 164/164/164 162/162/162
f 163/163/163 167/167/167 165/165/165
f 168/168/168 164/164/164 166/166/166
f 165/165/165 167/167/167 169/169/169
f 170/170/170 168/168/168 166/166/166
f 167/167/167 171/171/171 169/169/169
f 172/172/172 168/168/168 170/170/170
f 169/169/169 171/171/171 173/173/173
f 174/174/174 172/172/172 170/170/170
f 171/171/171 175/175/175 173/173/173
f 176/176/176 172/172/172 174/174/174
f 173/173/173 175/175/175 177/177/177
f 178/178/178 176/176/176 174/174/174
f 175/175/175 179/179/179 177/177/177
f 180/180/180 176/176/176 178/178/178
f 177/177/177 179/179/179 181/181/181
f 182/182/182 180/180/180 178/178/178
f 179/179/179 183/183/183 181/181/181
f 184/184/184 180/180/180 182/182/182
f 181/181/181 183/183/183 185/185/185
f 185/185/185 184/184/184 182/182/182
f 183/183/183 184/184/184 185/185/185
