g Lightning Wand Crystal
v -8.518347E-10 -1.231712E-07 -0.2360651
v -0.06524476 -0.2008062 -0.105572
v 0.1708165 -0.1241041 -0.105572
v 0.1708165 -0.1241041 -0.105572
v 0.1708165 0.1241039 -0.105572
v -8.518347E-10 -1.231712E-07 -0.2360651
v -8.518347E-10 -1.231712E-07 -0.2360651
v -0.2111423 -1.231712E-07 -0.105572
v -0.06524476 -0.2008062 -0.105572
v -8.518347E-10 -1.231712E-07 -0.2360651
v -0.06524476 0.2008059 -0.105572
v -0.2111423 -1.231712E-07 -0.105572
v -8.518347E-10 -1.231712E-07 -0.2360651
v 0.1708165 0.1241039 -0.105572
v -0.06524476 0.2008059 -0.105572
v 0.1708165 -0.1241041 -0.105572
v 0.2111423 -1.231712E-07 0.1055713
v 0.1708165 0.1241039 -0.105572
v -0.06524476 -0.2008062 -0.105572
v 0.06524476 -0.2008062 0.1055713
v 0.1708165 -0.1241041 -0.105572
v -0.2111423 -1.231712E-07 -0.105572
v -0.1708165 -0.1241041 0.1055713
v -0.06524476 -0.2008062 -0.105572
v -0.06524476 0.2008059 -0.105572
v -0.1708165 0.1241039 0.1055713
v -0.2111423 -1.231712E-07 -0.105572
v 0.1708165 0.1241039 -0.105572
v 0.06524476 0.2008059 0.1055713
v -0.06524476 0.2008059 -0.105572
v 0.1708165 -0.1241041 -0.105572
v 0.06524476 -0.2008062 0.1055713
v 0.2111423 -1.231712E-07 0.1055713
v -0.06524476 -0.2008062 -0.105572
v -0.1708165 -0.1241041 0.1055713
v 0.06524476 -0.2008062 0.1055713
v -0.2111423 -1.231712E-07 -0.105572
v -0.1708165 0.1241039 0.1055713
v -0.1708165 -0.1241041 0.1055713
v -0.06524476 0.2008059 -0.105572
v 0.06524476 0.2008059 0.1055713
v -0.1708165 0.1241039 0.1055713
v 0.1708165 0.1241039 -0.105572
v 0.2111423 -1.231712E-07 0.1055713
v 0.06524476 0.2008059 0.1055713
v 0.06524476 -0.2008062 0.1055713
v -8.518347E-10 -1.231712E-07 0.2360645
v 0.2111423 -1.231712E-07 0.1055713
v -0.1708165 -0.1241041 0.1055713
v -8.518347E-10 -1.231712E-07 0.2360645
v 0.06524476 -0.2008062 0.1055713
v -0.1708165 0.1241039 0.1055713
v -8.518347E-10 -1.231712E-07 0.2360645
v -0.1708165 -0.1241041 0.1055713
v 0.06524476 0.2008059 0.1055713
v -8.518347E-10 -1.231712E-07 0.2360645
v -0.1708165 0.1241039 0.1055713
v 0.2111423 -1.231712E-07 0.1055713
v -8.518347E-10 -1.231712E-07 0.2360645
v 0.06524476 0.2008059 0.1055713
vt 0.181819 0
vt 0.09091 0.157461
vt 0.272728 0.157461
vt 0.272728 0.157461
vt 0.454546 0.157461
vt 0.363637 0
vt 0.909091 0
vt 0.818182 0.157461
vt 1 0.157461
vt 0.727273 0
vt 0.636364 0.157461
vt 0.818182 0.157461
vt 0.545455 0
vt 0.454546 0.157461
vt 0.636364 0.157461
vt 0.272728 0.157461
vt 0.363637 0.314921
vt 0.454546 0.157461
vt 0.09091 0.157461
vt 0.181819 0.314921
vt 0.272728 0.157461
vt 0.818182 0.157461
vt 0.909091 0.314921
vt 1 0.157461
vt 0.636364 0.157461
vt 0.727273 0.314921
vt 0.818182 0.157461
vt 0.454546 0.157461
vt 0.545455 0.314921
vt 0.636364 0.157461
vt 0.272728 0.157461
vt 0.181819 0.314921
vt 0.363637 0.314921
vt 0.09091 0.157461
vt 0 0.314921
vt 0.181819 0.314921
vt 0.818182 0.157461
vt 0.727273 0.314921
vt 0.909091 0.314921
vt 0.636364 0.157461
vt 0.545455 0.314921
vt 0.727273 0.314921
vt 0.454546 0.157461
vt 0.363637 0.314921
vt 0.545455 0.314921
vt 0.181819 0.314921
vt 0.272728 0.472382
vt 0.363637 0.314921
vt 0 0.314921
vt 0.09091 0.472382
vt 0.181819 0.314921
vt 0.727273 0.314921
vt 0.818182 0.472382
vt 0.909091 0.314921
vt 0.545455 0.314921
vt 0.636364 0.472382
vt 0.727273 0.314921
vt 0.363637 0.314921
vt 0.454546 0.472382
vt 0.545455 0.314921
vn 0.1875965 -0.5773537 -0.794651
vn 0.1875965 -0.5773537 -0.794651
vn 0.1875965 -0.5773537 -0.794651
vn 0.6070645 0 -0.7946525
vn 0.6070645 0 -0.7946525
vn 0.6070645 0 -0.7946525
vn -0.4911221 -0.3568291 -0.7946522
vn -0.4911221 -0.3568291 -0.7946522
vn -0.4911221 -0.3568291 -0.7946522
vn -0.4911219 0.3568292 -0.7946522
vn -0.4911219 0.3568292 -0.7946522
vn -0.4911219 0.3568292 -0.7946522
vn 0.1875963 0.5773538 -0.794651
vn 0.1875963 0.5773538 -0.794651
vn 0.1875963 0.5773538 -0.794651
vn 0.9822462 0 -0.1875967
vn 0.9822462 0 -0.1875967
vn 0.9822462 0 -0.1875967
vn 0.3035355 -0.9341716 -0.1875891
vn 0.3035355 -0.9341716 -0.1875891
vn 0.3035355 -0.9341716 -0.1875891
vn -0.7946491 -0.5773594 -0.1875872
vn -0.7946491 -0.5773594 -0.1875872
vn -0.7946491 -0.5773594 -0.1875872
vn -0.794649 0.5773595 -0.1875873
vn -0.794649 0.5773595 -0.1875873
vn -0.794649 0.5773595 -0.1875873
vn 0.3035353 0.9341717 -0.187589
vn 0.3035353 0.9341717 -0.187589
vn 0.3035353 0.9341717 -0.187589
vn 0.7946491 -0.5773594 0.1875872
vn 0.7946491 -0.5773594 0.1875872
vn 0.7946491 -0.5773594 0.1875872
vn -0.3035355 -0.9341716 0.187589
vn -0.3035355 -0.9341716 0.187589
vn -0.3035355 -0.9341716 0.187589
vn -0.9822462 0 0.1875968
vn -0.9822462 0 0.1875968
vn -0.9822462 0 0.1875968
vn -0.3035352 0.9341717 0.1875889
vn -0.3035352 0.9341717 0.1875889
vn -0.3035352 0.9341717 0.1875889
vn 0.794649 0.5773595 0.1875873
vn 0.794649 0.5773595 0.1875873
vn 0.794649 0.5773595 0.1875873
vn 0.4911223 -0.3568294 0.7946519
vn 0.4911223 -0.3568294 0.7946519
vn 0.4911223 -0.3568294 0.7946519
vn -0.1875966 -0.5773541 0.7946507
vn -0.1875966 -0.5773541 0.7946507
vn -0.1875966 -0.5773541 0.7946507
vn -0.607065 0 0.7946522
vn -0.607065 0 0.7946522
vn -0.607065 0 0.7946522
vn -0.1875964 0.5773543 0.7946507
vn -0.1875964 0.5773543 0.7946507
vn -0.1875964 0.5773543 0.7946507
vn 0.4911223 0.3568295 0.7946519
vn 0.4911223 0.3568295 0.7946519
vn 0.4911223 0.3568295 0.7946519
g Lightning Wand Crystal_0
f 3/3/3 2/2/2 1/1/1
f 6/6/6 5/5/5 4/4/4
f 9/9/9 8/8/8 7/7/7
f 12/12/12 11/11/11 10/10/10
f 15/15/15 14/14/14 13/13/13
f 18/18/18 17/17/17 16/16/16
f 21/21/21 20/20/20 19/19/19
f 24/24/24 23/23/23 22/22/22
f 27/27/27 26/26/26 25/25/25
f 30/30/30 29/29/29 28/28/28
f 33/33/33 32/32/32 31/31/31
f 36/36/36 35/35/35 34/34/34
f 39/39/39 38/38/38 37/37/37
f 42/42/42 41/41/41 40/40/40
f 45/45/45 44/44/44 43/43/43
f 48/48/48 47/47/47 46/46/46
f 51/51/51 50/50/50 49/49/49
f 54/54/54 53/53/53 52/52/52
f 57/57/57 56/56/56 55/55/55
f 60/60/60 59/59/59 58/58/58
