g Mediteranean Tree
v 0.1157395 -0.2470092 6.247157
v 0.2660139 0.06146576 6.247157
v 1.365774 0.3888457 3.929563
v 0.04817887 0.2689774 6.247157
v -0.3322618 1.383509 3.925412
v -0.2708666 0.02901087 6.247157
v -1.396275 -0.305494 3.935869
v 0.4520175 -1.351812 3.937166
v -1.228938 -0.2695142 1.66434
v -0.2999896 1.201945 1.657962
v 0.4165896 -1.180501 1.665132
v -0.6437258 -0.1419069 -0.08320611
v -0.1582282 0.6398031 -0.08072795
v 0.2419506 -0.613078 -0.08231527
v 1.186601 0.3389487 1.660494
v 0.6299773 0.1927357 -0.07990787
v 0.02465056 0.1252466 6.247157
v -0.2708666 0.02901087 6.247157
v 0.04817887 0.2689774 6.247157
v 0.2660139 0.06146576 6.247157
v -0.0804143 0.02777715 6.247157
v 0.1157395 -0.2470092 6.247157
v 0.1243211 0.03371764 6.247157
v 0.05677105 -0.07953432 6.247158
vn 0.2385833 -0.856302 0.4580665
vn 0.875909 0.2208435 0.4289656
vn 0.9488336 0.2696635 0.1643051
vn -0.109953 0.8936604 0.4350649
vn -0.2224773 0.9605468 0.1668937
vn -0.8714344 -0.1436336 0.4690112
vn -0.9562718 -0.2297662 0.1809745
vn 0.2774676 -0.9443026 0.1769305
vn -0.9506338 -0.2429362 -0.1930737
vn -0.2364943 0.9529774 -0.1894851
vn 0.2887613 -0.9381869 -0.1908459
vn -0.9124572 -0.2465277 -0.3265669
vn -0.2295988 0.9207461 -0.3154534
vn 0.2838713 -0.9030845 -0.3222661
vn 0.942494 0.2767439 -0.1873982
vn 0.9081693 0.2796323 -0.3115033
vn 0 0 1
vn 0 0 1
vn 0 0 1
vn 0 0 1
vn 0 0 1
vn 0 0 1
vn 0 0 1
vn 0 0 1
g Mediteranean Tree_0
f 3/3/3 2/2/2 1/1/1
f 4/4/4 2/2/2 3/3/3
f 5/5/5 4/4/4 3/3/3
f 6/6/6 4/4/4 5/5/5
f 6/6/6 7/7/7 1/1/1
f 7/7/7 6/6/6 5/5/5
f 7/7/7 8/8/8 1/1/1
f 8/8/8 3/3/3 1/1/1
f 9/9/9 7/7/7 5/5/5
f 8/8/8 7/7/7 9/9/9
f 10/10/10 5/5/5 3/3/3
f 10/10/10 9/9/9 5/5/5
f 11/11/11 8/8/8 9/9/9
f 8/8/8 11/11/11 3/3/3
f 12/12/12 9/9/9 10/10/10
f 11/11/11 9/9/9 12/12/12
f 13/13/13 12/12/12 10/10/10
f 14/14/14 11/11/11 12/12/12
f 15/15/15 10/10/10 3/3/3
f 13/13/13 10/10/10 15/15/15
f 11/11/11 15/15/15 3/3/3
f 11/11/11 14/14/14 15/15/15
f 16/16/16 13/13/13 15/15/15
f 14/14/14 16/16/16 15/15/15
f 19/19/19 18/18/18 17/17/17
f 20/20/20 19/19/19 17/17/17
f 18/18/18 21/21/21 17/17/17
f 18/18/18 22/22/22 21/21/21
f 23/23/23 20/20/20 17/17/17
f 22/22/22 20/20/20 23/23/23
f 21/21/21 24/24/24 17/17/17
f 24/24/24 23/23/23 17/17/17
f 24/24/24 22/22/22 23/23/23
f 22/22/22 24/24/24 21/21/21
