g 
v 56.79 71.72324 42.88
v 56.79 56.83676 42.88
v 58.27 72.41245 39.29
v 58.27 56.78755 39.29
v 56.15 72.41245 37.36
v 56.15 56.78755 37.36
v 48.96 72.41245 37.98
v 48.96 56.78755 37.98
v 46.31 72.41245 38.61
v 46.31 56.78755 38.61
v 45.94 72.41245 39.31
v 45.94 56.78755 39.31
v 46.42 72.41245 40.53
v 46.42 56.78755 40.53
v 48.43 72.41245 42.68
v 48.43 56.78755 42.68
v 49.07 72.41245 43.78
v 49.07 56.78755 43.78
v 53.8 72.41245 44.55
v 53.8 56.78755 44.55
v 56.79 71.72324 42.88
v 56.79 56.83676 42.88
vt -0.5889 0.3158
vt -0.5889 0.3158
vt -0.6037 0.2799
vt -0.6037 0.2799
vt -0.5825 0.2606
vt -0.5825 0.2606
vt -0.5106 0.2668
vt -0.5106 0.2668
vt -0.4841 0.2731
vt -0.4841 0.2731
vt -0.4804 0.2801
vt -0.4804 0.2801
vt -0.4852 0.2923
vt -0.4852 0.2923
vt -0.5053 0.3138
vt -0.5053 0.3138
vt -0.5117 0.3248
vt -0.5117 0.3248
vt -0.559 0.3325
vt -0.559 0.3325
vt -0.5889 0.3158
vt -0.5889 0.3158
vn 0.924518 0 0.3811382
vn 0.924518 0 0.3811382
vn 0.6731937 0 -0.7394662
vn 0.6731937 0 -0.7394662
vn -0.08591188 0 -0.9963028
vn -0.08591188 0 -0.9963028
vn -0.2312902 0 -0.9728848
vn -0.2312902 0 -0.9728848
vn -0.8840937 0 -0.4673096
vn -0.8840937 0 -0.4673096
vn -0.9305658 0 0.3661247
vn -0.9305658 0 0.3661247
vn -0.73049 0 0.6829234
vn -0.73049 0 0.6829234
vn -0.8643483 0 0.5028937
vn -0.8643483 0 0.5028937
vn -0.1606757 0 0.9870073
vn -0.1606757 0 0.9870073
vn 0.4876244 0 0.8730535
vn 0.4876244 0 0.8730536
vn 0.4876244 0 0.8730536
vn 0.4876244 0 0.8730536
g _0
f 1/1/1 2/2/2 3/3/3
f 4/4/4 3/3/3 2/2/2
f 3/3/3 4/4/4 5/5/5
f 6/6/6 5/5/5 4/4/4
f 5/5/5 6/6/6 7/7/7
f 8/8/8 7/7/7 6/6/6
f 7/7/7 8/8/8 9/9/9
f 10/10/10 9/9/9 8/8/8
f 9/9/9 10/10/10 11/11/11
f 12/12/12 11/11/11 10/10/10
f 11/11/11 12/12/12 13/13/13
f 14/14/14 13/13/13 12/12/12
f 13/13/13 14/14/14 15/15/15
f 16/16/16 15/15/15 14/14/14
f 15/15/15 16/16/16 17/17/17
f 18/18/18 17/17/17 16/16/16
f 17/17/17 18/18/18 19/19/19
f 20/20/20 19/19/19 18/18/18
f 19/19/19 20/20/20 21/21/21
f 22/22/22 21/21/21 20/20/20
