g 
v -30.32284 0.05 -72.84103
v -30.43725 0.05 -72.6507
v -30.34188 0.05 -72.90218
v -30.50019 0.05 -72.63884
v -30.37719 0.05 -73.06756
v -30.66281 0.05 -72.59245
v -31.21573 0.05 -73.41906
v -31.36657 0.05 -73.16814
v -32.04556 0.05 -73.97908
v -32.25041 0.05 -73.63834
v -32.9282 0.05 -74.45126
v -33.08144 0.05 -74.19637
v -33.73105 0.05 -75.05618
v -33.99226 0.05 -74.62167
v -34.6623 0.05 -75.4475
v -34.77468 0.05 -75.26055
v -35.51529 0.05 -75.969
v -35.63536 0.05 -75.76928
v -36.3494 0.05 -76.5219
v -36.51492 0.05 -76.24659
v -37.17205 0.05 -77.09387
v -37.40594 0.05 -76.70483
v -38.0579 0.05 -77.56072
v -38.23376 0.05 -77.2682
v -38.863 0.05 -78.16189
v -39.14233 0.05 -77.69724
v -39.78511 0.05 -78.56841
v -39.93388 0.05 -78.32094
v -40.60651 0.05 -79.14246
v -40.82615 0.05 -78.77711
v -41.47744 0.05 -79.63412
v -41.6689 0.05 -79.31566
v -42.18952 0.05 -80.11037
v -42.67048 0.05 -79.86963
v -42.10178 0.05 -80.96137
v -42.55576 0.05 -81.00758
v -41.98585 0.05 -81.95435
v -42.46925 0.05 -82.00356
v -41.96153 0.05 -82.95666
v -42.29111 0.05 -82.99021
v -41.75904 0.05 -83.94083
v -42.29115 0.05 -83.995
v -41.78061 0.05 -84.94781
v -42.06713 0.05 -84.97697
v -41.63504 0.05 -85.93777
v -42.01023 0.05 -85.97597
v -41.4427 0.05 -86.92297
v -42.00012 0.05 -86.97972
v -41.42387 0.05 -87.92584
v -41.81649 0.05 -87.96581
v -41.39635 0.05 -88.92782
v -41.64156 0.05 -88.95278
v -41.16626 0.05 -89.90919
v -41.6692 0.05 -89.96038
v -41.12879 0.05 -90.91016
v -41.50421 0.05 -90.94836
v -41.02184 0.05 -91.90405
v -41.40871 0.05 -91.94343
v -40.8367 0.05 -92.88999
v -41.39139 0.05 -92.94645
v -40.84682 0.05 -93.8958
v -41.17882 0.05 -93.9296
v -40.71262 0.05 -94.88692
v -41.11057 0.05 -94.92743
v -40.61947 0.05 -95.79832
v -41.00126 0.05 -96.005
v -40.01669 0.05 -96.18542
v -40.20237 0.05 -96.59227
v -39.0816 0.05 -96.40973
v -39.22183 0.05 -96.90756
v -38.13426 0.05 -96.71667
v -38.25355 0.05 -97.1402
v -37.19077 0.05 -97.03731
v -37.28142 0.05 -97.35915
v -36.24681 0.05 -97.3563
v -36.30975 0.05 -97.57973
v -35.28698 0.05 -97.61893
v -35.35395 0.05 -97.85669
v -34.32227 0.05 -97.86422
v -34.40304 0.05 -98.15098
v -33.35706 0.05 -98.10773
v -33.45263 0.05 -98.44704
v -32.4016 0.05 -98.38592
v -32.49245 0.05 -98.70846
v -31.44906 0.05 -98.67442
v -31.52937 0.05 -98.95953
v -30.45408 0.05 -98.81226
v -30.60872 0.05 -99.36127
v -29.50661 0.05 -99.11874
v -29.64058 0.05 -99.59438
v -28.54725 0.05 -99.38307
v -28.68431 0.05 -99.86963
v -27.58937 0.05 -99.65259
v -27.72657 0.05 -100.1397
v -26.66772 0.05 -100.0508
v -26.73259 0.05 -100.2811
v -25.70549 0.05 -100.3049
v -25.7792 0.05 -100.5666
v -24.73557 0.05 -100.5317
v -24.83349 0.05 -100.8793
v -23.79118 0.05 -100.8491
v -23.86226 0.05 -101.1015
v -22.86481 0.05 -101.0678
v -22.873 0.05 -101.4224
v -22.16418 0.05 -100.834
v -21.93239 0.05 -101.1987
v -21.45909 0.05 -100.2006
v -21.27062 0.05 -100.3777
v -20.85277 0.05 -99.40092
v -20.51007 0.05 -99.72298
v -20.10039 0.05 -98.7385
v -19.89559 0.05 -98.93096
v -19.51041 0.05 -97.92345
v -19.1187 0.05 -98.29158
v -18.73287 0.05 -97.28467
v -18.52938 0.05 -97.47592
v -18.15135 0.05 -96.46168
v -17.74403 0.05 -96.84447
v -17.42606 0.05 -95.7738
v -17.10246 0.05 -96.07791
v -16.70358 0.05 -95.08328
v -16.45808 0.05 -95.314
v -16.08167 0.05 -94.29825
v -15.71313 0.05 -94.64459
v -15.36544 0.05 -93.60185
v -15.06249 0.05 -93.88655
v -14.6118 0.05 -92.94061
v -14.44927 0.05 -93.09335
v -13.94128 0.05 -92.20125
v -13.75292 0.05 -92.37827
v -13.26226 0.05 -91.46989
v -13.06508 0.05 -91.65519
v -12.56328 0.05 -90.75728
v -12.3972 0.05 -90.91336
v -11.98058 0.05 -89.93539
v -11.61303 0.05 -90.28081
v -11.3077 0.05 -89.29237
v -10.91904 0.05 -89.46939
v -11.30631 0.05 -88.58987
v -10.86075 0.05 -88.49424
v -11.64016 0.05 -87.69582
v -11.33867 0.05 -87.56182
v -12.15088 0.05 -86.82918
v -11.63971 0.05 -86.60199
v -12.4986 0.05 -85.8901
v -12.10376 0.05 -85.71461
v -12.82292 0.05 -84.94061
v -12.5912 0.05 -84.83762
v -13.26274 0.05 -84.04245
v -12.96314 0.05 -83.9093
v -13.65594 0.05 -83.12358
v -13.38171 0.05 -83.00171
v -14.13581 0.05 -82.24323
v -13.71361 0.05 -82.05559
v -14.50231 0.05 -81.31249
v -14.15887 0.05 -81.15986
v -14.96697 0.05 -80.42538
v -14.50597 0.05 -80.22049
v -15.31434 0.05 -79.48615
v -14.97037 0.05 -79.33327
v -15.66537 0.05 -78.54852
v -15.4311 0.05 -78.44441
v -16.19965 0.05 -77.69236
v -15.70859 0.05 -77.47411
v -16.44619 0.05 -76.77047
v -16.27382 0.05 -76.56953
v -17.38351 0.05 -76.63093
v -17.26302 0.05 -76.18662
v -18.34317 0.05 -76.35641
v -18.22989 0.05 -75.9387
v -19.3058 0.05 -76.09283
v -19.19379 0.05 -75.67981
v -20.25671 0.05 -75.78605
v -20.16942 0.05 -75.46415
v -21.20694 0.05 -75.47677
v -21.14571 0.05 -75.25098
v -22.16964 0.05 -75.21347
v -22.10954 0.05 -74.99184
v -23.17369 0.05 -75.10262
v -23.03203 0.05 -74.58024
v -24.11621 0.05 -74.7649
v -24.01604 0.05 -74.39552
v -25.09375 0.05 -74.5563
v -24.96503 0.05 -74.08165
v -26.05322 0.05 -74.28107
v -25.93209 0.05 -73.83443
v -26.99302 0.05 -73.93333
v -26.91882 0.05 -73.65974
v -27.98566 0.05 -73.78045
v -27.85271 0.05 -73.29017
v -28.91515 0.05 -73.39468
v -28.84975 0.05 -73.1535
v -29.90046 0.05 -73.21474
v -29.79097 0.05 -72.81097
v -30.57007 0.05 -73.01465
v -30.46993 0.05 -72.64536
v -30.66127 0.05 -72.90977
v -30.60162 0.05 -72.68979
v -30.69253 0.05 -72.84229
v -30.66268 0.05 -72.73223
vt 1.323396 -1.325795
vt 1.324587 -1.323921
vt 1.323571 -1.326411
vt 1.325219 -1.323818
vt 1.323883 -1.328074
vt 1.326856 -1.323395
vt 1.332178 -1.331796
vt 1.333749 -1.329325
vt 1.340335 -1.3376
vt 1.342467 -1.334245
vt 1.349041 -1.34254
vt 1.350637 -1.34003
vt 1.356917 -1.348787
vt 1.359636 -1.344508
vt 1.366129 -1.352931
vt 1.367299 -1.35109
vt 1.374527 -1.358356
vt 1.375777 -1.356389
vt 1.382728 -1.364091
vt 1.384451 -1.361379
vt 1.39081 -1.370013
vt 1.393245 -1.366182
vt 1.399549 -1.3749
vt 1.40138 -1.37202
vt 1.407449 -1.38111
vt 1.410357 -1.376534
vt 1.416566 -1.385403
vt 1.418115 -1.382966
vt 1.424635 -1.391346
vt 1.426921 -1.387748
vt 1.433219 -1.396478
vt 1.435212 -1.393342
vt 1.440219 -1.401415
vt 1.445087 -1.399128
vt 1.439131 -1.409901
vt 1.443658 -1.410476
vt 1.437725 -1.419799
vt 1.442545 -1.420411
vt 1.437233 -1.429813
vt 1.440519 -1.43023
vt 1.434964 -1.439601
vt 1.44027 -1.440275
vt 1.434929 -1.449673
vt 1.437786 -1.450036
vt 1.433228 -1.459534
vt 1.436969 -1.460009
vt 1.43106 -1.469335
vt 1.436619 -1.470041
vt 1.430623 -1.479356
vt 1.434538 -1.479853
vt 1.430099 -1.489366
vt 1.432544 -1.489676
vt 1.427555 -1.499119
vt 1.43257 -1.499756
vt 1.426931 -1.509117
vt 1.430675 -1.509592
vt 1.425615 -1.519026
vt 1.429473 -1.519516
vt 1.423519 -1.528836
vt 1.42905 -1.529538
vt 1.42337 -1.538894
vt 1.426681 -1.539314
vt 1.421782 -1.548768
vt 1.425751 -1.549272
vt 1.420625 -1.557856
vt 1.42439 -1.560017
vt 1.414503 -1.561576
vt 1.416258 -1.56569
vt 1.405099 -1.563586
vt 1.406377 -1.568598
vt 1.395552 -1.566419
vt 1.396639 -1.570683
vt 1.38604 -1.56939
vt 1.386867 -1.57263
vt 1.376524 -1.572345
vt 1.377098 -1.574594
vt 1.366864 -1.574732
vt 1.367474 -1.577125
vt 1.357159 -1.576944
vt 1.357895 -1.579831
vt 1.347449 -1.579138
vt 1.34832 -1.582554
vt 1.337829 -1.581682
vt 1.338657 -1.584929
vt 1.328234 -1.584329
vt 1.328966 -1.5872
vt 1.318253 -1.58546
vt 1.319663 -1.590987
vt 1.308705 -1.588289
vt 1.309926 -1.593077
vt 1.299049 -1.590693
vt 1.300298 -1.595591
vt 1.289406 -1.593149
vt 1.290657 -1.598053
vt 1.280094 -1.5969
vt 1.280685 -1.599219
vt 1.270411 -1.599202
vt 1.271083 -1.601836
vt 1.260659 -1.601228
vt 1.261551 -1.604728
vt 1.251139 -1.604167
vt 1.251786 -1.606707
vt 1.241823 -1.606122
vt 1.241817 -1.609669
vt 1.234877 -1.603611
vt 1.23247 -1.6072
vt 1.227986 -1.597104
vt 1.226058 -1.598828
vt 1.222124 -1.588959
vt 1.218618 -1.592093
vt 1.214767 -1.58215
vt 1.212672 -1.584023
vt 1.209071 -1.573855
vt 1.205064 -1.577438
vt 1.201457 -1.567276
vt 1.199375 -1.569137
vt 1.195848 -1.558904
vt 1.191681 -1.562629
vt 1.188768 -1.551847
vt 1.185458 -1.554807
vt 1.181718 -1.544765
vt 1.179206 -1.54701
vt 1.175695 -1.536762
vt 1.171925 -1.540133
vt 1.168708 -1.529622
vt 1.165609 -1.532393
vt 1.161339 -1.522825
vt 1.159676 -1.524311
vt 1.154819 -1.515267
vt 1.152892 -1.516989
vt 1.148213 -1.507786
vt 1.146196 -1.50959
vt 1.141402 -1.500489
vt 1.139703 -1.502008
vt 1.135781 -1.492128
vt 1.132021 -1.495489
vt 1.129215 -1.485532
vt 1.125285 -1.487205
vt 1.129375 -1.478509
vt 1.124945 -1.477442
vt 1.132935 -1.469654
vt 1.129954 -1.46824
vt 1.138256 -1.461118
vt 1.133202 -1.458719
vt 1.141966 -1.451816
vt 1.138062 -1.449963
vt 1.145444 -1.442405
vt 1.143153 -1.441317
vt 1.150064 -1.433535
vt 1.147102 -1.43213
vt 1.154223 -1.424447
vt 1.151512 -1.423161
vt 1.159239 -1.415765
vt 1.155065 -1.413785
vt 1.163134 -1.406552
vt 1.159739 -1.404941
vt 1.168 -1.397799
vt 1.163442 -1.395636
vt 1.171706 -1.388496
vt 1.168305 -1.386882
vt 1.175448 -1.37921
vt 1.173132 -1.378111
vt 1.181002 -1.370784
vt 1.176147 -1.36848
vt 1.183696 -1.361629
vt 1.182022 -1.359577
vt 1.193101 -1.360467
vt 1.192006 -1.355995
vt 1.202762 -1.357961
vt 1.201734 -1.353757
vt 1.212451 -1.355565
vt 1.211434 -1.351409
vt 1.222034 -1.352735
vt 1.221241 -1.349495
vt 1.23161 -1.349879
vt 1.231054 -1.347607
vt 1.2413 -1.347486
vt 1.240754 -1.345256
vt 1.251364 -1.346628
vt 1.250078 -1.34137
vt 1.260871 -1.343486
vt 1.259961 -1.339768
vt 1.270695 -1.341643
vt 1.269526 -1.336866
vt 1.280355 -1.33913
vt 1.279255 -1.334635
vt 1.289836 -1.335887
vt 1.289163 -1.333134
vt 1.299798 -1.334606
vt 1.298591 -1.329672
vt 1.309186 -1.33098
vt 1.308592 -1.328553
vt 1.31908 -1.329426
vt 1.318086 -1.325363
vt 1.325824 -1.327593
vt 1.324915 -1.323876
vt 1.326762 -1.326567
vt 1.32622 -1.324353
vt 1.327091 -1.3259
vt 1.32682 -1.324792
vn 0 1 0
vn 0 1 0
vn 0 1 0
vn 0 1 0
vn 0 1 0
vn 0 1 0
vn 0 1 0
vn 0 1 0
vn 0 1 0
vn 0 1 0
vn 0 1 0
vn 0 1 0
vn 0 1 0
vn 0 1 0
vn 0 1 0
vn 0 1 0
vn 0 1 0
vn 0 1 0
vn 0 1 0
vn 0 1 0
vn 0 1 0
vn 0 1 0
vn 0 1 0
vn 0 1 0
vn 0 1 0
vn 0 1 0
vn 0 1 0
vn 0 1 0
vn 0 1 0
vn 0 1 0
vn 0 1 0
vn 0 1 0
vn 0 1 0
vn 0 1 0
vn 0 1 0
vn 0 1 0
vn 0 1 0
vn 0 1 0
vn 0 1 0
vn 0 1 0
vn 0 1 0
vn 0 1 0
vn 0 1 0
vn 0 1 0
vn 0 1 0
vn 0 1 0
vn 0 1 0
vn 0 1 0
vn 0 1 0
vn 0 1 0
vn 0 1 0
vn 0 1 0
vn 0 1 0
vn 0 1 0
vn 0 1 0
vn 0 1 0
vn 0 1 0
vn 0 1 0
vn 0 1 0
vn 0 1 0
vn 0 1 0
vn 0 1 0
vn 0 1 0
vn 0 1 0
vn 0 1 0
vn 0 1 0
vn 0 1 0
vn 0 1 0
vn 0 1 0
vn 0 1 0
vn 0 1 0
vn 0 1 0
vn 0 1 0
vn 0 1 0
vn 0 1 0
vn 0 1 0
vn 0 1 0
vn 0 1 0
vn 0 1 0
vn 0 1 0
vn 0 1 0
vn 0 1 0
vn 0 1 0
vn 0 1 0
vn 0 1 0
vn 0 1 0
vn 0 1 0
vn 0 1 0
vn 0 1 0
vn 0 1 0
vn 0 1 0
vn 0 1 0
vn 0 1 0
vn 0 1 0
vn 0 1 0
vn 0 1 0
vn 0 1 0
vn 0 1 0
vn 0 1 0
vn 0 1 0
vn 0 1 0
vn 0 1 0
vn 0 1 0
vn 0 1 0
vn 0 1 0
vn 0 1 0
vn 0 1 0
vn 0 1 0
vn 0 1 0
vn 0 1 0
vn 0 1 0
vn 0 1 0
vn 0 1 0
vn 0 1 0
vn 0 1 0
vn 0 1 0
vn 0 1 0
vn 0 1 0
vn 0 1 0
vn 0 1 0
vn 0 1 0
vn 0 1 0
vn 0 1 0
vn 0 1 0
vn 0 1 0
vn 0 1 0
vn 0 1 0
vn 0 1 0
vn 0 1 0
vn 0 1 0
vn 0 1 0
vn 0 1 0
vn 0 1 0
vn 0 1 0
vn 0 1 0
vn 0 1 0
vn 0 1 0
vn 0 1 0
vn 0 1 0
vn 0 1 0
vn 0 1 0
vn 0 1 0
vn 0 1 0
vn 0 1 0
vn 0 1 0
vn 0 1 0
vn 0 1 0
vn 0 1 0
vn 0 1 0
vn 0 1 0
vn 0 1 0
vn 0 1 0
vn 0 1 0
vn 0 1 0
vn 0 1 0
vn 0 1 0
vn 0 1 0
vn 0 1 0
vn 0 1 0
vn 0 1 0
vn 0 1 0
vn 0 1 0
vn 0 1 0
vn 0 1 0
vn 0 1 0
vn 0 1 0
vn 0 1 0
vn 0 1 0
vn 0 1 0
vn 0 1 0
vn 0 1 0
vn 0 1 0
vn 0 1 0
vn 0 1 0
vn 0 1 0
vn 0 1 0
vn 0 1 0
vn 0 1 0
vn 0 1 0
vn 0 1 0
vn 0 1 0
vn 0 1 0
vn 0 1 0
vn 0 1 0
vn 0 1 0
vn 0 1 0
vn 0 1 0
vn 0 1 0
vn 0 1 0
vn 0 1 0
vn 0 1 0
vn 0 1 0
vn 0 1 0
vn 0 1 0
vn 0 1 0
vn 0 1 0
vn 0 1 0
vn 0 1 0
vn 0 1 0
vn 0 1 0
g _0
f 3/3/3 2/2/2 1/1/1
f 2/2/2 3/3/3 4/4/4
f 5/5/5 4/4/4 3/3/3
f 4/4/4 5/5/5 6/6/6
f 7/7/7 6/6/6 5/5/5
f 6/6/6 7/7/7 8/8/8
f 9/9/9 8/8/8 7/7/7
f 8/8/8 9/9/9 10/10/10
f 11/11/11 10/10/10 9/9/9
f 10/10/10 11/11/11 12/12/12
f 13/13/13 12/12/12 11/11/11
f 12/12/12 13/13/13 14/14/14
f 15/15/15 14/14/14 13/13/13
f 14/14/14 15/15/15 16/16/16
f 17/17/17 16/16/16 15/15/15
f 16/16/16 17/17/17 18/18/18
f 19/19/19 18/18/18 17/17/17
f 18/18/18 19/19/19 20/20/20
f 21/21/21 20/20/20 19/19/19
f 20/20/20 21/21/21 22/22/22
f 23/23/23 22/22/22 21/21/21
f 22/22/22 23/23/23 24/24/24
f 25/25/25 24/24/24 23/23/23
f 24/24/24 25/25/25 26/26/26
f 27/27/27 26/26/26 25/25/25
f 26/26/26 27/27/27 28/28/28
f 29/29/29 28/28/28 27/27/27
f 28/28/28 29/29/29 30/30/30
f 31/31/31 30/30/30 29/29/29
f 30/30/30 31/31/31 32/32/32
f 33/33/33 32/32/32 31/31/31
f 32/32/32 33/33/33 34/34/34
f 35/35/35 34/34/34 33/33/33
f 34/34/34 35/35/35 36/36/36
f 37/37/37 36/36/36 35/35/35
f 36/36/36 37/37/37 38/38/38
f 39/39/39 38/38/38 37/37/37
f 38/38/38 39/39/39 40/40/40
f 41/41/41 40/40/40 39/39/39
f 40/40/40 41/41/41 42/42/42
f 43/43/43 42/42/42 41/41/41
f 42/42/42 43/43/43 44/44/44
f 45/45/45 44/44/44 43/43/43
f 44/44/44 45/45/45 46/46/46
f 47/47/47 46/46/46 45/45/45
f 46/46/46 47/47/47 48/48/48
f 49/49/49 48/48/48 47/47/47
f 48/48/48 49/49/49 50/50/50
f 51/51/51 50/50/50 49/49/49
f 50/50/50 51/51/51 52/52/52
f 53/53/53 52/52/52 51/51/51
f 52/52/52 53/53/53 54/54/54
f 55/55/55 54/54/54 53/53/53
f 54/54/54 55/55/55 56/56/56
f 57/57/57 56/56/56 55/55/55
f 56/56/56 57/57/57 58/58/58
f 59/59/59 58/58/58 57/57/57
f 58/58/58 59/59/59 60/60/60
f 61/61/61 60/60/60 59/59/59
f 60/60/60 61/61/61 62/62/62
f 63/63/63 62/62/62 61/61/61
f 62/62/62 63/63/63 64/64/64
f 65/65/65 64/64/64 63/63/63
f 64/64/64 65/65/65 66/66/66
f 67/67/67 66/66/66 65/65/65
f 66/66/66 67/67/67 68/68/68
f 69/69/69 68/68/68 67/67/67
f 68/68/68 69/69/69 70/70/70
f 71/71/71 70/70/70 69/69/69
f 70/70/70 71/71/71 72/72/72
f 73/73/73 72/72/72 71/71/71
f 72/72/72 73/73/73 74/74/74
f 75/75/75 74/74/74 73/73/73
f 74/74/74 75/75/75 76/76/76
f 77/77/77 76/76/76 75/75/75
f 76/76/76 77/77/77 78/78/78
f 79/79/79 78/78/78 77/77/77
f 78/78/78 79/79/79 80/80/80
f 81/81/81 80/80/80 79/79/79
f 80/80/80 81/81/81 82/82/82
f 83/83/83 82/82/82 81/81/81
f 82/82/82 83/83/83 84/84/84
f 85/85/85 84/84/84 83/83/83
f 84/84/84 85/85/85 86/86/86
f 87/87/87 86/86/86 85/85/85
f 86/86/86 87/87/87 88/88/88
f 89/89/89 88/88/88 87/87/87
f 88/88/88 89/89/89 90/90/90
f 91/91/91 90/90/90 89/89/89
f 90/90/90 91/91/91 92/92/92
f 93/93/93 92/92/92 91/91/91
f 92/92/92 93/93/93 94/94/94
f 95/95/95 94/94/94 93/93/93
f 94/94/94 95/95/95 96/96/96
f 97/97/97 96/96/96 95/95/95
f 96/96/96 97/97/97 98/98/98
f 99/99/99 98/98/98 97/97/97
f 98/98/98 99/99/99 100/100/100
f 101/101/101 100/100/100 99/99/99
f 100/100/100 101/101/101 102/102/102
f 103/103/103 102/102/102 101/101/101
f 102/102/102 103/103/103 104/104/104
f 105/105/105 104/104/104 103/103/103
f 104/104/104 105/105/105 106/106/106
f 107/107/107 106/106/106 105/105/105
f 106/106/106 107/107/107 108/108/108
f 109/109/109 108/108/108 107/107/107
f 108/108/108 109/109/109 110/110/110
f 111/111/111 110/110/110 109/109/109
f 110/110/110 111/111/111 112/112/112
f 113/113/113 112/112/112 111/111/111
f 112/112/112 113/113/113 114/114/114
f 115/115/115 114/114/114 113/113/113
f 114/114/114 115/115/115 116/116/116
f 117/117/117 116/116/116 115/115/115
f 116/116/116 117/117/117 118/118/118
f 119/119/119 118/118/118 117/117/117
f 118/118/118 119/119/119 120/120/120
f 121/121/121 120/120/120 119/119/119
f 120/120/120 121/121/121 122/122/122
f 123/123/123 122/122/122 121/121/121
f 122/122/122 123/123/123 124/124/124
f 125/125/125 124/124/124 123/123/123
f 124/124/124 125/125/125 126/126/126
f 127/127/127 126/126/126 125/125/125
f 126/126/126 127/127/127 128/128/128
f 129/129/129 128/128/128 127/127/127
f 128/128/128 129/129/129 130/130/130
f 131/131/131 130/130/130 129/129/129
f 130/130/130 131/131/131 132/132/132
f 133/133/133 132/132/132 131/131/131
f 132/132/132 133/133/133 134/134/134
f 135/135/135 134/134/134 133/133/133
f 134/134/134 135/135/135 136/136/136
f 137/137/137 136/136/136 135/135/135
f 136/136/136 137/137/137 138/138/138
f 139/139/139 138/138/138 137/137/137
f 138/138/138 139/139/139 140/140/140
f 141/141/141 140/140/140 139/139/139
f 140/140/140 141/141/141 142/142/142
f 143/143/143 142/142/142 141/141/141
f 142/142/142 143/143/143 144/144/144
f 145/145/145 144/144/144 143/143/143
f 144/144/144 145/145/145 146/146/146
f 147/147/147 146/146/146 145/145/145
f 146/146/146 147/147/147 148/148/148
f 149/149/149 148/148/148 147/147/147
f 148/148/148 149/149/149 150/150/150
f 151/151/151 150/150/150 149/149/149
f 150/150/150 151/151/151 152/152/152
f 153/153/153 152/152/152 151/151/151
f 152/152/152 153/153/153 154/154/154
f 155/155/155 154/154/154 153/153/153
f 154/154/154 155/155/155 156/156/156
f 157/157/157 156/156/156 155/155/155
f 156/156/156 157/157/157 158/158/158
f 159/159/159 158/158/158 157/157/157
f 158/158/158 159/159/159 160/160/160
f 161/161/161 160/160/160 159/159/159
f 160/160/160 161/161/161 162/162/162
f 163/163/163 162/162/162 161/161/161
f 162/162/162 163/163/163 164/164/164
f 165/165/165 164/164/164 163/163/163
f 164/164/164 165/165/165 166/166/166
f 167/167/167 166/166/166 165/165/165
f 166/166/166 167/167/167 168/168/168
f 169/169/169 168/168/168 167/167/167
f 168/168/168 169/169/169 170/170/170
f 171/171/171 170/170/170 169/169/169
f 170/170/170 171/171/171 172/172/172
f 173/173/173 172/172/172 171/171/171
f 172/172/172 173/173/173 174/174/174
f 175/175/175 174/174/174 173/173/173
f 174/174/174 175/175/175 176/176/176
f 177/177/177 176/176/176 175/175/175
f 176/176/176 177/177/177 178/178/178
f 179/179/179 178/178/178 177/177/177
f 178/178/178 179/179/179 180/180/180
f 181/181/181 180/180/180 179/179/179
f 180/180/180 181/181/181 182/182/182
f 183/183/183 182/182/182 181/181/181
f 182/182/182 183/183/183 184/184/184
f 185/185/185 184/184/184 183/183/183
f 184/184/184 185/185/185 186/186/186
f 187/187/187 186/186/186 185/185/185
f 186/186/186 187/187/187 188/188/188
f 189/189/189 188/188/188 187/187/187
f 188/188/188 189/189/189 190/190/190
f 191/191/191 190/190/190 189/189/189
f 190/190/190 191/191/191 192/192/192
f 193/193/193 192/192/192 191/191/191
f 192/192/192 193/193/193 194/194/194
f 195/195/195 194/194/194 193/193/193
f 194/194/194 195/195/195 196/196/196
f 197/197/197 196/196/196 195/195/195
f 196/196/196 197/197/197 198/198/198
f 199/199/199 198/198/198 197/197/197
f 198/198/198 199/199/199 200/200/200
