g 
v 86.60641 68.38123 55.31957
v 86.60641 54.38123 55.31957
v 91.2101 68.38124 53.577
v 91.2101 54.38124 53.577
v 95.21061 68.38124 57.71745
v 95.21061 54.38124 57.71745
v 93.55053 68.38124 60.70301
v 93.55053 54.38124 60.70301
v 89.35892 68.38124 60.22838
v 89.35892 54.38124 60.22838
v 86.60641 68.38123 55.31957
v 86.60641 54.38123 55.31957
vt -0.8870641 0.4401957
vt -0.8870641 0.4401957
vt -0.9331009 0.42277
vt -0.9331009 0.42277
vt -0.9731061 0.4641744
vt -0.9731061 0.4641744
vt -0.9565052 0.4940301
vt -0.9565052 0.4940301
vt -0.9145892 0.4892838
vt -0.9145892 0.4892838
vt -0.8870641 0.4401957
vt -0.8870641 0.4401957
vn -0.3540056 0 -0.9352434
vn -0.3540056 0 -0.9352434
vn 0.7191553 0 -0.6948494
vn 0.7191553 0 -0.6948494
vn 0.8739792 0 0.4859634
vn 0.8739792 0 0.4859634
vn -0.112515 0 0.99365
vn -0.112515 0 0.99365
vn -0.872235 0 0.4890871
vn -0.872235 0 0.4890871
vn -0.872235 0 0.4890871
vn -0.872235 0 0.4890871
g _0
f 3/3/3 2/2/2 1/1/1
f 2/2/2 3/3/3 4/4/4
f 5/5/5 4/4/4 3/3/3
f 4/4/4 5/5/5 6/6/6
f 7/7/7 6/6/6 5/5/5
f 6/6/6 7/7/7 8/8/8
f 9/9/9 8/8/8 7/7/7
f 8/8/8 9/9/9 10/10/10
f 11/11/11 10/10/10 9/9/9
f 10/10/10 11/11/11 12/12/12
