g 
v 5.008343 35.30658 -44.18274
v 5.008343 21.30658 -44.18274
v 2.934794 35.30658 -50.75575
v 2.934794 21.30658 -50.75575
v 0.4765267 33.61096 -50.24284
v 0.4765267 19.61096 -50.24284
v 2.835611 35.30658 -44.21549
v 2.835611 21.30658 -44.21549
v 3.782771 35.43251 -43.38123
v 3.782771 21.43251 -43.38123
v 5.008343 35.30658 -44.18274
v 5.008343 21.30658 -44.18274
vt -0.07108343 -0.5548274
vt -0.07108343 -0.5548274
vt -0.05034794 -0.6205575
vt -0.05034794 -0.6205575
vt -0.02576527 -0.6154284
vt -0.02576527 -0.6154284
vt -0.04935611 -0.5551549
vt -0.04935611 -0.5551549
vt -0.05882771 -0.5468122
vt -0.05882771 -0.5468122
vt -0.07108343 -0.5548274
vt -0.07108343 -0.5548274
vn 0.9536718 0 -0.3008492
vn 0.9536718 0 -0.3008492
vn -0.2042495 0 -0.9789189
vn -0.2042495 0 -0.9789189
vn -0.9312137 0 0.3644738
vn -0.9312137 0 0.3644738
vn -0.6609682 0 0.7504139
vn -0.6609681 0 0.7504139
vn 0.5473362 0 0.8369129
vn 0.5473362 0 0.8369128
vn 0.5473362 0 0.8369128
vn 0.5473362 0 0.8369128
g _0
f 1/1/1 2/2/2 3/3/3
f 4/4/4 3/3/3 2/2/2
f 3/3/3 4/4/4 5/5/5
f 6/6/6 5/5/5 4/4/4
f 5/5/5 6/6/6 7/7/7
f 8/8/8 7/7/7 6/6/6
f 7/7/7 8/8/8 9/9/9
f 10/10/10 9/9/9 8/8/8
f 9/9/9 10/10/10 11/11/11
f 12/12/12 11/11/11 10/10/10
