g 
v 78.28185 17.7 44.25137
v 86.83979 17.7 39.58836
v 76.08904 17.7 48.40144
v 91.51588 17.7 39.99578
v 77.0745 17.7 54.99915
v 96.52551 17.7 44.40085
v 78.06382 19.83889 63.20936
v 103.3227 19.83889 50.48124
v 75.87039 23.64136 71.06133
v 112.7993 23.64136 58.24447
v 71.88916 27.14445 76.26572
v 120.848 27.14445 70.12902
v 70.06136 28.7 82.20132
v 123.1156 28.7 83.06322
v 70.41885 28.7 88.20657
v 121.7004 28.7 96.21931
v 68.79001 28.7 94.48972
v 118.4651 28.7 108.6747
v 65.55453 28.7 102.5076
v 115.8929 28.7 119.2906
v 62.90347 28.7 111.4602
v 111.9554 28.7 128.8851
v 62.68618 28.7 112.4273
v 111.5138 28.7 129.7727
v 62.05343 28.7 128.3342
v 101.9697 28.7 142.5139
v 68.62133 28.7 137.3493
v 91.18641 28.7 145.3652
v 78.28185 17.7 44.25137
v 78.28185 -12.3 44.25137
v 76.08904 17.7 48.40144
v 76.08904 -12.3 48.40144
v 76.08904 17.7 48.40144
v 76.08904 -12.3 48.40144
v 77.0745 17.7 54.99915
v 77.0745 -12.3 54.99915
v 77.0745 17.7 54.99915
v 77.0745 -12.3 54.99915
v 78.06382 19.83889 63.20936
v 78.06382 -10.16111 63.20936
v 78.06382 19.83889 63.20936
v 78.06382 -10.16111 63.20936
v 75.87039 23.64136 71.06133
v 75.87039 -6.358641 71.06133
v 75.87039 23.64136 71.06133
v 75.87039 -6.358641 71.06133
v 71.88916 27.14445 76.26572
v 71.88916 -2.855555 76.26572
v 71.88916 27.14445 76.26572
v 71.88916 -2.855555 76.26572
v 70.06136 28.7 82.20132
v 70.06136 -1.299999 82.20132
v 70.06136 28.7 82.20132
v 70.06136 -1.299999 82.20132
v 70.41885 28.7 88.20657
v 70.41885 -1.299999 88.20657
v 70.41885 28.7 88.20657
v 70.41885 -1.299999 88.20657
v 68.79001 28.7 94.48972
v 68.79001 -1.299999 94.48972
v 68.79001 28.7 94.48972
v 68.79001 -1.299999 94.48972
v 65.55453 28.7 102.5076
v 65.55453 -1.299999 102.5076
v 65.55453 28.7 102.5076
v 65.55453 -1.299999 102.5076
v 62.90347 28.7 111.4602
v 62.90347 -1.299999 111.4602
v 62.90347 28.7 111.4602
v 62.90347 -1.299999 111.4602
v 62.68618 28.7 112.4273
v 62.68618 -1.299999 112.4273
v 62.68618 28.7 112.4273
v 62.68618 -1.299999 112.4273
v 62.05343 28.7 128.3342
v 62.05343 -1.299999 128.3342
v 62.05343 28.7 128.3342
v 62.05343 -1.299999 128.3342
v 68.62133 28.7 137.3493
v 68.62133 -1.299999 137.3493
v 86.83979 17.7 39.58836
v 86.83979 -12.3 39.58836
v 91.51588 17.7 39.99578
v 91.51588 -12.3 39.99578
v 91.51588 17.7 39.99578
v 91.51588 -12.3 39.99578
v 96.52551 17.7 44.40085
v 96.52551 -12.3 44.40085
v 96.52551 17.7 44.40085
v 96.52551 -12.3 44.40085
v 103.3227 19.83889 50.48124
v 103.3227 -10.16111 50.48124
v 103.3227 19.83889 50.48124
v 103.3227 -10.16111 50.48124
v 112.7993 23.64136 58.24447
v 112.7993 -6.358641 58.24447
v 112.7993 23.64136 58.24447
v 112.7993 -6.358641 58.24447
v 120.848 27.14445 70.12902
v 120.848 -2.855555 70.12902
v 120.848 27.14445 70.12902
v 120.848 -2.855555 70.12902
v 123.1156 28.7 83.06322
v 123.1156 -1.299999 83.06322
v 123.1156 28.7 83.06322
v 123.1156 -1.299999 83.06322
v 121.7004 28.7 96.21931
v 121.7004 -1.299999 96.21931
v 121.7004 28.7 96.21931
v 121.7004 -1.299999 96.21931
v 118.4651 28.7 108.6747
v 118.4651 -1.299999 108.6747
v 118.4651 28.7 108.6747
v 118.4651 -1.299999 108.6747
v 115.8929 28.7 119.2906
v 115.8929 -1.299999 119.2906
v 115.8929 28.7 119.2906
v 115.8929 -1.299999 119.2906
v 111.9554 28.7 128.8851
v 111.9554 -1.299999 128.8851
v 111.9554 28.7 128.8851
v 111.9554 -1.299999 128.8851
v 111.5138 28.7 129.7727
v 111.5138 -1.299999 129.7727
v 111.5138 28.7 129.7727
v 111.5138 -1.299999 129.7727
v 101.9697 28.7 142.5139
v 101.9697 -1.299999 142.5139
v 101.9697 28.7 142.5139
v 101.9697 -1.299999 142.5139
v 91.18641 28.7 145.3652
v 91.18641 -1.299999 145.3652
vt -0.08099036 0.03015908
vt -0.08761105 0.02300727
vt -0.08023769 0.03479212
vt -0.09217239 0.02190004
vt -0.08327853 0.04072964
vt -0.09832646 0.02447463
vt -0.08683798 0.048194
vt -0.1067095 0.02806593
vt -0.08726694 0.05633529
vt -0.1181691 0.03239631
vt -0.08515619 0.06253856
vt -0.1295916 0.04108822
vt -0.08531963 0.06874707
vt -0.135871 0.05262098
vt -0.08757617 0.0743237
vt -0.1387314 0.06554011
vt -0.08803915 0.08079801
vt -0.1396431 0.07837652
vt -0.08753361 0.08942933
vt -0.1405957 0.08925796
vt -0.08788037 0.09875974
vt -0.1399284 0.09960748
vt -0.0879833 0.0997456
vt -0.1397934 0.1005896
vt -0.09246355 0.1150216
vt -0.134818 0.1157116
vt -0.1015665 0.1214672
vt -0.1255099 0.1218573
vt -0.08099036 0.03015908
vt -0.08099036 0.03015908
vt -0.08023769 0.03479212
vt -0.08023769 0.03479212
vt -0.08023769 0.03479212
vt -0.08023769 0.03479212
vt -0.08327853 0.04072964
vt -0.08327853 0.04072964
vt -0.08327853 0.04072964
vt -0.08327853 0.04072964
vt -0.08683798 0.048194
vt -0.08683798 0.048194
vt -0.08683798 0.048194
vt -0.08683798 0.048194
vt -0.08726694 0.05633529
vt -0.08726694 0.05633529
vt -0.08726694 0.05633529
vt -0.08726694 0.05633529
vt -0.08515619 0.06253856
vt -0.08515619 0.06253856
vt -0.08515619 0.06253856
vt -0.08515619 0.06253856
vt -0.08531963 0.06874707
vt -0.08531963 0.06874707
vt -0.08531963 0.06874707
vt -0.08531963 0.06874707
vt -0.08757617 0.0743237
vt -0.08757617 0.0743237
vt -0.08757617 0.0743237
vt -0.08757617 0.0743237
vt -0.08803915 0.08079801
vt -0.08803915 0.08079801
vt -0.08803915 0.08079801
vt -0.08803915 0.08079801
vt -0.08753361 0.08942933
vt -0.08753361 0.08942933
vt -0.08753361 0.08942933
vt -0.08753361 0.08942933
vt -0.08788037 0.09875974
vt -0.08788037 0.09875974
vt -0.08788037 0.09875974
vt -0.08788037 0.09875974
vt -0.0879833 0.0997456
vt -0.0879833 0.0997456
vt -0.0879833 0.0997456
vt -0.0879833 0.0997456
vt -0.09246355 0.1150216
vt -0.09246355 0.1150216
vt -0.09246355 0.1150216
vt -0.09246355 0.1150216
vt -0.1015665 0.1214672
vt -0.1015665 0.1214672
vt -0.08761105 0.02300727
vt -0.08761105 0.02300727
vt -0.09217239 0.02190004
vt -0.09217239 0.02190004
vt -0.09217239 0.02190004
vt -0.09217239 0.02190004
vt -0.09832646 0.02447463
vt -0.09832646 0.02447463
vt -0.09832646 0.02447463
vt -0.09832646 0.02447463
vt -0.1067095 0.02806593
vt -0.1067095 0.02806593
vt -0.1067095 0.02806593
vt -0.1067095 0.02806593
vt -0.1181691 0.03239631
vt -0.1181691 0.03239631
vt -0.1181691 0.03239631
vt -0.1181691 0.03239631
vt -0.1295916 0.04108822
vt -0.1295916 0.04108822
vt -0.1295916 0.04108822
vt -0.1295916 0.04108822
vt -0.135871 0.05262098
vt -0.135871 0.05262098
vt -0.135871 0.05262098
vt -0.135871 0.05262098
vt -0.1387314 0.06554011
vt -0.1387314 0.06554011
vt -0.1387314 0.06554011
vt -0.1387314 0.06554011
vt -0.1396431 0.07837652
vt -0.1396431 0.07837652
vt -0.1396431 0.07837652
vt -0.1396431 0.07837652
vt -0.1405957 0.08925796
vt -0.1405957 0.08925796
vt -0.1405957 0.08925796
vt -0.1405957 0.08925796
vt -0.1399284 0.09960748
vt -0.1399284 0.09960748
vt -0.1399284 0.09960748
vt -0.1399284 0.09960748
vt -0.1397934 0.1005896
vt -0.1397934 0.1005896
vt -0.1397934 0.1005896
vt -0.1397934 0.1005896
vt -0.134818 0.1157116
vt -0.134818 0.1157116
vt -0.134818 0.1157116
vt -0.134818 0.1157116
vt -0.1255099 0.1218573
vt -0.1255099 0.1218573
vn 0 1 0
vn 0 1 0
vn 0 1 0
vn 0 1 0
vn 0 1 0
vn 0 1 0
vn 0 1 0
vn 0 1 0
vn 0 1 0
vn 0 1 0
vn 0 1 0
vn 0 1 0
vn 0 1 0
vn 0 1 0
vn 0 1 0
vn 0 1 0
vn 0 1 0
vn 0 1 0
vn 0 1 0
vn 0 1 0
vn 0 1 0
vn 0 1 0
vn 0 1 0
vn 0 1 0
vn 0 1 0
vn 0 1 0
vn 0 1 0
vn 0 1 0
vn -0.4784595 0 -0.8781096
vn -0.4784595 0 -0.8781096
vn -0.8841649 0 -0.467175
vn -0.8841649 0 -0.467175
vn -0.9890283 0 0.1477261
vn -0.9890283 0 0.1477261
vn -0.9890283 0 0.1477261
vn -0.9890283 0 0.1477261
vn -0.9928182 0 0.1196333
vn -0.9928182 0 0.1196333
vn -0.9928182 0 0.1196333
vn -0.9928182 0 0.1196333
vn -0.9631271 0 -0.269047
vn -0.9631271 0 -0.269047
vn -0.9631271 0 -0.269047
vn -0.9631271 0 -0.269047
vn -0.7942541 0 -0.6075858
vn -0.7942541 0 -0.6075858
vn -0.7942541 0 -0.6075858
vn -0.7942541 0 -0.6075858
vn -0.955713 0 -0.2943003
vn -0.955713 0 -0.2943003
vn -0.955713 0 -0.2943003
vn -0.955713 0 -0.2943003
vn -0.9982328 0 0.05942447
vn -0.9982328 0 0.05942447
vn -0.9982328 0 0.05942447
vn -0.9982328 0 0.05942447
vn -0.9680014 0 -0.2509446
vn -0.9680014 0 -0.2509446
vn -0.9680014 0 -0.2509446
vn -0.9680014 0 -0.2509446
vn -0.9273432 0 -0.3742118
vn -0.9273432 0 -0.3742118
vn -0.9273432 0 -0.3742118
vn -0.9273432 0 -0.3742118
vn -0.9588432 0 -0.2839362
vn -0.9588432 0 -0.2839362
vn -0.9588432 0 -0.2839362
vn -0.9588432 0 -0.2839362
vn -0.9756768 0 -0.2192138
vn -0.9756768 0 -0.2192138
vn -0.9756768 0 -0.2192138
vn -0.9756768 0 -0.2192138
vn -0.9992098 0 -0.03974656
vn -0.9992098 0 -0.03974656
vn -0.9992098 0 -0.03974656
vn -0.9992098 0 -0.03974656
vn -0.8082477 0 0.5888426
vn -0.8082477 0 0.5888426
vn -0.3347424 0 0.9423097
vn -0.3347424 0 0.9423097
vn -0.4784595 0 -0.8781096
vn -0.4784595 0 -0.8781096
vn 0.086799 0 -0.9962259
vn 0.086799 0 -0.9962259
vn 0.6603404 0 -0.7509664
vn 0.6603404 0 -0.7509664
vn 0.6603404 0 -0.7509664
vn 0.6603404 0 -0.7509664
vn 0.6667132 0 -0.7453144
vn 0.6667132 0 -0.7453144
vn 0.6667132 0 -0.7453144
vn 0.6667132 0 -0.7453144
vn 0.6337094 0 -0.7735713
vn 0.6337094 0 -0.7735713
vn 0.6337094 0 -0.7735713
vn 0.6337094 0 -0.7735713
vn 0.8279897 0 -0.5607433
vn 0.8279897 0 -0.5607433
vn 0.8279897 0 -0.5607433
vn 0.8279897 0 -0.5607433
vn 0.984977 0 -0.1726855
vn 0.984977 0 -0.1726855
vn 0.984977 0 -0.1726855
vn 0.984977 0 -0.1726855
vn 0.9942645 0 0.1069495
vn 0.9942645 0 0.1069495
vn 0.9942645 0 0.1069495
vn 0.9942645 0 0.1069495
vn 0.9678803 0 0.2514116
vn 0.9678803 0 0.2514116
vn 0.9678803 0 0.2514116
vn 0.9678803 0 0.2514116
vn 0.9718779 0 0.2354854
vn 0.9718779 0 0.2354854
vn 0.9718779 0 0.2354854
vn 0.9718779 0 0.2354854
vn 0.925126 0 0.3796604
vn 0.925126 0 0.3796604
vn 0.925126 0 0.3796604
vn 0.925126 0 0.3796604
vn 0.8953273 0 0.4454088
vn 0.8953273 0 0.4454088
vn 0.8953273 0 0.4454088
vn 0.8953273 0 0.4454088
vn 0.8003554 0 0.5995259
vn 0.8003554 0 0.5995259
vn 0.8003554 0 0.5995259
vn 0.8003554 0 0.5995259
vn 0.2556357 0 0.9667732
vn 0.2556357 0 0.9667732
vn -0.3347424 0 0.9423097
vn -0.3347424 0 0.9423097
g _0
f 3/3/3 2/2/2 1/1/1
f 2/2/2 3/3/3 4/4/4
f 5/5/5 4/4/4 3/3/3
f 4/4/4 5/5/5 6/6/6
f 7/7/7 6/6/6 5/5/5
f 6/6/6 7/7/7 8/8/8
f 9/9/9 8/8/8 7/7/7
f 8/8/8 9/9/9 10/10/10
f 11/11/11 10/10/10 9/9/9
f 10/10/10 11/11/11 12/12/12
f 13/13/13 12/12/12 11/11/11
f 12/12/12 13/13/13 14/14/14
f 15/15/15 14/14/14 13/13/13
f 14/14/14 15/15/15 16/16/16
f 17/17/17 16/16/16 15/15/15
f 16/16/16 17/17/17 18/18/18
f 19/19/19 18/18/18 17/17/17
f 18/18/18 19/19/19 20/20/20
f 21/21/21 20/20/20 19/19/19
f 20/20/20 21/21/21 22/22/22
f 23/23/23 22/22/22 21/21/21
f 22/22/22 23/23/23 24/24/24
f 25/25/25 24/24/24 23/23/23
f 24/24/24 25/25/25 26/26/26
f 27/27/27 26/26/26 25/25/25
f 26/26/26 27/27/27 28/28/28
g _1
f 29/29/29 30/30/30 31/31/31
f 32/32/32 31/31/31 30/30/30
f 33/33/33 34/34/34 35/35/35
f 36/36/36 35/35/35 34/34/34
f 37/37/37 38/38/38 39/39/39
f 40/40/40 39/39/39 38/38/38
f 41/41/41 42/42/42 43/43/43
f 44/44/44 43/43/43 42/42/42
f 45/45/45 46/46/46 47/47/47
f 48/48/48 47/47/47 46/46/46
f 49/49/49 50/50/50 51/51/51
f 52/52/52 51/51/51 50/50/50
f 53/53/53 54/54/54 55/55/55
f 56/56/56 55/55/55 54/54/54
f 57/57/57 58/58/58 59/59/59
f 60/60/60 59/59/59 58/58/58
f 61/61/61 62/62/62 63/63/63
f 64/64/64 63/63/63 62/62/62
f 65/65/65 66/66/66 67/67/67
f 68/68/68 67/67/67 66/66/66
f 69/69/69 70/70/70 71/71/71
f 72/72/72 71/71/71 70/70/70
f 73/73/73 74/74/74 75/75/75
f 76/76/76 75/75/75 74/74/74
f 77/77/77 78/78/78 79/79/79
f 80/80/80 79/79/79 78/78/78
f 83/83/83 82/82/82 81/81/81
f 82/82/82 83/83/83 84/84/84
f 87/87/87 86/86/86 85/85/85
f 86/86/86 87/87/87 88/88/88
f 91/91/91 90/90/90 89/89/89
f 90/90/90 91/91/91 92/92/92
f 95/95/95 94/94/94 93/93/93
f 94/94/94 95/95/95 96/96/96
f 99/99/99 98/98/98 97/97/97
f 98/98/98 99/99/99 100/100/100
f 103/103/103 102/102/102 101/101/101
f 102/102/102 103/103/103 104/104/104
f 107/107/107 106/106/106 105/105/105
f 106/106/106 107/107/107 108/108/108
f 111/111/111 110/110/110 109/109/109
f 110/110/110 111/111/111 112/112/112
f 115/115/115 114/114/114 113/113/113
f 114/114/114 115/115/115 116/116/116
f 119/119/119 118/118/118 117/117/117
f 118/118/118 119/119/119 120/120/120
f 123/123/123 122/122/122 121/121/121
f 122/122/122 123/123/123 124/124/124
f 127/127/127 126/126/126 125/125/125
f 126/126/126 127/127/127 128/128/128
f 131/131/131 130/130/130 129/129/129
f 130/130/130 131/131/131 132/132/132
f 81/81/81 30/30/30 29/29/29
f 30/30/30 81/81/81 82/82/82
f 79/79/79 80/80/80 131/131/131
f 132/132/132 131/131/131 80/80/80
