g 
v 10.36756 0 -51.71493
v 7.78021 0 -47.9681
v 10.53026 0 -53.74556
v 5.93887 0 -47.09665
v 10.34728 0 -55.81993
v 3.934186 0 -46.53296
v 8.18714 0 -58.33944
v 0.8128588 0 -47.66056
v 6.158767 0 -59.26403
v -0.5974917 0 -49.11057
v 4.463028 0 -60.19941
v -2.842243 0 -50.71083
v 3.268773 0 -60.6578
v -4.976892 0 -53.31352
v 2.12538 0 -61.66784
v -6.479842 0 -55.95101
v 2.013845 0 -62.00862
v -7.822016 0 -58.13428
v 2.024396 0 -61.68023
v -8.416689 0 -61.11209
v 2.087214 0 -62.34132
v -8.200342 0 -63.40603
v 2.40598 0 -63.85121
v -8.184587 0 -64.87074
v 2.272077 0 -64.89796
v -8.072077 0 -64.10204
v 1.520798 0 -67.43474
v -7.71772 0 -66.72389
v 0.2107844 0 -68.40865
v -6.572117 0 -67.88675
v -1.452228 0 -69.10535
v -5.035261 0 -68.82965
vt -0.08651851 -0.1174591
vt -0.08747041 -0.1219118
vt -0.08714732 -0.1155214
vt -0.08883651 -0.123423
vt -0.08811212 -0.113676
vt -0.09047154 -0.1247127
vt -0.09107357 -0.112178
vt -0.09378663 -0.1248689
vt -0.09330145 -0.1121023
vt -0.09564535 -0.1240709
vt -0.09522629 -0.1118891
vt -0.09833226 -0.1234543
vt -0.09650502 -0.111924
vt -0.1013021 -0.1218697
vt -0.09794842 -0.1114299
vt -0.1037019 -0.1200106
vt -0.09818216 -0.111158
vt -0.105779 -0.1185094
vt -0.09804643 -0.1114572
vt -0.1074706 -0.1159875
vt -0.09824204 -0.1108226
vt -0.1081509 -0.1137861
vt -0.09852694 -0.1093059
vt -0.1086982 -0.1124275
vt -0.09905218 -0.1083906
vt -0.1082994 -0.1130942
vt -0.1007192 -0.1063362
vt -0.1089781 -0.110537
vt -0.1023026 -0.1059394
vt -0.1083663 -0.1090236
vt -0.1041057 -0.105934
vt -0.1073087 -0.1075633
vn 0 1 0
vn 0 1 0
vn 0 1 0
vn 0 1 0
vn 0 1 0
vn 0 1 0
vn 0 1 0
vn 0 1 0
vn 0 1 0
vn 0 1 0
vn 0 1 0
vn 0 1 0
vn 0 1 0
vn 0 1 0
vn 0 1 0
vn 0 1 0
vn 0 1 0
vn 0 1 0
vn 0 1 0
vn 0 1 0
vn 0 1 0
vn 0 1 0
vn 0 1 0
vn 0 1 0
vn 0 1 0
vn 0 1 0
vn 0 1 0
vn 0 1 0
vn 0 1 0
vn 0 1 0
vn 0 1 0
vn 0 1 0
g _0
f 3/3/3 2/2/2 1/1/1
f 2/2/2 3/3/3 4/4/4
f 5/5/5 4/4/4 3/3/3
f 4/4/4 5/5/5 6/6/6
f 7/7/7 6/6/6 5/5/5
f 6/6/6 7/7/7 8/8/8
f 9/9/9 8/8/8 7/7/7
f 8/8/8 9/9/9 10/10/10
f 11/11/11 10/10/10 9/9/9
f 10/10/10 11/11/11 12/12/12
f 13/13/13 12/12/12 11/11/11
f 12/12/12 13/13/13 14/14/14
f 15/15/15 14/14/14 13/13/13
f 14/14/14 15/15/15 16/16/16
f 17/17/17 16/16/16 15/15/15
f 16/16/16 17/17/17 18/18/18
f 18/18/18 19/19/19 20/20/20
f 21/21/21 20/20/20 19/19/19
f 20/20/20 21/21/21 22/22/22
f 23/23/23 22/22/22 21/21/21
f 22/22/22 23/23/23 24/24/24
f 25/25/25 24/24/24 23/23/23
f 27/27/27 26/26/26 25/25/25
f 26/26/26 27/27/27 28/28/28
f 29/29/29 28/28/28 27/27/27
f 28/28/28 29/29/29 30/30/30
f 31/31/31 30/30/30 29/29/29
f 30/30/30 31/31/31 32/32/32
