g 
v 0.1850395 17.77 -71.48826
v -4.718237 17.77 -70.81086
v 1.608978 17.77 -74.36562
v -6.868979 17.77 -73.19437
v 0.682075 20.83213 -79.65952
v -7.677366 20.83213 -80.46119
v 3.381473 20.67 -86.05266
v -6.021473 20.67 -88.82735
v 2.644196 20.67 -89.65611
v -3.445994 20.67 -91.45324
v 0.1850395 17.77 -71.48826
v 0.1850395 9.150001 -71.48826
v 1.608978 17.77 -74.36562
v 1.608978 9.150001 -74.36562
v 1.608978 17.77 -74.36562
v 1.608978 9.150001 -74.36562
v 0.682075 20.83213 -79.65952
v 0.682075 12.21213 -79.65952
v 0.682075 20.83213 -79.65952
v 0.682075 12.21213 -79.65952
v 3.381473 20.67 -86.05266
v 3.381473 12.05 -86.05266
v 3.381473 20.67 -86.05266
v 3.381473 12.05 -86.05266
v 2.644196 20.67 -89.65611
v 2.644196 12.05 -89.65611
v -4.718237 17.77 -70.81086
v -4.718237 9.150001 -70.81086
v -6.868979 17.77 -73.19437
v -6.868979 9.150001 -73.19437
v -6.868979 17.77 -73.19437
v -6.868979 9.150001 -73.19437
v -7.677366 20.83213 -80.46119
v -7.677366 12.21213 -80.46119
v -7.677366 20.83213 -80.46119
v -7.677366 12.21213 -80.46119
v -6.021473 20.67 -88.82735
v -6.021473 12.05 -88.82735
v -6.021473 20.67 -88.82735
v -6.021473 12.05 -88.82735
v -3.445994 20.67 -91.45324
v -3.445994 12.05 -91.45324
vt 0.01482277 -0.09755813
vt 0.01104589 -0.09435874
vt 0.01791588 -0.09669821
vt 0.01138551 -0.09116632
vt 0.02123966 -0.09247483
vt 0.01625762 -0.08571448
vt 0.02780222 -0.09021833
vt 0.02359307 -0.0813641
vt 0.02999367 -0.08726435
vt 0.02726744 -0.08152957
vt 0.01482277 -0.09755813
vt 0.01482277 -0.09755813
vt 0.01791588 -0.09669821
vt 0.01791588 -0.09669821
vt 0.01791588 -0.09669821
vt 0.01791588 -0.09669821
vt 0.02123966 -0.09247483
vt 0.02123966 -0.09247483
vt 0.02123966 -0.09247483
vt 0.02123966 -0.09247483
vt 0.02780222 -0.09021833
vt 0.02780222 -0.09021833
vt 0.02780222 -0.09021833
vt 0.02780222 -0.09021833
vt 0.02999367 -0.08726435
vt 0.02999367 -0.08726435
vt 0.01104589 -0.09435874
vt 0.01104589 -0.09435874
vt 0.01138551 -0.09116632
vt 0.01138551 -0.09116632
vt 0.01138551 -0.09116632
vt 0.01138551 -0.09116632
vt 0.01625762 -0.08571448
vt 0.01625762 -0.08571448
vt 0.01625762 -0.08571448
vt 0.01625762 -0.08571448
vt 0.02359307 -0.0813641
vt 0.02359307 -0.0813641
vt 0.02359307 -0.0813641
vt 0.02359307 -0.0813641
vt 0.02726744 -0.08152957
vt 0.02726744 -0.08152957
vn 0 1 0
vn 0 1 0
vn 0 1 0
vn 0 1 0
vn 0 1 0
vn 0 1 0
vn 0 1 0
vn 0 1 0
vn 0 1 0
vn 0 1 0
vn 0.1368524 0 0.9905915
vn 0.1368524 0 0.9905915
vn 0.8962567 0 0.4435359
vn 0.8962567 0 0.4435359
vn 0.9850155 0 -0.1724656
vn 0.9850155 0 -0.1724656
vn 0.9850155 0 -0.1724656
vn 0.9850155 0 -0.1724656
vn 0.9212459 0 0.3889807
vn 0.9212459 0 0.3889807
vn 0.9212459 0 0.3889807
vn 0.9212459 0 0.3889807
vn 0.9797038 0 -0.2004505
vn 0.9797038 0 -0.2004505
vn 0.2830217 0 -0.9591135
vn 0.2830217 0 -0.9591135
vn 0.1368524 0 0.9905915
vn 0.1368524 0 0.9905915
vn -0.7424295 0 0.6699242
vn -0.7424295 0 0.6699242
vn -0.9938692 0 0.1105617
vn -0.9938692 0 0.1105617
vn -0.9938692 0 0.1105617
vn -0.9938692 0 0.1105617
vn -0.9809697 0 -0.1941609
vn -0.9809697 0 -0.1941609
vn -0.9809697 0 -0.1941609
vn -0.9809697 0 -0.1941609
vn -0.7139268 0 -0.7002203
vn -0.7139268 0 -0.7002203
vn 0.2830217 0 -0.9591135
vn 0.2830217 0 -0.9591135
g _0
f 3/3/3 2/2/2 1/1/1
f 2/2/2 3/3/3 4/4/4
f 5/5/5 4/4/4 3/3/3
f 4/4/4 5/5/5 6/6/6
f 7/7/7 6/6/6 5/5/5
f 6/6/6 7/7/7 8/8/8
f 9/9/9 8/8/8 7/7/7
f 8/8/8 9/9/9 10/10/10
g _1
f 11/11/11 12/12/12 13/13/13
f 14/14/14 13/13/13 12/12/12
f 15/15/15 16/16/16 17/17/17
f 18/18/18 17/17/17 16/16/16
f 19/19/19 20/20/20 21/21/21
f 22/22/22 21/21/21 20/20/20
f 23/23/23 24/24/24 25/25/25
f 26/26/26 25/25/25 24/24/24
f 29/29/29 28/28/28 27/27/27
f 28/28/28 29/29/29 30/30/30
f 33/33/33 32/32/32 31/31/31
f 32/32/32 33/33/33 34/34/34
f 37/37/37 36/36/36 35/35/35
f 36/36/36 37/37/37 38/38/38
f 41/41/41 40/40/40 39/39/39
f 40/40/40 41/41/41 42/42/42
f 27/27/27 12/12/12 11/11/11
f 12/12/12 27/27/27 28/28/28
f 25/25/25 26/26/26 41/41/41
f 42/42/42 41/41/41 26/26/26
