g 
v -1.369814 17.6 -52.92623
v 1.365522 17.6 -57.62092
v -0.9737518 17.6 -50.9785
v 3.255285 17.6 -58.23682
v 1.200758 17.6 -48.36728
v 6.599242 17.6 -57.63272
v 7.468047 17.6 -42.9441
v 14.7856 17.6 -54.63451
v 13.04889 17.6 -35.90251
v 25.13473 17.6 -51.07901
v 15.53477 17.6 -28.22456
v 36.47173 17.6 -45.6603
v 16.78162 17.6 -24.03175
v 45.43975 17.6 -34.08508
v 21.82979 17.6 -23.61644
v 41.65065 17.6 -17.56069
v 19.33365 17.6 -21.05077
v 33.24635 17.6 -5.509232
v 17.24257 14.58533 -13.77619
v 20.97513 14.58533 -4.785892
v 9.031552 14.03 -11.55633
v 12.06236 14.03 -1.931365
v -0.4213815 14.03 -10.10957
v 3.75971 14.03 2.530681
v -3.718826 14.03 -8.243979
v -0.06117475 14.03 2.983978
v -7.331642 14.03 -6.35897
v -4.091067 14.03 3.58868
v -8.200151 14.03 -3.650487
v -6.388272 14.03 1.91147
v -1.369814 17.6 -52.92623
v -1.369814 8.98 -52.92623
v -0.9737518 17.6 -50.9785
v -0.9737518 8.98 -50.9785
v -0.9737518 17.6 -50.9785
v -0.9737518 8.98 -50.9785
v 1.200758 17.6 -48.36728
v 1.200758 8.98 -48.36728
v 1.200758 17.6 -48.36728
v 1.200758 8.98 -48.36728
v 7.468047 17.6 -42.9441
v 7.468047 8.98 -42.9441
v 7.468047 17.6 -42.9441
v 7.468047 8.98 -42.9441
v 13.04889 17.6 -35.90251
v 13.04889 8.98 -35.90251
v 13.04889 17.6 -35.90251
v 13.04889 8.98 -35.90251
v 15.53477 17.6 -28.22456
v 15.53477 8.98 -28.22456
v 15.53477 17.6 -28.22456
v 15.53477 8.98 -28.22456
v 16.78162 17.6 -24.03175
v 16.78162 8.98 -24.03175
v 16.78162 17.6 -24.03175
v 16.78162 8.98 -24.03175
v 21.82979 17.6 -23.61644
v 21.82979 8.98 -23.61644
v 21.82979 17.6 -23.61644
v 21.82979 8.98 -23.61644
v 19.33365 17.6 -21.05077
v 19.33365 8.98 -21.05077
v 19.33365 17.6 -21.05077
v 19.33365 8.98 -21.05077
v 17.24257 14.58533 -13.77619
v 17.24257 5.965333 -13.77619
v 17.24257 14.58533 -13.77619
v 17.24257 5.965333 -13.77619
v 9.031552 14.03 -11.55633
v 9.031552 5.41 -11.55633
v 9.031552 14.03 -11.55633
v 9.031552 5.41 -11.55633
v -0.4213815 14.03 -10.10957
v -0.4213815 5.41 -10.10957
v -0.4213815 14.03 -10.10957
v -0.4213815 5.41 -10.10957
v -3.718826 14.03 -8.243979
v -3.718826 5.41 -8.243979
v -3.718826 14.03 -8.243979
v -3.718826 5.41 -8.243979
v -7.331642 14.03 -6.35897
v -7.331642 5.41 -6.35897
v -7.331642 14.03 -6.35897
v -7.331642 5.41 -6.35897
v -8.200151 14.03 -3.650487
v -8.200151 5.41 -3.650487
v 1.365522 17.6 -57.62092
v 1.365522 8.98 -57.62092
v 3.255285 17.6 -58.23682
v 3.255285 8.98 -58.23682
v 3.255285 17.6 -58.23682
v 3.255285 8.98 -58.23682
v 6.599242 17.6 -57.63272
v 6.599242 8.98 -57.63272
v 6.599242 17.6 -57.63272
v 6.599242 8.98 -57.63272
v 14.7856 17.6 -54.63451
v 14.7856 8.98 -54.63451
v 14.7856 17.6 -54.63451
v 14.7856 8.98 -54.63451
v 25.13473 17.6 -51.07901
v 25.13473 8.98 -51.07901
v 25.13473 17.6 -51.07901
v 25.13473 8.98 -51.07901
v 36.47173 17.6 -45.6603
v 36.47173 8.98 -45.6603
v 36.47173 17.6 -45.6603
v 36.47173 8.98 -45.6603
v 45.43975 17.6 -34.08508
v 45.43975 8.98 -34.08508
v 45.43975 17.6 -34.08508
v 45.43975 8.98 -34.08508
v 41.65065 17.6 -17.56069
v 41.65065 8.98 -17.56069
v 41.65065 17.6 -17.56069
v 41.65065 8.98 -17.56069
v 33.24635 17.6 -5.509232
v 33.24635 8.98 -5.509232
v 33.24635 17.6 -5.509232
v 33.24635 8.98 -5.509232
v 20.97513 14.58533 -4.785892
v 20.97513 5.965333 -4.785892
v 20.97513 14.58533 -4.785892
v 20.97513 5.965333 -4.785892
v 12.06236 14.03 -1.931365
v 12.06236 5.41 -1.931365
v 12.06236 14.03 -1.931365
v 12.06236 5.41 -1.931365
v 3.75971 14.03 2.530681
v 3.75971 5.41 2.530681
v 3.75971 14.03 2.530681
v 3.75971 5.41 2.530681
v -0.06117475 14.03 2.983978
v -0.06117475 5.41 2.983978
v -0.06117475 14.03 2.983978
v -0.06117475 5.41 2.983978
v -4.091067 14.03 3.58868
v -4.091067 5.41 3.58868
v -4.091067 14.03 3.58868
v -4.091067 5.41 3.58868
v -6.388272 14.03 1.91147
v -6.388272 5.41 1.91147
vt -3.815028E-05 -0.1087884
vt 0.005283551 -0.1076922
vt -0.001224301 -0.1103833
vt 0.007003434 -0.1086885
vt -0.001717632 -0.1137454
vt 0.008785295 -0.1115819
vt -0.001573545 -0.122032
vt 0.01201606 -0.1196793
vt -0.003092818 -0.1308876
vt 0.01627521 -0.1297593
vt -0.007151564 -0.1378631
vt 0.01980613 -0.1418184
vt -0.009441826 -0.1415899
vt 0.01717122 -0.1562222
vt -0.006381985 -0.1456265
vt 0.00233661 -0.1644287
vt -0.009958559 -0.1454799
vt -0.01224715 -0.1662131
vt -0.01677155 -0.1487777
vt -0.02097557 -0.1575574
vt -0.02390467 -0.1441444
vt -0.02904968 -0.1528251
vt -0.03129092 -0.1380703
vt -0.03791373 -0.14962
vt -0.03488093 -0.1368598
vt -0.04080134 -0.1470772
vt -0.03869588 -0.1354274
vt -0.0439412 -0.1444796
vt -0.04129254 -0.1365882
vt -0.04422531 -0.1416495
vt -3.815028E-05 -0.1087884
vt -3.815028E-05 -0.1087884
vt -0.001224301 -0.1103833
vt -0.001224301 -0.1103833
vt -0.001224301 -0.1103833
vt -0.001224301 -0.1103833
vt -0.001717632 -0.1137454
vt -0.001717632 -0.1137454
vt -0.001717632 -0.1137454
vt -0.001717632 -0.1137454
vt -0.001573545 -0.122032
vt -0.001573545 -0.122032
vt -0.001573545 -0.122032
vt -0.001573545 -0.122032
vt -0.003092818 -0.1308876
vt -0.003092818 -0.1308876
vt -0.003092818 -0.1308876
vt -0.003092818 -0.1308876
vt -0.007151564 -0.1378631
vt -0.007151564 -0.1378631
vt -0.007151564 -0.1378631
vt -0.007151564 -0.1378631
vt -0.009441826 -0.1415899
vt -0.009441826 -0.1415899
vt -0.009441826 -0.1415899
vt -0.009441826 -0.1415899
vt -0.006381985 -0.1456265
vt -0.006381985 -0.1456265
vt -0.006381985 -0.1456265
vt -0.006381985 -0.1456265
vt -0.009958559 -0.1454799
vt -0.009958559 -0.1454799
vt -0.009958559 -0.1454799
vt -0.009958559 -0.1454799
vt -0.01677155 -0.1487777
vt -0.01677155 -0.1487777
vt -0.01677155 -0.1487777
vt -0.01677155 -0.1487777
vt -0.02390467 -0.1441444
vt -0.02390467 -0.1441444
vt -0.02390467 -0.1441444
vt -0.02390467 -0.1441444
vt -0.03129092 -0.1380703
vt -0.03129092 -0.1380703
vt -0.03129092 -0.1380703
vt -0.03129092 -0.1380703
vt -0.03488093 -0.1368598
vt -0.03488093 -0.1368598
vt -0.03488093 -0.1368598
vt -0.03488093 -0.1368598
vt -0.03869588 -0.1354274
vt -0.03869588 -0.1354274
vt -0.03869588 -0.1354274
vt -0.03869588 -0.1354274
vt -0.04129254 -0.1365882
vt -0.04129254 -0.1365882
vt 0.005283551 -0.1076922
vt 0.005283551 -0.1076922
vt 0.007003434 -0.1086885
vt 0.007003434 -0.1086885
vt 0.007003434 -0.1086885
vt 0.007003434 -0.1086885
vt 0.008785295 -0.1115819
vt 0.008785295 -0.1115819
vt 0.008785295 -0.1115819
vt 0.008785295 -0.1115819
vt 0.01201606 -0.1196793
vt 0.01201606 -0.1196793
vt 0.01201606 -0.1196793
vt 0.01201606 -0.1196793
vt 0.01627521 -0.1297593
vt 0.01627521 -0.1297593
vt 0.01627521 -0.1297593
vt 0.01627521 -0.1297593
vt 0.01980613 -0.1418184
vt 0.01980613 -0.1418184
vt 0.01980613 -0.1418184
vt 0.01980613 -0.1418184
vt 0.01717122 -0.1562222
vt 0.01717122 -0.1562222
vt 0.01717122 -0.1562222
vt 0.01717122 -0.1562222
vt 0.00233661 -0.1644287
vt 0.00233661 -0.1644287
vt 0.00233661 -0.1644287
vt 0.00233661 -0.1644287
vt -0.01224715 -0.1662131
vt -0.01224715 -0.1662131
vt -0.01224715 -0.1662131
vt -0.01224715 -0.1662131
vt -0.02097557 -0.1575574
vt -0.02097557 -0.1575574
vt -0.02097557 -0.1575574
vt -0.02097557 -0.1575574
vt -0.02904968 -0.1528251
vt -0.02904968 -0.1528251
vt -0.02904968 -0.1528251
vt -0.02904968 -0.1528251
vt -0.03791373 -0.14962
vt -0.03791373 -0.14962
vt -0.03791373 -0.14962
vt -0.03791373 -0.14962
vt -0.04080134 -0.1470772
vt -0.04080134 -0.1470772
vt -0.04080134 -0.1470772
vt -0.04080134 -0.1470772
vt -0.0439412 -0.1444796
vt -0.0439412 -0.1444796
vt -0.0439412 -0.1444796
vt -0.0439412 -0.1444796
vt -0.04422531 -0.1416495
vt -0.04422531 -0.1416495
vn 0 1 0
vn 0 1 0
vn 0 1 0
vn 0 1 0
vn 0 1 0
vn 0 1 0
vn 0 1 0
vn 0 1 0
vn 0 1 0
vn 0 1 0
vn 0 1 0
vn 0 1 0
vn 0 1 0
vn 0 1 0
vn 0 1 0
vn 0 1 0
vn 0 1 0
vn 0 1 0
vn 0 1 0
vn 0 1 0
vn 0 1 0
vn 0 1 0
vn 0 1 0
vn 0 1 0
vn 0 1 0
vn 0 1 0
vn 0 1 0
vn 0 1 0
vn 0 1 0
vn 0 1 0
vn -0.8640376 0 -0.5034271
vn -0.8640376 0 -0.5034271
vn -0.9799451 0 0.1992676
vn -0.9799451 0 0.1992676
vn -0.7684395 0 0.6399226
vn -0.7684395 0 0.6399226
vn -0.7684395 0 0.6399226
vn -0.7684395 0 0.6399226
vn -0.6543469 0 0.7561944
vn -0.6543469 0 0.7561944
vn -0.6543469 0 0.7561944
vn -0.6543469 0 0.7561944
vn -0.7837068 0 0.6211308
vn -0.7837068 0 0.6211308
vn -0.7837068 0 0.6211308
vn -0.7837068 0 0.6211308
vn -0.951378 0 0.3080257
vn -0.951378 0 0.3080257
vn -0.951378 0 0.3080257
vn -0.951378 0 0.3080257
vn -0.9585153 0 0.285041
vn -0.9585153 0 0.285041
vn -0.9585153 0 0.285041
vn -0.9585153 0 0.285041
vn -0.08199199 0 0.996633
vn -0.08199199 0 0.996633
vn -0.08199199 0 0.996633
vn -0.08199199 0 0.996633
vn -0.7167532 0 -0.6973269
vn -0.7167532 0 -0.6973269
vn -0.7167532 0 -0.6973269
vn -0.7167532 0 -0.6973269
vn -0.9610817 0 -0.2762643
vn -0.9610817 0 -0.2762643
vn -0.9610817 0 -0.2762643
vn -0.9610817 0 -0.2762643
vn -0.2609817 0 -0.9653438
vn -0.2609817 0 -0.9653438
vn -0.2609817 0 -0.9653438
vn -0.2609817 0 -0.9653438
vn -0.1512873 0 -0.9884898
vn -0.1512873 0 -0.9884898
vn -0.1512873 0 -0.9884898
vn -0.1512873 0 -0.9884898
vn -0.4924207 0 -0.8703573
vn -0.4924207 0 -0.8703573
vn -0.4924207 0 -0.8703573
vn -0.4924207 0 -0.8703573
vn -0.4625778 0 -0.8865787
vn -0.4625778 0 -0.8865787
vn -0.4625778 0 -0.8865787
vn -0.4625778 0 -0.8865787
vn -0.9522408 0 -0.3053481
vn -0.9522408 0 -0.3053481
vn -0.9508206 0 0.3097421
vn -0.9508206 0 0.3097421
vn -0.8640376 0 -0.5034271
vn -0.8640376 0 -0.5034271
vn -0.3098728 0 -0.950778
vn -0.3098728 0 -0.950778
vn 0.1777774 0 -0.9840707
vn 0.1777774 0 -0.9840707
vn 0.1777774 0 -0.9840707
vn 0.1777774 0 -0.9840707
vn 0.3439045 0 -0.9390047
vn 0.3439045 0 -0.9390047
vn 0.3439045 0 -0.9390047
vn 0.3439045 0 -0.9390047
vn 0.3249156 0 -0.945743
vn 0.3249156 0 -0.945743
vn 0.3249156 0 -0.945743
vn 0.3249156 0 -0.945743
vn 0.4312395 0 -0.9022375
vn 0.4312395 0 -0.9022375
vn 0.4312395 0 -0.9022375
vn 0.4312395 0 -0.9022375
vn 0.790507 0 -0.612453
vn 0.790507 0 -0.612453
vn 0.790507 0 -0.612453
vn 0.790507 0 -0.612453
vn 0.9747033 0 0.2235032
vn 0.9747033 0 0.2235032
vn 0.9747033 0 0.2235032
vn 0.9747033 0 0.2235032
vn 0.820245 0 0.5720124
vn 0.820245 0 0.5720124
vn 0.820245 0 0.5720124
vn 0.820245 0 0.5720124
vn 0.05884386 0 0.9982672
vn 0.05884386 0 0.9982672
vn 0.05884386 0 0.9982672
vn 0.05884386 0 0.9982672
vn 0.3050124 0 0.9523484
vn 0.3050124 0 0.9523484
vn 0.3050124 0 0.9523484
vn 0.3050124 0 0.9523484
vn 0.4733913 0 0.8808523
vn 0.4733913 0 0.8808523
vn 0.4733913 0 0.8808523
vn 0.4733913 0 0.8808523
vn 0.1178106 0 0.9930361
vn 0.1178106 0 0.9930361
vn 0.1178106 0 0.9930361
vn 0.1178106 0 0.9930361
vn 0.1483928 0 0.9889285
vn 0.1483928 0 0.9889285
vn 0.1483928 0 0.9889285
vn 0.1483928 0 0.9889285
vn -0.589669 0 0.807645
vn -0.589669 0 0.807645
vn -0.9508206 0 0.3097421
vn -0.9508206 0 0.3097421
g _0
f 3/3/3 2/2/2 1/1/1
f 2/2/2 3/3/3 4/4/4
f 5/5/5 4/4/4 3/3/3
f 4/4/4 5/5/5 6/6/6
f 7/7/7 6/6/6 5/5/5
f 6/6/6 7/7/7 8/8/8
f 9/9/9 8/8/8 7/7/7
f 8/8/8 9/9/9 10/10/10
f 11/11/11 10/10/10 9/9/9
f 10/10/10 11/11/11 12/12/12
f 13/13/13 12/12/12 11/11/11
f 12/12/12 13/13/13 14/14/14
f 15/15/15 14/14/14 13/13/13
f 14/14/14 15/15/15 16/16/16
f 17/17/17 16/16/16 15/15/15
f 16/16/16 17/17/17 18/18/18
f 19/19/19 18/18/18 17/17/17
f 18/18/18 19/19/19 20/20/20
f 21/21/21 20/20/20 19/19/19
f 20/20/20 21/21/21 22/22/22
f 23/23/23 22/22/22 21/21/21
f 22/22/22 23/23/23 24/24/24
f 25/25/25 24/24/24 23/23/23
f 24/24/24 25/25/25 26/26/26
f 27/27/27 26/26/26 25/25/25
f 26/26/26 27/27/27 28/28/28
f 29/29/29 28/28/28 27/27/27
f 28/28/28 29/29/29 30/30/30
g _1
f 31/31/31 32/32/32 33/33/33
f 34/34/34 33/33/33 32/32/32
f 35/35/35 36/36/36 37/37/37
f 38/38/38 37/37/37 36/36/36
f 39/39/39 40/40/40 41/41/41
f 42/42/42 41/41/41 40/40/40
f 43/43/43 44/44/44 45/45/45
f 46/46/46 45/45/45 44/44/44
f 47/47/47 48/48/48 49/49/49
f 50/50/50 49/49/49 48/48/48
f 51/51/51 52/52/52 53/53/53
f 54/54/54 53/53/53 52/52/52
f 55/55/55 56/56/56 57/57/57
f 58/58/58 57/57/57 56/56/56
f 59/59/59 60/60/60 61/61/61
f 62/62/62 61/61/61 60/60/60
f 63/63/63 64/64/64 65/65/65
f 66/66/66 65/65/65 64/64/64
f 67/67/67 68/68/68 69/69/69
f 70/70/70 69/69/69 68/68/68
f 71/71/71 72/72/72 73/73/73
f 74/74/74 73/73/73 72/72/72
f 75/75/75 76/76/76 77/77/77
f 78/78/78 77/77/77 76/76/76
f 79/79/79 80/80/80 81/81/81
f 82/82/82 81/81/81 80/80/80
f 83/83/83 84/84/84 85/85/85
f 86/86/86 85/85/85 84/84/84
f 89/89/89 88/88/88 87/87/87
f 88/88/88 89/89/89 90/90/90
f 93/93/93 92/92/92 91/91/91
f 92/92/92 93/93/93 94/94/94
f 97/97/97 96/96/96 95/95/95
f 96/96/96 97/97/97 98/98/98
f 101/101/101 100/100/100 99/99/99
f 100/100/100 101/101/101 102/102/102
f 105/105/105 104/104/104 103/103/103
f 104/104/104 105/105/105 106/106/106
f 109/109/109 108/108/108 107/107/107
f 108/108/108 109/109/109 110/110/110
f 113/113/113 112/112/112 111/111/111
f 112/112/112 113/113/113 114/114/114
f 117/117/117 116/116/116 115/115/115
f 116/116/116 117/117/117 118/118/118
f 121/121/121 120/120/120 119/119/119
f 120/120/120 121/121/121 122/122/122
f 125/125/125 124/124/124 123/123/123
f 124/124/124 125/125/125 126/126/126
f 129/129/129 128/128/128 127/127/127
f 128/128/128 129/129/129 130/130/130
f 133/133/133 132/132/132 131/131/131
f 132/132/132 133/133/133 134/134/134
f 137/137/137 136/136/136 135/135/135
f 136/136/136 137/137/137 138/138/138
f 141/141/141 140/140/140 139/139/139
f 140/140/140 141/141/141 142/142/142
f 87/87/87 32/32/32 31/31/31
f 32/32/32 87/87/87 88/88/88
f 85/85/85 86/86/86 141/141/141
f 142/142/142 141/141/141 86/86/86
