g 
v 39.39169 108.4166 -108.0435
v 39.39169 94.41657 -108.0435
v 42.78312 108.4166 -107.0233
v 42.78312 94.41657 -107.0233
v 41.98715 108.4166 -103.5858
v 41.98715 94.41657 -103.5858
v 37.78687 108.4166 -103.5899
v 37.78687 94.41657 -103.5899
v 35.33834 108.4166 -103.129
v 35.33834 94.41657 -103.129
v 33.29603 108.4166 -105.0269
v 33.29603 94.41657 -105.0269
v 32.56727 108.4166 -109.5606
v 32.56727 94.41657 -109.5606
v 36.19886 108.4166 -110.4982
v 36.19886 94.41657 -110.4982
v 38.83985 108.4166 -110.0074
v 38.83985 94.41657 -110.0074
v 39.39169 108.4166 -108.0435
v 39.39169 94.41657 -108.0435
vt 0.4336381 -0.5928787
vt 0.4336381 -0.5928787
vt 0.3997238 -0.5826767
vt 0.3997238 -0.5826767
vt 0.4076835 -0.5483019
vt 0.4076835 -0.5483019
vt 0.4496863 -0.5483429
vt 0.4496863 -0.5483429
vt 0.4741715 -0.543734
vt 0.4741715 -0.543734
vt 0.4945947 -0.5627134
vt 0.4945947 -0.5627134
vt 0.5018823 -0.6080497
vt 0.5018823 -0.6080497
vt 0.4655664 -0.6174257
vt 0.4655664 -0.6174257
vt 0.4391565 -0.6125183
vt 0.4391565 -0.6125183
vt 0.4336381 -0.5928787
vt 0.4336381 -0.5928787
vn 0.2880666 0 -0.9576104
vn 0.2880666 0 -0.9576104
vn 0.974223 0 0.2255868
vn 0.974223 0 0.2255868
vn -0.0009754064 0 0.9999995
vn -0.0009754064 0 0.9999995
vn 0.1849838 0 0.9827415
vn 0.1849838 0 0.9827415
vn -0.6807409 0 0.7325243
vn -0.6807409 0 0.7325243
vn -0.9873256 0 0.1587079
vn -0.9873256 0 0.1587079
vn -0.2499816 0 -0.9682506
vn -0.2499816 0 -0.9682506
vn 0.1826889 0 -0.9831707
vn 0.1826889 0 -0.9831707
vn 0.9627171 0 -0.2705103
vn 0.9627171 0 -0.2705103
vn 0.9627171 0 -0.2705103
vn 0.9627171 0 -0.2705103
g _0
f 3/3/3 2/2/2 1/1/1
f 2/2/2 3/3/3 4/4/4
f 5/5/5 4/4/4 3/3/3
f 4/4/4 5/5/5 6/6/6
f 7/7/7 6/6/6 5/5/5
f 6/6/6 7/7/7 8/8/8
f 9/9/9 8/8/8 7/7/7
f 8/8/8 9/9/9 10/10/10
f 11/11/11 10/10/10 9/9/9
f 10/10/10 11/11/11 12/12/12
f 13/13/13 12/12/12 11/11/11
f 12/12/12 13/13/13 14/14/14
f 15/15/15 14/14/14 13/13/13
f 14/14/14 15/15/15 16/16/16
f 17/17/17 16/16/16 15/15/15
f 16/16/16 17/17/17 18/18/18
f 19/19/19 18/18/18 17/17/17
f 18/18/18 19/19/19 20/20/20
