g 
v 59.31442 59.59 -8.003772
v 59.31442 45.59 -8.003772
v 54.61559 59.59 -10.53177
v 54.61559 45.59 -10.53177
v 45.57791 59.59 -0.4023705
v 45.57791 45.59 -0.4023705
v 40.53629 59.59 3.153647
v 40.53629 45.59 3.153647
v 40.81333 59.59 5.975032
v 40.81333 45.59 5.975032
v 43.41842 59.59 12.56225
v 43.41842 45.59 12.56225
v 46.08158 65.25343 11.04894
v 46.08158 51.25343 11.04894
v 45.22675 65.25343 6.359282
v 45.22675 51.25343 6.359282
v 46.38365 65.25343 3.47972
v 46.38365 51.25343 3.47972
v 49.52363 65.25343 2.373677
v 49.52363 51.25343 2.373677
v 54.10519 65.21848 2.496881
v 54.10519 51.21848 2.496881
v 56.53564 65.1899 5.744543
v 56.53564 51.1899 5.744543
v 55.27704 65.17871 12.69572
v 55.27704 51.17871 12.69572
v 57.79747 63.42712 13.74834
v 57.79747 49.42712 13.74834
v 63.29411 59.59 11.62602
v 63.29411 45.59 11.62602
v 62.96356 59.59 6.382819
v 62.96356 45.59 6.382819
v 60.99525 59.59 3.878742
v 60.99525 45.59 3.878742
v 57.73571 59.59 3.177379
v 57.73571 45.59 3.177379
v 54.19804 59.59 1.096504
v 54.19804 45.59 1.096504
v 54.99364 59.59 -1.688945
v 54.99364 45.59 -1.688945
v 57.76693 59.59 -3.864795
v 57.76693 45.59 -3.864795
v 59.31442 59.59 -8.003772
v 59.31442 45.59 -8.003772
vt -0.6141442 -0.1930377
vt -0.6141442 -0.1930377
vt -0.5671559 -0.2183177
vt -0.5671559 -0.2183177
vt -0.4767791 -0.1170237
vt -0.4767791 -0.1170237
vt -0.4263629 -0.08146352
vt -0.4263629 -0.08146352
vt -0.4291333 -0.05324968
vt -0.4291333 -0.05324968
vt -0.4551842 0.01262251
vt -0.4551842 0.01262251
vt -0.4818158 -0.002510557
vt -0.4818158 -0.002510557
vt -0.4732674 -0.04940718
vt -0.4732674 -0.04940718
vt -0.4848365 -0.0782028
vt -0.4848365 -0.0782028
vt -0.5162363 -0.08926323
vt -0.5162363 -0.08926323
vt -0.5620519 -0.0880312
vt -0.5620519 -0.0880312
vt -0.5863563 -0.05555458
vt -0.5863563 -0.05555458
vt -0.5737703 0.01395723
vt -0.5737703 0.01395723
vt -0.5989746 0.02448339
vt -0.5989746 0.02448339
vt -0.6539411 0.003260183
vt -0.6539411 0.003260183
vt -0.6506356 -0.04917181
vt -0.6506356 -0.04917181
vt -0.6309524 -0.07421258
vt -0.6309524 -0.07421258
vt -0.5983571 -0.08122621
vt -0.5983571 -0.08122621
vt -0.5629804 -0.102035
vt -0.5629804 -0.102035
vt -0.5709364 -0.1298894
vt -0.5709364 -0.1298894
vt -0.5986693 -0.1516479
vt -0.5986693 -0.1516479
vt -0.6141442 -0.1930377
vt -0.6141442 -0.1930377
vn 0.4737887 0 -0.8806385
vn 0.4737887 0 -0.8806385
vn -0.7461727 0 -0.6657524
vn -0.7461727 0 -0.6657524
vn -0.5763834 0 -0.8171795
vn -0.5763834 0 -0.8171795
vn -0.9952137 0 0.09772243
vn -0.9952137 0 0.09772243
vn -0.9299201 0 0.3677617
vn -0.9299201 0 0.3677617
vn 0.4940466 0 0.8694354
vn 0.4940466 0 0.8694354
vn 0.9837899 0 -0.1793252
vn 0.9837899 0 -0.1793252
vn 0.9279109 0 0.3728019
vn 0.9279109 0 0.3728019
vn 0.3322363 0 0.9431962
vn 0.3322363 0 0.9431962
vn -0.02688139 0 0.9996387
vn -0.02688139 0 0.9996387
vn -0.8006272 0 0.5991629
vn -0.8006272 0 0.5991629
vn -0.9840006 0 -0.1781656
vn -0.9840006 0 -0.1781656
vn -0.3853753 0 0.9227599
vn -0.3853753 0 0.9227599
vn 0.3601952 0 0.9328769
vn 0.3601952 0 0.9328769
vn 0.9980187 0 -0.06291887
vn 0.9980187 0 -0.06291887
vn 0.7861922 0 -0.617982
vn 0.7861922 0 -0.617982
vn 0.2103581 0 -0.9776244
vn 0.2103581 0 -0.9776244
vn 0.5070001 0 -0.8619459
vn 0.5070001 0 -0.8619459
vn 0.9615453 0 0.2746464
vn 0.9615453 0 0.2746464
vn 0.6172672 0 0.7867536
vn 0.6172672 0 0.7867536
vn 0.9366727 0 0.350206
vn 0.9366727 0 0.350206
vn 0.9366727 0 0.350206
vn 0.9366727 0 0.350206
g _0
f 1/1/1 2/2/2 3/3/3
f 4/4/4 3/3/3 2/2/2
f 3/3/3 4/4/4 5/5/5
f 6/6/6 5/5/5 4/4/4
f 5/5/5 6/6/6 7/7/7
f 8/8/8 7/7/7 6/6/6
f 7/7/7 8/8/8 9/9/9
f 10/10/10 9/9/9 8/8/8
f 9/9/9 10/10/10 11/11/11
f 12/12/12 11/11/11 10/10/10
f 11/11/11 12/12/12 13/13/13
f 14/14/14 13/13/13 12/12/12
f 13/13/13 14/14/14 15/15/15
f 16/16/16 15/15/15 14/14/14
f 15/15/15 16/16/16 17/17/17
f 18/18/18 17/17/17 16/16/16
f 17/17/17 18/18/18 19/19/19
f 20/20/20 19/19/19 18/18/18
f 19/19/19 20/20/20 21/21/21
f 22/22/22 21/21/21 20/20/20
f 21/21/21 22/22/22 23/23/23
f 24/24/24 23/23/23 22/22/22
f 23/23/23 24/24/24 25/25/25
f 26/26/26 25/25/25 24/24/24
f 25/25/25 26/26/26 27/27/27
f 28/28/28 27/27/27 26/26/26
f 27/27/27 28/28/28 29/29/29
f 30/30/30 29/29/29 28/28/28
f 29/29/29 30/30/30 31/31/31
f 32/32/32 31/31/31 30/30/30
f 31/31/31 32/32/32 33/33/33
f 34/34/34 33/33/33 32/32/32
f 33/33/33 34/34/34 35/35/35
f 36/36/36 35/35/35 34/34/34
f 35/35/35 36/36/36 37/37/37
f 38/38/38 37/37/37 36/36/36
f 37/37/37 38/38/38 39/39/39
f 40/40/40 39/39/39 38/38/38
f 39/39/39 40/40/40 41/41/41
f 42/42/42 41/41/41 40/40/40
f 41/41/41 42/42/42 43/43/43
f 44/44/44 43/43/43 42/42/42
