g 
v -42.69445 13.49 -14.72291
v -47.2839 13.49 -19.32996
v -39.84251 13.49 -14.25545
v -47.74045 13.49 -22.18366
v -35.94604 13.49 -16.12707
v -45.85396 13.49 -26.07293
v -31.7845 13.49 -18.18626
v -43.77886 13.49 -30.22658
v -27.44739 13.49 -20.25586
v -41.18637 13.49 -35.06013
v -22.35993 13.49 -20.9506
v -39.02325 13.49 -40.62203
v -18.11034 13.49 -20.31757
v -35.94202 13.49 -47.35006
v -15.23285 13.49 -19.50702
v -30.27368 13.49 -52.53846
v -10.93846 13.49 -19.46176
v -25.5015 13.49 -56.22566
v -6.235068 13.49 -20.58125
v -21.03189 13.49 -58.68936
v -2.713175 13.49 -23.28708
v -15.33515 13.49 -59.54154
v -1.277482 13.49 -24.50286
v -7.416059 13.49 -61.23408
v 1.134033 13.49 -26.0338
v 0.07178319 13.49 -60.0126
v 3.788417 13.49 -27.48195
v 7.316757 13.49 -58.87393
v 5.975975 13.49 -27.82533
v 14.52505 13.49 -56.05236
v 10.24268 13.49 -27.12286
v 19.52833 13.49 -53.57972
v 14.65055 13.49 -25.84662
v 24.38748 13.49 -51.52509
v 18.71821 13.49 -25.58782
v 29.5799 13.49 -48.08953
v 21.49949 13.49 -24.99798
v 35.24582 13.49 -43.82633
v 25.13274 13.49 -23.89688
v 38.84044 13.49 -38.33632
v 29.1281 13.49 -21.6966
v 41.75135 13.49 -33.70983
v 32.62778 13.49 -18.7238
v 44.67552 13.49 -29.50238
v 35.50247 13.49 -16.77107
v 46.29753 13.49 -26.42893
v 39.31935 13.49 -14.45221
v 48.17896 13.49 -22.37851
v 42.47234 13.49 -14.8981
v 47.38628 13.49 -19.29438
v -42.69445 13.49 -14.72291
v -42.69445 3.559999 -14.72291
v -39.84251 13.49 -14.25545
v -39.84251 3.559999 -14.25545
v -39.84251 13.49 -14.25545
v -39.84251 3.559999 -14.25545
v -35.94604 13.49 -16.12707
v -35.94604 3.559999 -16.12707
v -35.94604 13.49 -16.12707
v -35.94604 3.559999 -16.12707
v -31.7845 13.49 -18.18626
v -31.7845 3.559999 -18.18626
v -31.7845 13.49 -18.18626
v -31.7845 3.559999 -18.18626
v -27.44739 13.49 -20.25586
v -27.44739 3.559999 -20.25586
v -27.44739 13.49 -20.25586
v -27.44739 3.559999 -20.25586
v -22.35993 13.49 -20.9506
v -22.35993 3.559999 -20.9506
v -22.35993 13.49 -20.9506
v -22.35993 3.559999 -20.9506
v -18.11034 13.49 -20.31757
v -18.11034 3.559999 -20.31757
v -18.11034 13.49 -20.31757
v -18.11034 3.559999 -20.31757
v -15.23285 13.49 -19.50702
v -15.23285 3.559999 -19.50702
v -15.23285 13.49 -19.50702
v -15.23285 3.559999 -19.50702
v -10.93846 13.49 -19.46176
v -10.93846 3.559999 -19.46176
v -10.93846 13.49 -19.46176
v -10.93846 3.559999 -19.46176
v -6.235068 13.49 -20.58125
v -6.235068 3.559999 -20.58125
v -6.235068 13.49 -20.58125
v -6.235068 3.559999 -20.58125
v -2.713175 13.49 -23.28708
v -2.713175 3.559999 -23.28708
v -2.713175 13.49 -23.28708
v -2.713175 3.559999 -23.28708
v -1.277482 13.49 -24.50286
v -1.277482 3.559999 -24.50286
v -1.277482 13.49 -24.50286
v -1.277482 3.559999 -24.50286
v 1.134033 13.49 -26.0338
v 1.134033 3.559999 -26.0338
v 1.134033 13.49 -26.0338
v 1.134033 3.559999 -26.0338
v 3.788417 13.49 -27.48195
v 3.788417 3.559999 -27.48195
v 3.788417 13.49 -27.48195
v 3.788417 3.559999 -27.48195
v 5.975975 13.49 -27.82533
v 5.975975 3.559999 -27.82533
v 5.975975 13.49 -27.82533
v 5.975975 3.559999 -27.82533
v 10.24268 13.49 -27.12286
v 10.24268 3.559999 -27.12286
v 10.24268 13.49 -27.12286
v 10.24268 3.559999 -27.12286
v 14.65055 13.49 -25.84662
v 14.65055 3.559999 -25.84662
v 14.65055 13.49 -25.84662
v 14.65055 3.559999 -25.84662
v 18.71821 13.49 -25.58782
v 18.71821 3.559999 -25.58782
v 18.71821 13.49 -25.58782
v 18.71821 3.559999 -25.58782
v 21.49949 13.49 -24.99798
v 21.49949 3.559999 -24.99798
v 21.49949 13.49 -24.99798
v 21.49949 3.559999 -24.99798
v 25.13274 13.49 -23.89688
v 25.13274 3.559999 -23.89688
v 25.13274 13.49 -23.89688
v 25.13274 3.559999 -23.89688
v 29.1281 13.49 -21.6966
v 29.1281 3.559999 -21.6966
v 29.1281 13.49 -21.6966
v 29.1281 3.559999 -21.6966
v 32.62778 13.49 -18.7238
v 32.62778 3.559999 -18.7238
v 32.62778 13.49 -18.7238
v 32.62778 3.559999 -18.7238
v 35.50247 13.49 -16.77107
v 35.50247 3.559999 -16.77107
v 35.50247 13.49 -16.77107
v 35.50247 3.559999 -16.77107
v 39.31935 13.49 -14.45221
v 39.31935 3.559999 -14.45221
v 39.31935 13.49 -14.45221
v 39.31935 3.559999 -14.45221
v 42.47234 13.49 -14.8981
v 42.47234 3.559999 -14.8981
v -47.2839 13.49 -19.32996
v -47.2839 3.559999 -19.32996
v -47.74045 13.49 -22.18366
v -47.74045 3.559999 -22.18366
v -47.74045 13.49 -22.18366
v -47.74045 3.559999 -22.18366
v -45.85396 13.49 -26.07293
v -45.85396 3.559999 -26.07293
v -45.85396 13.49 -26.07293
v -45.85396 3.559999 -26.07293
v -43.77886 13.49 -30.22658
v -43.77886 3.559999 -30.22658
v -43.77886 13.49 -30.22658
v -43.77886 3.559999 -30.22658
v -41.18637 13.49 -35.06013
v -41.18637 3.559999 -35.06013
v -41.18637 13.49 -35.06013
v -41.18637 3.559999 -35.06013
v -39.02325 13.49 -40.62203
v -39.02325 3.559999 -40.62203
v -39.02325 13.49 -40.62203
v -39.02325 3.559999 -40.62203
v -35.94202 13.49 -47.35006
v -35.94202 3.559999 -47.35006
v -35.94202 13.49 -47.35006
v -35.94202 3.559999 -47.35006
v -30.27368 13.49 -52.53846
v -30.27368 3.559999 -52.53846
v -30.27368 13.49 -52.53846
v -30.27368 3.559999 -52.53846
v -25.5015 13.49 -56.22566
v -25.5015 3.559999 -56.22566
v -25.5015 13.49 -56.22566
v -25.5015 3.559999 -56.22566
v -21.03189 13.49 -58.68936
v -21.03189 3.559999 -58.68936
v -21.03189 13.49 -58.68936
v -21.03189 3.559999 -58.68936
v -15.33515 13.49 -59.54154
v -15.33515 3.559999 -59.54154
v -15.33515 13.49 -59.54154
v -15.33515 3.559999 -59.54154
v -7.416059 13.49 -61.23408
v -7.416059 3.559999 -61.23408
v -7.416059 13.49 -61.23408
v -7.416059 3.559999 -61.23408
v 0.07178319 13.49 -60.0126
v 0.07178319 3.559999 -60.0126
v 0.07178319 13.49 -60.0126
v 0.07178319 3.559999 -60.0126
v 7.316757 13.49 -58.87393
v 7.316757 3.559999 -58.87393
v 7.316757 13.49 -58.87393
v 7.316757 3.559999 -58.87393
v 14.52505 13.49 -56.05236
v 14.52505 3.559999 -56.05236
v 14.52505 13.49 -56.05236
v 14.52505 3.559999 -56.05236
v 19.52833 13.49 -53.57972
v 19.52833 3.559999 -53.57972
v 19.52833 13.49 -53.57972
v 19.52833 3.559999 -53.57972
v 24.38748 13.49 -51.52509
v 24.38748 3.559999 -51.52509
v 24.38748 13.49 -51.52509
v 24.38748 3.559999 -51.52509
v 29.5799 13.49 -48.08953
v 29.5799 3.559999 -48.08953
v 29.5799 13.49 -48.08953
v 29.5799 3.559999 -48.08953
v 35.24582 13.49 -43.82633
v 35.24582 3.559999 -43.82633
v 35.24582 13.49 -43.82633
v 35.24582 3.559999 -43.82633
v 38.84044 13.49 -38.33632
v 38.84044 3.559999 -38.33632
v 38.84044 13.49 -38.33632
v 38.84044 3.559999 -38.33632
v 41.75135 13.49 -33.70983
v 41.75135 3.559999 -33.70983
v 41.75135 13.49 -33.70983
v 41.75135 3.559999 -33.70983
v 44.67552 13.49 -29.50238
v 44.67552 3.559999 -29.50238
v 44.67552 13.49 -29.50238
v 44.67552 3.559999 -29.50238
v 46.29753 13.49 -26.42893
v 46.29753 3.559999 -26.42893
v 46.29753 13.49 -26.42893
v 46.29753 3.559999 -26.42893
v 48.17896 13.49 -22.37851
v 48.17896 3.559999 -22.37851
v 48.17896 13.49 -22.37851
v 48.17896 3.559999 -22.37851
v 47.38628 13.49 -19.29438
v 47.38628 3.559999 -19.29438
vt 0.002288197 -0.007384334
vt 0.001550444 -0.01384526
vt 0.0008744621 -0.004863732
vt -0.000395118 -0.01598228
vt -0.003019018 -0.002985914
vt -0.004611689 -0.01693405
vt -0.007224466 -0.001017931
vt -0.009152537 -0.01790333
vt -0.01154757 0.001080774
vt -0.01454754 -0.01889236
vt -0.0152642 0.004623591
vt -0.02024395 -0.02067134
vt -0.01742041 0.008339842
vt -0.0274245 -0.0224602
vt -0.01858194 0.01109444
vt -0.03501561 -0.02126661
vt -0.02122547 0.01447904
vt -0.04087438 -0.01983695
vt -0.02503449 0.01745672
vt -0.04558816 -0.01788053
vt -0.0293463 0.01852138
vt -0.04980792 -0.01395973
vt -0.03119213 0.01888505
vt -0.05607082 -0.008826237
vt -0.03389301 0.01981479
vt -0.05978719 -0.002211984
vt -0.03668069 0.020986
vt -0.06341678 0.004160796
vt -0.03831371 0.02248153
vt -0.06570818 0.01155473
vt -0.04042632 0.02625447
vt -0.06689677 0.01700762
vt -0.04217855 0.03049567
vt -0.06832214 0.0220871
vt -0.04451376 0.03383628
vt -0.06887614 0.0282885
vt -0.04578776 0.036378
vt -0.06907864 0.03537628
vt -0.04719365 0.03990452
vt -0.06703019 0.04161049
vt -0.04796636 0.04439975
vt -0.06523015 0.04677165
vt -0.04782606 0.04898949
vt -0.06376587 0.05168178
vt -0.04809315 0.0524544
vt -0.06237559 0.05486677
vt -0.04866183 0.05688411
vt -0.06038357 0.05886396
vt -0.05097722 0.05907024
vt -0.05747862 0.06016835
vt 0.002288197 -0.007384334
vt 0.002288197 -0.007384334
vt 0.0008744621 -0.004863732
vt 0.0008744621 -0.004863732
vt 0.0008744621 -0.004863732
vt 0.0008744621 -0.004863732
vt -0.003019018 -0.002985914
vt -0.003019018 -0.002985914
vt -0.003019018 -0.002985914
vt -0.003019018 -0.002985914
vt -0.007224466 -0.001017931
vt -0.007224466 -0.001017931
vt -0.007224466 -0.001017931
vt -0.007224466 -0.001017931
vt -0.01154757 0.001080774
vt -0.01154757 0.001080774
vt -0.01154757 0.001080774
vt -0.01154757 0.001080774
vt -0.0152642 0.004623591
vt -0.0152642 0.004623591
vt -0.0152642 0.004623591
vt -0.0152642 0.004623591
vt -0.01742041 0.008339842
vt -0.01742041 0.008339842
vt -0.01742041 0.008339842
vt -0.01742041 0.008339842
vt -0.01858194 0.01109444
vt -0.01858194 0.01109444
vt -0.01858194 0.01109444
vt -0.01858194 0.01109444
vt -0.02122547 0.01447904
vt -0.02122547 0.01447904
vt -0.02122547 0.01447904
vt -0.02122547 0.01447904
vt -0.02503449 0.01745672
vt -0.02503449 0.01745672
vt -0.02503449 0.01745672
vt -0.02503449 0.01745672
vt -0.0293463 0.01852138
vt -0.0293463 0.01852138
vt -0.0293463 0.01852138
vt -0.0293463 0.01852138
vt -0.03119213 0.01888505
vt -0.03119213 0.01888505
vt -0.03119213 0.01888505
vt -0.03119213 0.01888505
vt -0.03389301 0.01981479
vt -0.03389301 0.01981479
vt -0.03389301 0.01981479
vt -0.03389301 0.01981479
vt -0.03668069 0.020986
vt -0.03668069 0.020986
vt -0.03668069 0.020986
vt -0.03668069 0.020986
vt -0.03831371 0.02248153
vt -0.03831371 0.02248153
vt -0.03831371 0.02248153
vt -0.03831371 0.02248153
vt -0.04042632 0.02625447
vt -0.04042632 0.02625447
vt -0.04042632 0.02625447
vt -0.04042632 0.02625447
vt -0.04217855 0.03049567
vt -0.04217855 0.03049567
vt -0.04217855 0.03049567
vt -0.04217855 0.03049567
vt -0.04451376 0.03383628
vt -0.04451376 0.03383628
vt -0.04451376 0.03383628
vt -0.04451376 0.03383628
vt -0.04578776 0.036378
vt -0.04578776 0.036378
vt -0.04578776 0.036378
vt -0.04578776 0.036378
vt -0.04719365 0.03990452
vt -0.04719365 0.03990452
vt -0.04719365 0.03990452
vt -0.04719365 0.03990452
vt -0.04796636 0.04439975
vt -0.04796636 0.04439975
vt -0.04796636 0.04439975
vt -0.04796636 0.04439975
vt -0.04782606 0.04898949
vt -0.04782606 0.04898949
vt -0.04782606 0.04898949
vt -0.04782606 0.04898949
vt -0.04809315 0.0524544
vt -0.04809315 0.0524544
vt -0.04809315 0.0524544
vt -0.04809315 0.0524544
vt -0.04866183 0.05688411
vt -0.04866183 0.05688411
vt -0.04866183 0.05688411
vt -0.04866183 0.05688411
vt -0.05097722 0.05907024
vt -0.05097722 0.05907024
vt 0.001550444 -0.01384526
vt 0.001550444 -0.01384526
vt -0.000395118 -0.01598228
vt -0.000395118 -0.01598228
vt -0.000395118 -0.01598228
vt -0.000395118 -0.01598228
vt -0.004611689 -0.01693405
vt -0.004611689 -0.01693405
vt -0.004611689 -0.01693405
vt -0.004611689 -0.01693405
vt -0.009152537 -0.01790333
vt -0.009152537 -0.01790333
vt -0.009152537 -0.01790333
vt -0.009152537 -0.01790333
vt -0.01454754 -0.01889236
vt -0.01454754 -0.01889236
vt -0.01454754 -0.01889236
vt -0.01454754 -0.01889236
vt -0.02024395 -0.02067134
vt -0.02024395 -0.02067134
vt -0.02024395 -0.02067134
vt -0.02024395 -0.02067134
vt -0.0274245 -0.0224602
vt -0.0274245 -0.0224602
vt -0.0274245 -0.0224602
vt -0.0274245 -0.0224602
vt -0.03501561 -0.02126661
vt -0.03501561 -0.02126661
vt -0.03501561 -0.02126661
vt -0.03501561 -0.02126661
vt -0.04087438 -0.01983695
vt -0.04087438 -0.01983695
vt -0.04087438 -0.01983695
vt -0.04087438 -0.01983695
vt -0.04558816 -0.01788053
vt -0.04558816 -0.01788053
vt -0.04558816 -0.01788053
vt -0.04558816 -0.01788053
vt -0.04980792 -0.01395973
vt -0.04980792 -0.01395973
vt -0.04980792 -0.01395973
vt -0.04980792 -0.01395973
vt -0.05607082 -0.008826237
vt -0.05607082 -0.008826237
vt -0.05607082 -0.008826237
vt -0.05607082 -0.008826237
vt -0.05978719 -0.002211984
vt -0.05978719 -0.002211984
vt -0.05978719 -0.002211984
vt -0.05978719 -0.002211984
vt -0.06341678 0.004160796
vt -0.06341678 0.004160796
vt -0.06341678 0.004160796
vt -0.06341678 0.004160796
vt -0.06570818 0.01155473
vt -0.06570818 0.01155473
vt -0.06570818 0.01155473
vt -0.06570818 0.01155473
vt -0.06689677 0.01700762
vt -0.06689677 0.01700762
vt -0.06689677 0.01700762
vt -0.06689677 0.01700762
vt -0.06832214 0.0220871
vt -0.06832214 0.0220871
vt -0.06832214 0.0220871
vt -0.06832214 0.0220871
vt -0.06887614 0.0282885
vt -0.06887614 0.0282885
vt -0.06887614 0.0282885
vt -0.06887614 0.0282885
vt -0.06907864 0.03537628
vt -0.06907864 0.03537628
vt -0.06907864 0.03537628
vt -0.06907864 0.03537628
vt -0.06703019 0.04161049
vt -0.06703019 0.04161049
vt -0.06703019 0.04161049
vt -0.06703019 0.04161049
vt -0.06523015 0.04677165
vt -0.06523015 0.04677165
vt -0.06523015 0.04677165
vt -0.06523015 0.04677165
vt -0.06376587 0.05168178
vt -0.06376587 0.05168178
vt -0.06376587 0.05168178
vt -0.06376587 0.05168178
vt -0.06237559 0.05486677
vt -0.06237559 0.05486677
vt -0.06237559 0.05486677
vt -0.06237559 0.05486677
vt -0.06038357 0.05886396
vt -0.06038357 0.05886396
vt -0.06038357 0.05886396
vt -0.06038357 0.05886396
vt -0.05747862 0.06016835
vt -0.05747862 0.06016835
vn 0 1 0
vn 0 1 0
vn 0 1 0
vn 0 1 0
vn 0 1 0
vn 0 1 0
vn 0 1 0
vn 0 1 0
vn 0 1 0
vn 0 1 0
vn 0 1 0
vn 0 1 0
vn 0 1 0
vn 0 1 0
vn 0 1 0
vn 0 1 0
vn 0 1 0
vn 0 1 0
vn 0 1 0
vn 0 1 0
vn 0 1 0
vn 0 1 0
vn 0 1 0
vn 0 1 0
vn 0 1 0
vn 0 1 0
vn 0 1 0
vn 0 1 0
vn 0 1 0
vn 0 1 0
vn 0 1 0
vn 0 1 0
vn 0 1 0
vn 0 1 0
vn 0 1 0
vn 0 1 0
vn 0 1 0
vn 0 1 0
vn 0 1 0
vn 0 1 0
vn 0 1 0
vn 0 1 0
vn 0 1 0
vn 0 1 0
vn 0 1 0
vn 0 1 0
vn 0 1 0
vn 0 1 0
vn 0 1 0
vn 0 1 0
vn -0.7084582 0 0.7057527
vn -0.7084582 0 0.7057527
vn -0.1617516 0 0.9868315
vn -0.1617516 0 0.9868315
vn 0.4329776 0 0.9014047
vn 0.4329776 0 0.9014047
vn 0.4329776 0 0.9014047
vn 0.4329776 0 0.9014047
vn 0.4434914 0 0.8962786
vn 0.4434914 0 0.8962786
vn 0.4434914 0 0.8962786
vn 0.4434914 0 0.8962786
vn 0.4306644 0 0.9025121
vn 0.4306644 0 0.9025121
vn 0.4306644 0 0.9025121
vn 0.4306644 0 0.9025121
vn 0.1353033 0 0.9908042
vn 0.1353033 0 0.9908042
vn 0.1353033 0 0.9908042
vn 0.1353033 0 0.9908042
vn -0.1473363 0 0.9890864
vn -0.1473363 0 0.9890864
vn -0.1473363 0 0.9890864
vn -0.1473363 0 0.9890864
vn -0.2711338 0 0.9625417
vn -0.2711338 0 0.9625417
vn -0.2711338 0 0.9625417
vn -0.2711338 0 0.9625417
vn -0.01053997 0 0.9999444
vn -0.01053997 0 0.9999444
vn -0.01053997 0 0.9999444
vn -0.01053997 0 0.9999444
vn 0.2315489 0 0.9728233
vn 0.2315489 0 0.9728233
vn 0.2315489 0 0.9728233
vn 0.2315489 0 0.9728233
vn 0.6092414 0 0.7929848
vn 0.6092414 0 0.7929848
vn 0.6092414 0 0.7929848
vn 0.6092414 0 0.7929848
vn 0.6462393 0 0.7631348
vn 0.6462393 0 0.7631348
vn 0.6462393 0 0.7631348
vn 0.6462393 0 0.7631348
vn 0.5359639 0 0.8442409
vn 0.5359639 0 0.8442409
vn 0.5359639 0 0.8442409
vn 0.5359639 0 0.8442409
vn 0.4789297 0 0.8778532
vn 0.4789297 0 0.8778532
vn 0.4789297 0 0.8778532
vn 0.4789297 0 0.8778532
vn 0.1550725 0 0.9879031
vn 0.1550725 0 0.9879031
vn 0.1550725 0 0.9879031
vn 0.1550725 0 0.9879031
vn -0.1624534 0 0.9867162
vn -0.1624534 0 0.9867162
vn -0.1624534 0 0.9867162
vn -0.1624534 0 0.9867162
vn -0.2781148 0 0.9605479
vn -0.2781148 0 0.9605479
vn -0.2781148 0 0.9605479
vn -0.2781148 0 0.9605479
vn -0.06349366 0 0.9979823
vn -0.06349366 0 0.9979823
vn -0.06349366 0 0.9979823
vn -0.06349366 0 0.9979823
vn -0.207463 0 0.9782429
vn -0.207463 0 0.9782429
vn -0.207463 0 0.9782429
vn -0.207463 0 0.9782429
vn -0.290035 0 0.9570161
vn -0.290035 0 0.9570161
vn -0.290035 0 0.9570161
vn -0.290035 0 0.9570161
vn -0.4823953 0 0.8759537
vn -0.4823953 0 0.8759537
vn -0.4823953 0 0.8759537
vn -0.4823953 0 0.8759537
vn -0.6474042 0 0.7621468
vn -0.6474042 0 0.7621468
vn -0.6474042 0 0.7621468
vn -0.6474042 0 0.7621468
vn -0.5619057 0 0.8272012
vn -0.5619057 0 0.8272012
vn -0.5619057 0 0.8272012
vn -0.5619057 0 0.8272012
vn -0.519217 0 0.8546425
vn -0.519217 0 0.8546425
vn -0.519217 0 0.8546425
vn -0.519217 0 0.8546425
vn 0.1400238 0 0.9901481
vn 0.1400238 0 0.9901481
vn 0.666761 0 0.7452715
vn 0.666761 0 0.7452715
vn -0.7084582 0 0.7057527
vn -0.7084582 0 0.7057527
vn -0.9874427 0 0.1579778
vn -0.9874427 0 0.1579778
vn -0.899743 0 -0.4364204
vn -0.899743 0 -0.4364204
vn -0.899743 0 -0.4364204
vn -0.899743 0 -0.4364204
vn -0.8945759 0 -0.446916
vn -0.8945759 0 -0.446916
vn -0.8945759 0 -0.446916
vn -0.8945759 0 -0.446916
vn -0.8812453 0 -0.4726591
vn -0.8812453 0 -0.4726591
vn -0.8812453 0 -0.4726591
vn -0.8812453 0 -0.4726591
vn -0.9319956 0 -0.3624696
vn -0.9319956 0 -0.3624696
vn -0.9319956 0 -0.3624696
vn -0.9319956 0 -0.3624696
vn -0.9091904 0 -0.4163806
vn -0.9091904 0 -0.4163806
vn -0.9091904 0 -0.4163806
vn -0.9091904 0 -0.4163806
vn -0.6751884 0 -0.7376453
vn -0.6751884 0 -0.7376453
vn -0.6751884 0 -0.7376453
vn -0.6751884 0 -0.7376453
vn -0.6114065 0 -0.7913167
vn -0.6114065 0 -0.7913167
vn -0.6114065 0 -0.7913167
vn -0.6114065 0 -0.7913167
vn -0.4827329 0 -0.8757677
vn -0.4827329 0 -0.8757677
vn -0.4827329 0 -0.8757677
vn -0.4827329 0 -0.8757677
vn -0.1479448 0 -0.9889956
vn -0.1479448 0 -0.9889956
vn -0.1479448 0 -0.9889956
vn -0.1479448 0 -0.9889956
vn -0.2090082 0 -0.9779139
vn -0.2090082 0 -0.9779139
vn -0.2090082 0 -0.9779139
vn -0.2090082 0 -0.9779139
vn 0.1609995 0 -0.9869545
vn 0.1609995 0 -0.9869545
vn 0.1609995 0 -0.9869545
vn 0.1609995 0 -0.9869545
vn 0.1552612 0 -0.9878734
vn 0.1552612 0 -0.9878734
vn 0.1552612 0 -0.9878734
vn 0.1552612 0 -0.9878734
vn 0.3645039 0 -0.9312019
vn 0.3645039 0 -0.9312019
vn 0.3645039 0 -0.9312019
vn 0.3645039 0 -0.9312019
vn 0.4430515 0 -0.8964961
vn 0.4430515 0 -0.8964961
vn 0.4430515 0 -0.8964961
vn 0.4430515 0 -0.8964961
vn 0.3894545 0 -0.9210457
vn 0.3894545 0 -0.9210457
vn 0.3894545 0 -0.9210457
vn 0.3894545 0 -0.9210457
vn 0.5517988 0 -0.8339773
vn 0.5517988 0 -0.8339773
vn 0.5517988 0 -0.8339773
vn 0.5517988 0 -0.8339773
vn 0.6012414 0 -0.7990675
vn 0.6012414 0 -0.7990675
vn 0.6012414 0 -0.7990675
vn 0.6012414 0 -0.7990675
vn 0.8366206 0 -0.5477827
vn 0.8366206 0 -0.5477827
vn 0.8366206 0 -0.5477827
vn 0.8366206 0 -0.5477827
vn 0.8464032 0 -0.5325426
vn 0.8464032 0 -0.5325426
vn 0.8464032 0 -0.5325426
vn 0.8464032 0 -0.5325426
vn 0.8211566 0 -0.570703
vn 0.8211566 0 -0.570703
vn 0.8211566 0 -0.570703
vn 0.8211566 0 -0.570703
vn 0.8843947 0 -0.4667398
vn 0.8843947 0 -0.4667398
vn 0.8843947 0 -0.4667398
vn 0.8843947 0 -0.4667398
vn 0.9069342 0 -0.4212722
vn 0.9069342 0 -0.4212722
vn 0.9069342 0 -0.4212722
vn 0.9069342 0 -0.4212722
vn 0.9685219 0 0.2489284
vn 0.9685219 0 0.2489284
vn 0.666761 0 0.7452715
vn 0.666761 0 0.7452715
g _0
f 3/3/3 2/2/2 1/1/1
f 2/2/2 3/3/3 4/4/4
f 5/5/5 4/4/4 3/3/3
f 4/4/4 5/5/5 6/6/6
f 7/7/7 6/6/6 5/5/5
f 6/6/6 7/7/7 8/8/8
f 9/9/9 8/8/8 7/7/7
f 8/8/8 9/9/9 10/10/10
f 11/11/11 10/10/10 9/9/9
f 10/10/10 11/11/11 12/12/12
f 13/13/13 12/12/12 11/11/11
f 12/12/12 13/13/13 14/14/14
f 15/15/15 14/14/14 13/13/13
f 14/14/14 15/15/15 16/16/16
f 17/17/17 16/16/16 15/15/15
f 16/16/16 17/17/17 18/18/18
f 19/19/19 18/18/18 17/17/17
f 18/18/18 19/19/19 20/20/20
f 21/21/21 20/20/20 19/19/19
f 20/20/20 21/21/21 22/22/22
f 23/23/23 22/22/22 21/21/21
f 22/22/22 23/23/23 24/24/24
f 25/25/25 24/24/24 23/23/23
f 24/24/24 25/25/25 26/26/26
f 27/27/27 26/26/26 25/25/25
f 26/26/26 27/27/27 28/28/28
f 29/29/29 28/28/28 27/27/27
f 28/28/28 29/29/29 30/30/30
f 31/31/31 30/30/30 29/29/29
f 30/30/30 31/31/31 32/32/32
f 33/33/33 32/32/32 31/31/31
f 32/32/32 33/33/33 34/34/34
f 35/35/35 34/34/34 33/33/33
f 34/34/34 35/35/35 36/36/36
f 37/37/37 36/36/36 35/35/35
f 36/36/36 37/37/37 38/38/38
f 39/39/39 38/38/38 37/37/37
f 38/38/38 39/39/39 40/40/40
f 41/41/41 40/40/40 39/39/39
f 40/40/40 41/41/41 42/42/42
f 43/43/43 42/42/42 41/41/41
f 42/42/42 43/43/43 44/44/44
f 45/45/45 44/44/44 43/43/43
f 44/44/44 45/45/45 46/46/46
f 47/47/47 46/46/46 45/45/45
f 46/46/46 47/47/47 48/48/48
f 49/49/49 48/48/48 47/47/47
f 48/48/48 49/49/49 50/50/50
g _1
f 51/51/51 52/52/52 53/53/53
f 54/54/54 53/53/53 52/52/52
f 55/55/55 56/56/56 57/57/57
f 58/58/58 57/57/57 56/56/56
f 59/59/59 60/60/60 61/61/61
f 62/62/62 61/61/61 60/60/60
f 63/63/63 64/64/64 65/65/65
f 66/66/66 65/65/65 64/64/64
f 67/67/67 68/68/68 69/69/69
f 70/70/70 69/69/69 68/68/68
f 71/71/71 72/72/72 73/73/73
f 74/74/74 73/73/73 72/72/72
f 75/75/75 76/76/76 77/77/77
f 78/78/78 77/77/77 76/76/76
f 79/79/79 80/80/80 81/81/81
f 82/82/82 81/81/81 80/80/80
f 83/83/83 84/84/84 85/85/85
f 86/86/86 85/85/85 84/84/84
f 87/87/87 88/88/88 89/89/89
f 90/90/90 89/89/89 88/88/88
f 91/91/91 92/92/92 93/93/93
f 94/94/94 93/93/93 92/92/92
f 95/95/95 96/96/96 97/97/97
f 98/98/98 97/97/97 96/96/96
f 99/99/99 100/100/100 101/101/101
f 102/102/102 101/101/101 100/100/100
f 103/103/103 104/104/104 105/105/105
f 106/106/106 105/105/105 104/104/104
f 107/107/107 108/108/108 109/109/109
f 110/110/110 109/109/109 108/108/108
f 111/111/111 112/112/112 113/113/113
f 114/114/114 113/113/113 112/112/112
f 115/115/115 116/116/116 117/117/117
f 118/118/118 117/117/117 116/116/116
f 119/119/119 120/120/120 121/121/121
f 122/122/122 121/121/121 120/120/120
f 123/123/123 124/124/124 125/125/125
f 126/126/126 125/125/125 124/124/124
f 127/127/127 128/128/128 129/129/129
f 130/130/130 129/129/129 128/128/128
f 131/131/131 132/132/132 133/133/133
f 134/134/134 133/133/133 132/132/132
f 135/135/135 136/136/136 137/137/137
f 138/138/138 137/137/137 136/136/136
f 139/139/139 140/140/140 141/141/141
f 142/142/142 141/141/141 140/140/140
f 143/143/143 144/144/144 145/145/145
f 146/146/146 145/145/145 144/144/144
f 149/149/149 148/148/148 147/147/147
f 148/148/148 149/149/149 150/150/150
f 153/153/153 152/152/152 151/151/151
f 152/152/152 153/153/153 154/154/154
f 157/157/157 156/156/156 155/155/155
f 156/156/156 157/157/157 158/158/158
f 161/161/161 160/160/160 159/159/159
f 160/160/160 161/161/161 162/162/162
f 165/165/165 164/164/164 163/163/163
f 164/164/164 165/165/165 166/166/166
f 169/169/169 168/168/168 167/167/167
f 168/168/168 169/169/169 170/170/170
f 173/173/173 172/172/172 171/171/171
f 172/172/172 173/173/173 174/174/174
f 177/177/177 176/176/176 175/175/175
f 176/176/176 177/177/177 178/178/178
f 181/181/181 180/180/180 179/179/179
f 180/180/180 181/181/181 182/182/182
f 185/185/185 184/184/184 183/183/183
f 184/184/184 185/185/185 186/186/186
f 189/189/189 188/188/188 187/187/187
f 188/188/188 189/189/189 190/190/190
f 193/193/193 192/192/192 191/191/191
f 192/192/192 193/193/193 194/194/194
f 197/197/197 196/196/196 195/195/195
f 196/196/196 197/197/197 198/198/198
f 201/201/201 200/200/200 199/199/199
f 200/200/200 201/201/201 202/202/202
f 205/205/205 204/204/204 203/203/203
f 204/204/204 205/205/205 206/206/206
f 209/209/209 208/208/208 207/207/207
f 208/208/208 209/209/209 210/210/210
f 213/213/213 212/212/212 211/211/211
f 212/212/212 213/213/213 214/214/214
f 217/217/217 216/216/216 215/215/215
f 216/216/216 217/217/217 218/218/218
f 221/221/221 220/220/220 219/219/219
f 220/220/220 221/221/221 222/222/222
f 225/225/225 224/224/224 223/223/223
f 224/224/224 225/225/225 226/226/226
f 229/229/229 228/228/228 227/227/227
f 228/228/228 229/229/229 230/230/230
f 233/233/233 232/232/232 231/231/231
f 232/232/232 233/233/233 234/234/234
f 237/237/237 236/236/236 235/235/235
f 236/236/236 237/237/237 238/238/238
f 241/241/241 240/240/240 239/239/239
f 240/240/240 241/241/241 242/242/242
f 147/147/147 52/52/52 51/51/51
f 52/52/52 147/147/147 148/148/148
f 145/145/145 146/146/146 241/241/241
f 242/242/242 241/241/241 146/146/146
