g 
v -90.08168 13.49 -44.69045
v -94.6245 13.49 -41.82735
v -89.16083 13.49 -46.92459
v -97.03729 13.49 -41.96043
v -89.953 13.49 -50.41786
v -99.847 13.49 -44.18214
v -94.17639 10.70909 -57.47778
v -104.3941 10.70909 -51.03805
v -98.44041 5.882962 -64.38559
v -108.7864 5.882962 -57.865
v -102.9291 1.924949 -71.75517
v -113.4984 1.924949 -65.09381
v -105.3568 0.38 -75.62608
v -115.9432 0.38 -68.95393
v -108.1807 0.38 -78.15594
v -117.0073 0.38 -72.59299
v -110.9783 0.38 -78.17791
v -115.8202 0.38 -75.12627
v -90.08168 13.49 -44.69045
v -90.08168 3.49 -44.69045
v -89.16083 13.49 -46.92459
v -89.16083 3.49 -46.92459
v -89.16083 13.49 -46.92459
v -89.16083 3.49 -46.92459
v -89.953 13.49 -50.41786
v -89.953 3.49 -50.41786
v -89.953 13.49 -50.41786
v -89.953 3.49 -50.41786
v -94.17639 10.70909 -57.47778
v -94.17639 0.7090902 -57.47778
v -94.17639 10.70909 -57.47778
v -94.17639 0.7090902 -57.47778
v -98.44041 5.882962 -64.38559
v -98.44041 -4.117038 -64.38559
v -98.44041 5.882962 -64.38559
v -98.44041 -4.117038 -64.38559
v -102.9291 1.924949 -71.75517
v -102.9291 -8.07505 -71.75517
v -102.9291 1.924949 -71.75517
v -102.9291 -8.07505 -71.75517
v -105.3568 0.38 -75.62608
v -105.3568 -9.62 -75.62608
v -105.3568 0.38 -75.62608
v -105.3568 -9.62 -75.62608
v -108.1807 0.38 -78.15594
v -108.1807 -9.62 -78.15594
v -108.1807 0.38 -78.15594
v -108.1807 -9.62 -78.15594
v -110.9783 0.38 -78.17791
v -110.9783 -9.62 -78.17791
v -94.6245 13.49 -41.82735
v -94.6245 3.49 -41.82735
v -97.03729 13.49 -41.96043
v -97.03729 3.49 -41.96043
v -97.03729 13.49 -41.96043
v -97.03729 3.49 -41.96043
v -99.847 13.49 -44.18214
v -99.847 3.49 -44.18214
v -99.847 13.49 -44.18214
v -99.847 3.49 -44.18214
v -104.3941 10.70909 -51.03805
v -104.3941 0.7090902 -51.03805
v -104.3941 10.70909 -51.03805
v -104.3941 0.7090902 -51.03805
v -108.7864 5.882962 -57.865
v -108.7864 -4.117038 -57.865
v -108.7864 5.882962 -57.865
v -108.7864 -4.117038 -57.865
v -113.4984 1.924949 -65.09381
v -113.4984 -8.07505 -65.09381
v -113.4984 1.924949 -65.09381
v -113.4984 -8.07505 -65.09381
v -115.9432 0.38 -68.95393
v -115.9432 -9.62 -68.95393
v -115.9432 0.38 -68.95393
v -115.9432 -9.62 -68.95393
v -117.0073 0.38 -72.59299
v -117.0073 -9.62 -72.59299
v -117.0073 0.38 -72.59299
v -117.0073 -9.62 -72.59299
v -115.8202 0.38 -75.12627
v -115.8202 -9.62 -75.12627
vt 0.1086366 0.008817247
vt 0.1120272 0.01298118
vt 0.1084775 0.006406017
vt 0.1143562 0.01362559
vt 0.1103437 0.003348653
vt 0.1177283 0.0124175
vt 0.1166005 -0.001992851
vt 0.1242267 0.007372698
vt 0.1228473 -0.007177235
vt 0.1305692 0.00230592
vt 0.1294544 -0.01272747
vt 0.137343 -0.003039595
vt 0.1329911 -0.01562039
vt 0.1408925 -0.005916836
vt 0.1364751 -0.01711596
vt 0.143063 -0.009025546
vt 0.1391332 -0.01624338
vt 0.142747 -0.01180528
vt 0.1086366 0.008817247
vt 0.1086366 0.008817247
vt 0.1084775 0.006406017
vt 0.1084775 0.006406017
vt 0.1084775 0.006406017
vt 0.1084775 0.006406017
vt 0.1103437 0.003348653
vt 0.1103437 0.003348653
vt 0.1103437 0.003348653
vt 0.1103437 0.003348653
vt 0.1166005 -0.001992851
vt 0.1166005 -0.001992851
vt 0.1166005 -0.001992851
vt 0.1166005 -0.001992851
vt 0.1228473 -0.007177235
vt 0.1228473 -0.007177235
vt 0.1228473 -0.007177235
vt 0.1228473 -0.007177235
vt 0.1294544 -0.01272747
vt 0.1294544 -0.01272747
vt 0.1294544 -0.01272747
vt 0.1294544 -0.01272747
vt 0.1329911 -0.01562039
vt 0.1329911 -0.01562039
vt 0.1329911 -0.01562039
vt 0.1329911 -0.01562039
vt 0.1364751 -0.01711596
vt 0.1364751 -0.01711596
vt 0.1364751 -0.01711596
vt 0.1364751 -0.01711596
vt 0.1391332 -0.01624338
vt 0.1391332 -0.01624338
vt 0.1120272 0.01298118
vt 0.1120272 0.01298118
vt 0.1143562 0.01362559
vt 0.1143562 0.01362559
vt 0.1143562 0.01362559
vt 0.1143562 0.01362559
vt 0.1177283 0.0124175
vt 0.1177283 0.0124175
vt 0.1177283 0.0124175
vt 0.1177283 0.0124175
vt 0.1242267 0.007372698
vt 0.1242267 0.007372698
vt 0.1242267 0.007372698
vt 0.1242267 0.007372698
vt 0.1305692 0.00230592
vt 0.1305692 0.00230592
vt 0.1305692 0.00230592
vt 0.1305692 0.00230592
vt 0.137343 -0.003039595
vt 0.137343 -0.003039595
vt 0.137343 -0.003039595
vt 0.137343 -0.003039595
vt 0.1408925 -0.005916836
vt 0.1408925 -0.005916836
vt 0.1408925 -0.005916836
vt 0.1408925 -0.005916836
vt 0.143063 -0.009025546
vt 0.143063 -0.009025546
vt 0.143063 -0.009025546
vt 0.143063 -0.009025546
vt 0.142747 -0.01180528
vt 0.142747 -0.01180528
vn 0 1 0
vn 0 1 0
vn 0 1 0
vn 0 1 0
vn 0 1 0
vn 0 1 0
vn 0 1 0
vn 0 1 0
vn 0 1 0
vn 0 1 0
vn 0 1 0
vn 0 1 0
vn 0 1 0
vn 0 1 0
vn 0 1 0
vn 0 1 0
vn 0 1 0
vn 0 1 0
vn 0.5331885 0 0.8459964
vn 0.5331885 0 0.8459964
vn 0.9245452 0 0.3810724
vn 0.9245452 0 0.3810724
vn 0.9752383 0 -0.221157
vn 0.9752383 0 -0.221157
vn 0.9752383 0 -0.221157
vn 0.9752383 0 -0.221157
vn 0.858166 0 -0.5133724
vn 0.858166 0 -0.5133724
vn 0.858166 0 -0.5133724
vn 0.858166 0 -0.5133724
vn 0.8509397 0 -0.5252634
vn 0.8509397 0 -0.5252634
vn 0.8509397 0 -0.5252634
vn 0.8509397 0 -0.5252634
vn 0.8540525 0 -0.5201868
vn 0.8540525 0 -0.5201868
vn 0.8540525 0 -0.5201868
vn 0.8540525 0 -0.5201868
vn 0.8471728 0 -0.5313174
vn 0.8471728 0 -0.5313174
vn 0.8471728 0 -0.5313174
vn 0.8471728 0 -0.5313174
vn 0.6672599 0 -0.744825
vn 0.6672599 0 -0.744825
vn 0.6672599 0 -0.744825
vn 0.6672599 0 -0.744825
vn 0.007851312 0 -0.9999692
vn 0.007851312 0 -0.9999692
vn -0.5331911 0 -0.8459948
vn -0.5331911 0 -0.8459948
vn 0.5331885 0 0.8459964
vn 0.5331885 0 0.8459964
vn -0.0550736 0 0.9984823
vn -0.0550736 0 0.9984823
vn -0.6202495 0 0.7844046
vn -0.6202495 0 0.7844046
vn -0.6202495 0 0.7844046
vn -0.6202495 0 0.7844046
vn -0.8333666 0 0.5527207
vn -0.8333666 0 0.5527207
vn -0.8333666 0 0.5527207
vn -0.8333666 0 0.5527207
vn -0.840978 0 0.5410691
vn -0.840978 0 0.5410691
vn -0.840978 0 0.5410691
vn -0.840978 0 0.5410691
vn -0.8377402 0 0.5460689
vn -0.8377402 0 0.5460689
vn -0.8377402 0 0.5460689
vn -0.8377402 0 0.5460689
vn -0.844813 0 0.5350617
vn -0.844813 0 0.5350617
vn -0.844813 0 0.5350617
vn -0.844813 0 0.5350617
vn -0.9598126 0 0.2806418
vn -0.9598126 0 0.2806418
vn -0.9598126 0 0.2806418
vn -0.9598126 0 0.2806418
vn -0.9055136 0 -0.4243172
vn -0.9055136 0 -0.4243172
vn -0.5331911 0 -0.8459948
vn -0.5331911 0 -0.8459948
g _0
f 3/3/3 2/2/2 1/1/1
f 2/2/2 3/3/3 4/4/4
f 5/5/5 4/4/4 3/3/3
f 4/4/4 5/5/5 6/6/6
f 7/7/7 6/6/6 5/5/5
f 6/6/6 7/7/7 8/8/8
f 9/9/9 8/8/8 7/7/7
f 8/8/8 9/9/9 10/10/10
f 11/11/11 10/10/10 9/9/9
f 10/10/10 11/11/11 12/12/12
f 13/13/13 12/12/12 11/11/11
f 12/12/12 13/13/13 14/14/14
f 15/15/15 14/14/14 13/13/13
f 14/14/14 15/15/15 16/16/16
f 17/17/17 16/16/16 15/15/15
f 16/16/16 17/17/17 18/18/18
g _1
f 19/19/19 20/20/20 21/21/21
f 22/22/22 21/21/21 20/20/20
f 23/23/23 24/24/24 25/25/25
f 26/26/26 25/25/25 24/24/24
f 27/27/27 28/28/28 29/29/29
f 30/30/30 29/29/29 28/28/28
f 31/31/31 32/32/32 33/33/33
f 34/34/34 33/33/33 32/32/32
f 35/35/35 36/36/36 37/37/37
f 38/38/38 37/37/37 36/36/36
f 39/39/39 40/40/40 41/41/41
f 42/42/42 41/41/41 40/40/40
f 43/43/43 44/44/44 45/45/45
f 46/46/46 45/45/45 44/44/44
f 47/47/47 48/48/48 49/49/49
f 50/50/50 49/49/49 48/48/48
f 53/53/53 52/52/52 51/51/51
f 52/52/52 53/53/53 54/54/54
f 57/57/57 56/56/56 55/55/55
f 56/56/56 57/57/57 58/58/58
f 61/61/61 60/60/60 59/59/59
f 60/60/60 61/61/61 62/62/62
f 65/65/65 64/64/64 63/63/63
f 64/64/64 65/65/65 66/66/66
f 69/69/69 68/68/68 67/67/67
f 68/68/68 69/69/69 70/70/70
f 73/73/73 72/72/72 71/71/71
f 72/72/72 73/73/73 74/74/74
f 77/77/77 76/76/76 75/75/75
f 76/76/76 77/77/77 78/78/78
f 81/81/81 80/80/80 79/79/79
f 80/80/80 81/81/81 82/82/82
f 51/51/51 20/20/20 19/19/19
f 20/20/20 51/51/51 52/52/52
f 49/49/49 50/50/50 81/81/81
f 82/82/82 81/81/81 50/50/50
