g 
v 10.36756 0 -51.71493
v 7.78021 0 -47.9681
v 10.53026 0 -53.74556
v 5.93887 0 -47.09665
v 10.34728 0 -55.81993
v 3.934186 0 -46.53296
v 8.18714 0 -58.33944
v 0.8128588 0 -47.66056
v 6.158767 0 -59.26403
v -0.5974917 0 -49.11057
v 4.463028 0 -60.19941
v -2.842243 0 -50.71083
v 3.268773 0 -60.6578
v -4.976892 0 -53.31352
v 2.12538 0 -61.66784
v -6.479842 0 -55.95101
v 2.013845 0 -62.00862
v -7.822016 0 -58.13428
v 2.024396 0 -61.68023
v -8.416689 0 -61.11209
v 2.087214 0 -62.34132
v -8.200342 0 -63.40603
v 2.40598 0 -63.85121
v -8.184587 0 -64.87074
v 2.272077 0 -64.89796
v -8.072077 0 -64.10204
v 1.520798 0 -67.43474
v -7.71772 0 -66.72389
v 0.2107844 0 -68.40865
v -6.572117 0 -67.88675
v -1.452228 0 -69.10535
v -5.035261 0 -68.82965
vt -0.1470572 0.07951603
vt -0.145843 0.08390453
vt -0.1465444 0.0775445
vt -0.1443897 0.08533209
vt -0.1456906 0.07564511
vt -0.1426811 0.08652253
vt -0.1428232 0.07397421
vt -0.1393626 0.08648192
vt -0.1406037 0.07376661
vt -0.1375545 0.08557516
vt -0.1386949 0.07343966
vt -0.1349088 0.08480035
vt -0.1374164 0.07339865
vt -0.1320381 0.08304251
vt -0.1360048 0.07281987
vt -0.1297528 0.08104445
vt -0.1357876 0.07253457
vt -0.1277683 0.07942268
vt -0.1359053 0.07284129
vt -0.1262292 0.07680503
vt -0.1357477 0.07219622
vt -0.1256806 0.07456718
vt -0.1355532 0.07066535
vt -0.1252147 0.07317843
vt -0.1350832 0.06972054
vt -0.1255733 0.07386762
vt -0.1335409 0.0675709
vt -0.1250475 0.07127471
vt -0.1319838 0.06708094
vt -0.1257479 0.06980026
vt -0.1301842 0.06696868
vt -0.1268902 0.06840515
vn 0 1 0
vn 0 1 0
vn 0 1 0
vn 0 1 0
vn 0 1 0
vn 0 1 0
vn 0 1 0
vn 0 1 0
vn 0 1 0
vn 0 1 0
vn 0 1 0
vn 0 1 0
vn 0 1 0
vn 0 1 0
vn 0 1 0
vn 0 1 0
vn 0 1 0
vn 0 1 0
vn 0 1 0
vn 0 1 0
vn 0 1 0
vn 0 1 0
vn 0 1 0
vn 0 1 0
vn 0 1 0
vn 0 1 0
vn 0 1 0
vn 0 1 0
vn 0 1 0
vn 0 1 0
vn 0 1 0
vn 0 1 0
g _0
f 3/3/3 2/2/2 1/1/1
f 2/2/2 3/3/3 4/4/4
f 5/5/5 4/4/4 3/3/3
f 4/4/4 5/5/5 6/6/6
f 7/7/7 6/6/6 5/5/5
f 6/6/6 7/7/7 8/8/8
f 9/9/9 8/8/8 7/7/7
f 8/8/8 9/9/9 10/10/10
f 11/11/11 10/10/10 9/9/9
f 10/10/10 11/11/11 12/12/12
f 13/13/13 12/12/12 11/11/11
f 12/12/12 13/13/13 14/14/14
f 15/15/15 14/14/14 13/13/13
f 14/14/14 15/15/15 16/16/16
f 17/17/17 16/16/16 15/15/15
f 16/16/16 17/17/17 18/18/18
f 18/18/18 19/19/19 20/20/20
f 21/21/21 20/20/20 19/19/19
f 20/20/20 21/21/21 22/22/22
f 23/23/23 22/22/22 21/21/21
f 22/22/22 23/23/23 24/24/24
f 25/25/25 24/24/24 23/23/23
f 27/27/27 26/26/26 25/25/25
f 26/26/26 27/27/27 28/28/28
f 29/29/29 28/28/28 27/27/27
f 28/28/28 29/29/29 30/30/30
f 31/31/31 30/30/30 29/29/29
f 30/30/30 31/31/31 32/32/32
