g 
v 40.32888 0 -59.40533
v 42.16721 0 -62.53988
v 40.5148 0 -57.80816
v 43.65193 0 -63.15726
v 42.02358 0 -55.75951
v 46.17641 0 -62.84049
v 43.66385 0 -54.87494
v 47.4924 0 -61.99129
v 45.57726 0 -53.98972
v 49.0046 0 -61.17687
v 47.54497 0 -53.53259
v 50.54154 0 -60.0288
v 49.35048 0 -53.00034
v 52.22689 0 -58.93937
v 50.93609 0 -52.2213
v 54.04991 0 -57.9985
v 52.54562 0 -51.6119
v 55.71368 0 -56.72635
v 53.97898 0 -50.75623
v 57.39261 0 -55.50813
v 55.54549 0 -50.04921
v 58.76914 0 -53.93909
v 56.82174 0 -48.91297
v 60.2749 0 -52.60689
v 58.26114 0 -47.8587
v 61.49327 0 -51.04436
v 59.73537 0 -46.64558
v 62.60462 0 -49.55441
v 61.57418 0 -44.67375
v 64.6085 0 -47.8885
v 63.46162 0 -42.92158
v 66.64612 0 -45.94666
v 64.86722 0 -41.07264
v 68.66446 0 -43.75335
v 66.03795 0 -39.21291
v 70.11504 0 -41.0922
v 66.41934 0 -36.93889
v 71.49695 0 -38.37472
v 67.14472 0 -34.52481
v 71.91525 0 -35.50019
v 67.6131 0 -31.81491
v 72.46155 0 -32.94235
v 68.19372 0 -29.60246
v 73.04157 0 -31.06775
v 68.84661 0 -27.7249
v 73.59339 0 -29.20664
v 69.04662 0 -25.83612
v 74.53114 0 -27.32993
v 69.72321 0 -24.17137
v 74.77802 0 -25.19238
v 70.16589 0 -22.48345
v 74.956 0 -23.0379
v 70.02002 0 -20.75348
v 75.37526 0 -20.88609
v 69.7589 0 -19.02946
v 75.55608 0 -18.69372
v 69.95473 0 -17.19407
v 74.98557 0 -16.58953
v 69.62185 0 -15.30769
v 74.74535 0 -14.52818
v 69.49077 0 -13.28734
v 74.2502 0 -12.61333
v 69.00796 0 -11.26634
v 74.24998 0 -10.73663
v 68.71973 0 -9.601363
v 74.2902 0 -9.065101
v 68.65373 0 -8.187358
v 73.97562 0 -7.286133
v 68.16142 0 -6.95894
v 73.77717 0 -5.381014
v 67.6664 0 -5.746488
v 73.22197 0 -3.53095
v 66.69481 0 -4.628619
v 72.82668 0 -1.650332
v 65.85051 0 -3.228259
v 72.14188 0 -0.08676648
v 65.01868 0 -1.476115
v 71.53548 0 1.139715
v 64.36736 0 0.8072597
v 70.8728 0 2.734322
v 63.3962 0 3.186306
v 70.62351 0 5.033197
v 63.21376 0 5.599928
v 69.63017 0 7.318632
v 62.38751 0 7.707959
v 69.1316 0 9.847049
v 61.37804 0 9.65237
v 68.55949 0 12.42945
v 60.87465 0 11.79957
v 67.19162 0 14.68437
v 59.825 0 13.80521
v 66.13799 0 16.97982
v 58.54376 0 15.77081
v 65.2402 0 19.22888
v 57.47984 0 17.74303
v 64.18541 0 21.36445
v 56.00922 0 19.31283
v 63.38581 0 23.81354
v 53.55758 0 20.01582
v 63.30365 0 26.96535
v 51.975 0 21.18996
v 62.05664 0 29.45808
v 49.7071 0 21.93536
v 61.26303 0 32.22906
v 48.02485 0 23.6352
v 59.79673 0 33.98439
v 45.68306 0 25.01079
v 59.13694 0 36.14921
v 44.45108 0 26.05166
v 58.43415 0 37.53043
v 43.60112 0 27.07358
v 57.28562 0 38.87779
v 42.52086 0 27.9675
v 56.31439 0 40.30969
v 41.4586 0 28.98308
v 55.2908 0 41.59215
v 39.80632 0 29.60523
v 54.84661 0 43.25998
v 37.59055 0 29.94078
v 54.98557 0 45.23117
v 37.66228 0 32.217
v 52.89388 0 45.30889
v 35.89697 0 32.9164
v 52.05496 0 47.63553
v 35.47874 0 35.17208
v 49.45282 0 48.52824
v 32.96364 0 36.17592
v 48.95865 0 50.6846
v 31.75464 0 38.81363
v 47.33463 0 51.32748
v 31.16127 0 41.90433
v 45.35246 0 51.68995
v 29.81527 0 44.24137
v 44.3899 0 52.98271
v 29.67795 0 47.02163
v 42.40828 0 53.95472
v 27.24399 0 49.02459
v 42.60506 0 56.19807
v 26.66414 0 52.38091
v 41.11075 0 57.82761
v 26.27943 0 55.47742
v 39.75004 0 59.87611
v 25.14954 0 58.0071
v 39.24909 0 62.54095
v 24.76052 0 60.51793
v 37.94146 0 65.1836
v 24.83032 0 63.03192
v 35.96005 0 67.70978
v 23.97266 0 65.08304
v 34.56476 0 70.52694
v 22.5114 0 67.11457
v 33.40369 0 73.11288
v 21.67279 0 69.84406
v 31.84625 0 74.87875
v 20.38598 0 72.37798
v 30.9624 0 77.07728
v 18.97449 0 74.69149
v 30.29147 0 79.60346
v 18.96283 0 77.46216
v 28.18836 0 81.66324
v 17.58014 0 79.47536
v 27.33151 0 84.38161
v 16.91248 0 81.71423
v 25.56287 0 86.7046
v 15.64063 0 83.50938
v 24.14062 0 89.24072
v 14.80433 0 85.56458
v 22.00281 0 91.2606
v 13.41487 0 87.20927
v 20.12991 0 93.42231
v 12.25334 0 89.14407
v 17.75296 0 95.03143
v 10.56308 0 90.65575
v 15.65511 0 96.81988
v 8.90906 0 92.36935
v 13.33618 0 98.21738
v 7.016863 0 93.94072
v 11.14648 0 99.63266
v 4.788827 0 95.18456
v 9.279931 0 101.3344
v 2.678322 0 96.79456
v 7.151837 0 102.8644
v 0.7340639 0 98.66454
v 4.725435 0 104.1995
v -1.348553 0 100.2914
v 2.393077 0 105.703
v -3.487249 0 101.7917
v 0.05127585 0 107.2227
v -5.770642 0 103.0229
v -2.232093 0 108.8662
v -8.09734 0 104.1354
v -4.567486 0 110.4678
v -10.42412 0 105.213
v -7.005622 0 111.931
v -12.70887 0 106.3793
v -9.591677 0 113.127
v -15.05432 0 107.4557
v -12.2216 0 114.2368
v -17.39416 0 108.6389
v -14.95965 0 115.0671
v -19.96026 0 109.3316
v -17.55897 0 116.2403
v -22.40737 0 110.0819
v -20.11037 0 117.1568
v -24.45988 0 111.0834
v -22.46256 0 117.5414
v -26.72375 0 111.5145
v -24.62734 0 118.4562
v -28.91776 0 112.2678
v -26.87038 0 119.0345
v -31.13151 0 113.0444
v -29.08277 0 119.6079
v -33.36477 0 113.8512
v -31.24409 0 120.2044
v -35.98891 0 114.7596
v -33.66538 0 121.0439
v -38.79195 0 115.4165
v -35.94915 0 122.3853
v -39.96344 0 116.0881
v -37.03656 0 122.7119
v -41.65559 0 117.5157
v -39.23137 0 123.0019
v -41.92017 0 119.0944
v -40.57682 0 122.1346
vt 0 -0.001816924
vt 0 0.001816924
vt 0 -0.003100581
vt 0 0.003100581
vt 0.0009683779 -0.004104462
vt 0.0009683779 0.004104462
vt 0.003306241 -0.004040429
vt 0.003306241 0.004040429
vt 0.005019819 -0.003981262
vt 0.005019819 0.003981262
vt 0.006931855 -0.003577016
vt 0.006931855 0.003577016
vt 0.008859242 -0.003299461
vt 0.008859242 0.003299461
vt 0.01078382 -0.00328146
vt 0.01078382 0.00328146
vt 0.0126928 -0.003008081
vt 0.0126928 0.003008081
vt 0.01458057 -0.002925467
vt 0.01458057 0.002925467
vt 0.01645056 -0.002526019
vt 0.01645056 0.002526019
vt 0.01831079 -0.002528309
vt 0.01831079 0.002528309
vt 0.02017041 -0.002269096
vt 0.02017041 0.002269096
vt 0.02203532 -0.002042906
vt 0.02203532 0.002042906
vt 0.0239056 -0.002210302
vt 0.0239056 0.002210302
vt 0.02655131 -0.002196139
vt 0.02655131 0.002196139
vt 0.02924631 -0.002324073
vt 0.02924631 0.002324073
vt 0.03189504 -0.002244683
vt 0.03189504 0.002244683
vt 0.03450796 -0.002638355
vt 0.03450796 0.002638355
vt 0.03715486 -0.002434606
vt 0.03715486 0.002434606
vt 0.03986029 -0.002488908
vt 0.03986029 0.002488908
vt 0.04254258 -0.002532234
vt 0.04254258 0.002532234
vt 0.0446669 -0.002486339
vt 0.0446669 0.002486339
vt 0.04663089 -0.002842155
vt 0.04663089 0.002842155
vt 0.0485977 -0.00257845
vt 0.0485977 0.00257845
vt 0.05055412 -0.002411051
vt 0.05055412 0.002411051
vt 0.05250023 -0.002678438
vt 0.05250023 0.002678438
vt 0.05444592 -0.002903444
vt 0.05444592 0.002903444
vt 0.05640453 -0.002533516
vt 0.05640453 0.002533516
vt 0.0583832 -0.002591231
vt 0.0583832 0.002591231
vt 0.06037776 -0.00240346
vt 0.06037776 0.00240346
vt 0.06237012 -0.00263436
vt 0.06237012 0.00263436
vt 0.06433388 -0.002798108
vt 0.06433388 0.002798108
vt 0.06600673 -0.00269883
vt 0.06600673 0.00269883
vt 0.06761452 -0.00291661
vt 0.06761452 0.00291661
vt 0.0692189 -0.002990529
vt 0.0692189 0.002990529
vt 0.0708377 -0.003408445
vt 0.0708377 0.003408445
vt 0.07248537 -0.003516047
vt 0.07248537 0.003516047
vt 0.07415292 -0.003511099
vt 0.07415292 0.003511099
vt 0.07580676 -0.003392433
vt 0.07580676 0.003392433
vt 0.07785404 -0.00372978
vt 0.07785404 0.00372978
vt 0.08027129 -0.00332131
vt 0.08027129 0.00332131
vt 0.08269325 -0.003537601
vt 0.08269325 0.003537601
vt 0.08510426 -0.003849851
vt 0.08510426 0.003849851
vt 0.08750184 -0.003472255
vt 0.08750184 0.003472255
vt 0.0898935 -0.003533131
vt 0.0898935 0.003533131
vt 0.09228741 -0.003768306
vt 0.09228741 0.003768306
vt 0.09465972 -0.003810492
vt 0.09465972 0.003810492
vt 0.09697071 -0.004320605
vt 0.09697071 0.004320605
vt 0.0992786 -0.005985024
vt 0.0992786 0.005985024
vt 0.1015851 -0.006519226
vt 0.1015851 0.006519226
vt 0.1039009 -0.007737897
vt 0.1039009 0.007737897
vt 0.1062321 -0.00783714
vt 0.1062321 0.00783714
vt 0.1085694 -0.008733145
vt 0.1085694 0.008733145
vt 0.1108902 -0.009045556
vt 0.1108902 0.009045556
vt 0.1124402 -0.009036108
vt 0.1124402 0.009036108
vt 0.11399 -0.00925461
vt 0.11399 0.00925461
vt 0.1155406 -0.0093584
vt 0.1155406 0.0093584
vt 0.1170924 -0.01015705
vt 0.1170924 0.01015705
vt 0.1186447 -0.01157997
vt 0.1186447 0.01157997
vt 0.1201967 -0.0100424
vt 0.1201967 0.0100424
vt 0.1217476 -0.01092856
vt 0.1217476 0.01092856
vt 0.1237438 -0.00966517
vt 0.1237438 0.00966517
vt 0.1259252 -0.01079748
vt 0.1259252 0.01079748
vt 0.1281071 -0.00999165
vt 0.1281071 0.00999165
vt 0.1302744 -0.008618991
vt 0.1302744 0.008618991
vt 0.1324283 -0.008497512
vt 0.1324283 0.008497512
vt 0.1345792 -0.007247918
vt 0.1345792 0.007247918
vt 0.1367338 -0.008476754
vt 0.1367338 0.008476754
vt 0.1391336 -0.007719636
vt 0.1391336 0.007719636
vt 0.1418336 -0.007085295
vt 0.1418336 0.007085295
vt 0.1445501 -0.007405289
vt 0.1445501 0.007405289
vt 0.1472724 -0.006991168
vt 0.1472724 0.006991168
vt 0.1499852 -0.006036419
vt 0.1499852 0.006036419
vt 0.1526804 -0.005954593
vt 0.1526804 0.005954593
vt 0.1553626 -0.00621735
vt 0.1553626 0.00621735
vt 0.1580177 -0.005675552
vt 0.1580177 0.005675552
vt 0.1605647 -0.00578671
vt 0.1605647 0.00578671
vt 0.1631679 -0.006168501
vt 0.1631679 0.006168501
vt 0.1658023 -0.005068519
vt 0.1658023 0.005068519
vt 0.1684388 -0.005458035
vt 0.1684388 0.005458035
vt 0.1710562 -0.004993322
vt 0.1710562 0.004993322
vt 0.1736421 -0.005125869
vt 0.1736421 0.005125869
vt 0.1761924 -0.004589737
vt 0.1761924 0.004589737
vt 0.1787149 -0.004574214
vt 0.1787149 0.004574214
vt 0.1812215 -0.004028242
vt 0.1812215 0.004028242
vt 0.1837255 -0.003997661
vt 0.1837255 0.003997661
vt 0.1862375 -0.003667387
vt 0.1862375 0.003667387
vt 0.1887606 -0.003516102
vt 0.1887606 0.003516102
vt 0.1912895 -0.00380757
vt 0.1912895 0.00380757
vt 0.1938115 -0.003770114
vt 0.1938115 0.003770114
vt 0.196449 -0.003411996
vt 0.196449 0.003411996
vt 0.199159 -0.003289572
vt 0.199159 0.003289572
vt 0.201865 -0.003241018
vt 0.201865 0.003241018
vt 0.2045667 -0.00341563
vt 0.2045667 0.00341563
vt 0.2072648 -0.003624902
vt 0.2072648 0.003624902
vt 0.209962 -0.003768899
vt 0.209962 0.003768899
vt 0.212662 -0.003716496
vt 0.212662 0.003716496
vt 0.2153688 -0.003674479
vt 0.2153688 0.003674479
vt 0.218086 -0.003436867
vt 0.218086 0.003436867
vt 0.2208173 -0.003657058
vt 0.2208173 0.003657058
vt 0.2235633 -0.00371921
vt 0.2235633 0.00371921
vt 0.2261979 -0.003379902
vt 0.2261979 0.003379902
vt 0.2285067 -0.003625677
vt 0.2285067 0.003625677
vt 0.230821 -0.003534825
vt 0.230821 0.003534825
vt 0.2331373 -0.003437917
vt 0.2331373 0.003437917
vt 0.235451 -0.003348853
vt 0.235451 0.003348853
vt 0.2377576 -0.003350057
vt 0.2377576 0.003350057
vt 0.2404274 -0.003763175
vt 0.2404274 0.003763175
vt 0.24316 -0.003620794
vt 0.24316 0.003620794
vt 0.2443948 -0.00299897
vt 0.2443948 0.00299897
vt 0.2465196 -0.001661857
vt 0.2465196 0.001661857
vn 0 1 0
vn 0 1 0
vn 0 1 0
vn 0 1 0
vn 0 1 0
vn 0 1 0
vn 0 1 0
vn 0 1 0
vn 0 1 0
vn 0 1 0
vn 0 1 0
vn 0 1 0
vn 0 1 0
vn 0 1 0
vn 0 1 0
vn 0 1 0
vn 0 1 0
vn 0 1 0
vn 0 1 0
vn 0 1 0
vn 0 1 0
vn 0 1 0
vn 0 1 0
vn 0 1 0
vn 0 1 0
vn 0 1 0
vn 0 1 0
vn 0 1 0
vn 0 1 0
vn 0 1 0
vn 0 1 0
vn 0 1 0
vn 0 1 0
vn 0 1 0
vn 0 1 0
vn 0 1 0
vn 0 1 0
vn 0 1 0
vn 0 1 0
vn 0 1 0
vn 0 1 0
vn 0 1 0
vn 0 1 0
vn 0 1 0
vn 0 1 0
vn 0 1 0
vn 0 1 0
vn 0 1 0
vn 0 1 0
vn 0 1 0
vn 0 1 0
vn 0 1 0
vn 0 1 0
vn 0 1 0
vn 0 1 0
vn 0 1 0
vn 0 1 0
vn 0 1 0
vn 0 1 0
vn 0 1 0
vn 0 1 0
vn 0 1 0
vn 0 1 0
vn 0 1 0
vn 0 1 0
vn 0 1 0
vn 0 1 0
vn 0 1 0
vn 0 1 0
vn 0 1 0
vn 0 1 0
vn 0 1 0
vn 0 1 0
vn 0 1 0
vn 0 1 0
vn 0 1 0
vn 0 1 0
vn 0 1 0
vn 0 1 0
vn 0 1 0
vn 0 1 0
vn 0 1 0
vn 0 1 0
vn 0 1 0
vn 0 1 0
vn 0 1 0
vn 0 1 0
vn 0 1 0
vn 0 1 0
vn 0 1 0
vn 0 1 0
vn 0 1 0
vn 0 1 0
vn 0 1 0
vn 0 1 0
vn 0 1 0
vn 0 1 0
vn 0 1 0
vn 0 1 0
vn 0 1 0
vn 0 1 0
vn 0 1 0
vn 0 1 0
vn 0 1 0
vn 0 1 0
vn 0 1 0
vn 0 1 0
vn 0 1 0
vn 0 1 0
vn 0 1 0
vn 0 1 0
vn 0 1 0
vn 0 1 0
vn 0 1 0
vn 0 1 0
vn 0 1 0
vn 0 1 0
vn 0 1 0
vn 0 1 0
vn 0 1 0
vn 0 1 0
vn 0 1 0
vn 0 1 0
vn 0 1 0
vn 0 1 0
vn 0 1 0
vn 0 1 0
vn 0 1 0
vn 0 1 0
vn 0 1 0
vn 0 1 0
vn 0 1 0
vn 0 1 0
vn 0 1 0
vn 0 1 0
vn 0 1 0
vn 0 1 0
vn 0 1 0
vn 0 1 0
vn 0 1 0
vn 0 1 0
vn 0 1 0
vn 0 1 0
vn 0 1 0
vn 0 1 0
vn 0 1 0
vn 0 1 0
vn 0 1 0
vn 0 1 0
vn 0 1 0
vn 0 1 0
vn 0 1 0
vn 0 1 0
vn 0 1 0
vn 0 1 0
vn 0 1 0
vn 0 1 0
vn 0 1 0
vn 0 1 0
vn 0 1 0
vn 0 1 0
vn 0 1 0
vn 0 1 0
vn 0 1 0
vn 0 1 0
vn 0 1 0
vn 0 1 0
vn 0 1 0
vn 0 1 0
vn 0 1 0
vn 0 1 0
vn 0 1 0
vn 0 1 0
vn 0 1 0
vn 0 1 0
vn 0 1 0
vn 0 1 0
vn 0 1 0
vn 0 1 0
vn 0 1 0
vn 0 1 0
vn 0 1 0
vn 0 1 0
vn 0 1 0
vn 0 1 0
vn 0 1 0
vn 0 1 0
vn 0 1 0
vn 0 1 0
vn 0 1 0
vn 0 1 0
vn 0 1 0
vn 0 1 0
vn 0 1 0
vn 0 1 0
vn 0 1 0
vn 0 1 0
vn 0 1 0
vn 0 1 0
vn 0 1 0
vn 0 1 0
vn 0 1 0
vn 0 1 0
vn 0 1 0
vn 0 1 0
vn 0 1 0
vn 0 1 0
vn 0 1 0
vn 0 1 0
vn 0 1 0
vn 0 1 0
vn 0 1 0
vn 0 1 0
vn 0 1 0
vn 0 1 0
vn 0 1 0
vn 0 1 0
vn 0 1 0
vn 0 1 0
vn 0 1 0
vn 0 1 0
vn 0 1 0
vn 0 1 0
vn 0 1 0
g _0
f 3/3/3 2/2/2 1/1/1
f 2/2/2 3/3/3 4/4/4
f 5/5/5 4/4/4 3/3/3
f 4/4/4 5/5/5 6/6/6
f 7/7/7 6/6/6 5/5/5
f 6/6/6 7/7/7 8/8/8
f 9/9/9 8/8/8 7/7/7
f 8/8/8 9/9/9 10/10/10
f 11/11/11 10/10/10 9/9/9
f 10/10/10 11/11/11 12/12/12
f 13/13/13 12/12/12 11/11/11
f 12/12/12 13/13/13 14/14/14
f 15/15/15 14/14/14 13/13/13
f 14/14/14 15/15/15 16/16/16
f 17/17/17 16/16/16 15/15/15
f 16/16/16 17/17/17 18/18/18
f 19/19/19 18/18/18 17/17/17
f 18/18/18 19/19/19 20/20/20
f 21/21/21 20/20/20 19/19/19
f 20/20/20 21/21/21 22/22/22
f 23/23/23 22/22/22 21/21/21
f 22/22/22 23/23/23 24/24/24
f 25/25/25 24/24/24 23/23/23
f 24/24/24 25/25/25 26/26/26
f 27/27/27 26/26/26 25/25/25
f 26/26/26 27/27/27 28/28/28
f 29/29/29 28/28/28 27/27/27
f 28/28/28 29/29/29 30/30/30
f 31/31/31 30/30/30 29/29/29
f 30/30/30 31/31/31 32/32/32
f 33/33/33 32/32/32 31/31/31
f 32/32/32 33/33/33 34/34/34
f 35/35/35 34/34/34 33/33/33
f 34/34/34 35/35/35 36/36/36
f 37/37/37 36/36/36 35/35/35
f 36/36/36 37/37/37 38/38/38
f 39/39/39 38/38/38 37/37/37
f 38/38/38 39/39/39 40/40/40
f 41/41/41 40/40/40 39/39/39
f 40/40/40 41/41/41 42/42/42
f 43/43/43 42/42/42 41/41/41
f 42/42/42 43/43/43 44/44/44
f 45/45/45 44/44/44 43/43/43
f 44/44/44 45/45/45 46/46/46
f 47/47/47 46/46/46 45/45/45
f 46/46/46 47/47/47 48/48/48
f 49/49/49 48/48/48 47/47/47
f 48/48/48 49/49/49 50/50/50
f 51/51/51 50/50/50 49/49/49
f 50/50/50 51/51/51 52/52/52
f 53/53/53 52/52/52 51/51/51
f 52/52/52 53/53/53 54/54/54
f 55/55/55 54/54/54 53/53/53
f 54/54/54 55/55/55 56/56/56
f 57/57/57 56/56/56 55/55/55
f 56/56/56 57/57/57 58/58/58
f 59/59/59 58/58/58 57/57/57
f 58/58/58 59/59/59 60/60/60
f 61/61/61 60/60/60 59/59/59
f 60/60/60 61/61/61 62/62/62
f 63/63/63 62/62/62 61/61/61
f 62/62/62 63/63/63 64/64/64
f 65/65/65 64/64/64 63/63/63
f 64/64/64 65/65/65 66/66/66
f 67/67/67 66/66/66 65/65/65
f 66/66/66 67/67/67 68/68/68
f 69/69/69 68/68/68 67/67/67
f 68/68/68 69/69/69 70/70/70
f 71/71/71 70/70/70 69/69/69
f 70/70/70 71/71/71 72/72/72
f 73/73/73 72/72/72 71/71/71
f 72/72/72 73/73/73 74/74/74
f 75/75/75 74/74/74 73/73/73
f 74/74/74 75/75/75 76/76/76
f 77/77/77 76/76/76 75/75/75
f 76/76/76 77/77/77 78/78/78
f 79/79/79 78/78/78 77/77/77
f 78/78/78 79/79/79 80/80/80
f 81/81/81 80/80/80 79/79/79
f 80/80/80 81/81/81 82/82/82
f 83/83/83 82/82/82 81/81/81
f 82/82/82 83/83/83 84/84/84
f 85/85/85 84/84/84 83/83/83
f 84/84/84 85/85/85 86/86/86
f 87/87/87 86/86/86 85/85/85
f 86/86/86 87/87/87 88/88/88
f 89/89/89 88/88/88 87/87/87
f 88/88/88 89/89/89 90/90/90
f 91/91/91 90/90/90 89/89/89
f 90/90/90 91/91/91 92/92/92
f 93/93/93 92/92/92 91/91/91
f 92/92/92 93/93/93 94/94/94
f 95/95/95 94/94/94 93/93/93
f 94/94/94 95/95/95 96/96/96
f 97/97/97 96/96/96 95/95/95
f 96/96/96 97/97/97 98/98/98
f 99/99/99 98/98/98 97/97/97
f 98/98/98 99/99/99 100/100/100
f 101/101/101 100/100/100 99/99/99
f 100/100/100 101/101/101 102/102/102
f 103/103/103 102/102/102 101/101/101
f 102/102/102 103/103/103 104/104/104
f 105/105/105 104/104/104 103/103/103
f 104/104/104 105/105/105 106/106/106
f 107/107/107 106/106/106 105/105/105
f 106/106/106 107/107/107 108/108/108
f 109/109/109 108/108/108 107/107/107
f 108/108/108 109/109/109 110/110/110
f 111/111/111 110/110/110 109/109/109
f 110/110/110 111/111/111 112/112/112
f 113/113/113 112/112/112 111/111/111
f 112/112/112 113/113/113 114/114/114
f 115/115/115 114/114/114 113/113/113
f 114/114/114 115/115/115 116/116/116
f 117/117/117 116/116/116 115/115/115
f 116/116/116 117/117/117 118/118/118
f 119/119/119 118/118/118 117/117/117
f 118/118/118 119/119/119 120/120/120
f 121/121/121 120/120/120 119/119/119
f 120/120/120 121/121/121 122/122/122
f 123/123/123 122/122/122 121/121/121
f 122/122/122 123/123/123 124/124/124
f 125/125/125 124/124/124 123/123/123
f 124/124/124 125/125/125 126/126/126
f 127/127/127 126/126/126 125/125/125
f 126/126/126 127/127/127 128/128/128
f 129/129/129 128/128/128 127/127/127
f 128/128/128 129/129/129 130/130/130
f 131/131/131 130/130/130 129/129/129
f 130/130/130 131/131/131 132/132/132
f 133/133/133 132/132/132 131/131/131
f 132/132/132 133/133/133 134/134/134
f 135/135/135 134/134/134 133/133/133
f 134/134/134 135/135/135 136/136/136
f 137/137/137 136/136/136 135/135/135
f 136/136/136 137/137/137 138/138/138
f 139/139/139 138/138/138 137/137/137
f 138/138/138 139/139/139 140/140/140
f 141/141/141 140/140/140 139/139/139
f 140/140/140 141/141/141 142/142/142
f 143/143/143 142/142/142 141/141/141
f 142/142/142 143/143/143 144/144/144
f 145/145/145 144/144/144 143/143/143
f 144/144/144 145/145/145 146/146/146
f 147/147/147 146/146/146 145/145/145
f 146/146/146 147/147/147 148/148/148
f 149/149/149 148/148/148 147/147/147
f 148/148/148 149/149/149 150/150/150
f 151/151/151 150/150/150 149/149/149
f 150/150/150 151/151/151 152/152/152
f 153/153/153 152/152/152 151/151/151
f 152/152/152 153/153/153 154/154/154
f 155/155/155 154/154/154 153/153/153
f 154/154/154 155/155/155 156/156/156
f 157/157/157 156/156/156 155/155/155
f 156/156/156 157/157/157 158/158/158
f 159/159/159 158/158/158 157/157/157
f 158/158/158 159/159/159 160/160/160
f 161/161/161 160/160/160 159/159/159
f 160/160/160 161/161/161 162/162/162
f 163/163/163 162/162/162 161/161/161
f 162/162/162 163/163/163 164/164/164
f 165/165/165 164/164/164 163/163/163
f 164/164/164 165/165/165 166/166/166
f 167/167/167 166/166/166 165/165/165
f 166/166/166 167/167/167 168/168/168
f 169/169/169 168/168/168 167/167/167
f 168/168/168 169/169/169 170/170/170
f 171/171/171 170/170/170 169/169/169
f 170/170/170 171/171/171 172/172/172
f 173/173/173 172/172/172 171/171/171
f 172/172/172 173/173/173 174/174/174
f 175/175/175 174/174/174 173/173/173
f 174/174/174 175/175/175 176/176/176
f 177/177/177 176/176/176 175/175/175
f 176/176/176 177/177/177 178/178/178
f 179/179/179 178/178/178 177/177/177
f 178/178/178 179/179/179 180/180/180
f 181/181/181 180/180/180 179/179/179
f 180/180/180 181/181/181 182/182/182
f 183/183/183 182/182/182 181/181/181
f 182/182/182 183/183/183 184/184/184
f 185/185/185 184/184/184 183/183/183
f 184/184/184 185/185/185 186/186/186
f 187/187/187 186/186/186 185/185/185
f 186/186/186 187/187/187 188/188/188
f 189/189/189 188/188/188 187/187/187
f 188/188/188 189/189/189 190/190/190
f 191/191/191 190/190/190 189/189/189
f 190/190/190 191/191/191 192/192/192
f 193/193/193 192/192/192 191/191/191
f 192/192/192 193/193/193 194/194/194
f 195/195/195 194/194/194 193/193/193
f 194/194/194 195/195/195 196/196/196
f 197/197/197 196/196/196 195/195/195
f 196/196/196 197/197/197 198/198/198
f 199/199/199 198/198/198 197/197/197
f 198/198/198 199/199/199 200/200/200
f 201/201/201 200/200/200 199/199/199
f 200/200/200 201/201/201 202/202/202
f 203/203/203 202/202/202 201/201/201
f 202/202/202 203/203/203 204/204/204
f 205/205/205 204/204/204 203/203/203
f 204/204/204 205/205/205 206/206/206
f 207/207/207 206/206/206 205/205/205
f 206/206/206 207/207/207 208/208/208
f 209/209/209 208/208/208 207/207/207
f 208/208/208 209/209/209 210/210/210
f 211/211/211 210/210/210 209/209/209
f 210/210/210 211/211/211 212/212/212
f 213/213/213 212/212/212 211/211/211
f 212/212/212 213/213/213 214/214/214
f 215/215/215 214/214/214 213/213/213
f 214/214/214 215/215/215 216/216/216
f 217/217/217 216/216/216 215/215/215
f 216/216/216 217/217/217 218/218/218
f 219/219/219 218/218/218 217/217/217
f 218/218/218 219/219/219 220/220/220
f 221/221/221 220/220/220 219/219/219
f 220/220/220 221/221/221 222/222/222
f 223/223/223 222/222/222 221/221/221
f 222/222/222 223/223/223 224/224/224
