g 
v -7.420547 0.05 -90.50903
v -7.191449 0.05 -90.41144
v -7.529165 0.05 -90.50331
v -7.120323 0.05 -90.32915
v -7.485005 0.05 -90.35899
v -7.254994 0.05 -90.261
v -7.967989 0.05 -89.59089
v -7.474306 0.05 -89.38058
v -8.232179 0.05 -88.62138
v -7.990444 0.05 -88.51839
v -8.734779 0.05 -87.75343
v -8.268171 0.05 -87.55466
v -9.141122 0.05 -86.84448
v -8.642158 0.05 -86.63191
v -9.530783 0.05 -85.92842
v -9.032824 0.05 -85.71628
v -9.824904 0.05 -84.97166
v -9.519031 0.05 -84.84135
v -10.24791 0.05 -84.0698
v -9.876348 0.05 -83.91151
v -10.66216 0.05 -83.16422
v -10.24243 0.05 -82.9854
v -11.10862 0.05 -82.27235
v -10.57629 0.05 -82.04557
v -11.48282 0.05 -81.34971
v -10.98243 0.05 -81.13653
v -11.80519 0.05 -80.40498
v -11.44038 0.05 -80.24957
v -12.13978 0.05 -79.46545
v -11.88612 0.05 -79.35739
v -12.6012 0.05 -78.57996
v -12.20503 0.05 -78.41119
v -13.01743 0.05 -77.67522
v -12.56913 0.05 -77.48424
v -13.33711 0.05 -76.72935
v -13.02978 0.05 -76.59841
v -13.70403 0.05 -75.8036
v -13.44318 0.05 -75.69247
v -14.16771 0.05 -74.91908
v -13.75983 0.05 -74.74531
v -14.50042 0.05 -74.03632
v -14.20745 0.05 -73.79637
v -15.19056 0.05 -73.6852
v -15.01024 0.05 -73.20361
v -16.11544 0.05 -73.44193
v -16.05336 0.05 -73.09487
v -17.09902 0.05 -73.26361
v -17.03778 0.05 -72.92119
v -18.07513 0.05 -73.04351
v -18.02967 0.05 -72.7893
v -19.0789 0.05 -72.97803
v -18.9939 0.05 -72.50277
v -20.05379 0.05 -72.75105
v -19.98702 0.05 -72.37775
v -21.025 0.05 -72.50356
v -20.9838 0.05 -72.27325
v -22.00851 0.05 -72.32484
v -21.96829 0.05 -72.09996
v -22.99216 0.05 -72.14687
v -22.95264 0.05 -71.92593
v -24.00388 0.05 -72.12582
v -23.90893 0.05 -71.59497
v -24.98192 0.05 -71.9165
v -24.89889 0.05 -71.4523
v -25.96193 0.05 -71.71823
v -25.88687 0.05 -71.29857
v -26.95284 0.05 -71.58083
v -26.86397 0.05 -71.08396
v -27.92073 0.05 -71.31478
v -27.86407 0.05 -70.99802
v -28.90297 0.05 -71.12894
v -28.84983 0.05 -70.83186
v -29.90068 0.05 -71.02958
v -29.82012 0.05 -70.57922
v -30.88315 0.05 -70.84506
v -30.80565 0.05 -70.41173
v -31.85615 0.05 -70.60754
v -31.80065 0.05 -70.29726
v -32.85714 0.05 -70.52653
v -32.76766 0.05 -70.02627
v -33.82486 0.05 -70.25953
v -33.76794 0.05 -69.94126
v -34.82269 0.05 -70.16083
v -34.73811 0.05 -69.68797
v -35.81309 0.05 -69.96817
v -35.71571 0.05 -69.52863
v -36.81375 0.05 -69.64374
v -36.57458 0.05 -69.35704
v -37.35836 0.05 -68.71399
v -36.9133 0.05 -68.49463
v -37.69689 0.05 -67.76707
v -37.45812 0.05 -67.64938
v -38.23088 0.05 -66.9165
v -37.80746 0.05 -66.70781
v -38.59396 0.05 -65.98169
v -38.32771 0.05 -65.85046
v -39.10053 0.05 -65.1176
v -38.70447 0.05 -64.92239
v -39.51824 0.05 -64.20972
v -39.17009 0.05 -64.03812
v -39.91608 0.05 -63.29204
v -39.65559 0.05 -63.16364
v -40.46194 0.05 -62.44732
v -39.99306 0.05 -62.21621
v -40.82962 0.05 -61.51477
v -40.50871 0.05 -61.3566
v -41.22757 0.05 -60.59715
v -40.99409 0.05 -60.48207
v -41.69341 0.05 -59.71298
v -41.41159 0.05 -59.57407
v -42.12956 0.05 -58.81419
v -41.85877 0.05 -58.68072
v -42.58059 0.05 -57.92272
v -42.29108 0.05 -57.78002
v -43.04934 0.05 -57.03999
v -42.70566 0.05 -56.8706
v -43.42729 0.05 -56.11251
v -43.21104 0.05 -56.00592
v -43.94049 0.05 -55.25169
v -43.58118 0.05 -55.07459
v -44.45858 0.05 -54.39328
v -43.94642 0.05 -54.14084
v -44.81382 0.05 -53.45461
v -44.47451 0.05 -53.28736
v -45.23512 0.05 -52.54848
v -44.93655 0.05 -52.40133
v -45.64184 0.05 -51.63519
v -45.41316 0.05 -51.52247
v -45.89114 0.05 -51.42392
v -45.42886 0.05 -51.19608
v -45.82143 0.05 -51.26083
v -45.60067 0.05 -51.15203
v -45.80545 0.05 -51.19964
v -45.65893 0.05 -51.12742
vt 0.7046255 -1.337408
vt 0.7031994 -1.335366
vt 0.7055771 -1.337934
vt 0.703032 -1.334292
vt 0.705967 -1.336477
vt 0.7045352 -1.334427
vt 0.7141323 -1.33252
vt 0.711059 -1.328121
vt 0.7215087 -1.325696
vt 0.7200039 -1.323542
vt 0.7303693 -1.320997
vt 0.7274644 -1.316839
vt 0.7386305 -1.31544
vt 0.7355244 -1.310994
vt 0.7467879 -1.309734
vt 0.7436881 -1.305297
vt 0.7543507 -1.303177
vt 0.7524466 -1.300451
vt 0.7627158 -1.297768
vt 0.7604027 -1.294457
vt 0.7710263 -1.292282
vt 0.7684134 -1.288541
vt 0.7795373 -1.287082
vt 0.7762235 -1.282338
vt 0.7875986 -1.281238
vt 0.7844835 -1.276779
vt 0.7953371 -1.274933
vt 0.7930661 -1.271682
vt 0.8031518 -1.268736
vt 0.8015726 -1.266476
vt 0.811756 -1.26367
vt 0.8092897 -1.26014
vt 0.8200788 -1.258201
vt 0.817288 -1.254206
vt 0.8278006 -1.251871
vt 0.8258874 -1.249133
vt 0.8358165 -1.245963
vt 0.8341926 -1.243639
vt 0.8444347 -1.240917
vt 0.8418956 -1.237282
vt 0.8519328 -1.235192
vt 0.8507188 -1.231605
vt 0.8596463 -1.235869
vt 0.8606679 -1.230829
vt 0.8687795 -1.238705
vt 0.8700914 -1.235433
vt 0.8780667 -1.242403
vt 0.879361 -1.239174
vt 0.8875117 -1.245707
vt 0.8884727 -1.243309
vt 0.8963724 -1.250468
vt 0.8981689 -1.245987
vt 0.9058434 -1.253707
vt 0.9072545 -1.250187
vt 0.915392 -1.256752
vt 0.9162626 -1.254581
vt 0.9246807 -1.260446
vt 0.9255307 -1.258326
vt 0.9339666 -1.264147
vt 0.9348018 -1.262064
vt 0.9426592 -1.269328
vt 0.9446659 -1.264322
vt 0.9520636 -1.272733
vt 0.9538183 -1.268356
vt 0.9614261 -1.276243
vt 0.9630125 -1.272285
vt 0.9705586 -1.280326
vt 0.9724368 -1.275641
vt 0.9801773 -1.283197
vt 0.9813747 -1.28021
vt 0.989493 -1.286823
vt 0.9906159 -1.284022
vt 0.9984816 -1.291265
vt 1.000184 -1.287019
vt 1.007792 -1.294905
vt 1.00943 -1.290819
vt 1.017303 -1.298044
vt 1.018476 -1.295118
vt 1.026222 -1.302659
vt 1.028113 -1.297942
vt 1.035845 -1.305521
vt 1.037048 -1.30252
vt 1.044831 -1.309969
vt 1.046618 -1.30551
vt 1.054252 -1.313581
vt 1.055754 -1.309337
vt 1.064458 -1.31613
vt 1.063948 -1.312431
vt 1.074002 -1.311129
vt 1.071389 -1.306911
vt 1.081889 -1.304891
vt 1.080488 -1.302628
vt 1.090924 -1.300505
vt 1.088438 -1.296492
vt 1.098955 -1.294499
vt 1.097392 -1.291976
vt 1.107829 -1.289853
vt 1.105504 -1.2861
vt 1.116181 -1.284366
vt 1.114137 -1.281066
vt 1.124417 -1.278689
vt 1.122887 -1.27622
vt 1.133521 -1.274416
vt 1.130768 -1.269972
vt 1.14158 -1.268454
vt 1.139695 -1.265412
vt 1.149815 -1.262779
vt 1.148445 -1.260566
vt 1.15845 -1.257747
vt 1.156796 -1.255076
vt 1.16691 -1.252434
vt 1.165321 -1.249868
vt 1.175458 -1.247262
vt 1.173758 -1.244518
vt 1.18411 -1.242258
vt 1.182092 -1.239
vt 1.192229 -1.236393
vt 1.190959 -1.234344
vt 1.201141 -1.23181
vt 1.199032 -1.228405
vt 1.210083 -1.227274
vt 1.207076 -1.22242
vt 1.218068 -1.221194
vt 1.216076 -1.217978
vt 1.226441 -1.21574
vt 1.224688 -1.21291
vt 1.234729 -1.210148
vt 1.233386 -1.20798
vt 1.237962 -1.209677
vt 1.235248 -1.205295
vt 1.238235 -1.207924
vt 1.236939 -1.205832
vt 1.238423 -1.20732
vt 1.237563 -1.205932
vn 0 1 0
vn 0 1 0
vn 0 1 0
vn 0 1 0
vn 0 1 0
vn 0 1 0
vn 0 1 0
vn 0 1 0
vn 0 1 0
vn 0 1 0
vn 0 1 0
vn 0 1 0
vn 0 1 0
vn 0 1 0
vn 0 1 0
vn 0 1 0
vn 0 1 0
vn 0 1 0
vn 0 1 0
vn 0 1 0
vn 0 1 0
vn 0 1 0
vn 0 1 0
vn 0 1 0
vn 0 1 0
vn 0 1 0
vn 0 1 0
vn 0 1 0
vn 0 1 0
vn 0 1 0
vn 0 1 0
vn 0 1 0
vn 0 1 0
vn 0 1 0
vn 0 1 0
vn 0 1 0
vn 0 1 0
vn 0 1 0
vn 0 1 0
vn 0 1 0
vn 0 1 0
vn 0 1 0
vn 0 1 0
vn 0 1 0
vn 0 1 0
vn 0 1 0
vn 0 1 0
vn 0 1 0
vn 0 1 0
vn 0 1 0
vn 0 1 0
vn 0 1 0
vn 0 1 0
vn 0 1 0
vn 0 1 0
vn 0 1 0
vn 0 1 0
vn 0 1 0
vn 0 1 0
vn 0 1 0
vn 0 1 0
vn 0 1 0
vn 0 1 0
vn 0 1 0
vn 0 1 0
vn 0 1 0
vn 0 1 0
vn 0 1 0
vn 0 1 0
vn 0 1 0
vn 0 1 0
vn 0 1 0
vn 0 1 0
vn 0 1 0
vn 0 1 0
vn 0 1 0
vn 0 1 0
vn 0 1 0
vn 0 1 0
vn 0 1 0
vn 0 1 0
vn 0 1 0
vn 0 1 0
vn 0 1 0
vn 0 1 0
vn 0 1 0
vn 0 1 0
vn 0 1 0
vn 0 1 0
vn 0 1 0
vn 0 1 0
vn 0 1 0
vn 0 1 0
vn 0 1 0
vn 0 1 0
vn 0 1 0
vn 0 1 0
vn 0 1 0
vn 0 1 0
vn 0 1 0
vn 0 1 0
vn 0 1 0
vn 0 1 0
vn 0 1 0
vn 0 1 0
vn 0 1 0
vn 0 1 0
vn 0 1 0
vn 0 1 0
vn 0 1 0
vn 0 1 0
vn 0 1 0
vn 0 1 0
vn 0 1 0
vn 0 1 0
vn 0 1 0
vn 0 1 0
vn 0 1 0
vn 0 1 0
vn 0 1 0
vn 0 1 0
vn 0 1 0
vn 0 1 0
vn 0 1 0
vn 0 1 0
vn 0 1 0
vn 0 1 0
vn 0 1 0
vn 0 1 0
vn 0 1 0
vn 0 1 0
vn 0 1 0
vn 0 1 0
vn 0 1 0
g _0
f 3/3/3 2/2/2 1/1/1
f 2/2/2 3/3/3 4/4/4
f 5/5/5 4/4/4 3/3/3
f 4/4/4 5/5/5 6/6/6
f 7/7/7 6/6/6 5/5/5
f 6/6/6 7/7/7 8/8/8
f 9/9/9 8/8/8 7/7/7
f 8/8/8 9/9/9 10/10/10
f 11/11/11 10/10/10 9/9/9
f 10/10/10 11/11/11 12/12/12
f 13/13/13 12/12/12 11/11/11
f 12/12/12 13/13/13 14/14/14
f 15/15/15 14/14/14 13/13/13
f 14/14/14 15/15/15 16/16/16
f 17/17/17 16/16/16 15/15/15
f 16/16/16 17/17/17 18/18/18
f 19/19/19 18/18/18 17/17/17
f 18/18/18 19/19/19 20/20/20
f 21/21/21 20/20/20 19/19/19
f 20/20/20 21/21/21 22/22/22
f 23/23/23 22/22/22 21/21/21
f 22/22/22 23/23/23 24/24/24
f 25/25/25 24/24/24 23/23/23
f 24/24/24 25/25/25 26/26/26
f 27/27/27 26/26/26 25/25/25
f 26/26/26 27/27/27 28/28/28
f 29/29/29 28/28/28 27/27/27
f 28/28/28 29/29/29 30/30/30
f 31/31/31 30/30/30 29/29/29
f 30/30/30 31/31/31 32/32/32
f 33/33/33 32/32/32 31/31/31
f 32/32/32 33/33/33 34/34/34
f 35/35/35 34/34/34 33/33/33
f 34/34/34 35/35/35 36/36/36
f 37/37/37 36/36/36 35/35/35
f 36/36/36 37/37/37 38/38/38
f 39/39/39 38/38/38 37/37/37
f 38/38/38 39/39/39 40/40/40
f 41/41/41 40/40/40 39/39/39
f 40/40/40 41/41/41 42/42/42
f 43/43/43 42/42/42 41/41/41
f 42/42/42 43/43/43 44/44/44
f 45/45/45 44/44/44 43/43/43
f 44/44/44 45/45/45 46/46/46
f 47/47/47 46/46/46 45/45/45
f 46/46/46 47/47/47 48/48/48
f 49/49/49 48/48/48 47/47/47
f 48/48/48 49/49/49 50/50/50
f 51/51/51 50/50/50 49/49/49
f 50/50/50 51/51/51 52/52/52
f 53/53/53 52/52/52 51/51/51
f 52/52/52 53/53/53 54/54/54
f 55/55/55 54/54/54 53/53/53
f 54/54/54 55/55/55 56/56/56
f 57/57/57 56/56/56 55/55/55
f 56/56/56 57/57/57 58/58/58
f 59/59/59 58/58/58 57/57/57
f 58/58/58 59/59/59 60/60/60
f 61/61/61 60/60/60 59/59/59
f 60/60/60 61/61/61 62/62/62
f 63/63/63 62/62/62 61/61/61
f 62/62/62 63/63/63 64/64/64
f 65/65/65 64/64/64 63/63/63
f 64/64/64 65/65/65 66/66/66
f 67/67/67 66/66/66 65/65/65
f 66/66/66 67/67/67 68/68/68
f 69/69/69 68/68/68 67/67/67
f 68/68/68 69/69/69 70/70/70
f 71/71/71 70/70/70 69/69/69
f 70/70/70 71/71/71 72/72/72
f 73/73/73 72/72/72 71/71/71
f 72/72/72 73/73/73 74/74/74
f 75/75/75 74/74/74 73/73/73
f 74/74/74 75/75/75 76/76/76
f 77/77/77 76/76/76 75/75/75
f 76/76/76 77/77/77 78/78/78
f 79/79/79 78/78/78 77/77/77
f 78/78/78 79/79/79 80/80/80
f 81/81/81 80/80/80 79/79/79
f 80/80/80 81/81/81 82/82/82
f 83/83/83 82/82/82 81/81/81
f 82/82/82 83/83/83 84/84/84
f 85/85/85 84/84/84 83/83/83
f 84/84/84 85/85/85 86/86/86
f 87/87/87 86/86/86 85/85/85
f 86/86/86 87/87/87 88/88/88
f 89/89/89 88/88/88 87/87/87
f 88/88/88 89/89/89 90/90/90
f 91/91/91 90/90/90 89/89/89
f 90/90/90 91/91/91 92/92/92
f 93/93/93 92/92/92 91/91/91
f 92/92/92 93/93/93 94/94/94
f 95/95/95 94/94/94 93/93/93
f 94/94/94 95/95/95 96/96/96
f 97/97/97 96/96/96 95/95/95
f 96/96/96 97/97/97 98/98/98
f 99/99/99 98/98/98 97/97/97
f 98/98/98 99/99/99 100/100/100
f 101/101/101 100/100/100 99/99/99
f 100/100/100 101/101/101 102/102/102
f 103/103/103 102/102/102 101/101/101
f 102/102/102 103/103/103 104/104/104
f 105/105/105 104/104/104 103/103/103
f 104/104/104 105/105/105 106/106/106
f 107/107/107 106/106/106 105/105/105
f 106/106/106 107/107/107 108/108/108
f 109/109/109 108/108/108 107/107/107
f 108/108/108 109/109/109 110/110/110
f 111/111/111 110/110/110 109/109/109
f 110/110/110 111/111/111 112/112/112
f 113/113/113 112/112/112 111/111/111
f 112/112/112 113/113/113 114/114/114
f 115/115/115 114/114/114 113/113/113
f 114/114/114 115/115/115 116/116/116
f 117/117/117 116/116/116 115/115/115
f 116/116/116 117/117/117 118/118/118
f 119/119/119 118/118/118 117/117/117
f 118/118/118 119/119/119 120/120/120
f 121/121/121 120/120/120 119/119/119
f 120/120/120 121/121/121 122/122/122
f 123/123/123 122/122/122 121/121/121
f 122/122/122 123/123/123 124/124/124
f 125/125/125 124/124/124 123/123/123
f 124/124/124 125/125/125 126/126/126
f 127/127/127 126/126/126 125/125/125
f 126/126/126 127/127/127 128/128/128
f 129/129/129 128/128/128 127/127/127
f 128/128/128 129/129/129 130/130/130
f 131/131/131 130/130/130 129/129/129
f 130/130/130 131/131/131 132/132/132
f 133/133/133 132/132/132 131/131/131
f 132/132/132 133/133/133 134/134/134
