g 
v -78.95851 12.1 -21.08476
v -75.68874 12.1 -15.03439
v -81.85568 12.1 -22.61081
v -75.99956 12.1 -11.77467
v -86.47718 12.1 -21.90422
v -79.12283 12.1 -8.29578
v -90.20172 12.64444 -19.46109
v -83.20732 12.64444 -6.5187
v -94.47596 13.24938 -16.99788
v -87.60979 13.24938 -4.292787
v -98.75851 13.85432 -14.12963
v -92.00394 13.85432 -2.471925
v -102.9257 14.77037 -11.10168
v -95.99271 14.77037 -0.4360209
v -106.7949 15.89383 -8.154533
v -99.93228 15.89383 1.930516
v -110.574 17.01728 -4.773576
v -103.962 17.01728 3.863238
v -114.6331 17.99689 -0.7926407
v -107.0527 17.99689 6.020338
v -117.6991 18.64086 3.825033
v -109.5989 18.64086 9.464201
v -120.4047 19.28483 8.133814
v -112.5056 19.28483 13.21696
v -123.2143 19.79057 13.3122
v -114.6575 19.79057 16.40856
v -125.0244 19.74173 21.37954
v -114.2773 19.74173 17.63427
v -120.6455 19.67753 28.0328
v -111.724 19.67753 17.47691
v -116.9708 19.63457 32.08649
v -107.8269 19.63457 19.18556
v -113.2027 19.60576 35.5574
v -103.5969 19.60576 20.98794
v -112.5306 19.6 36.27837
v -102.6694 19.6 21.32163
v -107.2925 19.6 37.53929
v -99.44653 19.6 25.6392
v -103.7861 19.6 36.0343
v -99.4482 19.6 29.45487
v -78.95851 12.1 -21.08476
v -78.95851 0.1000004 -21.08476
v -81.85568 12.1 -22.61081
v -81.85568 0.1000004 -22.61081
v -81.85568 12.1 -22.61081
v -81.85568 0.1000004 -22.61081
v -86.47718 12.1 -21.90422
v -86.47718 0.1000004 -21.90422
v -86.47718 12.1 -21.90422
v -86.47718 0.1000004 -21.90422
v -90.20172 12.64444 -19.46109
v -90.20172 0.6444445 -19.46109
v -90.20172 12.64444 -19.46109
v -90.20172 0.6444445 -19.46109
v -94.47596 13.24938 -16.99788
v -94.47596 1.249383 -16.99788
v -94.47596 13.24938 -16.99788
v -94.47596 1.249383 -16.99788
v -98.75851 13.85432 -14.12963
v -98.75851 1.854321 -14.12963
v -98.75851 13.85432 -14.12963
v -98.75851 1.854321 -14.12963
v -102.9257 14.77037 -11.10168
v -102.9257 2.77037 -11.10168
v -102.9257 14.77037 -11.10168
v -102.9257 2.77037 -11.10168
v -106.7949 15.89383 -8.154533
v -106.7949 3.893827 -8.154533
v -106.7949 15.89383 -8.154533
v -106.7949 3.893827 -8.154533
v -110.574 17.01728 -4.773576
v -110.574 5.017284 -4.773576
v -110.574 17.01728 -4.773576
v -110.574 5.017284 -4.773576
v -114.6331 17.99689 -0.7926407
v -114.6331 5.996893 -0.7926407
v -114.6331 17.99689 -0.7926407
v -114.6331 5.996893 -0.7926407
v -117.6991 18.64086 3.825033
v -117.6991 6.64086 3.825033
v -117.6991 18.64086 3.825033
v -117.6991 6.64086 3.825033
v -120.4047 19.28483 8.133814
v -120.4047 7.284826 8.133814
v -120.4047 19.28483 8.133814
v -120.4047 7.284826 8.133814
v -123.2143 19.79057 13.3122
v -123.2143 7.790571 13.3122
v -123.2143 19.79057 13.3122
v -123.2143 7.790571 13.3122
v -125.0244 19.74173 21.37954
v -125.0244 7.741728 21.37954
v -125.0244 19.74173 21.37954
v -125.0244 7.741728 21.37954
v -120.6455 19.67753 28.0328
v -120.6455 7.67753 28.0328
v -120.6455 19.67753 28.0328
v -120.6455 7.67753 28.0328
v -116.9708 19.63457 32.08649
v -116.9708 7.634567 32.08649
v -116.9708 19.63457 32.08649
v -116.9708 7.634567 32.08649
v -113.2027 19.60576 35.5574
v -113.2027 7.605762 35.5574
v -113.2027 19.60576 35.5574
v -113.2027 7.605762 35.5574
v -112.5306 19.6 36.27837
v -112.5306 7.6 36.27837
v -112.5306 19.6 36.27837
v -112.5306 7.6 36.27837
v -107.2925 19.6 37.53929
v -107.2925 7.6 37.53929
v -107.2925 19.6 37.53929
v -107.2925 7.6 37.53929
v -103.7861 19.6 36.0343
v -103.7861 7.6 36.0343
v -75.68874 12.1 -15.03439
v -75.68874 0.1000004 -15.03439
v -75.99956 12.1 -11.77467
v -75.99956 0.1000004 -11.77467
v -75.99956 12.1 -11.77467
v -75.99956 0.1000004 -11.77467
v -79.12283 12.1 -8.29578
v -79.12283 0.1000004 -8.29578
v -79.12283 12.1 -8.29578
v -79.12283 0.1000004 -8.29578
v -83.20732 12.64444 -6.5187
v -83.20732 0.6444445 -6.5187
v -83.20732 12.64444 -6.5187
v -83.20732 0.6444445 -6.5187
v -87.60979 13.24938 -4.292787
v -87.60979 1.249383 -4.292787
v -87.60979 13.24938 -4.292787
v -87.60979 1.249383 -4.292787
v -92.00394 13.85432 -2.471925
v -92.00394 1.854321 -2.471925
v -92.00394 13.85432 -2.471925
v -92.00394 1.854321 -2.471925
v -95.99271 14.77037 -0.4360209
v -95.99271 2.77037 -0.4360209
v -95.99271 14.77037 -0.4360209
v -95.99271 2.77037 -0.4360209
v -99.93228 15.89383 1.930516
v -99.93228 3.893827 1.930516
v -99.93228 15.89383 1.930516
v -99.93228 3.893827 1.930516
v -103.962 17.01728 3.863238
v -103.962 5.017284 3.863238
v -103.962 17.01728 3.863238
v -103.962 5.017284 3.863238
v -107.0527 17.99689 6.020338
v -107.0527 5.996893 6.020338
v -107.0527 17.99689 6.020338
v -107.0527 5.996893 6.020338
v -109.5989 18.64086 9.464201
v -109.5989 6.64086 9.464201
v -109.5989 18.64086 9.464201
v -109.5989 6.64086 9.464201
v -112.5056 19.28483 13.21696
v -112.5056 7.284826 13.21696
v -112.5056 19.28483 13.21696
v -112.5056 7.284826 13.21696
v -114.6575 19.79057 16.40856
v -114.6575 7.790571 16.40856
v -114.6575 19.79057 16.40856
v -114.6575 7.790571 16.40856
v -114.2773 19.74173 17.63427
v -114.2773 7.741728 17.63427
v -114.2773 19.74173 17.63427
v -114.2773 7.741728 17.63427
v -111.724 19.67753 17.47691
v -111.724 7.67753 17.47691
v -111.724 19.67753 17.47691
v -111.724 7.67753 17.47691
v -107.8269 19.63457 19.18556
v -107.8269 7.634567 19.18556
v -107.8269 19.63457 19.18556
v -107.8269 7.634567 19.18556
v -103.5969 19.60576 20.98794
v -103.5969 7.605762 20.98794
v -103.5969 19.60576 20.98794
v -103.5969 7.605762 20.98794
v -102.6694 19.6 21.32163
v -102.6694 7.6 21.32163
v -102.6694 19.6 21.32163
v -102.6694 7.6 21.32163
v -99.44653 19.6 25.6392
v -99.44653 7.6 25.6392
v -99.44653 19.6 25.6392
v -99.44653 7.6 25.6392
v -99.4482 19.6 29.45487
v -99.4482 7.6 29.45487
vt -0.07103048 0.006243219
vt -0.06564304 0.01051801
vt -0.07202791 0.003124317
vt -0.06237906 0.01078041
vt -0.07052621 -0.001303144
vt -0.05840882 0.008311685
vt -0.067471 -0.004544558
vt -0.05594667 0.004599682
vt -0.06430015 -0.008323743
vt -0.05298712 0.0006528437
vt -0.06072902 -0.01204047
vt -0.05042787 -0.003356434
vt -0.05702075 -0.01561577
vt -0.04772756 -0.006929043
vt -0.05344401 -0.01891174
vt -0.04471027 -0.01039554
vt -0.04945584 -0.02204331
vt -0.04210443 -0.01402644
vt -0.04482803 -0.02534598
vt -0.0394414 -0.01669362
vt -0.03974643 -0.02755976
vt -0.03560628 -0.01860021
vt -0.03503186 -0.02947243
vt -0.03140413 -0.02080792
vt -0.02944285 -0.03133597
vt -0.02788615 -0.02237031
vt -0.02118346 -0.03171151
vt -0.02674553 -0.02178218
vt -0.0153958 -0.0262394
vt -0.02734574 -0.01929549
vt -0.01204504 -0.02191414
vt -0.02634289 -0.01516012
vt -0.009284437 -0.01759849
vt -0.0253058 -0.01068058
vt -0.008691724 -0.01681094
vt -0.02513897 -0.009709091
vt -0.008363603 -0.01143316
vt -0.02144959 -0.005782697
vt -0.010457 -0.008242997
vt -0.0176921 -0.00511893
vt -0.07103048 0.006243219
vt -0.07103048 0.006243219
vt -0.07202791 0.003124317
vt -0.07202791 0.003124317
vt -0.07202791 0.003124317
vt -0.07202791 0.003124317
vt -0.07052621 -0.001303144
vt -0.07052621 -0.001303144
vt -0.07052621 -0.001303144
vt -0.07052621 -0.001303144
vt -0.067471 -0.004544558
vt -0.067471 -0.004544558
vt -0.067471 -0.004544558
vt -0.067471 -0.004544558
vt -0.06430015 -0.008323743
vt -0.06430015 -0.008323743
vt -0.06430015 -0.008323743
vt -0.06430015 -0.008323743
vt -0.06072902 -0.01204047
vt -0.06072902 -0.01204047
vt -0.06072902 -0.01204047
vt -0.06072902 -0.01204047
vt -0.05702075 -0.01561577
vt -0.05702075 -0.01561577
vt -0.05702075 -0.01561577
vt -0.05702075 -0.01561577
vt -0.05344401 -0.01891174
vt -0.05344401 -0.01891174
vt -0.05344401 -0.01891174
vt -0.05344401 -0.01891174
vt -0.04945584 -0.02204331
vt -0.04945584 -0.02204331
vt -0.04945584 -0.02204331
vt -0.04945584 -0.02204331
vt -0.04482803 -0.02534598
vt -0.04482803 -0.02534598
vt -0.04482803 -0.02534598
vt -0.04482803 -0.02534598
vt -0.03974643 -0.02755976
vt -0.03974643 -0.02755976
vt -0.03974643 -0.02755976
vt -0.03974643 -0.02755976
vt -0.03503186 -0.02947243
vt -0.03503186 -0.02947243
vt -0.03503186 -0.02947243
vt -0.03503186 -0.02947243
vt -0.02944285 -0.03133597
vt -0.02944285 -0.03133597
vt -0.02944285 -0.03133597
vt -0.02944285 -0.03133597
vt -0.02118346 -0.03171151
vt -0.02118346 -0.03171151
vt -0.02118346 -0.03171151
vt -0.02118346 -0.03171151
vt -0.0153958 -0.0262394
vt -0.0153958 -0.0262394
vt -0.0153958 -0.0262394
vt -0.0153958 -0.0262394
vt -0.01204504 -0.02191414
vt -0.01204504 -0.02191414
vt -0.01204504 -0.02191414
vt -0.01204504 -0.02191414
vt -0.009284437 -0.01759849
vt -0.009284437 -0.01759849
vt -0.009284437 -0.01759849
vt -0.009284437 -0.01759849
vt -0.008691724 -0.01681094
vt -0.008691724 -0.01681094
vt -0.008691724 -0.01681094
vt -0.008691724 -0.01681094
vt -0.008363603 -0.01143316
vt -0.008363603 -0.01143316
vt -0.008363603 -0.01143316
vt -0.008363603 -0.01143316
vt -0.010457 -0.008242997
vt -0.010457 -0.008242997
vt -0.06564304 0.01051801
vt -0.06564304 0.01051801
vt -0.06237906 0.01078041
vt -0.06237906 0.01078041
vt -0.06237906 0.01078041
vt -0.06237906 0.01078041
vt -0.05840882 0.008311685
vt -0.05840882 0.008311685
vt -0.05840882 0.008311685
vt -0.05840882 0.008311685
vt -0.05594667 0.004599682
vt -0.05594667 0.004599682
vt -0.05594667 0.004599682
vt -0.05594667 0.004599682
vt -0.05298712 0.0006528437
vt -0.05298712 0.0006528437
vt -0.05298712 0.0006528437
vt -0.05298712 0.0006528437
vt -0.05042787 -0.003356434
vt -0.05042787 -0.003356434
vt -0.05042787 -0.003356434
vt -0.05042787 -0.003356434
vt -0.04772756 -0.006929043
vt -0.04772756 -0.006929043
vt -0.04772756 -0.006929043
vt -0.04772756 -0.006929043
vt -0.04471027 -0.01039554
vt -0.04471027 -0.01039554
vt -0.04471027 -0.01039554
vt -0.04471027 -0.01039554
vt -0.04210443 -0.01402644
vt -0.04210443 -0.01402644
vt -0.04210443 -0.01402644
vt -0.04210443 -0.01402644
vt -0.0394414 -0.01669362
vt -0.0394414 -0.01669362
vt -0.0394414 -0.01669362
vt -0.0394414 -0.01669362
vt -0.03560628 -0.01860021
vt -0.03560628 -0.01860021
vt -0.03560628 -0.01860021
vt -0.03560628 -0.01860021
vt -0.03140413 -0.02080792
vt -0.03140413 -0.02080792
vt -0.03140413 -0.02080792
vt -0.03140413 -0.02080792
vt -0.02788615 -0.02237031
vt -0.02788615 -0.02237031
vt -0.02788615 -0.02237031
vt -0.02788615 -0.02237031
vt -0.02674553 -0.02178218
vt -0.02674553 -0.02178218
vt -0.02674553 -0.02178218
vt -0.02674553 -0.02178218
vt -0.02734574 -0.01929549
vt -0.02734574 -0.01929549
vt -0.02734574 -0.01929549
vt -0.02734574 -0.01929549
vt -0.02634289 -0.01516012
vt -0.02634289 -0.01516012
vt -0.02634289 -0.01516012
vt -0.02634289 -0.01516012
vt -0.0253058 -0.01068058
vt -0.0253058 -0.01068058
vt -0.0253058 -0.01068058
vt -0.0253058 -0.01068058
vt -0.02513897 -0.009709091
vt -0.02513897 -0.009709091
vt -0.02513897 -0.009709091
vt -0.02513897 -0.009709091
vt -0.02144959 -0.005782697
vt -0.02144959 -0.005782697
vt -0.02144959 -0.005782697
vt -0.02144959 -0.005782697
vt -0.0176921 -0.00511893
vt -0.0176921 -0.00511893
vn 0 1 0
vn 0 1 0
vn 0 1 0
vn 0 1 0
vn 0 1 0
vn 0 1 0
vn 0 1 0
vn 0 1 0
vn 0 1 0
vn 0 1 0
vn 0 1 0
vn 0 1 0
vn 0 1 0
vn 0 1 0
vn 0 1 0
vn 0 1 0
vn 0 1 0
vn 0 1 0
vn 0 1 0
vn 0 1 0
vn 0 1 0
vn 0 1 0
vn 0 1 0
vn 0 1 0
vn 0 1 0
vn 0 1 0
vn 0 1 0
vn 0 1 0
vn 0 1 0
vn 0 1 0
vn 0 1 0
vn 0 1 0
vn 0 1 0
vn 0 1 0
vn 0 1 0
vn 0 1 0
vn 0 1 0
vn 0 1 0
vn 0 1 0
vn 0 1 0
vn 0.8797488 0 -0.4754389
vn 0.8797488 0 -0.4754389
vn 0.4660372 0 -0.8847651
vn 0.4660372 0 -0.8847651
vn -0.1511347 0 -0.9885132
vn -0.1511347 0 -0.9885132
vn -0.1511347 0 -0.9885132
vn -0.1511347 0 -0.9885132
vn -0.5484836 0 -0.8361613
vn -0.5484836 0 -0.8361613
vn -0.5484836 0 -0.8361613
vn -0.5484836 0 -0.8361613
vn -0.4993118 0 -0.8664224
vn -0.4993118 0 -0.8664224
vn -0.4993118 0 -0.8664224
vn -0.4993118 0 -0.8664224
vn -0.5564753 0 -0.8308642
vn -0.5564753 0 -0.8308642
vn -0.5564753 0 -0.8308642
vn -0.5564753 0 -0.8308642
vn -0.5878249 0 -0.8089882
vn -0.5878249 0 -0.8089882
vn -0.5878249 0 -0.8089882
vn -0.5878249 0 -0.8089882
vn -0.6059356 0 -0.7955137
vn -0.6059356 0 -0.7955137
vn -0.6059356 0 -0.7955137
vn -0.6059356 0 -0.7955137
vn -0.666759 0 -0.7452734
vn -0.666759 0 -0.7452734
vn -0.666759 0 -0.7452734
vn -0.666759 0 -0.7452734
vn -0.7001988 0 -0.7139479
vn -0.7001988 0 -0.7139479
vn -0.7001988 0 -0.7139479
vn -0.7001988 0 -0.7139479
vn -0.8330835 0 -0.5531474
vn -0.8330835 0 -0.5531474
vn -0.8330835 0 -0.5531474
vn -0.8330835 0 -0.5531474
vn -0.8468873 0 -0.5317724
vn -0.8468873 0 -0.5317724
vn -0.8468873 0 -0.5317724
vn -0.8468873 0 -0.5317724
vn -0.8789587 0 -0.4768978
vn -0.8789587 0 -0.4768978
vn -0.8789587 0 -0.4768978
vn -0.8789587 0 -0.4768978
vn -0.9757395 0 -0.2189347
vn -0.9757395 0 -0.2189347
vn -0.9757395 0 -0.2189347
vn -0.9757395 0 -0.2189347
vn -0.8353122 0 0.5497758
vn -0.8353122 0 0.5497758
vn -0.8353122 0 0.5497758
vn -0.8353122 0 0.5497758
vn -0.7408971 0 0.6716185
vn -0.7408971 0 0.6716185
vn -0.7408971 0 0.6716185
vn -0.7408971 0 0.6716185
vn -0.6775067 0 0.7355165
vn -0.6775067 0 0.7355165
vn -0.6775067 0 0.7355165
vn -0.6775067 0 0.7355165
vn -0.7314531 0 0.6818918
vn -0.7314531 0 0.6818918
vn -0.7314531 0 0.6818918
vn -0.7314531 0 0.6818918
vn -0.2340333 0 0.9722286
vn -0.2340333 0 0.9722286
vn -0.2340333 0 0.9722286
vn -0.2340333 0 0.9722286
vn 0.3944215 0 0.9189296
vn 0.3944215 0 0.9189296
vn 0.834872 0 0.5504442
vn 0.834872 0 0.5504442
vn 0.8797488 0 -0.4754389
vn 0.8797488 0 -0.4754389
vn 0.9954848 0 0.09492154
vn 0.9954848 0 0.09492154
vn 0.7441159 0 0.6680505
vn 0.7441159 0 0.6680505
vn 0.7441159 0 0.6680505
vn 0.7441159 0 0.6680505
vn 0.3989551 0 0.9169704
vn 0.3989551 0 0.9169704
vn 0.3989551 0 0.9169704
vn 0.3989551 0 0.9169704
vn 0.4512108 0 0.8924174
vn 0.4512108 0 0.8924174
vn 0.4512108 0 0.8924174
vn 0.4512108 0 0.8924174
vn 0.3828172 0 0.9238241
vn 0.3828172 0 0.9238241
vn 0.3828172 0 0.9238241
vn 0.3828172 0 0.9238241
vn 0.4546152 0 0.890688
vn 0.4546152 0 0.890688
vn 0.4546152 0 0.890688
vn 0.4546152 0 0.890688
vn 0.5149431 0 0.8572244
vn 0.5149431 0 0.8572244
vn 0.5149431 0 0.8572244
vn 0.5149431 0 0.8572244
vn 0.4324526 0 0.9016567
vn 0.4324526 0 0.9016567
vn 0.4324526 0 0.9016567
vn 0.4324526 0 0.9016567
vn 0.5723233 0 0.8200281
vn 0.5723233 0 0.8200281
vn 0.5723233 0 0.8200281
vn 0.5723233 0 0.8200281
vn 0.8040953 0 0.5945004
vn 0.8040953 0 0.5945004
vn 0.8040953 0 0.5945004
vn 0.8040953 0 0.5945004
vn 0.7905885 0 0.6123477
vn 0.7905885 0 0.6123477
vn 0.7905885 0 0.6123477
vn 0.7905885 0 0.6123477
vn 0.829136 0 0.5590469
vn 0.829136 0 0.5590469
vn 0.829136 0 0.5590469
vn 0.829136 0 0.5590469
vn 0.9551055 0 -0.2962658
vn 0.9551055 0 -0.2962658
vn 0.9551055 0 -0.2962658
vn 0.9551055 0 -0.2962658
vn -0.06151208 0 -0.9981064
vn -0.06151208 0 -0.9981064
vn -0.06151208 0 -0.9981064
vn -0.06151208 0 -0.9981064
vn 0.4015402 0 -0.9158414
vn 0.4015402 0 -0.9158414
vn 0.4015402 0 -0.9158414
vn 0.4015402 0 -0.9158414
vn 0.3919908 0 -0.9199691
vn 0.3919908 0 -0.9199691
vn 0.3919908 0 -0.9199691
vn 0.3919908 0 -0.9199691
vn 0.3385297 0 -0.9409557
vn 0.3385297 0 -0.9409557
vn 0.3385297 0 -0.9409557
vn 0.3385297 0 -0.9409557
vn 0.8013644 0 -0.5981765
vn 0.8013644 0 -0.5981765
vn 0.8013644 0 -0.5981765
vn 0.8013644 0 -0.5981765
vn 0.9999999 0 0.0004378883
vn 0.9999999 0 0.0004378883
vn 0.834872 0 0.5504442
vn 0.834872 0 0.5504442
g _0
f 3/3/3 2/2/2 1/1/1
f 2/2/2 3/3/3 4/4/4
f 5/5/5 4/4/4 3/3/3
f 4/4/4 5/5/5 6/6/6
f 7/7/7 6/6/6 5/5/5
f 6/6/6 7/7/7 8/8/8
f 9/9/9 8/8/8 7/7/7
f 8/8/8 9/9/9 10/10/10
f 11/11/11 10/10/10 9/9/9
f 10/10/10 11/11/11 12/12/12
f 13/13/13 12/12/12 11/11/11
f 12/12/12 13/13/13 14/14/14
f 15/15/15 14/14/14 13/13/13
f 14/14/14 15/15/15 16/16/16
f 17/17/17 16/16/16 15/15/15
f 16/16/16 17/17/17 18/18/18
f 19/19/19 18/18/18 17/17/17
f 18/18/18 19/19/19 20/20/20
f 21/21/21 20/20/20 19/19/19
f 20/20/20 21/21/21 22/22/22
f 23/23/23 22/22/22 21/21/21
f 22/22/22 23/23/23 24/24/24
f 25/25/25 24/24/24 23/23/23
f 24/24/24 25/25/25 26/26/26
f 27/27/27 26/26/26 25/25/25
f 26/26/26 27/27/27 28/28/28
f 29/29/29 28/28/28 27/27/27
f 28/28/28 29/29/29 30/30/30
f 31/31/31 30/30/30 29/29/29
f 30/30/30 31/31/31 32/32/32
f 33/33/33 32/32/32 31/31/31
f 32/32/32 33/33/33 34/34/34
f 35/35/35 34/34/34 33/33/33
f 34/34/34 35/35/35 36/36/36
f 37/37/37 36/36/36 35/35/35
f 36/36/36 37/37/37 38/38/38
f 39/39/39 38/38/38 37/37/37
f 38/38/38 39/39/39 40/40/40
g _1
f 41/41/41 42/42/42 43/43/43
f 44/44/44 43/43/43 42/42/42
f 45/45/45 46/46/46 47/47/47
f 48/48/48 47/47/47 46/46/46
f 49/49/49 50/50/50 51/51/51
f 52/52/52 51/51/51 50/50/50
f 53/53/53 54/54/54 55/55/55
f 56/56/56 55/55/55 54/54/54
f 57/57/57 58/58/58 59/59/59
f 60/60/60 59/59/59 58/58/58
f 61/61/61 62/62/62 63/63/63
f 64/64/64 63/63/63 62/62/62
f 65/65/65 66/66/66 67/67/67
f 68/68/68 67/67/67 66/66/66
f 69/69/69 70/70/70 71/71/71
f 72/72/72 71/71/71 70/70/70
f 73/73/73 74/74/74 75/75/75
f 76/76/76 75/75/75 74/74/74
f 77/77/77 78/78/78 79/79/79
f 80/80/80 79/79/79 78/78/78
f 81/81/81 82/82/82 83/83/83
f 84/84/84 83/83/83 82/82/82
f 85/85/85 86/86/86 87/87/87
f 88/88/88 87/87/87 86/86/86
f 89/89/89 90/90/90 91/91/91
f 92/92/92 91/91/91 90/90/90
f 93/93/93 94/94/94 95/95/95
f 96/96/96 95/95/95 94/94/94
f 97/97/97 98/98/98 99/99/99
f 100/100/100 99/99/99 98/98/98
f 101/101/101 102/102/102 103/103/103
f 104/104/104 103/103/103 102/102/102
f 105/105/105 106/106/106 107/107/107
f 108/108/108 107/107/107 106/106/106
f 109/109/109 110/110/110 111/111/111
f 112/112/112 111/111/111 110/110/110
f 113/113/113 114/114/114 115/115/115
f 116/116/116 115/115/115 114/114/114
f 119/119/119 118/118/118 117/117/117
f 118/118/118 119/119/119 120/120/120
f 123/123/123 122/122/122 121/121/121
f 122/122/122 123/123/123 124/124/124
f 127/127/127 126/126/126 125/125/125
f 126/126/126 127/127/127 128/128/128
f 131/131/131 130/130/130 129/129/129
f 130/130/130 131/131/131 132/132/132
f 135/135/135 134/134/134 133/133/133
f 134/134/134 135/135/135 136/136/136
f 139/139/139 138/138/138 137/137/137
f 138/138/138 139/139/139 140/140/140
f 143/143/143 142/142/142 141/141/141
f 142/142/142 143/143/143 144/144/144
f 147/147/147 146/146/146 145/145/145
f 146/146/146 147/147/147 148/148/148
f 151/151/151 150/150/150 149/149/149
f 150/150/150 151/151/151 152/152/152
f 155/155/155 154/154/154 153/153/153
f 154/154/154 155/155/155 156/156/156
f 159/159/159 158/158/158 157/157/157
f 158/158/158 159/159/159 160/160/160
f 163/163/163 162/162/162 161/161/161
f 162/162/162 163/163/163 164/164/164
f 167/167/167 166/166/166 165/165/165
f 166/166/166 167/167/167 168/168/168
f 171/171/171 170/170/170 169/169/169
f 170/170/170 171/171/171 172/172/172
f 175/175/175 174/174/174 173/173/173
f 174/174/174 175/175/175 176/176/176
f 179/179/179 178/178/178 177/177/177
f 178/178/178 179/179/179 180/180/180
f 183/183/183 182/182/182 181/181/181
f 182/182/182 183/183/183 184/184/184
f 187/187/187 186/186/186 185/185/185
f 186/186/186 187/187/187 188/188/188
f 191/191/191 190/190/190 189/189/189
f 190/190/190 191/191/191 192/192/192
f 117/117/117 42/42/42 41/41/41
f 42/42/42 117/117/117 118/118/118
f 115/115/115 116/116/116 191/191/191
f 192/192/192 191/191/191 116/116/116
