g 
v 65.75937 18.4 -124.8217
v 79.02382 18.4 -129.3284
v 60.67059 18.4 -118.8537
v 86.69498 18.4 -127.6958
v 59.0051 18.4 -108.054
v 94.59491 18.4 -120.146
v 59.17823 18.6 -108.8839
v 98.99993 18.6 -105.8414
v 58.31751 18.6 -107.6284
v 92.8561 18.6 -88.81319
v 54.8633 18.6 -103.8884
v 84.90957 18.6 -77.05093
v 50.19376 18.6 -97.66854
v 75.47662 18.6 -70.22053
v 45.62876 18.6 -90.35323
v 66.26759 18.6 -64.9085
v 39.26364 18.6 -85.24394
v 57.3879 18.6 -59.10725
v 30.30589 18.6 -82.54997
v 50.73629 18.6 -51.31619
v 23.6063 18.6 -75.93484
v 41.52481 18.6 -47.79845
v 23.06227 18.6 -75.03323
v 40.47773 18.6 -47.68676
v 15.49346 18.6 -67.71642
v 30.64651 18.6 -43.92247
v 15.1442 18.6 -60.31124
v 23.78844 18.6 -46.7377
v 65.75937 18.4 -124.8217
v 65.75937 -11.6 -124.8217
v 60.67059 18.4 -118.8537
v 60.67059 -11.6 -118.8537
v 60.67059 18.4 -118.8537
v 60.67059 -11.6 -118.8537
v 59.0051 18.4 -108.054
v 59.0051 -11.6 -108.054
v 59.0051 18.4 -108.054
v 59.0051 -11.6 -108.054
v 59.17823 18.6 -108.8839
v 59.17823 -11.4 -108.8839
v 59.17823 18.6 -108.8839
v 59.17823 -11.4 -108.8839
v 58.31751 18.6 -107.6284
v 58.31751 -11.4 -107.6284
v 58.31751 18.6 -107.6284
v 58.31751 -11.4 -107.6284
v 54.8633 18.6 -103.8884
v 54.8633 -11.4 -103.8884
v 54.8633 18.6 -103.8884
v 54.8633 -11.4 -103.8884
v 50.19376 18.6 -97.66854
v 50.19376 -11.4 -97.66854
v 50.19376 18.6 -97.66854
v 50.19376 -11.4 -97.66854
v 45.62876 18.6 -90.35323
v 45.62876 -11.4 -90.35323
v 45.62876 18.6 -90.35323
v 45.62876 -11.4 -90.35323
v 39.26364 18.6 -85.24394
v 39.26364 -11.4 -85.24394
v 39.26364 18.6 -85.24394
v 39.26364 -11.4 -85.24394
v 30.30589 18.6 -82.54997
v 30.30589 -11.4 -82.54997
v 30.30589 18.6 -82.54997
v 30.30589 -11.4 -82.54997
v 23.6063 18.6 -75.93484
v 23.6063 -11.4 -75.93484
v 23.6063 18.6 -75.93484
v 23.6063 -11.4 -75.93484
v 23.06227 18.6 -75.03323
v 23.06227 -11.4 -75.03323
v 23.06227 18.6 -75.03323
v 23.06227 -11.4 -75.03323
v 15.49346 18.6 -67.71642
v 15.49346 -11.4 -67.71642
v 15.49346 18.6 -67.71642
v 15.49346 -11.4 -67.71642
v 15.1442 18.6 -60.31124
v 15.1442 -11.4 -60.31124
v 79.02382 18.4 -129.3284
v 79.02382 -11.6 -129.3284
v 86.69498 18.4 -127.6958
v 86.69498 -11.6 -127.6958
v 86.69498 18.4 -127.6958
v 86.69498 -11.6 -127.6958
v 94.59491 18.4 -120.146
v 94.59491 -11.6 -120.146
v 94.59491 18.4 -120.146
v 94.59491 -11.6 -120.146
v 98.99993 18.6 -105.8414
v 98.99993 -11.4 -105.8414
v 98.99993 18.6 -105.8414
v 98.99993 -11.4 -105.8414
v 92.8561 18.6 -88.81319
v 92.8561 -11.4 -88.81319
v 92.8561 18.6 -88.81319
v 92.8561 -11.4 -88.81319
v 84.90957 18.6 -77.05093
v 84.90957 -11.4 -77.05093
v 84.90957 18.6 -77.05093
v 84.90957 -11.4 -77.05093
v 75.47662 18.6 -70.22053
v 75.47662 -11.4 -70.22053
v 75.47662 18.6 -70.22053
v 75.47662 -11.4 -70.22053
v 66.26759 18.6 -64.9085
v 66.26759 -11.4 -64.9085
v 66.26759 18.6 -64.9085
v 66.26759 -11.4 -64.9085
v 57.3879 18.6 -59.10725
v 57.3879 -11.4 -59.10725
v 57.3879 18.6 -59.10725
v 57.3879 -11.4 -59.10725
v 50.73629 18.6 -51.31619
v 50.73629 -11.4 -51.31619
v 50.73629 18.6 -51.31619
v 50.73629 -11.4 -51.31619
v 41.52481 18.6 -47.79845
v 41.52481 -11.4 -47.79845
v 41.52481 18.6 -47.79845
v 41.52481 -11.4 -47.79845
v 40.47773 18.6 -47.68676
v 40.47773 -11.4 -47.68676
v 40.47773 18.6 -47.68676
v 40.47773 -11.4 -47.68676
v 30.64651 18.6 -43.92247
v 30.64651 -11.4 -43.92247
v 30.64651 18.6 -43.92247
v 30.64651 -11.4 -43.92247
v 23.78844 18.6 -46.7377
v 23.78844 -11.4 -46.7377
vt 0.06191082 -0.1648867
vt 0.0742145 -0.1715856
vt 0.05407369 -0.1651897
vt 0.07821312 -0.1783327
vt 0.04500389 -0.1712845
vt 0.07801592 -0.1892583
vt 0.04573146 -0.1708494
vt 0.0704833 -0.2021922
vt 0.04422497 -0.1710674
vt 0.05379851 -0.2092154
vt 0.03913384 -0.1710623
vt 0.03976403 -0.2113442
vt 0.03139566 -0.1718442
vt 0.02834852 -0.2090374
vt 0.02292283 -0.1734455
vt 0.01820123 -0.2058662
vt 0.01485205 -0.1722281
vt 0.007917427 -0.2032688
vt 0.006800115 -0.1674673
vt -0.002319415 -0.2036582
vt -0.002604584 -0.1670244
vt -0.01114903 -0.1992692
vt -0.003636246 -0.1672355
vt -0.01194081 -0.198575
vt -0.01414601 -0.1666291
vt -0.02137174 -0.1938973
vt -0.01982772 -0.1713911
vt -0.02394973 -0.1869466
vt 0.06191082 -0.1648867
vt 0.06191082 -0.1648867
vt 0.05407369 -0.1651897
vt 0.05407369 -0.1651897
vt 0.05407369 -0.1651897
vt 0.05407369 -0.1651897
vt 0.04500389 -0.1712845
vt 0.04500389 -0.1712845
vt 0.04500389 -0.1712845
vt 0.04500389 -0.1712845
vt 0.04573146 -0.1708494
vt 0.04573146 -0.1708494
vt 0.04573146 -0.1708494
vt 0.04573146 -0.1708494
vt 0.04422497 -0.1710674
vt 0.04422497 -0.1710674
vt 0.04422497 -0.1710674
vt 0.04422497 -0.1710674
vt 0.03913384 -0.1710623
vt 0.03913384 -0.1710623
vt 0.03913384 -0.1710623
vt 0.03913384 -0.1710623
vt 0.03139566 -0.1718442
vt 0.03139566 -0.1718442
vt 0.03139566 -0.1718442
vt 0.03139566 -0.1718442
vt 0.02292283 -0.1734455
vt 0.02292283 -0.1734455
vt 0.02292283 -0.1734455
vt 0.02292283 -0.1734455
vt 0.01485205 -0.1722281
vt 0.01485205 -0.1722281
vt 0.01485205 -0.1722281
vt 0.01485205 -0.1722281
vt 0.006800115 -0.1674673
vt 0.006800115 -0.1674673
vt 0.006800115 -0.1674673
vt 0.006800115 -0.1674673
vt -0.002604584 -0.1670244
vt -0.002604584 -0.1670244
vt -0.002604584 -0.1670244
vt -0.002604584 -0.1670244
vt -0.003636246 -0.1672355
vt -0.003636246 -0.1672355
vt -0.003636246 -0.1672355
vt -0.003636246 -0.1672355
vt -0.01414601 -0.1666291
vt -0.01414601 -0.1666291
vt -0.01414601 -0.1666291
vt -0.01414601 -0.1666291
vt -0.01982772 -0.1713911
vt -0.01982772 -0.1713911
vt 0.0742145 -0.1715856
vt 0.0742145 -0.1715856
vt 0.07821312 -0.1783327
vt 0.07821312 -0.1783327
vt 0.07821312 -0.1783327
vt 0.07821312 -0.1783327
vt 0.07801592 -0.1892583
vt 0.07801592 -0.1892583
vt 0.07801592 -0.1892583
vt 0.07801592 -0.1892583
vt 0.0704833 -0.2021922
vt 0.0704833 -0.2021922
vt 0.0704833 -0.2021922
vt 0.0704833 -0.2021922
vt 0.05379851 -0.2092154
vt 0.05379851 -0.2092154
vt 0.05379851 -0.2092154
vt 0.05379851 -0.2092154
vt 0.03976403 -0.2113442
vt 0.03976403 -0.2113442
vt 0.03976403 -0.2113442
vt 0.03976403 -0.2113442
vt 0.02834852 -0.2090374
vt 0.02834852 -0.2090374
vt 0.02834852 -0.2090374
vt 0.02834852 -0.2090374
vt 0.01820123 -0.2058662
vt 0.01820123 -0.2058662
vt 0.01820123 -0.2058662
vt 0.01820123 -0.2058662
vt 0.007917427 -0.2032688
vt 0.007917427 -0.2032688
vt 0.007917427 -0.2032688
vt 0.007917427 -0.2032688
vt -0.002319415 -0.2036582
vt -0.002319415 -0.2036582
vt -0.002319415 -0.2036582
vt -0.002319415 -0.2036582
vt -0.01114903 -0.1992692
vt -0.01114903 -0.1992692
vt -0.01114903 -0.1992692
vt -0.01114903 -0.1992692
vt -0.01194081 -0.198575
vt -0.01194081 -0.198575
vt -0.01194081 -0.198575
vt -0.01194081 -0.198575
vt -0.02137174 -0.1938973
vt -0.02137174 -0.1938973
vt -0.02137174 -0.1938973
vt -0.02137174 -0.1938973
vt -0.02394973 -0.1869466
vt -0.02394973 -0.1869466
vn 0 1 0
vn 0 1 0
vn 0 1 0
vn 0 1 0
vn 0 1 0
vn 0 1 0
vn 0 1 0
vn 0 1 0
vn 0 1 0
vn 0 1 0
vn 0 1 0
vn 0 1 0
vn 0 1 0
vn 0 1 0
vn 0 1 0
vn 0 1 0
vn 0 1 0
vn 0 1 0
vn 0 1 0
vn 0 1 0
vn 0 1 0
vn 0 1 0
vn 0 1 0
vn 0 1 0
vn 0 1 0
vn 0 1 0
vn 0 1 0
vn 0 1 0
vn -0.3216985 0 -0.9468421
vn -0.3216985 0 -0.9468421
vn -0.7609315 0 -0.6488323
vn -0.7609315 0 -0.6488323
vn -0.9883167 0 -0.1524144
vn -0.9883167 0 -0.1524144
vn -0.9883167 0 -0.1524144
vn -0.9883167 0 -0.1524144
vn 0.9789241 0 0.2042245
vn 0.9789241 0 0.2042245
vn 0.9789241 0 0.2042245
vn 0.9789241 0 0.2042245
vn -0.8247796 0 -0.5654544
vn -0.8247796 0 -0.5654544
vn -0.8247796 0 -0.5654544
vn -0.8247796 0 -0.5654544
vn -0.734623 0 -0.6784756
vn -0.734623 0 -0.6784756
vn -0.734623 0 -0.6784756
vn -0.734623 0 -0.6784756
vn -0.7997113 0 -0.6003846
vn -0.7997113 0 -0.6003846
vn -0.7997113 0 -0.6003846
vn -0.7997113 0 -0.6003846
vn -0.8483667 0 -0.529409
vn -0.8483667 0 -0.529409
vn -0.8483667 0 -0.529409
vn -0.8483667 0 -0.529409
vn -0.6259788 0 -0.7798401
vn -0.6259788 0 -0.7798401
vn -0.6259788 0 -0.7798401
vn -0.6259788 0 -0.7798401
vn -0.2879994 0 -0.9576306
vn -0.2879994 0 -0.9576306
vn -0.2879994 0 -0.9576306
vn -0.2879994 0 -0.9576306
vn -0.702608 0 -0.7115771
vn -0.702608 0 -0.7115771
vn -0.702608 0 -0.7115771
vn -0.702608 0 -0.7115771
vn -0.8562037 0 -0.5166384
vn -0.8562037 0 -0.5166384
vn -0.8562037 0 -0.5166384
vn -0.8562037 0 -0.5166384
vn -0.6950368 0 -0.7189742
vn -0.6950368 0 -0.7189742
vn -0.6950368 0 -0.7189742
vn -0.6950368 0 -0.7189742
vn -0.9988896 0 -0.04711133
vn -0.9988896 0 -0.04711133
vn -0.8434776 0 0.5371643
vn -0.8434776 0 0.5371643
vn -0.3216985 0 -0.9468421
vn -0.3216985 0 -0.9468421
vn 0.2081657 0 -0.9780936
vn 0.2081657 0 -0.9780936
vn 0.6909032 0 -0.7229473
vn 0.6909032 0 -0.7229473
vn 0.6909032 0 -0.7229473
vn 0.6909032 0 -0.7229473
vn 0.955711 0 -0.2943067
vn 0.955711 0 -0.2943067
vn 0.955711 0 -0.2943067
vn 0.955711 0 -0.2943067
vn 0.9406468 0 0.3393872
vn 0.9406468 0 0.3393872
vn 0.9406468 0 0.3393872
vn 0.9406468 0 0.3393872
vn 0.8286195 0 0.5598122
vn 0.8286195 0 0.5598122
vn 0.8286195 0 0.5598122
vn 0.8286195 0 0.5598122
vn 0.5864903 0 0.8099563
vn 0.5864903 0 0.8099563
vn 0.5864903 0 0.8099563
vn 0.5864903 0 0.8099563
vn 0.4996607 0 0.8662212
vn 0.4996607 0 0.8662212
vn 0.4996607 0 0.8662212
vn 0.4996607 0 0.8662212
vn 0.5469385 0 0.8371727
vn 0.5469385 0 0.8371727
vn 0.5469385 0 0.8371727
vn 0.5469385 0 0.8371727
vn 0.7605305 0 0.6493022
vn 0.7605305 0 0.6493022
vn 0.7605305 0 0.6493022
vn 0.7605305 0 0.6493022
vn 0.356757 0 0.9341972
vn 0.356757 0 0.9341972
vn 0.356757 0 0.9341972
vn 0.356757 0 0.9341972
vn 0.1060671 0 0.994359
vn 0.1060671 0 0.994359
vn 0.1060671 0 0.994359
vn 0.1060671 0 0.994359
vn 0.3575769 0 0.9338837
vn 0.3575769 0 0.9338837
vn 0.3575769 0 0.9338837
vn 0.3575769 0 0.9338837
vn -0.3797484 0 0.9250898
vn -0.3797484 0 0.9250898
vn -0.8434776 0 0.5371643
vn -0.8434776 0 0.5371643
g _0
f 3/3/3 2/2/2 1/1/1
f 2/2/2 3/3/3 4/4/4
f 5/5/5 4/4/4 3/3/3
f 4/4/4 5/5/5 6/6/6
f 6/6/6 7/7/7 8/8/8
f 9/9/9 8/8/8 7/7/7
f 8/8/8 9/9/9 10/10/10
f 11/11/11 10/10/10 9/9/9
f 10/10/10 11/11/11 12/12/12
f 13/13/13 12/12/12 11/11/11
f 12/12/12 13/13/13 14/14/14
f 15/15/15 14/14/14 13/13/13
f 14/14/14 15/15/15 16/16/16
f 17/17/17 16/16/16 15/15/15
f 16/16/16 17/17/17 18/18/18
f 19/19/19 18/18/18 17/17/17
f 18/18/18 19/19/19 20/20/20
f 21/21/21 20/20/20 19/19/19
f 20/20/20 21/21/21 22/22/22
f 23/23/23 22/22/22 21/21/21
f 22/22/22 23/23/23 24/24/24
f 25/25/25 24/24/24 23/23/23
f 24/24/24 25/25/25 26/26/26
f 27/27/27 26/26/26 25/25/25
f 26/26/26 27/27/27 28/28/28
g _1
f 29/29/29 30/30/30 31/31/31
f 32/32/32 31/31/31 30/30/30
f 33/33/33 34/34/34 35/35/35
f 36/36/36 35/35/35 34/34/34
f 37/37/37 38/38/38 39/39/39
f 40/40/40 39/39/39 38/38/38
f 41/41/41 42/42/42 43/43/43
f 44/44/44 43/43/43 42/42/42
f 45/45/45 46/46/46 47/47/47
f 48/48/48 47/47/47 46/46/46
f 49/49/49 50/50/50 51/51/51
f 52/52/52 51/51/51 50/50/50
f 53/53/53 54/54/54 55/55/55
f 56/56/56 55/55/55 54/54/54
f 57/57/57 58/58/58 59/59/59
f 60/60/60 59/59/59 58/58/58
f 61/61/61 62/62/62 63/63/63
f 64/64/64 63/63/63 62/62/62
f 65/65/65 66/66/66 67/67/67
f 68/68/68 67/67/67 66/66/66
f 69/69/69 70/70/70 71/71/71
f 72/72/72 71/71/71 70/70/70
f 73/73/73 74/74/74 75/75/75
f 76/76/76 75/75/75 74/74/74
f 77/77/77 78/78/78 79/79/79
f 80/80/80 79/79/79 78/78/78
f 83/83/83 82/82/82 81/81/81
f 82/82/82 83/83/83 84/84/84
f 87/87/87 86/86/86 85/85/85
f 86/86/86 87/87/87 88/88/88
f 91/91/91 90/90/90 89/89/89
f 90/90/90 91/91/91 92/92/92
f 95/95/95 94/94/94 93/93/93
f 94/94/94 95/95/95 96/96/96
f 99/99/99 98/98/98 97/97/97
f 98/98/98 99/99/99 100/100/100
f 103/103/103 102/102/102 101/101/101
f 102/102/102 103/103/103 104/104/104
f 107/107/107 106/106/106 105/105/105
f 106/106/106 107/107/107 108/108/108
f 111/111/111 110/110/110 109/109/109
f 110/110/110 111/111/111 112/112/112
f 115/115/115 114/114/114 113/113/113
f 114/114/114 115/115/115 116/116/116
f 119/119/119 118/118/118 117/117/117
f 118/118/118 119/119/119 120/120/120
f 123/123/123 122/122/122 121/121/121
f 122/122/122 123/123/123 124/124/124
f 127/127/127 126/126/126 125/125/125
f 126/126/126 127/127/127 128/128/128
f 131/131/131 130/130/130 129/129/129
f 130/130/130 131/131/131 132/132/132
f 81/81/81 30/30/30 29/29/29
f 30/30/30 81/81/81 82/82/82
f 79/79/79 80/80/80 131/131/131
f 132/132/132 131/131/131 80/80/80
