g 
v 16.55256 17.6 -14.51798
v 2.13061 17.6 -11.25216
v 24.67267 17.6 -20.7645
v -7.888384 17.6 -13.39113
v 21.82 17.6 -30.75976
v -9.619999 17.6 -23.64025
v 21.90376 17.6 -39.9012
v -13.63376 17.6 -31.85381
v 19.33955 17.6 -49.45661
v -15.43622 17.6 -41.58172
v 18.05089 17.6 -54.23283
v -16.33088 17.6 -46.44717
v 9.942787 17.6 -61.62432
v -12.19805 17.6 -56.61058
v 5.58783 17.6 -64.46033
v -9.489703 17.6 -61.04605
v 16.55256 17.6 -14.51798
v 16.55256 -2.4 -14.51798
v 24.67267 17.6 -20.7645
v 24.67267 -2.4 -20.7645
v 24.67267 17.6 -20.7645
v 24.67267 -2.4 -20.7645
v 21.82 17.6 -30.75976
v 21.82 -2.4 -30.75976
v 21.82 17.6 -30.75976
v 21.82 -2.4 -30.75976
v 21.90376 17.6 -39.9012
v 21.90376 -2.4 -39.9012
v 21.90376 17.6 -39.9012
v 21.90376 -2.4 -39.9012
v 19.33955 17.6 -49.45661
v 19.33955 -2.4 -49.45661
v 19.33955 17.6 -49.45661
v 19.33955 -2.4 -49.45661
v 18.05089 17.6 -54.23283
v 18.05089 -2.4 -54.23283
v 18.05089 17.6 -54.23283
v 18.05089 -2.4 -54.23283
v 9.942787 17.6 -61.62432
v 9.942787 -2.4 -61.62432
v 9.942787 17.6 -61.62432
v 9.942787 -2.4 -61.62432
v 5.58783 17.6 -64.46033
v 5.58783 -2.4 -64.46033
v 2.13061 17.6 -11.25216
v 2.13061 -2.4 -11.25216
v -7.888384 17.6 -13.39113
v -7.888384 -2.4 -13.39113
v -7.888384 17.6 -13.39113
v -7.888384 -2.4 -13.39113
v -9.619999 17.6 -23.64025
v -9.619999 -2.4 -23.64025
v -9.619999 17.6 -23.64025
v -9.619999 -2.4 -23.64025
v -13.63376 17.6 -31.85381
v -13.63376 -2.4 -31.85381
v -13.63376 17.6 -31.85381
v -13.63376 -2.4 -31.85381
v -15.43622 17.6 -41.58172
v -15.43622 -2.4 -41.58172
v -15.43622 17.6 -41.58172
v -15.43622 -2.4 -41.58172
v -16.33088 17.6 -46.44717
v -16.33088 -2.4 -46.44717
v -16.33088 17.6 -46.44717
v -16.33088 -2.4 -46.44717
v -12.19805 17.6 -56.61058
v -12.19805 -2.4 -56.61058
v -12.19805 17.6 -56.61058
v -12.19805 -2.4 -56.61058
v -9.489703 17.6 -61.04605
v -9.489703 -2.4 -61.04605
vt 0.1098755 -0.1089596
vt 0.1088969 -0.1201751
vt 0.1072303 -0.1016219
vt 0.1050209 -0.1269438
vt 0.09932057 -0.101371
vt 0.0971872 -0.125821
vt 0.09271134 -0.09918892
vt 0.09029993 -0.1268255
vt 0.08518745 -0.09883089
vt 0.08282772 -0.125875
vt 0.08142506 -0.09865696
vt 0.07909206 -0.1253947
vt 0.07418377 -0.1028211
vt 0.07268139 -0.1200394
vt 0.07111672 -0.1053208
vt 0.07009362 -0.1170462
vt 0.1098755 -0.1089596
vt 0.1098755 -0.1089596
vt 0.1072303 -0.1016219
vt 0.1072303 -0.1016219
vt 0.1072303 -0.1016219
vt 0.1072303 -0.1016219
vt 0.09932057 -0.101371
vt 0.09932057 -0.101371
vt 0.09932057 -0.101371
vt 0.09932057 -0.101371
vt 0.09271134 -0.09918892
vt 0.09271134 -0.09918892
vt 0.09271134 -0.09918892
vt 0.09271134 -0.09918892
vt 0.08518745 -0.09883089
vt 0.08518745 -0.09883089
vt 0.08518745 -0.09883089
vt 0.08518745 -0.09883089
vt 0.08142506 -0.09865696
vt 0.08142506 -0.09865696
vt 0.08142506 -0.09865696
vt 0.08142506 -0.09865696
vt 0.07418377 -0.1028211
vt 0.07418377 -0.1028211
vt 0.07418377 -0.1028211
vt 0.07418377 -0.1028211
vt 0.07111672 -0.1053208
vt 0.07111672 -0.1053208
vt 0.1088969 -0.1201751
vt 0.1088969 -0.1201751
vt 0.1050209 -0.1269438
vt 0.1050209 -0.1269438
vt 0.1050209 -0.1269438
vt 0.1050209 -0.1269438
vt 0.0971872 -0.125821
vt 0.0971872 -0.125821
vt 0.0971872 -0.125821
vt 0.0971872 -0.125821
vt 0.09029993 -0.1268255
vt 0.09029993 -0.1268255
vt 0.09029993 -0.1268255
vt 0.09029993 -0.1268255
vt 0.08282772 -0.125875
vt 0.08282772 -0.125875
vt 0.08282772 -0.125875
vt 0.08282772 -0.125875
vt 0.07909206 -0.1253947
vt 0.07909206 -0.1253947
vt 0.07909206 -0.1253947
vt 0.07909206 -0.1253947
vt 0.07268139 -0.1200394
vt 0.07268139 -0.1200394
vt 0.07268139 -0.1200394
vt 0.07268139 -0.1200394
vt 0.07009362 -0.1170462
vt 0.07009362 -0.1170462
vn 0 1 0
vn 0 1 0
vn 0 1 0
vn 0 1 0
vn 0 1 0
vn 0 1 0
vn 0 1 0
vn 0 1 0
vn 0 1 0
vn 0 1 0
vn 0 1 0
vn 0 1 0
vn 0 1 0
vn 0 1 0
vn 0 1 0
vn 0 1 0
vn 0.2208557 0 0.9753066
vn 0.2208557 0 0.9753066
vn 0.6097281 0 0.7926106
vn 0.6097281 0 0.7926106
vn 0.961603 0 -0.2744443
vn 0.961603 0 -0.2744443
vn 0.961603 0 -0.2744443
vn 0.961603 0 -0.2744443
vn 0.999958 0 0.009161999
vn 0.999958 0 0.009161999
vn 0.999958 0 0.009161999
vn 0.999958 0 0.009161999
vn 0.9658287 0 -0.2591815
vn 0.9658287 0 -0.2591815
vn 0.9658287 0 -0.2591815
vn 0.9658287 0 -0.2591815
vn 0.9654757 0 -0.2604929
vn 0.9654757 0 -0.2604929
vn 0.9654757 0 -0.2604929
vn 0.9654757 0 -0.2604929
vn 0.6736946 0 -0.7390099
vn 0.6736946 0 -0.7390099
vn 0.6736946 0 -0.7390099
vn 0.6736946 0 -0.7390099
vn 0.5457029 0 -0.8379787
vn 0.5457029 0 -0.8379787
vn -0.2208559 0 -0.9753065
vn -0.2208559 0 -0.9753065
vn 0.2208557 0 0.9753066
vn 0.2208557 0 0.9753066
vn -0.2087861 0 0.9779613
vn -0.2087861 0 0.9779613
vn -0.9860259 0 0.1665917
vn -0.9860259 0 0.1665917
vn -0.9860259 0 0.1665917
vn -0.9860259 0 0.1665917
vn -0.8984604 0 0.4390545
vn -0.8984604 0 0.4390545
vn -0.8984604 0 0.4390545
vn -0.8984604 0 0.4390545
vn -0.983264 0 0.1821864
vn -0.983264 0 0.1821864
vn -0.983264 0 0.1821864
vn -0.983264 0 0.1821864
vn -0.9835107 0 0.1808501
vn -0.9835107 0 0.1808501
vn -0.9835107 0 0.1808501
vn -0.9835107 0 0.1808501
vn -0.9263411 0 -0.3766858
vn -0.9263411 0 -0.3766858
vn -0.9263411 0 -0.3766858
vn -0.9263411 0 -0.3766858
vn -0.8534718 0 -0.521139
vn -0.8534718 0 -0.521139
vn -0.2208559 0 -0.9753065
vn -0.2208559 0 -0.9753065
g _0
f 3/3/3 2/2/2 1/1/1
f 2/2/2 3/3/3 4/4/4
f 5/5/5 4/4/4 3/3/3
f 4/4/4 5/5/5 6/6/6
f 7/7/7 6/6/6 5/5/5
f 6/6/6 7/7/7 8/8/8
f 9/9/9 8/8/8 7/7/7
f 8/8/8 9/9/9 10/10/10
f 11/11/11 10/10/10 9/9/9
f 10/10/10 11/11/11 12/12/12
f 13/13/13 12/12/12 11/11/11
f 12/12/12 13/13/13 14/14/14
f 15/15/15 14/14/14 13/13/13
f 14/14/14 15/15/15 16/16/16
g _1
f 17/17/17 18/18/18 19/19/19
f 20/20/20 19/19/19 18/18/18
f 21/21/21 22/22/22 23/23/23
f 24/24/24 23/23/23 22/22/22
f 25/25/25 26/26/26 27/27/27
f 28/28/28 27/27/27 26/26/26
f 29/29/29 30/30/30 31/31/31
f 32/32/32 31/31/31 30/30/30
f 33/33/33 34/34/34 35/35/35
f 36/36/36 35/35/35 34/34/34
f 37/37/37 38/38/38 39/39/39
f 40/40/40 39/39/39 38/38/38
f 41/41/41 42/42/42 43/43/43
f 44/44/44 43/43/43 42/42/42
f 47/47/47 46/46/46 45/45/45
f 46/46/46 47/47/47 48/48/48
f 51/51/51 50/50/50 49/49/49
f 50/50/50 51/51/51 52/52/52
f 55/55/55 54/54/54 53/53/53
f 54/54/54 55/55/55 56/56/56
f 59/59/59 58/58/58 57/57/57
f 58/58/58 59/59/59 60/60/60
f 63/63/63 62/62/62 61/61/61
f 62/62/62 63/63/63 64/64/64
f 67/67/67 66/66/66 65/65/65
f 66/66/66 67/67/67 68/68/68
f 71/71/71 70/70/70 69/69/69
f 70/70/70 71/71/71 72/72/72
f 45/45/45 18/18/18 17/17/17
f 18/18/18 45/45/45 46/46/46
f 43/43/43 44/44/44 71/71/71
f 72/72/72 71/71/71 44/44/44
