g 
v 89.9062 17.7 19.03674
v 89.0799 17.7 13.63346
v 91.62851 17.7 20.8773
v 90.17343 17.7 11.36229
v 95.20862 17.7 21.5416
v 93.39139 17.7 9.658402
v 101.2742 18.83467 20.40336
v 103.1673 18.83467 8.374092
v 105.4674 19.15556 21.40224
v 114.8648 19.15556 14.79159
v 104.9911 16.77385 25.70443
v 115.6349 16.77385 26.07997
v 104.324 14.39311 32.61023
v 114.906 14.39311 34.82166
v 101.7908 13.17 40.50591
v 112.1967 13.17 43.0441
v 100.5744 12.95049 51.8443
v 110.6508 12.95049 48.40489
v 110.1472 11.9 59.81228
v 112.5779 11.9 49.33604
v 122.5464 11.725 56.47983
v 114.1951 11.725 49.68976
v 124.7408 10.69 45.10057
v 113.8833 10.69 44.49305
v 124.6938 10.55 36.33173
v 113.943 10.55 35.96415
v 125.107 10.55 28.55887
v 114.693 10.55 26.64113
v 125.2071 8.4 24.96395
v 119.1928 8.4 16.03605
v 125.6053 8.4 25.1222
v 133.0311 8.4 17.38858
v 125.8568 6.95 28.91584
v 136.5561 6.95 29.3801
v 123.1898 6.351852 36.16781
v 134.1188 6.351852 36.94391
v 125.2006 6.3 46.66355
v 135.0598 6.3 41.94257
v 130.0656 5.396297 55.13768
v 141.3255 5.396297 47.38398
v 132.3841 4.3 62.39155
v 147.9318 4.3 55.33913
v 133.6992 4.3 70.22032
v 152.4364 4.3 64.80673
v 134.2919 4.3 78.96198
v 156.1667 4.3 73.87411
v 135.2728 4.3 85.17155
v 157.9272 4.3 80.22845
v 138.6708 4.3 91.44564
v 157.4516 4.3 87.34773
v 143.2504 4.3 93.3523
v 154.0825 4.3 90.98878
v 89.9062 17.7 19.03674
v 89.9062 -12.3 19.03674
v 91.62851 17.7 20.8773
v 91.62851 -12.3 20.8773
v 91.62851 17.7 20.8773
v 91.62851 -12.3 20.8773
v 95.20862 17.7 21.5416
v 95.20862 -12.3 21.5416
v 95.20862 17.7 21.5416
v 95.20862 -12.3 21.5416
v 101.2742 18.83467 20.40336
v 101.2742 -11.16533 20.40336
v 101.2742 18.83467 20.40336
v 101.2742 -11.16533 20.40336
v 105.4674 19.15556 21.40224
v 105.4674 -10.84444 21.40224
v 105.4674 19.15556 21.40224
v 105.4674 -10.84444 21.40224
v 104.9911 16.77385 25.70443
v 104.9911 -13.22615 25.70443
v 104.9911 16.77385 25.70443
v 104.9911 -13.22615 25.70443
v 104.324 14.39311 32.61023
v 104.324 -15.60689 32.61023
v 104.324 14.39311 32.61023
v 104.324 -15.60689 32.61023
v 101.7908 13.17 40.50591
v 101.7908 -16.83 40.50591
v 101.7908 13.17 40.50591
v 101.7908 -16.83 40.50591
v 100.5744 12.95049 51.8443
v 100.5744 -17.04951 51.8443
v 100.5744 12.95049 51.8443
v 100.5744 -17.04951 51.8443
v 110.1472 11.9 59.81228
v 110.1472 -18.1 59.81228
v 110.1472 11.9 59.81228
v 110.1472 -18.1 59.81228
v 122.5464 11.725 56.47983
v 122.5464 -18.275 56.47983
v 122.5464 11.725 56.47983
v 122.5464 -18.275 56.47983
v 124.7408 10.69 45.10057
v 124.7408 -19.31 45.10057
v 124.7408 10.69 45.10057
v 124.7408 -19.31 45.10057
v 124.6938 10.55 36.33173
v 124.6938 -19.45 36.33173
v 124.6938 10.55 36.33173
v 124.6938 -19.45 36.33173
v 125.107 10.55 28.55887
v 125.107 -19.45 28.55887
v 125.107 10.55 28.55887
v 125.107 -19.45 28.55887
v 125.2071 8.4 24.96395
v 125.2071 -21.6 24.96395
v 125.2071 8.4 24.96395
v 125.2071 -21.6 24.96395
v 125.6053 8.4 25.1222
v 125.6053 -21.6 25.1222
v 125.6053 8.4 25.1222
v 125.6053 -21.6 25.1222
v 125.8568 6.95 28.91584
v 125.8568 -23.05 28.91584
v 125.8568 6.95 28.91584
v 125.8568 -23.05 28.91584
v 123.1898 6.351852 36.16781
v 123.1898 -23.64815 36.16781
v 123.1898 6.351852 36.16781
v 123.1898 -23.64815 36.16781
v 125.2006 6.3 46.66355
v 125.2006 -23.7 46.66355
v 125.2006 6.3 46.66355
v 125.2006 -23.7 46.66355
v 130.0656 5.396297 55.13768
v 130.0656 -24.6037 55.13768
v 130.0656 5.396297 55.13768
v 130.0656 -24.6037 55.13768
v 132.3841 4.3 62.39155
v 132.3841 -25.7 62.39155
v 132.3841 4.3 62.39155
v 132.3841 -25.7 62.39155
v 133.6992 4.3 70.22032
v 133.6992 -25.7 70.22032
v 133.6992 4.3 70.22032
v 133.6992 -25.7 70.22032
v 134.2919 4.3 78.96198
v 134.2919 -25.7 78.96198
v 134.2919 4.3 78.96198
v 134.2919 -25.7 78.96198
v 135.2728 4.3 85.17155
v 135.2728 -25.7 85.17155
v 135.2728 4.3 85.17155
v 135.2728 -25.7 85.17155
v 138.6708 4.3 91.44564
v 138.6708 -25.7 91.44564
v 138.6708 4.3 91.44564
v 138.6708 -25.7 91.44564
v 143.2504 4.3 93.3523
v 143.2504 -25.7 93.3523
v 89.0799 17.7 13.63346
v 89.0799 -12.3 13.63346
v 90.17343 17.7 11.36229
v 90.17343 -12.3 11.36229
v 90.17343 17.7 11.36229
v 90.17343 -12.3 11.36229
v 93.39139 17.7 9.658402
v 93.39139 -12.3 9.658402
v 93.39139 17.7 9.658402
v 93.39139 -12.3 9.658402
v 103.1673 18.83467 8.374092
v 103.1673 -11.16533 8.374092
v 103.1673 18.83467 8.374092
v 103.1673 -11.16533 8.374092
v 114.8648 19.15556 14.79159
v 114.8648 -10.84444 14.79159
v 114.8648 19.15556 14.79159
v 114.8648 -10.84444 14.79159
v 115.6349 16.77385 26.07997
v 115.6349 -13.22615 26.07997
v 115.6349 16.77385 26.07997
v 115.6349 -13.22615 26.07997
v 114.906 14.39311 34.82166
v 114.906 -15.60689 34.82166
v 114.906 14.39311 34.82166
v 114.906 -15.60689 34.82166
v 112.1967 13.17 43.0441
v 112.1967 -16.83 43.0441
v 112.1967 13.17 43.0441
v 112.1967 -16.83 43.0441
v 110.6508 12.95049 48.40489
v 110.6508 -17.04951 48.40489
v 110.6508 12.95049 48.40489
v 110.6508 -17.04951 48.40489
v 112.5779 11.9 49.33604
v 112.5779 -18.1 49.33604
v 112.5779 11.9 49.33604
v 112.5779 -18.1 49.33604
v 114.1951 11.725 49.68976
v 114.1951 -18.275 49.68976
v 114.1951 11.725 49.68976
v 114.1951 -18.275 49.68976
v 113.8833 10.69 44.49305
v 113.8833 -19.31 44.49305
v 113.8833 10.69 44.49305
v 113.8833 -19.31 44.49305
v 113.943 10.55 35.96415
v 113.943 -19.45 35.96415
v 113.943 10.55 35.96415
v 113.943 -19.45 35.96415
v 114.693 10.55 26.64113
v 114.693 -19.45 26.64113
v 114.693 10.55 26.64113
v 114.693 -19.45 26.64113
v 119.1928 8.4 16.03605
v 119.1928 -21.6 16.03605
v 119.1928 8.4 16.03605
v 119.1928 -21.6 16.03605
v 133.0311 8.4 17.38858
v 133.0311 -21.6 17.38858
v 133.0311 8.4 17.38858
v 133.0311 -21.6 17.38858
v 136.5561 6.95 29.3801
v 136.5561 -23.05 29.3801
v 136.5561 6.95 29.3801
v 136.5561 -23.05 29.3801
v 134.1188 6.351852 36.94391
v 134.1188 -23.64815 36.94391
v 134.1188 6.351852 36.94391
v 134.1188 -23.64815 36.94391
v 135.0598 6.3 41.94257
v 135.0598 -23.7 41.94257
v 135.0598 6.3 41.94257
v 135.0598 -23.7 41.94257
v 141.3255 5.396297 47.38398
v 141.3255 -24.6037 47.38398
v 141.3255 5.396297 47.38398
v 141.3255 -24.6037 47.38398
v 147.9318 4.3 55.33913
v 147.9318 -25.7 55.33913
v 147.9318 4.3 55.33913
v 147.9318 -25.7 55.33913
v 152.4364 4.3 64.80673
v 152.4364 -25.7 64.80673
v 152.4364 4.3 64.80673
v 152.4364 -25.7 64.80673
v 156.1667 4.3 73.87411
v 156.1667 -25.7 73.87411
v 156.1667 4.3 73.87411
v 156.1667 -25.7 73.87411
v 157.9272 4.3 80.22845
v 157.9272 -25.7 80.22845
v 157.9272 4.3 80.22845
v 157.9272 -25.7 80.22845
v 157.4516 4.3 87.34773
v 157.4516 -25.7 87.34773
v 157.4516 4.3 87.34773
v 157.4516 -25.7 87.34773
v 154.0825 4.3 90.98878
v 154.0825 -25.7 90.98878
vt -0.08395373 0.002552536
vt -0.08144517 -0.00230394
vt -0.08617364 0.003746698
vt -0.08175614 -0.004805403
vt -0.08977843 0.003232903
vt -0.08426145 -0.007447721
vt -0.09516291 0.0002172145
vt -0.09311534 -0.01178672
vt -0.09945556 -0.0001753137
vt -0.1062497 -0.009440856
vt -0.100378 0.004053725
vt -0.1105844 0.001010511
vt -0.1019513 0.01081094
vt -0.1126854 0.009527219
vt -0.1020722 0.01910215
vt -0.1127438 0.01818433
vt -0.1045404 0.03023529
vt -0.1129908 0.02375808
vt -0.1161565 0.03472899
vt -0.1151144 0.02402506
vt -0.1268423 0.02761134
vt -0.1167598 0.02384381
vt -0.1252878 0.01612715
vt -0.1148048 0.0190188
vt -0.1224429 0.00783247
vt -0.1121377 0.01091741
vt -0.1203522 0.0003346737
vt -0.109871 0.001843083
vt -0.1192991 -0.003103977
vt -0.1107486 -0.00964372
vt -0.1197269 -0.00308117
vt -0.1242942 -0.01278127
vt -0.1211767 0.0004335165
vt -0.131464 -0.00254334
vt -0.1209653 0.00815744
vt -0.1315699 0.005402748
vt -0.1262226 0.01746147
vt -0.134058 0.009839136
vt -0.1335391 0.02393821
vt -0.1417333 0.01299466
vt -0.1380527 0.03007184
vt -0.1505341 0.01842355
vt -0.141799 0.03707071
vt -0.1578263 0.02595686
vt -0.1451524 0.04516534
vt -0.1642569 0.03335816
vt -0.148065 0.05073649
vt -0.1679545 0.03881757
vt -0.1532886 0.05559692
vt -0.1697774 0.04571594
vt -0.1582373 0.05594126
vt -0.1677475 0.05024224
vt -0.08395373 0.002552536
vt -0.08395373 0.002552536
vt -0.08617364 0.003746698
vt -0.08617364 0.003746698
vt -0.08617364 0.003746698
vt -0.08617364 0.003746698
vt -0.08977843 0.003232903
vt -0.08977843 0.003232903
vt -0.08977843 0.003232903
vt -0.08977843 0.003232903
vt -0.09516291 0.0002172145
vt -0.09516291 0.0002172145
vt -0.09516291 0.0002172145
vt -0.09516291 0.0002172145
vt -0.09945556 -0.0001753137
vt -0.09945556 -0.0001753137
vt -0.09945556 -0.0001753137
vt -0.09945556 -0.0001753137
vt -0.100378 0.004053725
vt -0.100378 0.004053725
vt -0.100378 0.004053725
vt -0.100378 0.004053725
vt -0.1019513 0.01081094
vt -0.1019513 0.01081094
vt -0.1019513 0.01081094
vt -0.1019513 0.01081094
vt -0.1020722 0.01910215
vt -0.1020722 0.01910215
vt -0.1020722 0.01910215
vt -0.1020722 0.01910215
vt -0.1045404 0.03023529
vt -0.1045404 0.03023529
vt -0.1045404 0.03023529
vt -0.1045404 0.03023529
vt -0.1161565 0.03472899
vt -0.1161565 0.03472899
vt -0.1161565 0.03472899
vt -0.1161565 0.03472899
vt -0.1268423 0.02761134
vt -0.1268423 0.02761134
vt -0.1268423 0.02761134
vt -0.1268423 0.02761134
vt -0.1252878 0.01612715
vt -0.1252878 0.01612715
vt -0.1252878 0.01612715
vt -0.1252878 0.01612715
vt -0.1224429 0.00783247
vt -0.1224429 0.00783247
vt -0.1224429 0.00783247
vt -0.1224429 0.00783247
vt -0.1203522 0.0003346737
vt -0.1203522 0.0003346737
vt -0.1203522 0.0003346737
vt -0.1203522 0.0003346737
vt -0.1192991 -0.003103977
vt -0.1192991 -0.003103977
vt -0.1192991 -0.003103977
vt -0.1192991 -0.003103977
vt -0.1197269 -0.00308117
vt -0.1197269 -0.00308117
vt -0.1197269 -0.00308117
vt -0.1197269 -0.00308117
vt -0.1211767 0.0004335165
vt -0.1211767 0.0004335165
vt -0.1211767 0.0004335165
vt -0.1211767 0.0004335165
vt -0.1209653 0.00815744
vt -0.1209653 0.00815744
vt -0.1209653 0.00815744
vt -0.1209653 0.00815744
vt -0.1262226 0.01746147
vt -0.1262226 0.01746147
vt -0.1262226 0.01746147
vt -0.1262226 0.01746147
vt -0.1335391 0.02393821
vt -0.1335391 0.02393821
vt -0.1335391 0.02393821
vt -0.1335391 0.02393821
vt -0.1380527 0.03007184
vt -0.1380527 0.03007184
vt -0.1380527 0.03007184
vt -0.1380527 0.03007184
vt -0.141799 0.03707071
vt -0.141799 0.03707071
vt -0.141799 0.03707071
vt -0.141799 0.03707071
vt -0.1451524 0.04516534
vt -0.1451524 0.04516534
vt -0.1451524 0.04516534
vt -0.1451524 0.04516534
vt -0.148065 0.05073649
vt -0.148065 0.05073649
vt -0.148065 0.05073649
vt -0.148065 0.05073649
vt -0.1532886 0.05559692
vt -0.1532886 0.05559692
vt -0.1532886 0.05559692
vt -0.1532886 0.05559692
vt -0.1582373 0.05594126
vt -0.1582373 0.05594126
vt -0.08144517 -0.00230394
vt -0.08144517 -0.00230394
vt -0.08175614 -0.004805403
vt -0.08175614 -0.004805403
vt -0.08175614 -0.004805403
vt -0.08175614 -0.004805403
vt -0.08426145 -0.007447721
vt -0.08426145 -0.007447721
vt -0.08426145 -0.007447721
vt -0.08426145 -0.007447721
vt -0.09311534 -0.01178672
vt -0.09311534 -0.01178672
vt -0.09311534 -0.01178672
vt -0.09311534 -0.01178672
vt -0.1062497 -0.009440856
vt -0.1062497 -0.009440856
vt -0.1062497 -0.009440856
vt -0.1062497 -0.009440856
vt -0.1105844 0.001010511
vt -0.1105844 0.001010511
vt -0.1105844 0.001010511
vt -0.1105844 0.001010511
vt -0.1126854 0.009527219
vt -0.1126854 0.009527219
vt -0.1126854 0.009527219
vt -0.1126854 0.009527219
vt -0.1127438 0.01818433
vt -0.1127438 0.01818433
vt -0.1127438 0.01818433
vt -0.1127438 0.01818433
vt -0.1129908 0.02375808
vt -0.1129908 0.02375808
vt -0.1129908 0.02375808
vt -0.1129908 0.02375808
vt -0.1151144 0.02402506
vt -0.1151144 0.02402506
vt -0.1151144 0.02402506
vt -0.1151144 0.02402506
vt -0.1167598 0.02384381
vt -0.1167598 0.02384381
vt -0.1167598 0.02384381
vt -0.1167598 0.02384381
vt -0.1148048 0.0190188
vt -0.1148048 0.0190188
vt -0.1148048 0.0190188
vt -0.1148048 0.0190188
vt -0.1121377 0.01091741
vt -0.1121377 0.01091741
vt -0.1121377 0.01091741
vt -0.1121377 0.01091741
vt -0.109871 0.001843083
vt -0.109871 0.001843083
vt -0.109871 0.001843083
vt -0.109871 0.001843083
vt -0.1107486 -0.00964372
vt -0.1107486 -0.00964372
vt -0.1107486 -0.00964372
vt -0.1107486 -0.00964372
vt -0.1242942 -0.01278127
vt -0.1242942 -0.01278127
vt -0.1242942 -0.01278127
vt -0.1242942 -0.01278127
vt -0.131464 -0.00254334
vt -0.131464 -0.00254334
vt -0.131464 -0.00254334
vt -0.131464 -0.00254334
vt -0.1315699 0.005402748
vt -0.1315699 0.005402748
vt -0.1315699 0.005402748
vt -0.1315699 0.005402748
vt -0.134058 0.009839136
vt -0.134058 0.009839136
vt -0.134058 0.009839136
vt -0.134058 0.009839136
vt -0.1417333 0.01299466
vt -0.1417333 0.01299466
vt -0.1417333 0.01299466
vt -0.1417333 0.01299466
vt -0.1505341 0.01842355
vt -0.1505341 0.01842355
vt -0.1505341 0.01842355
vt -0.1505341 0.01842355
vt -0.1578263 0.02595686
vt -0.1578263 0.02595686
vt -0.1578263 0.02595686
vt -0.1578263 0.02595686
vt -0.1642569 0.03335816
vt -0.1642569 0.03335816
vt -0.1642569 0.03335816
vt -0.1642569 0.03335816
vt -0.1679545 0.03881757
vt -0.1679545 0.03881757
vt -0.1679545 0.03881757
vt -0.1679545 0.03881757
vt -0.1697774 0.04571594
vt -0.1697774 0.04571594
vt -0.1697774 0.04571594
vt -0.1697774 0.04571594
vt -0.1677475 0.05024224
vt -0.1677475 0.05024224
vn 0 1 0
vn 0 1 0
vn 0 1 0
vn 0 1 0
vn 0 1 0
vn 0 1 0
vn 0 1 0
vn 0 1 0
vn 0 1 0
vn 0 1 0
vn 0 1 0
vn 0 1 0
vn 0 1 0
vn 0 1 0
vn 0 1 0
vn 0 1 0
vn 0 1 0
vn 0 1 0
vn 0 1 0
vn 0 1 0
vn 0 1 0
vn 0 1 0
vn 0 1 0
vn 0 1 0
vn 0 1 0
vn 0 1 0
vn 0 1 0
vn 0 1 0
vn 0 1 0
vn 0 1 0
vn 0 1 0
vn 0 1 0
vn 0 1 0
vn 0 1 0
vn 0 1 0
vn 0 1 0
vn 0 1 0
vn 0 1 0
vn 0 1 0
vn 0 1 0
vn 0 1 0
vn 0 1 0
vn 0 1 0
vn 0 1 0
vn 0 1 0
vn 0 1 0
vn 0 1 0
vn 0 1 0
vn 0 1 0
vn 0 1 0
vn 0 1 0
vn 0 1 0
vn -0.9885082 0 0.151167
vn -0.9885082 0 0.151167
vn -0.7301725 0 0.6832628
vn -0.7301725 0 0.6832628
vn -0.1824382 0 0.9832173
vn -0.1824382 0 0.9832173
vn -0.1824382 0 0.9832173
vn -0.1824382 0 0.9832173
vn 0.1844362 0 0.9828445
vn 0.1844362 0 0.9828445
vn 0.1844362 0 0.9828445
vn 0.1844362 0 0.9828445
vn -0.231729 0 0.9727803
vn -0.231729 0 0.9727803
vn -0.231729 0 0.9727803
vn -0.231729 0 0.9727803
vn -0.9939258 0 -0.1100516
vn -0.9939258 0 -0.1100516
vn -0.9939258 0 -0.1100516
vn -0.9939258 0 -0.1100516
vn -0.9953676 0 -0.09614237
vn -0.9953676 0 -0.09614237
vn -0.9953676 0 -0.09614237
vn -0.9953676 0 -0.09614237
vn -0.9521933 0 -0.3054961
vn -0.9521933 0 -0.3054961
vn -0.9521933 0 -0.3054961
vn -0.9521933 0 -0.3054961
vn -0.9942944 0 -0.1066708
vn -0.9942944 0 -0.1066708
vn -0.9942944 0 -0.1066708
vn -0.9942944 0 -0.1066708
vn -0.6397434 0 0.7685885
vn -0.6397434 0 0.7685885
vn -0.6397434 0 0.7685885
vn -0.6397434 0 0.7685885
vn 0.2595514 0 0.9657293
vn 0.2595514 0 0.9657293
vn 0.2595514 0 0.9657293
vn 0.2595514 0 0.9657293
vn 0.9819093 0 0.1893518
vn 0.9819093 0 0.1893518
vn 0.9819093 0 0.1893518
vn 0.9819093 0 0.1893518
vn 0.9999856 0 -0.005355126
vn 0.9999856 0 -0.005355126
vn 0.9999856 0 -0.005355126
vn 0.9999856 0 -0.005355126
vn 0.9985901 0 0.05308349
vn 0.9985901 0 0.05308349
vn 0.9985901 0 0.05308349
vn 0.9985901 0 0.05308349
vn 0.9996125 0 0.02783551
vn 0.9996125 0 0.02783551
vn 0.9996125 0 0.02783551
vn 0.9996125 0 0.02783551
vn -0.3693367 0 0.9292957
vn -0.3693367 0 0.9292957
vn -0.3693367 0 0.9292957
vn -0.3693367 0 0.9292957
vn -0.9978104 0 0.06613882
vn -0.9978104 0 0.06613882
vn -0.9978104 0 0.06613882
vn -0.9978104 0 0.06613882
vn -0.9385462 0 -0.3451537
vn -0.9385462 0 -0.3451537
vn -0.9385462 0 -0.3451537
vn -0.9385462 0 -0.3451537
vn -0.9821397 0 0.1881532
vn -0.9821397 0 0.1881532
vn -0.9821397 0 0.1881532
vn -0.9821397 0 0.1881532
vn -0.8672409 0 0.4978887
vn -0.8672409 0 0.4978887
vn -0.8672409 0 0.4978887
vn -0.8672409 0 0.4978887
vn -0.9525292 0 0.3044473
vn -0.9525292 0 0.3044473
vn -0.9525292 0 0.3044473
vn -0.9525292 0 0.3044473
vn -0.986183 0 0.1656592
vn -0.986183 0 0.1656592
vn -0.986183 0 0.1656592
vn -0.986183 0 0.1656592
vn -0.9977092 0 0.0676496
vn -0.9977092 0 0.0676496
vn -0.9977092 0 0.0676496
vn -0.9977092 0 0.0676496
vn -0.9877511 0 0.1560377
vn -0.9877511 0 0.1560377
vn -0.9877511 0 0.1560377
vn -0.9877511 0 0.1560377
vn -0.8793224 0 0.476227
vn -0.8793224 0 0.476227
vn -0.8793224 0 0.476227
vn -0.8793224 0 0.476227
vn -0.3843598 0 0.9231834
vn -0.3843598 0 0.9231834
vn 0.2131791 0 0.9770131
vn 0.2131791 0 0.9770131
vn -0.9885082 0 0.151167
vn -0.9885082 0 0.151167
vn -0.9010013 0 -0.4338165
vn -0.9010013 0 -0.4338165
vn -0.4679437 0 -0.8837582
vn -0.4679437 0 -0.8837582
vn -0.4679437 0 -0.8837582
vn -0.4679437 0 -0.8837582
vn -0.1302556 0 -0.9914805
vn -0.1302556 0 -0.9914805
vn -0.1302556 0 -0.9914805
vn -0.1302556 0 -0.9914805
vn 0.4809907 0 -0.8767257
vn 0.4809907 0 -0.8767257
vn 0.4809907 0 -0.8767257
vn 0.4809907 0 -0.8767257
vn 0.9976813 0 -0.06805999
vn 0.9976813 0 -0.06805999
vn 0.9976813 0 -0.06805999
vn 0.9976813 0 -0.06805999
vn 0.9965422 0 0.08308906
vn 0.9965422 0 0.08308906
vn 0.9965422 0 0.08308906
vn 0.9965422 0 0.08308906
vn 0.949769 0 0.3129518
vn 0.949769 0 0.3129518
vn 0.949769 0 0.3129518
vn 0.949769 0 0.3129518
vn 0.9608488 0 0.2770731
vn 0.9608488 0 0.2770731
vn 0.9608488 0 0.2770731
vn 0.9608488 0 0.2770731
vn 0.4350668 0 -0.9003982
vn 0.4350668 0 -0.9003982
vn 0.4350668 0 -0.9003982
vn 0.4350668 0 -0.9003982
vn 0.2136749 0 -0.9769049
vn 0.2136749 0 -0.9769049
vn 0.2136749 0 -0.9769049
vn 0.2136749 0 -0.9769049
vn -0.9982046 0 0.05989725
vn -0.9982046 0 0.05989725
vn -0.9982046 0 0.05989725
vn -0.9982046 0 0.05989725
vn -0.9999754 0 -0.007008508
vn -0.9999754 0 -0.007008508
vn -0.9999754 0 -0.007008508
vn -0.9999754 0 -0.007008508
vn -0.9967805 0 -0.08017888
vn -0.9967805 0 -0.08017888
vn -0.9967805 0 -0.08017888
vn -0.9967805 0 -0.08017888
vn -0.9205581 0 -0.3906058
vn -0.9205581 0 -0.3906058
vn -0.9205581 0 -0.3906058
vn -0.9205581 0 -0.3906058
vn 0.09727477 0 -0.9952576
vn 0.09727477 0 -0.9952576
vn 0.09727477 0 -0.9952576
vn 0.09727477 0 -0.9952576
vn 0.9594088 0 -0.282019
vn 0.9594088 0 -0.282019
vn 0.9594088 0 -0.282019
vn 0.9594088 0 -0.282019
vn 0.951806 0 0.3067006
vn 0.951806 0 0.3067006
vn 0.951806 0 0.3067006
vn 0.951806 0 0.3067006
vn 0.9827358 0 -0.1850142
vn 0.9827358 0 -0.1850142
vn 0.9827358 0 -0.1850142
vn 0.9827358 0 -0.1850142
vn 0.6556969 0 -0.7550243
vn 0.6556969 0 -0.7550243
vn 0.6556969 0 -0.7550243
vn 0.6556969 0 -0.7550243
vn 0.7693155 0 -0.6388691
vn 0.7693155 0 -0.6388691
vn 0.7693155 0 -0.6388691
vn 0.7693155 0 -0.6388691
vn 0.9030008 0 -0.4296388
vn 0.9030008 0 -0.4296388
vn 0.9030008 0 -0.4296388
vn 0.9030008 0 -0.4296388
vn 0.9247963 0 -0.3804626
vn 0.9247963 0 -0.3804626
vn 0.9247963 0 -0.3804626
vn 0.9247963 0 -0.3804626
vn 0.9636993 0 -0.2669902
vn 0.9636993 0 -0.2669902
vn 0.9636993 0 -0.2669902
vn 0.9636993 0 -0.2669902
vn 0.9977764 0 0.06664966
vn 0.9977764 0 0.06664966
vn 0.9977764 0 0.06664966
vn 0.9977764 0 0.06664966
vn 0.7339876 0 0.6791629
vn 0.7339876 0 0.6791629
vn 0.2131791 0 0.9770131
vn 0.2131791 0 0.9770131
g _0
f 3/3/3 2/2/2 1/1/1
f 2/2/2 3/3/3 4/4/4
f 5/5/5 4/4/4 3/3/3
f 4/4/4 5/5/5 6/6/6
f 7/7/7 6/6/6 5/5/5
f 6/6/6 7/7/7 8/8/8
f 9/9/9 8/8/8 7/7/7
f 8/8/8 9/9/9 10/10/10
f 11/11/11 10/10/10 9/9/9
f 10/10/10 11/11/11 12/12/12
f 13/13/13 12/12/12 11/11/11
f 12/12/12 13/13/13 14/14/14
f 15/15/15 14/14/14 13/13/13
f 14/14/14 15/15/15 16/16/16
f 17/17/17 16/16/16 15/15/15
f 16/16/16 17/17/17 18/18/18
f 19/19/19 18/18/18 17/17/17
f 18/18/18 19/19/19 20/20/20
f 21/21/21 20/20/20 19/19/19
f 20/20/20 21/21/21 22/22/22
f 23/23/23 22/22/22 21/21/21
f 22/22/22 23/23/23 24/24/24
f 25/25/25 24/24/24 23/23/23
f 24/24/24 25/25/25 26/26/26
f 27/27/27 26/26/26 25/25/25
f 26/26/26 27/27/27 28/28/28
f 29/29/29 28/28/28 27/27/27
f 28/28/28 29/29/29 30/30/30
f 31/31/31 30/30/30 29/29/29
f 30/30/30 31/31/31 32/32/32
f 33/33/33 32/32/32 31/31/31
f 32/32/32 33/33/33 34/34/34
f 35/35/35 34/34/34 33/33/33
f 34/34/34 35/35/35 36/36/36
f 37/37/37 36/36/36 35/35/35
f 36/36/36 37/37/37 38/38/38
f 39/39/39 38/38/38 37/37/37
f 38/38/38 39/39/39 40/40/40
f 41/41/41 40/40/40 39/39/39
f 40/40/40 41/41/41 42/42/42
f 43/43/43 42/42/42 41/41/41
f 42/42/42 43/43/43 44/44/44
f 45/45/45 44/44/44 43/43/43
f 44/44/44 45/45/45 46/46/46
f 47/47/47 46/46/46 45/45/45
f 46/46/46 47/47/47 48/48/48
f 49/49/49 48/48/48 47/47/47
f 48/48/48 49/49/49 50/50/50
f 51/51/51 50/50/50 49/49/49
f 50/50/50 51/51/51 52/52/52
g _1
f 53/53/53 54/54/54 55/55/55
f 56/56/56 55/55/55 54/54/54
f 57/57/57 58/58/58 59/59/59
f 60/60/60 59/59/59 58/58/58
f 61/61/61 62/62/62 63/63/63
f 64/64/64 63/63/63 62/62/62
f 65/65/65 66/66/66 67/67/67
f 68/68/68 67/67/67 66/66/66
f 69/69/69 70/70/70 71/71/71
f 72/72/72 71/71/71 70/70/70
f 73/73/73 74/74/74 75/75/75
f 76/76/76 75/75/75 74/74/74
f 77/77/77 78/78/78 79/79/79
f 80/80/80 79/79/79 78/78/78
f 81/81/81 82/82/82 83/83/83
f 84/84/84 83/83/83 82/82/82
f 85/85/85 86/86/86 87/87/87
f 88/88/88 87/87/87 86/86/86
f 89/89/89 90/90/90 91/91/91
f 92/92/92 91/91/91 90/90/90
f 93/93/93 94/94/94 95/95/95
f 96/96/96 95/95/95 94/94/94
f 97/97/97 98/98/98 99/99/99
f 100/100/100 99/99/99 98/98/98
f 101/101/101 102/102/102 103/103/103
f 104/104/104 103/103/103 102/102/102
f 105/105/105 106/106/106 107/107/107
f 108/108/108 107/107/107 106/106/106
f 109/109/109 110/110/110 111/111/111
f 112/112/112 111/111/111 110/110/110
f 113/113/113 114/114/114 115/115/115
f 116/116/116 115/115/115 114/114/114
f 117/117/117 118/118/118 119/119/119
f 120/120/120 119/119/119 118/118/118
f 121/121/121 122/122/122 123/123/123
f 124/124/124 123/123/123 122/122/122
f 125/125/125 126/126/126 127/127/127
f 128/128/128 127/127/127 126/126/126
f 129/129/129 130/130/130 131/131/131
f 132/132/132 131/131/131 130/130/130
f 133/133/133 134/134/134 135/135/135
f 136/136/136 135/135/135 134/134/134
f 137/137/137 138/138/138 139/139/139
f 140/140/140 139/139/139 138/138/138
f 141/141/141 142/142/142 143/143/143
f 144/144/144 143/143/143 142/142/142
f 145/145/145 146/146/146 147/147/147
f 148/148/148 147/147/147 146/146/146
f 149/149/149 150/150/150 151/151/151
f 152/152/152 151/151/151 150/150/150
f 155/155/155 154/154/154 153/153/153
f 154/154/154 155/155/155 156/156/156
f 159/159/159 158/158/158 157/157/157
f 158/158/158 159/159/159 160/160/160
f 163/163/163 162/162/162 161/161/161
f 162/162/162 163/163/163 164/164/164
f 167/167/167 166/166/166 165/165/165
f 166/166/166 167/167/167 168/168/168
f 171/171/171 170/170/170 169/169/169
f 170/170/170 171/171/171 172/172/172
f 175/175/175 174/174/174 173/173/173
f 174/174/174 175/175/175 176/176/176
f 179/179/179 178/178/178 177/177/177
f 178/178/178 179/179/179 180/180/180
f 183/183/183 182/182/182 181/181/181
f 182/182/182 183/183/183 184/184/184
f 187/187/187 186/186/186 185/185/185
f 186/186/186 187/187/187 188/188/188
f 191/191/191 190/190/190 189/189/189
f 190/190/190 191/191/191 192/192/192
f 195/195/195 194/194/194 193/193/193
f 194/194/194 195/195/195 196/196/196
f 199/199/199 198/198/198 197/197/197
f 198/198/198 199/199/199 200/200/200
f 203/203/203 202/202/202 201/201/201
f 202/202/202 203/203/203 204/204/204
f 207/207/207 206/206/206 205/205/205
f 206/206/206 207/207/207 208/208/208
f 211/211/211 210/210/210 209/209/209
f 210/210/210 211/211/211 212/212/212
f 215/215/215 214/214/214 213/213/213
f 214/214/214 215/215/215 216/216/216
f 219/219/219 218/218/218 217/217/217
f 218/218/218 219/219/219 220/220/220
f 223/223/223 222/222/222 221/221/221
f 222/222/222 223/223/223 224/224/224
f 227/227/227 226/226/226 225/225/225
f 226/226/226 227/227/227 228/228/228
f 231/231/231 230/230/230 229/229/229
f 230/230/230 231/231/231 232/232/232
f 235/235/235 234/234/234 233/233/233
f 234/234/234 235/235/235 236/236/236
f 239/239/239 238/238/238 237/237/237
f 238/238/238 239/239/239 240/240/240
f 243/243/243 242/242/242 241/241/241
f 242/242/242 243/243/243 244/244/244
f 247/247/247 246/246/246 245/245/245
f 246/246/246 247/247/247 248/248/248
f 251/251/251 250/250/250 249/249/249
f 250/250/250 251/251/251 252/252/252
f 153/153/153 54/54/54 53/53/53
f 54/54/54 153/153/153 154/154/154
f 151/151/151 152/152/152 251/251/251
f 252/252/252 251/251/251 152/152/152
