g 
v 25.24733 18.9 -7.82791
v 15.06312 18.9 -3.285406
v 28.14517 18.9 -12.15567
v 9.906946 18.9 -4.020799
v 27.92651 18.9 -19.38582
v 4.673488 18.9 -9.014177
v 23.98473 18.9 -27.67558
v 1.78756 18.9 -16.03201
v 14.50566 18.9 -36.97421
v 1.34432 18.9 -23.35784
v 2.175573 18.9 -42.39662
v -2.518853 18.9 -26.55381
v -11.02251 18.9 -47.1222
v -8.019767 18.9 -23.54887
v -22.60283 18.9 -42.66499
v -14.48293 18.9 -21.60523
v -27.26655 18.9 -39.42995
v -18.93345 18.9 -20.77004
v -33.13815 18.9 -36.1661
v -25.28291 18.9 -18.57625
v -33.9917 18.9 -31.27941
v -29.49149 18.9 -21.2023
v 25.24733 18.9 -7.82791
v 25.24733 -1.1 -7.82791
v 28.14517 18.9 -12.15567
v 28.14517 -1.1 -12.15567
v 28.14517 18.9 -12.15567
v 28.14517 -1.1 -12.15567
v 27.92651 18.9 -19.38582
v 27.92651 -1.1 -19.38582
v 27.92651 18.9 -19.38582
v 27.92651 -1.1 -19.38582
v 23.98473 18.9 -27.67558
v 23.98473 -1.1 -27.67558
v 23.98473 18.9 -27.67558
v 23.98473 -1.1 -27.67558
v 14.50566 18.9 -36.97421
v 14.50566 -1.1 -36.97421
v 14.50566 18.9 -36.97421
v 14.50566 -1.1 -36.97421
v 2.175573 18.9 -42.39662
v 2.175573 -1.1 -42.39662
v 2.175573 18.9 -42.39662
v 2.175573 -1.1 -42.39662
v -11.02251 18.9 -47.1222
v -11.02251 -1.1 -47.1222
v -11.02251 18.9 -47.1222
v -11.02251 -1.1 -47.1222
v -22.60283 18.9 -42.66499
v -22.60283 -1.1 -42.66499
v -22.60283 18.9 -42.66499
v -22.60283 -1.1 -42.66499
v -27.26655 18.9 -39.42995
v -27.26655 -1.1 -39.42995
v -27.26655 18.9 -39.42995
v -27.26655 -1.1 -39.42995
v -33.13815 18.9 -36.1661
v -33.13815 -1.1 -36.1661
v -33.13815 18.9 -36.1661
v -33.13815 -1.1 -36.1661
v -33.9917 18.9 -31.27941
v -33.9917 -1.1 -31.27941
v 15.06312 18.9 -3.285406
v 15.06312 -1.1 -3.285406
v 9.906946 18.9 -4.020799
v 9.906946 -1.1 -4.020799
v 9.906946 18.9 -4.020799
v 9.906946 -1.1 -4.020799
v 4.673488 18.9 -9.014177
v 4.673488 -1.1 -9.014177
v 4.673488 18.9 -9.014177
v 4.673488 -1.1 -9.014177
v 1.78756 18.9 -16.03201
v 1.78756 -1.1 -16.03201
v 1.78756 18.9 -16.03201
v 1.78756 -1.1 -16.03201
v 1.34432 18.9 -23.35784
v 1.34432 -1.1 -23.35784
v 1.34432 18.9 -23.35784
v 1.34432 -1.1 -23.35784
v -2.518853 18.9 -26.55381
v -2.518853 -1.1 -26.55381
v -2.518853 18.9 -26.55381
v -2.518853 -1.1 -26.55381
v -8.019767 18.9 -23.54887
v -8.019767 -1.1 -23.54887
v -8.019767 18.9 -23.54887
v -8.019767 -1.1 -23.54887
v -14.48293 18.9 -21.60523
v -14.48293 -1.1 -21.60523
v -14.48293 18.9 -21.60523
v -14.48293 -1.1 -21.60523
v -18.93345 18.9 -20.77004
v -18.93345 -1.1 -20.77004
v -18.93345 18.9 -20.77004
v -18.93345 -1.1 -20.77004
v -25.28291 18.9 -18.57625
v -25.28291 -1.1 -18.57625
v -25.28291 18.9 -18.57625
v -25.28291 -1.1 -18.57625
v -29.49149 18.9 -21.2023
v -29.49149 -1.1 -21.2023
vt -0.0635476 -0.08842123
vt -0.07332009 -0.08304991
vt -0.0583482 -0.0881159
vt -0.07584909 -0.07849677
vt -0.05271873 -0.08357367
vt -0.07503168 -0.07130964
vt -0.04849415 -0.07542439
vt -0.07118279 -0.06477018
vt -0.04681088 -0.06225306
vt -0.06561275 -0.05999117
vt -0.04993891 -0.04915158
vt -0.06539982 -0.05498188
vt -0.05414662 -0.03577938
vt -0.0711177 -0.05241369
vt -0.06469458 -0.02924399
vt -0.07657118 -0.04843754
vt -0.07009004 -0.02748196
vt -0.07992545 -0.04539558
vt -0.07623818 -0.02477481
vt -0.08550958 -0.04166115
vt -0.08064795 -0.02704685
vt -0.08595948 -0.03672092
vt -0.0635476 -0.08842123
vt -0.0635476 -0.08842123
vt -0.0583482 -0.0881159
vt -0.0583482 -0.0881159
vt -0.0583482 -0.0881159
vt -0.0583482 -0.0881159
vt -0.05271873 -0.08357367
vt -0.05271873 -0.08357367
vt -0.05271873 -0.08357367
vt -0.05271873 -0.08357367
vt -0.04849415 -0.07542439
vt -0.04849415 -0.07542439
vt -0.04849415 -0.07542439
vt -0.04849415 -0.07542439
vt -0.04681088 -0.06225306
vt -0.04681088 -0.06225306
vt -0.04681088 -0.06225306
vt -0.04681088 -0.06225306
vt -0.04993891 -0.04915158
vt -0.04993891 -0.04915158
vt -0.04993891 -0.04915158
vt -0.04993891 -0.04915158
vt -0.05414662 -0.03577938
vt -0.05414662 -0.03577938
vt -0.05414662 -0.03577938
vt -0.05414662 -0.03577938
vt -0.06469458 -0.02924399
vt -0.06469458 -0.02924399
vt -0.06469458 -0.02924399
vt -0.06469458 -0.02924399
vt -0.07009004 -0.02748196
vt -0.07009004 -0.02748196
vt -0.07009004 -0.02748196
vt -0.07009004 -0.02748196
vt -0.07623818 -0.02477481
vt -0.07623818 -0.02477481
vt -0.07623818 -0.02477481
vt -0.07623818 -0.02477481
vt -0.08064795 -0.02704685
vt -0.08064795 -0.02704685
vt -0.07332009 -0.08304991
vt -0.07332009 -0.08304991
vt -0.07584909 -0.07849677
vt -0.07584909 -0.07849677
vt -0.07584909 -0.07849677
vt -0.07584909 -0.07849677
vt -0.07503168 -0.07130964
vt -0.07503168 -0.07130964
vt -0.07503168 -0.07130964
vt -0.07503168 -0.07130964
vt -0.07118279 -0.06477018
vt -0.07118279 -0.06477018
vt -0.07118279 -0.06477018
vt -0.07118279 -0.06477018
vt -0.06561275 -0.05999117
vt -0.06561275 -0.05999117
vt -0.06561275 -0.05999117
vt -0.06561275 -0.05999117
vt -0.06539982 -0.05498188
vt -0.06539982 -0.05498188
vt -0.06539982 -0.05498188
vt -0.06539982 -0.05498188
vt -0.0711177 -0.05241369
vt -0.0711177 -0.05241369
vt -0.0711177 -0.05241369
vt -0.0711177 -0.05241369
vt -0.07657118 -0.04843754
vt -0.07657118 -0.04843754
vt -0.07657118 -0.04843754
vt -0.07657118 -0.04843754
vt -0.07992545 -0.04539558
vt -0.07992545 -0.04539558
vt -0.07992545 -0.04539558
vt -0.07992545 -0.04539558
vt -0.08550958 -0.04166115
vt -0.08550958 -0.04166115
vt -0.08550958 -0.04166115
vt -0.08550958 -0.04166115
vt -0.08595948 -0.03672092
vt -0.08595948 -0.03672092
vn 0 1 0
vn 0 1 0
vn 0 1 0
vn 0 1 0
vn 0 1 0
vn 0 1 0
vn 0 1 0
vn 0 1 0
vn 0 1 0
vn 0 1 0
vn 0 1 0
vn 0 1 0
vn 0 1 0
vn 0 1 0
vn 0 1 0
vn 0 1 0
vn 0 1 0
vn 0 1 0
vn 0 1 0
vn 0 1 0
vn 0 1 0
vn 0 1 0
vn 0.4073505 0 0.9132719
vn 0.4073505 0 0.9132719
vn 0.8309264 0 0.5563824
vn 0.8309264 0 0.5563824
vn 0.999543 0 -0.03022849
vn 0.999543 0 -0.03022849
vn 0.999543 0 -0.03022849
vn 0.999543 0 -0.03022849
vn 0.9031022 0 -0.4294256
vn 0.9031022 0 -0.4294256
vn 0.9031022 0 -0.4294256
vn 0.9031022 0 -0.4294256
vn 0.7002801 0 -0.7138682
vn 0.7002801 0 -0.7138682
vn 0.7002801 0 -0.7138682
vn 0.7002801 0 -0.7138682
vn 0.4025624 0 -0.9153926
vn 0.4025624 0 -0.9153926
vn 0.4025624 0 -0.9153926
vn 0.4025624 0 -0.9153926
vn 0.3370943 0 -0.9414709
vn 0.3370943 0 -0.9414709
vn 0.3370943 0 -0.9414709
vn 0.3370943 0 -0.9414709
vn -0.3592068 0 -0.933258
vn -0.3592068 0 -0.933258
vn -0.3592068 0 -0.933258
vn -0.3592068 0 -0.933258
vn -0.5699604 0 -0.8216722
vn -0.5699604 0 -0.8216722
vn -0.5699604 0 -0.8216722
vn -0.5699604 0 -0.8216722
vn -0.4858544 0 -0.8740398
vn -0.4858544 0 -0.8740398
vn -0.4858544 0 -0.8740398
vn -0.4858544 0 -0.8740398
vn -0.9850857 0 -0.1720642
vn -0.9850857 0 -0.1720642
vn -0.9130874 0 0.407764
vn -0.9130874 0 0.407764
vn 0.4073505 0 0.9132719
vn 0.4073505 0 0.9132719
vn -0.141195 0 0.9899818
vn -0.141195 0 0.9899818
vn -0.6903169 0 0.7235072
vn -0.6903169 0 0.7235072
vn -0.6903169 0 0.7235072
vn -0.6903169 0 0.7235072
vn -0.924853 0 0.3803249
vn -0.924853 0 0.3803249
vn -0.924853 0 0.3803249
vn -0.924853 0 0.3803249
vn -0.9981747 0 0.06039335
vn -0.9981747 0 0.06039335
vn -0.9981747 0 0.06039335
vn -0.9981747 0 0.06039335
vn -0.6374335 0 0.7705054
vn -0.6374335 0 0.7705054
vn -0.6374335 0 0.7705054
vn -0.6374335 0 0.7705054
vn 0.4793982 0 0.8775976
vn 0.4793982 0 0.8775976
vn 0.4793982 0 0.8775976
vn 0.4793982 0 0.8775976
vn 0.2879856 0 0.9576347
vn 0.2879856 0 0.9576347
vn 0.2879856 0 0.9576347
vn 0.2879856 0 0.9576347
vn 0.1844414 0 0.9828435
vn 0.1844414 0 0.9828435
vn 0.1844414 0 0.9828435
vn 0.1844414 0 0.9828435
vn 0.3265662 0 0.9451743
vn 0.3265662 0 0.9451743
vn 0.3265662 0 0.9451743
vn 0.3265662 0 0.9451743
vn -0.5293745 0 0.8483883
vn -0.5293745 0 0.8483883
vn -0.9130874 0 0.407764
vn -0.9130874 0 0.407764
g _0
f 3/3/3 2/2/2 1/1/1
f 2/2/2 3/3/3 4/4/4
f 5/5/5 4/4/4 3/3/3
f 4/4/4 5/5/5 6/6/6
f 7/7/7 6/6/6 5/5/5
f 6/6/6 7/7/7 8/8/8
f 9/9/9 8/8/8 7/7/7
f 8/8/8 9/9/9 10/10/10
f 11/11/11 10/10/10 9/9/9
f 10/10/10 11/11/11 12/12/12
f 13/13/13 12/12/12 11/11/11
f 12/12/12 13/13/13 14/14/14
f 15/15/15 14/14/14 13/13/13
f 14/14/14 15/15/15 16/16/16
f 17/17/17 16/16/16 15/15/15
f 16/16/16 17/17/17 18/18/18
f 19/19/19 18/18/18 17/17/17
f 18/18/18 19/19/19 20/20/20
f 21/21/21 20/20/20 19/19/19
f 20/20/20 21/21/21 22/22/22
g _1
f 23/23/23 24/24/24 25/25/25
f 26/26/26 25/25/25 24/24/24
f 27/27/27 28/28/28 29/29/29
f 30/30/30 29/29/29 28/28/28
f 31/31/31 32/32/32 33/33/33
f 34/34/34 33/33/33 32/32/32
f 35/35/35 36/36/36 37/37/37
f 38/38/38 37/37/37 36/36/36
f 39/39/39 40/40/40 41/41/41
f 42/42/42 41/41/41 40/40/40
f 43/43/43 44/44/44 45/45/45
f 46/46/46 45/45/45 44/44/44
f 47/47/47 48/48/48 49/49/49
f 50/50/50 49/49/49 48/48/48
f 51/51/51 52/52/52 53/53/53
f 54/54/54 53/53/53 52/52/52
f 55/55/55 56/56/56 57/57/57
f 58/58/58 57/57/57 56/56/56
f 59/59/59 60/60/60 61/61/61
f 62/62/62 61/61/61 60/60/60
f 65/65/65 64/64/64 63/63/63
f 64/64/64 65/65/65 66/66/66
f 69/69/69 68/68/68 67/67/67
f 68/68/68 69/69/69 70/70/70
f 73/73/73 72/72/72 71/71/71
f 72/72/72 73/73/73 74/74/74
f 77/77/77 76/76/76 75/75/75
f 76/76/76 77/77/77 78/78/78
f 81/81/81 80/80/80 79/79/79
f 80/80/80 81/81/81 82/82/82
f 85/85/85 84/84/84 83/83/83
f 84/84/84 85/85/85 86/86/86
f 89/89/89 88/88/88 87/87/87
f 88/88/88 89/89/89 90/90/90
f 93/93/93 92/92/92 91/91/91
f 92/92/92 93/93/93 94/94/94
f 97/97/97 96/96/96 95/95/95
f 96/96/96 97/97/97 98/98/98
f 101/101/101 100/100/100 99/99/99
f 100/100/100 101/101/101 102/102/102
f 63/63/63 24/24/24 23/23/23
f 24/24/24 63/63/63 64/64/64
f 61/61/61 62/62/62 101/101/101
f 102/102/102 101/101/101 62/62/62
