g 
v 58.12 57.54324 -38.37
v 58.12 42.65676 -38.37
v 57.16 57.91245 -33.53
v 57.16 42.28755 -33.53
v 53.81 57.91245 -32.19
v 53.81 42.28755 -32.19
v 50.89 57.91245 -35.12
v 50.89 42.28755 -35.12
v 51.74 57.91245 -37.34
v 51.74 42.28755 -37.34
v 54.07 57.91245 -38.54
v 54.07 42.28755 -38.54
v 58.12 57.54324 -38.37
v 58.12 42.65676 -38.37
vt -0.6022 -0.4967
vt -0.6022 -0.4967
vt -0.5926 -0.4483
vt -0.5926 -0.4483
vt -0.5591 -0.4349
vt -0.5591 -0.4349
vt -0.5299 -0.4642
vt -0.5299 -0.4642
vt -0.5384 -0.4864
vt -0.5384 -0.4864
vt -0.5617 -0.4984
vt -0.5617 -0.4984
vt -0.6022 -0.4967
vt -0.6022 -0.4967
vn 0.9808912 0 0.1945567
vn 0.9808912 0 0.1945568
vn 0.3713908 0 0.9284766
vn 0.3713908 0 0.9284766
vn -0.7083142 0 0.7058972
vn -0.7083142 0 0.7058972
vn -0.9338864 0 -0.3575699
vn -0.9338864 0 -0.3575699
vn -0.4578658 0 -0.8890213
vn -0.4578658 0 -0.8890213
vn 0.04193887 0 -0.9991202
vn 0.04193887 0 -0.9991202
vn 0.04193887 0 -0.9991202
vn 0.04193887 0 -0.9991202
g _0
f 3/3/3 2/2/2 1/1/1
f 2/2/2 3/3/3 4/4/4
f 5/5/5 4/4/4 3/3/3
f 4/4/4 5/5/5 6/6/6
f 7/7/7 6/6/6 5/5/5
f 6/6/6 7/7/7 8/8/8
f 9/9/9 8/8/8 7/7/7
f 8/8/8 9/9/9 10/10/10
f 11/11/11 10/10/10 9/9/9
f 10/10/10 11/11/11 12/12/12
f 13/13/13 12/12/12 11/11/11
f 12/12/12 13/13/13 14/14/14
