g 
v -102.3372 13.49 -17.29088
v -97.70086 13.49 -14.47294
v -104.7186 13.49 -17.10109
v -96.77275 13.49 -12.2716
v -107.5136 13.49 -14.84725
v -97.48642 13.49 -8.752751
v -111.194 17.37132 -9.222301
v -101.4606 17.37132 -1.78373
v -114.031 23.60185 -6.280309
v -107.7868 23.60185 4.686629
v -119.8549 25.9 -4.791064
v -118.4244 25.9 8.374949
v -128.0446 25.9 -7.160183
v -128.1005 25.9 9.296246
v -138.9149 25.9 -7.213029
v -135.1175 25.9 10.67549
v -149.7982 25.9 -5.204155
v -141.3655 25.9 14.77404
v -159.5076 25.9 -2.598248
v -148.1711 25.9 20.2627
v -162.0683 25.9 -1.095748
v -150.5318 25.9 21.29575
v -167.7215 25.9 4.135805
v -158.0732 25.9 22.86236
v -168.3146 25.9 9.696551
v -162.9455 25.9 20.11751
v -102.3372 13.49 -17.29088
v -102.3372 3.49 -17.29088
v -104.7186 13.49 -17.10109
v -104.7186 3.49 -17.10109
v -104.7186 13.49 -17.10109
v -104.7186 3.49 -17.10109
v -107.5136 13.49 -14.84725
v -107.5136 3.49 -14.84725
v -107.5136 13.49 -14.84725
v -107.5136 3.49 -14.84725
v -111.194 17.37132 -9.222301
v -111.194 7.371317 -9.222301
v -111.194 17.37132 -9.222301
v -111.194 7.371317 -9.222301
v -114.031 23.60185 -6.280309
v -114.031 13.60185 -6.280309
v -114.031 23.60185 -6.280309
v -114.031 13.60185 -6.280309
v -119.8549 25.9 -4.791064
v -119.8549 15.9 -4.791064
v -119.8549 25.9 -4.791064
v -119.8549 15.9 -4.791064
v -128.0446 25.9 -7.160183
v -128.0446 15.9 -7.160183
v -128.0446 25.9 -7.160183
v -128.0446 15.9 -7.160183
v -138.9149 25.9 -7.213029
v -138.9149 15.9 -7.213029
v -138.9149 25.9 -7.213029
v -138.9149 15.9 -7.213029
v -149.7982 25.9 -5.204155
v -149.7982 15.9 -5.204155
v -149.7982 25.9 -5.204155
v -149.7982 15.9 -5.204155
v -159.5076 25.9 -2.598248
v -159.5076 15.9 -2.598248
v -159.5076 25.9 -2.598248
v -159.5076 15.9 -2.598248
v -162.0683 25.9 -1.095748
v -162.0683 15.9 -1.095748
v -162.0683 25.9 -1.095748
v -162.0683 15.9 -1.095748
v -167.7215 25.9 4.135805
v -167.7215 15.9 4.135805
v -167.7215 25.9 4.135805
v -167.7215 15.9 4.135805
v -168.3146 25.9 9.696551
v -168.3146 15.9 9.696551
v -97.70086 13.49 -14.47294
v -97.70086 3.49 -14.47294
v -96.77275 13.49 -12.2716
v -96.77275 3.49 -12.2716
v -96.77275 13.49 -12.2716
v -96.77275 3.49 -12.2716
v -97.48642 13.49 -8.752751
v -97.48642 3.49 -8.752751
v -97.48642 13.49 -8.752751
v -97.48642 3.49 -8.752751
v -101.4606 17.37132 -1.78373
v -101.4606 7.371317 -1.78373
v -101.4606 17.37132 -1.78373
v -101.4606 7.371317 -1.78373
v -107.7868 23.60185 4.686629
v -107.7868 13.60185 4.686629
v -107.7868 23.60185 4.686629
v -107.7868 13.60185 4.686629
v -118.4244 25.9 8.374949
v -118.4244 15.9 8.374949
v -118.4244 25.9 8.374949
v -118.4244 15.9 8.374949
v -128.1005 25.9 9.296246
v -128.1005 15.9 9.296246
v -128.1005 25.9 9.296246
v -128.1005 15.9 9.296246
v -135.1175 25.9 10.67549
v -135.1175 15.9 10.67549
v -135.1175 25.9 10.67549
v -135.1175 15.9 10.67549
v -141.3655 25.9 14.77404
v -141.3655 15.9 14.77404
v -141.3655 25.9 14.77404
v -141.3655 15.9 14.77404
v -148.1711 25.9 20.2627
v -148.1711 15.9 20.2627
v -148.1711 25.9 20.2627
v -148.1711 15.9 20.2627
v -150.5318 25.9 21.29575
v -150.5318 15.9 21.29575
v -150.5318 25.9 21.29575
v -150.5318 15.9 21.29575
v -158.0732 25.9 22.86236
v -158.0732 15.9 22.86236
v -158.0732 25.9 22.86236
v -158.0732 15.9 22.86236
v -162.9455 25.9 20.11751
v -162.9455 15.9 20.11751
vt 0.1115003 0.03869588
vt 0.1062069 0.03988566
vt 0.1136965 0.03963625
vt 0.1046244 0.04167534
vt 0.1156253 0.04266464
vt 0.1041769 0.04523784
vt 0.1173167 0.04917041
vt 0.1057174 0.05311109
vt 0.1190656 0.05286433
vt 0.109646 0.06126291
vt 0.124109 0.05613545
vt 0.1185488 0.06815522
vt 0.1326264 0.05650578
vt 0.127424 0.07211835
vt 0.1429444 0.05992714
vt 0.1336331 0.07566625
vt 0.1526163 0.06530639
vt 0.138245 0.08154546
vt 0.1609851 0.07087655
vt 0.1429415 0.08892009
vt 0.1629318 0.0731181
vt 0.1448487 0.09065293
vt 0.1666183 0.07988108
vt 0.151495 0.09454589
vt 0.1654046 0.08534006
vt 0.1569887 0.09350073
vt 0.1115003 0.03869588
vt 0.1115003 0.03869588
vt 0.1136965 0.03963625
vt 0.1136965 0.03963625
vt 0.1136965 0.03963625
vt 0.1136965 0.03963625
vt 0.1156253 0.04266464
vt 0.1156253 0.04266464
vt 0.1156253 0.04266464
vt 0.1156253 0.04266464
vt 0.1173167 0.04917041
vt 0.1173167 0.04917041
vt 0.1173167 0.04917041
vt 0.1173167 0.04917041
vt 0.1190656 0.05286433
vt 0.1190656 0.05286433
vt 0.1190656 0.05286433
vt 0.1190656 0.05286433
vt 0.124109 0.05613545
vt 0.124109 0.05613545
vt 0.124109 0.05613545
vt 0.124109 0.05613545
vt 0.1326264 0.05650578
vt 0.1326264 0.05650578
vt 0.1326264 0.05650578
vt 0.1326264 0.05650578
vt 0.1429444 0.05992714
vt 0.1429444 0.05992714
vt 0.1429444 0.05992714
vt 0.1429444 0.05992714
vt 0.1526163 0.06530639
vt 0.1526163 0.06530639
vt 0.1526163 0.06530639
vt 0.1526163 0.06530639
vt 0.1609851 0.07087655
vt 0.1609851 0.07087655
vt 0.1609851 0.07087655
vt 0.1609851 0.07087655
vt 0.1629318 0.0731181
vt 0.1629318 0.0731181
vt 0.1629318 0.0731181
vt 0.1629318 0.0731181
vt 0.1666183 0.07988108
vt 0.1666183 0.07988108
vt 0.1666183 0.07988108
vt 0.1666183 0.07988108
vt 0.1654046 0.08534006
vt 0.1654046 0.08534006
vt 0.1062069 0.03988566
vt 0.1062069 0.03988566
vt 0.1046244 0.04167534
vt 0.1046244 0.04167534
vt 0.1046244 0.04167534
vt 0.1046244 0.04167534
vt 0.1041769 0.04523784
vt 0.1041769 0.04523784
vt 0.1041769 0.04523784
vt 0.1041769 0.04523784
vt 0.1057174 0.05311109
vt 0.1057174 0.05311109
vt 0.1057174 0.05311109
vt 0.1057174 0.05311109
vt 0.109646 0.06126291
vt 0.109646 0.06126291
vt 0.109646 0.06126291
vt 0.109646 0.06126291
vt 0.1185488 0.06815522
vt 0.1185488 0.06815522
vt 0.1185488 0.06815522
vt 0.1185488 0.06815522
vt 0.127424 0.07211835
vt 0.127424 0.07211835
vt 0.127424 0.07211835
vt 0.127424 0.07211835
vt 0.1336331 0.07566625
vt 0.1336331 0.07566625
vt 0.1336331 0.07566625
vt 0.1336331 0.07566625
vt 0.138245 0.08154546
vt 0.138245 0.08154546
vt 0.138245 0.08154546
vt 0.138245 0.08154546
vt 0.1429415 0.08892009
vt 0.1429415 0.08892009
vt 0.1429415 0.08892009
vt 0.1429415 0.08892009
vt 0.1448487 0.09065293
vt 0.1448487 0.09065293
vt 0.1448487 0.09065293
vt 0.1448487 0.09065293
vt 0.151495 0.09454589
vt 0.151495 0.09454589
vt 0.151495 0.09454589
vt 0.151495 0.09454589
vt 0.1569887 0.09350073
vt 0.1569887 0.09350073
vn 0 1 0
vn 0 1 0
vn 0 1 0
vn 0 1 0
vn 0 1 0
vn 0 1 0
vn 0 1 0
vn 0 1 0
vn 0 1 0
vn 0 1 0
vn 0 1 0
vn 0 1 0
vn 0 1 0
vn 0 1 0
vn 0 1 0
vn 0 1 0
vn 0 1 0
vn 0 1 0
vn 0 1 0
vn 0 1 0
vn 0 1 0
vn 0 1 0
vn 0 1 0
vn 0 1 0
vn 0 1 0
vn 0 1 0
vn 0.5193872 0 -0.8545391
vn 0.5193872 0 -0.8545391
vn -0.07944576 0 -0.9968392
vn -0.07944576 0 -0.9968392
vn -0.6277245 0 -0.7784356
vn -0.6277245 0 -0.7784356
vn -0.6277245 0 -0.7784356
vn -0.6277245 0 -0.7784356
vn -0.8367915 0 -0.5475218
vn -0.8367915 0 -0.5475218
vn -0.8367915 0 -0.5475218
vn -0.8367915 0 -0.5475218
vn -0.7198404 0 -0.6941396
vn -0.7198404 0 -0.6941396
vn -0.7198404 0 -0.6941396
vn -0.7198404 0 -0.6941396
vn -0.2477409 0 -0.9688263
vn -0.2477409 0 -0.9688263
vn -0.2477409 0 -0.9688263
vn -0.2477409 0 -0.9688263
vn 0.2778853 0 -0.9606143
vn 0.2778853 0 -0.9606143
vn 0.2778853 0 -0.9606143
vn 0.2778853 0 -0.9606143
vn 0.004861442 0 -0.9999882
vn 0.004861442 0 -0.9999882
vn 0.004861442 0 -0.9999882
vn 0.004861442 0 -0.9999882
vn -0.1815175 0 -0.9833877
vn -0.1815175 0 -0.9833877
vn -0.1815175 0 -0.9833877
vn -0.1815175 0 -0.9833877
vn -0.2592154 0 -0.9658195
vn -0.2592154 0 -0.9658195
vn -0.2592154 0 -0.9658195
vn -0.2592154 0 -0.9658195
vn -0.5060838 0 -0.8624843
vn -0.5060838 0 -0.8624843
vn -0.5060838 0 -0.8624843
vn -0.5060838 0 -0.8624843
vn -0.6792021 0 -0.7339513
vn -0.6792021 0 -0.7339513
vn -0.6792021 0 -0.7339513
vn -0.6792021 0 -0.7339513
vn -0.9943599 0 -0.1060584
vn -0.9943599 0 -0.1060584
vn -0.8889499 0 0.4580043
vn -0.8889499 0 0.4580043
vn 0.5193872 0 -0.8545391
vn 0.5193872 0 -0.8545391
vn 0.9214511 0 -0.3884944
vn 0.9214511 0 -0.3884944
vn 0.9800469 0 0.1987663
vn 0.9800469 0 0.1987663
vn 0.9800469 0 0.1987663
vn 0.9800469 0 0.1987663
vn 0.8686811 0 0.4953718
vn 0.8686811 0 0.4953718
vn 0.8686811 0 0.4953718
vn 0.8686811 0 0.4953718
vn 0.7150267 0 0.6990971
vn 0.7150267 0 0.6990971
vn 0.7150267 0 0.6990971
vn 0.7150267 0 0.6990971
vn 0.3275915 0 0.9448195
vn 0.3275915 0 0.9448195
vn 0.3275915 0 0.9448195
vn 0.3275915 0 0.9448195
vn 0.09478469 0 0.9954978
vn 0.09478469 0 0.9954978
vn 0.09478469 0 0.9954978
vn 0.09478469 0 0.9954978
vn 0.1928668 0 0.981225
vn 0.1928668 0 0.981225
vn 0.1928668 0 0.981225
vn 0.1928668 0 0.981225
vn 0.5485016 0 0.8361495
vn 0.5485016 0 0.8361495
vn 0.5485016 0 0.8361495
vn 0.5485016 0 0.8361495
vn 0.6277714 0 0.7783978
vn 0.6277714 0 0.7783978
vn 0.6277714 0 0.7783978
vn 0.6277714 0 0.7783978
vn 0.4008984 0 0.9161226
vn 0.4008984 0 0.9161226
vn 0.4008984 0 0.9161226
vn 0.4008984 0 0.9161226
vn 0.2033904 0 0.9790978
vn 0.2033904 0 0.9790978
vn 0.2033904 0 0.9790978
vn 0.2033904 0 0.9790978
vn -0.4908297 0 0.8712556
vn -0.4908297 0 0.8712556
vn -0.8889499 0 0.4580043
vn -0.8889499 0 0.4580043
g _0
f 3/3/3 2/2/2 1/1/1
f 2/2/2 3/3/3 4/4/4
f 5/5/5 4/4/4 3/3/3
f 4/4/4 5/5/5 6/6/6
f 7/7/7 6/6/6 5/5/5
f 6/6/6 7/7/7 8/8/8
f 9/9/9 8/8/8 7/7/7
f 8/8/8 9/9/9 10/10/10
f 11/11/11 10/10/10 9/9/9
f 10/10/10 11/11/11 12/12/12
f 13/13/13 12/12/12 11/11/11
f 12/12/12 13/13/13 14/14/14
f 15/15/15 14/14/14 13/13/13
f 14/14/14 15/15/15 16/16/16
f 17/17/17 16/16/16 15/15/15
f 16/16/16 17/17/17 18/18/18
f 19/19/19 18/18/18 17/17/17
f 18/18/18 19/19/19 20/20/20
f 21/21/21 20/20/20 19/19/19
f 20/20/20 21/21/21 22/22/22
f 23/23/23 22/22/22 21/21/21
f 22/22/22 23/23/23 24/24/24
f 25/25/25 24/24/24 23/23/23
f 24/24/24 25/25/25 26/26/26
g _1
f 27/27/27 28/28/28 29/29/29
f 30/30/30 29/29/29 28/28/28
f 31/31/31 32/32/32 33/33/33
f 34/34/34 33/33/33 32/32/32
f 35/35/35 36/36/36 37/37/37
f 38/38/38 37/37/37 36/36/36
f 39/39/39 40/40/40 41/41/41
f 42/42/42 41/41/41 40/40/40
f 43/43/43 44/44/44 45/45/45
f 46/46/46 45/45/45 44/44/44
f 47/47/47 48/48/48 49/49/49
f 50/50/50 49/49/49 48/48/48
f 51/51/51 52/52/52 53/53/53
f 54/54/54 53/53/53 52/52/52
f 55/55/55 56/56/56 57/57/57
f 58/58/58 57/57/57 56/56/56
f 59/59/59 60/60/60 61/61/61
f 62/62/62 61/61/61 60/60/60
f 63/63/63 64/64/64 65/65/65
f 66/66/66 65/65/65 64/64/64
f 67/67/67 68/68/68 69/69/69
f 70/70/70 69/69/69 68/68/68
f 71/71/71 72/72/72 73/73/73
f 74/74/74 73/73/73 72/72/72
f 77/77/77 76/76/76 75/75/75
f 76/76/76 77/77/77 78/78/78
f 81/81/81 80/80/80 79/79/79
f 80/80/80 81/81/81 82/82/82
f 85/85/85 84/84/84 83/83/83
f 84/84/84 85/85/85 86/86/86
f 89/89/89 88/88/88 87/87/87
f 88/88/88 89/89/89 90/90/90
f 93/93/93 92/92/92 91/91/91
f 92/92/92 93/93/93 94/94/94
f 97/97/97 96/96/96 95/95/95
f 96/96/96 97/97/97 98/98/98
f 101/101/101 100/100/100 99/99/99
f 100/100/100 101/101/101 102/102/102
f 105/105/105 104/104/104 103/103/103
f 104/104/104 105/105/105 106/106/106
f 109/109/109 108/108/108 107/107/107
f 108/108/108 109/109/109 110/110/110
f 113/113/113 112/112/112 111/111/111
f 112/112/112 113/113/113 114/114/114
f 117/117/117 116/116/116 115/115/115
f 116/116/116 117/117/117 118/118/118
f 121/121/121 120/120/120 119/119/119
f 120/120/120 121/121/121 122/122/122
f 75/75/75 28/28/28 27/27/27
f 28/28/28 75/75/75 76/76/76
f 73/73/73 74/74/74 121/121/121
f 122/122/122 121/121/121 74/74/74
