g 
v -6.676401 108.4166 -198.2329
v -6.676401 94.41657 -198.2329
v -7.304597 108.4166 -194.2873
v -7.304597 94.41657 -194.2873
v -8.93075 108.4166 -189.7151
v -8.93075 94.41657 -189.7151
v -12.24094 108.4166 -188.6262
v -12.24094 94.41657 -188.6262
v -13.07307 108.4166 -190.855
v -13.07307 94.41657 -190.855
v -16.45745 108.4166 -194.8713
v -16.45745 94.41657 -194.8713
v -14.46361 108.4166 -201.215
v -14.46361 94.41657 -201.215
v -11.86426 108.4166 -203.3003
v -11.86426 94.41657 -203.3003
v -9.259371 108.4166 -202.0304
v -9.259371 94.41657 -202.0304
v -9.084833 108.4166 -200.5047
v -9.084833 94.41657 -200.5047
v -6.676401 108.4166 -198.2329
v -6.676401 94.41657 -198.2329
vt 0.894319 -1.494773
vt 0.894319 -1.494773
vt 0.900601 -1.455317
vt 0.900601 -1.455317
vt 0.9168625 -1.409595
vt 0.9168625 -1.409595
vt 0.9499643 -1.398706
vt 0.9499643 -1.398706
vt 0.9582856 -1.420994
vt 0.9582856 -1.420994
vt 0.9921294 -1.461157
vt 0.9921294 -1.461157
vt 0.972191 -1.524594
vt 0.972191 -1.524594
vt 0.9461976 -1.545447
vt 0.9461976 -1.545447
vt 0.9201487 -1.532748
vt 0.9201487 -1.532748
vt 0.9184033 -1.517491
vt 0.9184033 -1.517491
vt 0.894319 -1.494773
vt 0.894319 -1.494773
vn 0.9875615 0 0.1572328
vn 0.9875615 0 0.1572328
vn 0.9421827 0 0.3350994
vn 0.9421827 0 0.3350994
vn 0.3124807 0 0.9499241
vn 0.3124807 0 0.9499241
vn -0.9368348 0 0.3497722
vn -0.9368348 0 0.3497722
vn -0.7647006 0 0.6443858
vn -0.7647006 0 0.6443858
vn -0.9539896 0 -0.2998396
vn -0.9539896 0 -0.2998396
vn -0.6257588 0 -0.7800167
vn -0.6257588 0 -0.7800167
vn 0.4382062 0 -0.8988745
vn 0.4382062 0 -0.8988745
vn 0.9935204 0 -0.1136541
vn 0.9935204 0 -0.1136541
vn 0.6861625 0 -0.7274483
vn 0.6861625 0 -0.7274483
vn 0.6861625 0 -0.7274483
vn 0.6861625 0 -0.7274483
g _0
f 3/3/3 2/2/2 1/1/1
f 2/2/2 3/3/3 4/4/4
f 5/5/5 4/4/4 3/3/3
f 4/4/4 5/5/5 6/6/6
f 7/7/7 6/6/6 5/5/5
f 6/6/6 7/7/7 8/8/8
f 9/9/9 8/8/8 7/7/7
f 8/8/8 9/9/9 10/10/10
f 11/11/11 10/10/10 9/9/9
f 10/10/10 11/11/11 12/12/12
f 13/13/13 12/12/12 11/11/11
f 12/12/12 13/13/13 14/14/14
f 15/15/15 14/14/14 13/13/13
f 14/14/14 15/15/15 16/16/16
f 17/17/17 16/16/16 15/15/15
f 16/16/16 17/17/17 18/18/18
f 19/19/19 18/18/18 17/17/17
f 18/18/18 19/19/19 20/20/20
f 21/21/21 20/20/20 19/19/19
f 20/20/20 21/21/21 22/22/22
