g 
v -35.46 28.66459 -8.78
v -35.46 10.33541 -8.78
v -28.19 29.9296 -11.79
v -28.19 9.010396 -11.79
v -22.9 29.9296 -7.97
v -22.9 9.010396 -7.97
v -21.15 29.9296 -3.94
v -21.15 9.010396 -3.94
v -16.05 29.9296 -2.63
v -16.05 9.010396 -2.63
v -24.74 29.9296 -4.47
v -24.74 9.010396 -4.47
v -26.2 29.9296 -3.22
v -26.2 9.010396 -3.22
v -29.74 29.9296 -4.33
v -29.74 9.010396 -4.33
v -31.36 29.9296 -6.37
v -31.36 9.010396 -6.37
v -34.31 29.9296 -5.95
v -34.31 9.010396 -5.95
v -35.34 29.9296 -2.6
v -35.34 9.010396 -2.6
v -34.87 29.9296 -0.69
v -34.87 9.010396 -0.69
v -32.21 29.9296 0.34
v -32.21 9.010396 0.34
v -21.88 29.9296 0.72
v -21.88 9.010396 0.72
v -29.12 29.9296 1.69
v -29.12 9.010396 1.69
v -34.9 29.9296 2.99
v -34.9 9.010396 2.99
v -39.92 29.9296 -1.95
v -39.92 9.010396 -1.95
v -38.42 29.9296 -7.73
v -38.42 9.010396 -7.73
v -35.46 28.66459 -8.78
v -35.46 10.33541 -8.78
vt 0.3546 -0.0878
vt 0.3546 -0.0878
vt 0.2819 -0.1179
vt 0.2819 -0.1179
vt 0.229 -0.07969999
vt 0.229 -0.07969999
vt 0.2115 -0.0394
vt 0.2115 -0.0394
vt 0.1605 -0.0263
vt 0.1605 -0.0263
vt 0.2474 -0.0447
vt 0.2474 -0.0447
vt 0.262 -0.0322
vt 0.262 -0.0322
vt 0.2974 -0.0433
vt 0.2974 -0.0433
vt 0.3136 -0.0637
vt 0.3136 -0.0637
vt 0.3431 -0.0595
vt 0.3431 -0.0595
vt 0.3534 -0.026
vt 0.3534 -0.026
vt 0.3487 -0.0069
vt 0.3487 -0.0069
vt 0.3221 0.0034
vt 0.3221 0.0034
vt 0.2188 0.0072
vt 0.2188 0.0072
vt 0.2912 0.0169
vt 0.2912 0.0169
vt 0.349 0.0299
vt 0.349 0.0299
vt 0.3992 -0.0195
vt 0.3992 -0.0195
vt 0.3842 -0.0773
vt 0.3842 -0.0773
vt 0.3546 -0.0878
vt 0.3546 -0.0878
vn -0.3825389 0 -0.9239393
vn -0.382539 0 -0.9239393
vn 0.5854346 0 -0.8107197
vn 0.5854346 0 -0.8107197
vn 0.9172509 0 -0.3983099
vn 0.9172509 0 -0.3983099
vn 0.2487865 0 -0.9685583
vn 0.2487865 0 -0.9685583
vn -0.207145 0 0.9783103
vn -0.207145 0 0.9783103
vn 0.6503625 0 0.759624
vn 0.6503625 0 0.759624
vn -0.2991958 0 0.9541917
vn -0.2991958 0 0.9541917
vn -0.7831107 0 0.6218824
vn -0.7831107 0 0.6218824
vn 0.1409515 0 0.9900165
vn 0.1409515 0 0.9900165
vn 0.9558408 0 0.2938851
vn 0.9558408 0 0.2938851
vn 0.9710329 0 -0.2389459
vn 0.9710329 0 -0.2389459
vn 0.3610924 0 -0.93253
vn 0.3610924 0 -0.93253
vn 0.0367612 0 -0.9993241
vn 0.0367612 0 -0.9993241
vn 0.1327914 0 0.991144
vn 0.1327914 0 0.991144
vn 0.2194318 0 0.9756278
vn 0.2194318 0 0.9756278
vn -0.7014048 0 0.7127631
vn -0.7014048 0 0.7127631
vn -0.9679366 0 -0.2511947
vn -0.9679366 0 -0.2511947
vn -0.3343186 0 -0.9424601
vn -0.3343186 0 -0.9424601
vn -0.3343186 0 -0.9424601
vn -0.3343186 0 -0.9424601
g _0
f 3/3/3 2/2/2 1/1/1
f 2/2/2 3/3/3 4/4/4
f 5/5/5 4/4/4 3/3/3
f 4/4/4 5/5/5 6/6/6
f 7/7/7 6/6/6 5/5/5
f 6/6/6 7/7/7 8/8/8
f 9/9/9 8/8/8 7/7/7
f 8/8/8 9/9/9 10/10/10
f 11/11/11 10/10/10 9/9/9
f 10/10/10 11/11/11 12/12/12
f 13/13/13 12/12/12 11/11/11
f 12/12/12 13/13/13 14/14/14
f 15/15/15 14/14/14 13/13/13
f 14/14/14 15/15/15 16/16/16
f 17/17/17 16/16/16 15/15/15
f 16/16/16 17/17/17 18/18/18
f 19/19/19 18/18/18 17/17/17
f 18/18/18 19/19/19 20/20/20
f 21/21/21 20/20/20 19/19/19
f 20/20/20 21/21/21 22/22/22
f 23/23/23 22/22/22 21/21/21
f 22/22/22 23/23/23 24/24/24
f 25/25/25 24/24/24 23/23/23
f 24/24/24 25/25/25 26/26/26
f 27/27/27 26/26/26 25/25/25
f 26/26/26 27/27/27 28/28/28
f 29/29/29 28/28/28 27/27/27
f 28/28/28 29/29/29 30/30/30
f 31/31/31 30/30/30 29/29/29
f 30/30/30 31/31/31 32/32/32
f 33/33/33 32/32/32 31/31/31
f 32/32/32 33/33/33 34/34/34
f 35/35/35 34/34/34 33/33/33
f 34/34/34 35/35/35 36/36/36
f 37/37/37 36/36/36 35/35/35
f 36/36/36 37/37/37 38/38/38
