g 
v 34.20524 18.56 -105.3497
v 48.33601 18.56 -127.3707
v 34.52774 18.56 -93.13893
v 59.57072 18.56 -132.1653
v 45.49446 18.56 -79.53655
v 76.50554 18.56 -127.8634
v 53.95969 18.49538 -77.14173
v 82.2097 18.49538 -121.1659
v 64.15421 18.38667 -75.71028
v 87.75863 18.38667 -112.4948
v 74.48019 18.2718 -74.48373
v 93.17606 18.2718 -103.6189
v 83.88599 18.2 -71.82283
v 99.51401 18.2 -96.17717
v 92.42028 18.2 -69.65491
v 105.0407 18.2 -89.32225
v 98.08202 18.2 -72.07113
v 105.2032 18.2 -83.16865
v 34.20524 18.56 -105.3497
v 34.20524 -11.44 -105.3497
v 34.52774 18.56 -93.13893
v 34.52774 -11.44 -93.13893
v 34.52774 18.56 -93.13893
v 34.52774 -11.44 -93.13893
v 45.49446 18.56 -79.53655
v 45.49446 -11.44 -79.53655
v 45.49446 18.56 -79.53655
v 45.49446 -11.44 -79.53655
v 53.95969 18.49538 -77.14173
v 53.95969 -11.50462 -77.14173
v 53.95969 18.49538 -77.14173
v 53.95969 -11.50462 -77.14173
v 64.15421 18.38667 -75.71028
v 64.15421 -11.61333 -75.71028
v 64.15421 18.38667 -75.71028
v 64.15421 -11.61333 -75.71028
v 74.48019 18.2718 -74.48373
v 74.48019 -11.7282 -74.48373
v 74.48019 18.2718 -74.48373
v 74.48019 -11.7282 -74.48373
v 83.88599 18.2 -71.82283
v 83.88599 -11.8 -71.82283
v 83.88599 18.2 -71.82283
v 83.88599 -11.8 -71.82283
v 92.42028 18.2 -69.65491
v 92.42028 -11.8 -69.65491
v 92.42028 18.2 -69.65491
v 92.42028 -11.8 -69.65491
v 98.08202 18.2 -72.07113
v 98.08202 -11.8 -72.07113
v 48.33601 18.56 -127.3707
v 48.33601 -11.44 -127.3707
v 59.57072 18.56 -132.1653
v 59.57072 -11.44 -132.1653
v 59.57072 18.56 -132.1653
v 59.57072 -11.44 -132.1653
v 76.50554 18.56 -127.8634
v 76.50554 -11.44 -127.8634
v 76.50554 18.56 -127.8634
v 76.50554 -11.44 -127.8634
v 82.2097 18.49538 -121.1659
v 82.2097 -11.50462 -121.1659
v 82.2097 18.49538 -121.1659
v 82.2097 -11.50462 -121.1659
v 87.75863 18.38667 -112.4948
v 87.75863 -11.61333 -112.4948
v 87.75863 18.38667 -112.4948
v 87.75863 -11.61333 -112.4948
v 93.17606 18.2718 -103.6189
v 93.17606 -11.7282 -103.6189
v 93.17606 18.2718 -103.6189
v 93.17606 -11.7282 -103.6189
v 99.51401 18.2 -96.17717
v 99.51401 -11.8 -96.17717
v 99.51401 18.2 -96.17717
v 99.51401 -11.8 -96.17717
v 105.0407 18.2 -89.32225
v 105.0407 -11.8 -89.32225
v 105.0407 18.2 -89.32225
v 105.0407 -11.8 -89.32225
v 105.2032 18.2 -83.16865
v 105.2032 -11.8 -83.16865
vt 0.005088727 -0.08715471
vt 0.03032676 -0.08025199
vt -0.002844699 -0.09644272
vt 0.04188291 -0.08420953
vt -0.003801293 -0.1138892
vt 0.05158551 -0.09874066
vt 0.0008851447 -0.1213345
vt 0.05134061 -0.1075347
vt 0.007501204 -0.1292215
vt 0.04965948 -0.117691
vt 0.01435208 -0.1370443
vt 0.04774353 -0.1279116
vt 0.01955923 -0.1453168
vt 0.0474714 -0.1376827
vt 0.02444885 -0.1526398
vt 0.04698933 -0.1464749
vt 0.03027258 -0.1546342
vt 0.04299128 -0.1511556
vt 0.005088727 -0.08715471
vt 0.005088727 -0.08715471
vt -0.002844699 -0.09644272
vt -0.002844699 -0.09644272
vt -0.002844699 -0.09644272
vt -0.002844699 -0.09644272
vt -0.003801293 -0.1138892
vt -0.003801293 -0.1138892
vt -0.003801293 -0.1138892
vt -0.003801293 -0.1138892
vt 0.0008851447 -0.1213345
vt 0.0008851447 -0.1213345
vt 0.0008851447 -0.1213345
vt 0.0008851447 -0.1213345
vt 0.007501204 -0.1292215
vt 0.007501204 -0.1292215
vt 0.007501204 -0.1292215
vt 0.007501204 -0.1292215
vt 0.01435208 -0.1370443
vt 0.01435208 -0.1370443
vt 0.01435208 -0.1370443
vt 0.01435208 -0.1370443
vt 0.01955923 -0.1453168
vt 0.01955923 -0.1453168
vt 0.01955923 -0.1453168
vt 0.01955923 -0.1453168
vt 0.02444885 -0.1526398
vt 0.02444885 -0.1526398
vt 0.02444885 -0.1526398
vt 0.02444885 -0.1526398
vt 0.03027258 -0.1546342
vt 0.03027258 -0.1546342
vt 0.03032676 -0.08025199
vt 0.03032676 -0.08025199
vt 0.04188291 -0.08420953
vt 0.04188291 -0.08420953
vt 0.04188291 -0.08420953
vt 0.04188291 -0.08420953
vt 0.05158551 -0.09874066
vt 0.05158551 -0.09874066
vt 0.05158551 -0.09874066
vt 0.05158551 -0.09874066
vt 0.05134061 -0.1075347
vt 0.05134061 -0.1075347
vt 0.05134061 -0.1075347
vt 0.05134061 -0.1075347
vt 0.04965948 -0.117691
vt 0.04965948 -0.117691
vt 0.04965948 -0.117691
vt 0.04965948 -0.117691
vt 0.04774353 -0.1279116
vt 0.04774353 -0.1279116
vt 0.04774353 -0.1279116
vt 0.04774353 -0.1279116
vt 0.0474714 -0.1376827
vt 0.0474714 -0.1376827
vt 0.0474714 -0.1376827
vt 0.0474714 -0.1376827
vt 0.04698933 -0.1464749
vt 0.04698933 -0.1464749
vt 0.04698933 -0.1464749
vt 0.04698933 -0.1464749
vt 0.04299128 -0.1511556
vt 0.04299128 -0.1511556
vn 0 1 0
vn 0 1 0
vn 0 1 0
vn 0 1 0
vn 0 1 0
vn 0 1 0
vn 0 1 0
vn 0 1 0
vn 0 1 0
vn 0 1 0
vn 0 1 0
vn 0 1 0
vn 0 1 0
vn 0 1 0
vn 0 1 0
vn 0 1 0
vn 0 1 0
vn 0 1 0
vn -0.8416235 0 -0.5400646
vn -0.8416235 0 -0.5400646
vn -0.9996514 0 0.0264018
vn -0.9996514 0 0.0264018
vn -0.7784951 0 0.6276508
vn -0.7784951 0 0.6276508
vn -0.7784951 0 0.6276508
vn -0.7784951 0 0.6276508
vn -0.2722175 0 0.9622357
vn -0.2722175 0 0.9622357
vn -0.2722175 0 0.9622357
vn -0.2722175 0 0.9622357
vn -0.1390496 0 0.9902854
vn -0.1390496 0 0.9902854
vn -0.1390496 0 0.9902854
vn -0.1390496 0 0.9902854
vn -0.1179534 0 0.9930191
vn -0.1179534 0 0.9930191
vn -0.1179534 0 0.9930191
vn -0.1179534 0 0.9930191
vn -0.2722171 0 0.9622359
vn -0.2722171 0 0.9622359
vn -0.2722171 0 0.9622359
vn -0.2722171 0 0.9622359
vn -0.2462054 0 0.9692177
vn -0.2462054 0 0.9692177
vn -0.2462054 0 0.9692177
vn -0.2462054 0 0.9692177
vn 0.3925135 0 0.9197462
vn 0.3925135 0 0.9197462
vn 0.8416244 0 0.5400633
vn 0.8416244 0 0.5400633
vn -0.8416235 0 -0.5400646
vn -0.8416235 0 -0.5400646
vn -0.3925146 0 -0.9197458
vn -0.3925146 0 -0.9197458
vn 0.2462058 0 -0.9692175
vn 0.2462058 0 -0.9692175
vn 0.2462058 0 -0.9692175
vn 0.2462058 0 -0.9692175
vn 0.76131 0 -0.6483882
vn 0.76131 0 -0.6483882
vn 0.76131 0 -0.6483882
vn 0.76131 0 -0.6483882
vn 0.8422948 0 -0.5390171
vn 0.8422948 0 -0.5390171
vn 0.8422948 0 -0.5390171
vn 0.8422948 0 -0.5390171
vn 0.8535699 0 -0.5209784
vn 0.8535699 0 -0.5209784
vn 0.8535699 0 -0.5209784
vn 0.8535699 0 -0.5209784
vn 0.7613101 0 -0.648388
vn 0.7613101 0 -0.648388
vn 0.7613101 0 -0.648388
vn 0.7613101 0 -0.648388
vn 0.7784952 0 -0.6276506
vn 0.7784952 0 -0.6276506
vn 0.7784952 0 -0.6276506
vn 0.7784952 0 -0.6276506
vn 0.9996514 0 -0.02640156
vn 0.9996514 0 -0.02640156
vn 0.8416244 0 0.5400633
vn 0.8416244 0 0.5400633
g _0
f 3/3/3 2/2/2 1/1/1
f 2/2/2 3/3/3 4/4/4
f 5/5/5 4/4/4 3/3/3
f 4/4/4 5/5/5 6/6/6
f 7/7/7 6/6/6 5/5/5
f 6/6/6 7/7/7 8/8/8
f 9/9/9 8/8/8 7/7/7
f 8/8/8 9/9/9 10/10/10
f 11/11/11 10/10/10 9/9/9
f 10/10/10 11/11/11 12/12/12
f 13/13/13 12/12/12 11/11/11
f 12/12/12 13/13/13 14/14/14
f 15/15/15 14/14/14 13/13/13
f 14/14/14 15/15/15 16/16/16
f 17/17/17 16/16/16 15/15/15
f 16/16/16 17/17/17 18/18/18
g _1
f 19/19/19 20/20/20 21/21/21
f 22/22/22 21/21/21 20/20/20
f 23/23/23 24/24/24 25/25/25
f 26/26/26 25/25/25 24/24/24
f 27/27/27 28/28/28 29/29/29
f 30/30/30 29/29/29 28/28/28
f 31/31/31 32/32/32 33/33/33
f 34/34/34 33/33/33 32/32/32
f 35/35/35 36/36/36 37/37/37
f 38/38/38 37/37/37 36/36/36
f 39/39/39 40/40/40 41/41/41
f 42/42/42 41/41/41 40/40/40
f 43/43/43 44/44/44 45/45/45
f 46/46/46 45/45/45 44/44/44
f 47/47/47 48/48/48 49/49/49
f 50/50/50 49/49/49 48/48/48
f 53/53/53 52/52/52 51/51/51
f 52/52/52 53/53/53 54/54/54
f 57/57/57 56/56/56 55/55/55
f 56/56/56 57/57/57 58/58/58
f 61/61/61 60/60/60 59/59/59
f 60/60/60 61/61/61 62/62/62
f 65/65/65 64/64/64 63/63/63
f 64/64/64 65/65/65 66/66/66
f 69/69/69 68/68/68 67/67/67
f 68/68/68 69/69/69 70/70/70
f 73/73/73 72/72/72 71/71/71
f 72/72/72 73/73/73 74/74/74
f 77/77/77 76/76/76 75/75/75
f 76/76/76 77/77/77 78/78/78
f 81/81/81 80/80/80 79/79/79
f 80/80/80 81/81/81 82/82/82
f 51/51/51 20/20/20 19/19/19
f 20/20/20 51/51/51 52/52/52
f 49/49/49 50/50/50 81/81/81
f 82/82/82 81/81/81 50/50/50
