g 
v 19.03264 16.4 -47.04044
v 4.907641 16.4 -56.44948
v 26.95557 16.4 -47.11405
v 1.922814 16.4 -63.78902
v 35.8992 16.4 -54.07558
v 4.900801 16.4 -74.72443
v 40.42718 17.14497 -60.87911
v 9.826189 17.14497 -82.11246
v 44.61841 18 -66.84018
v 16.58159 18 -91.35982
v 50.6452 18.07407 -72.5386
v 24.93958 18.07407 -99.41801
v 58.25466 18.14815 -79.86685
v 31.71491 18.14815 -105.8464
v 65.28249 18.27937 -87.60187
v 37.85965 18.27937 -112.5063
v 73.18228 18.41693 -96.63617
v 42.99774 18.41693 -117.9379
v 79.24949 18.50667 -107.6349
v 46.34307 18.50667 -124.2855
v 84.08182 18.58444 -118.0022
v 50.01694 18.58444 -131.9845
v 87.78441 18.6 -128.464
v 52.91087 18.6 -140.2508
v 90.91751 18.6 -138.133
v 55.89686 18.6 -149.4753
v 93.97707 18.6 -147.5797
v 58.95641 18.6 -158.922
v 97.34495 18.6 -158.0858
v 61.70762 18.6 -167.3094
v 99.5536 18.6 -169.1987
v 63.32753 18.6 -175.7382
v 101.2281 18.6 -179.3194
v 64.909 18.6 -185.321
v 102.856 18.6 -189.1712
v 66.53697 18.6 -195.1728
v 104.5348 18.6 -199.3489
v 68.1141 18.6 -204.6988
v 105.8434 18.6 -209.5211
v 69.31032 18.6 -214.0403
v 107.0122 18.6 -219.3384
v 70.45863 18.6 -223.6893
v 108.1707 18.6 -229.0715
v 71.61714 18.6 -233.4224
v 109.3292 18.6 -238.8046
v 72.77567 18.6 -243.1555
v 109.6768 18.6 -241.7245
v 73.12322 18.6 -246.0755
v 107.4154 18.6 -252.6953
v 77.8966 18.6 -256.2089
v 101.5044 18.6 -257.8316
v 84.84811 18.6 -259.8142
v 19.03264 16.4 -47.04044
v 19.03264 -13.6 -47.04044
v 26.95557 16.4 -47.11405
v 26.95557 -13.6 -47.11405
v 26.95557 16.4 -47.11405
v 26.95557 -13.6 -47.11405
v 35.8992 16.4 -54.07558
v 35.8992 -13.6 -54.07558
v 35.8992 16.4 -54.07558
v 35.8992 -13.6 -54.07558
v 40.42718 17.14497 -60.87911
v 40.42718 -12.85503 -60.87911
v 40.42718 17.14497 -60.87911
v 40.42718 -12.85503 -60.87911
v 44.61841 18 -66.84018
v 44.61841 -12 -66.84018
v 44.61841 18 -66.84018
v 44.61841 -12 -66.84018
v 50.6452 18.07407 -72.5386
v 50.6452 -11.92593 -72.5386
v 50.6452 18.07407 -72.5386
v 50.6452 -11.92593 -72.5386
v 58.25466 18.14815 -79.86685
v 58.25466 -11.85185 -79.86685
v 58.25466 18.14815 -79.86685
v 58.25466 -11.85185 -79.86685
v 65.28249 18.27937 -87.60187
v 65.28249 -11.72063 -87.60187
v 65.28249 18.27937 -87.60187
v 65.28249 -11.72063 -87.60187
v 73.18228 18.41693 -96.63617
v 73.18228 -11.58307 -96.63617
v 73.18228 18.41693 -96.63617
v 73.18228 -11.58307 -96.63617
v 79.24949 18.50667 -107.6349
v 79.24949 -11.49333 -107.6349
v 79.24949 18.50667 -107.6349
v 79.24949 -11.49333 -107.6349
v 84.08182 18.58444 -118.0022
v 84.08182 -11.41556 -118.0022
v 84.08182 18.58444 -118.0022
v 84.08182 -11.41556 -118.0022
v 87.78441 18.6 -128.464
v 87.78441 -11.4 -128.464
v 87.78441 18.6 -128.464
v 87.78441 -11.4 -128.464
v 90.91751 18.6 -138.133
v 90.91751 -11.4 -138.133
v 90.91751 18.6 -138.133
v 90.91751 -11.4 -138.133
v 93.97707 18.6 -147.5797
v 93.97707 -11.4 -147.5797
v 93.97707 18.6 -147.5797
v 93.97707 -11.4 -147.5797
v 97.34495 18.6 -158.0858
v 97.34495 -11.4 -158.0858
v 97.34495 18.6 -158.0858
v 97.34495 -11.4 -158.0858
v 99.5536 18.6 -169.1987
v 99.5536 -11.4 -169.1987
v 99.5536 18.6 -169.1987
v 99.5536 -11.4 -169.1987
v 101.2281 18.6 -179.3194
v 101.2281 -11.4 -179.3194
v 101.2281 18.6 -179.3194
v 101.2281 -11.4 -179.3194
v 102.856 18.6 -189.1712
v 102.856 -11.4 -189.1712
v 102.856 18.6 -189.1712
v 102.856 -11.4 -189.1712
v 104.5348 18.6 -199.3489
v 104.5348 -11.4 -199.3489
v 104.5348 18.6 -199.3489
v 104.5348 -11.4 -199.3489
v 105.8434 18.6 -209.5211
v 105.8434 -11.4 -209.5211
v 105.8434 18.6 -209.5211
v 105.8434 -11.4 -209.5211
v 107.0122 18.6 -219.3384
v 107.0122 -11.4 -219.3384
v 107.0122 18.6 -219.3384
v 107.0122 -11.4 -219.3384
v 108.1707 18.6 -229.0715
v 108.1707 -11.4 -229.0715
v 108.1707 18.6 -229.0715
v 108.1707 -11.4 -229.0715
v 109.3292 18.6 -238.8046
v 109.3292 -11.4 -238.8046
v 109.3292 18.6 -238.8046
v 109.3292 -11.4 -238.8046
v 109.6768 18.6 -241.7245
v 109.6768 -11.4 -241.7245
v 109.6768 18.6 -241.7245
v 109.6768 -11.4 -241.7245
v 107.4154 18.6 -252.6953
v 107.4154 -11.4 -252.6953
v 107.4154 18.6 -252.6953
v 107.4154 -11.4 -252.6953
v 101.5044 18.6 -257.8316
v 101.5044 -11.4 -257.8316
v 4.907641 16.4 -56.44948
v 4.907641 -13.6 -56.44948
v 1.922814 16.4 -63.78902
v 1.922814 -13.6 -63.78902
v 1.922814 16.4 -63.78902
v 1.922814 -13.6 -63.78902
v 4.900801 16.4 -74.72443
v 4.900801 -13.6 -74.72443
v 4.900801 16.4 -74.72443
v 4.900801 -13.6 -74.72443
v 9.826189 17.14497 -82.11246
v 9.826189 -12.85503 -82.11246
v 9.826189 17.14497 -82.11246
v 9.826189 -12.85503 -82.11246
v 16.58159 18 -91.35982
v 16.58159 -12 -91.35982
v 16.58159 18 -91.35982
v 16.58159 -12 -91.35982
v 24.93958 18.07407 -99.41801
v 24.93958 -11.92593 -99.41801
v 24.93958 18.07407 -99.41801
v 24.93958 -11.92593 -99.41801
v 31.71491 18.14815 -105.8464
v 31.71491 -11.85185 -105.8464
v 31.71491 18.14815 -105.8464
v 31.71491 -11.85185 -105.8464
v 37.85965 18.27937 -112.5063
v 37.85965 -11.72063 -112.5063
v 37.85965 18.27937 -112.5063
v 37.85965 -11.72063 -112.5063
v 42.99774 18.41693 -117.9379
v 42.99774 -11.58307 -117.9379
v 42.99774 18.41693 -117.9379
v 42.99774 -11.58307 -117.9379
v 46.34307 18.50667 -124.2855
v 46.34307 -11.49333 -124.2855
v 46.34307 18.50667 -124.2855
v 46.34307 -11.49333 -124.2855
v 50.01694 18.58444 -131.9845
v 50.01694 -11.41556 -131.9845
v 50.01694 18.58444 -131.9845
v 50.01694 -11.41556 -131.9845
v 52.91087 18.6 -140.2508
v 52.91087 -11.4 -140.2508
v 52.91087 18.6 -140.2508
v 52.91087 -11.4 -140.2508
v 55.89686 18.6 -149.4753
v 55.89686 -11.4 -149.4753
v 55.89686 18.6 -149.4753
v 55.89686 -11.4 -149.4753
v 58.95641 18.6 -158.922
v 58.95641 -11.4 -158.922
v 58.95641 18.6 -158.922
v 58.95641 -11.4 -158.922
v 61.70762 18.6 -167.3094
v 61.70762 -11.4 -167.3094
v 61.70762 18.6 -167.3094
v 61.70762 -11.4 -167.3094
v 63.32753 18.6 -175.7382
v 63.32753 -11.4 -175.7382
v 63.32753 18.6 -175.7382
v 63.32753 -11.4 -175.7382
v 64.909 18.6 -185.321
v 64.909 -11.4 -185.321
v 64.909 18.6 -185.321
v 64.909 -11.4 -185.321
v 66.53697 18.6 -195.1728
v 66.53697 -11.4 -195.1728
v 66.53697 18.6 -195.1728
v 66.53697 -11.4 -195.1728
v 68.1141 18.6 -204.6988
v 68.1141 -11.4 -204.6988
v 68.1141 18.6 -204.6988
v 68.1141 -11.4 -204.6988
v 69.31032 18.6 -214.0403
v 69.31032 -11.4 -214.0403
v 69.31032 18.6 -214.0403
v 69.31032 -11.4 -214.0403
v 70.45863 18.6 -223.6893
v 70.45863 -11.4 -223.6893
v 70.45863 18.6 -223.6893
v 70.45863 -11.4 -223.6893
v 71.61714 18.6 -233.4224
v 71.61714 -11.4 -233.4224
v 71.61714 18.6 -233.4224
v 71.61714 -11.4 -233.4224
v 72.77567 18.6 -243.1555
v 72.77567 -11.4 -243.1555
v 72.77567 18.6 -243.1555
v 72.77567 -11.4 -243.1555
v 73.12322 18.6 -246.0755
v 73.12322 -11.4 -246.0755
v 73.12322 18.6 -246.0755
v 73.12322 -11.4 -246.0755
v 77.8966 18.6 -256.2089
v 77.8966 -11.4 -256.2089
v 77.8966 18.6 -256.2089
v 77.8966 -11.4 -256.2089
v 84.84811 18.6 -259.8142
v 84.84811 -11.4 -259.8142
vt -0.01015034 -0.04574447
vt -0.01280504 -0.02898147
vt -0.004726492 -0.05152029
vt -0.009431234 -0.02181239
vt 0.0064538 -0.05337838
vt 0.000627855 -0.01659069
vt 0.01452524 -0.05209674
vt 0.009398412 -0.01520512
vt 0.02174898 -0.05113846
vt 0.02077641 -0.013905
vt 0.03002364 -0.05170787
vt 0.03236617 -0.01458921
vt 0.04056935 -0.05233641
vt 0.04168487 -0.01521431
vt 0.05101996 -0.05226158
vt 0.05074649 -0.01521878
vt 0.06301691 -0.05194734
vt 0.05822265 -0.01531556
vt 0.07521626 -0.04895421
vt 0.06515726 -0.01347336
vt 0.0861144 -0.04548103
vt 0.0733083 -0.01095675
vt 0.09631634 -0.04111313
vt 0.08134782 -0.007482235
vt 0.1055494 -0.03686375
vt 0.09015427 -0.003426
vt 0.1145691 -0.03271097
vt 0.09917402 0.0007267928
vt 0.1245768 -0.02806691
vt 0.1072059 0.004388343
vt 0.134245 -0.02215927
vt 0.1145014 0.008909777
vt 0.1428216 -0.0165312
vt 0.1226195 0.01424164
vt 0.151169 -0.01105123
vt 0.1309668 0.01972161
vt 0.1597903 -0.005387836
vt 0.1390402 0.02501815
vt 0.1681569 0.0005441333
vt 0.1467197 0.03046972
vt 0.1761676 0.006338357
vt 0.1545928 0.03616491
vt 0.1841095 0.01208306
vt 0.1625347 0.04190962
vt 0.1920514 0.01782778
vt 0.1704767 0.04765433
vt 0.194434 0.01955119
vt 0.1728593 0.04937775
vt 0.2009681 0.02864935
vt 0.1835455 0.05273578
vt 0.2007387 0.03647679
vt 0.1909078 0.05006783
vt -0.01015034 -0.04574447
vt -0.01015034 -0.04574447
vt -0.004726492 -0.05152029
vt -0.004726492 -0.05152029
vt -0.004726492 -0.05152029
vt -0.004726492 -0.05152029
vt 0.0064538 -0.05337838
vt 0.0064538 -0.05337838
vt 0.0064538 -0.05337838
vt 0.0064538 -0.05337838
vt 0.01452524 -0.05209674
vt 0.01452524 -0.05209674
vt 0.01452524 -0.05209674
vt 0.01452524 -0.05209674
vt 0.02174898 -0.05113846
vt 0.02174898 -0.05113846
vt 0.02174898 -0.05113846
vt 0.02174898 -0.05113846
vt 0.03002364 -0.05170787
vt 0.03002364 -0.05170787
vt 0.03002364 -0.05170787
vt 0.03002364 -0.05170787
vt 0.04056935 -0.05233641
vt 0.04056935 -0.05233641
vt 0.04056935 -0.05233641
vt 0.04056935 -0.05233641
vt 0.05101996 -0.05226158
vt 0.05101996 -0.05226158
vt 0.05101996 -0.05226158
vt 0.05101996 -0.05226158
vt 0.06301691 -0.05194734
vt 0.06301691 -0.05194734
vt 0.06301691 -0.05194734
vt 0.06301691 -0.05194734
vt 0.07521626 -0.04895421
vt 0.07521626 -0.04895421
vt 0.07521626 -0.04895421
vt 0.07521626 -0.04895421
vt 0.0861144 -0.04548103
vt 0.0861144 -0.04548103
vt 0.0861144 -0.04548103
vt 0.0861144 -0.04548103
vt 0.09631634 -0.04111313
vt 0.09631634 -0.04111313
vt 0.09631634 -0.04111313
vt 0.09631634 -0.04111313
vt 0.1055494 -0.03686375
vt 0.1055494 -0.03686375
vt 0.1055494 -0.03686375
vt 0.1055494 -0.03686375
vt 0.1145691 -0.03271097
vt 0.1145691 -0.03271097
vt 0.1145691 -0.03271097
vt 0.1145691 -0.03271097
vt 0.1245768 -0.02806691
vt 0.1245768 -0.02806691
vt 0.1245768 -0.02806691
vt 0.1245768 -0.02806691
vt 0.134245 -0.02215927
vt 0.134245 -0.02215927
vt 0.134245 -0.02215927
vt 0.134245 -0.02215927
vt 0.1428216 -0.0165312
vt 0.1428216 -0.0165312
vt 0.1428216 -0.0165312
vt 0.1428216 -0.0165312
vt 0.151169 -0.01105123
vt 0.151169 -0.01105123
vt 0.151169 -0.01105123
vt 0.151169 -0.01105123
vt 0.1597903 -0.005387836
vt 0.1597903 -0.005387836
vt 0.1597903 -0.005387836
vt 0.1597903 -0.005387836
vt 0.1681569 0.0005441333
vt 0.1681569 0.0005441333
vt 0.1681569 0.0005441333
vt 0.1681569 0.0005441333
vt 0.1761676 0.006338357
vt 0.1761676 0.006338357
vt 0.1761676 0.006338357
vt 0.1761676 0.006338357
vt 0.1841095 0.01208306
vt 0.1841095 0.01208306
vt 0.1841095 0.01208306
vt 0.1841095 0.01208306
vt 0.1920514 0.01782778
vt 0.1920514 0.01782778
vt 0.1920514 0.01782778
vt 0.1920514 0.01782778
vt 0.194434 0.01955119
vt 0.194434 0.01955119
vt 0.194434 0.01955119
vt 0.194434 0.01955119
vt 0.2009681 0.02864935
vt 0.2009681 0.02864935
vt 0.2009681 0.02864935
vt 0.2009681 0.02864935
vt 0.2007387 0.03647679
vt 0.2007387 0.03647679
vt -0.01280504 -0.02898147
vt -0.01280504 -0.02898147
vt -0.009431234 -0.02181239
vt -0.009431234 -0.02181239
vt -0.009431234 -0.02181239
vt -0.009431234 -0.02181239
vt 0.000627855 -0.01659069
vt 0.000627855 -0.01659069
vt 0.000627855 -0.01659069
vt 0.000627855 -0.01659069
vt 0.009398412 -0.01520512
vt 0.009398412 -0.01520512
vt 0.009398412 -0.01520512
vt 0.009398412 -0.01520512
vt 0.02077641 -0.013905
vt 0.02077641 -0.013905
vt 0.02077641 -0.013905
vt 0.02077641 -0.013905
vt 0.03236617 -0.01458921
vt 0.03236617 -0.01458921
vt 0.03236617 -0.01458921
vt 0.03236617 -0.01458921
vt 0.04168487 -0.01521431
vt 0.04168487 -0.01521431
vt 0.04168487 -0.01521431
vt 0.04168487 -0.01521431
vt 0.05074649 -0.01521878
vt 0.05074649 -0.01521878
vt 0.05074649 -0.01521878
vt 0.05074649 -0.01521878
vt 0.05822265 -0.01531556
vt 0.05822265 -0.01531556
vt 0.05822265 -0.01531556
vt 0.05822265 -0.01531556
vt 0.06515726 -0.01347336
vt 0.06515726 -0.01347336
vt 0.06515726 -0.01347336
vt 0.06515726 -0.01347336
vt 0.0733083 -0.01095675
vt 0.0733083 -0.01095675
vt 0.0733083 -0.01095675
vt 0.0733083 -0.01095675
vt 0.08134782 -0.007482235
vt 0.08134782 -0.007482235
vt 0.08134782 -0.007482235
vt 0.08134782 -0.007482235
vt 0.09015427 -0.003426
vt 0.09015427 -0.003426
vt 0.09015427 -0.003426
vt 0.09015427 -0.003426
vt 0.09917402 0.0007267928
vt 0.09917402 0.0007267928
vt 0.09917402 0.0007267928
vt 0.09917402 0.0007267928
vt 0.1072059 0.004388343
vt 0.1072059 0.004388343
vt 0.1072059 0.004388343
vt 0.1072059 0.004388343
vt 0.1145014 0.008909777
vt 0.1145014 0.008909777
vt 0.1145014 0.008909777
vt 0.1145014 0.008909777
vt 0.1226195 0.01424164
vt 0.1226195 0.01424164
vt 0.1226195 0.01424164
vt 0.1226195 0.01424164
vt 0.1309668 0.01972161
vt 0.1309668 0.01972161
vt 0.1309668 0.01972161
vt 0.1309668 0.01972161
vt 0.1390402 0.02501815
vt 0.1390402 0.02501815
vt 0.1390402 0.02501815
vt 0.1390402 0.02501815
vt 0.1467197 0.03046972
vt 0.1467197 0.03046972
vt 0.1467197 0.03046972
vt 0.1467197 0.03046972
vt 0.1545928 0.03616491
vt 0.1545928 0.03616491
vt 0.1545928 0.03616491
vt 0.1545928 0.03616491
vt 0.1625347 0.04190962
vt 0.1625347 0.04190962
vt 0.1625347 0.04190962
vt 0.1625347 0.04190962
vt 0.1704767 0.04765433
vt 0.1704767 0.04765433
vt 0.1704767 0.04765433
vt 0.1704767 0.04765433
vt 0.1728593 0.04937775
vt 0.1728593 0.04937775
vt 0.1728593 0.04937775
vt 0.1728593 0.04937775
vt 0.1835455 0.05273578
vt 0.1835455 0.05273578
vt 0.1835455 0.05273578
vt 0.1835455 0.05273578
vt 0.1909078 0.05006783
vt 0.1909078 0.05006783
vn 0 1 0
vn 0 1 0
vn 0 1 0
vn 0 1 0
vn 0 1 0
vn 0 1 0
vn 0 1 0
vn 0 1 0
vn 0 1 0
vn 0 1 0
vn 0 1 0
vn 0 1 0
vn 0 1 0
vn 0 1 0
vn 0 1 0
vn 0 1 0
vn 0 1 0
vn 0 1 0
vn 0 1 0
vn 0 1 0
vn 0 1 0
vn 0 1 0
vn 0 1 0
vn 0 1 0
vn 0 1 0
vn 0 1 0
vn 0 1 0
vn 0 1 0
vn 0 1 0
vn 0 1 0
vn 0 1 0
vn 0 1 0
vn 0 1 0
vn 0 1 0
vn 0 1 0
vn 0 1 0
vn 0 1 0
vn 0 1 0
vn 0 1 0
vn 0 1 0
vn 0 1 0
vn 0 1 0
vn 0 1 0
vn 0 1 0
vn 0 1 0
vn 0 1 0
vn 0 1 0
vn 0 1 0
vn 0 1 0
vn 0 1 0
vn 0 1 0
vn 0 1 0
vn -0.5543891 0 0.8322576
vn -0.5543891 0 0.8322576
vn 0.009290638 0 0.9999568
vn 0.009290638 0 0.9999568
vn 0.6142359 0 0.7891225
vn 0.6142359 0 0.7891225
vn 0.6142359 0 0.7891225
vn 0.6142359 0 0.7891225
vn 0.8324853 0 0.5540471
vn 0.8324853 0 0.5540471
vn 0.8324853 0 0.5540471
vn 0.8324853 0 0.5540471
vn 0.8180389 0 0.5751629
vn 0.8180389 0 0.5751629
vn 0.8180389 0 0.5751629
vn 0.8180389 0 0.5751629
vn 0.6870341 0 0.7266251
vn 0.6870341 0 0.7266251
vn 0.6870341 0 0.7266251
vn 0.6870341 0 0.7266251
vn 0.6936727 0 0.7202904
vn 0.6936727 0 0.7202904
vn 0.6936727 0 0.7202904
vn 0.6936727 0 0.7202904
vn 0.7401308 0 0.672463
vn 0.7401308 0 0.672463
vn 0.7401308 0 0.672463
vn 0.7401308 0 0.672463
vn 0.7527922 0 0.6582583
vn 0.7527922 0 0.6582583
vn 0.7527922 0 0.6582583
vn 0.7527922 0 0.6582583
vn 0.8756133 0 0.4830129
vn 0.8756133 0 0.4830129
vn 0.8756133 0 0.4830129
vn 0.8756133 0 0.4830129
vn 0.9063755 0 0.422473
vn 0.9063755 0 0.422473
vn 0.9063755 0 0.422473
vn 0.9063755 0 0.422473
vn 0.9427015 0 0.3336372
vn 0.9427015 0 0.3336372
vn 0.9427015 0 0.3336372
vn 0.9427015 0 0.3336372
vn 0.9513037 0 0.3082553
vn 0.9513037 0 0.3082553
vn 0.9513037 0 0.3082553
vn 0.9513037 0 0.3082553
vn 0.9513483 0 0.3081174
vn 0.9513483 0 0.3081174
vn 0.9513483 0 0.3081174
vn 0.9513483 0 0.3081174
vn 0.952268 0 0.3052631
vn 0.952268 0 0.3052631
vn 0.952268 0 0.3052631
vn 0.952268 0 0.3052631
vn 0.9808161 0 0.1949357
vn 0.9808161 0 0.1949357
vn 0.9808161 0 0.1949357
vn 0.9808161 0 0.1949357
vn 0.9865882 0 0.163229
vn 0.9865882 0 0.163229
vn 0.9865882 0 0.163229
vn 0.9865882 0 0.163229
vn 0.9866203 0 0.1630347
vn 0.9866203 0 0.1630347
vn 0.9866203 0 0.1630347
vn 0.9866203 0 0.1630347
vn 0.986667 0 0.162752
vn 0.986667 0 0.162752
vn 0.986667 0 0.162752
vn 0.986667 0 0.162752
vn 0.9918267 0 0.1275929
vn 0.9918267 0 0.1275929
vn 0.9918267 0 0.1275929
vn 0.9918267 0 0.1275929
vn 0.9929881 0 0.1182147
vn 0.9929881 0 0.1182147
vn 0.9929881 0 0.1182147
vn 0.9929881 0 0.1182147
vn 0.9929906 0 0.118194
vn 0.9929906 0 0.118194
vn 0.9929906 0 0.118194
vn 0.9929906 0 0.118194
vn 0.9929905 0 0.1181946
vn 0.9929905 0 0.1181946
vn 0.9929905 0 0.1181946
vn 0.9929905 0 0.1181946
vn 0.9929905 0 0.1181946
vn 0.9929905 0 0.1181946
vn 0.9929905 0 0.1181946
vn 0.9929905 0 0.1181946
vn 0.9794098 0 -0.2018823
vn 0.9794098 0 -0.2018823
vn 0.9794098 0 -0.2018823
vn 0.9794098 0 -0.2018823
vn 0.6559093 0 -0.7548397
vn 0.6559093 0 -0.7548397
vn 0.1181959 0 -0.9929903
vn 0.1181959 0 -0.9929903
vn -0.5543891 0 0.8322576
vn -0.5543891 0 0.8322576
vn -0.9263285 0 0.3767168
vn -0.9263285 0 0.3767168
vn -0.9648622 0 -0.2627563
vn -0.9648622 0 -0.2627563
vn -0.9648622 0 -0.2627563
vn -0.9648622 0 -0.2627563
vn -0.8320485 0 -0.5547029
vn -0.8320485 0 -0.5547029
vn -0.8320485 0 -0.5547029
vn -0.8320485 0 -0.5547029
vn -0.8074861 0 -0.5898867
vn -0.8074861 0 -0.5898867
vn -0.8074861 0 -0.5898867
vn -0.8074861 0 -0.5898867
vn -0.6940778 0 -0.7199
vn -0.6940778 0 -0.7199
vn -0.6940778 0 -0.7199
vn -0.6940778 0 -0.7199
vn -0.6882879 0 -0.7254377
vn -0.6882879 0 -0.7254377
vn -0.6882879 0 -0.7254377
vn -0.6882879 0 -0.7254377
vn -0.7349634 0 -0.6781068
vn -0.7349634 0 -0.6781068
vn -0.7349634 0 -0.6781068
vn -0.7349634 0 -0.6781068
vn -0.7264632 0 -0.6872054
vn -0.7264632 0 -0.6872054
vn -0.7264632 0 -0.6872054
vn -0.7264632 0 -0.6872054
vn -0.8846584 0 -0.4662399
vn -0.8846584 0 -0.4662399
vn -0.8846584 0 -0.4662399
vn -0.8846584 0 -0.4662399
vn -0.9025124 0 -0.4306639
vn -0.9025124 0 -0.4306639
vn -0.9025124 0 -0.4306639
vn -0.9025124 0 -0.4306639
vn -0.9438319 0 -0.330426
vn -0.9438319 0 -0.330426
vn -0.9438319 0 -0.330426
vn -0.9438319 0 -0.330426
vn -0.951396 0 -0.3079702
vn -0.951396 0 -0.3079702
vn -0.951396 0 -0.3079702
vn -0.951396 0 -0.3079702
vn -0.9513486 0 -0.3081167
vn -0.9513486 0 -0.3081167
vn -0.9513486 0 -0.3081167
vn -0.9513486 0 -0.3081167
vn -0.9501877 0 -0.311678
vn -0.9501877 0 -0.311678
vn -0.9501877 0 -0.311678
vn -0.9501877 0 -0.311678
vn -0.9820281 0 -0.1887347
vn -0.9820281 0 -0.1887347
vn -0.9820281 0 -0.1887347
vn -0.9820281 0 -0.1887347
vn -0.9866543 0 -0.162829
vn -0.9866543 0 -0.162829
vn -0.9866543 0 -0.162829
vn -0.9866543 0 -0.162829
vn -0.9866203 0 -0.1630347
vn -0.9866203 0 -0.1630347
vn -0.9866203 0 -0.1630347
vn -0.9866203 0 -0.1630347
vn -0.9865704 0 -0.1633367
vn -0.9865704 0 -0.1633367
vn -0.9865704 0 -0.1633367
vn -0.9865704 0 -0.1633367
vn -0.9919004 0 -0.1270173
vn -0.9919004 0 -0.1270173
vn -0.9919004 0 -0.1270173
vn -0.9919004 0 -0.1270173
vn -0.9929929 0 -0.1181742
vn -0.9929929 0 -0.1181742
vn -0.9929929 0 -0.1181742
vn -0.9929929 0 -0.1181742
vn -0.9929906 0 -0.118194
vn -0.9929906 0 -0.118194
vn -0.9929906 0 -0.118194
vn -0.9929906 0 -0.118194
vn -0.9929905 0 -0.1181946
vn -0.9929905 0 -0.1181946
vn -0.9929905 0 -0.1181946
vn -0.9929905 0 -0.1181946
vn -0.9929905 0 -0.1181946
vn -0.9929905 0 -0.1181946
vn -0.9929905 0 -0.1181946
vn -0.9929905 0 -0.1181946
vn -0.9046569 0 -0.4261405
vn -0.9046569 0 -0.4261405
vn -0.9046569 0 -0.4261405
vn -0.9046569 0 -0.4261405
vn -0.4604008 0 -0.8877112
vn -0.4604008 0 -0.8877112
vn 0.1181959 0 -0.9929903
vn 0.1181959 0 -0.9929903
g _0
f 3/3/3 2/2/2 1/1/1
f 2/2/2 3/3/3 4/4/4
f 5/5/5 4/4/4 3/3/3
f 4/4/4 5/5/5 6/6/6
f 7/7/7 6/6/6 5/5/5
f 6/6/6 7/7/7 8/8/8
f 9/9/9 8/8/8 7/7/7
f 8/8/8 9/9/9 10/10/10
f 11/11/11 10/10/10 9/9/9
f 10/10/10 11/11/11 12/12/12
f 13/13/13 12/12/12 11/11/11
f 12/12/12 13/13/13 14/14/14
f 15/15/15 14/14/14 13/13/13
f 14/14/14 15/15/15 16/16/16
f 17/17/17 16/16/16 15/15/15
f 16/16/16 17/17/17 18/18/18
f 19/19/19 18/18/18 17/17/17
f 18/18/18 19/19/19 20/20/20
f 21/21/21 20/20/20 19/19/19
f 20/20/20 21/21/21 22/22/22
f 23/23/23 22/22/22 21/21/21
f 22/22/22 23/23/23 24/24/24
f 25/25/25 24/24/24 23/23/23
f 24/24/24 25/25/25 26/26/26
f 27/27/27 26/26/26 25/25/25
f 26/26/26 27/27/27 28/28/28
f 29/29/29 28/28/28 27/27/27
f 28/28/28 29/29/29 30/30/30
f 31/31/31 30/30/30 29/29/29
f 30/30/30 31/31/31 32/32/32
f 33/33/33 32/32/32 31/31/31
f 32/32/32 33/33/33 34/34/34
f 35/35/35 34/34/34 33/33/33
f 34/34/34 35/35/35 36/36/36
f 37/37/37 36/36/36 35/35/35
f 36/36/36 37/37/37 38/38/38
f 39/39/39 38/38/38 37/37/37
f 38/38/38 39/39/39 40/40/40
f 41/41/41 40/40/40 39/39/39
f 40/40/40 41/41/41 42/42/42
f 43/43/43 42/42/42 41/41/41
f 42/42/42 43/43/43 44/44/44
f 45/45/45 44/44/44 43/43/43
f 44/44/44 45/45/45 46/46/46
f 47/47/47 46/46/46 45/45/45
f 46/46/46 47/47/47 48/48/48
f 49/49/49 48/48/48 47/47/47
f 48/48/48 49/49/49 50/50/50
f 51/51/51 50/50/50 49/49/49
f 50/50/50 51/51/51 52/52/52
g _1
f 53/53/53 54/54/54 55/55/55
f 56/56/56 55/55/55 54/54/54
f 57/57/57 58/58/58 59/59/59
f 60/60/60 59/59/59 58/58/58
f 61/61/61 62/62/62 63/63/63
f 64/64/64 63/63/63 62/62/62
f 65/65/65 66/66/66 67/67/67
f 68/68/68 67/67/67 66/66/66
f 69/69/69 70/70/70 71/71/71
f 72/72/72 71/71/71 70/70/70
f 73/73/73 74/74/74 75/75/75
f 76/76/76 75/75/75 74/74/74
f 77/77/77 78/78/78 79/79/79
f 80/80/80 79/79/79 78/78/78
f 81/81/81 82/82/82 83/83/83
f 84/84/84 83/83/83 82/82/82
f 85/85/85 86/86/86 87/87/87
f 88/88/88 87/87/87 86/86/86
f 89/89/89 90/90/90 91/91/91
f 92/92/92 91/91/91 90/90/90
f 93/93/93 94/94/94 95/95/95
f 96/96/96 95/95/95 94/94/94
f 97/97/97 98/98/98 99/99/99
f 100/100/100 99/99/99 98/98/98
f 101/101/101 102/102/102 103/103/103
f 104/104/104 103/103/103 102/102/102
f 105/105/105 106/106/106 107/107/107
f 108/108/108 107/107/107 106/106/106
f 109/109/109 110/110/110 111/111/111
f 112/112/112 111/111/111 110/110/110
f 113/113/113 114/114/114 115/115/115
f 116/116/116 115/115/115 114/114/114
f 117/117/117 118/118/118 119/119/119
f 120/120/120 119/119/119 118/118/118
f 121/121/121 122/122/122 123/123/123
f 124/124/124 123/123/123 122/122/122
f 125/125/125 126/126/126 127/127/127
f 128/128/128 127/127/127 126/126/126
f 129/129/129 130/130/130 131/131/131
f 132/132/132 131/131/131 130/130/130
f 133/133/133 134/134/134 135/135/135
f 136/136/136 135/135/135 134/134/134
f 137/137/137 138/138/138 139/139/139
f 140/140/140 139/139/139 138/138/138
f 141/141/141 142/142/142 143/143/143
f 144/144/144 143/143/143 142/142/142
f 145/145/145 146/146/146 147/147/147
f 148/148/148 147/147/147 146/146/146
f 149/149/149 150/150/150 151/151/151
f 152/152/152 151/151/151 150/150/150
f 155/155/155 154/154/154 153/153/153
f 154/154/154 155/155/155 156/156/156
f 159/159/159 158/158/158 157/157/157
f 158/158/158 159/159/159 160/160/160
f 163/163/163 162/162/162 161/161/161
f 162/162/162 163/163/163 164/164/164
f 167/167/167 166/166/166 165/165/165
f 166/166/166 167/167/167 168/168/168
f 171/171/171 170/170/170 169/169/169
f 170/170/170 171/171/171 172/172/172
f 175/175/175 174/174/174 173/173/173
f 174/174/174 175/175/175 176/176/176
f 179/179/179 178/178/178 177/177/177
f 178/178/178 179/179/179 180/180/180
f 183/183/183 182/182/182 181/181/181
f 182/182/182 183/183/183 184/184/184
f 187/187/187 186/186/186 185/185/185
f 186/186/186 187/187/187 188/188/188
f 191/191/191 190/190/190 189/189/189
f 190/190/190 191/191/191 192/192/192
f 195/195/195 194/194/194 193/193/193
f 194/194/194 195/195/195 196/196/196
f 199/199/199 198/198/198 197/197/197
f 198/198/198 199/199/199 200/200/200
f 203/203/203 202/202/202 201/201/201
f 202/202/202 203/203/203 204/204/204
f 207/207/207 206/206/206 205/205/205
f 206/206/206 207/207/207 208/208/208
f 211/211/211 210/210/210 209/209/209
f 210/210/210 211/211/211 212/212/212
f 215/215/215 214/214/214 213/213/213
f 214/214/214 215/215/215 216/216/216
f 219/219/219 218/218/218 217/217/217
f 218/218/218 219/219/219 220/220/220
f 223/223/223 222/222/222 221/221/221
f 222/222/222 223/223/223 224/224/224
f 227/227/227 226/226/226 225/225/225
f 226/226/226 227/227/227 228/228/228
f 231/231/231 230/230/230 229/229/229
f 230/230/230 231/231/231 232/232/232
f 235/235/235 234/234/234 233/233/233
f 234/234/234 235/235/235 236/236/236
f 239/239/239 238/238/238 237/237/237
f 238/238/238 239/239/239 240/240/240
f 243/243/243 242/242/242 241/241/241
f 242/242/242 243/243/243 244/244/244
f 247/247/247 246/246/246 245/245/245
f 246/246/246 247/247/247 248/248/248
f 251/251/251 250/250/250 249/249/249
f 250/250/250 251/251/251 252/252/252
f 153/153/153 54/54/54 53/53/53
f 54/54/54 153/153/153 154/154/154
f 151/151/151 152/152/152 251/251/251
f 252/252/252 251/251/251 152/152/152
