g 
v 61.02 65.99245 2.09
v 61.02 50.36755 2.09
v 63.18 65.30325 5.100001
v 63.18 50.41676 5.100001
v 66.93 64.67324 8.89
v 66.93 49.78676 8.89
v 67.34 64.67324 8.88
v 67.34 49.78676 8.88
v 67.28 64.67324 7.99
v 67.28 49.78676 7.99
v 63.3 64.67324 2.64
v 63.3 49.78676 2.64
v 60.23 64.67324 -0.91
v 60.23 49.78676 -0.91
v 56.93 64.67324 -3.8
v 56.93 49.78676 -3.8
v 52.47 64.67324 -7.39
v 52.47 49.78676 -7.39
v 51.59 64.67324 -7.45
v 51.59 49.78676 -7.45
v 52.16 67.88324 -6.43
v 52.16 52.99676 -6.43
v 55.67 67.88324 -3.24
v 55.67 52.99676 -3.24
v 56.53 67.88324 -1.98
v 56.53 52.99676 -1.98
v 61.02 65.99245 2.09
v 61.02 50.36755 2.09
vt -0.6312 -0.0921
vt -0.6312 -0.0921
vt -0.6528 -0.06199999
vt -0.6528 -0.06199999
vt -0.6903 -0.0241
vt -0.6903 -0.0241
vt -0.6944 -0.0242
vt -0.6944 -0.0242
vt -0.6938 -0.03310001
vt -0.6938 -0.03310001
vt -0.654 -0.0866
vt -0.654 -0.0866
vt -0.6233 -0.1221
vt -0.6233 -0.1221
vt -0.5903 -0.151
vt -0.5903 -0.151
vt -0.5457 -0.1869
vt -0.5457 -0.1869
vt -0.5369 -0.1875
vt -0.5369 -0.1875
vt -0.5426 -0.1773
vt -0.5426 -0.1773
vt -0.5777 -0.1454
vt -0.5777 -0.1454
vt -0.5863 -0.1328
vt -0.5863 -0.1328
vt -0.6312 -0.0921
vt -0.6312 -0.0921
vn -0.8124555 0 0.5830233
vn -0.8124554 0 0.5830233
vn -0.7108476 0 0.7033461
vn -0.7108476 0 0.7033461
vn 0.02438379 0 0.9997026
vn 0.02438379 0 0.9997026
vn 0.9977354 0 -0.0672603
vn 0.9977354 0 -0.0672603
vn 0.8023334 0 -0.5968761
vn 0.8023334 0 -0.5968761
vn 0.7563918 0 -0.654119
vn 0.7563918 0 -0.654119
vn 0.6588274 0 -0.7522941
vn 0.6588274 0 -0.7522941
vn 0.6270353 0 -0.7789908
vn 0.6270353 0 -0.7789908
vn 0.06802373 0 -0.9976837
vn 0.06802373 0 -0.9976837
vn -0.8729436 0 0.4878212
vn -0.8729436 0 0.4878212
vn -0.672568 0 0.7400353
vn -0.672568 0 0.7400353
vn -0.8259497 0 0.5637438
vn -0.8259497 0 0.5637438
vn -0.6716042 0 0.7409101
vn -0.6716042 0 0.7409101
vn -0.6716042 0 0.7409101
vn -0.6716042 0 0.7409101
g _0
f 1/1/1 2/2/2 3/3/3
f 4/4/4 3/3/3 2/2/2
f 3/3/3 4/4/4 5/5/5
f 6/6/6 5/5/5 4/4/4
f 5/5/5 6/6/6 7/7/7
f 8/8/8 7/7/7 6/6/6
f 7/7/7 8/8/8 9/9/9
f 10/10/10 9/9/9 8/8/8
f 9/9/9 10/10/10 11/11/11
f 12/12/12 11/11/11 10/10/10
f 11/11/11 12/12/12 13/13/13
f 14/14/14 13/13/13 12/12/12
f 13/13/13 14/14/14 15/15/15
f 16/16/16 15/15/15 14/14/14
f 15/15/15 16/16/16 17/17/17
f 18/18/18 17/17/17 16/16/16
f 17/17/17 18/18/18 19/19/19
f 20/20/20 19/19/19 18/18/18
f 19/19/19 20/20/20 21/21/21
f 22/22/22 21/21/21 20/20/20
f 21/21/21 22/22/22 23/23/23
f 24/24/24 23/23/23 22/22/22
f 23/23/23 24/24/24 25/25/25
f 26/26/26 25/25/25 24/24/24
f 25/25/25 26/26/26 27/27/27
f 28/28/28 27/27/27 26/26/26
