g 
v 78.76581 36.8 -29.84824
v 78.76581 22.8 -29.84824
v 73.2088 36.8 -29.88684
v 73.2088 22.8 -29.88684
v 71.2934 36.8 -25.19102
v 71.2934 22.8 -25.19102
v 73.81004 36.8 -20.86498
v 73.81004 22.8 -20.86498
v 79.30262 36.8 -18.89385
v 79.30262 22.8 -18.89385
v 82.34292 36.8 -19.54767
v 82.34292 22.8 -19.54767
v 79.92993 36.8 -22.8674
v 79.92993 22.8 -22.8674
v 80.70554 36.8 -27.74017
v 80.70554 22.8 -27.74017
v 78.76581 36.8 -29.84824
v 78.76581 22.8 -29.84824
vt -0.8086581 -0.4114824
vt -0.8086581 -0.4114824
vt -0.753088 -0.4118684
vt -0.753088 -0.4118684
vt -0.7339339 -0.3649102
vt -0.7339339 -0.3649102
vt -0.7591003 -0.3216498
vt -0.7591003 -0.3216498
vt -0.8140262 -0.3019385
vt -0.8140262 -0.3019385
vt -0.8444291 -0.3084767
vt -0.8444291 -0.3084767
vt -0.8202993 -0.341674
vt -0.8202993 -0.341674
vt -0.8280553 -0.3904017
vt -0.8280553 -0.3904017
vt -0.8086581 -0.4114824
vt -0.8086581 -0.4114824
vn 0.006945497 0 -0.9999759
vn 0.006945497 0 -0.9999759
vn -0.9259341 0 -0.377685
vn -0.9259341 0 -0.377685
vn -0.864377 0 0.5028443
vn -0.864377 0 0.5028443
vn -0.3377787 0 0.9412255
vn -0.3377787 0 0.9412255
vn 0.2102446 0 0.9776488
vn 0.2102446 0 0.9776488
vn 0.8088939 0 -0.5879547
vn 0.8088939 0 -0.5879547
vn 0.987568 0 0.1571922
vn 0.987568 0 0.1571922
vn 0.7358783 0 -0.6771138
vn 0.7358783 0 -0.6771138
vn 0.7358783 0 -0.6771138
vn 0.7358783 0 -0.6771138
g _0
f 1/1/1 2/2/2 3/3/3
f 4/4/4 3/3/3 2/2/2
f 3/3/3 4/4/4 5/5/5
f 6/6/6 5/5/5 4/4/4
f 5/5/5 6/6/6 7/7/7
f 8/8/8 7/7/7 6/6/6
f 7/7/7 8/8/8 9/9/9
f 10/10/10 9/9/9 8/8/8
f 9/9/9 10/10/10 11/11/11
f 12/12/12 11/11/11 10/10/10
f 11/11/11 12/12/12 13/13/13
f 14/14/14 13/13/13 12/12/12
f 13/13/13 14/14/14 15/15/15
f 16/16/16 15/15/15 14/14/14
f 15/15/15 16/16/16 17/17/17
f 18/18/18 17/17/17 16/16/16
