g 
v 19.94134 -16.5 38.69423
v 63.55748 -16.5 103.1516
v -13.81391 -16.5 25.2517
v 63.48391 -16.5 139.485
v -63.85947 -16.5 39.27171
v 31.85947 -16.5 180.7283
v -69.66594 -16.47742 43.20074
v 26.05301 -16.47742 184.6573
v -76.11758 -16.45233 47.56636
v 19.60139 -16.45233 189.0229
v -82.56921 -16.42724 51.93198
v 13.14979 -16.42724 193.3885
v -89.02081 -16.38495 56.29755
v 6.698189 -16.38495 197.7541
v -95.47237 -16.33835 60.66311
v 0.2465591 -16.33835 202.1197
v -101.924 -16.29176 65.02869
v -6.205002 -16.29176 206.4853
v -108.3756 -16.26022 69.39431
v -12.6566 -16.26022 210.8508
v -114.8272 -16.23513 73.75986
v -19.1083 -16.23513 215.2165
v -121.2788 -16.21004 78.12545
v -25.55991 -16.21004 219.5821
v -123.8596 -16.2 79.8718
v -28.14041 -16.2 221.3282
v -155.4839 -16.2 121.1152
v -78.18594 -16.2 235.3483
v -155.5575 -16.2 157.4486
v -111.9412 -16.2 221.9059
v 19.94134 -16.5 38.69423
v 19.94134 -25.12 38.69423
v -13.81391 -16.5 25.2517
v -13.81391 -25.12 25.2517
v -13.81391 -16.5 25.2517
v -13.81391 -25.12 25.2517
v -63.85947 -16.5 39.27171
v -63.85947 -25.12 39.27171
v -63.85947 -16.5 39.27171
v -63.85947 -25.12 39.27171
v -69.66594 -16.47742 43.20074
v -69.66594 -25.09742 43.20074
v -69.66594 -16.47742 43.20074
v -69.66594 -25.09742 43.20074
v -76.11758 -16.45233 47.56636
v -76.11758 -25.07233 47.56636
v -76.11758 -16.45233 47.56636
v -76.11758 -25.07233 47.56636
v -82.56921 -16.42724 51.93198
v -82.56921 -25.04724 51.93198
v -82.56921 -16.42724 51.93198
v -82.56921 -25.04724 51.93198
v -89.02081 -16.38495 56.29755
v -89.02081 -25.00495 56.29755
v -89.02081 -16.38495 56.29755
v -89.02081 -25.00495 56.29755
v -95.47237 -16.33835 60.66311
v -95.47237 -24.95835 60.66311
v -95.47237 -16.33835 60.66311
v -95.47237 -24.95835 60.66311
v -101.924 -16.29176 65.02869
v -101.924 -24.91176 65.02869
v -101.924 -16.29176 65.02869
v -101.924 -24.91176 65.02869
v -108.3756 -16.26022 69.39431
v -108.3756 -24.88021 69.39431
v -108.3756 -16.26022 69.39431
v -108.3756 -24.88021 69.39431
v -114.8272 -16.23513 73.75986
v -114.8272 -24.85513 73.75986
v -114.8272 -16.23513 73.75986
v -114.8272 -24.85513 73.75986
v -121.2788 -16.21004 78.12545
v -121.2788 -24.83004 78.12545
v -121.2788 -16.21004 78.12545
v -121.2788 -24.83004 78.12545
v -123.8596 -16.2 79.8718
v -123.8596 -24.82 79.8718
v -123.8596 -16.2 79.8718
v -123.8596 -24.82 79.8718
v -155.4839 -16.2 121.1152
v -155.4839 -24.82 121.1152
v -155.4839 -16.2 121.1152
v -155.4839 -24.82 121.1152
v -155.5575 -16.2 157.4486
v -155.5575 -24.82 157.4486
v 63.55748 -16.5 103.1516
v 63.55748 -25.12 103.1516
v 63.48391 -16.5 139.485
v 63.48391 -25.12 139.485
v 63.48391 -16.5 139.485
v 63.48391 -25.12 139.485
v 31.85947 -16.5 180.7283
v 31.85947 -25.12 180.7283
v 31.85947 -16.5 180.7283
v 31.85947 -25.12 180.7283
v 26.05301 -16.47742 184.6573
v 26.05301 -25.09742 184.6573
v 26.05301 -16.47742 184.6573
v 26.05301 -25.09742 184.6573
v 19.60139 -16.45233 189.0229
v 19.60139 -25.07233 189.0229
v 19.60139 -16.45233 189.0229
v 19.60139 -25.07233 189.0229
v 13.14979 -16.42724 193.3885
v 13.14979 -25.04724 193.3885
v 13.14979 -16.42724 193.3885
v 13.14979 -25.04724 193.3885
v 6.698189 -16.38495 197.7541
v 6.698189 -25.00495 197.7541
v 6.698189 -16.38495 197.7541
v 6.698189 -25.00495 197.7541
v 0.2465591 -16.33835 202.1197
v 0.2465591 -24.95835 202.1197
v 0.2465591 -16.33835 202.1197
v 0.2465591 -24.95835 202.1197
v -6.205002 -16.29176 206.4853
v -6.205002 -24.91176 206.4853
v -6.205002 -16.29176 206.4853
v -6.205002 -24.91176 206.4853
v -12.6566 -16.26022 210.8508
v -12.6566 -24.88021 210.8508
v -12.6566 -16.26022 210.8508
v -12.6566 -24.88021 210.8508
v -19.1083 -16.23513 215.2165
v -19.1083 -24.85513 215.2165
v -19.1083 -16.23513 215.2165
v -19.1083 -24.85513 215.2165
v -25.55991 -16.21004 219.5821
v -25.55991 -24.83004 219.5821
v -25.55991 -16.21004 219.5821
v -25.55991 -24.83004 219.5821
v -28.14041 -16.2 221.3282
v -28.14041 -24.82 221.3282
v -28.14041 -16.2 221.3282
v -28.14041 -24.82 221.3282
v -78.18594 -16.2 235.3483
v -78.18594 -24.82 235.3483
v -78.18594 -16.2 235.3483
v -78.18594 -24.82 235.3483
v -111.9412 -16.2 221.9059
v -111.9412 -24.82 221.9059
vt -0.09794567 -0.06225035
vt -0.08694343 -0.1392962
vt -0.1224116 -0.0353889
vt -0.1029131 -0.1719319
vt -0.173545 -0.026089
vt -0.1493998 -0.1951721
vt -0.1804855 -0.0270801
vt -0.1563403 -0.1961632
vt -0.1881972 -0.02818134
vt -0.1640519 -0.1972644
vt -0.1959088 -0.02928258
vt -0.1717635 -0.1983657
vt -0.2036204 -0.0303838
vt -0.1794751 -0.1994669
vt -0.211332 -0.03148502
vt -0.1871867 -0.2005681
vt -0.2190436 -0.03258624
vt -0.1948983 -0.2016693
vt -0.2267552 -0.03368748
vt -0.2026099 -0.2027706
vt -0.2344668 -0.03478869
vt -0.2103216 -0.2038718
vt -0.2421784 -0.03588991
vt -0.2180332 -0.204973
vt -0.2452632 -0.03633044
vt -0.2211177 -0.2054135
vt -0.2917499 -0.05957067
vt -0.2722512 -0.1961137
vt -0.3077195 -0.0922064
vt -0.2967171 -0.1692523
vt -0.09794567 -0.06225035
vt -0.09794567 -0.06225035
vt -0.1224116 -0.0353889
vt -0.1224116 -0.0353889
vt -0.1224116 -0.0353889
vt -0.1224116 -0.0353889
vt -0.173545 -0.026089
vt -0.173545 -0.026089
vt -0.173545 -0.026089
vt -0.173545 -0.026089
vt -0.1804855 -0.0270801
vt -0.1804855 -0.0270801
vt -0.1804855 -0.0270801
vt -0.1804855 -0.0270801
vt -0.1881972 -0.02818134
vt -0.1881972 -0.02818134
vt -0.1881972 -0.02818134
vt -0.1881972 -0.02818134
vt -0.1959088 -0.02928258
vt -0.1959088 -0.02928258
vt -0.1959088 -0.02928258
vt -0.1959088 -0.02928258
vt -0.2036204 -0.0303838
vt -0.2036204 -0.0303838
vt -0.2036204 -0.0303838
vt -0.2036204 -0.0303838
vt -0.211332 -0.03148502
vt -0.211332 -0.03148502
vt -0.211332 -0.03148502
vt -0.211332 -0.03148502
vt -0.2190436 -0.03258624
vt -0.2190436 -0.03258624
vt -0.2190436 -0.03258624
vt -0.2190436 -0.03258624
vt -0.2267552 -0.03368748
vt -0.2267552 -0.03368748
vt -0.2267552 -0.03368748
vt -0.2267552 -0.03368748
vt -0.2344668 -0.03478869
vt -0.2344668 -0.03478869
vt -0.2344668 -0.03478869
vt -0.2344668 -0.03478869
vt -0.2421784 -0.03588991
vt -0.2421784 -0.03588991
vt -0.2421784 -0.03588991
vt -0.2421784 -0.03588991
vt -0.2452632 -0.03633044
vt -0.2452632 -0.03633044
vt -0.2452632 -0.03633044
vt -0.2452632 -0.03633044
vt -0.2917499 -0.05957067
vt -0.2917499 -0.05957067
vt -0.2917499 -0.05957067
vt -0.2917499 -0.05957067
vt -0.3077195 -0.0922064
vt -0.3077195 -0.0922064
vt -0.08694343 -0.1392962
vt -0.08694343 -0.1392962
vt -0.1029131 -0.1719319
vt -0.1029131 -0.1719319
vt -0.1029131 -0.1719319
vt -0.1029131 -0.1719319
vt -0.1493998 -0.1951721
vt -0.1493998 -0.1951721
vt -0.1493998 -0.1951721
vt -0.1493998 -0.1951721
vt -0.1563403 -0.1961632
vt -0.1563403 -0.1961632
vt -0.1563403 -0.1961632
vt -0.1563403 -0.1961632
vt -0.1640519 -0.1972644
vt -0.1640519 -0.1972644
vt -0.1640519 -0.1972644
vt -0.1640519 -0.1972644
vt -0.1717635 -0.1983657
vt -0.1717635 -0.1983657
vt -0.1717635 -0.1983657
vt -0.1717635 -0.1983657
vt -0.1794751 -0.1994669
vt -0.1794751 -0.1994669
vt -0.1794751 -0.1994669
vt -0.1794751 -0.1994669
vt -0.1871867 -0.2005681
vt -0.1871867 -0.2005681
vt -0.1871867 -0.2005681
vt -0.1871867 -0.2005681
vt -0.1948983 -0.2016693
vt -0.1948983 -0.2016693
vt -0.1948983 -0.2016693
vt -0.1948983 -0.2016693
vt -0.2026099 -0.2027706
vt -0.2026099 -0.2027706
vt -0.2026099 -0.2027706
vt -0.2026099 -0.2027706
vt -0.2103216 -0.2038718
vt -0.2103216 -0.2038718
vt -0.2103216 -0.2038718
vt -0.2103216 -0.2038718
vt -0.2180332 -0.204973
vt -0.2180332 -0.204973
vt -0.2180332 -0.204973
vt -0.2180332 -0.204973
vt -0.2211177 -0.2054135
vt -0.2211177 -0.2054135
vt -0.2211177 -0.2054135
vt -0.2211177 -0.2054135
vt -0.2722512 -0.1961137
vt -0.2722512 -0.1961137
vt -0.2722512 -0.1961137
vt -0.2722512 -0.1961137
vt -0.2967171 -0.1692523
vt -0.2967171 -0.1692523
vn 0 1 0
vn 0 1 0
vn 0 1 0
vn 0 1 0
vn 0 1 0
vn 0 1 0
vn 0 1 0
vn 0 1 0
vn 0 1 0
vn 0 1 0
vn 0 1 0
vn 0 1 0
vn 0 1 0
vn 0 1 0
vn 0 1 0
vn 0 1 0
vn 0 1 0
vn 0 1 0
vn 0 1 0
vn 0 1 0
vn 0 1 0
vn 0 1 0
vn 0 1 0
vn 0 1 0
vn 0 1 0
vn 0 1 0
vn 0 1 0
vn 0 1 0
vn 0 1 0
vn 0 1 0
vn 0.8282081 0 -0.5604208
vn 0.8282081 0 -0.5604208
vn 0.3699768 0 -0.929041
vn 0.3699768 0 -0.929041
vn -0.2697592 0 -0.9629278
vn -0.2697592 0 -0.9629278
vn -0.2697592 0 -0.9629278
vn -0.2697592 0 -0.9629278
vn -0.5604203 0 -0.8282084
vn -0.5604203 0 -0.8282084
vn -0.5604203 0 -0.8282084
vn -0.5604203 0 -0.8282084
vn -0.5604215 0 -0.8282076
vn -0.5604215 0 -0.8282076
vn -0.5604215 0 -0.8282076
vn -0.5604215 0 -0.8282076
vn -0.5604215 0 -0.8282076
vn -0.5604215 0 -0.8282076
vn -0.5604215 0 -0.8282076
vn -0.5604215 0 -0.8282076
vn -0.5604203 0 -0.8282083
vn -0.5604203 0 -0.8282083
vn -0.5604203 0 -0.8282083
vn -0.5604203 0 -0.8282083
vn -0.5604211 0 -0.8282079
vn -0.5604211 0 -0.8282079
vn -0.5604211 0 -0.8282079
vn -0.5604211 0 -0.8282079
vn -0.5604201 0 -0.8282084
vn -0.5604201 0 -0.8282084
vn -0.5604201 0 -0.8282084
vn -0.5604201 0 -0.8282084
vn -0.5604219 0 -0.8282073
vn -0.5604219 0 -0.8282073
vn -0.5604219 0 -0.8282073
vn -0.5604219 0 -0.8282073
vn -0.5604204 0 -0.8282083
vn -0.5604204 0 -0.8282083
vn -0.5604204 0 -0.8282083
vn -0.5604204 0 -0.8282083
vn -0.5604199 0 -0.8282086
vn -0.5604199 0 -0.8282086
vn -0.5604199 0 -0.8282086
vn -0.5604199 0 -0.8282086
vn -0.5604212 0 -0.8282077
vn -0.5604212 0 -0.8282077
vn -0.5604212 0 -0.8282077
vn -0.5604212 0 -0.8282077
vn -0.7935653 0 -0.608485
vn -0.7935653 0 -0.608485
vn -0.7935653 0 -0.608485
vn -0.7935653 0 -0.608485
vn -0.999998 0 -0.002023393
vn -0.999998 0 -0.002023393
vn -0.8282072 0 0.560422
vn -0.8282072 0 0.560422
vn 0.8282081 0 -0.5604208
vn 0.8282081 0 -0.5604208
vn 0.999998 0 0.002025073
vn 0.999998 0 0.002025073
vn 0.7935642 0 0.6084866
vn 0.7935642 0 0.6084866
vn 0.7935642 0 0.6084866
vn 0.7935642 0 0.6084866
vn 0.5604202 0 0.8282084
vn 0.5604202 0 0.8282084
vn 0.5604202 0 0.8282084
vn 0.5604202 0 0.8282084
vn 0.5604201 0 0.8282084
vn 0.5604201 0 0.8282084
vn 0.5604201 0 0.8282084
vn 0.5604201 0 0.8282084
vn 0.5604221 0 0.8282072
vn 0.5604221 0 0.8282072
vn 0.5604221 0 0.8282072
vn 0.5604221 0 0.8282072
vn 0.560421 0 0.8282079
vn 0.560421 0 0.8282079
vn 0.560421 0 0.8282079
vn 0.560421 0 0.8282079
vn 0.5604192 0 0.828209
vn 0.5604193 0 0.8282091
vn 0.5604193 0 0.8282091
vn 0.5604193 0 0.8282091
vn 0.560422 0 0.8282073
vn 0.560422 0 0.8282073
vn 0.560422 0 0.8282073
vn 0.560422 0 0.8282073
vn 0.5604212 0 0.8282077
vn 0.5604213 0 0.8282077
vn 0.5604213 0 0.8282077
vn 0.5604213 0 0.8282077
vn 0.5604203 0 0.8282083
vn 0.5604203 0 0.8282083
vn 0.5604203 0 0.8282083
vn 0.5604203 0 0.8282083
vn 0.560419 0 0.8282092
vn 0.560419 0 0.8282092
vn 0.560419 0 0.8282092
vn 0.560419 0 0.8282092
vn 0.5604247 0 0.8282053
vn 0.5604247 0 0.8282053
vn 0.5604247 0 0.8282053
vn 0.5604247 0 0.8282053
vn 0.269761 0 0.9629273
vn 0.269761 0 0.9629273
vn 0.269761 0 0.9629273
vn 0.269761 0 0.9629273
vn -0.3699749 0 0.9290417
vn -0.3699749 0 0.9290417
vn -0.8282072 0 0.560422
vn -0.8282072 0 0.560422
g _0
f 3/3/3 2/2/2 1/1/1
f 2/2/2 3/3/3 4/4/4
f 5/5/5 4/4/4 3/3/3
f 4/4/4 5/5/5 6/6/6
f 7/7/7 6/6/6 5/5/5
f 6/6/6 7/7/7 8/8/8
f 9/9/9 8/8/8 7/7/7
f 8/8/8 9/9/9 10/10/10
f 11/11/11 10/10/10 9/9/9
f 10/10/10 11/11/11 12/12/12
f 13/13/13 12/12/12 11/11/11
f 12/12/12 13/13/13 14/14/14
f 15/15/15 14/14/14 13/13/13
f 14/14/14 15/15/15 16/16/16
f 17/17/17 16/16/16 15/15/15
f 16/16/16 17/17/17 18/18/18
f 19/19/19 18/18/18 17/17/17
f 18/18/18 19/19/19 20/20/20
f 21/21/21 20/20/20 19/19/19
f 20/20/20 21/21/21 22/22/22
f 23/23/23 22/22/22 21/21/21
f 22/22/22 23/23/23 24/24/24
f 25/25/25 24/24/24 23/23/23
f 24/24/24 25/25/25 26/26/26
f 27/27/27 26/26/26 25/25/25
f 26/26/26 27/27/27 28/28/28
f 29/29/29 28/28/28 27/27/27
f 28/28/28 29/29/29 30/30/30
g _1
f 31/31/31 32/32/32 33/33/33
f 34/34/34 33/33/33 32/32/32
f 35/35/35 36/36/36 37/37/37
f 38/38/38 37/37/37 36/36/36
f 39/39/39 40/40/40 41/41/41
f 42/42/42 41/41/41 40/40/40
f 43/43/43 44/44/44 45/45/45
f 46/46/46 45/45/45 44/44/44
f 47/47/47 48/48/48 49/49/49
f 50/50/50 49/49/49 48/48/48
f 51/51/51 52/52/52 53/53/53
f 54/54/54 53/53/53 52/52/52
f 55/55/55 56/56/56 57/57/57
f 58/58/58 57/57/57 56/56/56
f 59/59/59 60/60/60 61/61/61
f 62/62/62 61/61/61 60/60/60
f 63/63/63 64/64/64 65/65/65
f 66/66/66 65/65/65 64/64/64
f 67/67/67 68/68/68 69/69/69
f 70/70/70 69/69/69 68/68/68
f 71/71/71 72/72/72 73/73/73
f 74/74/74 73/73/73 72/72/72
f 75/75/75 76/76/76 77/77/77
f 78/78/78 77/77/77 76/76/76
f 79/79/79 80/80/80 81/81/81
f 82/82/82 81/81/81 80/80/80
f 83/83/83 84/84/84 85/85/85
f 86/86/86 85/85/85 84/84/84
f 89/89/89 88/88/88 87/87/87
f 88/88/88 89/89/89 90/90/90
f 93/93/93 92/92/92 91/91/91
f 92/92/92 93/93/93 94/94/94
f 97/97/97 96/96/96 95/95/95
f 96/96/96 97/97/97 98/98/98
f 101/101/101 100/100/100 99/99/99
f 100/100/100 101/101/101 102/102/102
f 105/105/105 104/104/104 103/103/103
f 104/104/104 105/105/105 106/106/106
f 109/109/109 108/108/108 107/107/107
f 108/108/108 109/109/109 110/110/110
f 113/113/113 112/112/112 111/111/111
f 112/112/112 113/113/113 114/114/114
f 117/117/117 116/116/116 115/115/115
f 116/116/116 117/117/117 118/118/118
f 121/121/121 120/120/120 119/119/119
f 120/120/120 121/121/121 122/122/122
f 125/125/125 124/124/124 123/123/123
f 124/124/124 125/125/125 126/126/126
f 129/129/129 128/128/128 127/127/127
f 128/128/128 129/129/129 130/130/130
f 133/133/133 132/132/132 131/131/131
f 132/132/132 133/133/133 134/134/134
f 137/137/137 136/136/136 135/135/135
f 136/136/136 137/137/137 138/138/138
f 141/141/141 140/140/140 139/139/139
f 140/140/140 141/141/141 142/142/142
f 87/87/87 32/32/32 31/31/31
f 32/32/32 87/87/87 88/88/88
f 85/85/85 86/86/86 141/141/141
f 142/142/142 141/141/141 86/86/86
