g 
v 19.98121 108.4166 -106.7945
v 19.98121 94.41657 -106.7945
v 23.8282 108.4166 -106.3942
v 23.8282 94.41657 -106.3942
v 24.97123 108.4166 -107.3548
v 24.97123 94.41657 -107.3548
v 27.27328 108.4166 -105.3482
v 27.27328 94.41657 -105.3482
v 25.46853 108.4166 -103.1841
v 25.46853 94.41657 -103.1841
v 23.59508 108.4166 -104.2754
v 23.59508 94.41657 -104.2754
v 20.26163 108.4166 -103.675
v 20.26163 94.41657 -103.675
v 18.68574 108.4166 -106.2901
v 18.68574 94.41657 -106.2901
v 19.98121 108.4166 -106.7945
v 19.98121 94.41657 -106.7945
vt 0.6277429 -0.5803894
vt 0.6277429 -0.5803894
vt 0.589273 -0.5763858
vt 0.589273 -0.5763858
vt 0.5778427 -0.5859921
vt 0.5778427 -0.5859921
vt 0.5548222 -0.565926
vt 0.5548222 -0.565926
vt 0.5728697 -0.5442845
vt 0.5728697 -0.5442845
vt 0.5916042 -0.5551982
vt 0.5916042 -0.5551982
vt 0.6249387 -0.5491937
vt 0.6249387 -0.5491937
vt 0.6406975 -0.5753454
vt 0.6406975 -0.5753454
vt 0.6277429 -0.5803894
vt 0.6277429 -0.5803894
vn 0.1035118 0 -0.9946283
vn 0.1035118 0 -0.9946283
vn -0.6433852 0 -0.7655426
vn -0.6433852 0 -0.7655426
vn 0.6570796 0 -0.7538212
vn 0.6570796 0 -0.7538212
vn 0.7679968 0 0.6404536
vn 0.7679968 0 0.6404536
vn -0.5033619 0 0.8640757
vn -0.5033619 0 0.8640757
vn 0.1772755 0 0.9841613
vn 0.1772755 0 0.9841613
vn -0.8565102 0 0.51613
vn -0.8565102 0 0.51613
vn -0.3628278 0 -0.9318562
vn -0.3628278 0 -0.9318562
vn -0.3628278 0 -0.9318562
vn -0.3628278 0 -0.9318562
g _0
f 3/3/3 2/2/2 1/1/1
f 2/2/2 3/3/3 4/4/4
f 5/5/5 4/4/4 3/3/3
f 4/4/4 5/5/5 6/6/6
f 7/7/7 6/6/6 5/5/5
f 6/6/6 7/7/7 8/8/8
f 9/9/9 8/8/8 7/7/7
f 8/8/8 9/9/9 10/10/10
f 11/11/11 10/10/10 9/9/9
f 10/10/10 11/11/11 12/12/12
f 13/13/13 12/12/12 11/11/11
f 12/12/12 13/13/13 14/14/14
f 15/15/15 14/14/14 13/13/13
f 14/14/14 15/15/15 16/16/16
f 17/17/17 16/16/16 15/15/15
f 16/16/16 17/17/17 18/18/18
