g 
v 82.2579 18.13 20.87191
v 84.03032 18.13 25.24126
v 80.50637 18.13 19.79479
v 83.52416 18.13 27.23421
v 77.34329 18.13 19.82101
v 81.23671 18.13 29.41899
v 73.36486 21.80978 22.16265
v 72.41129 21.80978 32.27121
v 70.58434 23.84 20.13311
v 62.03474 23.84 26.65794
v 71.00282 23.84 16.09135
v 59.37718 23.84 18.16864
v 69.44872 23.84 12.83125
v 59.70613 23.84 14.57208
v 66.99095 23.84 11.80499
v 61.6564 23.84 12.75821
v 82.2579 18.13 20.87191
v 82.2579 8.129999 20.87191
v 80.50637 18.13 19.79479
v 80.50637 8.129999 19.79479
v 80.50637 18.13 19.79479
v 80.50637 8.129999 19.79479
v 77.34329 18.13 19.82101
v 77.34329 8.129999 19.82101
v 77.34329 18.13 19.82101
v 77.34329 8.129999 19.82101
v 73.36486 21.80978 22.16265
v 73.36486 11.80978 22.16265
v 73.36486 21.80978 22.16265
v 73.36486 11.80978 22.16265
v 70.58434 23.84 20.13311
v 70.58434 13.84 20.13311
v 70.58434 23.84 20.13311
v 70.58434 13.84 20.13311
v 71.00282 23.84 16.09135
v 71.00282 13.84 16.09135
v 71.00282 23.84 16.09135
v 71.00282 13.84 16.09135
v 69.44872 23.84 12.83125
v 69.44872 13.84 12.83125
v 69.44872 23.84 12.83125
v 69.44872 13.84 12.83125
v 66.99095 23.84 11.80499
v 66.99095 13.84 11.80499
v 84.03032 18.13 25.24126
v 84.03032 8.129999 25.24126
v 83.52416 18.13 27.23421
v 83.52416 8.129999 27.23421
v 83.52416 18.13 27.23421
v 83.52416 8.129999 27.23421
v 81.23671 18.13 29.41899
v 81.23671 8.129999 29.41899
v 81.23671 18.13 29.41899
v 81.23671 8.129999 29.41899
v 72.41129 21.80978 32.27121
v 72.41129 11.80978 32.27121
v 72.41129 21.80978 32.27121
v 72.41129 11.80978 32.27121
v 62.03474 23.84 26.65794
v 62.03474 13.84 26.65794
v 62.03474 23.84 26.65794
v 62.03474 13.84 26.65794
v 59.37718 23.84 18.16864
v 59.37718 13.84 18.16864
v 59.37718 23.84 18.16864
v 59.37718 13.84 18.16864
v 59.70613 23.84 14.57208
v 59.70613 13.84 14.57208
v 59.70613 23.84 14.57208
v 59.70613 13.84 14.57208
v 61.6564 23.84 12.75821
v 61.6564 13.84 12.75821
vt -0.09588908 0.04391555
vt -0.0998558 0.04646464
vt -0.09383692 0.04404483
vt -0.1005908 0.04838501
vt -0.09126716 0.04588931
vt -0.09998071 0.05148879
vt -0.08936561 0.0500959
vt -0.09441248 0.05890619
vt -0.08592364 0.05003992
vt -0.08269752 0.06029961
vt -0.08393613 0.0464958
vt -0.07563292 0.05489386
vt -0.08078714 0.04472737
vt -0.07382884 0.05176516
vt -0.07818717 0.04530526
vt -0.07437716 0.04915882
vt -0.09588908 0.04391555
vt -0.09588908 0.04391555
vt -0.09383692 0.04404483
vt -0.09383692 0.04404483
vt -0.09383692 0.04404483
vt -0.09383692 0.04404483
vt -0.09126716 0.04588931
vt -0.09126716 0.04588931
vt -0.09126716 0.04588931
vt -0.09126716 0.04588931
vt -0.08936561 0.0500959
vt -0.08936561 0.0500959
vt -0.08936561 0.0500959
vt -0.08936561 0.0500959
vt -0.08592364 0.05003992
vt -0.08592364 0.05003992
vt -0.08592364 0.05003992
vt -0.08592364 0.05003992
vt -0.08393613 0.0464958
vt -0.08393613 0.0464958
vt -0.08393613 0.0464958
vt -0.08393613 0.0464958
vt -0.08078714 0.04472737
vt -0.08078714 0.04472737
vt -0.08078714 0.04472737
vt -0.08078714 0.04472737
vt -0.07818717 0.04530526
vt -0.07818717 0.04530526
vt -0.0998558 0.04646464
vt -0.0998558 0.04646464
vt -0.1005908 0.04838501
vt -0.1005908 0.04838501
vt -0.1005908 0.04838501
vt -0.1005908 0.04838501
vt -0.09998071 0.05148879
vt -0.09998071 0.05148879
vt -0.09998071 0.05148879
vt -0.09998071 0.05148879
vt -0.09441248 0.05890619
vt -0.09441248 0.05890619
vt -0.09441248 0.05890619
vt -0.09441248 0.05890619
vt -0.08269752 0.06029961
vt -0.08269752 0.06029961
vt -0.08269752 0.06029961
vt -0.08269752 0.06029961
vt -0.07563292 0.05489386
vt -0.07563292 0.05489386
vt -0.07563292 0.05489386
vt -0.07563292 0.05489386
vt -0.07382884 0.05176516
vt -0.07382884 0.05176516
vt -0.07382884 0.05176516
vt -0.07382884 0.05176516
vt -0.07437716 0.04915882
vt -0.07437716 0.04915882
vn 0 1 0
vn 0 1 0
vn 0 1 0
vn 0 1 0
vn 0 1 0
vn 0 1 0
vn 0 1 0
vn 0 1 0
vn 0 1 0
vn 0 1 0
vn 0 1 0
vn 0 1 0
vn 0 1 0
vn 0 1 0
vn 0 1 0
vn 0 1 0
vn 0.9266612 0 -0.3758976
vn 0.9266612 0 -0.3758976
vn 0.5238346 0 -0.8518201
vn 0.5238346 0 -0.8518201
vn -0.008288607 0 -0.9999656
vn -0.008288607 0 -0.9999656
vn -0.008288607 0 -0.9999656
vn -0.008288607 0 -0.9999656
vn -0.5072445 0 -0.8618022
vn -0.5072445 0 -0.8618022
vn -0.5072445 0 -0.8618022
vn -0.5072445 0 -0.8618022
vn 0.5895666 0 -0.8077198
vn 0.5895666 0 -0.8077198
vn 0.5895666 0 -0.8077198
vn 0.5895666 0 -0.8077198
vn 0.9946826 0 0.1029885
vn 0.9946826 0 0.1029885
vn 0.9946826 0 0.1029885
vn 0.9946826 0 0.1029885
vn 0.9026803 0 -0.4303118
vn 0.9026803 0 -0.4303118
vn 0.9026803 0 -0.4303118
vn 0.9026803 0 -0.4303118
vn 0.3853145 0 -0.9227853
vn 0.3853145 0 -0.9227853
vn -0.1759003 0 -0.984408
vn -0.1759003 0 -0.984408
vn 0.9266612 0 -0.3758976
vn 0.9266612 0 -0.3758976
vn 0.9692295 0 0.2461588
vn 0.9692295 0 0.2461588
vn 0.6906918 0 0.7231492
vn 0.6906918 0 0.7231492
vn 0.6906918 0 0.7231492
vn 0.6906918 0 0.7231492
vn 0.3075213 0 0.9515412
vn 0.3075213 0 0.9515412
vn 0.3075213 0 0.9515412
vn 0.3075213 0 0.9515412
vn -0.4758011 0 0.879553
vn -0.4758011 0 0.879553
vn -0.4758011 0 0.879553
vn -0.4758011 0 0.879553
vn -0.9543309 0 0.2987517
vn -0.9543309 0 0.2987517
vn -0.9543309 0 0.2987517
vn -0.9543309 0 0.2987517
vn -0.9958435 0 -0.09108078
vn -0.9958435 0 -0.09108078
vn -0.9958435 0 -0.09108078
vn -0.9958435 0 -0.09108078
vn -0.6810371 0 -0.7322489
vn -0.6810371 0 -0.7322489
vn -0.1759003 0 -0.984408
vn -0.1759003 0 -0.984408
g _0
f 3/3/3 2/2/2 1/1/1
f 2/2/2 3/3/3 4/4/4
f 5/5/5 4/4/4 3/3/3
f 4/4/4 5/5/5 6/6/6
f 7/7/7 6/6/6 5/5/5
f 6/6/6 7/7/7 8/8/8
f 9/9/9 8/8/8 7/7/7
f 8/8/8 9/9/9 10/10/10
f 11/11/11 10/10/10 9/9/9
f 10/10/10 11/11/11 12/12/12
f 13/13/13 12/12/12 11/11/11
f 12/12/12 13/13/13 14/14/14
f 15/15/15 14/14/14 13/13/13
f 14/14/14 15/15/15 16/16/16
g _1
f 17/17/17 18/18/18 19/19/19
f 20/20/20 19/19/19 18/18/18
f 21/21/21 22/22/22 23/23/23
f 24/24/24 23/23/23 22/22/22
f 25/25/25 26/26/26 27/27/27
f 28/28/28 27/27/27 26/26/26
f 29/29/29 30/30/30 31/31/31
f 32/32/32 31/31/31 30/30/30
f 33/33/33 34/34/34 35/35/35
f 36/36/36 35/35/35 34/34/34
f 37/37/37 38/38/38 39/39/39
f 40/40/40 39/39/39 38/38/38
f 41/41/41 42/42/42 43/43/43
f 44/44/44 43/43/43 42/42/42
f 47/47/47 46/46/46 45/45/45
f 46/46/46 47/47/47 48/48/48
f 51/51/51 50/50/50 49/49/49
f 50/50/50 51/51/51 52/52/52
f 55/55/55 54/54/54 53/53/53
f 54/54/54 55/55/55 56/56/56
f 59/59/59 58/58/58 57/57/57
f 58/58/58 59/59/59 60/60/60
f 63/63/63 62/62/62 61/61/61
f 62/62/62 63/63/63 64/64/64
f 67/67/67 66/66/66 65/65/65
f 66/66/66 67/67/67 68/68/68
f 71/71/71 70/70/70 69/69/69
f 70/70/70 71/71/71 72/72/72
f 45/45/45 18/18/18 17/17/17
f 18/18/18 45/45/45 46/46/46
f 43/43/43 44/44/44 71/71/71
f 72/72/72 71/71/71 44/44/44
