g 
v 21.34058 39.12 76.61492
v 8.722353 39.12 96.6684
v 21.13465 39.12 65.11941
v -1.730198 39.12 101.4573
v 10.9276 39.12 52.79819
v -17.25499 39.12 97.58729
v 3.917107 36.52222 48.47756
v -24.18385 36.52222 93.13688
v -3.720937 33.6358 43.79976
v -32.03397 33.6358 88.06906
v -10.91491 29.61956 39.63432
v -39.45073 29.61956 82.72997
v -17.66152 24.47348 35.21999
v -46.43742 24.47348 77.88081
v -22.77691 19.32741 30.78903
v -55.0553 19.32741 73.04829
v -29.4419 16.31549 26.08129
v -62.86649 16.31549 65.47262
v -35.99688 13.30357 19.04259
v -70.78767 13.30357 60.22791
v -38.18464 16.6013 18.288
v -80.28447 16.6013 51.16695
v -33.96359 25.22681 28.12191
v -86.33546 25.22681 33.84394
v -33.40433 30.92 23.51658
v -87.32308 30.92 25.2689
v -39.36874 30.92 8.50138
v -82.34618 30.92 9.898115
v -48.92036 30.92 2.512003
v -73.20362 30.92 3.301201
v 21.34058 39.12 76.61492
v 21.34058 -10.88 76.61492
v 21.13465 39.12 65.11941
v 21.13465 -10.88 65.11941
v 21.13465 39.12 65.11941
v 21.13465 -10.88 65.11941
v 10.9276 39.12 52.79819
v 10.9276 -10.88 52.79819
v 10.9276 39.12 52.79819
v 10.9276 -10.88 52.79819
v 3.917107 36.52222 48.47756
v 3.917107 -13.47778 48.47756
v 3.917107 36.52222 48.47756
v 3.917107 -13.47778 48.47756
v -3.720937 33.6358 43.79976
v -3.720937 -16.3642 43.79976
v -3.720937 33.6358 43.79976
v -3.720937 -16.3642 43.79976
v -10.91491 29.61956 39.63432
v -10.91491 -20.38044 39.63432
v -10.91491 29.61956 39.63432
v -10.91491 -20.38044 39.63432
v -17.66152 24.47348 35.21999
v -17.66152 -25.52652 35.21999
v -17.66152 24.47348 35.21999
v -17.66152 -25.52652 35.21999
v -22.77691 19.32741 30.78903
v -22.77691 -30.67259 30.78903
v -22.77691 19.32741 30.78903
v -22.77691 -30.67259 30.78903
v -29.4419 16.31549 26.08129
v -29.4419 -33.68451 26.08129
v -29.4419 16.31549 26.08129
v -29.4419 -33.68451 26.08129
v -35.99688 13.30357 19.04259
v -35.99688 -36.69643 19.04259
v -35.99688 13.30357 19.04259
v -35.99688 -36.69643 19.04259
v -38.18464 16.6013 18.288
v -38.18464 -33.3987 18.288
v -38.18464 16.6013 18.288
v -38.18464 -33.3987 18.288
v -33.96359 25.22681 28.12191
v -33.96359 -24.77319 28.12191
v -33.96359 25.22681 28.12191
v -33.96359 -24.77319 28.12191
v -33.40433 30.92 23.51658
v -33.40433 -19.08 23.51658
v -33.40433 30.92 23.51658
v -33.40433 -19.08 23.51658
v -39.36874 30.92 8.50138
v -39.36874 -19.08 8.50138
v -39.36874 30.92 8.50138
v -39.36874 -19.08 8.50138
v -48.92036 30.92 2.512003
v -48.92036 -19.08 2.512003
v 8.722353 39.12 96.6684
v 8.722353 -10.88 96.6684
v -1.730198 39.12 101.4573
v -1.730198 -10.88 101.4573
v -1.730198 39.12 101.4573
v -1.730198 -10.88 101.4573
v -17.25499 39.12 97.58729
v -17.25499 -10.88 97.58729
v -17.25499 39.12 97.58729
v -17.25499 -10.88 97.58729
v -24.18385 36.52222 93.13688
v -24.18385 -13.47778 93.13688
v -24.18385 36.52222 93.13688
v -24.18385 -13.47778 93.13688
v -32.03397 33.6358 88.06906
v -32.03397 -16.3642 88.06906
v -32.03397 33.6358 88.06906
v -32.03397 -16.3642 88.06906
v -39.45073 29.61956 82.72997
v -39.45073 -20.38044 82.72997
v -39.45073 29.61956 82.72997
v -39.45073 -20.38044 82.72997
v -46.43742 24.47348 77.88081
v -46.43742 -25.52652 77.88081
v -46.43742 24.47348 77.88081
v -46.43742 -25.52652 77.88081
v -55.0553 19.32741 73.04829
v -55.0553 -30.67259 73.04829
v -55.0553 19.32741 73.04829
v -55.0553 -30.67259 73.04829
v -62.86649 16.31549 65.47262
v -62.86649 -33.68451 65.47262
v -62.86649 16.31549 65.47262
v -62.86649 -33.68451 65.47262
v -70.78767 13.30357 60.22791
v -70.78767 -36.69643 60.22791
v -70.78767 13.30357 60.22791
v -70.78767 -36.69643 60.22791
v -80.28447 16.6013 51.16695
v -80.28447 -33.3987 51.16695
v -80.28447 16.6013 51.16695
v -80.28447 -33.3987 51.16695
v -86.33546 25.22681 33.84394
v -86.33546 -24.77319 33.84394
v -86.33546 25.22681 33.84394
v -86.33546 -24.77319 33.84394
v -87.32308 30.92 25.2689
v -87.32308 -19.08 25.2689
v -87.32308 30.92 25.2689
v -87.32308 -19.08 25.2689
v -82.34618 30.92 9.898115
v -82.34618 -19.08 9.898115
v -82.34618 30.92 9.898115
v -82.34618 -19.08 9.898115
v -73.20362 30.92 3.301201
v -73.20362 -19.08 3.301201
vt -0.04349008 0.06818802
vt -0.03793666 0.09122106
vt -0.03962385 0.05736021
vt -0.02956077 0.09909722
vt -0.02601649 0.04894379
vt -0.01361302 0.1003877
vt -0.0179933 0.0470882
vt -0.005625736 0.09838305
vt -0.009261349 0.04509455
vt 0.003431736 0.09608755
vt -0.001113842 0.04344461
vt 0.01216517 0.09339656
vt 0.00668921 0.04141596
vt 0.02033459 0.09103252
vt 0.01295177 0.03885063
vt 0.03004448 0.08920516
vt 0.02077118 0.03651786
vt 0.03986593 0.08452068
vt 0.02923073 0.03194107
vt 0.04904724 0.08208022
vt 0.03154491 0.03192464
vt 0.06094037 0.07652653
vt 0.02440442 0.03989563
vt 0.07220662 0.06204299
vt 0.02534516 0.03535285
vt 0.07588096 0.05423236
vt 0.03579237 0.02302863
vt 0.07607332 0.03807706
vt 0.04675653 0.02040318
vt 0.06951622 0.0289059
vt -0.04349008 0.06818802
vt -0.04349008 0.06818802
vt -0.03962385 0.05736021
vt -0.03962385 0.05736021
vt -0.03962385 0.05736021
vt -0.03962385 0.05736021
vt -0.02601649 0.04894379
vt -0.02601649 0.04894379
vt -0.02601649 0.04894379
vt -0.02601649 0.04894379
vt -0.0179933 0.0470882
vt -0.0179933 0.0470882
vt -0.0179933 0.0470882
vt -0.0179933 0.0470882
vt -0.009261349 0.04509455
vt -0.009261349 0.04509455
vt -0.009261349 0.04509455
vt -0.009261349 0.04509455
vt -0.001113842 0.04344461
vt -0.001113842 0.04344461
vt -0.001113842 0.04344461
vt -0.001113842 0.04344461
vt 0.00668921 0.04141596
vt 0.00668921 0.04141596
vt 0.00668921 0.04141596
vt 0.00668921 0.04141596
vt 0.01295177 0.03885063
vt 0.01295177 0.03885063
vt 0.01295177 0.03885063
vt 0.01295177 0.03885063
vt 0.02077118 0.03651786
vt 0.02077118 0.03651786
vt 0.02077118 0.03651786
vt 0.02077118 0.03651786
vt 0.02923073 0.03194107
vt 0.02923073 0.03194107
vt 0.02923073 0.03194107
vt 0.02923073 0.03194107
vt 0.03154491 0.03192464
vt 0.03154491 0.03192464
vt 0.03154491 0.03192464
vt 0.03154491 0.03192464
vt 0.02440442 0.03989563
vt 0.02440442 0.03989563
vt 0.02440442 0.03989563
vt 0.02440442 0.03989563
vt 0.02534516 0.03535285
vt 0.02534516 0.03535285
vt 0.02534516 0.03535285
vt 0.02534516 0.03535285
vt 0.03579237 0.02302863
vt 0.03579237 0.02302863
vt 0.03579237 0.02302863
vt 0.03579237 0.02302863
vt 0.04675653 0.02040318
vt 0.04675653 0.02040318
vt -0.03793666 0.09122106
vt -0.03793666 0.09122106
vt -0.02956077 0.09909722
vt -0.02956077 0.09909722
vt -0.02956077 0.09909722
vt -0.02956077 0.09909722
vt -0.01361302 0.1003877
vt -0.01361302 0.1003877
vt -0.01361302 0.1003877
vt -0.01361302 0.1003877
vt -0.005625736 0.09838305
vt -0.005625736 0.09838305
vt -0.005625736 0.09838305
vt -0.005625736 0.09838305
vt 0.003431736 0.09608755
vt 0.003431736 0.09608755
vt 0.003431736 0.09608755
vt 0.003431736 0.09608755
vt 0.01216517 0.09339656
vt 0.01216517 0.09339656
vt 0.01216517 0.09339656
vt 0.01216517 0.09339656
vt 0.02033459 0.09103252
vt 0.02033459 0.09103252
vt 0.02033459 0.09103252
vt 0.02033459 0.09103252
vt 0.03004448 0.08920516
vt 0.03004448 0.08920516
vt 0.03004448 0.08920516
vt 0.03004448 0.08920516
vt 0.03986593 0.08452068
vt 0.03986593 0.08452068
vt 0.03986593 0.08452068
vt 0.03986593 0.08452068
vt 0.04904724 0.08208022
vt 0.04904724 0.08208022
vt 0.04904724 0.08208022
vt 0.04904724 0.08208022
vt 0.06094037 0.07652653
vt 0.06094037 0.07652653
vt 0.06094037 0.07652653
vt 0.06094037 0.07652653
vt 0.07220662 0.06204299
vt 0.07220662 0.06204299
vt 0.07220662 0.06204299
vt 0.07220662 0.06204299
vt 0.07588096 0.05423236
vt 0.07588096 0.05423236
vt 0.07588096 0.05423236
vt 0.07588096 0.05423236
vt 0.07607332 0.03807706
vt 0.07607332 0.03807706
vt 0.07607332 0.03807706
vt 0.07607332 0.03807706
vt 0.06951622 0.0289059
vt 0.06951622 0.0289059
vn 0 1 0
vn 0 1 0
vn 0 1 0
vn 0 1 0
vn 0 1 0
vn 0 1 0
vn 0 1 0
vn 0 1 0
vn 0 1 0
vn 0 1 0
vn 0 1 0
vn 0 1 0
vn 0 1 0
vn 0 1 0
vn 0 1 0
vn 0 1 0
vn 0 1 0
vn 0 1 0
vn 0 1 0
vn 0 1 0
vn 0 1 0
vn 0 1 0
vn 0 1 0
vn 0 1 0
vn 0 1 0
vn 0 1 0
vn 0 1 0
vn 0 1 0
vn 0 1 0
vn 0 1 0
vn 0.8463859 0 0.5325702
vn 0.8463859 0 0.5325702
vn 0.9998395 0 -0.01791097
vn 0.9998395 0 -0.01791097
vn 0.7700816 0 -0.6379454
vn 0.7700816 0 -0.6379454
vn 0.7700816 0 -0.6379454
vn 0.7700816 0 -0.6379454
vn 0.5246685 0 -0.8513067
vn 0.5246685 0 -0.8513067
vn 0.5246685 0 -0.8513067
vn 0.5246685 0 -0.8513067
vn 0.5222716 0 -0.8527792
vn 0.5222716 0 -0.8527792
vn 0.5222716 0 -0.8527792
vn 0.5222716 0 -0.8527792
vn 0.5010824 0 -0.8653995
vn 0.5010824 0 -0.8653995
vn 0.5010824 0 -0.8653995
vn 0.5010824 0 -0.8653995
vn 0.5475174 0 -0.8367944
vn 0.5475174 0 -0.8367944
vn 0.5475174 0 -0.8367944
vn 0.5475174 0 -0.8367944
vn 0.6547289 0 -0.7558638
vn 0.6547289 0 -0.7558638
vn 0.6547289 0 -0.7558638
vn 0.6547289 0 -0.7558638
vn 0.5769327 0 -0.8167917
vn 0.5769327 0 -0.8167917
vn 0.5769327 0 -0.8167917
vn 0.5769327 0 -0.8167917
vn 0.7318048 0 -0.6815143
vn 0.7318048 0 -0.6815143
vn 0.7318048 0 -0.6815143
vn 0.7318048 0 -0.6815143
vn 0.326066 0 -0.945347
vn 0.326066 0 -0.945347
vn 0.326066 0 -0.945347
vn 0.326066 0 -0.945347
vn -0.9189243 0 0.3944341
vn -0.9189243 0 0.3944341
vn -0.9189243 0 0.3944341
vn -0.9189243 0 0.3944341
vn 0.992707 0 0.1205522
vn 0.992707 0 0.1205522
vn 0.992707 0 0.1205522
vn 0.992707 0 0.1205522
vn 0.9293633 0 -0.3691665
vn 0.9293633 0 -0.3691665
vn 0.9293633 0 -0.3691665
vn 0.9293633 0 -0.3691665
vn 0.5312497 0 -0.8472152
vn 0.5312497 0 -0.8472152
vn -0.0324825 0 -0.9994724
vn -0.0324825 0 -0.9994724
vn 0.8463859 0 0.5325702
vn 0.8463859 0 0.5325702
vn 0.4165206 0 0.9091262
vn 0.4165206 0 0.9091262
vn -0.241877 0 0.9703069
vn -0.241877 0 0.9703069
vn -0.241877 0 0.9703069
vn -0.241877 0 0.9703069
vn -0.5404261 0 0.8413914
vn -0.5404261 0 0.8413914
vn -0.5404261 0 0.8413914
vn -0.5404261 0 0.8413914
vn -0.5423704 0 0.8401395
vn -0.5423704 0 0.8401395
vn -0.5423704 0 0.8401395
vn -0.5423704 0 0.8401395
vn -0.584235 0 0.8115845
vn -0.584235 0 0.8115845
vn -0.584235 0 0.8115845
vn -0.584235 0 0.8115845
vn -0.5701805 0 0.8215194
vn -0.5701805 0 0.8215194
vn -0.5701805 0 0.8215194
vn -0.5701805 0 0.8215194
vn -0.489105 0 0.8722249
vn -0.489105 0 0.8722249
vn -0.489105 0 0.8722249
vn -0.489105 0 0.8722249
vn -0.696202 0 0.7178459
vn -0.696202 0 0.7178459
vn -0.696202 0 0.7178459
vn -0.696202 0 0.7178459
vn -0.5520686 0 0.8337987
vn -0.5520686 0 0.8337987
vn -0.5520686 0 0.8337987
vn -0.5520686 0 0.8337987
vn -0.6903091 0 0.7235146
vn -0.6903091 0 0.7235146
vn -0.6903091 0 0.7235146
vn -0.6903091 0 0.7235146
vn -0.9440631 0 0.3297649
vn -0.9440631 0 0.3297649
vn -0.9440631 0 0.3297649
vn -0.9440631 0 0.3297649
vn -0.9934328 0 0.1144171
vn -0.9934328 0 0.1144171
vn -0.9934328 0 0.1144171
vn -0.9934328 0 0.1144171
vn -0.951372 0 -0.3080443
vn -0.951372 0 -0.3080443
vn -0.951372 0 -0.3080443
vn -0.951372 0 -0.3080443
vn -0.585138 0 -0.8109338
vn -0.585138 0 -0.8109338
vn -0.0324825 0 -0.9994724
vn -0.0324825 0 -0.9994724
g _0
f 3/3/3 2/2/2 1/1/1
f 2/2/2 3/3/3 4/4/4
f 5/5/5 4/4/4 3/3/3
f 4/4/4 5/5/5 6/6/6
f 7/7/7 6/6/6 5/5/5
f 6/6/6 7/7/7 8/8/8
f 9/9/9 8/8/8 7/7/7
f 8/8/8 9/9/9 10/10/10
f 11/11/11 10/10/10 9/9/9
f 10/10/10 11/11/11 12/12/12
f 13/13/13 12/12/12 11/11/11
f 12/12/12 13/13/13 14/14/14
f 15/15/15 14/14/14 13/13/13
f 14/14/14 15/15/15 16/16/16
f 17/17/17 16/16/16 15/15/15
f 16/16/16 17/17/17 18/18/18
f 19/19/19 18/18/18 17/17/17
f 18/18/18 19/19/19 20/20/20
f 21/21/21 20/20/20 19/19/19
f 20/20/20 21/21/21 22/22/22
f 22/22/22 23/23/23 24/24/24
f 25/25/25 24/24/24 23/23/23
f 24/24/24 25/25/25 26/26/26
f 27/27/27 26/26/26 25/25/25
f 26/26/26 27/27/27 28/28/28
f 29/29/29 28/28/28 27/27/27
f 28/28/28 29/29/29 30/30/30
g _1
f 31/31/31 32/32/32 33/33/33
f 34/34/34 33/33/33 32/32/32
f 35/35/35 36/36/36 37/37/37
f 38/38/38 37/37/37 36/36/36
f 39/39/39 40/40/40 41/41/41
f 42/42/42 41/41/41 40/40/40
f 43/43/43 44/44/44 45/45/45
f 46/46/46 45/45/45 44/44/44
f 47/47/47 48/48/48 49/49/49
f 50/50/50 49/49/49 48/48/48
f 51/51/51 52/52/52 53/53/53
f 54/54/54 53/53/53 52/52/52
f 55/55/55 56/56/56 57/57/57
f 58/58/58 57/57/57 56/56/56
f 59/59/59 60/60/60 61/61/61
f 62/62/62 61/61/61 60/60/60
f 63/63/63 64/64/64 65/65/65
f 66/66/66 65/65/65 64/64/64
f 67/67/67 68/68/68 69/69/69
f 70/70/70 69/69/69 68/68/68
f 71/71/71 72/72/72 73/73/73
f 74/74/74 73/73/73 72/72/72
f 75/75/75 76/76/76 77/77/77
f 78/78/78 77/77/77 76/76/76
f 79/79/79 80/80/80 81/81/81
f 82/82/82 81/81/81 80/80/80
f 83/83/83 84/84/84 85/85/85
f 86/86/86 85/85/85 84/84/84
f 89/89/89 88/88/88 87/87/87
f 88/88/88 89/89/89 90/90/90
f 93/93/93 92/92/92 91/91/91
f 92/92/92 93/93/93 94/94/94
f 97/97/97 96/96/96 95/95/95
f 96/96/96 97/97/97 98/98/98
f 101/101/101 100/100/100 99/99/99
f 100/100/100 101/101/101 102/102/102
f 105/105/105 104/104/104 103/103/103
f 104/104/104 105/105/105 106/106/106
f 109/109/109 108/108/108 107/107/107
f 108/108/108 109/109/109 110/110/110
f 113/113/113 112/112/112 111/111/111
f 112/112/112 113/113/113 114/114/114
f 117/117/117 116/116/116 115/115/115
f 116/116/116 117/117/117 118/118/118
f 121/121/121 120/120/120 119/119/119
f 120/120/120 121/121/121 122/122/122
f 125/125/125 124/124/124 123/123/123
f 124/124/124 125/125/125 126/126/126
f 129/129/129 128/128/128 127/127/127
f 128/128/128 129/129/129 130/130/130
f 133/133/133 132/132/132 131/131/131
f 132/132/132 133/133/133 134/134/134
f 137/137/137 136/136/136 135/135/135
f 136/136/136 137/137/137 138/138/138
f 141/141/141 140/140/140 139/139/139
f 140/140/140 141/141/141 142/142/142
f 87/87/87 32/32/32 31/31/31
f 32/32/32 87/87/87 88/88/88
f 85/85/85 86/86/86 141/141/141
f 142/142/142 141/141/141 86/86/86
