g 
v 51.8714 18.3 54.89421
v 47.8305 18.3 63.49503
v 51.11316 18.3 50.68559
v 44.10691 18.3 65.59798
v 46.60043 18.3 46.23392
v 37.79956 18.3 64.96607
v 39.52254 21.63667 42.63182
v 30.50866 21.63667 61.81733
v 32.80103 27.64074 39.48418
v 23.79509 27.64074 58.65279
v 25.14062 31.85852 35.77828
v 16.05245 31.85852 55.12191
v 23.52018 32.6 35.07907
v 14.47982 32.6 54.32093
v 17.16243 32.6 34.04448
v 9.624964 32.6 50.08753
v 13.13888 32.6 36.57465
v 9.004102 32.6 45.37528
v 51.8714 18.3 54.89421
v 51.8714 -21.7 54.89421
v 51.11316 18.3 50.68559
v 51.11316 -21.7 50.68559
v 51.11316 18.3 50.68559
v 51.11316 -21.7 50.68559
v 46.60043 18.3 46.23392
v 46.60043 -21.7 46.23392
v 46.60043 18.3 46.23392
v 46.60043 -21.7 46.23392
v 39.52254 21.63667 42.63182
v 39.52254 -18.36333 42.63182
v 39.52254 21.63667 42.63182
v 39.52254 -18.36333 42.63182
v 32.80103 27.64074 39.48418
v 32.80103 -12.35926 39.48418
v 32.80103 27.64074 39.48418
v 32.80103 -12.35926 39.48418
v 25.14062 31.85852 35.77828
v 25.14062 -8.141483 35.77828
v 25.14062 31.85852 35.77828
v 25.14062 -8.141483 35.77828
v 23.52018 32.6 35.07907
v 23.52018 -7.400002 35.07907
v 23.52018 32.6 35.07907
v 23.52018 -7.400002 35.07907
v 17.16243 32.6 34.04448
v 17.16243 -7.400002 34.04448
v 17.16243 32.6 34.04448
v 17.16243 -7.400002 34.04448
v 13.13888 32.6 36.57465
v 13.13888 -7.400002 36.57465
v 47.8305 18.3 63.49503
v 47.8305 -21.7 63.49503
v 44.10691 18.3 65.59798
v 44.10691 -21.7 65.59798
v 44.10691 18.3 65.59798
v 44.10691 -21.7 65.59798
v 37.79956 18.3 64.96607
v 37.79956 -21.7 64.96607
v 37.79956 18.3 64.96607
v 37.79956 -21.7 64.96607
v 30.50866 21.63667 61.81733
v 30.50866 -18.36333 61.81733
v 30.50866 21.63667 61.81733
v 30.50866 -18.36333 61.81733
v 23.79509 27.64074 58.65279
v 23.79509 -12.35926 58.65279
v 23.79509 27.64074 58.65279
v 23.79509 -12.35926 58.65279
v 16.05245 31.85852 55.12191
v 16.05245 -8.141483 55.12191
v 16.05245 31.85852 55.12191
v 16.05245 -8.141483 55.12191
v 14.47982 32.6 54.32093
v 14.47982 -7.400002 54.32093
v 14.47982 32.6 54.32093
v 14.47982 -7.400002 54.32093
v 9.624964 32.6 50.08753
v 9.624964 -7.400002 50.08753
v 9.624964 32.6 50.08753
v 9.624964 -7.400002 50.08753
v 9.004102 32.6 45.37528
v 9.004102 -7.400002 45.37528
vt -0.05936163 0.04867881
vt -0.05827899 0.05811972
vt -0.05729907 0.0449327
vt -0.05542196 0.06130167
vt -0.05160101 0.04215528
vt -0.04924309 0.06271711
vt -0.0437434 0.04100212
vt -0.0413284 0.06206159
vt -0.03636865 0.04016581
vt -0.03395579 0.06120674
vt -0.02792588 0.03910031
vt -0.02549098 0.06033336
vt -0.026167 0.0389552
vt -0.02374491 0.06007653
vt -0.01981177 0.04000513
vt -0.01779233 0.05761521
vt -0.01680692 0.04368774
vt -0.01569913 0.05334798
vt -0.05936163 0.04867881
vt -0.05936163 0.04867881
vt -0.05729907 0.0449327
vt -0.05729907 0.0449327
vt -0.05729907 0.0449327
vt -0.05729907 0.0449327
vt -0.05160101 0.04215528
vt -0.05160101 0.04215528
vt -0.05160101 0.04215528
vt -0.05160101 0.04215528
vt -0.0437434 0.04100212
vt -0.0437434 0.04100212
vt -0.0437434 0.04100212
vt -0.0437434 0.04100212
vt -0.03636865 0.04016581
vt -0.03636865 0.04016581
vt -0.03636865 0.04016581
vt -0.03636865 0.04016581
vt -0.02792588 0.03910031
vt -0.02792588 0.03910031
vt -0.02792588 0.03910031
vt -0.02792588 0.03910031
vt -0.026167 0.0389552
vt -0.026167 0.0389552
vt -0.026167 0.0389552
vt -0.026167 0.0389552
vt -0.01981177 0.04000513
vt -0.01981177 0.04000513
vt -0.01981177 0.04000513
vt -0.01981177 0.04000513
vt -0.01680692 0.04368774
vt -0.01680692 0.04368774
vt -0.05827899 0.05811972
vt -0.05827899 0.05811972
vt -0.05542196 0.06130167
vt -0.05542196 0.06130167
vt -0.05542196 0.06130167
vt -0.05542196 0.06130167
vt -0.04924309 0.06271711
vt -0.04924309 0.06271711
vt -0.04924309 0.06271711
vt -0.04924309 0.06271711
vt -0.0413284 0.06206159
vt -0.0413284 0.06206159
vt -0.0413284 0.06206159
vt -0.0413284 0.06206159
vt -0.03395579 0.06120674
vt -0.03395579 0.06120674
vt -0.03395579 0.06120674
vt -0.03395579 0.06120674
vt -0.02549098 0.06033336
vt -0.02549098 0.06033336
vt -0.02549098 0.06033336
vt -0.02549098 0.06033336
vt -0.02374491 0.06007653
vt -0.02374491 0.06007653
vt -0.02374491 0.06007653
vt -0.02374491 0.06007653
vt -0.01779233 0.05761521
vt -0.01779233 0.05761521
vt -0.01779233 0.05761521
vt -0.01779233 0.05761521
vt -0.01569913 0.05334798
vt -0.01569913 0.05334798
vn 0 1 0
vn 0 1 0
vn 0 1 0
vn 0 1 0
vn 0 1 0
vn 0 1 0
vn 0 1 0
vn 0 1 0
vn 0 1 0
vn 0 1 0
vn 0 1 0
vn 0 1 0
vn 0 1 0
vn 0 1 0
vn 0 1 0
vn 0 1 0
vn 0 1 0
vn 0 1 0
vn 0.9050837 0 0.4252334
vn 0.9050837 0 0.4252334
vn 0.9841555 0 -0.1773076
vn 0.9841555 0 -0.1773076
vn 0.7022734 0 -0.7119074
vn 0.7022734 0 -0.7119074
vn 0.7022734 0 -0.7119074
vn 0.7022734 0 -0.7119074
vn 0.4535646 0 -0.8912234
vn 0.4535646 0 -0.8912234
vn 0.4535646 0 -0.8912234
vn 0.4535646 0 -0.8912234
vn 0.4240949 0 -0.9056178
vn 0.4240949 0 -0.9056178
vn 0.4240949 0 -0.9056178
vn 0.4240949 0 -0.9056178
vn 0.4354894 0 -0.9001938
vn 0.4354894 0 -0.9001938
vn 0.4354894 0 -0.9001938
vn 0.4354894 0 -0.9001938
vn 0.3961817 0 -0.9181722
vn 0.3961817 0 -0.9181722
vn 0.3961817 0 -0.9181722
vn 0.3961817 0 -0.9181722
vn 0.1606173 0 -0.9870168
vn 0.1606173 0 -0.9870168
vn 0.1606173 0 -0.9870168
vn 0.1606173 0 -0.9870168
vn -0.5323353 0 -0.8465337
vn -0.5323353 0 -0.8465337
vn -0.9050837 0 -0.4252336
vn -0.9050837 0 -0.4252336
vn 0.9050837 0 0.4252334
vn 0.9050837 0 0.4252334
vn 0.4917583 0 0.8707317
vn 0.4917583 0 0.8707317
vn -0.0996864 0 0.995019
vn -0.0996864 0 0.995019
vn -0.0996864 0 0.995019
vn -0.0996864 0 0.995019
vn -0.3964786 0 0.918044
vn -0.3964786 0 0.918044
vn -0.3964786 0 0.918044
vn -0.3964786 0 0.918044
vn -0.4263715 0 0.9045482
vn -0.4263715 0 0.9045482
vn -0.4263715 0 0.9045482
vn -0.4263715 0 0.9045482
vn -0.4149224 0 0.9098569
vn -0.4149224 0 0.9098569
vn -0.4149224 0 0.9098569
vn -0.4149224 0 0.9098569
vn -0.4538512 0 0.8910775
vn -0.4538512 0 0.8910775
vn -0.4538512 0 0.8910775
vn -0.4538512 0 0.8910775
vn -0.6572194 0 0.7536994
vn -0.6572194 0 0.7536994
vn -0.6572194 0 0.7536994
vn -0.6572194 0 0.7536994
vn -0.9914317 0 0.130626
vn -0.9914317 0 0.130626
vn -0.9050837 0 -0.4252336
vn -0.9050837 0 -0.4252336
g _0
f 3/3/3 2/2/2 1/1/1
f 2/2/2 3/3/3 4/4/4
f 5/5/5 4/4/4 3/3/3
f 4/4/4 5/5/5 6/6/6
f 7/7/7 6/6/6 5/5/5
f 6/6/6 7/7/7 8/8/8
f 9/9/9 8/8/8 7/7/7
f 8/8/8 9/9/9 10/10/10
f 11/11/11 10/10/10 9/9/9
f 10/10/10 11/11/11 12/12/12
f 13/13/13 12/12/12 11/11/11
f 12/12/12 13/13/13 14/14/14
f 15/15/15 14/14/14 13/13/13
f 14/14/14 15/15/15 16/16/16
f 17/17/17 16/16/16 15/15/15
f 16/16/16 17/17/17 18/18/18
g _1
f 19/19/19 20/20/20 21/21/21
f 22/22/22 21/21/21 20/20/20
f 23/23/23 24/24/24 25/25/25
f 26/26/26 25/25/25 24/24/24
f 27/27/27 28/28/28 29/29/29
f 30/30/30 29/29/29 28/28/28
f 31/31/31 32/32/32 33/33/33
f 34/34/34 33/33/33 32/32/32
f 35/35/35 36/36/36 37/37/37
f 38/38/38 37/37/37 36/36/36
f 39/39/39 40/40/40 41/41/41
f 42/42/42 41/41/41 40/40/40
f 43/43/43 44/44/44 45/45/45
f 46/46/46 45/45/45 44/44/44
f 47/47/47 48/48/48 49/49/49
f 50/50/50 49/49/49 48/48/48
f 53/53/53 52/52/52 51/51/51
f 52/52/52 53/53/53 54/54/54
f 57/57/57 56/56/56 55/55/55
f 56/56/56 57/57/57 58/58/58
f 61/61/61 60/60/60 59/59/59
f 60/60/60 61/61/61 62/62/62
f 65/65/65 64/64/64 63/63/63
f 64/64/64 65/65/65 66/66/66
f 69/69/69 68/68/68 67/67/67
f 68/68/68 69/69/69 70/70/70
f 73/73/73 72/72/72 71/71/71
f 72/72/72 73/73/73 74/74/74
f 77/77/77 76/76/76 75/75/75
f 76/76/76 77/77/77 78/78/78
f 81/81/81 80/80/80 79/79/79
f 80/80/80 81/81/81 82/82/82
f 51/51/51 20/20/20 19/19/19
f 20/20/20 51/51/51 52/52/52
f 49/49/49 50/50/50 81/81/81
f 82/82/82 81/81/81 50/50/50
