g 
v -67.95095 2.3 8.061607
v -69.17306 2.3 13.75817
v -68.72644 2.3 5.379292
v -70.98056 2.3 15.88634
v -70.01108 2.3 3.160806
v -73.06215 2.3 17.38266
v -73.85653 2.3 1.273226
v -77.34347 2.3 17.52677
v -78.68416 3.030702 -0.5744553
v -82.50417 3.030702 17.23162
v -83.76023 3.842593 -2.561187
v -88.52624 3.842593 16.83743
v -88.26234 5.35039 -5.517423
v -94.71593 5.35039 16.82107
v -91.87281 6.788597 -8.174876
v -101.7175 6.788597 16.29643
v -95.19756 7.600487 -10.92907
v -108.287 7.600487 13.9831
v -98.96169 8.25 -14.20032
v -114.4186 8.25 11.92376
v -102.0874 8.25 -18.60889
v -121.1943 8.25 9.949514
v -104.2114 8.25 -22.8411
v -128.646 8.25 7.533539
v -104.8152 8.25 -28.31731
v -136.3147 8.25 5.300077
v -106.1122 8.25 -34.17168
v -143.2547 8.25 3.394591
v -108.2524 8.25 -39.15126
v -149.0311 8.25 0.1627121
v -110.8373 8.25 -44.58111
v -154.3627 8.25 -2.618891
v -124.0482 8.25 -52.83984
v -162.1329 8.25 -16.12289
v -133.3674 8.25 -52.55174
v -161.5043 8.25 -25.42542
v -143.1427 8.25 -49.80054
v -158.3976 8.25 -35.09362
v -67.95095 2.3 8.061607
v -67.95095 -12.7 8.061607
v -68.72644 2.3 5.379292
v -68.72644 -12.7 5.379292
v -68.72644 2.3 5.379292
v -68.72644 -12.7 5.379292
v -70.01108 2.3 3.160806
v -70.01108 -12.7 3.160806
v -70.01108 2.3 3.160806
v -70.01108 -12.7 3.160806
v -73.85653 2.3 1.273226
v -73.85653 -12.7 1.273226
v -73.85653 2.3 1.273226
v -73.85653 -12.7 1.273226
v -78.68416 3.030702 -0.5744553
v -78.68416 -11.9693 -0.5744553
v -78.68416 3.030702 -0.5744553
v -78.68416 -11.9693 -0.5744553
v -83.76023 3.842593 -2.561187
v -83.76023 -11.15741 -2.561187
v -83.76023 3.842593 -2.561187
v -83.76023 -11.15741 -2.561187
v -88.26234 5.35039 -5.517423
v -88.26234 -9.649611 -5.517423
v -88.26234 5.35039 -5.517423
v -88.26234 -9.649611 -5.517423
v -91.87281 6.788597 -8.174876
v -91.87281 -8.211403 -8.174876
v -91.87281 6.788597 -8.174876
v -91.87281 -8.211403 -8.174876
v -95.19756 7.600487 -10.92907
v -95.19756 -7.399513 -10.92907
v -95.19756 7.600487 -10.92907
v -95.19756 -7.399513 -10.92907
v -98.96169 8.25 -14.20032
v -98.96169 -6.75 -14.20032
v -98.96169 8.25 -14.20032
v -98.96169 -6.75 -14.20032
v -102.0874 8.25 -18.60889
v -102.0874 -6.75 -18.60889
v -102.0874 8.25 -18.60889
v -102.0874 -6.75 -18.60889
v -104.2114 8.25 -22.8411
v -104.2114 -6.75 -22.8411
v -104.2114 8.25 -22.8411
v -104.2114 -6.75 -22.8411
v -104.8152 8.25 -28.31731
v -104.8152 -6.75 -28.31731
v -104.8152 8.25 -28.31731
v -104.8152 -6.75 -28.31731
v -106.1122 8.25 -34.17168
v -106.1122 -6.75 -34.17168
v -106.1122 8.25 -34.17168
v -106.1122 -6.75 -34.17168
v -108.2524 8.25 -39.15126
v -108.2524 -6.75 -39.15126
v -108.2524 8.25 -39.15126
v -108.2524 -6.75 -39.15126
v -110.8373 8.25 -44.58111
v -110.8373 -6.75 -44.58111
v -110.8373 8.25 -44.58111
v -110.8373 -6.75 -44.58111
v -124.0482 8.25 -52.83984
v -124.0482 -6.75 -52.83984
v -124.0482 8.25 -52.83984
v -124.0482 -6.75 -52.83984
v -133.3674 8.25 -52.55174
v -133.3674 -6.75 -52.55174
v -133.3674 8.25 -52.55174
v -133.3674 -6.75 -52.55174
v -143.1427 8.25 -49.80054
v -143.1427 -6.75 -49.80054
v -69.17306 2.3 13.75817
v -69.17306 -12.7 13.75817
v -70.98056 2.3 15.88634
v -70.98056 -12.7 15.88634
v -70.98056 2.3 15.88634
v -70.98056 -12.7 15.88634
v -73.06215 2.3 17.38266
v -73.06215 -12.7 17.38266
v -73.06215 2.3 17.38266
v -73.06215 -12.7 17.38266
v -77.34347 2.3 17.52677
v -77.34347 -12.7 17.52677
v -77.34347 2.3 17.52677
v -77.34347 -12.7 17.52677
v -82.50417 3.030702 17.23162
v -82.50417 -11.9693 17.23162
v -82.50417 3.030702 17.23162
v -82.50417 -11.9693 17.23162
v -88.52624 3.842593 16.83743
v -88.52624 -11.15741 16.83743
v -88.52624 3.842593 16.83743
v -88.52624 -11.15741 16.83743
v -94.71593 5.35039 16.82107
v -94.71593 -9.649611 16.82107
v -94.71593 5.35039 16.82107
v -94.71593 -9.649611 16.82107
v -101.7175 6.788597 16.29643
v -101.7175 -8.211403 16.29643
v -101.7175 6.788597 16.29643
v -101.7175 -8.211403 16.29643
v -108.287 7.600487 13.9831
v -108.287 -7.399513 13.9831
v -108.287 7.600487 13.9831
v -108.287 -7.399513 13.9831
v -114.4186 8.25 11.92376
v -114.4186 -6.75 11.92376
v -114.4186 8.25 11.92376
v -114.4186 -6.75 11.92376
v -121.1943 8.25 9.949514
v -121.1943 -6.75 9.949514
v -121.1943 8.25 9.949514
v -121.1943 -6.75 9.949514
v -128.646 8.25 7.533539
v -128.646 -6.75 7.533539
v -128.646 8.25 7.533539
v -128.646 -6.75 7.533539
v -136.3147 8.25 5.300077
v -136.3147 -6.75 5.300077
v -136.3147 8.25 5.300077
v -136.3147 -6.75 5.300077
v -143.2547 8.25 3.394591
v -143.2547 -6.75 3.394591
v -143.2547 8.25 3.394591
v -143.2547 -6.75 3.394591
v -149.0311 8.25 0.1627121
v -149.0311 -6.75 0.1627121
v -149.0311 8.25 0.1627121
v -149.0311 -6.75 0.1627121
v -154.3627 8.25 -2.618891
v -154.3627 -6.75 -2.618891
v -154.3627 8.25 -2.618891
v -154.3627 -6.75 -2.618891
v -162.1329 8.25 -16.12289
v -162.1329 -6.75 -16.12289
v -162.1329 8.25 -16.12289
v -162.1329 -6.75 -16.12289
v -161.5043 8.25 -25.42542
v -161.5043 -6.75 -25.42542
v -161.5043 8.25 -25.42542
v -161.5043 -6.75 -25.42542
v -158.3976 8.25 -35.09362
v -158.3976 -6.75 -35.09362
vt -0.06944755 0.01721819
vt -0.06883649 0.02006647
vt -0.0690598 0.01587703
vt -0.06793274 0.02113055
vt -0.06841748 0.01476778
vt -0.06689195 0.02187871
vt -0.06649476 0.013824
vt -0.06475128 0.02195077
vt -0.06408095 0.01290016
vt -0.06217094 0.02180319
vt -0.06154291 0.01190679
vt -0.0591599 0.0216061
vt -0.05929185 0.01042867
vt -0.05606506 0.02159792
vt -0.05748662 0.009099944
vt -0.05256426 0.0213356
vt -0.05582424 0.007722845
vt -0.04927951 0.02017893
vt -0.05394218 0.00608722
vt -0.04621372 0.01914926
vt -0.05237931 0.003882936
vt -0.0428259 0.01816214
vt -0.05131733 0.001766831
vt -0.03910005 0.01695415
vt -0.05101541 -0.0009712754
vt -0.03526566 0.01583742
vt -0.0503669 -0.003898459
vt -0.03179565 0.01488468
vt -0.0492968 -0.006388249
vt -0.02890749 0.01326874
vt -0.04800439 -0.009103174
vt -0.02624165 0.01187794
vt -0.04139894 -0.01323254
vt -0.02235655 0.005125935
vt -0.0367393 -0.01308849
vt -0.02267085 0.0004746723
vt -0.03185166 -0.01171289
vt -0.02422421 -0.004359429
vt -0.06944755 0.01721819
vt -0.06944755 0.01721819
vt -0.0690598 0.01587703
vt -0.0690598 0.01587703
vt -0.0690598 0.01587703
vt -0.0690598 0.01587703
vt -0.06841748 0.01476778
vt -0.06841748 0.01476778
vt -0.06841748 0.01476778
vt -0.06841748 0.01476778
vt -0.06649476 0.013824
vt -0.06649476 0.013824
vt -0.06649476 0.013824
vt -0.06649476 0.013824
vt -0.06408095 0.01290016
vt -0.06408095 0.01290016
vt -0.06408095 0.01290016
vt -0.06408095 0.01290016
vt -0.06154291 0.01190679
vt -0.06154291 0.01190679
vt -0.06154291 0.01190679
vt -0.06154291 0.01190679
vt -0.05929185 0.01042867
vt -0.05929185 0.01042867
vt -0.05929185 0.01042867
vt -0.05929185 0.01042867
vt -0.05748662 0.009099944
vt -0.05748662 0.009099944
vt -0.05748662 0.009099944
vt -0.05748662 0.009099944
vt -0.05582424 0.007722845
vt -0.05582424 0.007722845
vt -0.05582424 0.007722845
vt -0.05582424 0.007722845
vt -0.05394218 0.00608722
vt -0.05394218 0.00608722
vt -0.05394218 0.00608722
vt -0.05394218 0.00608722
vt -0.05237931 0.003882936
vt -0.05237931 0.003882936
vt -0.05237931 0.003882936
vt -0.05237931 0.003882936
vt -0.05131733 0.001766831
vt -0.05131733 0.001766831
vt -0.05131733 0.001766831
vt -0.05131733 0.001766831
vt -0.05101541 -0.0009712754
vt -0.05101541 -0.0009712754
vt -0.05101541 -0.0009712754
vt -0.05101541 -0.0009712754
vt -0.0503669 -0.003898459
vt -0.0503669 -0.003898459
vt -0.0503669 -0.003898459
vt -0.0503669 -0.003898459
vt -0.0492968 -0.006388249
vt -0.0492968 -0.006388249
vt -0.0492968 -0.006388249
vt -0.0492968 -0.006388249
vt -0.04800439 -0.009103174
vt -0.04800439 -0.009103174
vt -0.04800439 -0.009103174
vt -0.04800439 -0.009103174
vt -0.04139894 -0.01323254
vt -0.04139894 -0.01323254
vt -0.04139894 -0.01323254
vt -0.04139894 -0.01323254
vt -0.0367393 -0.01308849
vt -0.0367393 -0.01308849
vt -0.0367393 -0.01308849
vt -0.0367393 -0.01308849
vt -0.03185166 -0.01171289
vt -0.03185166 -0.01171289
vt -0.06883649 0.02006647
vt -0.06883649 0.02006647
vt -0.06793274 0.02113055
vt -0.06793274 0.02113055
vt -0.06793274 0.02113055
vt -0.06793274 0.02113055
vt -0.06689195 0.02187871
vt -0.06689195 0.02187871
vt -0.06689195 0.02187871
vt -0.06689195 0.02187871
vt -0.06475128 0.02195077
vt -0.06475128 0.02195077
vt -0.06475128 0.02195077
vt -0.06475128 0.02195077
vt -0.06217094 0.02180319
vt -0.06217094 0.02180319
vt -0.06217094 0.02180319
vt -0.06217094 0.02180319
vt -0.0591599 0.0216061
vt -0.0591599 0.0216061
vt -0.0591599 0.0216061
vt -0.0591599 0.0216061
vt -0.05606506 0.02159792
vt -0.05606506 0.02159792
vt -0.05606506 0.02159792
vt -0.05606506 0.02159792
vt -0.05256426 0.0213356
vt -0.05256426 0.0213356
vt -0.05256426 0.0213356
vt -0.05256426 0.0213356
vt -0.04927951 0.02017893
vt -0.04927951 0.02017893
vt -0.04927951 0.02017893
vt -0.04927951 0.02017893
vt -0.04621372 0.01914926
vt -0.04621372 0.01914926
vt -0.04621372 0.01914926
vt -0.04621372 0.01914926
vt -0.0428259 0.01816214
vt -0.0428259 0.01816214
vt -0.0428259 0.01816214
vt -0.0428259 0.01816214
vt -0.03910005 0.01695415
vt -0.03910005 0.01695415
vt -0.03910005 0.01695415
vt -0.03910005 0.01695415
vt -0.03526566 0.01583742
vt -0.03526566 0.01583742
vt -0.03526566 0.01583742
vt -0.03526566 0.01583742
vt -0.03179565 0.01488468
vt -0.03179565 0.01488468
vt -0.03179565 0.01488468
vt -0.03179565 0.01488468
vt -0.02890749 0.01326874
vt -0.02890749 0.01326874
vt -0.02890749 0.01326874
vt -0.02890749 0.01326874
vt -0.02624165 0.01187794
vt -0.02624165 0.01187794
vt -0.02624165 0.01187794
vt -0.02624165 0.01187794
vt -0.02235655 0.005125935
vt -0.02235655 0.005125935
vt -0.02235655 0.005125935
vt -0.02235655 0.005125935
vt -0.02267085 0.0004746723
vt -0.02267085 0.0004746723
vt -0.02267085 0.0004746723
vt -0.02267085 0.0004746723
vt -0.02422421 -0.004359429
vt -0.02422421 -0.004359429
vn 0 1 0
vn 0 1 0
vn 0 1 0
vn 0 1 0
vn 0 1 0
vn 0 1 0
vn 0 1 0
vn 0 1 0
vn 0 1 0
vn 0 1 0
vn 0 1 0
vn 0 1 0
vn 0 1 0
vn 0 1 0
vn 0 1 0
vn 0 1 0
vn 0 1 0
vn 0 1 0
vn 0 1 0
vn 0 1 0
vn 0 1 0
vn 0 1 0
vn 0 1 0
vn 0 1 0
vn 0 1 0
vn 0 1 0
vn 0 1 0
vn 0 1 0
vn 0 1 0
vn 0 1 0
vn 0 1 0
vn 0 1 0
vn 0 1 0
vn 0 1 0
vn 0 1 0
vn 0 1 0
vn 0 1 0
vn 0 1 0
vn 0.9777526 0 0.2097614
vn 0.9777526 0 0.2097614
vn 0.960657 0 -0.2777375
vn 0.960657 0 -0.2777375
vn 0.8653838 0 -0.5011096
vn 0.8653838 0 -0.5011096
vn 0.8653838 0 -0.5011096
vn 0.8653838 0 -0.5011096
vn 0.440638 0 -0.8976849
vn 0.440638 0 -0.8976849
vn 0.440638 0 -0.8976849
vn 0.440638 0 -0.8976849
vn 0.3574451 0 -0.9339342
vn 0.3574451 0 -0.9339342
vn 0.3574451 0 -0.9339342
vn 0.3574451 0 -0.9339342
vn 0.3644698 0 -0.9312152
vn 0.3644698 0 -0.9312152
vn 0.3644698 0 -0.9312152
vn 0.3644698 0 -0.9312152
vn 0.5488802 0 -0.835901
vn 0.5488802 0 -0.835901
vn 0.5488802 0 -0.835901
vn 0.5488802 0 -0.835901
vn 0.5927811 0 -0.8053636
vn 0.5927811 0 -0.8053636
vn 0.5927811 0 -0.8053636
vn 0.5927811 0 -0.8053636
vn 0.6379359 0 -0.7700895
vn 0.6379359 0 -0.7700895
vn 0.6379359 0 -0.7700895
vn 0.6379359 0 -0.7700895
vn 0.6559617 0 -0.7547942
vn 0.6559617 0 -0.7547942
vn 0.6559617 0 -0.7547942
vn 0.6559617 0 -0.7547942
vn 0.8157623 0 -0.5783874
vn 0.8157623 0 -0.5783874
vn 0.8157623 0 -0.5783874
vn 0.8157623 0 -0.5783874
vn 0.8937631 0 -0.4485393
vn 0.8937631 0 -0.4485393
vn 0.8937631 0 -0.4485393
vn 0.8937631 0 -0.4485393
vn 0.9939755 0 -0.1096024
vn 0.9939755 0 -0.1096024
vn 0.9939755 0 -0.1096024
vn 0.9939755 0 -0.1096024
vn 0.9763266 0 -0.2163014
vn 0.9763266 0 -0.2163014
vn 0.9763266 0 -0.2163014
vn 0.9763266 0 -0.2163014
vn 0.9187375 0 -0.3948687
vn 0.9187375 0 -0.3948687
vn 0.9187375 0 -0.3948687
vn 0.9187375 0 -0.3948687
vn 0.902913 0 -0.4298235
vn 0.902913 0 -0.4298235
vn 0.902913 0 -0.4298235
vn 0.902913 0 -0.4298235
vn 0.5300874 0 -0.8479431
vn 0.5300874 0 -0.8479431
vn 0.5300874 0 -0.8479431
vn 0.5300874 0 -0.8479431
vn -0.03089979 0 -0.9995224
vn -0.03089979 0 -0.9995224
vn -0.03089979 0 -0.9995224
vn -0.03089979 0 -0.9995224
vn -0.2709189 0 -0.9626022
vn -0.2709189 0 -0.9626022
vn -0.6940588 0 -0.7199184
vn -0.6940588 0 -0.7199184
vn 0.9777526 0 0.2097614
vn 0.9777526 0 0.2097614
vn 0.7621949 0 0.6473476
vn 0.7621949 0 0.6473476
vn 0.5836811 0 0.811983
vn 0.5836811 0 0.811983
vn 0.5836811 0 0.811983
vn 0.5836811 0 0.811983
vn 0.03364196 0 0.999434
vn 0.03364196 0 0.999434
vn 0.03364196 0 0.999434
vn 0.03364196 0 0.999434
vn -0.05709908 0 0.9983685
vn -0.05709908 0 0.9983685
vn -0.05709908 0 0.9983685
vn -0.05709908 0 0.9983685
vn -0.06531867 0 0.9978644
vn -0.06531867 0 0.9978644
vn -0.06531867 0 0.9978644
vn -0.06531867 0 0.9978644
vn -0.002642987 0 0.9999965
vn -0.002642987 0 0.9999965
vn -0.002642987 0 0.9999965
vn -0.002642987 0 0.9999965
vn -0.07472101 0 0.9972045
vn -0.07472101 0 0.9972045
vn -0.07472101 0 0.9972045
vn -0.07472101 0 0.9972045
vn -0.3321421 0 0.9432294
vn -0.3321421 0 0.9432294
vn -0.3321421 0 0.9432294
vn -0.3321421 0 0.9432294
vn -0.3183811 0 0.9479628
vn -0.3183811 0 0.9479628
vn -0.3183811 0 0.9479628
vn -0.3183811 0 0.9479628
vn -0.2797403 0 0.9600757
vn -0.2797403 0 0.9600757
vn -0.2797403 0 0.9600757
vn -0.2797403 0 0.9600757
vn -0.3084132 0 0.9512525
vn -0.3084132 0 0.9512525
vn -0.3084132 0 0.9512525
vn -0.3084132 0 0.9512525
vn -0.2796233 0 0.9601098
vn -0.2796233 0 0.9601098
vn -0.2796233 0 0.9601098
vn -0.2796233 0 0.9601098
vn -0.264767 0 0.9643124
vn -0.264767 0 0.9643124
vn -0.264767 0 0.9643124
vn -0.264767 0 0.9643124
vn -0.4882743 0 0.8726902
vn -0.4882743 0 0.8726902
vn -0.4882743 0 0.8726902
vn -0.4882743 0 0.8726902
vn -0.4625462 0 0.8865952
vn -0.4625462 0 0.8865952
vn -0.4625462 0 0.8865952
vn -0.4625462 0 0.8865952
vn -0.8667565 0 0.4987316
vn -0.8667565 0 0.4987316
vn -0.8667565 0 0.4987316
vn -0.8667565 0 0.4987316
vn -0.9977248 0 -0.06741942
vn -0.9977248 0 -0.06741942
vn -0.9977248 0 -0.06741942
vn -0.9977248 0 -0.06741942
vn -0.9520544 0 -0.3059288
vn -0.9520544 0 -0.3059288
vn -0.6940588 0 -0.7199184
vn -0.6940588 0 -0.7199184
g _0
f 3/3/3 2/2/2 1/1/1
f 2/2/2 3/3/3 4/4/4
f 5/5/5 4/4/4 3/3/3
f 4/4/4 5/5/5 6/6/6
f 7/7/7 6/6/6 5/5/5
f 6/6/6 7/7/7 8/8/8
f 9/9/9 8/8/8 7/7/7
f 8/8/8 9/9/9 10/10/10
f 11/11/11 10/10/10 9/9/9
f 10/10/10 11/11/11 12/12/12
f 13/13/13 12/12/12 11/11/11
f 12/12/12 13/13/13 14/14/14
f 15/15/15 14/14/14 13/13/13
f 14/14/14 15/15/15 16/16/16
f 17/17/17 16/16/16 15/15/15
f 16/16/16 17/17/17 18/18/18
f 19/19/19 18/18/18 17/17/17
f 18/18/18 19/19/19 20/20/20
f 21/21/21 20/20/20 19/19/19
f 20/20/20 21/21/21 22/22/22
f 23/23/23 22/22/22 21/21/21
f 22/22/22 23/23/23 24/24/24
f 25/25/25 24/24/24 23/23/23
f 24/24/24 25/25/25 26/26/26
f 27/27/27 26/26/26 25/25/25
f 26/26/26 27/27/27 28/28/28
f 29/29/29 28/28/28 27/27/27
f 28/28/28 29/29/29 30/30/30
f 31/31/31 30/30/30 29/29/29
f 30/30/30 31/31/31 32/32/32
f 33/33/33 32/32/32 31/31/31
f 32/32/32 33/33/33 34/34/34
f 35/35/35 34/34/34 33/33/33
f 34/34/34 35/35/35 36/36/36
f 37/37/37 36/36/36 35/35/35
f 36/36/36 37/37/37 38/38/38
g _1
f 39/39/39 40/40/40 41/41/41
f 42/42/42 41/41/41 40/40/40
f 43/43/43 44/44/44 45/45/45
f 46/46/46 45/45/45 44/44/44
f 47/47/47 48/48/48 49/49/49
f 50/50/50 49/49/49 48/48/48
f 51/51/51 52/52/52 53/53/53
f 54/54/54 53/53/53 52/52/52
f 55/55/55 56/56/56 57/57/57
f 58/58/58 57/57/57 56/56/56
f 59/59/59 60/60/60 61/61/61
f 62/62/62 61/61/61 60/60/60
f 63/63/63 64/64/64 65/65/65
f 66/66/66 65/65/65 64/64/64
f 67/67/67 68/68/68 69/69/69
f 70/70/70 69/69/69 68/68/68
f 71/71/71 72/72/72 73/73/73
f 74/74/74 73/73/73 72/72/72
f 75/75/75 76/76/76 77/77/77
f 78/78/78 77/77/77 76/76/76
f 79/79/79 80/80/80 81/81/81
f 82/82/82 81/81/81 80/80/80
f 83/83/83 84/84/84 85/85/85
f 86/86/86 85/85/85 84/84/84
f 87/87/87 88/88/88 89/89/89
f 90/90/90 89/89/89 88/88/88
f 91/91/91 92/92/92 93/93/93
f 94/94/94 93/93/93 92/92/92
f 95/95/95 96/96/96 97/97/97
f 98/98/98 97/97/97 96/96/96
f 99/99/99 100/100/100 101/101/101
f 102/102/102 101/101/101 100/100/100
f 103/103/103 104/104/104 105/105/105
f 106/106/106 105/105/105 104/104/104
f 107/107/107 108/108/108 109/109/109
f 110/110/110 109/109/109 108/108/108
f 113/113/113 112/112/112 111/111/111
f 112/112/112 113/113/113 114/114/114
f 117/117/117 116/116/116 115/115/115
f 116/116/116 117/117/117 118/118/118
f 121/121/121 120/120/120 119/119/119
f 120/120/120 121/121/121 122/122/122
f 125/125/125 124/124/124 123/123/123
f 124/124/124 125/125/125 126/126/126
f 129/129/129 128/128/128 127/127/127
f 128/128/128 129/129/129 130/130/130
f 133/133/133 132/132/132 131/131/131
f 132/132/132 133/133/133 134/134/134
f 137/137/137 136/136/136 135/135/135
f 136/136/136 137/137/137 138/138/138
f 141/141/141 140/140/140 139/139/139
f 140/140/140 141/141/141 142/142/142
f 145/145/145 144/144/144 143/143/143
f 144/144/144 145/145/145 146/146/146
f 149/149/149 148/148/148 147/147/147
f 148/148/148 149/149/149 150/150/150
f 153/153/153 152/152/152 151/151/151
f 152/152/152 153/153/153 154/154/154
f 157/157/157 156/156/156 155/155/155
f 156/156/156 157/157/157 158/158/158
f 161/161/161 160/160/160 159/159/159
f 160/160/160 161/161/161 162/162/162
f 165/165/165 164/164/164 163/163/163
f 164/164/164 165/165/165 166/166/166
f 169/169/169 168/168/168 167/167/167
f 168/168/168 169/169/169 170/170/170
f 173/173/173 172/172/172 171/171/171
f 172/172/172 173/173/173 174/174/174
f 177/177/177 176/176/176 175/175/175
f 176/176/176 177/177/177 178/178/178
f 181/181/181 180/180/180 179/179/179
f 180/180/180 181/181/181 182/182/182
f 111/111/111 40/40/40 39/39/39
f 40/40/40 111/111/111 112/112/112
f 109/109/109 110/110/110 181/181/181
f 182/182/182 181/181/181 110/110/110
