g 
v 103.63 28.36561 38.94
v 103.63 14.87439 38.94
v 107.24 31.3396 39.57
v 107.24 10.4204 39.57
v 109.63 33.40547 43.53
v 109.63 7.354528 43.53
v 107.45 33.40547 49.42
v 107.45 7.354528 49.42
v 100.36 33.10829 49.62
v 100.36 9.491711 49.62
v 97.4 33.40547 46.26
v 97.4 7.354528 46.26
v 97.24 28.18021 42.44
v 97.24 14.01978 42.44
v 99.32 28.18021 39.47
v 99.32 14.01978 39.47
v 103.63 28.36561 38.94
v 103.63 14.87439 38.94
vt -1.0363 0.3894
vt -1.0363 0.3894
vt -1.0724 0.3957
vt -1.0724 0.3957
vt -1.0963 0.4353
vt -1.0963 0.4353
vt -1.0745 0.4942
vt -1.0745 0.4942
vt -1.0036 0.4962
vt -1.0036 0.4962
vt -0.974 0.4626
vt -0.974 0.4626
vt -0.9724 0.4244
vt -0.9724 0.4244
vt -0.9932 0.3947
vt -0.9932 0.3947
vt -1.0363 0.3894
vt -1.0363 0.3894
vn 0.1719172 0 -0.9851114
vn 0.1719172 0 -0.9851114
vn 0.8561547 0 -0.5167196
vn 0.8561547 0 -0.5167196
vn 0.9378255 0 0.347107
vn 0.9378255 0 0.347107
vn 0.02819765 0 0.9996024
vn 0.02819765 0 0.9996024
vn -0.7503592 0 0.6610304
vn -0.7503592 0 0.6610304
vn -0.9991239 0 0.04184908
vn -0.999124 0 0.04184909
vn -0.8191019 0 -0.5736481
vn -0.8191019 0 -0.5736481
vn -0.1220512 0 -0.9925238
vn -0.1220512 0 -0.9925238
vn -0.1220512 0 -0.9925238
vn -0.1220512 0 -0.9925238
g _0
f 3/3/3 2/2/2 1/1/1
f 2/2/2 3/3/3 4/4/4
f 5/5/5 4/4/4 3/3/3
f 4/4/4 5/5/5 6/6/6
f 7/7/7 6/6/6 5/5/5
f 6/6/6 7/7/7 8/8/8
f 9/9/9 8/8/8 7/7/7
f 8/8/8 9/9/9 10/10/10
f 11/11/11 10/10/10 9/9/9
f 10/10/10 11/11/11 12/12/12
f 13/13/13 12/12/12 11/11/11
f 12/12/12 13/13/13 14/14/14
f 15/15/15 14/14/14 13/13/13
f 14/14/14 15/15/15 16/16/16
f 17/17/17 16/16/16 15/15/15
f 16/16/16 17/17/17 18/18/18
