g 
v -18.74505 108.4166 -151.4761
v -18.74505 94.41657 -151.4761
v -17.23934 108.4166 -147.4632
v -17.23934 94.41657 -147.4632
v -19.26638 108.4166 -146.0186
v -19.26638 94.41657 -146.0186
v -23.73889 108.4166 -146.8664
v -23.73889 94.41657 -146.8664
v -25.17734 108.4166 -148.0581
v -25.17734 94.41657 -148.0581
v -24.96433 108.4166 -150.0218
v -24.96433 94.41657 -150.0218
v -23.07414 108.4166 -150.7725
v -23.07414 94.41657 -150.7725
v -21.61079 108.4166 -152.9839
v -21.61079 94.41657 -152.9839
v -19.43674 108.4166 -152.6175
v -19.43674 94.41657 -152.6175
v -18.74505 108.4166 -151.4761
v -18.74505 94.41657 -151.4761
vt 1.015005 -1.027205
vt 1.015005 -1.027205
vt 0.9999483 -0.9870758
vt 0.9999483 -0.9870758
vt 1.020219 -0.9726298
vt 1.020219 -0.9726298
vt 1.064944 -0.9811082
vt 1.064944 -0.9811082
vt 1.079328 -0.993025
vt 1.079328 -0.993025
vt 1.077198 -1.012662
vt 1.077198 -1.012662
vt 1.058296 -1.020169
vt 1.058296 -1.020169
vt 1.043663 -1.042283
vt 1.043663 -1.042283
vt 1.021922 -1.038619
vt 1.021922 -1.038619
vt 1.015005 -1.027205
vt 1.015005 -1.027205
vn 0.936263 0 -0.3512998
vn 0.936263 0 -0.3512998
vn 0.5803614 0 0.8143591
vn 0.5803614 0 0.8143591
vn -0.1862501 0 0.9825023
vn -0.1862501 0 0.9825023
vn -0.6379605 0 0.7700691
vn -0.6379605 0 0.7700691
vn -0.9941686 0 -0.1078371
vn -0.9941686 0 -0.1078371
vn -0.3690844 0 -0.9293959
vn -0.3690844 0 -0.9293959
vn -0.8339452 0 -0.5518472
vn -0.8339452 0 -0.5518472
vn 0.1661804 0 -0.9860954
vn 0.1661804 0 -0.9860954
vn 0.8552153 0 -0.518273
vn 0.8552153 0 -0.518273
vn 0.8552153 0 -0.518273
vn 0.8552153 0 -0.518273
g _0
f 3/3/3 2/2/2 1/1/1
f 2/2/2 3/3/3 4/4/4
f 5/5/5 4/4/4 3/3/3
f 4/4/4 5/5/5 6/6/6
f 7/7/7 6/6/6 5/5/5
f 6/6/6 7/7/7 8/8/8
f 9/9/9 8/8/8 7/7/7
f 8/8/8 9/9/9 10/10/10
f 11/11/11 10/10/10 9/9/9
f 10/10/10 11/11/11 12/12/12
f 13/13/13 12/12/12 11/11/11
f 12/12/12 13/13/13 14/14/14
f 15/15/15 14/14/14 13/13/13
f 14/14/14 15/15/15 16/16/16
f 17/17/17 16/16/16 15/15/15
f 16/16/16 17/17/17 18/18/18
f 19/19/19 18/18/18 17/17/17
f 18/18/18 19/19/19 20/20/20
