g 
v -70.40097 6.8 -34.12553
v -73.50333 6.8 -40.24473
v -67.51514 6.8 -32.46544
v -73.13677 6.8 -43.55373
v -62.93547 6.8 -33.16644
v -69.86453 6.8 -46.83356
v -59.305 7.785185 -35.50322
v -65.73515 7.785185 -48.43093
v -55.719 8.985621 -37.87411
v -60.73181 8.985621 -50.25787
v -53.20053 11.13813 -39.78153
v -54.95533 11.13813 -50.9872
v -51.21126 12.95506 -40.61923
v -48.77326 12.95506 -50.09134
v -48.73824 14.26864 -39.74831
v -43.26035 14.26864 -46.86174
v -47.39639 13.89444 -37.56917
v -38.1088 13.89444 -41.99117
v -48.93709 13.14173 -35.74749
v -35.61185 13.14173 -35.21595
v -50.74819 12.39477 -32.876
v -35.46259 12.39477 -28.9956
v -52.59927 11.99826 -29.06181
v -36.53765 11.99826 -23.82872
v -53.84931 11.8 -26.98548
v -36.75069 11.8 -21.41452
v -53.68423 11.8 -21.60226
v -40.05529 11.8 -17.16178
v -51.37031 11.8 -18.64084
v -43.66964 11.8 -16.13186
v -70.40097 6.8 -34.12553
v -70.40097 1.8 -34.12553
v -67.51514 6.8 -32.46544
v -67.51514 1.8 -32.46544
v -67.51514 6.8 -32.46544
v -67.51514 1.8 -32.46544
v -62.93547 6.8 -33.16644
v -62.93547 1.8 -33.16644
v -62.93547 6.8 -33.16644
v -62.93547 1.8 -33.16644
v -59.305 7.785185 -35.50322
v -59.305 2.785185 -35.50322
v -59.305 7.785185 -35.50322
v -59.305 2.785185 -35.50322
v -55.719 8.985621 -37.87411
v -55.719 3.985621 -37.87411
v -55.719 8.985621 -37.87411
v -55.719 3.985621 -37.87411
v -53.20053 11.13813 -39.78153
v -53.20053 6.138126 -39.78153
v -53.20053 11.13813 -39.78153
v -53.20053 6.138126 -39.78153
v -51.21126 12.95506 -40.61923
v -51.21126 7.955061 -40.61923
v -51.21126 12.95506 -40.61923
v -51.21126 7.955061 -40.61923
v -48.73824 14.26864 -39.74831
v -48.73824 9.268641 -39.74831
v -48.73824 14.26864 -39.74831
v -48.73824 9.268641 -39.74831
v -47.39639 13.89444 -37.56917
v -47.39639 8.894444 -37.56917
v -47.39639 13.89444 -37.56917
v -47.39639 8.894444 -37.56917
v -48.93709 13.14173 -35.74749
v -48.93709 8.141728 -35.74749
v -48.93709 13.14173 -35.74749
v -48.93709 8.141728 -35.74749
v -50.74819 12.39477 -32.876
v -50.74819 7.394772 -32.876
v -50.74819 12.39477 -32.876
v -50.74819 7.394772 -32.876
v -52.59927 11.99826 -29.06181
v -52.59927 6.998258 -29.06181
v -52.59927 11.99826 -29.06181
v -52.59927 6.998258 -29.06181
v -53.84931 11.8 -26.98548
v -53.84931 6.8 -26.98548
v -53.84931 11.8 -26.98548
v -53.84931 6.8 -26.98548
v -53.68423 11.8 -21.60226
v -53.68423 6.8 -21.60226
v -53.68423 11.8 -21.60226
v -53.68423 6.8 -21.60226
v -51.37031 11.8 -18.64084
v -51.37031 6.8 -18.64084
v -73.50333 6.8 -40.24473
v -73.50333 1.8 -40.24473
v -73.13677 6.8 -43.55373
v -73.13677 1.8 -43.55373
v -73.13677 6.8 -43.55373
v -73.13677 1.8 -43.55373
v -69.86453 6.8 -46.83356
v -69.86453 1.8 -46.83356
v -69.86453 6.8 -46.83356
v -69.86453 1.8 -46.83356
v -65.73515 7.785185 -48.43093
v -65.73515 2.785185 -48.43093
v -65.73515 7.785185 -48.43093
v -65.73515 2.785185 -48.43093
v -60.73181 8.985621 -50.25787
v -60.73181 3.985621 -50.25787
v -60.73181 8.985621 -50.25787
v -60.73181 3.985621 -50.25787
v -54.95533 11.13813 -50.9872
v -54.95533 6.138126 -50.9872
v -54.95533 11.13813 -50.9872
v -54.95533 6.138126 -50.9872
v -48.77326 12.95506 -50.09134
v -48.77326 7.955061 -50.09134
v -48.77326 12.95506 -50.09134
v -48.77326 7.955061 -50.09134
v -43.26035 14.26864 -46.86174
v -43.26035 9.268641 -46.86174
v -43.26035 14.26864 -46.86174
v -43.26035 9.268641 -46.86174
v -38.1088 13.89444 -41.99117
v -38.1088 8.894444 -41.99117
v -38.1088 13.89444 -41.99117
v -38.1088 8.894444 -41.99117
v -35.61185 13.14173 -35.21595
v -35.61185 8.141728 -35.21595
v -35.61185 13.14173 -35.21595
v -35.61185 8.141728 -35.21595
v -35.46259 12.39477 -28.9956
v -35.46259 7.394772 -28.9956
v -35.46259 12.39477 -28.9956
v -35.46259 7.394772 -28.9956
v -36.53765 11.99826 -23.82872
v -36.53765 6.998258 -23.82872
v -36.53765 11.99826 -23.82872
v -36.53765 6.998258 -23.82872
v -36.75069 11.8 -21.41452
v -36.75069 6.8 -21.41452
v -36.75069 11.8 -21.41452
v -36.75069 6.8 -21.41452
v -40.05529 11.8 -17.16178
v -40.05529 6.8 -17.16178
v -40.05529 11.8 -17.16178
v -40.05529 6.8 -17.16178
v -43.66964 11.8 -16.13186
v -43.66964 6.8 -16.13186
vt -0.08536377 0.01239546
vt -0.09084818 0.008273519
vt -0.08423238 0.01552657
vt -0.09417041 0.008057402
vt -0.08572128 0.01991382
vt -0.09797063 0.01070753
vt -0.08865537 0.02308115
vt -0.1002636 0.01449507
vt -0.09161528 0.02619874
vt -0.1029351 0.01910315
vt -0.09393267 0.02834598
vt -0.1046606 0.02466393
vt -0.09510445 0.03015869
vt -0.1048566 0.0309075
vt -0.09467813 0.03274569
vt -0.1026378 0.03689915
vt -0.0927664 0.034447
vt -0.09874029 0.04282113
vt -0.09070395 0.03324759
vt -0.09250434 0.04646134
vt -0.08756062 0.031965
vt -0.08640533 0.04769307
vt -0.08348206 0.03080744
vt -0.08113015 0.04753553
vt -0.08121955 0.02993864
vt -0.07871579 0.04774677
vt -0.07594762 0.03103997
vt -0.07395192 0.04523444
vt -0.0734351 0.03383487
vt -0.07230748 0.04185509
vt -0.08536377 0.01239546
vt -0.08536377 0.01239546
vt -0.08423238 0.01552657
vt -0.08423238 0.01552657
vt -0.08423238 0.01552657
vt -0.08423238 0.01552657
vt -0.08572128 0.01991382
vt -0.08572128 0.01991382
vt -0.08572128 0.01991382
vt -0.08572128 0.01991382
vt -0.08865537 0.02308115
vt -0.08865537 0.02308115
vt -0.08865537 0.02308115
vt -0.08865537 0.02308115
vt -0.09161528 0.02619874
vt -0.09161528 0.02619874
vt -0.09161528 0.02619874
vt -0.09161528 0.02619874
vt -0.09393267 0.02834598
vt -0.09393267 0.02834598
vt -0.09393267 0.02834598
vt -0.09393267 0.02834598
vt -0.09510445 0.03015869
vt -0.09510445 0.03015869
vt -0.09510445 0.03015869
vt -0.09510445 0.03015869
vt -0.09467813 0.03274569
vt -0.09467813 0.03274569
vt -0.09467813 0.03274569
vt -0.09467813 0.03274569
vt -0.0927664 0.034447
vt -0.0927664 0.034447
vt -0.0927664 0.034447
vt -0.0927664 0.034447
vt -0.09070395 0.03324759
vt -0.09070395 0.03324759
vt -0.09070395 0.03324759
vt -0.09070395 0.03324759
vt -0.08756062 0.031965
vt -0.08756062 0.031965
vt -0.08756062 0.031965
vt -0.08756062 0.031965
vt -0.08348206 0.03080744
vt -0.08348206 0.03080744
vt -0.08348206 0.03080744
vt -0.08348206 0.03080744
vt -0.08121955 0.02993864
vt -0.08121955 0.02993864
vt -0.08121955 0.02993864
vt -0.08121955 0.02993864
vt -0.07594762 0.03103997
vt -0.07594762 0.03103997
vt -0.07594762 0.03103997
vt -0.07594762 0.03103997
vt -0.0734351 0.03383487
vt -0.0734351 0.03383487
vt -0.09084818 0.008273519
vt -0.09084818 0.008273519
vt -0.09417041 0.008057402
vt -0.09417041 0.008057402
vt -0.09417041 0.008057402
vt -0.09417041 0.008057402
vt -0.09797063 0.01070753
vt -0.09797063 0.01070753
vt -0.09797063 0.01070753
vt -0.09797063 0.01070753
vt -0.1002636 0.01449507
vt -0.1002636 0.01449507
vt -0.1002636 0.01449507
vt -0.1002636 0.01449507
vt -0.1029351 0.01910315
vt -0.1029351 0.01910315
vt -0.1029351 0.01910315
vt -0.1029351 0.01910315
vt -0.1046606 0.02466393
vt -0.1046606 0.02466393
vt -0.1046606 0.02466393
vt -0.1046606 0.02466393
vt -0.1048566 0.0309075
vt -0.1048566 0.0309075
vt -0.1048566 0.0309075
vt -0.1048566 0.0309075
vt -0.1026378 0.03689915
vt -0.1026378 0.03689915
vt -0.1026378 0.03689915
vt -0.1026378 0.03689915
vt -0.09874029 0.04282113
vt -0.09874029 0.04282113
vt -0.09874029 0.04282113
vt -0.09874029 0.04282113
vt -0.09250434 0.04646134
vt -0.09250434 0.04646134
vt -0.09250434 0.04646134
vt -0.09250434 0.04646134
vt -0.08640533 0.04769307
vt -0.08640533 0.04769307
vt -0.08640533 0.04769307
vt -0.08640533 0.04769307
vt -0.08113015 0.04753553
vt -0.08113015 0.04753553
vt -0.08113015 0.04753553
vt -0.08113015 0.04753553
vt -0.07871579 0.04774677
vt -0.07871579 0.04774677
vt -0.07871579 0.04774677
vt -0.07871579 0.04774677
vt -0.07395192 0.04523444
vt -0.07395192 0.04523444
vt -0.07395192 0.04523444
vt -0.07395192 0.04523444
vt -0.07230748 0.04185509
vt -0.07230748 0.04185509
vn 0 1 0
vn 0 1 0
vn 0 1 0
vn 0 1 0
vn 0 1 0
vn 0 1 0
vn 0 1 0
vn 0 1 0
vn 0 1 0
vn 0 1 0
vn 0 1 0
vn 0 1 0
vn 0 1 0
vn 0 1 0
vn 0 1 0
vn 0 1 0
vn 0 1 0
vn 0 1 0
vn 0 1 0
vn 0 1 0
vn 0 1 0
vn 0 1 0
vn 0 1 0
vn 0 1 0
vn 0 1 0
vn 0 1 0
vn 0 1 0
vn 0 1 0
vn 0 1 0
vn 0 1 0
vn -0.8919206 0 0.4521922
vn -0.8919206 0 0.4521922
vn -0.4986368 0 0.8668111
vn -0.4986368 0 0.8668111
vn 0.1513045 0 0.9884872
vn 0.1513045 0 0.9884872
vn 0.1513045 0 0.9884872
vn 0.1513045 0 0.9884872
vn 0.5412343 0 0.8408719
vn 0.5412343 0 0.8408719
vn 0.5412343 0 0.8408719
vn 0.5412343 0 0.8408719
vn 0.5515106 0 0.8341679
vn 0.5515106 0 0.8341679
vn 0.5515106 0 0.8341679
vn 0.5515106 0 0.8341679
vn 0.603756 0 0.7971691
vn 0.603756 0 0.7971691
vn 0.603756 0 0.7971691
vn 0.603756 0 0.7971691
vn 0.3881023 0 0.9216163
vn 0.3881023 0 0.9216163
vn 0.3881023 0 0.9216163
vn 0.3881023 0 0.9216163
vn -0.3321729 0 0.9432185
vn -0.3321729 0 0.9432185
vn -0.3321729 0 0.9432185
vn -0.3321729 0 0.9432185
vn -0.8515108 0 0.5243372
vn -0.8515108 0 0.5243372
vn -0.8515108 0 0.5243372
vn -0.8515108 0 0.5243372
vn -0.7635358 0 -0.6457655
vn -0.7635358 0 -0.6457655
vn -0.7635358 0 -0.6457655
vn -0.7635358 0 -0.6457655
vn -0.8458181 0 -0.5334713
vn -0.8458181 0 -0.5334713
vn -0.8458181 0 -0.5334713
vn -0.8458181 0 -0.5334713
vn -0.8996493 0 -0.4366131
vn -0.8996493 0 -0.4366131
vn -0.8996493 0 -0.4366131
vn -0.8996493 0 -0.4366131
vn -0.8567194 0 -0.5157827
vn -0.8567194 0 -0.5157827
vn -0.8567194 0 -0.5157827
vn -0.8567194 0 -0.5157827
vn -0.9995301 0 0.03065219
vn -0.9995301 0 0.03065219
vn -0.9995301 0 0.03065219
vn -0.9995301 0 0.03065219
vn -0.7879847 0 0.6156947
vn -0.7879847 0 0.6156947
vn -0.3097851 0 0.9508066
vn -0.3097851 0 0.9508066
vn -0.8919206 0 0.4521922
vn -0.8919206 0 0.4521922
vn -0.9939203 0 -0.1101014
vn -0.9939203 0 -0.1101014
vn -0.7079256 0 -0.7062871
vn -0.7079256 0 -0.7062871
vn -0.7079256 0 -0.7062871
vn -0.7079256 0 -0.7062871
vn -0.3607782 0 -0.9326516
vn -0.3607782 0 -0.9326516
vn -0.3607782 0 -0.9326516
vn -0.3607782 0 -0.9326516
vn -0.3429924 0 -0.9393381
vn -0.3429924 0 -0.9393381
vn -0.3429924 0 -0.9393381
vn -0.3429924 0 -0.9393381
vn -0.125265 0 -0.9921233
vn -0.125265 0 -0.9921233
vn -0.125265 0 -0.9921233
vn -0.125265 0 -0.9921233
vn 0.1434151 0 -0.9896626
vn 0.1434151 0 -0.9896626
vn 0.1434151 0 -0.9896626
vn 0.1434151 0 -0.9896626
vn 0.5054743 0 -0.8628417
vn 0.5054743 0 -0.8628417
vn 0.5054743 0 -0.8628417
vn 0.5054743 0 -0.8628417
vn 0.6870125 0 -0.7266456
vn 0.6870125 0 -0.7266456
vn 0.6870125 0 -0.7266456
vn 0.6870125 0 -0.7266456
vn 0.9383065 0 -0.3458049
vn 0.9383065 0 -0.3458049
vn 0.9383065 0 -0.3458049
vn 0.9383065 0 -0.3458049
vn 0.9997122 0 -0.02398875
vn 0.9997122 0 -0.02398875
vn 0.9997122 0 -0.02398875
vn 0.9997122 0 -0.02398875
vn 0.9790322 0 0.203706
vn 0.9790322 0 0.203706
vn 0.9790322 0 0.203706
vn 0.9790322 0 0.203706
vn 0.9961293 0 0.0878996
vn 0.9961293 0 0.0878996
vn 0.9961293 0 0.0878996
vn 0.9961293 0 0.0878996
vn 0.7896298 0 0.6135836
vn 0.7896298 0 0.6135836
vn 0.7896298 0 0.6135836
vn 0.7896298 0 0.6135836
vn 0.2740439 0 0.9617172
vn 0.2740439 0 0.9617172
vn -0.3097851 0 0.9508066
vn -0.3097851 0 0.9508066
g _0
f 3/3/3 2/2/2 1/1/1
f 2/2/2 3/3/3 4/4/4
f 5/5/5 4/4/4 3/3/3
f 4/4/4 5/5/5 6/6/6
f 7/7/7 6/6/6 5/5/5
f 6/6/6 7/7/7 8/8/8
f 9/9/9 8/8/8 7/7/7
f 8/8/8 9/9/9 10/10/10
f 11/11/11 10/10/10 9/9/9
f 10/10/10 11/11/11 12/12/12
f 13/13/13 12/12/12 11/11/11
f 12/12/12 13/13/13 14/14/14
f 15/15/15 14/14/14 13/13/13
f 14/14/14 15/15/15 16/16/16
f 17/17/17 16/16/16 15/15/15
f 16/16/16 17/17/17 18/18/18
f 19/19/19 18/18/18 17/17/17
f 18/18/18 19/19/19 20/20/20
f 21/21/21 20/20/20 19/19/19
f 20/20/20 21/21/21 22/22/22
f 23/23/23 22/22/22 21/21/21
f 22/22/22 23/23/23 24/24/24
f 25/25/25 24/24/24 23/23/23
f 24/24/24 25/25/25 26/26/26
f 27/27/27 26/26/26 25/25/25
f 26/26/26 27/27/27 28/28/28
f 29/29/29 28/28/28 27/27/27
f 28/28/28 29/29/29 30/30/30
g _1
f 31/31/31 32/32/32 33/33/33
f 34/34/34 33/33/33 32/32/32
f 35/35/35 36/36/36 37/37/37
f 38/38/38 37/37/37 36/36/36
f 39/39/39 40/40/40 41/41/41
f 42/42/42 41/41/41 40/40/40
f 43/43/43 44/44/44 45/45/45
f 46/46/46 45/45/45 44/44/44
f 47/47/47 48/48/48 49/49/49
f 50/50/50 49/49/49 48/48/48
f 51/51/51 52/52/52 53/53/53
f 54/54/54 53/53/53 52/52/52
f 55/55/55 56/56/56 57/57/57
f 58/58/58 57/57/57 56/56/56
f 59/59/59 60/60/60 61/61/61
f 62/62/62 61/61/61 60/60/60
f 63/63/63 64/64/64 65/65/65
f 66/66/66 65/65/65 64/64/64
f 67/67/67 68/68/68 69/69/69
f 70/70/70 69/69/69 68/68/68
f 71/71/71 72/72/72 73/73/73
f 74/74/74 73/73/73 72/72/72
f 75/75/75 76/76/76 77/77/77
f 78/78/78 77/77/77 76/76/76
f 79/79/79 80/80/80 81/81/81
f 82/82/82 81/81/81 80/80/80
f 83/83/83 84/84/84 85/85/85
f 86/86/86 85/85/85 84/84/84
f 89/89/89 88/88/88 87/87/87
f 88/88/88 89/89/89 90/90/90
f 93/93/93 92/92/92 91/91/91
f 92/92/92 93/93/93 94/94/94
f 97/97/97 96/96/96 95/95/95
f 96/96/96 97/97/97 98/98/98
f 101/101/101 100/100/100 99/99/99
f 100/100/100 101/101/101 102/102/102
f 105/105/105 104/104/104 103/103/103
f 104/104/104 105/105/105 106/106/106
f 109/109/109 108/108/108 107/107/107
f 108/108/108 109/109/109 110/110/110
f 113/113/113 112/112/112 111/111/111
f 112/112/112 113/113/113 114/114/114
f 117/117/117 116/116/116 115/115/115
f 116/116/116 117/117/117 118/118/118
f 121/121/121 120/120/120 119/119/119
f 120/120/120 121/121/121 122/122/122
f 125/125/125 124/124/124 123/123/123
f 124/124/124 125/125/125 126/126/126
f 129/129/129 128/128/128 127/127/127
f 128/128/128 129/129/129 130/130/130
f 133/133/133 132/132/132 131/131/131
f 132/132/132 133/133/133 134/134/134
f 137/137/137 136/136/136 135/135/135
f 136/136/136 137/137/137 138/138/138
f 141/141/141 140/140/140 139/139/139
f 140/140/140 141/141/141 142/142/142
f 87/87/87 32/32/32 31/31/31
f 32/32/32 87/87/87 88/88/88
f 85/85/85 86/86/86 141/141/141
f 142/142/142 141/141/141 86/86/86
