g 
v -3.490022 108.4166 -142.1593
v -3.490022 94.41657 -142.1593
v -5.223253 108.4166 -144.5887
v -5.223253 94.41657 -144.5887
v -0.816278 108.4166 -145.7701
v -0.816278 94.41657 -145.7701
v 2.327002 108.4166 -148.4194
v 2.327002 94.41657 -148.4194
v 8.674109 108.4166 -147.7126
v 8.674109 94.41657 -147.7126
v 19.21437 108.4166 -144.2073
v 19.21437 94.41657 -144.2073
v 25.4978 108.4166 -138.5042
v 25.4978 94.41657 -138.5042
v 24.49597 108.4166 -135.147
v 24.49597 94.41657 -135.147
v 21.82553 108.4166 -136.6826
v 21.82553 94.41657 -136.6826
v 12.90987 108.4166 -140.2803
v 12.90987 94.41657 -140.2803
v 9.892759 108.4166 -143.3324
v 9.892759 94.41657 -143.3324
v 5.086264 108.4166 -143.1505
v 5.086264 94.41657 -143.1505
v 3.662802 108.4166 -144.198
v 3.662802 94.41657 -144.198
v -2.503473 108.4166 -141.1342
v -2.503473 94.41657 -141.1342
v -3.490022 108.4166 -142.1593
v -3.490022 94.41657 -142.1593
vt 0.8624552 -0.9340367
vt 0.8624552 -0.9340367
vt 0.8797875 -0.9583308
vt 0.8797875 -0.9583308
vt 0.8357177 -0.9701445
vt 0.8357177 -0.9701445
vt 0.8042849 -0.9966375
vt 0.8042849 -0.9966375
vt 0.7408139 -0.9895698
vt 0.7408139 -0.9895698
vt 0.6354113 -0.9545171
vt 0.6354113 -0.9545171
vt 0.5725769 -0.8974864
vt 0.5725769 -0.8974864
vt 0.5825953 -0.8639137
vt 0.5825953 -0.8639137
vt 0.6092997 -0.8792704
vt 0.6092997 -0.8792704
vt 0.6984562 -0.9152468
vt 0.6984562 -0.9152468
vt 0.7286274 -0.9457675
vt 0.7286274 -0.9457675
vt 0.7766923 -0.9439485
vt 0.7766923 -0.9439485
vt 0.7909269 -0.9544241
vt 0.7909269 -0.9544241
vt 0.8525897 -0.9237862
vt 0.8525897 -0.9237862
vt 0.8624552 -0.9340367
vt 0.8624552 -0.9340367
vn -0.8140605 0 0.5807801
vn -0.8140605 0 0.5807801
vn -0.2589255 0 -0.9658973
vn -0.2589255 0 -0.9658973
vn -0.6444679 0 -0.7646313
vn -0.6444679 0 -0.7646313
vn 0.1106694 0 -0.9938573
vn 0.1106694 0 -0.9938573
vn 0.315568 0 -0.948903
vn 0.315568 0 -0.948903
vn 0.6720826 0 -0.7404762
vn 0.6720826 0 -0.7404762
vn 0.9582455 0 0.2859467
vn 0.9582455 0 0.2859467
vn -0.4985135 0 0.866882
vn -0.4985135 0 0.866882
vn -0.3742024 0 0.9273471
vn -0.3742024 0 0.9273471
vn -0.711167 0 0.7030231
vn -0.711167 0 0.7030231
vn 0.03781756 0 0.9992846
vn 0.03781756 0 0.9992846
vn -0.5927204 0 0.8054083
vn -0.5927204 0 0.8054083
vn 0.4449651 0 0.8955479
vn 0.4449651 0 0.8955479
vn -0.72051 0 0.6934445
vn -0.72051 0 0.6934445
vn -0.72051 0 0.6934445
vn -0.72051 0 0.6934445
g _0
f 3/3/3 2/2/2 1/1/1
f 2/2/2 3/3/3 4/4/4
f 5/5/5 4/4/4 3/3/3
f 4/4/4 5/5/5 6/6/6
f 7/7/7 6/6/6 5/5/5
f 6/6/6 7/7/7 8/8/8
f 9/9/9 8/8/8 7/7/7
f 8/8/8 9/9/9 10/10/10
f 11/11/11 10/10/10 9/9/9
f 10/10/10 11/11/11 12/12/12
f 13/13/13 12/12/12 11/11/11
f 12/12/12 13/13/13 14/14/14
f 15/15/15 14/14/14 13/13/13
f 14/14/14 15/15/15 16/16/16
f 17/17/17 16/16/16 15/15/15
f 16/16/16 17/17/17 18/18/18
f 19/19/19 18/18/18 17/17/17
f 18/18/18 19/19/19 20/20/20
f 21/21/21 20/20/20 19/19/19
f 20/20/20 21/21/21 22/22/22
f 23/23/23 22/22/22 21/21/21
f 22/22/22 23/23/23 24/24/24
f 25/25/25 24/24/24 23/23/23
f 24/24/24 25/25/25 26/26/26
f 27/27/27 26/26/26 25/25/25
f 26/26/26 27/27/27 28/28/28
f 29/29/29 28/28/28 27/27/27
f 28/28/28 29/29/29 30/30/30
