g 
v -12.49 61.0304 -12.16
v -12.49 39.1696 -12.16
v -14.5 61.57258 -12.5
v -14.5 38.62742 -12.5
v -15.4 61.57258 -11.36
v -15.4 38.62742 -11.36
v -14.6 61.57258 -9.38
v -14.6 38.62742 -9.38
v -12.73 61.57258 -9.78
v -12.73 38.62742 -9.78
v -12.05 61.57258 -10.79
v -12.05 38.62742 -10.79
v -12.49 61.0304 -12.16
v -12.49 39.1696 -12.16
vt 0.1039 -0.2346
vt 0.1039 -0.2346
vt 0.124 -0.238
vt 0.124 -0.238
vt 0.133 -0.2266
vt 0.133 -0.2266
vt 0.125 -0.2068
vt 0.125 -0.2068
vt 0.1063 -0.2108
vt 0.1063 -0.2108
vt 0.09950001 -0.2209
vt 0.09950001 -0.2209
vt 0.1039 -0.2346
vt 0.1039 -0.2346
vn 0.166785 0 -0.9859933
vn 0.166785 0 -0.9859933
vn -0.784883 0 -0.619644
vn -0.784883 0 -0.619644
vn -0.9271794 0 0.3746176
vn -0.9271794 0 0.3746176
vn 0.2091717 0 0.9778789
vn 0.2091717 0 0.9778789
vn 0.8295149 0 0.5584846
vn 0.8295149 0 0.5584846
vn 0.952101 0 -0.305784
vn 0.9521009 0 -0.305784
vn 0.9521009 0 -0.305784
vn 0.9521009 0 -0.305784
g _0
f 1/1/1 2/2/2 3/3/3
f 4/4/4 3/3/3 2/2/2
f 3/3/3 4/4/4 5/5/5
f 6/6/6 5/5/5 4/4/4
f 5/5/5 6/6/6 7/7/7
f 8/8/8 7/7/7 6/6/6
f 7/7/7 8/8/8 9/9/9
f 10/10/10 9/9/9 8/8/8
f 9/9/9 10/10/10 11/11/11
f 12/12/12 11/11/11 10/10/10
f 11/11/11 12/12/12 13/13/13
f 14/14/14 13/13/13 12/12/12
