g 
v 114.8 21.15324 -22.2
v 114.8 6.266758 -22.2
v 114.11 22.23245 -23.36
v 114.11 6.607551 -23.36
v 109.38 22.23245 -21.87
v 109.38 6.607551 -21.87
v 107.83 22.23245 -17.83
v 107.83 6.607551 -17.83
v 108.59 22.23245 -16.33
v 108.59 6.607549 -16.33
v 113.2 22.23245 -18.62
v 113.2 6.607549 -18.62
v 114.8 21.15324 -22.2
v 114.8 6.266758 -22.2
vt -1.169 -0.335
vt -1.169 -0.335
vt -1.1621 -0.3466
vt -1.1621 -0.3466
vt -1.1148 -0.3317
vt -1.1148 -0.3317
vt -1.0993 -0.2913
vt -1.0993 -0.2913
vt -1.1069 -0.2763
vt -1.1069 -0.2763
vt -1.153 -0.2992
vt -1.153 -0.2992
vt -1.169 -0.335
vt -1.169 -0.335
vn 0.8594471 0 -0.5112247
vn 0.8594471 0 -0.5112247
vn -0.3004552 0 -0.9537959
vn -0.3004552 0 -0.9537959
vn -0.9336435 0 -0.3582036
vn -0.9336435 0 -0.3582036
vn -0.8920352 0 0.4519658
vn -0.8920352 0 0.4519658
vn 0.4448809 0 0.8955898
vn 0.4448809 0 0.8955898
vn 0.9129678 0 0.4080316
vn 0.9129677 0 0.4080316
vn 0.9129677 0 0.4080316
vn 0.9129677 0 0.4080316
g _0
f 1/1/1 2/2/2 3/3/3
f 4/4/4 3/3/3 2/2/2
f 3/3/3 4/4/4 5/5/5
f 6/6/6 5/5/5 4/4/4
f 5/5/5 6/6/6 7/7/7
f 8/8/8 7/7/7 6/6/6
f 7/7/7 8/8/8 9/9/9
f 10/10/10 9/9/9 8/8/8
f 9/9/9 10/10/10 11/11/11
f 12/12/12 11/11/11 10/10/10
f 11/11/11 12/12/12 13/13/13
f 14/14/14 13/13/13 12/12/12
