g 
v 18.96893 17.95 -4.445218
v -0.9889269 17.95 -16.35478
v 22.77676 17.775 -10.85699
v 3.002101 17.775 -23.01221
v 27.94291 17.6 -17.24313
v 6.784369 17.6 -30.8021
v 41.61575 17.6 -19.43721
v 2.002272 17.6 -42.26968
v 46.74029 17.6 -29.27469
v 5.967817 17.6 -49.9666
v 51.18365 17.6 -38.21934
v 10.31206 17.6 -58.71475
v 55.38673 17.6 -46.5321
v 15.03101 17.6 -68.02546
v 52.51621 17.6 -58.06746
v 27.28944 17.6 -73.24518
v 55.02433 17.6 -67.19536
v 35.01023 17.6 -79.96718
v 60.08435 17.6 -75.21458
v 40.00835 17.6 -87.8889
v 65.11552 17.6 -83.17944
v 45.0434 17.6 -95.85989
v 68.1355 17.6 -87.95889
v 48.0645 17.6 -100.6411
v 18.96893 17.95 -4.445218
v 18.96893 -2.049999 -4.445218
v 22.77676 17.775 -10.85699
v 22.77676 -2.224998 -10.85699
v 22.77676 17.775 -10.85699
v 22.77676 -2.224998 -10.85699
v 27.94291 17.6 -17.24313
v 27.94291 -2.4 -17.24313
v 27.94291 17.6 -17.24313
v 27.94291 -2.4 -17.24313
v 41.61575 17.6 -19.43721
v 41.61575 -2.4 -19.43721
v 41.61575 17.6 -19.43721
v 41.61575 -2.4 -19.43721
v 46.74029 17.6 -29.27469
v 46.74029 -2.4 -29.27469
v 46.74029 17.6 -29.27469
v 46.74029 -2.4 -29.27469
v 51.18365 17.6 -38.21934
v 51.18365 -2.4 -38.21934
v 51.18365 17.6 -38.21934
v 51.18365 -2.4 -38.21934
v 55.38673 17.6 -46.5321
v 55.38673 -2.4 -46.5321
v 55.38673 17.6 -46.5321
v 55.38673 -2.4 -46.5321
v 52.51621 17.6 -58.06746
v 52.51621 -2.4 -58.06746
v 52.51621 17.6 -58.06746
v 52.51621 -2.4 -58.06746
v 55.02433 17.6 -67.19536
v 55.02433 -2.4 -67.19536
v 55.02433 17.6 -67.19536
v 55.02433 -2.4 -67.19536
v 60.08435 17.6 -75.21458
v 60.08435 -2.4 -75.21458
v 60.08435 17.6 -75.21458
v 60.08435 -2.4 -75.21458
v 65.11552 17.6 -83.17944
v 65.11552 -2.4 -83.17944
v 65.11552 17.6 -83.17944
v 65.11552 -2.4 -83.17944
v 68.1355 17.6 -87.95889
v 68.1355 -2.4 -87.95889
v -0.9889269 17.95 -16.35478
v -0.9889269 -2.049999 -16.35478
v 3.002101 17.775 -23.01221
v 3.002101 -2.224998 -23.01221
v 3.002101 17.775 -23.01221
v 3.002101 -2.224998 -23.01221
v 6.784369 17.6 -30.8021
v 6.784369 -2.4 -30.8021
v 6.784369 17.6 -30.8021
v 6.784369 -2.4 -30.8021
v 2.002272 17.6 -42.26968
v 2.002272 -2.4 -42.26968
v 2.002272 17.6 -42.26968
v 2.002272 -2.4 -42.26968
v 5.967817 17.6 -49.9666
v 5.967817 -2.4 -49.9666
v 5.967817 17.6 -49.9666
v 5.967817 -2.4 -49.9666
v 10.31206 17.6 -58.71475
v 10.31206 -2.4 -58.71475
v 10.31206 17.6 -58.71475
v 10.31206 -2.4 -58.71475
v 15.03101 17.6 -68.02546
v 15.03101 -2.4 -68.02546
v 15.03101 17.6 -68.02546
v 15.03101 -2.4 -68.02546
v 27.28944 17.6 -73.24518
v 27.28944 -2.4 -73.24518
v 27.28944 17.6 -73.24518
v 27.28944 -2.4 -73.24518
v 35.01023 17.6 -79.96718
v 35.01023 -2.4 -79.96718
v 35.01023 17.6 -79.96718
v 35.01023 -2.4 -79.96718
v 40.00835 17.6 -87.8889
v 40.00835 -2.4 -87.8889
v 40.00835 17.6 -87.8889
v 40.00835 -2.4 -87.8889
v 45.0434 17.6 -95.85989
v 45.0434 -2.4 -95.85989
v 45.0434 17.6 -95.85989
v 45.0434 -2.4 -95.85989
v 48.0645 17.6 -100.6411
v 48.0645 -2.4 -100.6411
vt -0.02089441 -0.09190139
vt 0.001821711 -0.0968138
vt -0.02245525 -0.09919345
vt 0.0001657124 -0.1043972
vt -0.02531148 -0.106895
vt -0.0009308027 -0.112987
vt -0.03756768 -0.1133406
vt 0.007263057 -0.1223269
vt -0.03928228 -0.1242995
vt 0.005963171 -0.1308872
vt -0.04063651 -0.1341948
vt 0.004640124 -0.1405647
vt -0.04196483 -0.1434145
vt 0.003141645 -0.1508948
vt -0.0355608 -0.1534291
vt -0.006807973 -0.1597559
vt -0.0350226 -0.16288
vt -0.01197782 -0.1685916
vt -0.03725671 -0.1720953
vt -0.01418442 -0.1776946
vt -0.03948086 -0.1812498
vt -0.01641028 -0.1868562
vt -0.04081639 -0.1867434
vt -0.0177463 -0.1923518
vt -0.02089441 -0.09190139
vt -0.02089441 -0.09190139
vt -0.02245525 -0.09919345
vt -0.02245525 -0.09919345
vt -0.02245525 -0.09919345
vt -0.02245525 -0.09919345
vt -0.02531148 -0.106895
vt -0.02531148 -0.106895
vt -0.02531148 -0.106895
vt -0.02531148 -0.106895
vt -0.03756768 -0.1133406
vt -0.03756768 -0.1133406
vt -0.03756768 -0.1133406
vt -0.03756768 -0.1133406
vt -0.03928228 -0.1242995
vt -0.03928228 -0.1242995
vt -0.03928228 -0.1242995
vt -0.03928228 -0.1242995
vt -0.04063651 -0.1341948
vt -0.04063651 -0.1341948
vt -0.04063651 -0.1341948
vt -0.04063651 -0.1341948
vt -0.04196483 -0.1434145
vt -0.04196483 -0.1434145
vt -0.04196483 -0.1434145
vt -0.04196483 -0.1434145
vt -0.0355608 -0.1534291
vt -0.0355608 -0.1534291
vt -0.0355608 -0.1534291
vt -0.0355608 -0.1534291
vt -0.0350226 -0.16288
vt -0.0350226 -0.16288
vt -0.0350226 -0.16288
vt -0.0350226 -0.16288
vt -0.03725671 -0.1720953
vt -0.03725671 -0.1720953
vt -0.03725671 -0.1720953
vt -0.03725671 -0.1720953
vt -0.03948086 -0.1812498
vt -0.03948086 -0.1812498
vt -0.03948086 -0.1812498
vt -0.03948086 -0.1812498
vt -0.04081639 -0.1867434
vt -0.04081639 -0.1867434
vt 0.001821711 -0.0968138
vt 0.001821711 -0.0968138
vt 0.0001657124 -0.1043972
vt 0.0001657124 -0.1043972
vt 0.0001657124 -0.1043972
vt 0.0001657124 -0.1043972
vt -0.0009308027 -0.112987
vt -0.0009308027 -0.112987
vt -0.0009308027 -0.112987
vt -0.0009308027 -0.112987
vt 0.007263057 -0.1223269
vt 0.007263057 -0.1223269
vt 0.007263057 -0.1223269
vt 0.007263057 -0.1223269
vt 0.005963171 -0.1308872
vt 0.005963171 -0.1308872
vt 0.005963171 -0.1308872
vt 0.005963171 -0.1308872
vt 0.004640124 -0.1405647
vt 0.004640124 -0.1405647
vt 0.004640124 -0.1405647
vt 0.004640124 -0.1405647
vt 0.003141645 -0.1508948
vt 0.003141645 -0.1508948
vt 0.003141645 -0.1508948
vt 0.003141645 -0.1508948
vt -0.006807973 -0.1597559
vt -0.006807973 -0.1597559
vt -0.006807973 -0.1597559
vt -0.006807973 -0.1597559
vt -0.01197782 -0.1685916
vt -0.01197782 -0.1685916
vt -0.01197782 -0.1685916
vt -0.01197782 -0.1685916
vt -0.01418442 -0.1776946
vt -0.01418442 -0.1776946
vt -0.01418442 -0.1776946
vt -0.01418442 -0.1776946
vt -0.01641028 -0.1868562
vt -0.01641028 -0.1868562
vt -0.01641028 -0.1868562
vt -0.01641028 -0.1868562
vt -0.0177463 -0.1923518
vt -0.0177463 -0.1923518
vn 0 1 0
vn 0 1 0
vn 0 1 0
vn 0 1 0
vn 0 1 0
vn 0 1 0
vn 0 1 0
vn 0 1 0
vn 0 1 0
vn 0 1 0
vn 0 1 0
vn 0 1 0
vn 0 1 0
vn 0 1 0
vn 0 1 0
vn 0 1 0
vn 0 1 0
vn 0 1 0
vn 0 1 0
vn 0 1 0
vn 0 1 0
vn 0 1 0
vn 0 1 0
vn 0 1 0
vn -0.5124332 0 0.8587271
vn -0.5124332 0 0.8587271
vn 0.8598054 0 0.5106219
vn 0.8598054 0 0.5106219
vn 0.7774578 0 0.6289351
vn 0.7774578 0 0.6289351
vn 0.7774578 0 0.6289351
vn 0.7774578 0 0.6289351
vn 0.1584433 0 0.9873681
vn 0.1584433 0 0.9873681
vn 0.1584433 0 0.9873681
vn 0.1584433 0 0.9873681
vn 0.8868825 0 0.4619949
vn 0.8868825 0 0.4619949
vn 0.8868825 0 0.4619949
vn 0.8868825 0 0.4619949
vn 0.8955839 0 0.4448926
vn 0.8955839 0 0.4448926
vn 0.8955839 0 0.4448926
vn 0.8955839 0 0.4448926
vn 0.8924128 0 0.45122
vn 0.8924128 0 0.45122
vn 0.8924128 0 0.45122
vn 0.8924128 0 0.45122
vn 0.9704056 0 -0.2414809
vn 0.9704056 0 -0.2414809
vn 0.9704056 0 -0.2414809
vn 0.9704056 0 -0.2414809
vn 0.9642607 0 0.2649552
vn 0.9642607 0 0.2649552
vn 0.9642607 0 0.2649552
vn 0.9642607 0 0.2649552
vn 0.8457154 0 0.5336342
vn 0.8457154 0 0.5336342
vn 0.8457154 0 0.5336342
vn 0.8457154 0 0.5336342
vn 0.8454539 0 0.5340483
vn 0.8454539 0 0.5340483
vn 0.8454539 0 0.5340483
vn 0.8454539 0 0.5340483
vn 0.8453785 0 0.5341677
vn 0.8453785 0 0.5341677
vn 0.5341676 0 -0.8453786
vn 0.5341676 0 -0.8453786
vn -0.5124332 0 0.8587271
vn -0.5124332 0 0.8587271
vn -0.8576877 0 -0.5141712
vn -0.8576877 0 -0.5141712
vn -0.8995715 0 -0.4367736
vn -0.8995715 0 -0.4367736
vn -0.8995715 0 -0.4367736
vn -0.8995715 0 -0.4367736
vn -0.9229643 0 0.3848856
vn -0.9229643 0 0.3848856
vn -0.9229643 0 0.3848856
vn -0.9229643 0 0.3848856
vn -0.8889527 0 -0.457999
vn -0.8889527 0 -0.457999
vn -0.8889527 0 -0.457999
vn -0.8889527 0 -0.457999
vn -0.8956455 0 -0.4447686
vn -0.8956455 0 -0.4447686
vn -0.8956455 0 -0.4447686
vn -0.8956455 0 -0.4447686
vn -0.8919768 0 -0.4520811
vn -0.8919768 0 -0.4520811
vn -0.8919768 0 -0.4520811
vn -0.8919768 0 -0.4520811
vn -0.3917692 0 -0.9200635
vn -0.3917692 0 -0.9200635
vn -0.3917692 0 -0.9200635
vn -0.3917692 0 -0.9200635
vn -0.6566381 0 -0.7542057
vn -0.6566381 0 -0.7542057
vn -0.6566381 0 -0.7542057
vn -0.6566381 0 -0.7542057
vn -0.8457334 0 -0.5336057
vn -0.8457334 0 -0.5336057
vn -0.8457334 0 -0.5336057
vn -0.8457334 0 -0.5336057
vn -0.8454536 0 -0.534049
vn -0.8454536 0 -0.534049
vn -0.8454536 0 -0.534049
vn -0.8454536 0 -0.534049
vn -0.8453789 0 -0.5341671
vn -0.8453789 0 -0.5341671
vn 0.5341676 0 -0.8453786
vn 0.5341676 0 -0.8453786
g _0
f 3/3/3 2/2/2 1/1/1
f 2/2/2 3/3/3 4/4/4
f 5/5/5 4/4/4 3/3/3
f 4/4/4 5/5/5 6/6/6
f 7/7/7 6/6/6 5/5/5
f 6/6/6 7/7/7 8/8/8
f 9/9/9 8/8/8 7/7/7
f 8/8/8 9/9/9 10/10/10
f 11/11/11 10/10/10 9/9/9
f 10/10/10 11/11/11 12/12/12
f 13/13/13 12/12/12 11/11/11
f 12/12/12 13/13/13 14/14/14
f 15/15/15 14/14/14 13/13/13
f 14/14/14 15/15/15 16/16/16
f 17/17/17 16/16/16 15/15/15
f 16/16/16 17/17/17 18/18/18
f 19/19/19 18/18/18 17/17/17
f 18/18/18 19/19/19 20/20/20
f 21/21/21 20/20/20 19/19/19
f 20/20/20 21/21/21 22/22/22
f 23/23/23 22/22/22 21/21/21
f 22/22/22 23/23/23 24/24/24
g _1
f 25/25/25 26/26/26 27/27/27
f 28/28/28 27/27/27 26/26/26
f 29/29/29 30/30/30 31/31/31
f 32/32/32 31/31/31 30/30/30
f 33/33/33 34/34/34 35/35/35
f 36/36/36 35/35/35 34/34/34
f 37/37/37 38/38/38 39/39/39
f 40/40/40 39/39/39 38/38/38
f 41/41/41 42/42/42 43/43/43
f 44/44/44 43/43/43 42/42/42
f 45/45/45 46/46/46 47/47/47
f 48/48/48 47/47/47 46/46/46
f 49/49/49 50/50/50 51/51/51
f 52/52/52 51/51/51 50/50/50
f 53/53/53 54/54/54 55/55/55
f 56/56/56 55/55/55 54/54/54
f 57/57/57 58/58/58 59/59/59
f 60/60/60 59/59/59 58/58/58
f 61/61/61 62/62/62 63/63/63
f 64/64/64 63/63/63 62/62/62
f 65/65/65 66/66/66 67/67/67
f 68/68/68 67/67/67 66/66/66
f 71/71/71 70/70/70 69/69/69
f 70/70/70 71/71/71 72/72/72
f 75/75/75 74/74/74 73/73/73
f 74/74/74 75/75/75 76/76/76
f 79/79/79 78/78/78 77/77/77
f 78/78/78 79/79/79 80/80/80
f 83/83/83 82/82/82 81/81/81
f 82/82/82 83/83/83 84/84/84
f 87/87/87 86/86/86 85/85/85
f 86/86/86 87/87/87 88/88/88
f 91/91/91 90/90/90 89/89/89
f 90/90/90 91/91/91 92/92/92
f 95/95/95 94/94/94 93/93/93
f 94/94/94 95/95/95 96/96/96
f 99/99/99 98/98/98 97/97/97
f 98/98/98 99/99/99 100/100/100
f 103/103/103 102/102/102 101/101/101
f 102/102/102 103/103/103 104/104/104
f 107/107/107 106/106/106 105/105/105
f 106/106/106 107/107/107 108/108/108
f 111/111/111 110/110/110 109/109/109
f 110/110/110 111/111/111 112/112/112
f 69/69/69 26/26/26 25/25/25
f 26/26/26 69/69/69 70/70/70
f 67/67/67 68/68/68 111/111/111
f 112/112/112 111/111/111 68/68/68
