g 
v 13.89359 18.6 -110.5828
v 24.9396 18.6 -115.8102
v 11.0003 18.6 -105.6658
v 30.57637 18.6 -114.93
v 11.97935 18.6 -97.56403
v 36.22066 18.6 -109.036
v 17.28994 18.6 -88.73701
v 38.16041 18.6 -102.5423
v 24.17796 18.6 -79.81841
v 43.66777 18.6 -97.08172
v 30.2131 18.6 -71.40077
v 50.51775 18.6 -91.33753
v 36.74516 18.6 -62.60636
v 57.86421 18.6 -87.03628
v 44.32695 18.6 -54.94123
v 65.23861 18.6 -82.8702
v 54.37934 18.6 -47.18811
v 70.83823 18.6 -79.53682
v 66.85207 18.6 -43.72507
v 76.40286 18.6 -76.94534
v 72.32353 18.6 -42.93464
v 77.67648 18.6 -76.66536
v 82.57584 18.6 -44.63512
v 86.89861 18.6 -71.87436
v 87.55092 18.6 -49.92965
v 89.9901 18.6 -65.29968
v 13.89359 18.6 -110.5828
v 13.89359 -11.4 -110.5828
v 11.0003 18.6 -105.6658
v 11.0003 -11.4 -105.6658
v 11.0003 18.6 -105.6658
v 11.0003 -11.4 -105.6658
v 11.97935 18.6 -97.56403
v 11.97935 -11.4 -97.56403
v 11.97935 18.6 -97.56403
v 11.97935 -11.4 -97.56403
v 17.28994 18.6 -88.73701
v 17.28994 -11.4 -88.73701
v 17.28994 18.6 -88.73701
v 17.28994 -11.4 -88.73701
v 24.17796 18.6 -79.81841
v 24.17796 -11.4 -79.81841
v 24.17796 18.6 -79.81841
v 24.17796 -11.4 -79.81841
v 30.2131 18.6 -71.40077
v 30.2131 -11.4 -71.40077
v 30.2131 18.6 -71.40077
v 30.2131 -11.4 -71.40077
v 36.74516 18.6 -62.60636
v 36.74516 -11.4 -62.60636
v 36.74516 18.6 -62.60636
v 36.74516 -11.4 -62.60636
v 44.32695 18.6 -54.94123
v 44.32695 -11.4 -54.94123
v 44.32695 18.6 -54.94123
v 44.32695 -11.4 -54.94123
v 54.37934 18.6 -47.18811
v 54.37934 -11.4 -47.18811
v 54.37934 18.6 -47.18811
v 54.37934 -11.4 -47.18811
v 66.85207 18.6 -43.72507
v 66.85207 -11.4 -43.72507
v 66.85207 18.6 -43.72507
v 66.85207 -11.4 -43.72507
v 72.32353 18.6 -42.93464
v 72.32353 -11.4 -42.93464
v 72.32353 18.6 -42.93464
v 72.32353 -11.4 -42.93464
v 82.57584 18.6 -44.63512
v 82.57584 -11.4 -44.63512
v 82.57584 18.6 -44.63512
v 82.57584 -11.4 -44.63512
v 87.55092 18.6 -49.92965
v 87.55092 -11.4 -49.92965
v 24.9396 18.6 -115.8102
v 24.9396 -11.4 -115.8102
v 30.57637 18.6 -114.93
v 30.57637 -11.4 -114.93
v 30.57637 18.6 -114.93
v 30.57637 -11.4 -114.93
v 36.22066 18.6 -109.036
v 36.22066 -11.4 -109.036
v 36.22066 18.6 -109.036
v 36.22066 -11.4 -109.036
v 38.16041 18.6 -102.5423
v 38.16041 -11.4 -102.5423
v 38.16041 18.6 -102.5423
v 38.16041 -11.4 -102.5423
v 43.66777 18.6 -97.08172
v 43.66777 -11.4 -97.08172
v 43.66777 18.6 -97.08172
v 43.66777 -11.4 -97.08172
v 50.51775 18.6 -91.33753
v 50.51775 -11.4 -91.33753
v 50.51775 18.6 -91.33753
v 50.51775 -11.4 -91.33753
v 57.86421 18.6 -87.03628
v 57.86421 -11.4 -87.03628
v 57.86421 18.6 -87.03628
v 57.86421 -11.4 -87.03628
v 65.23861 18.6 -82.8702
v 65.23861 -11.4 -82.8702
v 65.23861 18.6 -82.8702
v 65.23861 -11.4 -82.8702
v 70.83823 18.6 -79.53682
v 70.83823 -11.4 -79.53682
v 70.83823 18.6 -79.53682
v 70.83823 -11.4 -79.53682
v 76.40286 18.6 -76.94534
v 76.40286 -11.4 -76.94534
v 76.40286 18.6 -76.94534
v 76.40286 -11.4 -76.94534
v 77.67648 18.6 -76.66536
v 77.67648 -11.4 -76.66536
v 77.67648 18.6 -76.66536
v 77.67648 -11.4 -76.66536
v 86.89861 18.6 -71.87436
v 86.89861 -11.4 -71.87436
v 86.89861 18.6 -71.87436
v 86.89861 -11.4 -71.87436
v 89.9901 18.6 -65.29968
v 89.9901 -11.4 -65.29968
vt -0.1478995 0.06132851
vt -0.1361938 0.05781885
vt -0.1533402 0.05961192
vt -0.132595 0.05339202
vt -0.1580355 0.05293729
vt -0.1323466 0.0452351
vt -0.1599981 0.04282459
vt -0.1352518 0.0391122
vt -0.1608501 0.03158802
vt -0.134815 0.03136892
vt -0.1620004 0.0212945
vt -0.1335704 0.0225163
vt -0.1630336 0.01038846
vt -0.1309912 0.01440341
vt -0.1625311 -0.0003811898
vt -0.1283008 0.006372245
vt -0.160252 -0.01286986
vt -0.1263716 0.0001476642
vt -0.1533031 -0.02379115
vt -0.1239718 -0.005502293
vt -0.149767 -0.02804063
vt -0.123213 -0.006562779
vt -0.1410118 -0.03363942
vt -0.119568 -0.01629498
vt -0.1337717 -0.03303574
vt -0.1216718 -0.02324896
vt -0.1478995 0.06132851
vt -0.1478995 0.06132851
vt -0.1533402 0.05961192
vt -0.1533402 0.05961192
vt -0.1533402 0.05961192
vt -0.1533402 0.05961192
vt -0.1580355 0.05293729
vt -0.1580355 0.05293729
vt -0.1580355 0.05293729
vt -0.1580355 0.05293729
vt -0.1599981 0.04282459
vt -0.1599981 0.04282459
vt -0.1599981 0.04282459
vt -0.1599981 0.04282459
vt -0.1608501 0.03158802
vt -0.1608501 0.03158802
vt -0.1608501 0.03158802
vt -0.1608501 0.03158802
vt -0.1620004 0.0212945
vt -0.1620004 0.0212945
vt -0.1620004 0.0212945
vt -0.1620004 0.0212945
vt -0.1630336 0.01038846
vt -0.1630336 0.01038846
vt -0.1630336 0.01038846
vt -0.1630336 0.01038846
vt -0.1625311 -0.0003811898
vt -0.1625311 -0.0003811898
vt -0.1625311 -0.0003811898
vt -0.1625311 -0.0003811898
vt -0.160252 -0.01286986
vt -0.160252 -0.01286986
vt -0.160252 -0.01286986
vt -0.160252 -0.01286986
vt -0.1533031 -0.02379115
vt -0.1533031 -0.02379115
vt -0.1533031 -0.02379115
vt -0.1533031 -0.02379115
vt -0.149767 -0.02804063
vt -0.149767 -0.02804063
vt -0.149767 -0.02804063
vt -0.149767 -0.02804063
vt -0.1410118 -0.03363942
vt -0.1410118 -0.03363942
vt -0.1410118 -0.03363942
vt -0.1410118 -0.03363942
vt -0.1337717 -0.03303574
vt -0.1337717 -0.03303574
vt -0.1361938 0.05781885
vt -0.1361938 0.05781885
vt -0.132595 0.05339202
vt -0.132595 0.05339202
vt -0.132595 0.05339202
vt -0.132595 0.05339202
vt -0.1323466 0.0452351
vt -0.1323466 0.0452351
vt -0.1323466 0.0452351
vt -0.1323466 0.0452351
vt -0.1352518 0.0391122
vt -0.1352518 0.0391122
vt -0.1352518 0.0391122
vt -0.1352518 0.0391122
vt -0.134815 0.03136892
vt -0.134815 0.03136892
vt -0.134815 0.03136892
vt -0.134815 0.03136892
vt -0.1335704 0.0225163
vt -0.1335704 0.0225163
vt -0.1335704 0.0225163
vt -0.1335704 0.0225163
vt -0.1309912 0.01440341
vt -0.1309912 0.01440341
vt -0.1309912 0.01440341
vt -0.1309912 0.01440341
vt -0.1283008 0.006372245
vt -0.1283008 0.006372245
vt -0.1283008 0.006372245
vt -0.1283008 0.006372245
vt -0.1263716 0.0001476642
vt -0.1263716 0.0001476642
vt -0.1263716 0.0001476642
vt -0.1263716 0.0001476642
vt -0.1239718 -0.005502293
vt -0.1239718 -0.005502293
vt -0.1239718 -0.005502293
vt -0.1239718 -0.005502293
vt -0.123213 -0.006562779
vt -0.123213 -0.006562779
vt -0.123213 -0.006562779
vt -0.123213 -0.006562779
vt -0.119568 -0.01629498
vt -0.119568 -0.01629498
vt -0.119568 -0.01629498
vt -0.119568 -0.01629498
vt -0.1216718 -0.02324896
vt -0.1216718 -0.02324896
vn 0 1 0
vn 0 1 0
vn 0 1 0
vn 0 1 0
vn 0 1 0
vn 0 1 0
vn 0 1 0
vn 0 1 0
vn 0 1 0
vn 0 1 0
vn 0 1 0
vn 0 1 0
vn 0 1 0
vn 0 1 0
vn 0 1 0
vn 0 1 0
vn 0 1 0
vn 0 1 0
vn 0 1 0
vn 0 1 0
vn 0 1 0
vn 0 1 0
vn 0 1 0
vn 0 1 0
vn 0 1 0
vn 0 1 0
vn -0.4277575 0 -0.9038935
vn -0.4277575 0 -0.9038935
vn -0.8618623 0 -0.5071424
vn -0.8618623 0 -0.5071424
vn -0.9927773 0 0.1199711
vn -0.9927773 0 0.1199711
vn -0.9927773 0 0.1199711
vn -0.9927773 0 0.1199711
vn -0.856876 0 0.5155226
vn -0.856876 0 0.5155226
vn -0.856876 0 0.5155226
vn -0.856876 0 0.5155226
vn -0.7914408 0 0.6112458
vn -0.7914408 0 0.6112458
vn -0.7914408 0 0.6112458
vn -0.7914408 0 0.6112458
vn -0.8127027 0 0.5826786
vn -0.8127027 0 0.5826786
vn -0.8127027 0 0.5826786
vn -0.8127027 0 0.5826786
vn -0.8027849 0 0.5962688
vn -0.8027849 0 0.5962688
vn -0.8027849 0 0.5962688
vn -0.8027849 0 0.5962688
vn -0.7109608 0 0.7032316
vn -0.7109608 0 0.7032316
vn -0.7109608 0 0.7032316
vn -0.7109608 0 0.7032316
vn -0.6107255 0 0.7918423
vn -0.6107255 0 0.7918423
vn -0.6107255 0 0.7918423
vn -0.6107255 0 0.7918423
vn -0.2675284 0 0.96355
vn -0.2675284 0 0.96355
vn -0.2675284 0 0.96355
vn -0.2675284 0 0.96355
vn -0.1429808 0 0.9897255
vn -0.1429808 0 0.9897255
vn -0.1429808 0 0.9897255
vn -0.1429808 0 0.9897255
vn 0.1636275 0 0.9865222
vn 0.1636275 0 0.9865222
vn 0.1636275 0 0.9865222
vn 0.1636275 0 0.9865222
vn 0.7287498 0 0.6847801
vn 0.7287498 0 0.6847801
vn 0.9876406 0 0.1567356
vn 0.9876406 0 0.1567356
vn -0.4277575 0 -0.9038935
vn -0.4277575 0 -0.9038935
vn 0.1542882 0 -0.9880259
vn 0.1542882 0 -0.9880259
vn 0.7222392 0 -0.6916434
vn 0.7222392 0 -0.6916434
vn 0.7222392 0 -0.6916434
vn 0.7222392 0 -0.6916434
vn 0.9581645 0 -0.2862179
vn 0.9581645 0 -0.2862179
vn 0.9581645 0 -0.2862179
vn 0.9581645 0 -0.2862179
vn 0.7040852 0 -0.7101155
vn 0.7040852 0 -0.7101155
vn 0.7040852 0 -0.7101155
vn 0.7040852 0 -0.7101155
vn 0.6425498 0 -0.7662439
vn 0.6425498 0 -0.7662439
vn 0.6425498 0 -0.7662439
vn 0.6425498 0 -0.7662439
vn 0.5052568 0 -0.8629691
vn 0.5052568 0 -0.8629691
vn 0.5052568 0 -0.8629691
vn 0.5052568 0 -0.8629691
vn 0.4918726 0 -0.8706672
vn 0.4918726 0 -0.8706672
vn 0.4918726 0 -0.8706672
vn 0.4918726 0 -0.8706672
vn 0.5115151 0 -0.8592743
vn 0.5115151 0 -0.8592743
vn 0.5115151 0 -0.8592743
vn 0.5115151 0 -0.8592743
vn 0.4221691 0 -0.9065171
vn 0.4221691 0 -0.9065171
vn 0.4221691 0 -0.9065171
vn 0.4221691 0 -0.9065171
vn 0.2147072 0 -0.9766784
vn 0.2147072 0 -0.9766784
vn 0.2147072 0 -0.9766784
vn 0.2147072 0 -0.9766784
vn 0.4610111 0 -0.8873944
vn 0.4610111 0 -0.8873944
vn 0.4610111 0 -0.8873944
vn 0.4610111 0 -0.8873944
vn 0.9049503 0 -0.4255174
vn 0.9049503 0 -0.4255174
vn 0.9876406 0 0.1567356
vn 0.9876406 0 0.1567356
g _0
f 3/3/3 2/2/2 1/1/1
f 2/2/2 3/3/3 4/4/4
f 5/5/5 4/4/4 3/3/3
f 4/4/4 5/5/5 6/6/6
f 7/7/7 6/6/6 5/5/5
f 6/6/6 7/7/7 8/8/8
f 9/9/9 8/8/8 7/7/7
f 8/8/8 9/9/9 10/10/10
f 11/11/11 10/10/10 9/9/9
f 10/10/10 11/11/11 12/12/12
f 13/13/13 12/12/12 11/11/11
f 12/12/12 13/13/13 14/14/14
f 15/15/15 14/14/14 13/13/13
f 14/14/14 15/15/15 16/16/16
f 17/17/17 16/16/16 15/15/15
f 16/16/16 17/17/17 18/18/18
f 19/19/19 18/18/18 17/17/17
f 18/18/18 19/19/19 20/20/20
f 21/21/21 20/20/20 19/19/19
f 20/20/20 21/21/21 22/22/22
f 23/23/23 22/22/22 21/21/21
f 22/22/22 23/23/23 24/24/24
f 25/25/25 24/24/24 23/23/23
f 24/24/24 25/25/25 26/26/26
g _1
f 27/27/27 28/28/28 29/29/29
f 30/30/30 29/29/29 28/28/28
f 31/31/31 32/32/32 33/33/33
f 34/34/34 33/33/33 32/32/32
f 35/35/35 36/36/36 37/37/37
f 38/38/38 37/37/37 36/36/36
f 39/39/39 40/40/40 41/41/41
f 42/42/42 41/41/41 40/40/40
f 43/43/43 44/44/44 45/45/45
f 46/46/46 45/45/45 44/44/44
f 47/47/47 48/48/48 49/49/49
f 50/50/50 49/49/49 48/48/48
f 51/51/51 52/52/52 53/53/53
f 54/54/54 53/53/53 52/52/52
f 55/55/55 56/56/56 57/57/57
f 58/58/58 57/57/57 56/56/56
f 59/59/59 60/60/60 61/61/61
f 62/62/62 61/61/61 60/60/60
f 63/63/63 64/64/64 65/65/65
f 66/66/66 65/65/65 64/64/64
f 67/67/67 68/68/68 69/69/69
f 70/70/70 69/69/69 68/68/68
f 71/71/71 72/72/72 73/73/73
f 74/74/74 73/73/73 72/72/72
f 77/77/77 76/76/76 75/75/75
f 76/76/76 77/77/77 78/78/78
f 81/81/81 80/80/80 79/79/79
f 80/80/80 81/81/81 82/82/82
f 85/85/85 84/84/84 83/83/83
f 84/84/84 85/85/85 86/86/86
f 89/89/89 88/88/88 87/87/87
f 88/88/88 89/89/89 90/90/90
f 93/93/93 92/92/92 91/91/91
f 92/92/92 93/93/93 94/94/94
f 97/97/97 96/96/96 95/95/95
f 96/96/96 97/97/97 98/98/98
f 101/101/101 100/100/100 99/99/99
f 100/100/100 101/101/101 102/102/102
f 105/105/105 104/104/104 103/103/103
f 104/104/104 105/105/105 106/106/106
f 109/109/109 108/108/108 107/107/107
f 108/108/108 109/109/109 110/110/110
f 113/113/113 112/112/112 111/111/111
f 112/112/112 113/113/113 114/114/114
f 117/117/117 116/116/116 115/115/115
f 116/116/116 117/117/117 118/118/118
f 121/121/121 120/120/120 119/119/119
f 120/120/120 121/121/121 122/122/122
f 75/75/75 28/28/28 27/27/27
f 28/28/28 75/75/75 76/76/76
f 73/73/73 74/74/74 121/121/121
f 122/122/122 121/121/121 74/74/74
