g 
v 16.48648 17.6 -14.20716
v 1.097249 17.6 -11.33603
v 23.57063 17.6 -19.9019
v -7.563752 17.6 -14.09325
v 23.82242 17.6 -30.50642
v -11.62242 17.6 -23.89358
v 20.11706 17.6 -38.13498
v -10.91706 17.6 -32.34503
v 19.06356 17.6 -47.1827
v -13.19689 17.6 -41.16396
v 16.85726 17.6 -56.01536
v -14.32393 17.6 -50.19798
v 17.2989 17.6 -57.02219
v -15.0989 17.6 -50.97782
v 10.06387 17.6 -64.82734
v -11.165 17.6 -60.86673
v 5.98702 17.6 -67.85884
v -8.455525 17.6 -65.16434
v 16.48648 17.6 -14.20716
v 16.48648 -2.4 -14.20716
v 23.57063 17.6 -19.9019
v 23.57063 -2.4 -19.9019
v 23.57063 17.6 -19.9019
v 23.57063 -2.4 -19.9019
v 23.82242 17.6 -30.50642
v 23.82242 -2.4 -30.50642
v 23.82242 17.6 -30.50642
v 23.82242 -2.4 -30.50642
v 20.11706 17.6 -38.13498
v 20.11706 -2.4 -38.13498
v 20.11706 17.6 -38.13498
v 20.11706 -2.4 -38.13498
v 19.06356 17.6 -47.1827
v 19.06356 -2.4 -47.1827
v 19.06356 17.6 -47.1827
v 19.06356 -2.4 -47.1827
v 16.85726 17.6 -56.01536
v 16.85726 -2.4 -56.01536
v 16.85726 17.6 -56.01536
v 16.85726 -2.4 -56.01536
v 17.2989 17.6 -57.02219
v 17.2989 -2.4 -57.02219
v 17.2989 17.6 -57.02219
v 17.2989 -2.4 -57.02219
v 10.06387 17.6 -64.82734
v 10.06387 -2.4 -64.82734
v 10.06387 17.6 -64.82734
v 10.06387 -2.4 -64.82734
v 5.98702 17.6 -67.85884
v 5.98702 -2.4 -67.85884
v 1.097249 17.6 -11.33603
v 1.097249 -2.4 -11.33603
v -7.563752 17.6 -14.09325
v -7.563752 -2.4 -14.09325
v -7.563752 17.6 -14.09325
v -7.563752 -2.4 -14.09325
v -11.62242 17.6 -23.89358
v -11.62242 -2.4 -23.89358
v -11.62242 17.6 -23.89358
v -11.62242 -2.4 -23.89358
v -10.91706 17.6 -32.34503
v -10.91706 -2.4 -32.34503
v -10.91706 17.6 -32.34503
v -10.91706 -2.4 -32.34503
v -13.19689 17.6 -41.16396
v -13.19689 -2.4 -41.16396
v -13.19689 17.6 -41.16396
v -13.19689 -2.4 -41.16396
v -14.32393 17.6 -50.19798
v -14.32393 -2.4 -50.19798
v -14.32393 17.6 -50.19798
v -14.32393 -2.4 -50.19798
v -15.0989 17.6 -50.97782
v -15.0989 -2.4 -50.97782
v -15.0989 17.6 -50.97782
v -15.0989 -2.4 -50.97782
v -11.165 17.6 -60.86673
v -11.165 -2.4 -60.86673
v -11.165 17.6 -60.86673
v -11.165 -2.4 -60.86673
v -8.455525 17.6 -65.16434
v -8.455525 -2.4 -65.16434
vt 0.01035144 -0.08992328
vt 0.01318306 -0.07834577
vt 0.01208214 -0.0966235
vt 0.01781087 -0.07320071
vt 0.01936099 -0.1001222
vt 0.02588285 -0.07345656
vt 0.02581537 -0.09994239
vt 0.03152565 -0.07659504
vt 0.03242321 -0.1020474
vt 0.03835913 -0.07777748
vt 0.03924315 -0.1032852
vt 0.0449805 -0.07982718
vt 0.03980329 -0.1039072
vt 0.04576449 -0.07953393
vt 0.04748657 -0.1013338
vt 0.05139268 -0.08536304
vt 0.0508678 -0.09945534
vt 0.05352523 -0.08859004
vt 0.01035144 -0.08992328
vt 0.01035144 -0.08992328
vt 0.01208214 -0.0966235
vt 0.01208214 -0.0966235
vt 0.01208214 -0.0966235
vt 0.01208214 -0.0966235
vt 0.01936099 -0.1001222
vt 0.01936099 -0.1001222
vt 0.01936099 -0.1001222
vt 0.01936099 -0.1001222
vt 0.02581537 -0.09994239
vt 0.02581537 -0.09994239
vt 0.02581537 -0.09994239
vt 0.02581537 -0.09994239
vt 0.03242321 -0.1020474
vt 0.03242321 -0.1020474
vt 0.03242321 -0.1020474
vt 0.03242321 -0.1020474
vt 0.03924315 -0.1032852
vt 0.03924315 -0.1032852
vt 0.03924315 -0.1032852
vt 0.03924315 -0.1032852
vt 0.03980329 -0.1039072
vt 0.03980329 -0.1039072
vt 0.03980329 -0.1039072
vt 0.03980329 -0.1039072
vt 0.04748657 -0.1013338
vt 0.04748657 -0.1013338
vt 0.04748657 -0.1013338
vt 0.04748657 -0.1013338
vt 0.0508678 -0.09945534
vt 0.0508678 -0.09945534
vt 0.01318306 -0.07834577
vt 0.01318306 -0.07834577
vt 0.01781087 -0.07320071
vt 0.01781087 -0.07320071
vt 0.01781087 -0.07320071
vt 0.01781087 -0.07320071
vt 0.02588285 -0.07345656
vt 0.02588285 -0.07345656
vt 0.02588285 -0.07345656
vt 0.02588285 -0.07345656
vt 0.03152565 -0.07659504
vt 0.03152565 -0.07659504
vt 0.03152565 -0.07659504
vt 0.03152565 -0.07659504
vt 0.03835913 -0.07777748
vt 0.03835913 -0.07777748
vt 0.03835913 -0.07777748
vt 0.03835913 -0.07777748
vt 0.0449805 -0.07982718
vt 0.0449805 -0.07982718
vt 0.0449805 -0.07982718
vt 0.0449805 -0.07982718
vt 0.04576449 -0.07953393
vt 0.04576449 -0.07953393
vt 0.04576449 -0.07953393
vt 0.04576449 -0.07953393
vt 0.05139268 -0.08536304
vt 0.05139268 -0.08536304
vt 0.05139268 -0.08536304
vt 0.05139268 -0.08536304
vt 0.05352523 -0.08859004
vt 0.05352523 -0.08859004
vn 0 1 0
vn 0 1 0
vn 0 1 0
vn 0 1 0
vn 0 1 0
vn 0 1 0
vn 0 1 0
vn 0 1 0
vn 0 1 0
vn 0 1 0
vn 0 1 0
vn 0 1 0
vn 0 1 0
vn 0 1 0
vn 0 1 0
vn 0 1 0
vn 0 1 0
vn 0 1 0
vn 0.1834028 0 0.9830379
vn 0.1834028 0 0.9830379
vn 0.6265336 0 0.7793944
vn 0.6265336 0 0.7793944
vn 0.9997182 0 0.02373741
vn 0.9997182 0 0.02373741
vn 0.9997182 0 0.02373741
vn 0.9997182 0 0.02373741
vn 0.8995054 0 -0.4369098
vn 0.8995054 0 -0.4369098
vn 0.8995054 0 -0.4369098
vn 0.8995054 0 -0.4369098
vn 0.9932892 0 -0.1156568
vn 0.9932892 0 -0.1156568
vn 0.9932892 0 -0.1156568
vn 0.9932892 0 -0.1156568
vn 0.9701908 0 -0.2423426
vn 0.9701908 0 -0.2423426
vn 0.9701908 0 -0.2423426
vn 0.9701908 0 -0.2423426
vn 0.9157724 0 0.4016976
vn 0.9157724 0 0.4016976
vn 0.9157724 0 0.4016976
vn 0.9157724 0 0.4016976
vn 0.7333839 0 -0.6798148
vn 0.7333839 0 -0.6798148
vn 0.7333839 0 -0.6798148
vn 0.7333839 0 -0.6798148
vn 0.5967029 0 -0.8024622
vn 0.5967029 0 -0.8024622
vn -0.1834025 0 -0.9830379
vn -0.1834025 0 -0.9830379
vn 0.1834028 0 0.9830379
vn 0.1834028 0 0.9830379
vn -0.3033483 0 0.9528797
vn -0.3033483 0 0.9528797
vn -0.923905 0 0.382622
vn -0.923905 0 0.382622
vn -0.923905 0 0.382622
vn -0.923905 0 0.382622
vn -0.9965354 0 -0.0831707
vn -0.9965354 0 -0.0831707
vn -0.9965354 0 -0.0831707
vn -0.9965354 0 -0.0831707
vn -0.9681717 0 0.2502872
vn -0.9681717 0 0.2502872
vn -0.9681717 0 0.2502872
vn -0.9681717 0 0.2502872
vn -0.9923078 0 0.1237952
vn -0.9923078 0 0.1237952
vn -0.9923078 0 0.1237952
vn -0.9923078 0 0.1237952
vn -0.7093192 0 0.7048874
vn -0.7093192 0 0.7048874
vn -0.7093192 0 0.7048874
vn -0.7093192 0 0.7048874
vn -0.9291769 0 -0.3696355
vn -0.9291769 0 -0.3696355
vn -0.9291769 0 -0.3696355
vn -0.9291769 0 -0.3696355
vn -0.845916 0 -0.5333162
vn -0.845916 0 -0.5333162
vn -0.1834025 0 -0.9830379
vn -0.1834025 0 -0.9830379
g _0
f 3/3/3 2/2/2 1/1/1
f 2/2/2 3/3/3 4/4/4
f 5/5/5 4/4/4 3/3/3
f 4/4/4 5/5/5 6/6/6
f 7/7/7 6/6/6 5/5/5
f 6/6/6 7/7/7 8/8/8
f 9/9/9 8/8/8 7/7/7
f 8/8/8 9/9/9 10/10/10
f 11/11/11 10/10/10 9/9/9
f 10/10/10 11/11/11 12/12/12
f 13/13/13 12/12/12 11/11/11
f 12/12/12 13/13/13 14/14/14
f 15/15/15 14/14/14 13/13/13
f 14/14/14 15/15/15 16/16/16
f 17/17/17 16/16/16 15/15/15
f 16/16/16 17/17/17 18/18/18
g _1
f 19/19/19 20/20/20 21/21/21
f 22/22/22 21/21/21 20/20/20
f 23/23/23 24/24/24 25/25/25
f 26/26/26 25/25/25 24/24/24
f 27/27/27 28/28/28 29/29/29
f 30/30/30 29/29/29 28/28/28
f 31/31/31 32/32/32 33/33/33
f 34/34/34 33/33/33 32/32/32
f 35/35/35 36/36/36 37/37/37
f 38/38/38 37/37/37 36/36/36
f 39/39/39 40/40/40 41/41/41
f 42/42/42 41/41/41 40/40/40
f 43/43/43 44/44/44 45/45/45
f 46/46/46 45/45/45 44/44/44
f 47/47/47 48/48/48 49/49/49
f 50/50/50 49/49/49 48/48/48
f 53/53/53 52/52/52 51/51/51
f 52/52/52 53/53/53 54/54/54
f 57/57/57 56/56/56 55/55/55
f 56/56/56 57/57/57 58/58/58
f 61/61/61 60/60/60 59/59/59
f 60/60/60 61/61/61 62/62/62
f 65/65/65 64/64/64 63/63/63
f 64/64/64 65/65/65 66/66/66
f 69/69/69 68/68/68 67/67/67
f 68/68/68 69/69/69 70/70/70
f 73/73/73 72/72/72 71/71/71
f 72/72/72 73/73/73 74/74/74
f 77/77/77 76/76/76 75/75/75
f 76/76/76 77/77/77 78/78/78
f 81/81/81 80/80/80 79/79/79
f 80/80/80 81/81/81 82/82/82
f 51/51/51 20/20/20 19/19/19
f 20/20/20 51/51/51 52/52/52
f 49/49/49 50/50/50 81/81/81
f 82/82/82 81/81/81 50/50/50
