g 
v -20.76639 22.07 -23.52696
v -19.43321 22.07 -25.89501
v -20.74134 22.07 -22.03687
v -18.14621 22.07 -26.64643
v -19.43644 22.07 -20.64989
v -16.28356 22.07 -26.25011
v -17.85873 21.77091 -19.90517
v -14.82856 21.77091 -25.28744
v -16.10166 21.43859 -19.08492
v -13.21596 21.43859 -24.2106
v -14.27356 21.10626 -18.39083
v -11.67437 21.10626 -23.0076
v -12.51537 20.60303 -17.61083
v -10.09559 20.60303 -21.90891
v -10.95058 19.98586 -16.51276
v -8.345175 19.98586 -21.14056
v -9.061814 19.36869 -15.99016
v -6.918753 19.36869 -19.79674
v -7.522774 18.83697 -14.82725
v -5.126256 18.83697 -19.08402
v -5.745246 18.50465 -14.04334
v -3.534106 18.50465 -17.97084
v -3.952508 18.17232 -13.28645
v -1.957169 18.17232 -16.83064
v -2.31642 17.84 -12.25131
v -0.2235794 17.84 -15.96868
v -1.099237 17.84 -12.13715
v 0.5053272 17.84 -14.98722
v -0.3490841 17.84 -12.52677
v 0.5612711 17.84 -14.14378
v -20.76639 22.07 -23.52696
v -20.76639 -57.93 -23.52696
v -20.74134 22.07 -22.03687
v -20.74134 -57.93 -22.03687
v -20.74134 22.07 -22.03687
v -20.74134 -57.93 -22.03687
v -19.43644 22.07 -20.64989
v -19.43644 -57.93 -20.64989
v -19.43644 22.07 -20.64989
v -19.43644 -57.93 -20.64989
v -17.85873 21.77091 -19.90517
v -17.85873 -58.22909 -19.90517
v -17.85873 21.77091 -19.90517
v -17.85873 -58.22909 -19.90517
v -16.10166 21.43859 -19.08492
v -16.10166 -58.56142 -19.08492
v -16.10166 21.43859 -19.08492
v -16.10166 -58.56142 -19.08492
v -14.27356 21.10626 -18.39083
v -14.27356 -58.89374 -18.39083
v -14.27356 21.10626 -18.39083
v -14.27356 -58.89374 -18.39083
v -12.51537 20.60303 -17.61083
v -12.51537 -59.39697 -17.61083
v -12.51537 20.60303 -17.61083
v -12.51537 -59.39697 -17.61083
v -10.95058 19.98586 -16.51276
v -10.95058 -60.01414 -16.51276
v -10.95058 19.98586 -16.51276
v -10.95058 -60.01414 -16.51276
v -9.061814 19.36869 -15.99016
v -9.061814 -60.63131 -15.99016
v -9.061814 19.36869 -15.99016
v -9.061814 -60.63131 -15.99016
v -7.522774 18.83697 -14.82725
v -7.522774 -61.16303 -14.82725
v -7.522774 18.83697 -14.82725
v -7.522774 -61.16303 -14.82725
v -5.745246 18.50465 -14.04334
v -5.745246 -61.49535 -14.04334
v -5.745246 18.50465 -14.04334
v -5.745246 -61.49535 -14.04334
v -3.952508 18.17232 -13.28645
v -3.952508 -61.82767 -13.28645
v -3.952508 18.17232 -13.28645
v -3.952508 -61.82767 -13.28645
v -2.31642 17.84 -12.25131
v -2.31642 -62.16 -12.25131
v -2.31642 17.84 -12.25131
v -2.31642 -62.16 -12.25131
v -1.099237 17.84 -12.13715
v -1.099237 -62.16 -12.13715
v -1.099237 17.84 -12.13715
v -1.099237 -62.16 -12.13715
v -0.3490841 17.84 -12.52677
v -0.3490841 -62.16 -12.52677
v -19.43321 22.07 -25.89501
v -19.43321 -57.93 -25.89501
v -18.14621 22.07 -26.64643
v -18.14621 -57.93 -26.64643
v -18.14621 22.07 -26.64643
v -18.14621 -57.93 -26.64643
v -16.28356 22.07 -26.25011
v -16.28356 -57.93 -26.25011
v -16.28356 22.07 -26.25011
v -16.28356 -57.93 -26.25011
v -14.82856 21.77091 -25.28744
v -14.82856 -58.22909 -25.28744
v -14.82856 21.77091 -25.28744
v -14.82856 -58.22909 -25.28744
v -13.21596 21.43859 -24.2106
v -13.21596 -58.56142 -24.2106
v -13.21596 21.43859 -24.2106
v -13.21596 -58.56142 -24.2106
v -11.67437 21.10626 -23.0076
v -11.67437 -58.89374 -23.0076
v -11.67437 21.10626 -23.0076
v -11.67437 -58.89374 -23.0076
v -10.09559 20.60303 -21.90891
v -10.09559 -59.39697 -21.90891
v -10.09559 20.60303 -21.90891
v -10.09559 -59.39697 -21.90891
v -8.345175 19.98586 -21.14056
v -8.345175 -60.01414 -21.14056
v -8.345175 19.98586 -21.14056
v -8.345175 -60.01414 -21.14056
v -6.918753 19.36869 -19.79674
v -6.918753 -60.63131 -19.79674
v -6.918753 19.36869 -19.79674
v -6.918753 -60.63131 -19.79674
v -5.126256 18.83697 -19.08402
v -5.126256 -61.16303 -19.08402
v -5.126256 18.83697 -19.08402
v -5.126256 -61.16303 -19.08402
v -3.534106 18.50465 -17.97084
v -3.534106 -61.49535 -17.97084
v -3.534106 18.50465 -17.97084
v -3.534106 -61.49535 -17.97084
v -1.957169 18.17232 -16.83064
v -1.957169 -61.82767 -16.83064
v -1.957169 18.17232 -16.83064
v -1.957169 -61.82767 -16.83064
v -0.2235794 17.84 -15.96868
v -0.2235794 -62.16 -15.96868
v -0.2235794 17.84 -15.96868
v -0.2235794 -62.16 -15.96868
v 0.5053272 17.84 -14.98722
v 0.5053272 -62.16 -14.98722
v 0.5053272 17.84 -14.98722
v 0.5053272 -62.16 -14.98722
v 0.5612711 17.84 -14.14378
v 0.5612711 -62.16 -14.14378
vt 0.03451641 -0.002439131
vt 0.03400927 -0.005108928
vt 0.03401682 -0.001035067
vt 0.03302963 -0.006232007
vt 0.0323373 -0.0001374287
vt 0.03113796 -0.006451278
vt 0.03060438 6.444931E-05
vt 0.02945172 -0.006003671
vt 0.02867738 0.0002806267
vt 0.02757966 -0.005498201
vt 0.02672335 0.0003545723
vt 0.02573462 -0.004850493
vt 0.02480812 0.0005322551
vt 0.02388764 -0.004313529
vt 0.02297461 0.001073114
vt 0.02198351 -0.004144405
vt 0.02101785 0.0009651636
vt 0.02020263 -0.003326471
vt 0.01918802 0.001575689
vt 0.01827639 -0.003223513
vt 0.01725323 0.001750896
vt 0.01641212 -0.002677073
vt 0.01531265 0.001895642
vt 0.01455363 -0.002100167
vt 0.01343166 0.002354095
vt 0.01263555 -0.001836971
vt 0.01224175 0.002073578
vt 0.01163138 -0.001139679
vt 0.01165531 0.001464794
vt 0.01130901 -0.0003582628
vt 0.03451641 -0.002439131
vt 0.03451641 -0.002439131
vt 0.03401682 -0.001035067
vt 0.03401682 -0.001035067
vt 0.03401682 -0.001035067
vt 0.03401682 -0.001035067
vt 0.0323373 -0.0001374287
vt 0.0323373 -0.0001374287
vt 0.0323373 -0.0001374287
vt 0.0323373 -0.0001374287
vt 0.03060438 6.444931E-05
vt 0.03060438 6.444931E-05
vt 0.03060438 6.444931E-05
vt 0.03060438 6.444931E-05
vt 0.02867738 0.0002806267
vt 0.02867738 0.0002806267
vt 0.02867738 0.0002806267
vt 0.02867738 0.0002806267
vt 0.02672335 0.0003545723
vt 0.02672335 0.0003545723
vt 0.02672335 0.0003545723
vt 0.02672335 0.0003545723
vt 0.02480812 0.0005322551
vt 0.02480812 0.0005322551
vt 0.02480812 0.0005322551
vt 0.02480812 0.0005322551
vt 0.02297461 0.001073114
vt 0.02297461 0.001073114
vt 0.02297461 0.001073114
vt 0.02297461 0.001073114
vt 0.02101785 0.0009651636
vt 0.02101785 0.0009651636
vt 0.02101785 0.0009651636
vt 0.02101785 0.0009651636
vt 0.01918802 0.001575689
vt 0.01918802 0.001575689
vt 0.01918802 0.001575689
vt 0.01918802 0.001575689
vt 0.01725323 0.001750896
vt 0.01725323 0.001750896
vt 0.01725323 0.001750896
vt 0.01725323 0.001750896
vt 0.01531265 0.001895642
vt 0.01531265 0.001895642
vt 0.01531265 0.001895642
vt 0.01531265 0.001895642
vt 0.01343166 0.002354095
vt 0.01343166 0.002354095
vt 0.01343166 0.002354095
vt 0.01343166 0.002354095
vt 0.01224175 0.002073578
vt 0.01224175 0.002073578
vt 0.01224175 0.002073578
vt 0.01224175 0.002073578
vt 0.01165531 0.001464794
vt 0.01165531 0.001464794
vt 0.03400927 -0.005108928
vt 0.03400927 -0.005108928
vt 0.03302963 -0.006232007
vt 0.03302963 -0.006232007
vt 0.03302963 -0.006232007
vt 0.03302963 -0.006232007
vt 0.03113796 -0.006451278
vt 0.03113796 -0.006451278
vt 0.03113796 -0.006451278
vt 0.03113796 -0.006451278
vt 0.02945172 -0.006003671
vt 0.02945172 -0.006003671
vt 0.02945172 -0.006003671
vt 0.02945172 -0.006003671
vt 0.02757966 -0.005498201
vt 0.02757966 -0.005498201
vt 0.02757966 -0.005498201
vt 0.02757966 -0.005498201
vt 0.02573462 -0.004850493
vt 0.02573462 -0.004850493
vt 0.02573462 -0.004850493
vt 0.02573462 -0.004850493
vt 0.02388764 -0.004313529
vt 0.02388764 -0.004313529
vt 0.02388764 -0.004313529
vt 0.02388764 -0.004313529
vt 0.02198351 -0.004144405
vt 0.02198351 -0.004144405
vt 0.02198351 -0.004144405
vt 0.02198351 -0.004144405
vt 0.02020263 -0.003326471
vt 0.02020263 -0.003326471
vt 0.02020263 -0.003326471
vt 0.02020263 -0.003326471
vt 0.01827639 -0.003223513
vt 0.01827639 -0.003223513
vt 0.01827639 -0.003223513
vt 0.01827639 -0.003223513
vt 0.01641212 -0.002677073
vt 0.01641212 -0.002677073
vt 0.01641212 -0.002677073
vt 0.01641212 -0.002677073
vt 0.01455363 -0.002100167
vt 0.01455363 -0.002100167
vt 0.01455363 -0.002100167
vt 0.01455363 -0.002100167
vt 0.01263555 -0.001836971
vt 0.01263555 -0.001836971
vt 0.01263555 -0.001836971
vt 0.01263555 -0.001836971
vt 0.01163138 -0.001139679
vt 0.01163138 -0.001139679
vt 0.01163138 -0.001139679
vt 0.01163138 -0.001139679
vt 0.01130901 -0.0003582628
vt 0.01130901 -0.0003582628
vn 0 1 0
vn 0 1 0
vn 0 1 0
vn 0 1 0
vn 0 1 0
vn 0 1 0
vn 0 1 0
vn 0 1 0
vn 0 1 0
vn 0 1 0
vn 0 1 0
vn 0 1 0
vn 0 1 0
vn 0 1 0
vn 0 1 0
vn 0 1 0
vn 0 1 0
vn 0 1 0
vn 0 1 0
vn 0 1 0
vn 0 1 0
vn 0 1 0
vn 0 1 0
vn 0 1 0
vn 0 1 0
vn 0 1 0
vn 0 1 0
vn 0 1 0
vn 0 1 0
vn 0 1 0
vn -0.8713933 0 -0.4905851
vn -0.8713933 0 -0.4905851
vn -0.9998588 0 0.01680563
vn -0.9998588 0 0.01680563
vn -0.7283288 0 0.6852279
vn -0.7283288 0 0.6852279
vn -0.7283288 0 0.6852279
vn -0.7283288 0 0.6852279
vn -0.4268588 0 0.9043182
vn -0.4268588 0 0.9043182
vn -0.4268588 0 0.9043182
vn -0.4268588 0 0.9043182
vn -0.423005 0 0.9061273
vn -0.423005 0 0.9061273
vn -0.423005 0 0.9061273
vn -0.423005 0 0.9061273
vn -0.3549569 0 0.9348826
vn -0.3549569 0 0.9348826
vn -0.3549569 0 0.9348826
vn -0.3549569 0 0.9348826
vn -0.4055241 0 0.9140843
vn -0.4055241 0 0.9140843
vn -0.4055241 0 0.9140843
vn -0.4055241 0 0.9140843
vn -0.5744178 0 0.8185623
vn -0.5744178 0 0.8185623
vn -0.5744178 0 0.8185623
vn -0.5744178 0 0.8185623
vn -0.2666651 0 0.9637892
vn -0.2666651 0 0.9637892
vn -0.2666651 0 0.9637892
vn -0.2666651 0 0.9637892
vn -0.6028597 0 0.7978472
vn -0.6028597 0 0.7978472
vn -0.6028597 0 0.7978472
vn -0.6028597 0 0.7978472
vn -0.403513 0 0.914974
vn -0.403513 0 0.914974
vn -0.403513 0 0.914974
vn -0.403513 0 0.914974
vn -0.3889529 0 0.9212576
vn -0.3889529 0 0.9212576
vn -0.3889529 0 0.9212576
vn -0.3889529 0 0.9212576
vn -0.5346654 0 0.8450638
vn -0.5346654 0 0.8450638
vn -0.5346654 0 0.8450638
vn -0.5346654 0 0.8450638
vn -0.09338713 0 0.9956299
vn -0.09338713 0 0.9956299
vn -0.09338713 0 0.9956299
vn -0.09338713 0 0.9956299
vn 0.460929 0 0.887437
vn 0.460929 0 0.887437
vn 0.8713938 0 0.4905843
vn 0.8713938 0 0.4905843
vn -0.8713933 0 -0.4905851
vn -0.8713933 0 -0.4905851
vn -0.5042088 0 -0.8635818
vn -0.5042088 0 -0.8635818
vn 0.2081121 0 -0.978105
vn 0.2081121 0 -0.978105
vn 0.2081121 0 -0.978105
vn 0.2081121 0 -0.978105
vn 0.5517879 0 -0.8339844
vn 0.5517879 0 -0.8339844
vn 0.5517879 0 -0.8339844
vn 0.5517879 0 -0.8339844
vn 0.5553327 0 -0.8316283
vn 0.5553327 0 -0.8316283
vn 0.5553327 0 -0.8316283
vn 0.5553327 0 -0.8316283
vn 0.615213 0 -0.7883609
vn 0.615213 0 -0.7883609
vn 0.615213 0 -0.7883609
vn 0.615213 0 -0.7883609
vn 0.5712023 0 -0.8208093
vn 0.5712023 0 -0.8208093
vn 0.5712023 0 -0.8208093
vn 0.5712023 0 -0.8208093
vn 0.4019363 0 -0.9156676
vn 0.4019363 0 -0.9156676
vn 0.4019363 0 -0.9156676
vn 0.4019363 0 -0.9156676
vn 0.68572 0 -0.7278655
vn 0.68572 0 -0.7278655
vn 0.68572 0 -0.7278655
vn 0.68572 0 -0.7278655
vn 0.3694738 0 -0.9292412
vn 0.3694738 0 -0.9292412
vn 0.3694738 0 -0.9292412
vn 0.3694738 0 -0.9292412
vn 0.5730054 0 -0.8195516
vn 0.5730054 0 -0.8195516
vn 0.5730054 0 -0.8195516
vn 0.5730054 0 -0.8195516
vn 0.5859315 0 -0.8103606
vn 0.5859315 0 -0.8103606
vn 0.5859315 0 -0.8103606
vn 0.5859315 0 -0.8103606
vn 0.4452118 0 -0.8954253
vn 0.4452118 0 -0.8954253
vn 0.4452118 0 -0.8954253
vn 0.4452118 0 -0.8954253
vn 0.8028134 0 -0.5962303
vn 0.8028134 0 -0.5962303
vn 0.8028134 0 -0.5962303
vn 0.8028134 0 -0.5962303
vn 0.9978076 0 -0.06618223
vn 0.9978076 0 -0.06618223
vn 0.8713938 0 0.4905843
vn 0.8713938 0 0.4905843
g _0
f 3/3/3 2/2/2 1/1/1
f 2/2/2 3/3/3 4/4/4
f 5/5/5 4/4/4 3/3/3
f 4/4/4 5/5/5 6/6/6
f 7/7/7 6/6/6 5/5/5
f 6/6/6 7/7/7 8/8/8
f 9/9/9 8/8/8 7/7/7
f 8/8/8 9/9/9 10/10/10
f 11/11/11 10/10/10 9/9/9
f 10/10/10 11/11/11 12/12/12
f 13/13/13 12/12/12 11/11/11
f 12/12/12 13/13/13 14/14/14
f 15/15/15 14/14/14 13/13/13
f 14/14/14 15/15/15 16/16/16
f 17/17/17 16/16/16 15/15/15
f 16/16/16 17/17/17 18/18/18
f 19/19/19 18/18/18 17/17/17
f 18/18/18 19/19/19 20/20/20
f 21/21/21 20/20/20 19/19/19
f 20/20/20 21/21/21 22/22/22
f 23/23/23 22/22/22 21/21/21
f 22/22/22 23/23/23 24/24/24
f 25/25/25 24/24/24 23/23/23
f 24/24/24 25/25/25 26/26/26
f 27/27/27 26/26/26 25/25/25
f 26/26/26 27/27/27 28/28/28
f 29/29/29 28/28/28 27/27/27
f 28/28/28 29/29/29 30/30/30
g _1
f 31/31/31 32/32/32 33/33/33
f 34/34/34 33/33/33 32/32/32
f 35/35/35 36/36/36 37/37/37
f 38/38/38 37/37/37 36/36/36
f 39/39/39 40/40/40 41/41/41
f 42/42/42 41/41/41 40/40/40
f 43/43/43 44/44/44 45/45/45
f 46/46/46 45/45/45 44/44/44
f 47/47/47 48/48/48 49/49/49
f 50/50/50 49/49/49 48/48/48
f 51/51/51 52/52/52 53/53/53
f 54/54/54 53/53/53 52/52/52
f 55/55/55 56/56/56 57/57/57
f 58/58/58 57/57/57 56/56/56
f 59/59/59 60/60/60 61/61/61
f 62/62/62 61/61/61 60/60/60
f 63/63/63 64/64/64 65/65/65
f 66/66/66 65/65/65 64/64/64
f 67/67/67 68/68/68 69/69/69
f 70/70/70 69/69/69 68/68/68
f 71/71/71 72/72/72 73/73/73
f 74/74/74 73/73/73 72/72/72
f 75/75/75 76/76/76 77/77/77
f 78/78/78 77/77/77 76/76/76
f 79/79/79 80/80/80 81/81/81
f 82/82/82 81/81/81 80/80/80
f 83/83/83 84/84/84 85/85/85
f 86/86/86 85/85/85 84/84/84
f 89/89/89 88/88/88 87/87/87
f 88/88/88 89/89/89 90/90/90
f 93/93/93 92/92/92 91/91/91
f 92/92/92 93/93/93 94/94/94
f 97/97/97 96/96/96 95/95/95
f 96/96/96 97/97/97 98/98/98
f 101/101/101 100/100/100 99/99/99
f 100/100/100 101/101/101 102/102/102
f 105/105/105 104/104/104 103/103/103
f 104/104/104 105/105/105 106/106/106
f 109/109/109 108/108/108 107/107/107
f 108/108/108 109/109/109 110/110/110
f 113/113/113 112/112/112 111/111/111
f 112/112/112 113/113/113 114/114/114
f 117/117/117 116/116/116 115/115/115
f 116/116/116 117/117/117 118/118/118
f 121/121/121 120/120/120 119/119/119
f 120/120/120 121/121/121 122/122/122
f 125/125/125 124/124/124 123/123/123
f 124/124/124 125/125/125 126/126/126
f 129/129/129 128/128/128 127/127/127
f 128/128/128 129/129/129 130/130/130
f 133/133/133 132/132/132 131/131/131
f 132/132/132 133/133/133 134/134/134
f 137/137/137 136/136/136 135/135/135
f 136/136/136 137/137/137 138/138/138
f 141/141/141 140/140/140 139/139/139
f 140/140/140 141/141/141 142/142/142
f 87/87/87 32/32/32 31/31/31
f 32/32/32 87/87/87 88/88/88
f 85/85/85 86/86/86 141/141/141
f 142/142/142 141/141/141 86/86/86
