g 
v 3.277148 0 -51.92912
v 0.04181385 0 -52.3719
v 4.629292 0 -52.48238
v -1.111957 0 -53.26812
v 5.897517 0 -53.27102
v -2.121655 0 -54.3685
v 6.810536 0 -55.46901
v -2.410537 0 -56.73099
v 6.767751 0 -56.21958
v -2.164841 0 -57.46304
v 7.184743 0 -57.04523
v -2.349138 0 -58.284
v 7.348952 0 -57.97786
v -2.317648 0 -59.00182
v 7.357149 0 -58.8983
v -2.171435 0 -59.73611
v 7.50794 0 -59.63914
v -2.217913 0 -60.28302
v 7.436216 0 -60.42229
v -2.082552 0 -60.74901
v 7.336504 0 -61.13401
v -1.960638 0 -61.28904
v 7.447008 0 -61.75425
v -2.051595 0 -61.92073
v 7.328377 0 -61.73018
v -1.928377 0 -62.06982
v 6.918361 0 -64.0565
v -1.348984 0 -64.35983
v 5.854701 0 -65.05289
v -0.2151666 0 -65.2756
v 4.449873 0 -65.83904
v 1.243496 0 -65.95669
vt -0.2018345 -0.01461848
vt -0.2049922 -0.01545081
vt -0.2007981 -0.0135888
vt -0.2064015 -0.01506581
vt -0.1999295 -0.01237396
vt -0.2077561 -0.014437
vt -0.1999296 -0.009993882
vt -0.2089292 -0.01236613
vt -0.2002571 -0.009317159
vt -0.2089832 -0.01159583
vt -0.2001887 -0.008394707
vt -0.2094683 -0.0109084
vt -0.2003949 -0.007470445
vt -0.2097146 -0.01023342
vt -0.2007405 -0.0066173
vt -0.2098613 -0.009499228
vt -0.2008854 -0.005875291
vt -0.2101141 -0.009012
vt -0.2012521 -0.005179585
vt -0.2101678 -0.008529735
vt -0.2016172 -0.004560581
vt -0.2102624 -0.007984255
vt -0.2017532 -0.003945412
vt -0.2105888 -0.007435801
vt -0.2018535 -0.00401315
vt -0.2105322 -0.007250847
vt -0.2031246 -0.002022144
vt -0.2108757 -0.004913785
vt -0.2044891 -0.00151007
vt -0.21018 -0.003633108
vt -0.2060881 -0.001323039
vt -0.2090942 -0.00244452
vn 0 1 0
vn 0 1 0
vn 0 1 0
vn 0 1 0
vn 0 1 0
vn 0 1 0
vn 0 1 0
vn 0 1 0
vn 0 1 0
vn 0 1 0
vn 0 1 0
vn 0 1 0
vn 0 1 0
vn 0 1 0
vn 0 1 0
vn 0 1 0
vn 0 1 0
vn 0 1 0
vn 0 1 0
vn 0 1 0
vn 0 1 0
vn 0 1 0
vn 0 1 0
vn 0 1 0
vn 0 1 0
vn 0 1 0
vn 0 1 0
vn 0 1 0
vn 0 1 0
vn 0 1 0
vn 0 1 0
vn 0 1 0
g _0
f 3/3/3 2/2/2 1/1/1
f 2/2/2 3/3/3 4/4/4
f 5/5/5 4/4/4 3/3/3
f 4/4/4 5/5/5 6/6/6
f 7/7/7 6/6/6 5/5/5
f 6/6/6 7/7/7 8/8/8
f 9/9/9 8/8/8 7/7/7
f 8/8/8 9/9/9 10/10/10
f 11/11/11 10/10/10 9/9/9
f 10/10/10 11/11/11 12/12/12
f 13/13/13 12/12/12 11/11/11
f 12/12/12 13/13/13 14/14/14
f 15/15/15 14/14/14 13/13/13
f 14/14/14 15/15/15 16/16/16
f 17/17/17 16/16/16 15/15/15
f 16/16/16 17/17/17 18/18/18
f 19/19/19 18/18/18 17/17/17
f 18/18/18 19/19/19 20/20/20
f 21/21/21 20/20/20 19/19/19
f 20/20/20 21/21/21 22/22/22
f 23/23/23 22/22/22 21/21/21
f 22/22/22 23/23/23 24/24/24
f 24/24/24 25/25/25 26/26/26
f 27/27/27 26/26/26 25/25/25
f 26/26/26 27/27/27 28/28/28
f 29/29/29 28/28/28 27/27/27
f 28/28/28 29/29/29 30/30/30
f 31/31/31 30/30/30 29/29/29
f 30/30/30 31/31/31 32/32/32
