g 
v 37.32344 18.6 -56.80781
v 33.53964 18.6 -52.73213
v 37.71491 18.6 -59.37442
v 31.00915 18.6 -52.15136
v 35.93192 18.6 -62.63221
v 27.62808 18.6 -53.68779
v 30.59362 22.37778 -66.83314
v 23.04276 22.37778 -58.69979
v 27.88366 23.7 -69.08474
v 20.59634 23.7 -61.23527
v 24.91649 23.7 -70.43309
v 19.03161 23.7 -64.09425
v 22.69576 23.7 -69.92342
v 19.37516 23.7 -66.34666
v 37.32344 18.6 -56.80781
v 37.32344 -11.4 -56.80781
v 37.71491 18.6 -59.37442
v 37.71491 -11.4 -59.37442
v 37.71491 18.6 -59.37442
v 37.71491 -11.4 -59.37442
v 35.93192 18.6 -62.63221
v 35.93192 -11.4 -62.63221
v 35.93192 18.6 -62.63221
v 35.93192 -11.4 -62.63221
v 30.59362 22.37778 -66.83314
v 30.59362 -7.622221 -66.83314
v 30.59362 22.37778 -66.83314
v 30.59362 -7.622221 -66.83314
v 27.88366 23.7 -69.08474
v 27.88366 -6.299999 -69.08474
v 27.88366 23.7 -69.08474
v 27.88366 -6.299999 -69.08474
v 24.91649 23.7 -70.43309
v 24.91649 -6.299999 -70.43309
v 24.91649 23.7 -70.43309
v 24.91649 -6.299999 -70.43309
v 22.69576 23.7 -69.92342
v 22.69576 -6.299999 -69.92342
v 33.53964 18.6 -52.73213
v 33.53964 -11.4 -52.73213
v 31.00915 18.6 -52.15136
v 31.00915 -11.4 -52.15136
v 31.00915 18.6 -52.15136
v 31.00915 -11.4 -52.15136
v 27.62808 18.6 -53.68779
v 27.62808 -11.4 -53.68779
v 27.62808 18.6 -53.68779
v 27.62808 -11.4 -53.68779
v 23.04276 22.37778 -58.69979
v 23.04276 -7.622221 -58.69979
v 23.04276 22.37778 -58.69979
v 23.04276 -7.622221 -58.69979
v 20.59634 23.7 -61.23527
v 20.59634 -6.299999 -61.23527
v 20.59634 23.7 -61.23527
v 20.59634 -6.299999 -61.23527
v 19.03161 23.7 -64.09425
v 19.03161 -6.299999 -64.09425
v 19.03161 23.7 -64.09425
v 19.03161 -6.299999 -64.09425
v 19.37516 23.7 -66.34666
v 19.37516 -6.299999 -66.34666
vt -0.1111851 0.04409328
vt -0.1167243 0.04359781
vt -0.1091764 0.04573816
vt -0.1189931 0.04486005
vt -0.1083205 0.04935199
vt -0.1204768 0.04826462
vt -0.1094749 0.05604623
vt -0.1205288 0.05505745
vt -0.1099812 0.05953294
vt -0.1206494 0.05857868
vt -0.1112833 0.06252074
vt -0.1198983 0.06175013
vt -0.1132743 0.06362847
vt -0.1181354 0.06319364
vt -0.1111851 0.04409328
vt -0.1111851 0.04409328
vt -0.1091764 0.04573816
vt -0.1091764 0.04573816
vt -0.1091764 0.04573816
vt -0.1091764 0.04573816
vt -0.1083205 0.04935199
vt -0.1083205 0.04935199
vt -0.1083205 0.04935199
vt -0.1083205 0.04935199
vt -0.1094749 0.05604623
vt -0.1094749 0.05604623
vt -0.1094749 0.05604623
vt -0.1094749 0.05604623
vt -0.1099812 0.05953294
vt -0.1099812 0.05953294
vt -0.1099812 0.05953294
vt -0.1099812 0.05953294
vt -0.1112833 0.06252074
vt -0.1112833 0.06252074
vt -0.1112833 0.06252074
vt -0.1112833 0.06252074
vt -0.1132743 0.06362847
vt -0.1132743 0.06362847
vt -0.1167243 0.04359781
vt -0.1167243 0.04359781
vt -0.1189931 0.04486005
vt -0.1189931 0.04486005
vt -0.1189931 0.04486005
vt -0.1189931 0.04486005
vt -0.1204768 0.04826462
vt -0.1204768 0.04826462
vt -0.1204768 0.04826462
vt -0.1204768 0.04826462
vt -0.1205288 0.05505745
vt -0.1205288 0.05505745
vt -0.1205288 0.05505745
vt -0.1205288 0.05505745
vt -0.1206494 0.05857868
vt -0.1206494 0.05857868
vt -0.1206494 0.05857868
vt -0.1206494 0.05857868
vt -0.1198983 0.06175013
vt -0.1198983 0.06175013
vt -0.1198983 0.06175013
vt -0.1198983 0.06175013
vt -0.1181354 0.06319364
vt -0.1181354 0.06319364
vn 0 1 0
vn 0 1 0
vn 0 1 0
vn 0 1 0
vn 0 1 0
vn 0 1 0
vn 0 1 0
vn 0 1 0
vn 0 1 0
vn 0 1 0
vn 0 1 0
vn 0 1 0
vn 0 1 0
vn 0 1 0
vn 0.7328614 0 0.680378
vn 0.7328614 0 0.680378
vn 0.9885674 0 0.1507797
vn 0.9885674 0 0.1507797
vn 0.8772136 0 -0.4801004
vn 0.8772136 0 -0.4801004
vn 0.8772136 0 -0.4801004
vn 0.8772136 0 -0.4801004
vn 0.6184173 0 -0.7858499
vn 0.6184173 0 -0.7858499
vn 0.6184173 0 -0.7858499
vn 0.6184173 0 -0.7858499
vn 0.6390619 0 -0.7691553
vn 0.6390619 0 -0.7691553
vn 0.6390619 0 -0.7691553
vn 0.6390619 0 -0.7691553
vn 0.4137105 0 -0.9104085
vn 0.4137105 0 -0.9104085
vn 0.4137105 0 -0.9104085
vn 0.4137105 0 -0.9104085
vn -0.2236893 0 -0.9746605
vn -0.2236893 0 -0.9746605
vn -0.7328631 0 -0.6803762
vn -0.7328631 0 -0.6803762
vn 0.7328614 0 0.680378
vn 0.7328614 0 0.680378
vn 0.2236923 0 0.9746598
vn 0.2236923 0 0.9746598
vn -0.4137108 0 0.9104083
vn -0.4137108 0 0.9104083
vn -0.4137108 0 0.9104083
vn -0.4137108 0 0.9104083
vn -0.737814 0 0.675004
vn -0.737814 0 0.675004
vn -0.737814 0 0.675004
vn -0.737814 0 0.675004
vn -0.7196331 0 0.6943545
vn -0.7196331 0 0.6943545
vn -0.7196331 0 0.6943545
vn -0.7196331 0 0.6943545
vn -0.8772135 0 0.4801005
vn -0.8772135 0 0.4801005
vn -0.8772135 0 0.4801005
vn -0.8772135 0 0.4801005
vn -0.9885671 0 -0.1507812
vn -0.9885671 0 -0.1507812
vn -0.7328631 0 -0.6803762
vn -0.7328631 0 -0.6803762
g _0
f 3/3/3 2/2/2 1/1/1
f 2/2/2 3/3/3 4/4/4
f 5/5/5 4/4/4 3/3/3
f 4/4/4 5/5/5 6/6/6
f 7/7/7 6/6/6 5/5/5
f 6/6/6 7/7/7 8/8/8
f 9/9/9 8/8/8 7/7/7
f 8/8/8 9/9/9 10/10/10
f 11/11/11 10/10/10 9/9/9
f 10/10/10 11/11/11 12/12/12
f 13/13/13 12/12/12 11/11/11
f 12/12/12 13/13/13 14/14/14
g _1
f 15/15/15 16/16/16 17/17/17
f 18/18/18 17/17/17 16/16/16
f 19/19/19 20/20/20 21/21/21
f 22/22/22 21/21/21 20/20/20
f 23/23/23 24/24/24 25/25/25
f 26/26/26 25/25/25 24/24/24
f 27/27/27 28/28/28 29/29/29
f 30/30/30 29/29/29 28/28/28
f 31/31/31 32/32/32 33/33/33
f 34/34/34 33/33/33 32/32/32
f 35/35/35 36/36/36 37/37/37
f 38/38/38 37/37/37 36/36/36
f 41/41/41 40/40/40 39/39/39
f 40/40/40 41/41/41 42/42/42
f 45/45/45 44/44/44 43/43/43
f 44/44/44 45/45/45 46/46/46
f 49/49/49 48/48/48 47/47/47
f 48/48/48 49/49/49 50/50/50
f 53/53/53 52/52/52 51/51/51
f 52/52/52 53/53/53 54/54/54
f 57/57/57 56/56/56 55/55/55
f 56/56/56 57/57/57 58/58/58
f 61/61/61 60/60/60 59/59/59
f 60/60/60 61/61/61 62/62/62
f 39/39/39 16/16/16 15/15/15
f 16/16/16 39/39/39 40/40/40
f 37/37/37 38/38/38 61/61/61
f 62/62/62 61/61/61 38/38/38
