g 
v 26.38803 17.6 -16.74174
v 7.411971 17.6 -30.05827
v 40.58411 17.6 -17.4736
v 1.215895 17.6 -40.72641
v 45.81337 17.6 -27.48603
v 5.076723 17.6 -48.24837
v 50.29699 17.6 -36.43431
v 9.44121 17.6 -56.96123
v 54.59613 17.6 -44.97092
v 14.03049 17.6 -66.0654
v 54.47986 17.6 -54.56322
v 23.31409 17.6 -73.55436
v 54.19115 17.6 -65.3279
v 33.75871 17.6 -77.4192
v 58.80715 17.6 -74.72745
v 36.63013 17.6 -83.20469
v 61.86488 17.6 -85.70123
v 38.38597 17.6 -89.22608
v 61.99176 16.92593 -99.0387
v 38.74689 16.92593 -94.20554
v 56.09179 15 -111.8942
v 36.90821 15 -97.90583
v 48.4547 13.95555 -119.3392
v 30.37628 13.95555 -103.9491
v 44.71459 13.2 -124.8096
v 23.55585 13.2 -114.0397
v 42.17898 13.2 -131.9682
v 19.4437 13.2 -125.1278
v 40.14669 13.2 -140.5158
v 16.93809 13.2 -135.5113
v 38.3858 13.2 -149.7032
v 15.01315 13.2 -145.5314
v 36.81229 13.2 -159.2347
v 13.38771 13.2 -155.3653
v 26.38803 17.6 -16.74174
v 26.38803 -2.4 -16.74174
v 40.58411 17.6 -17.4736
v 40.58411 -2.4 -17.4736
v 40.58411 17.6 -17.4736
v 40.58411 -2.4 -17.4736
v 45.81337 17.6 -27.48603
v 45.81337 -2.4 -27.48603
v 45.81337 17.6 -27.48603
v 45.81337 -2.4 -27.48603
v 50.29699 17.6 -36.43431
v 50.29699 -2.4 -36.43431
v 50.29699 17.6 -36.43431
v 50.29699 -2.4 -36.43431
v 54.59613 17.6 -44.97092
v 54.59613 -2.4 -44.97092
v 54.59613 17.6 -44.97092
v 54.59613 -2.4 -44.97092
v 54.47986 17.6 -54.56322
v 54.47986 -2.4 -54.56322
v 54.47986 17.6 -54.56322
v 54.47986 -2.4 -54.56322
v 54.19115 17.6 -65.3279
v 54.19115 -2.4 -65.3279
v 54.19115 17.6 -65.3279
v 54.19115 -2.4 -65.3279
v 58.80715 17.6 -74.72745
v 58.80715 -2.4 -74.72745
v 58.80715 17.6 -74.72745
v 58.80715 -2.4 -74.72745
v 61.86488 17.6 -85.70123
v 61.86488 -2.4 -85.70123
v 61.86488 17.6 -85.70123
v 61.86488 -2.4 -85.70123
v 61.99176 16.92593 -99.0387
v 61.99176 -3.074074 -99.0387
v 61.99176 16.92593 -99.0387
v 61.99176 -3.074074 -99.0387
v 56.09179 15 -111.8942
v 56.09179 -5 -111.8942
v 56.09179 15 -111.8942
v 56.09179 -5 -111.8942
v 48.4547 13.95555 -119.3392
v 48.4547 -6.044445 -119.3392
v 48.4547 13.95555 -119.3392
v 48.4547 -6.044445 -119.3392
v 44.71459 13.2 -124.8096
v 44.71459 -6.8 -124.8096
v 44.71459 13.2 -124.8096
v 44.71459 -6.8 -124.8096
v 42.17898 13.2 -131.9682
v 42.17898 -6.8 -131.9682
v 42.17898 13.2 -131.9682
v 42.17898 -6.8 -131.9682
v 40.14669 13.2 -140.5158
v 40.14669 -6.8 -140.5158
v 40.14669 13.2 -140.5158
v 40.14669 -6.8 -140.5158
v 38.3858 13.2 -149.7032
v 38.3858 -6.8 -149.7032
v 38.3858 13.2 -149.7032
v 38.3858 -6.8 -149.7032
v 36.81229 13.2 -159.2347
v 36.81229 -6.8 -159.2347
v 7.411971 17.6 -30.05827
v 7.411971 -2.4 -30.05827
v 1.215895 17.6 -40.72641
v 1.215895 -2.4 -40.72641
v 1.215895 17.6 -40.72641
v 1.215895 -2.4 -40.72641
v 5.076723 17.6 -48.24837
v 5.076723 -2.4 -48.24837
v 5.076723 17.6 -48.24837
v 5.076723 -2.4 -48.24837
v 9.44121 17.6 -56.96123
v 9.44121 -2.4 -56.96123
v 9.44121 17.6 -56.96123
v 9.44121 -2.4 -56.96123
v 14.03049 17.6 -66.0654
v 14.03049 -2.4 -66.0654
v 14.03049 17.6 -66.0654
v 14.03049 -2.4 -66.0654
v 23.31409 17.6 -73.55436
v 23.31409 -2.4 -73.55436
v 23.31409 17.6 -73.55436
v 23.31409 -2.4 -73.55436
v 33.75871 17.6 -77.4192
v 33.75871 -2.4 -77.4192
v 33.75871 17.6 -77.4192
v 33.75871 -2.4 -77.4192
v 36.63013 17.6 -83.20469
v 36.63013 -2.4 -83.20469
v 36.63013 17.6 -83.20469
v 36.63013 -2.4 -83.20469
v 38.38597 17.6 -89.22608
v 38.38597 -2.4 -89.22608
v 38.38597 17.6 -89.22608
v 38.38597 -2.4 -89.22608
v 38.74689 16.92593 -94.20554
v 38.74689 -3.074074 -94.20554
v 38.74689 16.92593 -94.20554
v 38.74689 -3.074074 -94.20554
v 36.90821 15 -97.90583
v 36.90821 -5 -97.90583
v 36.90821 15 -97.90583
v 36.90821 -5 -97.90583
v 30.37628 13.95555 -103.9491
v 30.37628 -6.044445 -103.9491
v 30.37628 13.95555 -103.9491
v 30.37628 -6.044445 -103.9491
v 23.55585 13.2 -114.0397
v 23.55585 -6.8 -114.0397
v 23.55585 13.2 -114.0397
v 23.55585 -6.8 -114.0397
v 19.4437 13.2 -125.1278
v 19.4437 -6.8 -125.1278
v 19.4437 13.2 -125.1278
v 19.4437 -6.8 -125.1278
v 16.93809 13.2 -135.5113
v 16.93809 -6.8 -135.5113
v 16.93809 13.2 -135.5113
v 16.93809 -6.8 -135.5113
v 15.01315 13.2 -145.5314
v 15.01315 -6.8 -145.5314
v 15.01315 13.2 -145.5314
v 15.01315 -6.8 -145.5314
v 13.38771 13.2 -155.3653
v 13.38771 -6.8 -155.3653
vt 0.02890187 -0.1180233
vt 0.05113691 -0.1245826
vt 0.01568286 -0.1232504
vt 0.06041542 -0.1327133
vt 0.01392489 -0.1344085
vt 0.05915889 -0.1410744
vt 0.01253368 -0.14432
vt 0.05780539 -0.1507248
vt 0.01118581 -0.1537826
vt 0.05636384 -0.1608179
vt 0.0143593 -0.1628355
vt 0.04995795 -0.1708794
vt 0.01807059 -0.1729443
vt 0.04129447 -0.1778773
vt 0.01669804 -0.1833258
vt 0.04042101 -0.1842769
vt 0.01730489 -0.1947014
vt 0.04068004 -0.1905437
vt 0.02144398 -0.207381
vt 0.04192821 -0.1953777
vt 0.03114041 -0.2176792
vt 0.0448523 -0.198297
vt 0.04075516 -0.2222955
vt 0.05297212 -0.2019379
vt 0.04604641 -0.226285
vt 0.06265783 -0.209322
vt 0.05073533 -0.232259
vt 0.07009565 -0.2185163
vt 0.05539087 -0.23971
vt 0.07578604 -0.2275559
vt 0.05999355 -0.2478539
vt 0.08081009 -0.2364366
vt 0.06452858 -0.2563839
vt 0.08549086 -0.2452364
vt 0.02890187 -0.1180233
vt 0.02890187 -0.1180233
vt 0.01568286 -0.1232504
vt 0.01568286 -0.1232504
vt 0.01568286 -0.1232504
vt 0.01568286 -0.1232504
vt 0.01392489 -0.1344085
vt 0.01392489 -0.1344085
vt 0.01392489 -0.1344085
vt 0.01392489 -0.1344085
vt 0.01253368 -0.14432
vt 0.01253368 -0.14432
vt 0.01253368 -0.14432
vt 0.01253368 -0.14432
vt 0.01118581 -0.1537826
vt 0.01118581 -0.1537826
vt 0.01118581 -0.1537826
vt 0.01118581 -0.1537826
vt 0.0143593 -0.1628355
vt 0.0143593 -0.1628355
vt 0.0143593 -0.1628355
vt 0.0143593 -0.1628355
vt 0.01807059 -0.1729443
vt 0.01807059 -0.1729443
vt 0.01807059 -0.1729443
vt 0.01807059 -0.1729443
vt 0.01669804 -0.1833258
vt 0.01669804 -0.1833258
vt 0.01669804 -0.1833258
vt 0.01669804 -0.1833258
vt 0.01730489 -0.1947014
vt 0.01730489 -0.1947014
vt 0.01730489 -0.1947014
vt 0.01730489 -0.1947014
vt 0.02144398 -0.207381
vt 0.02144398 -0.207381
vt 0.02144398 -0.207381
vt 0.02144398 -0.207381
vt 0.03114041 -0.2176792
vt 0.03114041 -0.2176792
vt 0.03114041 -0.2176792
vt 0.03114041 -0.2176792
vt 0.04075516 -0.2222955
vt 0.04075516 -0.2222955
vt 0.04075516 -0.2222955
vt 0.04075516 -0.2222955
vt 0.04604641 -0.226285
vt 0.04604641 -0.226285
vt 0.04604641 -0.226285
vt 0.04604641 -0.226285
vt 0.05073533 -0.232259
vt 0.05073533 -0.232259
vt 0.05073533 -0.232259
vt 0.05073533 -0.232259
vt 0.05539087 -0.23971
vt 0.05539087 -0.23971
vt 0.05539087 -0.23971
vt 0.05539087 -0.23971
vt 0.05999355 -0.2478539
vt 0.05999355 -0.2478539
vt 0.05999355 -0.2478539
vt 0.05999355 -0.2478539
vt 0.06452858 -0.2563839
vt 0.06452858 -0.2563839
vt 0.05113691 -0.1245826
vt 0.05113691 -0.1245826
vt 0.06041542 -0.1327133
vt 0.06041542 -0.1327133
vt 0.06041542 -0.1327133
vt 0.06041542 -0.1327133
vt 0.05915889 -0.1410744
vt 0.05915889 -0.1410744
vt 0.05915889 -0.1410744
vt 0.05915889 -0.1410744
vt 0.05780539 -0.1507248
vt 0.05780539 -0.1507248
vt 0.05780539 -0.1507248
vt 0.05780539 -0.1507248
vt 0.05636384 -0.1608179
vt 0.05636384 -0.1608179
vt 0.05636384 -0.1608179
vt 0.05636384 -0.1608179
vt 0.04995795 -0.1708794
vt 0.04995795 -0.1708794
vt 0.04995795 -0.1708794
vt 0.04995795 -0.1708794
vt 0.04129447 -0.1778773
vt 0.04129447 -0.1778773
vt 0.04129447 -0.1778773
vt 0.04129447 -0.1778773
vt 0.04042101 -0.1842769
vt 0.04042101 -0.1842769
vt 0.04042101 -0.1842769
vt 0.04042101 -0.1842769
vt 0.04068004 -0.1905437
vt 0.04068004 -0.1905437
vt 0.04068004 -0.1905437
vt 0.04068004 -0.1905437
vt 0.04192821 -0.1953777
vt 0.04192821 -0.1953777
vt 0.04192821 -0.1953777
vt 0.04192821 -0.1953777
vt 0.0448523 -0.198297
vt 0.0448523 -0.198297
vt 0.0448523 -0.198297
vt 0.0448523 -0.198297
vt 0.05297212 -0.2019379
vt 0.05297212 -0.2019379
vt 0.05297212 -0.2019379
vt 0.05297212 -0.2019379
vt 0.06265783 -0.209322
vt 0.06265783 -0.209322
vt 0.06265783 -0.209322
vt 0.06265783 -0.209322
vt 0.07009565 -0.2185163
vt 0.07009565 -0.2185163
vt 0.07009565 -0.2185163
vt 0.07009565 -0.2185163
vt 0.07578604 -0.2275559
vt 0.07578604 -0.2275559
vt 0.07578604 -0.2275559
vt 0.07578604 -0.2275559
vt 0.08081009 -0.2364366
vt 0.08081009 -0.2364366
vt 0.08081009 -0.2364366
vt 0.08081009 -0.2364366
vt 0.08549086 -0.2452364
vt 0.08549086 -0.2452364
vn 0 1 0
vn 0 1 0
vn 0 1 0
vn 0 1 0
vn 0 1 0
vn 0 1 0
vn 0 1 0
vn 0 1 0
vn 0 1 0
vn 0 1 0
vn 0 1 0
vn 0 1 0
vn 0 1 0
vn 0 1 0
vn 0 1 0
vn 0 1 0
vn 0 1 0
vn 0 1 0
vn 0 1 0
vn 0 1 0
vn 0 1 0
vn 0 1 0
vn 0 1 0
vn 0 1 0
vn 0 1 0
vn 0 1 0
vn 0 1 0
vn 0 1 0
vn 0 1 0
vn 0 1 0
vn 0 1 0
vn 0 1 0
vn 0 1 0
vn 0 1 0
vn -0.5744258 0 0.8185567
vn -0.5744258 0 0.8185567
vn 0.05148538 0 0.9986738
vn 0.05148538 0 0.9986738
vn 0.8863894 0 0.4629404
vn 0.8863894 0 0.4629404
vn 0.8863894 0 0.4629404
vn 0.8863894 0 0.4629404
vn 0.8940479 0 0.4479713
vn 0.8940479 0 0.4479713
vn 0.8940479 0 0.4479713
vn 0.8940479 0 0.4479713
vn 0.8931328 0 0.449793
vn 0.8931328 0 0.449793
vn 0.8931328 0 0.449793
vn 0.8931328 0 0.449793
vn 0.9999265 0 -0.01212089
vn 0.9999265 0 -0.01212089
vn 0.9999265 0 -0.01212089
vn 0.9999265 0 -0.01212089
vn 0.9996405 0 -0.02681062
vn 0.9996405 0 -0.02681062
vn 0.9996405 0 -0.02681062
vn 0.9996405 0 -0.02681062
vn 0.897604 0 0.4408028
vn 0.897604 0 0.4408028
vn 0.897604 0 0.4408028
vn 0.897604 0 0.4408028
vn 0.9633034 0 0.2684147
vn 0.9633034 0 0.2684147
vn 0.9633034 0 0.2684147
vn 0.9633034 0 0.2684147
vn 0.9999548 0 0.009512375
vn 0.9999548 0 0.009512375
vn 0.9999548 0 0.009512375
vn 0.9999548 0 0.009512375
vn 0.9088537 0 -0.4171149
vn 0.9088537 0 -0.4171149
vn 0.9088537 0 -0.4171149
vn 0.9088537 0 -0.4171149
vn 0.698046 0 -0.716053
vn 0.698046 0 -0.716053
vn 0.698046 0 -0.716053
vn 0.698046 0 -0.716053
vn 0.8255047 0 -0.5643954
vn 0.8255047 0 -0.5643954
vn 0.8255047 0 -0.5643954
vn 0.8255047 0 -0.5643954
vn 0.9426153 0 -0.333881
vn 0.9426153 0 -0.333881
vn 0.9426153 0 -0.333881
vn 0.9426153 0 -0.333881
vn 0.9728792 0 -0.2313136
vn 0.9728792 0 -0.2313136
vn 0.9728792 0 -0.2313136
vn 0.9728792 0 -0.2313136
vn 0.9821234 0 -0.1882384
vn 0.9821234 0 -0.1882384
vn 0.9821234 0 -0.1882384
vn 0.9821234 0 -0.1882384
vn 0.9866461 0 -0.1628788
vn 0.9866461 0 -0.1628788
vn -0.16298 0 -0.9866294
vn -0.16298 0 -0.9866294
vn -0.5744258 0 0.8185567
vn -0.5744258 0 0.8185567
vn -0.8647301 0 0.5022369
vn -0.8647301 0 0.5022369
vn -0.8896537 0 -0.4566358
vn -0.8896537 0 -0.4566358
vn -0.8896537 0 -0.4566358
vn -0.8896537 0 -0.4566358
vn -0.8940961 0 -0.4478752
vn -0.8940961 0 -0.4478752
vn -0.8940961 0 -0.4478752
vn -0.8940961 0 -0.4478752
vn -0.8929634 0 -0.4501294
vn -0.8929634 0 -0.4501294
vn -0.8929634 0 -0.4501294
vn -0.8929634 0 -0.4501294
vn -0.6278631 0 -0.7783238
vn -0.6278631 0 -0.7783238
vn -0.6278631 0 -0.7783238
vn -0.6278631 0 -0.7783238
vn -0.3470349 0 -0.9378523
vn -0.3470349 0 -0.9378523
vn -0.3470349 0 -0.9378523
vn -0.3470349 0 -0.9378523
vn -0.8957439 0 -0.4445704
vn -0.8957439 0 -0.4445704
vn -0.8957439 0 -0.4445704
vn -0.8957439 0 -0.4445704
vn -0.9600173 0 -0.2799408
vn -0.9600173 0 -0.2799408
vn -0.9600173 0 -0.2799408
vn -0.9600173 0 -0.2799408
vn -0.9973835 0 -0.07229131
vn -0.9973835 0 -0.07229131
vn -0.9973835 0 -0.07229131
vn -0.9973835 0 -0.07229131
vn -0.8955345 0 0.4449921
vn -0.8955345 0 0.4449921
vn -0.8955345 0 0.4449921
vn -0.8955345 0 0.4449921
vn -0.6791189 0 0.7340283
vn -0.6791189 0 0.7340283
vn -0.6791189 0 0.7340283
vn -0.6791189 0 0.7340283
vn -0.8284945 0 0.5599971
vn -0.8284945 0 0.5599971
vn -0.8284945 0 0.5599971
vn -0.8284945 0 0.5599971
vn -0.9375988 0 0.3477189
vn -0.9375988 0 0.3477189
vn -0.9375988 0 0.3477189
vn -0.9375988 0 0.3477189
vn -0.9720983 0 0.2345738
vn -0.9720983 0 0.2345738
vn -0.9720983 0 0.2345738
vn -0.9720983 0 0.2345738
vn -0.9820429 0 0.1886579
vn -0.9820429 0 0.1886579
vn -0.9820429 0 0.1886579
vn -0.9820429 0 0.1886579
vn -0.9866132 0 0.163078
vn -0.9866132 0 0.163078
vn -0.16298 0 -0.9866294
vn -0.16298 0 -0.9866294
g _0
f 3/3/3 2/2/2 1/1/1
f 2/2/2 3/3/3 4/4/4
f 5/5/5 4/4/4 3/3/3
f 4/4/4 5/5/5 6/6/6
f 7/7/7 6/6/6 5/5/5
f 6/6/6 7/7/7 8/8/8
f 9/9/9 8/8/8 7/7/7
f 8/8/8 9/9/9 10/10/10
f 11/11/11 10/10/10 9/9/9
f 10/10/10 11/11/11 12/12/12
f 13/13/13 12/12/12 11/11/11
f 12/12/12 13/13/13 14/14/14
f 15/15/15 14/14/14 13/13/13
f 14/14/14 15/15/15 16/16/16
f 17/17/17 16/16/16 15/15/15
f 16/16/16 17/17/17 18/18/18
f 19/19/19 18/18/18 17/17/17
f 18/18/18 19/19/19 20/20/20
f 21/21/21 20/20/20 19/19/19
f 20/20/20 21/21/21 22/22/22
f 23/23/23 22/22/22 21/21/21
f 22/22/22 23/23/23 24/24/24
f 25/25/25 24/24/24 23/23/23
f 24/24/24 25/25/25 26/26/26
f 27/27/27 26/26/26 25/25/25
f 26/26/26 27/27/27 28/28/28
f 29/29/29 28/28/28 27/27/27
f 28/28/28 29/29/29 30/30/30
f 31/31/31 30/30/30 29/29/29
f 30/30/30 31/31/31 32/32/32
f 33/33/33 32/32/32 31/31/31
f 32/32/32 33/33/33 34/34/34
g _1
f 35/35/35 36/36/36 37/37/37
f 38/38/38 37/37/37 36/36/36
f 39/39/39 40/40/40 41/41/41
f 42/42/42 41/41/41 40/40/40
f 43/43/43 44/44/44 45/45/45
f 46/46/46 45/45/45 44/44/44
f 47/47/47 48/48/48 49/49/49
f 50/50/50 49/49/49 48/48/48
f 51/51/51 52/52/52 53/53/53
f 54/54/54 53/53/53 52/52/52
f 55/55/55 56/56/56 57/57/57
f 58/58/58 57/57/57 56/56/56
f 59/59/59 60/60/60 61/61/61
f 62/62/62 61/61/61 60/60/60
f 63/63/63 64/64/64 65/65/65
f 66/66/66 65/65/65 64/64/64
f 67/67/67 68/68/68 69/69/69
f 70/70/70 69/69/69 68/68/68
f 71/71/71 72/72/72 73/73/73
f 74/74/74 73/73/73 72/72/72
f 75/75/75 76/76/76 77/77/77
f 78/78/78 77/77/77 76/76/76
f 79/79/79 80/80/80 81/81/81
f 82/82/82 81/81/81 80/80/80
f 83/83/83 84/84/84 85/85/85
f 86/86/86 85/85/85 84/84/84
f 87/87/87 88/88/88 89/89/89
f 90/90/90 89/89/89 88/88/88
f 91/91/91 92/92/92 93/93/93
f 94/94/94 93/93/93 92/92/92
f 95/95/95 96/96/96 97/97/97
f 98/98/98 97/97/97 96/96/96
f 101/101/101 100/100/100 99/99/99
f 100/100/100 101/101/101 102/102/102
f 105/105/105 104/104/104 103/103/103
f 104/104/104 105/105/105 106/106/106
f 109/109/109 108/108/108 107/107/107
f 108/108/108 109/109/109 110/110/110
f 113/113/113 112/112/112 111/111/111
f 112/112/112 113/113/113 114/114/114
f 117/117/117 116/116/116 115/115/115
f 116/116/116 117/117/117 118/118/118
f 121/121/121 120/120/120 119/119/119
f 120/120/120 121/121/121 122/122/122
f 125/125/125 124/124/124 123/123/123
f 124/124/124 125/125/125 126/126/126
f 129/129/129 128/128/128 127/127/127
f 128/128/128 129/129/129 130/130/130
f 133/133/133 132/132/132 131/131/131
f 132/132/132 133/133/133 134/134/134
f 137/137/137 136/136/136 135/135/135
f 136/136/136 137/137/137 138/138/138
f 141/141/141 140/140/140 139/139/139
f 140/140/140 141/141/141 142/142/142
f 145/145/145 144/144/144 143/143/143
f 144/144/144 145/145/145 146/146/146
f 149/149/149 148/148/148 147/147/147
f 148/148/148 149/149/149 150/150/150
f 153/153/153 152/152/152 151/151/151
f 152/152/152 153/153/153 154/154/154
f 157/157/157 156/156/156 155/155/155
f 156/156/156 157/157/157 158/158/158
f 161/161/161 160/160/160 159/159/159
f 160/160/160 161/161/161 162/162/162
f 99/99/99 36/36/36 35/35/35
f 36/36/36 99/99/99 100/100/100
f 97/97/97 98/98/98 161/161/161
f 162/162/162 161/161/161 98/98/98
