g 
v 48.39656 60.79347 -39.78701
v 48.39656 46.79347 -39.78701
v 47.37529 61.7971 -42.39498
v 47.37529 47.7971 -42.39498
v 47.39265 59.59 -45.66663
v 47.39265 45.59 -45.66663
v 43.85995 59.59 -39.97125
v 43.85995 45.59 -39.97125
v 38.40044 59.59 -36.02476
v 38.40044 45.59 -36.02476
v 32.66354 59.59 -33.55217
v 32.66354 45.59 -33.55217
v 31.78646 59.59 -31.48962
v 31.78646 45.59 -31.48962
v 29.86765 59.59 -31.21085
v 29.86765 45.59 -31.21085
v 28.86549 59.59 -26.56499
v 28.86549 45.59 -26.56499
v 23.38649 59.59 -24.83546
v 23.38649 45.59 -24.83546
v 22.43778 59.59 -26.96213
v 22.43778 45.59 -26.96213
v 21.3268 59.59 -28.52241
v 21.3268 45.59 -28.52241
v 16.25027 59.59 -27.66807
v 16.25027 45.59 -27.66807
v 12.9371 59.59 -25.40346
v 12.9371 45.59 -25.40346
v 13.05033 59.59 -20.06513
v 13.05033 45.59 -20.06513
v 14.72737 59.59 -19.42157
v 14.72737 45.59 -19.42157
v 15.28777 59.59 -11.18281
v 15.28777 45.59 -11.18281
v 14.29872 59.59 -4.991954
v 14.29872 45.59 -4.991954
v 19.3216 59.59 -1.589773
v 19.3216 45.59 -1.589773
v 24.27971 59.59 -2.522655
v 24.27971 45.59 -2.522655
v 28.0833 59.59 0.2995453
v 28.0833 45.59 0.2995453
v 32.12801 59.59 0.6776114
v 32.12801 45.59 0.6776114
v 32.55564 59.59 -0.5804319
v 32.55564 45.59 -0.5804319
v 30.84583 59.59 -3.472044
v 30.84583 45.59 -3.472044
v 32.26278 59.59 -6.766131
v 32.26278 45.59 -6.766131
v 30.89454 59.59 -8.99145
v 30.89454 45.59 -8.99145
v 32.65859 59.59 -12.09716
v 32.65859 45.59 -12.09716
v 36.64107 59.59 -12.06331
v 36.64107 45.59 -12.06331
v 40.95441 59.59 -11.86881
v 40.95441 45.59 -11.86881
v 40.55927 59.59 -13.72224
v 40.55927 45.59 -13.72224
v 39.44022 59.59 -19.88497
v 39.44022 45.59 -19.88497
v 44.51936 59.59 -21.64127
v 44.51936 45.59 -21.64127
v 45.70311 59.59 -24.14416
v 45.70311 45.59 -24.14416
v 44.005 59.59 -28.12511
v 44.005 45.59 -28.12511
v 42.92816 59.59 -32.10638
v 42.92816 45.59 -32.10638
v 46.22068 59.59 -35.30882
v 46.22068 45.59 -35.30882
v 46.78519 59.59 -37.46162
v 46.78519 45.59 -37.46162
v 48.39656 60.79347 -39.78701
v 48.39656 46.79347 -39.78701
vt -0.5049656 -0.5108701
vt -0.5049656 -0.5108701
vt -0.4947528 -0.5369498
vt -0.4947528 -0.5369498
vt -0.4949265 -0.5696663
vt -0.4949265 -0.5696663
vt -0.4595994 -0.5127125
vt -0.4595994 -0.5127125
vt -0.4050044 -0.4732476
vt -0.4050044 -0.4732476
vt -0.3476353 -0.4485217
vt -0.3476353 -0.4485217
vt -0.3388645 -0.4278962
vt -0.3388645 -0.4278962
vt -0.3196765 -0.4251084
vt -0.3196765 -0.4251084
vt -0.3096549 -0.3786499
vt -0.3096549 -0.3786499
vt -0.2548649 -0.3613546
vt -0.2548649 -0.3613546
vt -0.2453778 -0.3826213
vt -0.2453778 -0.3826213
vt -0.234268 -0.3982241
vt -0.234268 -0.3982241
vt -0.1835027 -0.3896807
vt -0.1835027 -0.3896807
vt -0.150371 -0.3670346
vt -0.150371 -0.3670346
vt -0.1515033 -0.3136513
vt -0.1515033 -0.3136513
vt -0.1682737 -0.3072156
vt -0.1682737 -0.3072156
vt -0.1738777 -0.2248281
vt -0.1738777 -0.2248281
vt -0.1639872 -0.1629195
vt -0.1639872 -0.1629195
vt -0.214216 -0.1288977
vt -0.214216 -0.1288977
vt -0.2637971 -0.1382265
vt -0.2637971 -0.1382265
vt -0.3018329 -0.1100045
vt -0.3018329 -0.1100045
vt -0.3422801 -0.1062239
vt -0.3422801 -0.1062239
vt -0.3465564 -0.1188043
vt -0.3465564 -0.1188043
vt -0.3294583 -0.1477204
vt -0.3294583 -0.1477204
vt -0.3436278 -0.1806613
vt -0.3436278 -0.1806613
vt -0.3299454 -0.2029145
vt -0.3299454 -0.2029145
vt -0.3475859 -0.2339716
vt -0.3475859 -0.2339716
vt -0.3874106 -0.2336331
vt -0.3874106 -0.2336331
vt -0.4305441 -0.2316881
vt -0.4305441 -0.2316881
vt -0.4265926 -0.2502224
vt -0.4265926 -0.2502224
vt -0.4154022 -0.3118497
vt -0.4154022 -0.3118497
vt -0.4661935 -0.3294127
vt -0.4661935 -0.3294127
vt -0.4780311 -0.3544416
vt -0.4780311 -0.3544416
vt -0.4610499 -0.3942511
vt -0.4610499 -0.3942511
vt -0.4502816 -0.4340638
vt -0.4502816 -0.4340638
vt -0.4832068 -0.4660882
vt -0.4832068 -0.4660882
vt -0.4888519 -0.4876162
vt -0.4888519 -0.4876162
vt -0.5049656 -0.5108701
vt -0.5049656 -0.5108701
vn 0.9311493 0 -0.364638
vn 0.9311493 0 -0.364638
vn 0.9999859 0 0.005307489
vn 0.9999859 0 0.005307489
vn -0.8497978 0 -0.5271088
vn -0.8497978 0 -0.5271088
vn -0.5858334 0 -0.8104315
vn -0.5858334 0 -0.8104315
vn -0.3957999 0 -0.9183367
vn -0.3957999 0 -0.9183367
vn -0.9202513 0 -0.3913279
vn -0.9202513 0 -0.3913279
vn -0.1437759 0 -0.9896103
vn -0.1437759 0 -0.9896103
vn -0.977516 0 -0.2108613
vn -0.977516 0 -0.2108613
vn -0.3010243 0 -0.9536165
vn -0.3010243 0 -0.9536165
vn 0.9132496 0 -0.4074005
vn 0.9132496 0 -0.4074005
vn 0.814598 0 -0.580026
vn 0.814598 0 -0.580026
vn -0.1659592 0 -0.9861326
vn -0.1659592 0 -0.9861326
vn -0.5642932 0 -0.8255745
vn -0.5642932 0 -0.8255745
vn -0.9997752 0 0.02120592
vn -0.9997752 0 0.02120592
vn -0.3582746 0 0.9336163
vn -0.3582746 0 0.9336163
vn -0.9976947 0 0.0678627
vn -0.9976947 0 0.0678627
vn -0.9874778 0 -0.1577581
vn -0.9874778 0 -0.1577581
vn -0.5608013 0 0.8279504
vn -0.5608013 0 0.8279504
vn 0.1849081 0 0.9827558
vn 0.1849081 0 0.9827558
vn -0.5958723 0 0.8030792
vn -0.5958723 0 0.8030792
vn -0.09306598 0 0.9956599
vn -0.09306598 0 0.9956599
vn 0.9467964 0 0.321833
vn 0.9467964 0 0.321833
vn 0.860779 0 -0.5089787
vn 0.860779 0 -0.5089787
vn 0.9186192 0 0.3951441
vn 0.9186192 0 0.3951441
vn 0.85186 0 -0.5237695
vn 0.85186 0 -0.5237695
vn 0.8695234 0 0.4938917
vn 0.8695234 0 0.4938917
vn -0.008498874 0 0.9999639
vn -0.008498874 0 0.9999639
vn -0.04504681 0 0.9989849
vn -0.04504681 0 0.9989849
vn 0.9780195 0 -0.2085131
vn 0.9780195 0 -0.2085131
vn 0.9839107 0 -0.1786611
vn 0.9839107 0 -0.1786611
vn 0.3268007 0 0.9450932
vn 0.3268007 0 0.9450932
vn 0.9039928 0 0.4275475
vn 0.9039928 0 0.4275475
vn 0.9198137 0 -0.3923554
vn 0.9198137 0 -0.3923554
vn 0.9653135 0 -0.2610936
vn 0.9653135 0 -0.2610936
vn 0.6972327 0 0.7168449
vn 0.6972327 0 0.7168449
vn 0.9672971 0 0.2536459
vn 0.9672971 0 0.2536459
vn 0.8219463 0 0.5695649
vn 0.8219463 0 0.5695649
vn 0.8219463 0 0.5695649
vn 0.8219463 0 0.5695649
g _0
f 1/1/1 2/2/2 3/3/3
f 4/4/4 3/3/3 2/2/2
f 3/3/3 4/4/4 5/5/5
f 6/6/6 5/5/5 4/4/4
f 5/5/5 6/6/6 7/7/7
f 8/8/8 7/7/7 6/6/6
f 7/7/7 8/8/8 9/9/9
f 10/10/10 9/9/9 8/8/8
f 9/9/9 10/10/10 11/11/11
f 12/12/12 11/11/11 10/10/10
f 11/11/11 12/12/12 13/13/13
f 14/14/14 13/13/13 12/12/12
f 13/13/13 14/14/14 15/15/15
f 16/16/16 15/15/15 14/14/14
f 15/15/15 16/16/16 17/17/17
f 18/18/18 17/17/17 16/16/16
f 17/17/17 18/18/18 19/19/19
f 20/20/20 19/19/19 18/18/18
f 19/19/19 20/20/20 21/21/21
f 22/22/22 21/21/21 20/20/20
f 21/21/21 22/22/22 23/23/23
f 24/24/24 23/23/23 22/22/22
f 23/23/23 24/24/24 25/25/25
f 26/26/26 25/25/25 24/24/24
f 25/25/25 26/26/26 27/27/27
f 28/28/28 27/27/27 26/26/26
f 27/27/27 28/28/28 29/29/29
f 30/30/30 29/29/29 28/28/28
f 29/29/29 30/30/30 31/31/31
f 32/32/32 31/31/31 30/30/30
f 31/31/31 32/32/32 33/33/33
f 34/34/34 33/33/33 32/32/32
f 33/33/33 34/34/34 35/35/35
f 36/36/36 35/35/35 34/34/34
f 35/35/35 36/36/36 37/37/37
f 38/38/38 37/37/37 36/36/36
f 37/37/37 38/38/38 39/39/39
f 40/40/40 39/39/39 38/38/38
f 39/39/39 40/40/40 41/41/41
f 42/42/42 41/41/41 40/40/40
f 41/41/41 42/42/42 43/43/43
f 44/44/44 43/43/43 42/42/42
f 43/43/43 44/44/44 45/45/45
f 46/46/46 45/45/45 44/44/44
f 45/45/45 46/46/46 47/47/47
f 48/48/48 47/47/47 46/46/46
f 47/47/47 48/48/48 49/49/49
f 50/50/50 49/49/49 48/48/48
f 49/49/49 50/50/50 51/51/51
f 52/52/52 51/51/51 50/50/50
f 51/51/51 52/52/52 53/53/53
f 54/54/54 53/53/53 52/52/52
f 53/53/53 54/54/54 55/55/55
f 56/56/56 55/55/55 54/54/54
f 55/55/55 56/56/56 57/57/57
f 58/58/58 57/57/57 56/56/56
f 57/57/57 58/58/58 59/59/59
f 60/60/60 59/59/59 58/58/58
f 59/59/59 60/60/60 61/61/61
f 62/62/62 61/61/61 60/60/60
f 61/61/61 62/62/62 63/63/63
f 64/64/64 63/63/63 62/62/62
f 63/63/63 64/64/64 65/65/65
f 66/66/66 65/65/65 64/64/64
f 65/65/65 66/66/66 67/67/67
f 68/68/68 67/67/67 66/66/66
f 67/67/67 68/68/68 69/69/69
f 70/70/70 69/69/69 68/68/68
f 69/69/69 70/70/70 71/71/71
f 72/72/72 71/71/71 70/70/70
f 71/71/71 72/72/72 73/73/73
f 74/74/74 73/73/73 72/72/72
f 73/73/73 74/74/74 75/75/75
f 76/76/76 75/75/75 74/74/74
