g 
v 34.73783 18.6 -84.55069
v 38.94491 18.6 -88.18784
v 34.06783 18.6 -82.04235
v 41.52377 18.6 -88.4882
v 35.48361 18.6 -78.60901
v 44.71639 18.6 -86.59099
v 41.37439 20.5575 -74.34073
v 48.0883 20.5575 -80.14508
v 43.23705 21.03 -72.80064
v 49.34296 21.03 -78.07936
v 45.34842 21.03 -71.54597
v 50.27925 21.03 -75.80878
v 47.05389 21.03 -71.7446
v 49.83616 21.03 -74.14995
v 34.73783 18.6 -84.55069
v 34.73783 -11.4 -84.55069
v 34.06783 18.6 -82.04235
v 34.06783 -11.4 -82.04235
v 34.06783 18.6 -82.04235
v 34.06783 -11.4 -82.04235
v 35.48361 18.6 -78.60901
v 35.48361 -11.4 -78.60901
v 35.48361 18.6 -78.60901
v 35.48361 -11.4 -78.60901
v 41.37439 20.5575 -74.34073
v 41.37439 -9.442499 -74.34073
v 41.37439 20.5575 -74.34073
v 41.37439 -9.442499 -74.34073
v 43.23705 21.03 -72.80064
v 43.23705 -8.969999 -72.80064
v 43.23705 21.03 -72.80064
v 43.23705 -8.969999 -72.80064
v 45.34842 21.03 -71.54597
v 45.34842 -8.969999 -71.54597
v 45.34842 21.03 -71.54597
v 45.34842 -8.969999 -71.54597
v 47.05389 21.03 -71.7446
v 47.05389 -8.969999 -71.7446
v 38.94491 18.6 -88.18784
v 38.94491 -11.4 -88.18784
v 41.52377 18.6 -88.4882
v 41.52377 -11.4 -88.4882
v 41.52377 18.6 -88.4882
v 41.52377 -11.4 -88.4882
v 44.71639 18.6 -86.59099
v 44.71639 -11.4 -86.59099
v 44.71639 18.6 -86.59099
v 44.71639 -11.4 -86.59099
v 48.0883 20.5575 -80.14508
v 48.0883 -9.442499 -80.14508
v 48.0883 20.5575 -80.14508
v 48.0883 -9.442499 -80.14508
v 49.34296 21.03 -78.07936
v 49.34296 -8.969999 -78.07936
v 49.34296 21.03 -78.07936
v 49.34296 -8.969999 -78.07936
v 50.27925 21.03 -75.80878
v 50.27925 -8.969999 -75.80878
v 50.27925 21.03 -75.80878
v 50.27925 -8.969999 -75.80878
v 49.83616 21.03 -74.14995
v 49.83616 -8.969999 -74.14995
vt -0.09918699 0.0502959
vt -0.09362683 0.05018224
vt -0.1013637 0.04888074
vt -0.09150978 0.04867929
vt -0.1026099 0.04538226
vt -0.09040764 0.04513281
vt -0.1010901 0.0382682
vt -0.09221687 0.0380868
vt -0.100737 0.03587724
vt -0.09266736 0.03571227
vt -0.1000082 0.03353185
vt -0.09349148 0.03339862
vt -0.0986081 0.0325379
vt -0.094931 0.03246273
vt -0.09918699 0.0502959
vt -0.09918699 0.0502959
vt -0.1013637 0.04888074
vt -0.1013637 0.04888074
vt -0.1013637 0.04888074
vt -0.1013637 0.04888074
vt -0.1026099 0.04538226
vt -0.1026099 0.04538226
vt -0.1026099 0.04538226
vt -0.1026099 0.04538226
vt -0.1010901 0.0382682
vt -0.1010901 0.0382682
vt -0.1010901 0.0382682
vt -0.1010901 0.0382682
vt -0.100737 0.03587724
vt -0.100737 0.03587724
vt -0.100737 0.03587724
vt -0.100737 0.03587724
vt -0.1000082 0.03353185
vt -0.1000082 0.03353185
vt -0.1000082 0.03353185
vt -0.1000082 0.03353185
vt -0.0986081 0.0325379
vt -0.0986081 0.0325379
vt -0.09362683 0.05018224
vt -0.09362683 0.05018224
vt -0.09150978 0.04867929
vt -0.09150978 0.04867929
vt -0.09150978 0.04867929
vt -0.09150978 0.04867929
vt -0.09040764 0.04513281
vt -0.09040764 0.04513281
vt -0.09040764 0.04513281
vt -0.09040764 0.04513281
vt -0.09221687 0.0380868
vt -0.09221687 0.0380868
vt -0.09221687 0.0380868
vt -0.09221687 0.0380868
vt -0.09266736 0.03571227
vt -0.09266736 0.03571227
vt -0.09266736 0.03571227
vt -0.09266736 0.03571227
vt -0.09349148 0.03339862
vt -0.09349148 0.03339862
vt -0.09349148 0.03339862
vt -0.09349148 0.03339862
vt -0.094931 0.03246273
vt -0.094931 0.03246273
vn 0 1 0
vn 0 1 0
vn 0 1 0
vn 0 1 0
vn 0 1 0
vn 0 1 0
vn 0 1 0
vn 0 1 0
vn 0 1 0
vn 0 1 0
vn 0 1 0
vn 0 1 0
vn 0 1 0
vn 0 1 0
vn -0.6540065 0 -0.7564889
vn -0.6540065 0 -0.7564889
vn -0.966129 0 -0.2580596
vn -0.966129 0 -0.2580596
vn -0.924484 0 0.3812209
vn -0.924484 0 0.3812209
vn -0.924484 0 0.3812209
vn -0.924484 0 0.3812209
vn -0.586739 0 0.8097761
vn -0.586739 0 0.8097761
vn -0.586739 0 0.8097761
vn -0.586739 0 0.8097761
vn -0.6372181 0 0.7706835
vn -0.6372181 0 0.7706835
vn -0.6372181 0 0.7706835
vn -0.6372181 0 0.7706835
vn -0.5108544 0 0.8596673
vn -0.5108544 0 0.8596673
vn -0.5108544 0 0.8596673
vn -0.5108544 0 0.8596673
vn 0.1156851 0 0.993286
vn 0.1156851 0 0.993286
vn 0.6540058 0 0.7564896
vn 0.6540058 0 0.7564896
vn -0.6540065 0 -0.7564889
vn -0.6540065 0 -0.7564889
vn -0.1156889 0 -0.9932854
vn -0.1156889 0 -0.9932854
vn 0.5108551 0 -0.8596668
vn 0.5108551 0 -0.8596668
vn 0.5108551 0 -0.8596668
vn 0.5108551 0 -0.8596668
vn 0.8860865 0 -0.46352
vn 0.8860865 0 -0.46352
vn 0.8860865 0 -0.46352
vn 0.8860865 0 -0.46352
vn 0.8547018 0 -0.5191193
vn 0.8547018 0 -0.5191193
vn 0.8547018 0 -0.5191193
vn 0.8547018 0 -0.5191193
vn 0.9244843 0 -0.3812202
vn 0.9244843 0 -0.3812202
vn 0.9244843 0 -0.3812202
vn 0.9244843 0 -0.3812202
vn 0.9661286 0 0.2580607
vn 0.9661286 0 0.2580607
vn 0.6540058 0 0.7564896
vn 0.6540058 0 0.7564896
g _0
f 3/3/3 2/2/2 1/1/1
f 2/2/2 3/3/3 4/4/4
f 5/5/5 4/4/4 3/3/3
f 4/4/4 5/5/5 6/6/6
f 7/7/7 6/6/6 5/5/5
f 6/6/6 7/7/7 8/8/8
f 9/9/9 8/8/8 7/7/7
f 8/8/8 9/9/9 10/10/10
f 11/11/11 10/10/10 9/9/9
f 10/10/10 11/11/11 12/12/12
f 13/13/13 12/12/12 11/11/11
f 12/12/12 13/13/13 14/14/14
g _1
f 15/15/15 16/16/16 17/17/17
f 18/18/18 17/17/17 16/16/16
f 19/19/19 20/20/20 21/21/21
f 22/22/22 21/21/21 20/20/20
f 23/23/23 24/24/24 25/25/25
f 26/26/26 25/25/25 24/24/24
f 27/27/27 28/28/28 29/29/29
f 30/30/30 29/29/29 28/28/28
f 31/31/31 32/32/32 33/33/33
f 34/34/34 33/33/33 32/32/32
f 35/35/35 36/36/36 37/37/37
f 38/38/38 37/37/37 36/36/36
f 41/41/41 40/40/40 39/39/39
f 40/40/40 41/41/41 42/42/42
f 45/45/45 44/44/44 43/43/43
f 44/44/44 45/45/45 46/46/46
f 49/49/49 48/48/48 47/47/47
f 48/48/48 49/49/49 50/50/50
f 53/53/53 52/52/52 51/51/51
f 52/52/52 53/53/53 54/54/54
f 57/57/57 56/56/56 55/55/55
f 56/56/56 57/57/57 58/58/58
f 61/61/61 60/60/60 59/59/59
f 60/60/60 61/61/61 62/62/62
f 39/39/39 16/16/16 15/15/15
f 16/16/16 39/39/39 40/40/40
f 37/37/37 38/38/38 61/61/61
f 62/62/62 61/61/61 38/38/38
