g 
v 80.06339 108.4166 -63.87298
v 80.06339 94.41657 -63.87298
v 79.85526 108.4166 -60.38695
v 79.85526 94.41657 -60.38695
v 75.45855 108.4166 -57.99889
v 75.45855 94.41657 -57.99889
v 70.76276 108.4166 -61.70502
v 70.76276 94.41657 -61.70502
v 70.91116 108.4166 -63.32055
v 70.91116 94.41657 -63.32055
v 73.30499 108.4166 -66.31729
v 73.30499 94.41657 -66.31729
v 76.02431 108.4166 -67.20422
v 76.02431 94.41657 -67.20422
v 78.60058 108.4166 -65.96202
v 78.60058 94.41657 -65.96202
v 80.06339 108.4166 -63.87298
v 80.06339 94.41657 -63.87298
vt 0.02692116 -0.1511738
vt 0.02692116 -0.1511738
vt 0.02900246 -0.1163135
vt 0.02900246 -0.1163135
vt 0.07296951 -0.09243289
vt 0.07296951 -0.09243289
vt 0.1199274 -0.1294942
vt 0.1199274 -0.1294942
vt 0.1184435 -0.1456494
vt 0.1184435 -0.1456494
vt 0.09450508 -0.1756169
vt 0.09450508 -0.1756169
vt 0.06731186 -0.1844862
vt 0.06731186 -0.1844862
vt 0.04154922 -0.1720642
vt 0.04154922 -0.1720642
vt 0.02692116 -0.1511738
vt 0.02692116 -0.1511738
vn 0.9982225 0 0.05959785
vn 0.9982225 0 0.05959785
vn 0.4772892 0 0.8787463
vn 0.4772892 0 0.8787463
vn -0.6195343 0 0.7849696
vn -0.6195343 0 0.7849696
vn -0.995808 0 -0.09146855
vn -0.995808 0 -0.09146855
vn -0.7813213 0 -0.6241289
vn -0.7813213 0 -0.6241289
vn -0.3100804 0 -0.9507103
vn -0.3100804 0 -0.9507103
vn 0.4343185 0 -0.9007594
vn 0.4343185 0 -0.9007594
vn 0.8191435 0 -0.5735885
vn 0.8191435 0 -0.5735885
vn 0.8191435 0 -0.5735885
vn 0.8191435 0 -0.5735885
g _0
f 3/3/3 2/2/2 1/1/1
f 2/2/2 3/3/3 4/4/4
f 5/5/5 4/4/4 3/3/3
f 4/4/4 5/5/5 6/6/6
f 7/7/7 6/6/6 5/5/5
f 6/6/6 7/7/7 8/8/8
f 9/9/9 8/8/8 7/7/7
f 8/8/8 9/9/9 10/10/10
f 11/11/11 10/10/10 9/9/9
f 10/10/10 11/11/11 12/12/12
f 13/13/13 12/12/12 11/11/11
f 12/12/12 13/13/13 14/14/14
f 15/15/15 14/14/14 13/13/13
f 14/14/14 15/15/15 16/16/16
f 17/17/17 16/16/16 15/15/15
f 16/16/16 17/17/17 18/18/18
