g 
v 13.91992 13.7 -67.22219
v 9.480075 13.7 -67.22219
v 15.63422 13.7 -68.38727
v 7.765782 13.7 -68.38727
v 16.57179 13.7 -71.2
v 6.828206 13.7 -71.2
v 16.66184 13.6 -72.5
v 6.738163 13.6 -72.5
v 15.70693 13.6 -75.36472
v 7.693069 13.6 -75.36472
v 13.96095 13.6 -76.55132
v 9.439045 13.6 -76.55132
v 13.91992 13.7 -67.22219
v 13.91992 -16.3 -67.22219
v 15.63422 13.7 -68.38727
v 15.63422 -16.3 -68.38727
v 15.63422 13.7 -68.38727
v 15.63422 -16.3 -68.38727
v 16.57179 13.7 -71.2
v 16.57179 -16.3 -71.2
v 16.57179 13.7 -71.2
v 16.57179 -16.3 -71.2
v 16.66184 13.6 -72.5
v 16.66184 -16.4 -72.5
v 16.66184 13.6 -72.5
v 16.66184 -16.4 -72.5
v 15.70693 13.6 -75.36472
v 15.70693 -16.4 -75.36472
v 15.70693 13.6 -75.36472
v 15.70693 -16.4 -75.36472
v 13.96095 13.6 -76.55132
v 13.96095 -16.4 -76.55132
v 9.480075 13.7 -67.22219
v 9.480075 -16.3 -67.22219
v 7.765782 13.7 -68.38727
v 7.765782 -16.3 -68.38727
v 7.765782 13.7 -68.38727
v 7.765782 -16.3 -68.38727
v 6.828206 13.7 -71.2
v 6.828206 -16.3 -71.2
v 6.828206 13.7 -71.2
v 6.828206 -16.3 -71.2
v 6.738163 13.6 -72.5
v 6.738163 -16.4 -72.5
v 6.738163 13.6 -72.5
v 6.738163 -16.4 -72.5
v 7.693069 13.6 -75.36472
v 7.693069 -16.4 -75.36472
v 7.693069 13.6 -75.36472
v 7.693069 -16.4 -75.36472
v 9.439045 13.6 -76.55132
v 9.439045 -16.4 -76.55132
vt -0.1326025 0.07269549
vt -0.1359011 0.07566721
vt -0.130549 0.07241367
vt -0.1363949 0.07768025
vt -0.1279698 0.07387588
vt -0.1352089 0.08039755
vt -0.1270327 0.07478147
vt -0.1344057 0.08142368
vt -0.1258247 0.077549
vt -0.1317787 0.08291292
vt -0.1263277 0.07959924
vt -0.1296873 0.08262589
vt -0.1326025 0.07269549
vt -0.1326025 0.07269549
vt -0.130549 0.07241367
vt -0.130549 0.07241367
vt -0.130549 0.07241367
vt -0.130549 0.07241367
vt -0.1279698 0.07387588
vt -0.1279698 0.07387588
vt -0.1279698 0.07387588
vt -0.1279698 0.07387588
vt -0.1270327 0.07478147
vt -0.1270327 0.07478147
vt -0.1270327 0.07478147
vt -0.1270327 0.07478147
vt -0.1258247 0.077549
vt -0.1258247 0.077549
vt -0.1258247 0.077549
vt -0.1258247 0.077549
vt -0.1263277 0.07959924
vt -0.1263277 0.07959924
vt -0.1359011 0.07566721
vt -0.1359011 0.07566721
vt -0.1363949 0.07768025
vt -0.1363949 0.07768025
vt -0.1363949 0.07768025
vt -0.1363949 0.07768025
vt -0.1352089 0.08039755
vt -0.1352089 0.08039755
vt -0.1352089 0.08039755
vt -0.1352089 0.08039755
vt -0.1344057 0.08142368
vt -0.1344057 0.08142368
vt -0.1344057 0.08142368
vt -0.1344057 0.08142368
vt -0.1317787 0.08291292
vt -0.1317787 0.08291292
vt -0.1317787 0.08291292
vt -0.1317787 0.08291292
vt -0.1296873 0.08262589
vt -0.1296873 0.08262589
vn 0 1 0
vn 0 1 0
vn 0 1 0
vn 0 1 0
vn 0 1 0
vn 0 1 0
vn 0 1 0
vn 0 1 0
vn 0 1 0
vn 0 1 0
vn 0 1 0
vn 0 1 0
vn 0 0 1
vn 0 0 1
vn 0.5620983 0 0.8270704
vn 0.5620983 0 0.8270704
vn 0.9486832 0 0.3162281
vn 0.9486832 0 0.3162281
vn 0.9486832 0 0.3162281
vn 0.9486832 0 0.3162281
vn 0.9976099 0 0.06909746
vn 0.9976099 0 0.06909746
vn 0.9976099 0 0.06909746
vn 0.9976099 0 0.06909746
vn 0.9486832 0 -0.3162282
vn 0.9486832 0 -0.3162282
vn 0.9486832 0 -0.3162282
vn 0.9486832 0 -0.3162282
vn 0.5620975 0 -0.827071
vn 0.5620975 0 -0.827071
vn 0 0 -1
vn 0 0 -1
vn 0 0 1
vn 0 0 1
vn -0.5620983 0 0.8270704
vn -0.5620983 0 0.8270704
vn -0.9486832 0 0.3162279
vn -0.9486832 0 0.3162279
vn -0.9486832 0 0.3162279
vn -0.9486832 0 0.3162279
vn -0.9976099 0 0.06909746
vn -0.9976099 0 0.06909746
vn -0.9976099 0 0.06909746
vn -0.9976099 0 0.06909746
vn -0.9486832 0 -0.316228
vn -0.9486832 0 -0.316228
vn -0.9486832 0 -0.316228
vn -0.9486832 0 -0.316228
vn -0.5620975 0 -0.827071
vn -0.5620975 0 -0.827071
vn 0 0 -1
vn 0 0 -1
g _0
f 3/3/3 2/2/2 1/1/1
f 2/2/2 3/3/3 4/4/4
f 5/5/5 4/4/4 3/3/3
f 4/4/4 5/5/5 6/6/6
f 7/7/7 6/6/6 5/5/5
f 6/6/6 7/7/7 8/8/8
f 9/9/9 8/8/8 7/7/7
f 8/8/8 9/9/9 10/10/10
f 11/11/11 10/10/10 9/9/9
f 10/10/10 11/11/11 12/12/12
g _1
f 13/13/13 14/14/14 15/15/15
f 16/16/16 15/15/15 14/14/14
f 17/17/17 18/18/18 19/19/19
f 20/20/20 19/19/19 18/18/18
f 21/21/21 22/22/22 23/23/23
f 24/24/24 23/23/23 22/22/22
f 25/25/25 26/26/26 27/27/27
f 28/28/28 27/27/27 26/26/26
f 29/29/29 30/30/30 31/31/31
f 32/32/32 31/31/31 30/30/30
f 35/35/35 34/34/34 33/33/33
f 34/34/34 35/35/35 36/36/36
f 39/39/39 38/38/38 37/37/37
f 38/38/38 39/39/39 40/40/40
f 43/43/43 42/42/42 41/41/41
f 42/42/42 43/43/43 44/44/44
f 47/47/47 46/46/46 45/45/45
f 46/46/46 47/47/47 48/48/48
f 51/51/51 50/50/50 49/49/49
f 50/50/50 51/51/51 52/52/52
f 33/33/33 14/14/14 13/13/13
f 14/14/14 33/33/33 34/34/34
f 31/31/31 32/32/32 51/51/51
f 52/52/52 51/51/51 32/32/32
