g 
v 37.78136 18.39 -82.63335
v 46.26083 18.39 -106.1607
v 40.68118 18.39 -71.32397
v 55.70874 18.39 -113.0198
v 53.79559 18.39 -60.98373
v 72.40441 18.39 -112.6163
v 60.84599 18.43083 -57.81224
v 81.49046 18.43083 -109.972
v 65.95093 18.50343 -54.56389
v 93.60973 18.50343 -105.8322
v 69.26957 18.5703 -51.15814
v 106.1968 18.5703 -98.75287
v 74.53882 18.6 -45.95569
v 115.5621 18.6 -90.74522
v 78.70896 18.6 -43.21956
v 125.6442 18.6 -80.23365
v 80.24804 18.6 -41.79765
v 133.3324 18.6 -65.13036
v 82.22067 18.6 -37.79011
v 137.3344 18.6 -51.07729
v 83.42713 18.6 -32.78753
v 139.1404 18.6 -36.86288
v 83.42306 18.6 -25.1795
v 138.9822 18.6 -24.72295
v 83.49319 18.6 -15.37923
v 138.7498 18.6 -14.77526
v 83.60217 18.6 -5.741526
v 138.3743 18.6 -4.927072
v 83.73021 18.6 4.972838
v 137.935 18.6 3.732134
v 85.22894 18.6 19.81321
v 137.6293 18.6 8.04246
v 90.21029 18.6 32.86017
v 139.8583 18.6 13.2547
v 95.6241 18.6 45.37448
v 141.6549 18.6 18.9996
v 104.889 18.6 55.82343
v 144.3333 18.6 23.71941
v 115.7324 18.6 66.12079
v 145.9591 18.6 28.24743
v 130.191 18.6 71.86628
v 148.5971 18.6 31.27307
v 141.8139 18.6 74.2073
v 155.2277 18.6 36.18964
v 152.916 18.6 76.07421
v 163.0246 18.6 40.17359
v 163.3109 18.6 77.59165
v 171.9587 18.6 43.56921
v 170.2651 18.6 78.56755
v 178.5349 18.6 46.03245
v 180.453 18.6 77.82413
v 187.1312 18.6 51.55041
v 185.7983 18.6 73.08873
v 189.5665 18.6 58.26349
v 37.78136 18.39 -82.63335
v 37.78136 -11.61 -82.63335
v 40.68118 18.39 -71.32397
v 40.68118 -11.61 -71.32397
v 40.68118 18.39 -71.32397
v 40.68118 -11.61 -71.32397
v 53.79559 18.39 -60.98373
v 53.79559 -11.61 -60.98373
v 53.79559 18.39 -60.98373
v 53.79559 -11.61 -60.98373
v 60.84599 18.43083 -57.81224
v 60.84599 -11.56917 -57.81224
v 60.84599 18.43083 -57.81224
v 60.84599 -11.56917 -57.81224
v 65.95093 18.50343 -54.56389
v 65.95093 -11.49657 -54.56389
v 65.95093 18.50343 -54.56389
v 65.95093 -11.49657 -54.56389
v 69.26957 18.5703 -51.15814
v 69.26957 -11.4297 -51.15814
v 69.26957 18.5703 -51.15814
v 69.26957 -11.4297 -51.15814
v 74.53882 18.6 -45.95569
v 74.53882 -11.4 -45.95569
v 74.53882 18.6 -45.95569
v 74.53882 -11.4 -45.95569
v 78.70896 18.6 -43.21956
v 78.70896 -11.4 -43.21956
v 78.70896 18.6 -43.21956
v 78.70896 -11.4 -43.21956
v 80.24804 18.6 -41.79765
v 80.24804 -11.4 -41.79765
v 80.24804 18.6 -41.79765
v 80.24804 -11.4 -41.79765
v 82.22067 18.6 -37.79011
v 82.22067 -11.4 -37.79011
v 82.22067 18.6 -37.79011
v 82.22067 -11.4 -37.79011
v 83.42713 18.6 -32.78753
v 83.42713 -11.4 -32.78753
v 83.42713 18.6 -32.78753
v 83.42713 -11.4 -32.78753
v 83.42306 18.6 -25.1795
v 83.42306 -11.4 -25.1795
v 83.42306 18.6 -25.1795
v 83.42306 -11.4 -25.1795
v 83.49319 18.6 -15.37923
v 83.49319 -11.4 -15.37923
v 83.49319 18.6 -15.37923
v 83.49319 -11.4 -15.37923
v 83.60217 18.6 -5.741526
v 83.60217 -11.4 -5.741526
v 83.60217 18.6 -5.741526
v 83.60217 -11.4 -5.741526
v 83.73021 18.6 4.972838
v 83.73021 -11.4 4.972838
v 83.73021 18.6 4.972838
v 83.73021 -11.4 4.972838
v 85.22894 18.6 19.81321
v 85.22894 -11.4 19.81321
v 85.22894 18.6 19.81321
v 85.22894 -11.4 19.81321
v 90.21029 18.6 32.86017
v 90.21029 -11.4 32.86017
v 90.21029 18.6 32.86017
v 90.21029 -11.4 32.86017
v 95.6241 18.6 45.37448
v 95.6241 -11.4 45.37448
v 95.6241 18.6 45.37448
v 95.6241 -11.4 45.37448
v 104.889 18.6 55.82343
v 104.889 -11.4 55.82343
v 104.889 18.6 55.82343
v 104.889 -11.4 55.82343
v 115.7324 18.6 66.12079
v 115.7324 -11.4 66.12079
v 115.7324 18.6 66.12079
v 115.7324 -11.4 66.12079
v 130.191 18.6 71.86628
v 130.191 -11.4 71.86628
v 130.191 18.6 71.86628
v 130.191 -11.4 71.86628
v 141.8139 18.6 74.2073
v 141.8139 -11.4 74.2073
v 141.8139 18.6 74.2073
v 141.8139 -11.4 74.2073
v 152.916 18.6 76.07421
v 152.916 -11.4 76.07421
v 152.916 18.6 76.07421
v 152.916 -11.4 76.07421
v 163.3109 18.6 77.59165
v 163.3109 -11.4 77.59165
v 163.3109 18.6 77.59165
v 163.3109 -11.4 77.59165
v 170.2651 18.6 78.56755
v 170.2651 -11.4 78.56755
v 170.2651 18.6 78.56755
v 170.2651 -11.4 78.56755
v 180.453 18.6 77.82413
v 180.453 -11.4 77.82413
v 180.453 18.6 77.82413
v 180.453 -11.4 77.82413
v 185.7983 18.6 73.08873
v 185.7983 -11.4 73.08873
v 46.26083 18.39 -106.1607
v 46.26083 -11.61 -106.1607
v 55.70874 18.39 -113.0198
v 55.70874 -11.61 -113.0198
v 55.70874 18.39 -113.0198
v 55.70874 -11.61 -113.0198
v 72.40441 18.39 -112.6163
v 72.40441 -11.61 -112.6163
v 72.40441 18.39 -112.6163
v 72.40441 -11.61 -112.6163
v 81.49046 18.43083 -109.972
v 81.49046 -11.56917 -109.972
v 81.49046 18.43083 -109.972
v 81.49046 -11.56917 -109.972
v 93.60973 18.50343 -105.8322
v 93.60973 -11.49657 -105.8322
v 93.60973 18.50343 -105.8322
v 93.60973 -11.49657 -105.8322
v 106.1968 18.5703 -98.75287
v 106.1968 -11.4297 -98.75287
v 106.1968 18.5703 -98.75287
v 106.1968 -11.4297 -98.75287
v 115.5621 18.6 -90.74522
v 115.5621 -11.4 -90.74522
v 115.5621 18.6 -90.74522
v 115.5621 -11.4 -90.74522
v 125.6442 18.6 -80.23365
v 125.6442 -11.4 -80.23365
v 125.6442 18.6 -80.23365
v 125.6442 -11.4 -80.23365
v 133.3324 18.6 -65.13036
v 133.3324 -11.4 -65.13036
v 133.3324 18.6 -65.13036
v 133.3324 -11.4 -65.13036
v 137.3344 18.6 -51.07729
v 137.3344 -11.4 -51.07729
v 137.3344 18.6 -51.07729
v 137.3344 -11.4 -51.07729
v 139.1404 18.6 -36.86288
v 139.1404 -11.4 -36.86288
v 139.1404 18.6 -36.86288
v 139.1404 -11.4 -36.86288
v 138.9822 18.6 -24.72295
v 138.9822 -11.4 -24.72295
v 138.9822 18.6 -24.72295
v 138.9822 -11.4 -24.72295
v 138.7498 18.6 -14.77526
v 138.7498 -11.4 -14.77526
v 138.7498 18.6 -14.77526
v 138.7498 -11.4 -14.77526
v 138.3743 18.6 -4.927072
v 138.3743 -11.4 -4.927072
v 138.3743 18.6 -4.927072
v 138.3743 -11.4 -4.927072
v 137.935 18.6 3.732134
v 137.935 -11.4 3.732134
v 137.935 18.6 3.732134
v 137.935 -11.4 3.732134
v 137.6293 18.6 8.04246
v 137.6293 -11.4 8.04246
v 137.6293 18.6 8.04246
v 137.6293 -11.4 8.04246
v 139.8583 18.6 13.2547
v 139.8583 -11.4 13.2547
v 139.8583 18.6 13.2547
v 139.8583 -11.4 13.2547
v 141.6549 18.6 18.9996
v 141.6549 -11.4 18.9996
v 141.6549 18.6 18.9996
v 141.6549 -11.4 18.9996
v 144.3333 18.6 23.71941
v 144.3333 -11.4 23.71941
v 144.3333 18.6 23.71941
v 144.3333 -11.4 23.71941
v 145.9591 18.6 28.24743
v 145.9591 -11.4 28.24743
v 145.9591 18.6 28.24743
v 145.9591 -11.4 28.24743
v 148.5971 18.6 31.27307
v 148.5971 -11.4 31.27307
v 148.5971 18.6 31.27307
v 148.5971 -11.4 31.27307
v 155.2277 18.6 36.18964
v 155.2277 -11.4 36.18964
v 155.2277 18.6 36.18964
v 155.2277 -11.4 36.18964
v 163.0246 18.6 40.17359
v 163.0246 -11.4 40.17359
v 163.0246 18.6 40.17359
v 163.0246 -11.4 40.17359
v 171.9587 18.6 43.56921
v 171.9587 -11.4 43.56921
v 171.9587 18.6 43.56921
v 171.9587 -11.4 43.56921
v 178.5349 18.6 46.03245
v 178.5349 -11.4 46.03245
v 178.5349 18.6 46.03245
v 178.5349 -11.4 46.03245
v 187.1312 18.6 51.55041
v 187.1312 -11.4 51.55041
v 187.1312 18.6 51.55041
v 187.1312 -11.4 51.55041
v 189.5665 18.6 58.26349
v 189.5665 -11.4 58.26349
vt -0.05956642 -0.1420057
vt -0.0365199 -0.1322952
vt -0.06591684 -0.1518029
vt -0.02507312 -0.1345934
vt -0.06463178 -0.1684539
vt -0.01405446 -0.1471432
vt -0.06218539 -0.1757875
vt -0.009840735 -0.1556163
vt -0.06111406 -0.1817427
vt -0.004670974 -0.1673333
vt -0.06136911 -0.1864911
vt -0.001345601 -0.1813865
vt -0.06162325 -0.1938915
vt -0.0008863148 -0.1936999
vt -0.06080883 -0.1988122
vt -0.001782341 -0.2082375
vt -0.06081125 -0.2009076
vt -0.007677147 -0.2241268
vt -0.06242105 -0.2050741
vt -0.01529801 -0.2365938
vt -0.06528176 -0.2093517
vt -0.02452579 -0.2475555
vt -0.07087869 -0.214505
vt -0.03355947 -0.255667
vt -0.07803728 -0.2211987
vt -0.04103149 -0.2622381
vt -0.08504999 -0.2278107
vt -0.04852737 -0.2686365
vt -0.09284147 -0.2351664
vt -0.05519221 -0.2741822
vt -0.1027378 -0.2463264
vt -0.05856874 -0.2768787
vt -0.1089551 -0.2588317
vt -0.06089059 -0.2820503
vt -0.1144877 -0.271294
vt -0.06389719 -0.2872649
vt -0.1158915 -0.2851882
vt -0.06555239 -0.2924331
vt -0.1161141 -0.3001402
vt -0.06777992 -0.2966974
vt -0.1105395 -0.3146656
vt -0.06821679 -0.3006878
vt -0.1043835 -0.3247986
vt -0.06733809 -0.3088954
vt -0.09823187 -0.3342271
vt -0.06498318 -0.3173285
vt -0.09230252 -0.3428989
vt -0.0614249 -0.3261991
vt -0.08830692 -0.3486738
vt -0.05877916 -0.332704
vt -0.08085553 -0.355661
vt -0.0570104 -0.3427646
vt -0.07375085 -0.356382
vt -0.06029597 -0.3491051
vt -0.05956642 -0.1420057
vt -0.05956642 -0.1420057
vt -0.06591684 -0.1518029
vt -0.06591684 -0.1518029
vt -0.06591684 -0.1518029
vt -0.06591684 -0.1518029
vt -0.06463178 -0.1684539
vt -0.06463178 -0.1684539
vt -0.06463178 -0.1684539
vt -0.06463178 -0.1684539
vt -0.06218539 -0.1757875
vt -0.06218539 -0.1757875
vt -0.06218539 -0.1757875
vt -0.06218539 -0.1757875
vt -0.06111406 -0.1817427
vt -0.06111406 -0.1817427
vt -0.06111406 -0.1817427
vt -0.06111406 -0.1817427
vt -0.06136911 -0.1864911
vt -0.06136911 -0.1864911
vt -0.06136911 -0.1864911
vt -0.06136911 -0.1864911
vt -0.06162325 -0.1938915
vt -0.06162325 -0.1938915
vt -0.06162325 -0.1938915
vt -0.06162325 -0.1938915
vt -0.06080883 -0.1988122
vt -0.06080883 -0.1988122
vt -0.06080883 -0.1988122
vt -0.06080883 -0.1988122
vt -0.06081125 -0.2009076
vt -0.06081125 -0.2009076
vt -0.06081125 -0.2009076
vt -0.06081125 -0.2009076
vt -0.06242105 -0.2050741
vt -0.06242105 -0.2050741
vt -0.06242105 -0.2050741
vt -0.06242105 -0.2050741
vt -0.06528176 -0.2093517
vt -0.06528176 -0.2093517
vt -0.06528176 -0.2093517
vt -0.06528176 -0.2093517
vt -0.07087869 -0.214505
vt -0.07087869 -0.214505
vt -0.07087869 -0.214505
vt -0.07087869 -0.214505
vt -0.07803728 -0.2211987
vt -0.07803728 -0.2211987
vt -0.07803728 -0.2211987
vt -0.07803728 -0.2211987
vt -0.08504999 -0.2278107
vt -0.08504999 -0.2278107
vt -0.08504999 -0.2278107
vt -0.08504999 -0.2278107
vt -0.09284147 -0.2351664
vt -0.09284147 -0.2351664
vt -0.09284147 -0.2351664
vt -0.09284147 -0.2351664
vt -0.1027378 -0.2463264
vt -0.1027378 -0.2463264
vt -0.1027378 -0.2463264
vt -0.1027378 -0.2463264
vt -0.1089551 -0.2588317
vt -0.1089551 -0.2588317
vt -0.1089551 -0.2588317
vt -0.1089551 -0.2588317
vt -0.1144877 -0.271294
vt -0.1144877 -0.271294
vt -0.1144877 -0.271294
vt -0.1144877 -0.271294
vt -0.1158915 -0.2851882
vt -0.1158915 -0.2851882
vt -0.1158915 -0.2851882
vt -0.1158915 -0.2851882
vt -0.1161141 -0.3001402
vt -0.1161141 -0.3001402
vt -0.1161141 -0.3001402
vt -0.1161141 -0.3001402
vt -0.1105395 -0.3146656
vt -0.1105395 -0.3146656
vt -0.1105395 -0.3146656
vt -0.1105395 -0.3146656
vt -0.1043835 -0.3247986
vt -0.1043835 -0.3247986
vt -0.1043835 -0.3247986
vt -0.1043835 -0.3247986
vt -0.09823187 -0.3342271
vt -0.09823187 -0.3342271
vt -0.09823187 -0.3342271
vt -0.09823187 -0.3342271
vt -0.09230252 -0.3428989
vt -0.09230252 -0.3428989
vt -0.09230252 -0.3428989
vt -0.09230252 -0.3428989
vt -0.08830692 -0.3486738
vt -0.08830692 -0.3486738
vt -0.08830692 -0.3486738
vt -0.08830692 -0.3486738
vt -0.08085553 -0.355661
vt -0.08085553 -0.355661
vt -0.08085553 -0.355661
vt -0.08085553 -0.355661
vt -0.07375085 -0.356382
vt -0.07375085 -0.356382
vt -0.0365199 -0.1322952
vt -0.0365199 -0.1322952
vt -0.02507312 -0.1345934
vt -0.02507312 -0.1345934
vt -0.02507312 -0.1345934
vt -0.02507312 -0.1345934
vt -0.01405446 -0.1471432
vt -0.01405446 -0.1471432
vt -0.01405446 -0.1471432
vt -0.01405446 -0.1471432
vt -0.009840735 -0.1556163
vt -0.009840735 -0.1556163
vt -0.009840735 -0.1556163
vt -0.009840735 -0.1556163
vt -0.004670974 -0.1673333
vt -0.004670974 -0.1673333
vt -0.004670974 -0.1673333
vt -0.004670974 -0.1673333
vt -0.001345601 -0.1813865
vt -0.001345601 -0.1813865
vt -0.001345601 -0.1813865
vt -0.001345601 -0.1813865
vt -0.0008863148 -0.1936999
vt -0.0008863148 -0.1936999
vt -0.0008863148 -0.1936999
vt -0.0008863148 -0.1936999
vt -0.001782341 -0.2082375
vt -0.001782341 -0.2082375
vt -0.001782341 -0.2082375
vt -0.001782341 -0.2082375
vt -0.007677147 -0.2241268
vt -0.007677147 -0.2241268
vt -0.007677147 -0.2241268
vt -0.007677147 -0.2241268
vt -0.01529801 -0.2365938
vt -0.01529801 -0.2365938
vt -0.01529801 -0.2365938
vt -0.01529801 -0.2365938
vt -0.02452579 -0.2475555
vt -0.02452579 -0.2475555
vt -0.02452579 -0.2475555
vt -0.02452579 -0.2475555
vt -0.03355947 -0.255667
vt -0.03355947 -0.255667
vt -0.03355947 -0.255667
vt -0.03355947 -0.255667
vt -0.04103149 -0.2622381
vt -0.04103149 -0.2622381
vt -0.04103149 -0.2622381
vt -0.04103149 -0.2622381
vt -0.04852737 -0.2686365
vt -0.04852737 -0.2686365
vt -0.04852737 -0.2686365
vt -0.04852737 -0.2686365
vt -0.05519221 -0.2741822
vt -0.05519221 -0.2741822
vt -0.05519221 -0.2741822
vt -0.05519221 -0.2741822
vt -0.05856874 -0.2768787
vt -0.05856874 -0.2768787
vt -0.05856874 -0.2768787
vt -0.05856874 -0.2768787
vt -0.06089059 -0.2820503
vt -0.06089059 -0.2820503
vt -0.06089059 -0.2820503
vt -0.06089059 -0.2820503
vt -0.06389719 -0.2872649
vt -0.06389719 -0.2872649
vt -0.06389719 -0.2872649
vt -0.06389719 -0.2872649
vt -0.06555239 -0.2924331
vt -0.06555239 -0.2924331
vt -0.06555239 -0.2924331
vt -0.06555239 -0.2924331
vt -0.06777992 -0.2966974
vt -0.06777992 -0.2966974
vt -0.06777992 -0.2966974
vt -0.06777992 -0.2966974
vt -0.06821679 -0.3006878
vt -0.06821679 -0.3006878
vt -0.06821679 -0.3006878
vt -0.06821679 -0.3006878
vt -0.06733809 -0.3088954
vt -0.06733809 -0.3088954
vt -0.06733809 -0.3088954
vt -0.06733809 -0.3088954
vt -0.06498318 -0.3173285
vt -0.06498318 -0.3173285
vt -0.06498318 -0.3173285
vt -0.06498318 -0.3173285
vt -0.0614249 -0.3261991
vt -0.0614249 -0.3261991
vt -0.0614249 -0.3261991
vt -0.0614249 -0.3261991
vt -0.05877916 -0.332704
vt -0.05877916 -0.332704
vt -0.05877916 -0.332704
vt -0.05877916 -0.332704
vt -0.0570104 -0.3427646
vt -0.0570104 -0.3427646
vt -0.0570104 -0.3427646
vt -0.0570104 -0.3427646
vt -0.06029597 -0.3491051
vt -0.06029597 -0.3491051
vn 0 1 0
vn 0 1 0
vn 0 1 0
vn 0 1 0
vn 0 1 0
vn 0 1 0
vn 0 1 0
vn 0 1 0
vn 0 1 0
vn 0 1 0
vn 0 1 0
vn 0 1 0
vn 0 1 0
vn 0 1 0
vn 0 1 0
vn 0 1 0
vn 0 1 0
vn 0 1 0
vn 0 1 0
vn 0 1 0
vn 0 1 0
vn 0 1 0
vn 0 1 0
vn 0 1 0
vn 0 1 0
vn 0 1 0
vn 0 1 0
vn 0 1 0
vn 0 1 0
vn 0 1 0
vn 0 1 0
vn 0 1 0
vn 0 1 0
vn 0 1 0
vn 0 1 0
vn 0 1 0
vn 0 1 0
vn 0 1 0
vn 0 1 0
vn 0 1 0
vn 0 1 0
vn 0 1 0
vn 0 1 0
vn 0 1 0
vn 0 1 0
vn 0 1 0
vn 0 1 0
vn 0 1 0
vn 0 1 0
vn 0 1 0
vn 0 1 0
vn 0 1 0
vn 0 1 0
vn 0 1 0
vn -0.9407646 0 -0.3390605
vn -0.9407646 0 -0.3390605
vn -0.9686642 0 0.2483742
vn -0.9686642 0 0.2483742
vn -0.619156 0 0.7852679
vn -0.619156 0 0.7852679
vn -0.619156 0 0.7852679
vn -0.619156 0 0.7852679
vn -0.4102362 0 0.9119793
vn -0.4102362 0 0.9119793
vn -0.4102362 0 0.9119793
vn -0.4102362 0 0.9119793
vn -0.5368469 0 0.8436797
vn -0.5368469 0 0.8436797
vn -0.5368469 0 0.8436797
vn -0.5368469 0 0.8436797
vn -0.7162063 0 0.6978887
vn -0.7162063 0 0.6978887
vn -0.7162063 0 0.6978887
vn -0.7162063 0 0.6978887
vn -0.7025821 0 0.7116027
vn -0.7025821 0 0.7116027
vn -0.7025821 0 0.7116027
vn -0.7025821 0 0.7116027
vn -0.5485826 0 0.8360963
vn -0.5485826 0 0.8360963
vn -0.5485826 0 0.8360963
vn -0.5485826 0 0.8360963
vn -0.678594 0 0.7345136
vn -0.678594 0 0.7345136
vn -0.678594 0 0.7345136
vn -0.678594 0 0.7345136
vn -0.8971984 0 0.4416278
vn -0.8971984 0 0.4416278
vn -0.8971984 0 0.4416278
vn -0.8971984 0 0.4416278
vn -0.9721292 0 0.2344457
vn -0.9721292 0 0.2344457
vn -0.9721292 0 0.2344457
vn -0.9721292 0 0.2344457
vn -0.9999999 0 -0.0005354997
vn -0.9999999 0 -0.0005354997
vn -0.9999999 0 -0.0005354997
vn -0.9999999 0 -0.0005354997
vn -0.9999744 0 0.007155678
vn -0.9999744 0 0.007155678
vn -0.9999744 0 0.007155678
vn -0.9999744 0 0.007155678
vn -0.999936 0 0.01130757
vn -0.999936 0 0.01130757
vn -0.999936 0 0.01130757
vn -0.999936 0 0.01130757
vn -0.9999286 0 0.01194913
vn -0.9999286 0 0.01194913
vn -0.9999286 0 0.01194913
vn -0.9999286 0 0.01194913
vn -0.9949391 0 0.1004792
vn -0.9949391 0 0.1004792
vn -0.9949391 0 0.1004792
vn -0.9949391 0 0.1004792
vn -0.9342237 0 0.3566877
vn -0.9342237 0 0.3566877
vn -0.9342237 0 0.3566877
vn -0.9342237 0 0.3566877
vn -0.9177978 0 0.3970482
vn -0.9177978 0 0.3970482
vn -0.9177978 0 0.3970482
vn -0.9177978 0 0.3970482
vn -0.7482277 0 0.6634421
vn -0.7482277 0 0.6634421
vn -0.7482277 0 0.6634421
vn -0.7482277 0 0.6634421
vn -0.6886154 0 0.7251267
vn -0.6886154 0 0.7251267
vn -0.6886154 0 0.7251267
vn -0.6886154 0 0.7251267
vn -0.3692856 0 0.9293159
vn -0.3692856 0 0.9293159
vn -0.3692856 0 0.9293159
vn -0.3692856 0 0.9293159
vn -0.1974487 0 0.9803132
vn -0.1974487 0 0.9803132
vn -0.1974487 0 0.9803132
vn -0.1974487 0 0.9803132
vn -0.1658316 0 0.9861541
vn -0.1658316 0 0.9861541
vn -0.1658316 0 0.9861541
vn -0.1658316 0 0.9861541
vn -0.1444476 0 0.9895124
vn -0.1444476 0 0.9895124
vn -0.1444476 0 0.9895124
vn -0.1444476 0 0.9895124
vn -0.1389704 0 0.9902965
vn -0.1389704 0 0.9902965
vn -0.1389704 0 0.9902965
vn -0.1389704 0 0.9902965
vn 0.07277743 0 0.9973482
vn 0.07277743 0 0.9973482
vn 0.07277743 0 0.9973482
vn 0.07277743 0 0.9973482
vn 0.6631119 0 0.7485203
vn 0.6631119 0 0.7485203
vn 0.9691823 0 0.2463448
vn 0.9691823 0 0.2463448
vn -0.9407646 0 -0.3390605
vn -0.9407646 0 -0.3390605
vn -0.5874956 0 -0.8092275
vn -0.5874956 0 -0.8092275
vn 0.02416429 0 -0.999708
vn 0.02416429 0 -0.999708
vn 0.02416429 0 -0.999708
vn 0.02416429 0 -0.999708
vn 0.2794288 0 -0.9601664
vn 0.2794288 0 -0.9601664
vn 0.2794288 0 -0.9601664
vn 0.2794288 0 -0.9601664
vn 0.3232518 0 -0.946313
vn 0.3232518 0 -0.946313
vn 0.3232518 0 -0.946313
vn 0.3232518 0 -0.946313
vn 0.4902157 0 -0.8716012
vn 0.4902157 0 -0.8716012
vn 0.4902157 0 -0.8716012
vn 0.4902157 0 -0.8716012
vn 0.6498662 0 -0.7600486
vn 0.6498662 0 -0.7600486
vn 0.6498662 0 -0.7600486
vn 0.6498662 0 -0.7600486
vn 0.7216953 0 -0.6922109
vn 0.7216953 0 -0.6922109
vn 0.7216953 0 -0.6922109
vn 0.7216953 0 -0.6922109
vn 0.8911818 0 -0.4536462
vn 0.8911818 0 -0.4536462
vn 0.8911818 0 -0.4536462
vn 0.8911818 0 -0.4536462
vn 0.9617618 0 -0.2738872
vn 0.9617618 0 -0.2738872
vn 0.9617618 0 -0.2738872
vn 0.9617618 0 -0.2738872
vn 0.9920245 0 -0.1260451
vn 0.9920245 0 -0.1260451
vn 0.9920245 0 -0.1260451
vn 0.9920245 0 -0.1260451
vn 0.9999151 0 0.01303053
vn 0.9999151 0 0.01303053
vn 0.9999151 0 0.01303053
vn 0.9999151 0 0.01303053
vn 0.9997272 0 0.02335651
vn 0.9997272 0 0.02335651
vn 0.9997272 0 0.02335651
vn 0.9997272 0 0.02335651
vn 0.9992737 0 0.03810615
vn 0.9992737 0 0.03810615
vn 0.9992737 0 0.03810615
vn 0.9992737 0 0.03810615
vn 0.9987155 0 0.05066879
vn 0.9987155 0 0.05066879
vn 0.9987155 0 0.05066879
vn 0.9987155 0 0.05066879
vn 0.997495 0 0.07073673
vn 0.997495 0 0.07073673
vn 0.997495 0 0.07073673
vn 0.997495 0 0.07073673
vn 0.9194512 0 -0.393204
vn 0.9194512 0 -0.393204
vn 0.9194512 0 -0.393204
vn 0.9194512 0 -0.393204
vn 0.9544197 0 -0.298468
vn 0.9544197 0 -0.298468
vn 0.9544197 0 -0.298468
vn 0.9544197 0 -0.298468
vn 0.8697194 0 -0.4935466
vn 0.8697194 0 -0.4935466
vn 0.8697194 0 -0.4935466
vn 0.8697194 0 -0.4935466
vn 0.9411674 0 -0.3379408
vn 0.9411674 0 -0.3379408
vn 0.9411674 0 -0.3379408
vn 0.9411674 0 -0.3379408
vn 0.7537428 0 -0.6571695
vn 0.7537428 0 -0.6571695
vn 0.7537428 0 -0.6571695
vn 0.7537428 0 -0.6571695
vn 0.59562 0 -0.8032663
vn 0.59562 0 -0.8032663
vn 0.59562 0 -0.8032663
vn 0.59562 0 -0.8032663
vn 0.4550095 0 -0.8904866
vn 0.4550095 0 -0.8904866
vn 0.4550095 0 -0.8904866
vn 0.4550095 0 -0.8904866
vn 0.3552763 0 -0.9347613
vn 0.3552763 0 -0.9347613
vn 0.3552763 0 -0.9347613
vn 0.3552763 0 -0.9347613
vn 0.3507717 0 -0.936461
vn 0.3507717 0 -0.936461
vn 0.3507717 0 -0.936461
vn 0.3507717 0 -0.936461
vn 0.5401868 0 -0.8415451
vn 0.5401868 0 -0.8415451
vn 0.5401868 0 -0.8415451
vn 0.5401868 0 -0.8415451
vn 0.9400527 0 -0.3410293
vn 0.9400527 0 -0.3410293
vn 0.9691823 0 0.2463448
vn 0.9691823 0 0.2463448
g _0
f 3/3/3 2/2/2 1/1/1
f 2/2/2 3/3/3 4/4/4
f 5/5/5 4/4/4 3/3/3
f 4/4/4 5/5/5 6/6/6
f 7/7/7 6/6/6 5/5/5
f 6/6/6 7/7/7 8/8/8
f 9/9/9 8/8/8 7/7/7
f 8/8/8 9/9/9 10/10/10
f 11/11/11 10/10/10 9/9/9
f 10/10/10 11/11/11 12/12/12
f 13/13/13 12/12/12 11/11/11
f 12/12/12 13/13/13 14/14/14
f 15/15/15 14/14/14 13/13/13
f 14/14/14 15/15/15 16/16/16
f 17/17/17 16/16/16 15/15/15
f 16/16/16 17/17/17 18/18/18
f 19/19/19 18/18/18 17/17/17
f 18/18/18 19/19/19 20/20/20
f 21/21/21 20/20/20 19/19/19
f 20/20/20 21/21/21 22/22/22
f 23/23/23 22/22/22 21/21/21
f 22/22/22 23/23/23 24/24/24
f 25/25/25 24/24/24 23/23/23
f 24/24/24 25/25/25 26/26/26
f 27/27/27 26/26/26 25/25/25
f 26/26/26 27/27/27 28/28/28
f 29/29/29 28/28/28 27/27/27
f 28/28/28 29/29/29 30/30/30
f 31/31/31 30/30/30 29/29/29
f 30/30/30 31/31/31 32/32/32
f 33/33/33 32/32/32 31/31/31
f 32/32/32 33/33/33 34/34/34
f 35/35/35 34/34/34 33/33/33
f 34/34/34 35/35/35 36/36/36
f 37/37/37 36/36/36 35/35/35
f 36/36/36 37/37/37 38/38/38
f 39/39/39 38/38/38 37/37/37
f 38/38/38 39/39/39 40/40/40
f 41/41/41 40/40/40 39/39/39
f 40/40/40 41/41/41 42/42/42
f 43/43/43 42/42/42 41/41/41
f 42/42/42 43/43/43 44/44/44
f 45/45/45 44/44/44 43/43/43
f 44/44/44 45/45/45 46/46/46
f 47/47/47 46/46/46 45/45/45
f 46/46/46 47/47/47 48/48/48
f 49/49/49 48/48/48 47/47/47
f 48/48/48 49/49/49 50/50/50
f 51/51/51 50/50/50 49/49/49
f 50/50/50 51/51/51 52/52/52
f 53/53/53 52/52/52 51/51/51
f 52/52/52 53/53/53 54/54/54
g _1
f 55/55/55 56/56/56 57/57/57
f 58/58/58 57/57/57 56/56/56
f 59/59/59 60/60/60 61/61/61
f 62/62/62 61/61/61 60/60/60
f 63/63/63 64/64/64 65/65/65
f 66/66/66 65/65/65 64/64/64
f 67/67/67 68/68/68 69/69/69
f 70/70/70 69/69/69 68/68/68
f 71/71/71 72/72/72 73/73/73
f 74/74/74 73/73/73 72/72/72
f 75/75/75 76/76/76 77/77/77
f 78/78/78 77/77/77 76/76/76
f 79/79/79 80/80/80 81/81/81
f 82/82/82 81/81/81 80/80/80
f 83/83/83 84/84/84 85/85/85
f 86/86/86 85/85/85 84/84/84
f 87/87/87 88/88/88 89/89/89
f 90/90/90 89/89/89 88/88/88
f 91/91/91 92/92/92 93/93/93
f 94/94/94 93/93/93 92/92/92
f 95/95/95 96/96/96 97/97/97
f 98/98/98 97/97/97 96/96/96
f 99/99/99 100/100/100 101/101/101
f 102/102/102 101/101/101 100/100/100
f 103/103/103 104/104/104 105/105/105
f 106/106/106 105/105/105 104/104/104
f 107/107/107 108/108/108 109/109/109
f 110/110/110 109/109/109 108/108/108
f 111/111/111 112/112/112 113/113/113
f 114/114/114 113/113/113 112/112/112
f 115/115/115 116/116/116 117/117/117
f 118/118/118 117/117/117 116/116/116
f 119/119/119 120/120/120 121/121/121
f 122/122/122 121/121/121 120/120/120
f 123/123/123 124/124/124 125/125/125
f 126/126/126 125/125/125 124/124/124
f 127/127/127 128/128/128 129/129/129
f 130/130/130 129/129/129 128/128/128
f 131/131/131 132/132/132 133/133/133
f 134/134/134 133/133/133 132/132/132
f 135/135/135 136/136/136 137/137/137
f 138/138/138 137/137/137 136/136/136
f 139/139/139 140/140/140 141/141/141
f 142/142/142 141/141/141 140/140/140
f 143/143/143 144/144/144 145/145/145
f 146/146/146 145/145/145 144/144/144
f 147/147/147 148/148/148 149/149/149
f 150/150/150 149/149/149 148/148/148
f 151/151/151 152/152/152 153/153/153
f 154/154/154 153/153/153 152/152/152
f 155/155/155 156/156/156 157/157/157
f 158/158/158 157/157/157 156/156/156
f 161/161/161 160/160/160 159/159/159
f 160/160/160 161/161/161 162/162/162
f 165/165/165 164/164/164 163/163/163
f 164/164/164 165/165/165 166/166/166
f 169/169/169 168/168/168 167/167/167
f 168/168/168 169/169/169 170/170/170
f 173/173/173 172/172/172 171/171/171
f 172/172/172 173/173/173 174/174/174
f 177/177/177 176/176/176 175/175/175
f 176/176/176 177/177/177 178/178/178
f 181/181/181 180/180/180 179/179/179
f 180/180/180 181/181/181 182/182/182
f 185/185/185 184/184/184 183/183/183
f 184/184/184 185/185/185 186/186/186
f 189/189/189 188/188/188 187/187/187
f 188/188/188 189/189/189 190/190/190
f 193/193/193 192/192/192 191/191/191
f 192/192/192 193/193/193 194/194/194
f 197/197/197 196/196/196 195/195/195
f 196/196/196 197/197/197 198/198/198
f 201/201/201 200/200/200 199/199/199
f 200/200/200 201/201/201 202/202/202
f 205/205/205 204/204/204 203/203/203
f 204/204/204 205/205/205 206/206/206
f 209/209/209 208/208/208 207/207/207
f 208/208/208 209/209/209 210/210/210
f 213/213/213 212/212/212 211/211/211
f 212/212/212 213/213/213 214/214/214
f 217/217/217 216/216/216 215/215/215
f 216/216/216 217/217/217 218/218/218
f 221/221/221 220/220/220 219/219/219
f 220/220/220 221/221/221 222/222/222
f 225/225/225 224/224/224 223/223/223
f 224/224/224 225/225/225 226/226/226
f 229/229/229 228/228/228 227/227/227
f 228/228/228 229/229/229 230/230/230
f 233/233/233 232/232/232 231/231/231
f 232/232/232 233/233/233 234/234/234
f 237/237/237 236/236/236 235/235/235
f 236/236/236 237/237/237 238/238/238
f 241/241/241 240/240/240 239/239/239
f 240/240/240 241/241/241 242/242/242
f 245/245/245 244/244/244 243/243/243
f 244/244/244 245/245/245 246/246/246
f 249/249/249 248/248/248 247/247/247
f 248/248/248 249/249/249 250/250/250
f 253/253/253 252/252/252 251/251/251
f 252/252/252 253/253/253 254/254/254
f 257/257/257 256/256/256 255/255/255
f 256/256/256 257/257/257 258/258/258
f 261/261/261 260/260/260 259/259/259
f 260/260/260 261/261/261 262/262/262
f 159/159/159 56/56/56 55/55/55
f 56/56/56 159/159/159 160/160/160
f 157/157/157 158/158/158 261/261/261
f 262/262/262 261/261/261 158/158/158
