g 
v 52.60857 108.4166 -47.19369
v 52.60857 94.41657 -47.19369
v 50.34132 108.4166 -40.70743
v 50.34132 94.41657 -40.70743
v 53.02116 108.4166 -39.86453
v 53.02116 94.41657 -39.86453
v 52.94062 108.4166 -37.52031
v 52.94062 94.41657 -37.52031
v 51.07221 108.4166 -36.58258
v 51.07221 94.41657 -36.58258
v 53.59317 108.4166 -32.09938
v 53.59317 94.41657 -32.09938
v 51.59863 108.4166 -30.33226
v 51.59863 94.41657 -30.33226
v 47.45699 108.4166 -30.12025
v 47.45699 94.41657 -30.12025
v 45.85233 108.4166 -30.14325
v 45.85233 94.41657 -30.14325
v 43.40067 108.4166 -28.59909
v 43.40067 94.41657 -28.59909
v 41.98259 108.4166 -29.47242
v 41.98259 94.41657 -29.47242
v 41.33887 108.4166 -32.58067
v 41.33887 94.41657 -32.58067
v 37.98498 108.4166 -34.77248
v 37.98498 94.41657 -34.77248
v 36.31371 108.4166 -36.13975
v 36.31371 94.41657 -36.13975
v 36.64739 108.4166 -38.77973
v 36.64739 94.41657 -38.77973
v 35.52636 108.4166 -40.9941
v 35.52636 94.41657 -40.9941
v 33.07645 108.4166 -41.10265
v 33.07645 94.41657 -41.10265
v 30.40377 108.4166 -35.68102
v 30.40377 94.41657 -35.68102
v 27.18461 108.4166 -35.13369
v 27.18461 94.41657 -35.13369
v 26.48696 108.4166 -39.54955
v 26.48696 94.41657 -39.54955
v 29.95747 108.4166 -43.04525
v 29.95747 94.41657 -43.04525
v 32.30759 108.4166 -42.54314
v 32.30759 94.41657 -42.54314
v 33.52635 108.4166 -41.79383
v 33.52635 94.41657 -41.79383
v 35.91297 108.4166 -43.89483
v 35.91297 94.41657 -43.89483
v 36.59311 108.4166 -46.63492
v 36.59311 94.41657 -46.63492
v 37.96975 108.4166 -47.93427
v 37.96975 94.41657 -47.93427
v 42.78507 108.4166 -48.24378
v 42.78507 94.41657 -48.24378
v 45.01297 108.4166 -44.20286
v 45.01297 94.41657 -44.20286
v 46.83613 108.4166 -44.65546
v 46.83613 94.41657 -44.65546
v 49.25178 108.4166 -48.22013
v 49.25178 94.41657 -48.22013
v 52.42727 108.4166 -48.95475
v 52.42727 94.41657 -48.95475
v 52.60857 108.4166 -47.19369
v 52.60857 94.41657 -47.19369
vt 0.3014693 0.01561913
vt 0.3014693 0.01561913
vt 0.3241418 0.08048168
vt 0.3241418 0.08048168
vt 0.2973434 0.08891068
vt 0.2973434 0.08891068
vt 0.2981488 0.1123529
vt 0.2981488 0.1123529
vt 0.3168329 0.1217302
vt 0.3168329 0.1217302
vt 0.2916233 0.1665622
vt 0.2916233 0.1665622
vt 0.3115687 0.1842334
vt 0.3115687 0.1842334
vt 0.3529851 0.1863535
vt 0.3529851 0.1863535
vt 0.3690317 0.1861235
vt 0.3690317 0.1861235
vt 0.3935483 0.2015651
vt 0.3935483 0.2015651
vt 0.4077291 0.1928318
vt 0.4077291 0.1928318
vt 0.4141663 0.1617493
vt 0.4141663 0.1617493
vt 0.4477052 0.1398312
vt 0.4477052 0.1398312
vt 0.4644179 0.1261585
vt 0.4644179 0.1261585
vt 0.4610811 0.09975872
vt 0.4610811 0.09975872
vt 0.4722914 0.07761501
vt 0.4722914 0.07761501
vt 0.4967905 0.0765295
vt 0.4967905 0.0765295
vt 0.5235173 0.1307458
vt 0.5235173 0.1307458
vt 0.5557089 0.1362191
vt 0.5557089 0.1362191
vt 0.5626854 0.09206047
vt 0.5626854 0.09206047
vt 0.5279803 0.05710354
vt 0.5279803 0.05710354
vt 0.5044791 0.06212456
vt 0.5044791 0.06212456
vt 0.4922915 0.06961773
vt 0.4922915 0.06961773
vt 0.4684253 0.04860767
vt 0.4684253 0.04860767
vt 0.4616239 0.02120678
vt 0.4616239 0.02120678
vt 0.4478575 0.008213311
vt 0.4478575 0.008213311
vt 0.3997043 0.005118217
vt 0.3997043 0.005118217
vt 0.3774253 0.04552742
vt 0.3774253 0.04552742
vt 0.3591937 0.04100143
vt 0.3591937 0.04100143
vt 0.3350372 0.00535469
vt 0.3350372 0.00535469
vt 0.3032824 -0.001991501
vt 0.3032824 -0.001991501
vt 0.3014693 0.01561913
vt 0.3014693 0.01561913
vn 0.9439919 0 0.3299688
vn 0.9439919 0 0.3299688
vn 0.3000421 0 -0.953926
vn 0.3000421 0 -0.953926
vn 0.9994103 0 0.03433484
vn 0.9994103 0 0.03433484
vn 0.4485612 0 0.8937521
vn 0.4485612 0 0.8937521
vn 0.8716459 0 -0.4901363
vn 0.8716459 0 -0.4901363
vn 0.6631474 0 0.7484888
vn 0.6631474 0 0.7484888
vn 0.05112179 0 0.9986925
vn 0.05112179 0 0.9986925
vn -0.01433107 0 0.9998973
vn -0.01433107 0 0.9998973
vn 0.5329436 0 0.8461508
vn 0.5329436 0 0.8461508
vn -0.524387 0 0.8514801
vn -0.524387 0 0.8514801
vn -0.9792207 0 0.2027974
vn -0.9792207 0 0.2027974
vn -0.5470529 0 0.8370981
vn -0.5470529 0 0.8370981
vn -0.6332017 0 0.7739868
vn -0.6332017 0 0.7739868
vn -0.9921067 0 -0.1253971
vn -0.9921067 0 -0.1253971
vn -0.8921856 0 0.4516689
vn -0.8921856 0 0.4516689
vn -0.04426475 0 0.9990198
vn -0.04426475 0 0.9990198
vn 0.8969365 0 0.4421593
vn 0.8969365 0 0.4421593
vn 0.1676154 0 0.9858525
vn 0.1676154 0 0.9858525
vn -0.9877489 0 0.1560519
vn -0.9877489 0 0.1560519
vn -0.7096578 0 -0.7045466
vn -0.7096578 0 -0.7045466
vn 0.2089346 0 -0.9779297
vn 0.2089346 0 -0.9779297
vn 0.5237464 0 -0.8518742
vn 0.5237464 0 -0.8518742
vn -0.6607668 0 -0.7505913
vn -0.6607668 0 -0.7505913
vn -0.9705479 0 -0.2409081
vn -0.9705479 0 -0.2409081
vn -0.6863974 0 -0.7272266
vn -0.6863974 0 -0.7272266
vn -0.06414355 0 -0.9979407
vn -0.06414355 0 -0.9979407
vn 0.8757221 0 -0.4828156
vn 0.8757221 0 -0.4828156
vn -0.2409361 0 -0.970541
vn -0.2409361 0 -0.970541
vn -0.8278249 0 -0.5609866
vn -0.8278249 0 -0.5609866
vn -0.225388 0 -0.9742691
vn -0.225388 0 -0.9742691
vn 0.9947424 0 -0.1024086
vn 0.9947424 0 -0.1024086
vn 0.9947424 0 -0.1024086
vn 0.9947424 0 -0.1024086
g _0
f 3/3/3 2/2/2 1/1/1
f 2/2/2 3/3/3 4/4/4
f 5/5/5 4/4/4 3/3/3
f 4/4/4 5/5/5 6/6/6
f 7/7/7 6/6/6 5/5/5
f 6/6/6 7/7/7 8/8/8
f 9/9/9 8/8/8 7/7/7
f 8/8/8 9/9/9 10/10/10
f 11/11/11 10/10/10 9/9/9
f 10/10/10 11/11/11 12/12/12
f 13/13/13 12/12/12 11/11/11
f 12/12/12 13/13/13 14/14/14
f 15/15/15 14/14/14 13/13/13
f 14/14/14 15/15/15 16/16/16
f 17/17/17 16/16/16 15/15/15
f 16/16/16 17/17/17 18/18/18
f 19/19/19 18/18/18 17/17/17
f 18/18/18 19/19/19 20/20/20
f 21/21/21 20/20/20 19/19/19
f 20/20/20 21/21/21 22/22/22
f 23/23/23 22/22/22 21/21/21
f 22/22/22 23/23/23 24/24/24
f 25/25/25 24/24/24 23/23/23
f 24/24/24 25/25/25 26/26/26
f 27/27/27 26/26/26 25/25/25
f 26/26/26 27/27/27 28/28/28
f 29/29/29 28/28/28 27/27/27
f 28/28/28 29/29/29 30/30/30
f 31/31/31 30/30/30 29/29/29
f 30/30/30 31/31/31 32/32/32
f 33/33/33 32/32/32 31/31/31
f 32/32/32 33/33/33 34/34/34
f 35/35/35 34/34/34 33/33/33
f 34/34/34 35/35/35 36/36/36
f 37/37/37 36/36/36 35/35/35
f 36/36/36 37/37/37 38/38/38
f 39/39/39 38/38/38 37/37/37
f 38/38/38 39/39/39 40/40/40
f 41/41/41 40/40/40 39/39/39
f 40/40/40 41/41/41 42/42/42
f 43/43/43 42/42/42 41/41/41
f 42/42/42 43/43/43 44/44/44
f 45/45/45 44/44/44 43/43/43
f 44/44/44 45/45/45 46/46/46
f 47/47/47 46/46/46 45/45/45
f 46/46/46 47/47/47 48/48/48
f 49/49/49 48/48/48 47/47/47
f 48/48/48 49/49/49 50/50/50
f 51/51/51 50/50/50 49/49/49
f 50/50/50 51/51/51 52/52/52
f 53/53/53 52/52/52 51/51/51
f 52/52/52 53/53/53 54/54/54
f 55/55/55 54/54/54 53/53/53
f 54/54/54 55/55/55 56/56/56
f 57/57/57 56/56/56 55/55/55
f 56/56/56 57/57/57 58/58/58
f 59/59/59 58/58/58 57/57/57
f 58/58/58 59/59/59 60/60/60
f 61/61/61 60/60/60 59/59/59
f 60/60/60 61/61/61 62/62/62
f 63/63/63 62/62/62 61/61/61
f 62/62/62 63/63/63 64/64/64
