g 
v 58.94 57.54324 -39.33
v 58.94 42.65676 -39.33
v 59.71 57.91245 -35.25
v 59.71 42.28755 -35.25
v 57.94 57.91245 -32.6
v 57.94 42.28755 -32.6
v 53.88 57.91245 -33.94
v 53.88 42.28755 -33.94
v 52.31 57.91245 -31.14
v 52.31 42.28755 -31.14
v 50.57 57.91245 -31.64
v 50.57 42.28755 -31.64
v 47.82 57.91245 -35.05
v 47.82 42.28755 -35.05
v 48.46 57.91245 -35.63
v 48.46 42.28755 -35.63
v 53.65 57.91245 -35.34
v 53.65 42.28755 -35.34
v 55.09 57.91245 -37.59
v 55.09 42.28755 -37.59
v 52.67 57.91245 -38.17
v 52.67 42.28755 -38.17
v 52.47 57.91245 -39.74
v 52.47 42.28755 -39.74
v 53.67 57.91245 -40.04
v 53.67 42.28755 -40.04
v 55.18 57.91245 -39.02
v 55.18 42.28755 -39.02
v 58.94 57.54324 -39.33
v 58.94 42.65676 -39.33
vt -1.0174 -0.6233
vt -1.0174 -0.6233
vt -1.0251 -0.5825
vt -1.0251 -0.5825
vt -1.0074 -0.556
vt -1.0074 -0.556
vt -0.9668 -0.5694
vt -0.9668 -0.5694
vt -0.9511 -0.5414
vt -0.9511 -0.5414
vt -0.9336999 -0.5464
vt -0.9336999 -0.5464
vt -0.9061999 -0.5805
vt -0.9061999 -0.5805
vt -0.9125999 -0.5863
vt -0.9125999 -0.5863
vt -0.9645 -0.5834
vt -0.9645 -0.5834
vt -0.9789 -0.6059
vt -0.9789 -0.6059
vt -0.9547 -0.6116999
vt -0.9547 -0.6116999
vt -0.9527 -0.6274
vt -0.9527 -0.6274
vt -0.9647 -0.6304
vt -0.9647 -0.6304
vt -0.9797999 -0.6202
vt -0.9797999 -0.6202
vt -1.0174 -0.6233
vt -1.0174 -0.6233
vn 0.9826534 0 -0.1854518
vn 0.9826534 0 -0.1854518
vn 0.8315673 0 0.555424
vn 0.8315673 0 0.555424
vn -0.3134198 0 0.9496146
vn -0.3134198 0 0.9496146
vn 0.8722402 0 0.4890776
vn 0.8722402 0 0.4890776
vn -0.2761796 0 0.961106
vn -0.2761796 0 0.961106
vn -0.7784131 0 0.6277525
vn -0.7784131 0 0.6277525
vn -0.6715209 0 -0.7409856
vn -0.6715209 0 -0.7409856
vn 0.05578981 0 -0.9984425
vn 0.05578981 0 -0.9984425
vn -0.8422717 0 -0.5390533
vn -0.8422717 0 -0.5390533
vn -0.233068 0 0.9724604
vn -0.233068 0 0.9724604
vn -0.9919838 0 0.1263652
vn -0.9919838 0 0.1263652
vn -0.2425356 0 -0.9701425
vn -0.2425356 0 -0.9701425
vn 0.5597552 0 -0.828658
vn 0.5597552 0 -0.828658
vn -0.08216842 0 -0.9966185
vn -0.08216842 0 -0.9966184
vn -0.08216842 0 -0.9966184
vn -0.08216842 0 -0.9966184
g _0
f 3/3/3 2/2/2 1/1/1
f 2/2/2 3/3/3 4/4/4
f 5/5/5 4/4/4 3/3/3
f 4/4/4 5/5/5 6/6/6
f 7/7/7 6/6/6 5/5/5
f 6/6/6 7/7/7 8/8/8
f 9/9/9 8/8/8 7/7/7
f 8/8/8 9/9/9 10/10/10
f 11/11/11 10/10/10 9/9/9
f 10/10/10 11/11/11 12/12/12
f 13/13/13 12/12/12 11/11/11
f 12/12/12 13/13/13 14/14/14
f 15/15/15 14/14/14 13/13/13
f 14/14/14 15/15/15 16/16/16
f 17/17/17 16/16/16 15/15/15
f 16/16/16 17/17/17 18/18/18
f 19/19/19 18/18/18 17/17/17
f 18/18/18 19/19/19 20/20/20
f 21/21/21 20/20/20 19/19/19
f 20/20/20 21/21/21 22/22/22
f 23/23/23 22/22/22 21/21/21
f 22/22/22 23/23/23 24/24/24
f 25/25/25 24/24/24 23/23/23
f 24/24/24 25/25/25 26/26/26
f 27/27/27 26/26/26 25/25/25
f 26/26/26 27/27/27 28/28/28
f 29/29/29 28/28/28 27/27/27
f 28/28/28 29/29/29 30/30/30
