g 
v -141.061 -8 -176.5186
v -86.83472 -8 -208.0476
v -153.725 -8 -150.1151
v -57.62353 -8 -205.9918
v -145.2019 -8 -109.1036
v -26.19812 -8 -178.2964
v -141.9329 -5.783333 -103.4816
v -22.79846 -5.783333 -172.4492
v -138.9414 -3.133333 -98.31403
v -18.51159 -3.133333 -164.9939
v -137.0236 1.200001 -94.67632
v -14.33118 1.200001 -157.0952
v -136.2109 5.15926 -93.26076
v -9.279118 5.15926 -146.5324
v -135.3378 7.622223 -90.55624
v -5.220947 7.622223 -135.4912
v -133.6176 9.1 -85.39642
v -2.255615 9.1 -126.5496
v -132.2078 9.1 -80.64195
v 0.6515579 9.1 -116.669
v -131.2654 9.1 -76.92302
v 3.375996 9.1 -105.5805
v -130.4348 9.1 -72.07071
v 5.237015 9.1 -95.36665
v -129.3752 9.1 -65.65234
v 6.66888 9.1 -86.66578
v -128.3816 9.1 -58.7372
v 7.866772 9.1 -78.38209
v -127.7242 9.1 -54.17757
v 8.524208 9.1 -73.82243
v -108.9427 9.1 -16.73636
v 1.084675 9.1 -32.60057
v -82.62209 9.1 -3.901037
v -20.53794 9.1 -12.85259
v -141.061 -8 -176.5186
v -141.061 -16.62 -176.5186
v -153.725 -8 -150.1151
v -153.725 -16.62 -150.1151
v -153.725 -8 -150.1151
v -153.725 -16.62 -150.1151
v -145.2019 -8 -109.1036
v -145.2019 -16.62 -109.1036
v -145.2019 -8 -109.1036
v -145.2019 -16.62 -109.1036
v -141.9329 -5.783333 -103.4816
v -141.9329 -14.40333 -103.4816
v -141.9329 -5.783333 -103.4816
v -141.9329 -14.40333 -103.4816
v -138.9414 -3.133333 -98.31403
v -138.9414 -11.75333 -98.31403
v -138.9414 -3.133333 -98.31403
v -138.9414 -11.75333 -98.31403
v -137.0236 1.200001 -94.67632
v -137.0236 -7.419999 -94.67632
v -137.0236 1.200001 -94.67632
v -137.0236 -7.419999 -94.67632
v -136.2109 5.15926 -93.26076
v -136.2109 -3.46074 -93.26076
v -136.2109 5.15926 -93.26076
v -136.2109 -3.46074 -93.26076
v -135.3378 7.622223 -90.55624
v -135.3378 -0.997777 -90.55624
v -135.3378 7.622223 -90.55624
v -135.3378 -0.997777 -90.55624
v -133.6176 9.1 -85.39642
v -133.6176 0.4800005 -85.39642
v -133.6176 9.1 -85.39642
v -133.6176 0.4800005 -85.39642
v -132.2078 9.1 -80.64195
v -132.2078 0.4800005 -80.64195
v -132.2078 9.1 -80.64195
v -132.2078 0.4800005 -80.64195
v -131.2654 9.1 -76.92302
v -131.2654 0.4800005 -76.92302
v -131.2654 9.1 -76.92302
v -131.2654 0.4800005 -76.92302
v -130.4348 9.1 -72.07071
v -130.4348 0.4800005 -72.07071
v -130.4348 9.1 -72.07071
v -130.4348 0.4800005 -72.07071
v -129.3752 9.1 -65.65234
v -129.3752 0.4800005 -65.65234
v -129.3752 9.1 -65.65234
v -129.3752 0.4800005 -65.65234
v -128.3816 9.1 -58.7372
v -128.3816 0.4800005 -58.7372
v -128.3816 9.1 -58.7372
v -128.3816 0.4800005 -58.7372
v -127.7242 9.1 -54.17757
v -127.7242 0.4800005 -54.17757
v -127.7242 9.1 -54.17757
v -127.7242 0.4800005 -54.17757
v -108.9427 9.1 -16.73636
v -108.9427 0.4800005 -16.73636
v -108.9427 9.1 -16.73636
v -108.9427 0.4800005 -16.73636
v -82.62209 9.1 -3.901037
v -82.62209 0.4800005 -3.901037
v -86.83472 -8 -208.0476
v -86.83472 -16.62 -208.0476
v -57.62353 -8 -205.9918
v -57.62353 -16.62 -205.9918
v -57.62353 -8 -205.9918
v -57.62353 -16.62 -205.9918
v -26.19812 -8 -178.2964
v -26.19812 -16.62 -178.2964
v -26.19812 -8 -178.2964
v -26.19812 -16.62 -178.2964
v -22.79846 -5.783333 -172.4492
v -22.79846 -14.40333 -172.4492
v -22.79846 -5.783333 -172.4492
v -22.79846 -14.40333 -172.4492
v -18.51159 -3.133333 -164.9939
v -18.51159 -11.75333 -164.9939
v -18.51159 -3.133333 -164.9939
v -18.51159 -11.75333 -164.9939
v -14.33118 1.200001 -157.0952
v -14.33118 -7.419999 -157.0952
v -14.33118 1.200001 -157.0952
v -14.33118 -7.419999 -157.0952
v -9.279118 5.15926 -146.5324
v -9.279118 -3.46074 -146.5324
v -9.279118 5.15926 -146.5324
v -9.279118 -3.46074 -146.5324
v -5.220947 7.622223 -135.4912
v -5.220947 -0.997777 -135.4912
v -5.220947 7.622223 -135.4912
v -5.220947 -0.997777 -135.4912
v -2.255615 9.1 -126.5496
v -2.255615 0.4800005 -126.5496
v -2.255615 9.1 -126.5496
v -2.255615 0.4800005 -126.5496
v 0.6515579 9.1 -116.669
v 0.6515579 0.4800005 -116.669
v 0.6515579 9.1 -116.669
v 0.6515579 0.4800005 -116.669
v 3.375996 9.1 -105.5805
v 3.375996 0.4800005 -105.5805
v 3.375996 9.1 -105.5805
v 3.375996 0.4800005 -105.5805
v 5.237015 9.1 -95.36665
v 5.237015 0.4800005 -95.36665
v 5.237015 9.1 -95.36665
v 5.237015 0.4800005 -95.36665
v 6.66888 9.1 -86.66578
v 6.66888 0.4800005 -86.66578
v 6.66888 9.1 -86.66578
v 6.66888 0.4800005 -86.66578
v 7.866772 9.1 -78.38209
v 7.866772 0.4800005 -78.38209
v 7.866772 9.1 -78.38209
v 7.866772 0.4800005 -78.38209
v 8.524208 9.1 -73.82243
v 8.524208 0.4800005 -73.82243
v 8.524208 9.1 -73.82243
v 8.524208 0.4800005 -73.82243
v 1.084675 9.1 -32.60057
v 1.084675 0.4800005 -32.60057
v 1.084675 9.1 -32.60057
v 1.084675 0.4800005 -32.60057
v -20.53794 9.1 -12.85259
v -20.53794 0.4800005 -12.85259
vt 0.05969568 0.2017234
vt 0.122252 0.2063362
vt 0.03675221 0.1835268
vt 0.1476164 0.1917017
vt 0.02646427 0.142922
vt 0.1637489 0.1530451
vt 0.02694264 0.1364364
vt 0.1642462 0.1462997
vt 0.02737047 0.1304807
vt 0.1648373 0.1377201
vt 0.0275025 0.1263705
vt 0.1651386 0.1287884
vt 0.02761362 0.1247421
vt 0.1650576 0.1170799
vt 0.02721484 0.1219282
vt 0.1638735 0.1053763
vt 0.02650301 0.116536
vt 0.1626258 0.09603878
vt 0.02568952 0.1116441
vt 0.1609149 0.08588255
vt 0.02490902 0.1078878
vt 0.1585109 0.07472015
vt 0.02353187 0.1031615
vt 0.1557134 0.06472214
vt 0.02167522 0.09692682
vt 0.1531924 0.0562723
vt 0.0195417 0.09027442
vt 0.1506435 0.04829997
vt 0.01813699 0.08588702
vt 0.1492388 0.04391254
vt 0.01863529 0.04400217
vt 0.1245066 0.01010569
vt 0.03668239 0.0209409
vt 0.09642142 0.001814443
vt 0.05969568 0.2017234
vt 0.05969568 0.2017234
vt 0.03675221 0.1835268
vt 0.03675221 0.1835268
vt 0.03675221 0.1835268
vt 0.03675221 0.1835268
vt 0.02646427 0.142922
vt 0.02646427 0.142922
vt 0.02646427 0.142922
vt 0.02646427 0.142922
vt 0.02694264 0.1364364
vt 0.02694264 0.1364364
vt 0.02694264 0.1364364
vt 0.02694264 0.1364364
vt 0.02737047 0.1304807
vt 0.02737047 0.1304807
vt 0.02737047 0.1304807
vt 0.02737047 0.1304807
vt 0.0275025 0.1263705
vt 0.0275025 0.1263705
vt 0.0275025 0.1263705
vt 0.0275025 0.1263705
vt 0.02761362 0.1247421
vt 0.02761362 0.1247421
vt 0.02761362 0.1247421
vt 0.02761362 0.1247421
vt 0.02721484 0.1219282
vt 0.02721484 0.1219282
vt 0.02721484 0.1219282
vt 0.02721484 0.1219282
vt 0.02650301 0.116536
vt 0.02650301 0.116536
vt 0.02650301 0.116536
vt 0.02650301 0.116536
vt 0.02568952 0.1116441
vt 0.02568952 0.1116441
vt 0.02568952 0.1116441
vt 0.02568952 0.1116441
vt 0.02490902 0.1078878
vt 0.02490902 0.1078878
vt 0.02490902 0.1078878
vt 0.02490902 0.1078878
vt 0.02353187 0.1031615
vt 0.02353187 0.1031615
vt 0.02353187 0.1031615
vt 0.02353187 0.1031615
vt 0.02167522 0.09692682
vt 0.02167522 0.09692682
vt 0.02167522 0.09692682
vt 0.02167522 0.09692682
vt 0.0195417 0.09027442
vt 0.0195417 0.09027442
vt 0.0195417 0.09027442
vt 0.0195417 0.09027442
vt 0.01813699 0.08588702
vt 0.01813699 0.08588702
vt 0.01813699 0.08588702
vt 0.01813699 0.08588702
vt 0.01863529 0.04400217
vt 0.01863529 0.04400217
vt 0.01863529 0.04400217
vt 0.01863529 0.04400217
vt 0.03668239 0.0209409
vt 0.03668239 0.0209409
vt 0.122252 0.2063362
vt 0.122252 0.2063362
vt 0.1476164 0.1917017
vt 0.1476164 0.1917017
vt 0.1476164 0.1917017
vt 0.1476164 0.1917017
vt 0.1637489 0.1530451
vt 0.1637489 0.1530451
vt 0.1637489 0.1530451
vt 0.1637489 0.1530451
vt 0.1642462 0.1462997
vt 0.1642462 0.1462997
vt 0.1642462 0.1462997
vt 0.1642462 0.1462997
vt 0.1648373 0.1377201
vt 0.1648373 0.1377201
vt 0.1648373 0.1377201
vt 0.1648373 0.1377201
vt 0.1651386 0.1287884
vt 0.1651386 0.1287884
vt 0.1651386 0.1287884
vt 0.1651386 0.1287884
vt 0.1650576 0.1170799
vt 0.1650576 0.1170799
vt 0.1650576 0.1170799
vt 0.1650576 0.1170799
vt 0.1638735 0.1053763
vt 0.1638735 0.1053763
vt 0.1638735 0.1053763
vt 0.1638735 0.1053763
vt 0.1626258 0.09603878
vt 0.1626258 0.09603878
vt 0.1626258 0.09603878
vt 0.1626258 0.09603878
vt 0.1609149 0.08588255
vt 0.1609149 0.08588255
vt 0.1609149 0.08588255
vt 0.1609149 0.08588255
vt 0.1585109 0.07472015
vt 0.1585109 0.07472015
vt 0.1585109 0.07472015
vt 0.1585109 0.07472015
vt 0.1557134 0.06472214
vt 0.1557134 0.06472214
vt 0.1557134 0.06472214
vt 0.1557134 0.06472214
vt 0.1531924 0.0562723
vt 0.1531924 0.0562723
vt 0.1531924 0.0562723
vt 0.1531924 0.0562723
vt 0.1506435 0.04829997
vt 0.1506435 0.04829997
vt 0.1506435 0.04829997
vt 0.1506435 0.04829997
vt 0.1492388 0.04391254
vt 0.1492388 0.04391254
vt 0.1492388 0.04391254
vt 0.1492388 0.04391254
vt 0.1245066 0.01010569
vt 0.1245066 0.01010569
vt 0.1245066 0.01010569
vt 0.1245066 0.01010569
vt 0.09642142 0.001814443
vt 0.09642142 0.001814443
vn 0 1 0
vn 0 1 0
vn 0 1 0
vn 0 1 0
vn 0 1 0
vn 0 1 0
vn 0 1 0
vn 0 1 0
vn 0 1 0
vn 0 1 0
vn 0 1 0
vn 0 1 0
vn 0 1 0
vn 0 1 0
vn 0 1 0
vn 0 1 0
vn 0 1 0
vn 0 1 0
vn 0 1 0
vn 0 1 0
vn 0 1 0
vn 0 1 0
vn 0 1 0
vn 0 1 0
vn 0 1 0
vn 0 1 0
vn 0 1 0
vn 0 1 0
vn 0 1 0
vn 0 1 0
vn 0 1 0
vn 0 1 0
vn 0 1 0
vn 0 1 0
vn -0.5026456 0 -0.8644925
vn -0.5026456 0 -0.8644925
vn -0.9016525 0 -0.4324613
vn -0.9016525 0 -0.4324613
vn -0.9790801 0 0.2034749
vn -0.9790801 0 0.2034749
vn -0.9790801 0 0.2034749
vn -0.9790801 0 0.2034749
vn -0.8644827 0 0.5026625
vn -0.8644827 0 0.5026625
vn -0.8644827 0 0.5026625
vn -0.8644827 0 0.5026625
vn -0.8654419 0 0.5010094
vn -0.8654419 0 0.5010093
vn -0.8654419 0 0.5010093
vn -0.8654419 0 0.5010093
vn -0.8845987 0 0.466353
vn -0.8845987 0 0.466353
vn -0.8845987 0 0.466353
vn -0.8845987 0 0.466353
vn -0.8672323 0 0.4979037
vn -0.8672323 0 0.4979037
vn -0.8672323 0 0.4979037
vn -0.8672323 0 0.4979037
vn -0.9516398 0 0.307216
vn -0.9516398 0 0.307216
vn -0.9516398 0 0.307216
vn -0.9516398 0 0.307216
vn -0.9486673 0 0.3162757
vn -0.9486673 0 0.3162757
vn -0.9486673 0 0.3162757
vn -0.9486673 0 0.3162757
vn -0.9587383 0 0.2842901
vn -0.9587383 0 0.2842901
vn -0.9587383 0 0.2842901
vn -0.9587383 0 0.2842901
vn -0.9693608 0 0.2456414
vn -0.9693608 0 0.2456414
vn -0.9693608 0 0.2456414
vn -0.9693608 0 0.2456414
vn -0.9856653 0 0.1687125
vn -0.9856653 0 0.1687125
vn -0.9856653 0 0.1687125
vn -0.9856653 0 0.1687125
vn -0.9866441 0 0.162891
vn -0.9866441 0 0.162891
vn -0.9866441 0 0.162891
vn -0.9866441 0 0.162891
vn -0.9898356 0 0.1422164
vn -0.9898356 0 0.1422164
vn -0.9898356 0 0.1422164
vn -0.9898356 0 0.1422164
vn -0.9897651 0 0.1427064
vn -0.9897651 0 0.1427064
vn -0.9897651 0 0.1427064
vn -0.9897651 0 0.1427064
vn -0.8938448 0 0.4483763
vn -0.8938448 0 0.4483763
vn -0.8938448 0 0.4483763
vn -0.8938448 0 0.4483763
vn -0.4383134 0 0.8988222
vn -0.4383134 0 0.8988222
vn 0.1427084 0 0.9897648
vn 0.1427084 0 0.9897648
vn -0.5026456 0 -0.8644925
vn -0.5026456 0 -0.8644925
vn 0.07020405 0 -0.9975327
vn 0.07020405 0 -0.9975327
vn 0.6611791 0 -0.7502281
vn 0.6611791 0 -0.7502281
vn 0.6611791 0 -0.7502281
vn 0.6611791 0 -0.7502281
vn 0.8645015 0 -0.5026302
vn 0.8645015 0 -0.5026302
vn 0.8645015 0 -0.5026302
vn 0.8645015 0 -0.5026302
vn 0.866901 0 -0.4984804
vn 0.866901 0 -0.4984804
vn 0.866901 0 -0.4984804
vn 0.866901 0 -0.4984804
vn 0.8838478 0 -0.4677746
vn 0.8838478 0 -0.4677746
vn 0.8838478 0 -0.4677746
vn 0.8838478 0 -0.4677746
vn 0.902124 0 -0.4314769
vn 0.902124 0 -0.4314769
vn 0.902124 0 -0.4314769
vn 0.902124 0 -0.4314769
vn 0.9386088 0 -0.3449833
vn 0.9386088 0 -0.3449833
vn 0.9386088 0 -0.3449833
vn 0.9386088 0 -0.3449833
vn 0.9491665 0 -0.3147745
vn 0.9491665 0 -0.3147745
vn 0.9491665 0 -0.3147745
vn 0.9491665 0 -0.3147745
vn 0.9593356 0 -0.2822681
vn 0.9593356 0 -0.2822681
vn 0.9593356 0 -0.2822681
vn 0.9593356 0 -0.2822681
vn 0.9711174 0 -0.238602
vn 0.9711174 0 -0.238602
vn 0.9711174 0 -0.238602
vn 0.9711174 0 -0.238602
vn 0.9838027 0 -0.1792543
vn 0.9838027 0 -0.1792543
vn 0.9838027 0 -0.1792543
vn 0.9838027 0 -0.1792543
vn 0.9867281 0 -0.1623816
vn 0.9867281 0 -0.1623816
vn 0.9867281 0 -0.1623816
vn 0.9867281 0 -0.1623816
vn 0.9897054 0 -0.1431197
vn 0.9897054 0 -0.1431197
vn 0.9897054 0 -0.1431197
vn 0.9897054 0 -0.1431197
vn 0.9897646 0 -0.1427095
vn 0.9897646 0 -0.1427095
vn 0.9897646 0 -0.1427095
vn 0.9897646 0 -0.1427095
vn 0.9841016 0 0.1776062
vn 0.9841016 0 0.1776062
vn 0.9841016 0 0.1776062
vn 0.9841016 0 0.1776062
vn 0.6743734 0 0.7383904
vn 0.6743734 0 0.7383904
vn 0.1427084 0 0.9897648
vn 0.1427084 0 0.9897648
g _0
f 3/3/3 2/2/2 1/1/1
f 2/2/2 3/3/3 4/4/4
f 5/5/5 4/4/4 3/3/3
f 4/4/4 5/5/5 6/6/6
f 7/7/7 6/6/6 5/5/5
f 6/6/6 7/7/7 8/8/8
f 9/9/9 8/8/8 7/7/7
f 8/8/8 9/9/9 10/10/10
f 11/11/11 10/10/10 9/9/9
f 10/10/10 11/11/11 12/12/12
f 13/13/13 12/12/12 11/11/11
f 12/12/12 13/13/13 14/14/14
f 15/15/15 14/14/14 13/13/13
f 14/14/14 15/15/15 16/16/16
f 17/17/17 16/16/16 15/15/15
f 16/16/16 17/17/17 18/18/18
f 19/19/19 18/18/18 17/17/17
f 18/18/18 19/19/19 20/20/20
f 21/21/21 20/20/20 19/19/19
f 20/20/20 21/21/21 22/22/22
f 23/23/23 22/22/22 21/21/21
f 22/22/22 23/23/23 24/24/24
f 25/25/25 24/24/24 23/23/23
f 24/24/24 25/25/25 26/26/26
f 27/27/27 26/26/26 25/25/25
f 26/26/26 27/27/27 28/28/28
f 29/29/29 28/28/28 27/27/27
f 28/28/28 29/29/29 30/30/30
f 31/31/31 30/30/30 29/29/29
f 30/30/30 31/31/31 32/32/32
f 33/33/33 32/32/32 31/31/31
f 32/32/32 33/33/33 34/34/34
g _1
f 35/35/35 36/36/36 37/37/37
f 38/38/38 37/37/37 36/36/36
f 39/39/39 40/40/40 41/41/41
f 42/42/42 41/41/41 40/40/40
f 43/43/43 44/44/44 45/45/45
f 46/46/46 45/45/45 44/44/44
f 47/47/47 48/48/48 49/49/49
f 50/50/50 49/49/49 48/48/48
f 51/51/51 52/52/52 53/53/53
f 54/54/54 53/53/53 52/52/52
f 55/55/55 56/56/56 57/57/57
f 58/58/58 57/57/57 56/56/56
f 59/59/59 60/60/60 61/61/61
f 62/62/62 61/61/61 60/60/60
f 63/63/63 64/64/64 65/65/65
f 66/66/66 65/65/65 64/64/64
f 67/67/67 68/68/68 69/69/69
f 70/70/70 69/69/69 68/68/68
f 71/71/71 72/72/72 73/73/73
f 74/74/74 73/73/73 72/72/72
f 75/75/75 76/76/76 77/77/77
f 78/78/78 77/77/77 76/76/76
f 79/79/79 80/80/80 81/81/81
f 82/82/82 81/81/81 80/80/80
f 83/83/83 84/84/84 85/85/85
f 86/86/86 85/85/85 84/84/84
f 87/87/87 88/88/88 89/89/89
f 90/90/90 89/89/89 88/88/88
f 91/91/91 92/92/92 93/93/93
f 94/94/94 93/93/93 92/92/92
f 95/95/95 96/96/96 97/97/97
f 98/98/98 97/97/97 96/96/96
f 101/101/101 100/100/100 99/99/99
f 100/100/100 101/101/101 102/102/102
f 105/105/105 104/104/104 103/103/103
f 104/104/104 105/105/105 106/106/106
f 109/109/109 108/108/108 107/107/107
f 108/108/108 109/109/109 110/110/110
f 113/113/113 112/112/112 111/111/111
f 112/112/112 113/113/113 114/114/114
f 117/117/117 116/116/116 115/115/115
f 116/116/116 117/117/117 118/118/118
f 121/121/121 120/120/120 119/119/119
f 120/120/120 121/121/121 122/122/122
f 125/125/125 124/124/124 123/123/123
f 124/124/124 125/125/125 126/126/126
f 129/129/129 128/128/128 127/127/127
f 128/128/128 129/129/129 130/130/130
f 133/133/133 132/132/132 131/131/131
f 132/132/132 133/133/133 134/134/134
f 137/137/137 136/136/136 135/135/135
f 136/136/136 137/137/137 138/138/138
f 141/141/141 140/140/140 139/139/139
f 140/140/140 141/141/141 142/142/142
f 145/145/145 144/144/144 143/143/143
f 144/144/144 145/145/145 146/146/146
f 149/149/149 148/148/148 147/147/147
f 148/148/148 149/149/149 150/150/150
f 153/153/153 152/152/152 151/151/151
f 152/152/152 153/153/153 154/154/154
f 157/157/157 156/156/156 155/155/155
f 156/156/156 157/157/157 158/158/158
f 161/161/161 160/160/160 159/159/159
f 160/160/160 161/161/161 162/162/162
f 99/99/99 36/36/36 35/35/35
f 36/36/36 99/99/99 100/100/100
f 97/97/97 98/98/98 161/161/161
f 162/162/162 161/161/161 98/98/98
