g 
v -0.13713 13.4 -48.76037
v -1.800545 13.4 -53.68665
v 1.888988 13.4 -47.27151
v -1.09172 13.4 -56.09898
v 5.904686 13.4 -46.27074
v 1.495314 13.4 -59.32925
v 12.64452 10.9 -51.71431
v 10.15548 10.9 -59.0857
v 15.09538 10.9 -52.49408
v 12.57736 10.9 -59.95126
v 15.41769 10.9 -54.86902
v 14.2734 10.9 -58.25785
v -0.13713 13.4 -48.76037
v -0.13713 4.78 -48.76037
v 1.888988 13.4 -47.27151
v 1.888988 4.78 -47.27151
v 1.888988 13.4 -47.27151
v 1.888988 4.78 -47.27151
v 5.904686 13.4 -46.27074
v 5.904686 4.78 -46.27074
v 5.904686 13.4 -46.27074
v 5.904686 4.78 -46.27074
v 12.64452 10.9 -51.71431
v 12.64452 2.28 -51.71431
v 12.64452 10.9 -51.71431
v 12.64452 2.28 -51.71431
v 15.09538 10.9 -52.49408
v 15.09538 2.28 -52.49408
v 15.09538 10.9 -52.49408
v 15.09538 2.28 -52.49408
v 15.41769 10.9 -54.86902
v 15.41769 2.28 -54.86902
v -1.800545 13.4 -53.68665
v -1.800545 4.78 -53.68665
v -1.09172 13.4 -56.09898
v -1.09172 4.78 -56.09898
v -1.09172 13.4 -56.09898
v -1.09172 4.78 -56.09898
v 1.495314 13.4 -59.32925
v 1.495314 4.78 -59.32925
v 1.495314 13.4 -59.32925
v 1.495314 4.78 -59.32925
v 10.15548 10.9 -59.0857
v 10.15548 2.28 -59.0857
v 10.15548 10.9 -59.0857
v 10.15548 2.28 -59.0857
v 12.57736 10.9 -59.95126
v 12.57736 2.28 -59.95126
v 12.57736 10.9 -59.95126
v 12.57736 2.28 -59.95126
v 14.2734 10.9 -58.25785
v 14.2734 2.28 -58.25785
vt 0.05366324 -0.02939454
vt 0.05681276 -0.03353165
vt 0.05126775 -0.02863069
vt 0.05691143 -0.03604404
vt 0.04714273 -0.02896474
vt 0.05549145 -0.03993133
vt 0.04249421 -0.03627562
vt 0.04720697 -0.04246615
vt 0.04042071 -0.03779724
vt 0.04518833 -0.04405982
vt 0.04087371 -0.04015076
vt 0.0430403 -0.0429967
vt 0.05366324 -0.02939454
vt 0.05366324 -0.02939454
vt 0.05126775 -0.02863069
vt 0.05126775 -0.02863069
vt 0.05126775 -0.02863069
vt 0.05126775 -0.02863069
vt 0.04714273 -0.02896474
vt 0.04714273 -0.02896474
vt 0.04714273 -0.02896474
vt 0.04714273 -0.02896474
vt 0.04249421 -0.03627562
vt 0.04249421 -0.03627562
vt 0.04249421 -0.03627562
vt 0.04249421 -0.03627562
vt 0.04042071 -0.03779724
vt 0.04042071 -0.03779724
vt 0.04042071 -0.03779724
vt 0.04042071 -0.03779724
vt 0.04087371 -0.04015076
vt 0.04087371 -0.04015076
vt 0.05681276 -0.03353165
vt 0.05681276 -0.03353165
vt 0.05691143 -0.03604404
vt 0.05691143 -0.03604404
vt 0.05691143 -0.03604404
vt 0.05691143 -0.03604404
vt 0.05549145 -0.03993133
vt 0.05549145 -0.03993133
vt 0.05549145 -0.03993133
vt 0.05549145 -0.03993133
vt 0.04720697 -0.04246615
vt 0.04720697 -0.04246615
vt 0.04720697 -0.04246615
vt 0.04720697 -0.04246615
vt 0.04518833 -0.04405982
vt 0.04518833 -0.04405982
vt 0.04518833 -0.04405982
vt 0.04518833 -0.04405982
vt 0.0430403 -0.0429967
vt 0.0430403 -0.0429967
vn 0 1 0
vn 0 1 0
vn 0 1 0
vn 0 1 0
vn 0 1 0
vn 0 1 0
vn 0 1 0
vn 0 1 0
vn 0 1 0
vn 0 1 0
vn 0 1 0
vn 0 1 0
vn -0.9474459 0 0.3199161
vn -0.9474459 0 0.3199161
vn -0.592148 0 0.8058292
vn -0.592148 0 0.8058292
vn -0.2418182 0 0.9703216
vn -0.2418182 0 0.9703216
vn -0.2418182 0 0.9703216
vn -0.2418182 0 0.9703216
vn 0.6283266 0 0.7779497
vn 0.6283266 0 0.7779497
vn 0.6283266 0 0.7779497
vn 0.6283266 0 0.7779497
vn 0.3031883 0 0.9529307
vn 0.3031883 0 0.9529307
vn 0.3031883 0 0.9529307
vn 0.3031883 0 0.9529307
vn 0.9909161 0 0.1344813
vn 0.9909161 0 0.1344813
vn 0.9474451 0 -0.3199184
vn 0.9474451 0 -0.3199184
vn -0.9474459 0 0.3199161
vn -0.9474459 0 0.3199161
vn -0.9594394 0 -0.2819149
vn -0.9594394 0 -0.2819149
vn -0.7805365 0 -0.6251102
vn -0.7805365 0 -0.6251102
vn -0.7805365 0 -0.6251102
vn -0.7805365 0 -0.6251102
vn 0.02811271 0 -0.9996048
vn 0.02811271 0 -0.9996048
vn 0.02811271 0 -0.9996048
vn 0.02811271 0 -0.9996048
vn -0.336546 0 -0.9416671
vn -0.336546 0 -0.9416671
vn -0.336546 0 -0.9416671
vn -0.336546 0 -0.9416671
vn 0.7065591 0 -0.7076541
vn 0.7065591 0 -0.7076541
vn 0.9474451 0 -0.3199184
vn 0.9474451 0 -0.3199184
g _0
f 3/3/3 2/2/2 1/1/1
f 2/2/2 3/3/3 4/4/4
f 5/5/5 4/4/4 3/3/3
f 4/4/4 5/5/5 6/6/6
f 7/7/7 6/6/6 5/5/5
f 6/6/6 7/7/7 8/8/8
f 9/9/9 8/8/8 7/7/7
f 8/8/8 9/9/9 10/10/10
f 11/11/11 10/10/10 9/9/9
f 10/10/10 11/11/11 12/12/12
g _1
f 13/13/13 14/14/14 15/15/15
f 16/16/16 15/15/15 14/14/14
f 17/17/17 18/18/18 19/19/19
f 20/20/20 19/19/19 18/18/18
f 21/21/21 22/22/22 23/23/23
f 24/24/24 23/23/23 22/22/22
f 25/25/25 26/26/26 27/27/27
f 28/28/28 27/27/27 26/26/26
f 29/29/29 30/30/30 31/31/31
f 32/32/32 31/31/31 30/30/30
f 35/35/35 34/34/34 33/33/33
f 34/34/34 35/35/35 36/36/36
f 39/39/39 38/38/38 37/37/37
f 38/38/38 39/39/39 40/40/40
f 43/43/43 42/42/42 41/41/41
f 42/42/42 43/43/43 44/44/44
f 47/47/47 46/46/46 45/45/45
f 46/46/46 47/47/47 48/48/48
f 51/51/51 50/50/50 49/49/49
f 50/50/50 51/51/51 52/52/52
f 33/33/33 14/14/14 13/13/13
f 14/14/14 33/33/33 34/34/34
f 31/31/31 32/32/32 51/51/51
f 52/52/52 51/51/51 32/32/32
