g 
v 39.31 48.49459 86.24
v 39.31 30.16541 86.24
v 44.63 49.7596 65.97
v 44.63 28.8404 65.97
v 40.94 49.7596 55.04
v 40.94 28.8404 55.04
v 27.3 49.7596 46.58
v 27.3 28.8404 46.58
v 19.26 49.7596 44.71
v 19.26 28.8404 44.71
v 10.53 48.0496 42.71
v 10.53 27.1304 42.71
v 2.31 44.8896 41.04
v 2.31 23.9704 41.04
v -1.97 41.4496 39.91
v -1.97 20.5304 39.91
vt -0.3931 0.8623999
vt -0.3931 0.8623999
vt -0.4463 0.6597
vt -0.4463 0.6597
vt -0.4094 0.5504
vt -0.4094 0.5504
vt -0.273 0.4658
vt -0.273 0.4658
vt -0.1926 0.4471
vt -0.1926 0.4471
vt -0.1053 0.4271
vt -0.1053 0.4271
vt -0.0231 0.4104
vt -0.0231 0.4104
vt 0.0197 0.3991
vt 0.0197 0.3991
vn 0.9672412 0 0.2538591
vn 0.9672412 0 0.2538591
vn 0.9474626 0 -0.3198664
vn 0.9474626 0 -0.3198664
vn 0.5270836 0 -0.8498134
vn 0.5270836 0 -0.8498134
vn 0.2265406 0 -0.9740017
vn 0.2265406 0 -0.9740017
vn 0.2233098 0 -0.9747475
vn 0.2233098 0 -0.9747475
vn 0.1990955 0 -0.9799801
vn 0.1990955 0 -0.9799801
vn 0.2552719 0 -0.9668694
vn 0.2552719 0 -0.9668694
vn 0.2552719 0 -0.9668694
vn 0.2552719 0 -0.9668694
g _0
f 1/1/1 2/2/2 3/3/3
f 4/4/4 3/3/3 2/2/2
f 3/3/3 4/4/4 5/5/5
f 6/6/6 5/5/5 4/4/4
f 5/5/5 6/6/6 7/7/7
f 8/8/8 7/7/7 6/6/6
f 7/7/7 8/8/8 9/9/9
f 10/10/10 9/9/9 8/8/8
f 9/9/9 10/10/10 11/11/11
f 12/12/12 11/11/11 10/10/10
f 11/11/11 12/12/12 13/13/13
f 14/14/14 13/13/13 12/12/12
f 13/13/13 14/14/14 15/15/15
f 16/16/16 15/15/15 14/14/14
