g 
v 57.57237 108.4166 -160.2397
v 57.57237 94.41657 -160.2397
v 58.56517 108.4166 -157.2354
v 58.56517 94.41657 -157.2354
v 54.54887 108.4166 -152.5174
v 54.54887 94.41657 -152.5174
v 51.61464 108.4166 -152.0209
v 51.61464 94.41657 -152.0209
v 48.69772 108.4166 -154.6591
v 48.69772 94.41657 -154.6591
v 54.63317 108.4166 -160.1294
v 54.63317 94.41657 -160.1294
v 57.57237 108.4166 -160.2397
v 57.57237 94.41657 -160.2397
vt 0.2518313 -1.114841
vt 0.2518313 -1.114841
vt 0.2419033 -1.084798
vt 0.2419033 -1.084798
vt 0.2820663 -1.037618
vt 0.2820663 -1.037618
vt 0.3114086 -1.032653
vt 0.3114086 -1.032653
vt 0.3405778 -1.059035
vt 0.3405778 -1.059035
vt 0.2812233 -1.113738
vt 0.2812233 -1.113738
vt 0.2518313 -1.114841
vt 0.2518313 -1.114841
vn 0.9495018 0 -0.3137615
vn 0.9495018 0 -0.3137615
vn 0.7614552 0 0.6482176
vn 0.7614552 0 0.6482176
vn 0.166865 0 0.9859797
vn 0.166865 0 0.9859797
vn -0.6707865 0 0.7416505
vn -0.6707865 0 0.7416505
vn -0.6777081 0 -0.7353311
vn -0.6777081 0 -0.7353311
vn -0.03751323 0 -0.9992961
vn -0.03751323 0 -0.9992961
vn -0.03751323 0 -0.9992961
vn -0.03751323 0 -0.9992961
g _0
f 3/3/3 2/2/2 1/1/1
f 2/2/2 3/3/3 4/4/4
f 5/5/5 4/4/4 3/3/3
f 4/4/4 5/5/5 6/6/6
f 7/7/7 6/6/6 5/5/5
f 6/6/6 7/7/7 8/8/8
f 9/9/9 8/8/8 7/7/7
f 8/8/8 9/9/9 10/10/10
f 11/11/11 10/10/10 9/9/9
f 10/10/10 11/11/11 12/12/12
f 13/13/13 12/12/12 11/11/11
f 12/12/12 13/13/13 14/14/14
