g 
v -2.366131 18.6 -100.252
v 18.93561 18.6 -120.9179
v -5.168057 18.6 -86.68269
v 32.58353 18.6 -123.3074
v 3.42585 18.6 -68.82353
v 50.17415 18.6 -114.1765
v 10.02355 18.6 -63.10093
v 55.71553 18.6 -107.3865
v 17.31387 18.6 -56.87471
v 61.9 18.6 -99.69798
v 24.93651 18.6 -51.11865
v 67.6346 18.6 -91.43219
v 32.23872 18.6 -45.27022
v 73.56226 18.6 -83.14275
v 39.02172 18.6 -38.96028
v 79.71194 18.6 -75.04404
v 45.44138 18.6 -32.6344
v 86.17262 18.6 -66.67024
v 51.47356 18.6 -26.20493
v 92.43816 18.6 -57.66842
v 57.53511 18.6 -19.00248
v 98.13043 18.6 -48.98771
v 58.71166 18.6 -17.55376
v 99.28834 18.6 -47.24624
v 71.18763 18.6 -8.697445
v 103.9553 18.6 -32.6756
v 81.87714 18.6 -9.069674
v 100.3667 18.6 -22.59961
v -2.366131 18.6 -100.252
v -2.366131 -11.4 -100.252
v -5.168057 18.6 -86.68269
v -5.168057 -11.4 -86.68269
v -5.168057 18.6 -86.68269
v -5.168057 -11.4 -86.68269
v 3.42585 18.6 -68.82353
v 3.42585 -11.4 -68.82353
v 3.42585 18.6 -68.82353
v 3.42585 -11.4 -68.82353
v 10.02355 18.6 -63.10093
v 10.02355 -11.4 -63.10093
v 10.02355 18.6 -63.10093
v 10.02355 -11.4 -63.10093
v 17.31387 18.6 -56.87471
v 17.31387 -11.4 -56.87471
v 17.31387 18.6 -56.87471
v 17.31387 -11.4 -56.87471
v 24.93651 18.6 -51.11865
v 24.93651 -11.4 -51.11865
v 24.93651 18.6 -51.11865
v 24.93651 -11.4 -51.11865
v 32.23872 18.6 -45.27022
v 32.23872 -11.4 -45.27022
v 32.23872 18.6 -45.27022
v 32.23872 -11.4 -45.27022
v 39.02172 18.6 -38.96028
v 39.02172 -11.4 -38.96028
v 39.02172 18.6 -38.96028
v 39.02172 -11.4 -38.96028
v 45.44138 18.6 -32.6344
v 45.44138 -11.4 -32.6344
v 45.44138 18.6 -32.6344
v 45.44138 -11.4 -32.6344
v 51.47356 18.6 -26.20493
v 51.47356 -11.4 -26.20493
v 51.47356 18.6 -26.20493
v 51.47356 -11.4 -26.20493
v 57.53511 18.6 -19.00248
v 57.53511 -11.4 -19.00248
v 57.53511 18.6 -19.00248
v 57.53511 -11.4 -19.00248
v 58.71166 18.6 -17.55376
v 58.71166 -11.4 -17.55376
v 58.71166 18.6 -17.55376
v 58.71166 -11.4 -17.55376
v 71.18763 18.6 -8.697445
v 71.18763 -11.4 -8.697445
v 71.18763 18.6 -8.697445
v 71.18763 -11.4 -8.697445
v 81.87714 18.6 -9.069674
v 81.87714 -11.4 -9.069674
v 18.93561 18.6 -120.9179
v 18.93561 -11.4 -120.9179
v 32.58353 18.6 -123.3074
v 32.58353 -11.4 -123.3074
v 32.58353 18.6 -123.3074
v 32.58353 -11.4 -123.3074
v 50.17415 18.6 -114.1765
v 50.17415 -11.4 -114.1765
v 50.17415 18.6 -114.1765
v 50.17415 -11.4 -114.1765
v 55.71553 18.6 -107.3865
v 55.71553 -11.4 -107.3865
v 55.71553 18.6 -107.3865
v 55.71553 -11.4 -107.3865
v 61.9 18.6 -99.69798
v 61.9 -11.4 -99.69798
v 61.9 18.6 -99.69798
v 61.9 -11.4 -99.69798
v 67.6346 18.6 -91.43219
v 67.6346 -11.4 -91.43219
v 67.6346 18.6 -91.43219
v 67.6346 -11.4 -91.43219
v 73.56226 18.6 -83.14275
v 73.56226 -11.4 -83.14275
v 73.56226 18.6 -83.14275
v 73.56226 -11.4 -83.14275
v 79.71194 18.6 -75.04404
v 79.71194 -11.4 -75.04404
v 79.71194 18.6 -75.04404
v 79.71194 -11.4 -75.04404
v 86.17262 18.6 -66.67024
v 86.17262 -11.4 -66.67024
v 86.17262 18.6 -66.67024
v 86.17262 -11.4 -66.67024
v 92.43816 18.6 -57.66842
v 92.43816 -11.4 -57.66842
v 92.43816 18.6 -57.66842
v 92.43816 -11.4 -57.66842
v 98.13043 18.6 -48.98771
v 98.13043 -11.4 -48.98771
v 98.13043 18.6 -48.98771
v 98.13043 -11.4 -48.98771
v 99.28834 18.6 -47.24624
v 99.28834 -11.4 -47.24624
v 99.28834 18.6 -47.24624
v 99.28834 -11.4 -47.24624
v 103.9553 18.6 -32.6756
v 103.9553 -11.4 -32.6756
v 103.9553 18.6 -32.6756
v 103.9553 -11.4 -32.6756
v 100.3667 18.6 -22.59961
v 100.3667 -11.4 -22.59961
vt -0.05929459 -0.1721638
vt -0.02963581 -0.1710677
vt -0.07045864 -0.1803699
vt -0.01789647 -0.1784272
vt -0.07602736 -0.1993908
vt -0.0109389 -0.1969852
vt -0.07495581 -0.2080585
vt -0.01136658 -0.2057389
vt -0.07370675 -0.217564
vt -0.0119179 -0.2155907
vt -0.07189611 -0.2269426
vt -0.01318984 -0.2255702
vt -0.07038536 -0.2361754
vt -0.01433418 -0.2356965
vt -0.06956926 -0.2454035
vt -0.0151859 -0.2458298
vt -0.06903378 -0.2544003
vt -0.01599067 -0.2563755
vt -0.06885553 -0.2632147
vt -0.0173608 -0.2672573
vt -0.06917282 -0.2726231
vt -0.0189419 -0.2775168
vt -0.06926836 -0.2744869
vt -0.01924723 -0.2795857
vt -0.06592696 -0.2894174
vt -0.0255324 -0.2935349
vt -0.05773589 -0.2962956
vt -0.03494282 -0.298619
vt -0.05929459 -0.1721638
vt -0.05929459 -0.1721638
vt -0.07045864 -0.1803699
vt -0.07045864 -0.1803699
vt -0.07045864 -0.1803699
vt -0.07045864 -0.1803699
vt -0.07602736 -0.1993908
vt -0.07602736 -0.1993908
vt -0.07602736 -0.1993908
vt -0.07602736 -0.1993908
vt -0.07495581 -0.2080585
vt -0.07495581 -0.2080585
vt -0.07495581 -0.2080585
vt -0.07495581 -0.2080585
vt -0.07370675 -0.217564
vt -0.07370675 -0.217564
vt -0.07370675 -0.217564
vt -0.07370675 -0.217564
vt -0.07189611 -0.2269426
vt -0.07189611 -0.2269426
vt -0.07189611 -0.2269426
vt -0.07189611 -0.2269426
vt -0.07038536 -0.2361754
vt -0.07038536 -0.2361754
vt -0.07038536 -0.2361754
vt -0.07038536 -0.2361754
vt -0.06956926 -0.2454035
vt -0.06956926 -0.2454035
vt -0.06956926 -0.2454035
vt -0.06956926 -0.2454035
vt -0.06903378 -0.2544003
vt -0.06903378 -0.2544003
vt -0.06903378 -0.2544003
vt -0.06903378 -0.2544003
vt -0.06885553 -0.2632147
vt -0.06885553 -0.2632147
vt -0.06885553 -0.2632147
vt -0.06885553 -0.2632147
vt -0.06917282 -0.2726231
vt -0.06917282 -0.2726231
vt -0.06917282 -0.2726231
vt -0.06917282 -0.2726231
vt -0.06926836 -0.2744869
vt -0.06926836 -0.2744869
vt -0.06926836 -0.2744869
vt -0.06926836 -0.2744869
vt -0.06592696 -0.2894174
vt -0.06592696 -0.2894174
vt -0.06592696 -0.2894174
vt -0.06592696 -0.2894174
vt -0.05773589 -0.2962956
vt -0.05773589 -0.2962956
vt -0.02963581 -0.1710677
vt -0.02963581 -0.1710677
vt -0.01789647 -0.1784272
vt -0.01789647 -0.1784272
vt -0.01789647 -0.1784272
vt -0.01789647 -0.1784272
vt -0.0109389 -0.1969852
vt -0.0109389 -0.1969852
vt -0.0109389 -0.1969852
vt -0.0109389 -0.1969852
vt -0.01136658 -0.2057389
vt -0.01136658 -0.2057389
vt -0.01136658 -0.2057389
vt -0.01136658 -0.2057389
vt -0.0119179 -0.2155907
vt -0.0119179 -0.2155907
vt -0.0119179 -0.2155907
vt -0.0119179 -0.2155907
vt -0.01318984 -0.2255702
vt -0.01318984 -0.2255702
vt -0.01318984 -0.2255702
vt -0.01318984 -0.2255702
vt -0.01433418 -0.2356965
vt -0.01433418 -0.2356965
vt -0.01433418 -0.2356965
vt -0.01433418 -0.2356965
vt -0.0151859 -0.2458298
vt -0.0151859 -0.2458298
vt -0.0151859 -0.2458298
vt -0.0151859 -0.2458298
vt -0.01599067 -0.2563755
vt -0.01599067 -0.2563755
vt -0.01599067 -0.2563755
vt -0.01599067 -0.2563755
vt -0.0173608 -0.2672573
vt -0.0173608 -0.2672573
vt -0.0173608 -0.2672573
vt -0.0173608 -0.2672573
vt -0.0189419 -0.2775168
vt -0.0189419 -0.2775168
vt -0.0189419 -0.2775168
vt -0.0189419 -0.2775168
vt -0.01924723 -0.2795857
vt -0.01924723 -0.2795857
vt -0.01924723 -0.2795857
vt -0.01924723 -0.2795857
vt -0.0255324 -0.2935349
vt -0.0255324 -0.2935349
vt -0.0255324 -0.2935349
vt -0.0255324 -0.2935349
vt -0.03494282 -0.298619
vt -0.03494282 -0.298619
vn 0 1 0
vn 0 1 0
vn 0 1 0
vn 0 1 0
vn 0 1 0
vn 0 1 0
vn 0 1 0
vn 0 1 0
vn 0 1 0
vn 0 1 0
vn 0 1 0
vn 0 1 0
vn 0 1 0
vn 0 1 0
vn 0 1 0
vn 0 1 0
vn 0 1 0
vn 0 1 0
vn 0 1 0
vn 0 1 0
vn 0 1 0
vn 0 1 0
vn 0 1 0
vn 0 1 0
vn 0 1 0
vn 0 1 0
vn 0 1 0
vn 0 1 0
vn -0.6963141 0 -0.7177372
vn -0.6963141 0 -0.7177372
vn -0.9793392 0 -0.2022245
vn -0.9793392 0 -0.2022245
vn -0.9010993 0 0.433613
vn -0.9010993 0 0.433613
vn -0.9010993 0 0.433613
vn -0.9010993 0 0.433613
vn -0.6552311 0 0.7554284
vn -0.6552311 0 0.7554284
vn -0.6552311 0 0.7554284
vn -0.6552311 0 0.7554284
vn -0.6494296 0 0.7604218
vn -0.6494296 0 0.7604218
vn -0.6494296 0 0.7604218
vn -0.6494296 0 0.7604218
vn -0.6026154 0 0.7980318
vn -0.6026154 0 0.7980318
vn -0.6026154 0 0.7980318
vn -0.6026154 0 0.7980318
vn -0.6251291 0 0.7805213
vn -0.6251291 0 0.7805213
vn -0.6251291 0 0.7805213
vn -0.6251291 0 0.7805213
vn -0.6811141 0 0.7321773
vn -0.6811141 0 0.7321773
vn -0.6811141 0 0.7321773
vn -0.6811141 0 0.7321773
vn -0.7018847 0 0.7122905
vn -0.7018847 0 0.7122905
vn -0.7018847 0 0.7122905
vn -0.7018847 0 0.7122905
vn -0.7292801 0 0.6842152
vn -0.7292801 0 0.6842152
vn -0.7292801 0 0.6842152
vn -0.7292801 0 0.6842152
vn -0.765103 0 0.6439079
vn -0.765103 0 0.6439079
vn -0.765103 0 0.6439079
vn -0.765103 0 0.6439079
vn -0.7762523 0 0.6304222
vn -0.7762523 0 0.6304222
vn -0.7762523 0 0.6304222
vn -0.7762523 0 0.6304222
vn -0.5788516 0 0.8154329
vn -0.5788516 0 0.8154329
vn -0.5788516 0 0.8154329
vn -0.5788516 0 0.8154329
vn 0.03480078 0 0.9993943
vn 0.03480078 0 0.9993943
vn 0.5905387 0 0.8070094
vn 0.5905387 0 0.8070094
vn -0.6963141 0 -0.7177372
vn -0.6963141 0 -0.7177372
vn -0.1724634 0 -0.9850159
vn -0.1724634 0 -0.9850159
vn 0.4607116 0 -0.8875499
vn 0.4607116 0 -0.8875499
vn 0.4607116 0 -0.8875499
vn 0.4607116 0 -0.8875499
vn 0.7747416 0 -0.632278
vn 0.7747416 0 -0.632278
vn 0.7747416 0 -0.632278
vn 0.7747416 0 -0.632278
vn 0.7792026 0 -0.6267721
vn 0.7792026 0 -0.6267721
vn 0.7792026 0 -0.6267721
vn 0.7792026 0 -0.6267721
vn 0.8216277 0 -0.5700244
vn 0.8216277 0 -0.5700244
vn 0.8216277 0 -0.5700244
vn 0.8216277 0 -0.5700244
vn 0.8134258 0 -0.5816687
vn 0.8134258 0 -0.5816687
vn 0.8134258 0 -0.5816687
vn 0.8134258 0 -0.5816687
vn 0.796415 0 -0.6047505
vn 0.796415 0 -0.6047505
vn 0.796415 0 -0.6047505
vn 0.796415 0 -0.6047505
vn 0.7917414 0 -0.6108565
vn 0.7917414 0 -0.6108565
vn 0.7917414 0 -0.6108565
vn 0.7917414 0 -0.6108565
vn 0.8207598 0 -0.5712734
vn 0.8207598 0 -0.5712734
vn 0.8207598 0 -0.5712734
vn 0.8207598 0 -0.5712734
vn 0.8362439 0 -0.5483576
vn 0.8362439 0 -0.5483576
vn 0.8362439 0 -0.5483576
vn 0.8362439 0 -0.5483576
vn 0.8327283 0 -0.553682
vn 0.8327283 0 -0.553682
vn 0.8327283 0 -0.553682
vn 0.8327283 0 -0.553682
vn 0.9523409 0 -0.3050358
vn 0.9523409 0 -0.3050358
vn 0.9523409 0 -0.3050358
vn 0.9523409 0 -0.3050358
vn 0.942035 0 0.3355148
vn 0.942035 0 0.3355148
vn 0.5905387 0 0.8070094
vn 0.5905387 0 0.8070094
g _0
f 3/3/3 2/2/2 1/1/1
f 2/2/2 3/3/3 4/4/4
f 5/5/5 4/4/4 3/3/3
f 4/4/4 5/5/5 6/6/6
f 7/7/7 6/6/6 5/5/5
f 6/6/6 7/7/7 8/8/8
f 9/9/9 8/8/8 7/7/7
f 8/8/8 9/9/9 10/10/10
f 11/11/11 10/10/10 9/9/9
f 10/10/10 11/11/11 12/12/12
f 13/13/13 12/12/12 11/11/11
f 12/12/12 13/13/13 14/14/14
f 15/15/15 14/14/14 13/13/13
f 14/14/14 15/15/15 16/16/16
f 17/17/17 16/16/16 15/15/15
f 16/16/16 17/17/17 18/18/18
f 19/19/19 18/18/18 17/17/17
f 18/18/18 19/19/19 20/20/20
f 21/21/21 20/20/20 19/19/19
f 20/20/20 21/21/21 22/22/22
f 23/23/23 22/22/22 21/21/21
f 22/22/22 23/23/23 24/24/24
f 25/25/25 24/24/24 23/23/23
f 24/24/24 25/25/25 26/26/26
f 27/27/27 26/26/26 25/25/25
f 26/26/26 27/27/27 28/28/28
g _1
f 29/29/29 30/30/30 31/31/31
f 32/32/32 31/31/31 30/30/30
f 33/33/33 34/34/34 35/35/35
f 36/36/36 35/35/35 34/34/34
f 37/37/37 38/38/38 39/39/39
f 40/40/40 39/39/39 38/38/38
f 41/41/41 42/42/42 43/43/43
f 44/44/44 43/43/43 42/42/42
f 45/45/45 46/46/46 47/47/47
f 48/48/48 47/47/47 46/46/46
f 49/49/49 50/50/50 51/51/51
f 52/52/52 51/51/51 50/50/50
f 53/53/53 54/54/54 55/55/55
f 56/56/56 55/55/55 54/54/54
f 57/57/57 58/58/58 59/59/59
f 60/60/60 59/59/59 58/58/58
f 61/61/61 62/62/62 63/63/63
f 64/64/64 63/63/63 62/62/62
f 65/65/65 66/66/66 67/67/67
f 68/68/68 67/67/67 66/66/66
f 69/69/69 70/70/70 71/71/71
f 72/72/72 71/71/71 70/70/70
f 73/73/73 74/74/74 75/75/75
f 76/76/76 75/75/75 74/74/74
f 77/77/77 78/78/78 79/79/79
f 80/80/80 79/79/79 78/78/78
f 83/83/83 82/82/82 81/81/81
f 82/82/82 83/83/83 84/84/84
f 87/87/87 86/86/86 85/85/85
f 86/86/86 87/87/87 88/88/88
f 91/91/91 90/90/90 89/89/89
f 90/90/90 91/91/91 92/92/92
f 95/95/95 94/94/94 93/93/93
f 94/94/94 95/95/95 96/96/96
f 99/99/99 98/98/98 97/97/97
f 98/98/98 99/99/99 100/100/100
f 103/103/103 102/102/102 101/101/101
f 102/102/102 103/103/103 104/104/104
f 107/107/107 106/106/106 105/105/105
f 106/106/106 107/107/107 108/108/108
f 111/111/111 110/110/110 109/109/109
f 110/110/110 111/111/111 112/112/112
f 115/115/115 114/114/114 113/113/113
f 114/114/114 115/115/115 116/116/116
f 119/119/119 118/118/118 117/117/117
f 118/118/118 119/119/119 120/120/120
f 123/123/123 122/122/122 121/121/121
f 122/122/122 123/123/123 124/124/124
f 127/127/127 126/126/126 125/125/125
f 126/126/126 127/127/127 128/128/128
f 131/131/131 130/130/130 129/129/129
f 130/130/130 131/131/131 132/132/132
f 81/81/81 30/30/30 29/29/29
f 30/30/30 81/81/81 82/82/82
f 79/79/79 80/80/80 131/131/131
f 132/132/132 131/131/131 80/80/80
