g 
v 6.596258 25.83 67.58949
v -36.52599 25.83 69.07971
v 22.85535 25.83 55.69828
v -53.56718 25.83 58.33929
v 31.01753 25.83 28.0648
v -63.61753 25.83 31.3352
v 27.9763 25.83 19.57947
v -61.18129 25.83 22.31407
v 24.15586 25.83 10.72039
v -57.88901 25.83 11.73504
v 18.49767 25.83 2.693497
v -52.18277 25.83 0.3779049
v 14.63148 25.83 -5.204832
v -47.09813 25.83 -10.99795
v 12.77795 25.83 -14.96582
v -42.85573 25.83 -20.40131
v 10.72379 25.83 -23.94213
v -39.40523 25.83 -31.00328
v 7.961189 25.83 -29.82733
v -32.64788 25.83 -43.81261
v 6.684606 25.83 -35.81816
v -23.11875 25.83 -54.68969
v 9.82477 25.83 -42.87304
v -14.28564 25.83 -62.70906
v 15.8335 25.83 -49.92992
v -7.598696 25.83 -70.5627
v 21.52559 25.83 -56.22954
v -0.1144896 25.83 -78.73479
v 28.26323 25.83 -61.86001
v 8.246717 25.83 -85.82078
v 35.63179 25.83 -67.96812
v 16.09752 25.83 -92.32363
v 43.40077 25.83 -73.9975
v 24.03003 25.83 -98.48328
v 51.45512 25.36259 -80.81366
v 31.25641 25.36259 -103.9882
v 57.95695 23.02555 -88.59145
v 38.3522 23.02555 -109.0595
v 62.91012 19.31746 -96.05986
v 45.75948 19.31746 -113.6052
v 67.88826 15.78074 -103.499
v 53.20598 15.78074 -118.3794
v 73.70525 13.4437 -110.9469
v 60.68513 13.4437 -124.0966
v 74.28564 13.21 -111.6904
v 61.43436 13.21 -124.6696
v 76.79582 13.21 -116.6492
v 66.41776 13.21 -127.1305
v 76.08673 13.21 -120.4694
v 70.23077 13.21 -126.3836
v 6.596258 25.83 67.58949
v 6.596258 -4.17 67.58949
v 22.85535 25.83 55.69828
v 22.85535 -4.17 55.69828
v 22.85535 25.83 55.69828
v 22.85535 -4.17 55.69828
v 31.01753 25.83 28.0648
v 31.01753 -4.17 28.0648
v 31.01753 25.83 28.0648
v 31.01753 -4.17 28.0648
v 27.9763 25.83 19.57947
v 27.9763 -4.17 19.57947
v 27.9763 25.83 19.57947
v 27.9763 -4.17 19.57947
v 24.15586 25.83 10.72039
v 24.15586 -4.17 10.72039
v 24.15586 25.83 10.72039
v 24.15586 -4.17 10.72039
v 18.49767 25.83 2.693497
v 18.49767 -4.17 2.693497
v 18.49767 25.83 2.693497
v 18.49767 -4.17 2.693497
v 14.63148 25.83 -5.204832
v 14.63148 -4.17 -5.204832
v 14.63148 25.83 -5.204832
v 14.63148 -4.17 -5.204832
v 12.77795 25.83 -14.96582
v 12.77795 -4.17 -14.96582
v 12.77795 25.83 -14.96582
v 12.77795 -4.17 -14.96582
v 10.72379 25.83 -23.94213
v 10.72379 -4.17 -23.94213
v 10.72379 25.83 -23.94213
v 10.72379 -4.17 -23.94213
v 7.961189 25.83 -29.82733
v 7.961189 -4.17 -29.82733
v 7.961189 25.83 -29.82733
v 7.961189 -4.17 -29.82733
v 6.684606 25.83 -35.81816
v 6.684606 -4.17 -35.81816
v 6.684606 25.83 -35.81816
v 6.684606 -4.17 -35.81816
v 9.82477 25.83 -42.87304
v 9.82477 -4.17 -42.87304
v 9.82477 25.83 -42.87304
v 9.82477 -4.17 -42.87304
v 15.8335 25.83 -49.92992
v 15.8335 -4.17 -49.92992
v 15.8335 25.83 -49.92992
v 15.8335 -4.17 -49.92992
v 21.52559 25.83 -56.22954
v 21.52559 -4.17 -56.22954
v 21.52559 25.83 -56.22954
v 21.52559 -4.17 -56.22954
v 28.26323 25.83 -61.86001
v 28.26323 -4.17 -61.86001
v 28.26323 25.83 -61.86001
v 28.26323 -4.17 -61.86001
v 35.63179 25.83 -67.96812
v 35.63179 -4.17 -67.96812
v 35.63179 25.83 -67.96812
v 35.63179 -4.17 -67.96812
v 43.40077 25.83 -73.9975
v 43.40077 -4.17 -73.9975
v 43.40077 25.83 -73.9975
v 43.40077 -4.17 -73.9975
v 51.45512 25.36259 -80.81366
v 51.45512 -4.637407 -80.81366
v 51.45512 25.36259 -80.81366
v 51.45512 -4.637407 -80.81366
v 57.95695 23.02555 -88.59145
v 57.95695 -6.974445 -88.59145
v 57.95695 23.02555 -88.59145
v 57.95695 -6.974445 -88.59145
v 62.91012 19.31746 -96.05986
v 62.91012 -10.68254 -96.05986
v 62.91012 19.31746 -96.05986
v 62.91012 -10.68254 -96.05986
v 67.88826 15.78074 -103.499
v 67.88826 -14.21926 -103.499
v 67.88826 15.78074 -103.499
v 67.88826 -14.21926 -103.499
v 73.70525 13.4437 -110.9469
v 73.70525 -16.5563 -110.9469
v 73.70525 13.4437 -110.9469
v 73.70525 -16.5563 -110.9469
v 74.28564 13.21 -111.6904
v 74.28564 -16.79 -111.6904
v 74.28564 13.21 -111.6904
v 74.28564 -16.79 -111.6904
v 76.79582 13.21 -116.6492
v 76.79582 -16.79 -116.6492
v 76.79582 13.21 -116.6492
v 76.79582 -16.79 -116.6492
v 76.08673 13.21 -120.4694
v 76.08673 -16.79 -120.4694
v -36.52599 25.83 69.07971
v -36.52599 -4.17 69.07971
v -53.56718 25.83 58.33929
v -53.56718 -4.17 58.33929
v -53.56718 25.83 58.33929
v -53.56718 -4.17 58.33929
v -63.61753 25.83 31.3352
v -63.61753 -4.17 31.3352
v -63.61753 25.83 31.3352
v -63.61753 -4.17 31.3352
v -61.18129 25.83 22.31407
v -61.18129 -4.17 22.31407
v -61.18129 25.83 22.31407
v -61.18129 -4.17 22.31407
v -57.88901 25.83 11.73504
v -57.88901 -4.17 11.73504
v -57.88901 25.83 11.73504
v -57.88901 -4.17 11.73504
v -52.18277 25.83 0.3779049
v -52.18277 -4.17 0.3779049
v -52.18277 25.83 0.3779049
v -52.18277 -4.17 0.3779049
v -47.09813 25.83 -10.99795
v -47.09813 -4.17 -10.99795
v -47.09813 25.83 -10.99795
v -47.09813 -4.17 -10.99795
v -42.85573 25.83 -20.40131
v -42.85573 -4.17 -20.40131
v -42.85573 25.83 -20.40131
v -42.85573 -4.17 -20.40131
v -39.40523 25.83 -31.00328
v -39.40523 -4.17 -31.00328
v -39.40523 25.83 -31.00328
v -39.40523 -4.17 -31.00328
v -32.64788 25.83 -43.81261
v -32.64788 -4.17 -43.81261
v -32.64788 25.83 -43.81261
v -32.64788 -4.17 -43.81261
v -23.11875 25.83 -54.68969
v -23.11875 -4.17 -54.68969
v -23.11875 25.83 -54.68969
v -23.11875 -4.17 -54.68969
v -14.28564 25.83 -62.70906
v -14.28564 -4.17 -62.70906
v -14.28564 25.83 -62.70906
v -14.28564 -4.17 -62.70906
v -7.598696 25.83 -70.5627
v -7.598696 -4.17 -70.5627
v -7.598696 25.83 -70.5627
v -7.598696 -4.17 -70.5627
v -0.1144896 25.83 -78.73479
v -0.1144896 -4.17 -78.73479
v -0.1144896 25.83 -78.73479
v -0.1144896 -4.17 -78.73479
v 8.246717 25.83 -85.82078
v 8.246717 -4.17 -85.82078
v 8.246717 25.83 -85.82078
v 8.246717 -4.17 -85.82078
v 16.09752 25.83 -92.32363
v 16.09752 -4.17 -92.32363
v 16.09752 25.83 -92.32363
v 16.09752 -4.17 -92.32363
v 24.03003 25.83 -98.48328
v 24.03003 -4.17 -98.48328
v 24.03003 25.83 -98.48328
v 24.03003 -4.17 -98.48328
v 31.25641 25.36259 -103.9882
v 31.25641 -4.637407 -103.9882
v 31.25641 25.36259 -103.9882
v 31.25641 -4.637407 -103.9882
v 38.3522 23.02555 -109.0595
v 38.3522 -6.974445 -109.0595
v 38.3522 23.02555 -109.0595
v 38.3522 -6.974445 -109.0595
v 45.75948 19.31746 -113.6052
v 45.75948 -10.68254 -113.6052
v 45.75948 19.31746 -113.6052
v 45.75948 -10.68254 -113.6052
v 53.20598 15.78074 -118.3794
v 53.20598 -14.21926 -118.3794
v 53.20598 15.78074 -118.3794
v 53.20598 -14.21926 -118.3794
v 60.68513 13.4437 -124.0966
v 60.68513 -16.5563 -124.0966
v 60.68513 13.4437 -124.0966
v 60.68513 -16.5563 -124.0966
v 61.43436 13.21 -124.6696
v 61.43436 -16.79 -124.6696
v 61.43436 13.21 -124.6696
v 61.43436 -16.79 -124.6696
v 66.41776 13.21 -127.1305
v 66.41776 -16.79 -127.1305
v 66.41776 13.21 -127.1305
v 66.41776 -16.79 -127.1305
v 70.23077 13.21 -126.3836
v 70.23077 -16.79 -126.3836
vt -0.3344662 -0.05188983
vt -0.3647878 -0.02119214
vt -0.3147031 -0.0557859
vt -0.36844 -0.001382523
vt -0.2888524 -0.04305909
vt -0.3553955 0.02430935
vt -0.2846743 -0.03507199
vt -0.3471111 0.02863201
vt -0.2807495 -0.02625864
vt -0.3371011 0.03338108
vt -0.2786822 -0.01665801
vt -0.3248828 0.03688254
vt -0.2754948 -0.008462158
vt -0.3130721 0.04085374
vt -0.2695738 -0.000483808
vt -0.3032826 0.04410738
vt -0.2643658 0.00711026
vt -0.2931484 0.04875566
vt -0.2619107 0.01313026
vt -0.27915 0.05246846
vt -0.2583709 0.01812918
vt -0.2646938 0.05283359
vt -0.2510552 0.02060163
vt -0.2528105 0.05177371
vt -0.2417939 0.02096619
vt -0.2425037 0.05217957
vt -0.2333041 0.02105034
vt -0.2314225 0.05221504
vt -0.2245976 0.01991219
vt -0.2205454 0.05086956
vt -0.2151123 0.01863384
vt -0.210443 0.04950416
vt -0.2054135 0.01700771
vt -0.2005376 0.04784607
vt -0.1949428 0.01570498
vt -0.1915922 0.04626343
vt -0.1848173 0.01619556
vt -0.1830542 0.04448295
vt -0.1759688 0.01761517
vt -0.1746915 0.04211728
vt -0.1671249 0.01899661
vt -0.1661342 0.03987753
vt -0.157706 0.01976714
vt -0.1568614 0.03825295
vt -0.156766 0.01984427
vt -0.1559323 0.03809041
vt -0.1514186 0.02135933
vt -0.1507453 0.036094
vt -0.1490901 0.02446988
vt -0.1487102 0.03278408
vt -0.3344662 -0.05188983
vt -0.3344662 -0.05188983
vt -0.3147031 -0.0557859
vt -0.3147031 -0.0557859
vt -0.3147031 -0.0557859
vt -0.3147031 -0.0557859
vt -0.2888524 -0.04305909
vt -0.2888524 -0.04305909
vt -0.2888524 -0.04305909
vt -0.2888524 -0.04305909
vt -0.2846743 -0.03507199
vt -0.2846743 -0.03507199
vt -0.2846743 -0.03507199
vt -0.2846743 -0.03507199
vt -0.2807495 -0.02625864
vt -0.2807495 -0.02625864
vt -0.2807495 -0.02625864
vt -0.2807495 -0.02625864
vt -0.2786822 -0.01665801
vt -0.2786822 -0.01665801
vt -0.2786822 -0.01665801
vt -0.2786822 -0.01665801
vt -0.2754948 -0.008462158
vt -0.2754948 -0.008462158
vt -0.2754948 -0.008462158
vt -0.2754948 -0.008462158
vt -0.2695738 -0.000483808
vt -0.2695738 -0.000483808
vt -0.2695738 -0.000483808
vt -0.2695738 -0.000483808
vt -0.2643658 0.00711026
vt -0.2643658 0.00711026
vt -0.2643658 0.00711026
vt -0.2643658 0.00711026
vt -0.2619107 0.01313026
vt -0.2619107 0.01313026
vt -0.2619107 0.01313026
vt -0.2619107 0.01313026
vt -0.2583709 0.01812918
vt -0.2583709 0.01812918
vt -0.2583709 0.01812918
vt -0.2583709 0.01812918
vt -0.2510552 0.02060163
vt -0.2510552 0.02060163
vt -0.2510552 0.02060163
vt -0.2510552 0.02060163
vt -0.2417939 0.02096619
vt -0.2417939 0.02096619
vt -0.2417939 0.02096619
vt -0.2417939 0.02096619
vt -0.2333041 0.02105034
vt -0.2333041 0.02105034
vt -0.2333041 0.02105034
vt -0.2333041 0.02105034
vt -0.2245976 0.01991219
vt -0.2245976 0.01991219
vt -0.2245976 0.01991219
vt -0.2245976 0.01991219
vt -0.2151123 0.01863384
vt -0.2151123 0.01863384
vt -0.2151123 0.01863384
vt -0.2151123 0.01863384
vt -0.2054135 0.01700771
vt -0.2054135 0.01700771
vt -0.2054135 0.01700771
vt -0.2054135 0.01700771
vt -0.1949428 0.01570498
vt -0.1949428 0.01570498
vt -0.1949428 0.01570498
vt -0.1949428 0.01570498
vt -0.1848173 0.01619556
vt -0.1848173 0.01619556
vt -0.1848173 0.01619556
vt -0.1848173 0.01619556
vt -0.1759688 0.01761517
vt -0.1759688 0.01761517
vt -0.1759688 0.01761517
vt -0.1759688 0.01761517
vt -0.1671249 0.01899661
vt -0.1671249 0.01899661
vt -0.1671249 0.01899661
vt -0.1671249 0.01899661
vt -0.157706 0.01976714
vt -0.157706 0.01976714
vt -0.157706 0.01976714
vt -0.157706 0.01976714
vt -0.156766 0.01984427
vt -0.156766 0.01984427
vt -0.156766 0.01984427
vt -0.156766 0.01984427
vt -0.1514186 0.02135933
vt -0.1514186 0.02135933
vt -0.1514186 0.02135933
vt -0.1514186 0.02135933
vt -0.1490901 0.02446988
vt -0.1490901 0.02446988
vt -0.3647878 -0.02119214
vt -0.3647878 -0.02119214
vt -0.36844 -0.001382523
vt -0.36844 -0.001382523
vt -0.36844 -0.001382523
vt -0.36844 -0.001382523
vt -0.3553955 0.02430935
vt -0.3553955 0.02430935
vt -0.3553955 0.02430935
vt -0.3553955 0.02430935
vt -0.3471111 0.02863201
vt -0.3471111 0.02863201
vt -0.3471111 0.02863201
vt -0.3471111 0.02863201
vt -0.3371011 0.03338108
vt -0.3371011 0.03338108
vt -0.3371011 0.03338108
vt -0.3371011 0.03338108
vt -0.3248828 0.03688254
vt -0.3248828 0.03688254
vt -0.3248828 0.03688254
vt -0.3248828 0.03688254
vt -0.3130721 0.04085374
vt -0.3130721 0.04085374
vt -0.3130721 0.04085374
vt -0.3130721 0.04085374
vt -0.3032826 0.04410738
vt -0.3032826 0.04410738
vt -0.3032826 0.04410738
vt -0.3032826 0.04410738
vt -0.2931484 0.04875566
vt -0.2931484 0.04875566
vt -0.2931484 0.04875566
vt -0.2931484 0.04875566
vt -0.27915 0.05246846
vt -0.27915 0.05246846
vt -0.27915 0.05246846
vt -0.27915 0.05246846
vt -0.2646938 0.05283359
vt -0.2646938 0.05283359
vt -0.2646938 0.05283359
vt -0.2646938 0.05283359
vt -0.2528105 0.05177371
vt -0.2528105 0.05177371
vt -0.2528105 0.05177371
vt -0.2528105 0.05177371
vt -0.2425037 0.05217957
vt -0.2425037 0.05217957
vt -0.2425037 0.05217957
vt -0.2425037 0.05217957
vt -0.2314225 0.05221504
vt -0.2314225 0.05221504
vt -0.2314225 0.05221504
vt -0.2314225 0.05221504
vt -0.2205454 0.05086956
vt -0.2205454 0.05086956
vt -0.2205454 0.05086956
vt -0.2205454 0.05086956
vt -0.210443 0.04950416
vt -0.210443 0.04950416
vt -0.210443 0.04950416
vt -0.210443 0.04950416
vt -0.2005376 0.04784607
vt -0.2005376 0.04784607
vt -0.2005376 0.04784607
vt -0.2005376 0.04784607
vt -0.1915922 0.04626343
vt -0.1915922 0.04626343
vt -0.1915922 0.04626343
vt -0.1915922 0.04626343
vt -0.1830542 0.04448295
vt -0.1830542 0.04448295
vt -0.1830542 0.04448295
vt -0.1830542 0.04448295
vt -0.1746915 0.04211728
vt -0.1746915 0.04211728
vt -0.1746915 0.04211728
vt -0.1746915 0.04211728
vt -0.1661342 0.03987753
vt -0.1661342 0.03987753
vt -0.1661342 0.03987753
vt -0.1661342 0.03987753
vt -0.1568614 0.03825295
vt -0.1568614 0.03825295
vt -0.1568614 0.03825295
vt -0.1568614 0.03825295
vt -0.1559323 0.03809041
vt -0.1559323 0.03809041
vt -0.1559323 0.03809041
vt -0.1559323 0.03809041
vt -0.1507453 0.036094
vt -0.1507453 0.036094
vt -0.1507453 0.036094
vt -0.1507453 0.036094
vt -0.1487102 0.03278408
vt -0.1487102 0.03278408
vn 0 1 0
vn 0 1 0
vn 0 1 0
vn 0 1 0
vn 0 1 0
vn 0 1 0
vn 0 1 0
vn 0 1 0
vn 0 1 0
vn 0 1 0
vn 0 1 0
vn 0 1 0
vn 0 1 0
vn 0 1 0
vn 0 1 0
vn 0 1 0
vn 0 1 0
vn 0 1 0
vn 0 1 0
vn 0 1 0
vn 0 1 0
vn 0 1 0
vn 0 1 0
vn 0 1 0
vn 0 1 0
vn 0 1 0
vn 0 1 0
vn 0 1 0
vn 0 1 0
vn 0 1 0
vn 0 1 0
vn 0 1 0
vn 0 1 0
vn 0 1 0
vn 0 1 0
vn 0 1 0
vn 0 1 0
vn 0 1 0
vn 0 1 0
vn 0 1 0
vn 0 1 0
vn 0 1 0
vn 0 1 0
vn 0 1 0
vn 0 1 0
vn 0 1 0
vn 0 1 0
vn 0 1 0
vn 0 1 0
vn 0 1 0
vn 0.0345374 0 0.9994034
vn 0.0345374 0 0.9994034
vn 0.5903261 0 0.8071648
vn 0.5903261 0 0.8071648
vn 0.959039 0 0.2832741
vn 0.959039 0 0.2832741
vn 0.959039 0 0.2832741
vn 0.959039 0 0.2832741
vn 0.9413635 0 -0.3373941
vn 0.9413635 0 -0.3373941
vn 0.9413635 0 -0.3373941
vn 0.9413635 0 -0.3373941
vn 0.9182538 0 -0.3959924
vn 0.9182538 0 -0.3959924
vn 0.9182538 0 -0.3959924
vn 0.9182538 0 -0.3959924
vn 0.817344 0 -0.5761501
vn 0.817344 0 -0.5761501
vn 0.817344 0 -0.5761501
vn 0.817344 0 -0.5761501
vn 0.8981697 0 -0.439649
vn 0.8981697 0 -0.439649
vn 0.8981697 0 -0.439649
vn 0.8981697 0 -0.439649
vn 0.982444 0 -0.1865576
vn 0.982444 0 -0.1865576
vn 0.982444 0 -0.1865576
vn 0.982444 0 -0.1865576
vn 0.9748011 0 -0.2230761
vn 0.9748011 0 -0.2230761
vn 0.9748011 0 -0.2230761
vn 0.9748011 0 -0.2230761
vn 0.9052274 0 -0.4249275
vn 0.9052274 0 -0.4249275
vn 0.9052274 0 -0.4249275
vn 0.9052274 0 -0.4249275
vn 0.9780415 0 -0.2084104
vn 0.9780415 0 -0.2084104
vn 0.9780415 0 -0.2084104
vn 0.9780415 0 -0.2084104
vn 0.9135874 0 0.4066425
vn 0.9135874 0 0.4066425
vn 0.9135874 0 0.4066425
vn 0.9135874 0 0.4066425
vn 0.7613865 0 0.6482983
vn 0.7613865 0 0.6482983
vn 0.7613865 0 0.6482983
vn 0.7613865 0 0.6482983
vn 0.7419784 0 0.6704237
vn 0.7419784 0 0.6704237
vn 0.7419784 0 0.6704237
vn 0.7419784 0 0.6704237
vn 0.6412441 0 0.767337
vn 0.6412441 0 0.767337
vn 0.6412441 0 0.767337
vn 0.6412441 0 0.767337
vn 0.6381867 0 0.7698815
vn 0.6381867 0 0.7698815
vn 0.6381867 0 0.7698815
vn 0.6381867 0 0.7698815
vn 0.6131066 0 0.7900001
vn 0.6131066 0 0.7900001
vn 0.6131066 0 0.7900001
vn 0.6131066 0 0.7900001
vn 0.6459944 0 0.7633421
vn 0.6459944 0 0.7633421
vn 0.6459944 0 0.7633421
vn 0.6459944 0 0.7633421
vn 0.7672338 0 0.6413676
vn 0.7672338 0 0.6413676
vn 0.7672338 0 0.6413676
vn 0.7672338 0 0.6413676
vn 0.833375 0 0.552708
vn 0.833375 0 0.552708
vn 0.833375 0 0.552708
vn 0.833375 0 0.552708
vn 0.8310848 0 0.5561457
vn 0.8310848 0 0.5561457
vn 0.8310848 0 0.5561457
vn 0.8310848 0 0.5561457
vn 0.788109 0 0.6155358
vn 0.788109 0 0.6155358
vn 0.788109 0 0.6155358
vn 0.788109 0 0.6155358
vn 0.7882621 0 0.6153396
vn 0.7882621 0 0.6153396
vn 0.7882621 0 0.6153396
vn 0.7882621 0 0.6153396
vn 0.8922004 0 0.4516398
vn 0.8922004 0 0.4516398
vn 0.8922004 0 0.4516398
vn 0.8922004 0 0.4516398
vn 0.9832066 0 -0.1824963
vn 0.9832066 0 -0.1824963
vn 0.710598 0 -0.7035983
vn 0.710598 0 -0.7035983
vn 0.0345374 0 0.9994034
vn 0.0345374 0 0.9994034
vn -0.5331962 0 0.8459916
vn -0.5331962 0 0.8459916
vn -0.9371957 0 0.348804
vn -0.9371957 0 0.348804
vn -0.9371957 0 0.348804
vn -0.9371957 0 0.348804
vn -0.9654146 0 -0.2607194
vn -0.9654146 0 -0.2607194
vn -0.9654146 0 -0.2607194
vn -0.9654146 0 -0.2607194
vn -0.9548306 0 -0.2971507
vn -0.9548306 0 -0.2971507
vn -0.9548306 0 -0.2971507
vn -0.9548306 0 -0.2971507
vn -0.8935547 0 -0.4489542
vn -0.8935547 0 -0.4489542
vn -0.8935547 0 -0.4489542
vn -0.8935547 0 -0.4489542
vn -0.9129545 0 -0.4080614
vn -0.9129545 0 -0.4080614
vn -0.9129545 0 -0.4080614
vn -0.9129545 0 -0.4080614
vn -0.9115261 0 -0.4112423
vn -0.9115261 0 -0.4112423
vn -0.9115261 0 -0.4112423
vn -0.9115261 0 -0.4112423
vn -0.9509058 0 -0.3094805
vn -0.9509058 0 -0.3094805
vn -0.9509058 0 -0.3094805
vn -0.9509058 0 -0.3094805
vn -0.884474 0 -0.4665895
vn -0.884474 0 -0.4665895
vn -0.884474 0 -0.4665895
vn -0.884474 0 -0.4665895
vn -0.7521763 0 -0.6589619
vn -0.7521763 0 -0.6589619
vn -0.7521763 0 -0.6589619
vn -0.7521763 0 -0.6589619
vn -0.6721799 0 -0.7403878
vn -0.6721799 0 -0.7403878
vn -0.6721799 0 -0.7403878
vn -0.6721799 0 -0.7403878
vn -0.7613962 0 -0.6482869
vn -0.7613962 0 -0.6482869
vn -0.7613962 0 -0.6482869
vn -0.7613962 0 -0.6482869
vn -0.7374631 0 -0.6753874
vn -0.7374631 0 -0.6753874
vn -0.7374631 0 -0.6753874
vn -0.7374631 0 -0.6753874
vn -0.6465335 0 -0.7628856
vn -0.6465335 0 -0.7628856
vn -0.6465335 0 -0.7628856
vn -0.6465335 0 -0.7628856
vn -0.6378959 0 -0.7701226
vn -0.6378959 0 -0.7701226
vn -0.6378959 0 -0.7701226
vn -0.6378959 0 -0.7701226
vn -0.613315 0 -0.7898384
vn -0.613315 0 -0.7898384
vn -0.613315 0 -0.7898384
vn -0.613315 0 -0.7898384
vn -0.6059781 0 -0.7954813
vn -0.6059781 0 -0.7954813
vn -0.6059781 0 -0.7954813
vn -0.6059781 0 -0.7954813
vn -0.5814562 0 -0.8135777
vn -0.5814562 0 -0.8135777
vn -0.5814562 0 -0.8135777
vn -0.5814562 0 -0.8135777
vn -0.5230494 0 -0.8523023
vn -0.5230494 0 -0.8523023
vn -0.5230494 0 -0.8523023
vn -0.5230494 0 -0.8523023
vn -0.5397264 0 -0.8418405
vn -0.5397264 0 -0.8418405
vn -0.5397264 0 -0.8418405
vn -0.5397264 0 -0.8418405
vn -0.6073082 0 -0.7944664
vn -0.6073082 0 -0.7944664
vn -0.6073082 0 -0.7944664
vn -0.6073082 0 -0.7944664
vn -0.607501 0 -0.7943189
vn -0.607501 0 -0.7943189
vn -0.607501 0 -0.7943189
vn -0.607501 0 -0.7943189
vn -0.442777 0 -0.8966318
vn -0.442777 0 -0.8966318
vn -0.442777 0 -0.8966318
vn -0.442777 0 -0.8966318
vn 0.1922309 0 -0.9813498
vn 0.1922309 0 -0.9813498
vn 0.710598 0 -0.7035983
vn 0.710598 0 -0.7035983
g _0
f 3/3/3 2/2/2 1/1/1
f 2/2/2 3/3/3 4/4/4
f 5/5/5 4/4/4 3/3/3
f 4/4/4 5/5/5 6/6/6
f 7/7/7 6/6/6 5/5/5
f 6/6/6 7/7/7 8/8/8
f 9/9/9 8/8/8 7/7/7
f 8/8/8 9/9/9 10/10/10
f 11/11/11 10/10/10 9/9/9
f 10/10/10 11/11/11 12/12/12
f 13/13/13 12/12/12 11/11/11
f 12/12/12 13/13/13 14/14/14
f 15/15/15 14/14/14 13/13/13
f 14/14/14 15/15/15 16/16/16
f 17/17/17 16/16/16 15/15/15
f 16/16/16 17/17/17 18/18/18
f 19/19/19 18/18/18 17/17/17
f 18/18/18 19/19/19 20/20/20
f 21/21/21 20/20/20 19/19/19
f 20/20/20 21/21/21 22/22/22
f 23/23/23 22/22/22 21/21/21
f 22/22/22 23/23/23 24/24/24
f 25/25/25 24/24/24 23/23/23
f 24/24/24 25/25/25 26/26/26
f 27/27/27 26/26/26 25/25/25
f 26/26/26 27/27/27 28/28/28
f 29/29/29 28/28/28 27/27/27
f 28/28/28 29/29/29 30/30/30
f 31/31/31 30/30/30 29/29/29
f 30/30/30 31/31/31 32/32/32
f 33/33/33 32/32/32 31/31/31
f 32/32/32 33/33/33 34/34/34
f 35/35/35 34/34/34 33/33/33
f 34/34/34 35/35/35 36/36/36
f 37/37/37 36/36/36 35/35/35
f 36/36/36 37/37/37 38/38/38
f 39/39/39 38/38/38 37/37/37
f 38/38/38 39/39/39 40/40/40
f 41/41/41 40/40/40 39/39/39
f 40/40/40 41/41/41 42/42/42
f 43/43/43 42/42/42 41/41/41
f 42/42/42 43/43/43 44/44/44
f 45/45/45 44/44/44 43/43/43
f 44/44/44 45/45/45 46/46/46
f 47/47/47 46/46/46 45/45/45
f 46/46/46 47/47/47 48/48/48
f 49/49/49 48/48/48 47/47/47
f 48/48/48 49/49/49 50/50/50
g _1
f 51/51/51 52/52/52 53/53/53
f 54/54/54 53/53/53 52/52/52
f 55/55/55 56/56/56 57/57/57
f 58/58/58 57/57/57 56/56/56
f 59/59/59 60/60/60 61/61/61
f 62/62/62 61/61/61 60/60/60
f 63/63/63 64/64/64 65/65/65
f 66/66/66 65/65/65 64/64/64
f 67/67/67 68/68/68 69/69/69
f 70/70/70 69/69/69 68/68/68
f 71/71/71 72/72/72 73/73/73
f 74/74/74 73/73/73 72/72/72
f 75/75/75 76/76/76 77/77/77
f 78/78/78 77/77/77 76/76/76
f 79/79/79 80/80/80 81/81/81
f 82/82/82 81/81/81 80/80/80
f 83/83/83 84/84/84 85/85/85
f 86/86/86 85/85/85 84/84/84
f 87/87/87 88/88/88 89/89/89
f 90/90/90 89/89/89 88/88/88
f 91/91/91 92/92/92 93/93/93
f 94/94/94 93/93/93 92/92/92
f 95/95/95 96/96/96 97/97/97
f 98/98/98 97/97/97 96/96/96
f 99/99/99 100/100/100 101/101/101
f 102/102/102 101/101/101 100/100/100
f 103/103/103 104/104/104 105/105/105
f 106/106/106 105/105/105 104/104/104
f 107/107/107 108/108/108 109/109/109
f 110/110/110 109/109/109 108/108/108
f 111/111/111 112/112/112 113/113/113
f 114/114/114 113/113/113 112/112/112
f 115/115/115 116/116/116 117/117/117
f 118/118/118 117/117/117 116/116/116
f 119/119/119 120/120/120 121/121/121
f 122/122/122 121/121/121 120/120/120
f 123/123/123 124/124/124 125/125/125
f 126/126/126 125/125/125 124/124/124
f 127/127/127 128/128/128 129/129/129
f 130/130/130 129/129/129 128/128/128
f 131/131/131 132/132/132 133/133/133
f 134/134/134 133/133/133 132/132/132
f 135/135/135 136/136/136 137/137/137
f 138/138/138 137/137/137 136/136/136
f 139/139/139 140/140/140 141/141/141
f 142/142/142 141/141/141 140/140/140
f 143/143/143 144/144/144 145/145/145
f 146/146/146 145/145/145 144/144/144
f 149/149/149 148/148/148 147/147/147
f 148/148/148 149/149/149 150/150/150
f 153/153/153 152/152/152 151/151/151
f 152/152/152 153/153/153 154/154/154
f 157/157/157 156/156/156 155/155/155
f 156/156/156 157/157/157 158/158/158
f 161/161/161 160/160/160 159/159/159
f 160/160/160 161/161/161 162/162/162
f 165/165/165 164/164/164 163/163/163
f 164/164/164 165/165/165 166/166/166
f 169/169/169 168/168/168 167/167/167
f 168/168/168 169/169/169 170/170/170
f 173/173/173 172/172/172 171/171/171
f 172/172/172 173/173/173 174/174/174
f 177/177/177 176/176/176 175/175/175
f 176/176/176 177/177/177 178/178/178
f 181/181/181 180/180/180 179/179/179
f 180/180/180 181/181/181 182/182/182
f 185/185/185 184/184/184 183/183/183
f 184/184/184 185/185/185 186/186/186
f 189/189/189 188/188/188 187/187/187
f 188/188/188 189/189/189 190/190/190
f 193/193/193 192/192/192 191/191/191
f 192/192/192 193/193/193 194/194/194
f 197/197/197 196/196/196 195/195/195
f 196/196/196 197/197/197 198/198/198
f 201/201/201 200/200/200 199/199/199
f 200/200/200 201/201/201 202/202/202
f 205/205/205 204/204/204 203/203/203
f 204/204/204 205/205/205 206/206/206
f 209/209/209 208/208/208 207/207/207
f 208/208/208 209/209/209 210/210/210
f 213/213/213 212/212/212 211/211/211
f 212/212/212 213/213/213 214/214/214
f 217/217/217 216/216/216 215/215/215
f 216/216/216 217/217/217 218/218/218
f 221/221/221 220/220/220 219/219/219
f 220/220/220 221/221/221 222/222/222
f 225/225/225 224/224/224 223/223/223
f 224/224/224 225/225/225 226/226/226
f 229/229/229 228/228/228 227/227/227
f 228/228/228 229/229/229 230/230/230
f 233/233/233 232/232/232 231/231/231
f 232/232/232 233/233/233 234/234/234
f 237/237/237 236/236/236 235/235/235
f 236/236/236 237/237/237 238/238/238
f 241/241/241 240/240/240 239/239/239
f 240/240/240 241/241/241 242/242/242
f 147/147/147 52/52/52 51/51/51
f 52/52/52 147/147/147 148/148/148
f 145/145/145 146/146/146 241/241/241
f 242/242/242 241/241/241 146/146/146
