g 
v 94.58887 18.13 -0.8474007
v 99.08858 18.13 9.989185
v 90.20834 18.13 -3.491977
v 97.86973 18.13 14.95881
v 82.33781 18.13 -3.362164
v 92.22218 18.13 20.44217
v 73.79755 21.44321 0.05067921
v 87.14307 21.44321 22.68456
v 63.94263 23.84 7.986609
v 83.02778 23.84 25.36092
v 60.58176 23.84 16.90645
v 80.81823 23.84 27.29355
v 59.15755 23.84 23.7153
v 76.11625 23.84 32.41995
v 61.72526 23.84 28.15638
v 71.01099 23.84 32.92261
v 94.58887 18.13 -0.8474007
v 94.58887 8.129999 -0.8474007
v 90.20834 18.13 -3.491977
v 90.20834 8.129999 -3.491977
v 90.20834 18.13 -3.491977
v 90.20834 8.129999 -3.491977
v 82.33781 18.13 -3.362164
v 82.33781 8.129999 -3.362164
v 82.33781 18.13 -3.362164
v 82.33781 8.129999 -3.362164
v 73.79755 21.44321 0.05067921
v 73.79755 11.44321 0.05067921
v 73.79755 21.44321 0.05067921
v 73.79755 11.44321 0.05067921
v 63.94263 23.84 7.986609
v 63.94263 13.84 7.986609
v 63.94263 23.84 7.986609
v 63.94263 13.84 7.986609
v 60.58176 23.84 16.90645
v 60.58176 13.84 16.90645
v 60.58176 23.84 16.90645
v 60.58176 13.84 16.90645
v 59.15755 23.84 23.7153
v 59.15755 13.84 23.7153
v 59.15755 23.84 23.7153
v 59.15755 13.84 23.7153
v 61.72526 23.84 28.15638
v 61.72526 13.84 28.15638
v 99.08858 18.13 9.989185
v 99.08858 8.129999 9.989185
v 97.86973 18.13 14.95881
v 97.86973 8.129999 14.95881
v 97.86973 18.13 14.95881
v 97.86973 8.129999 14.95881
v 92.22218 18.13 20.44217
v 92.22218 8.129999 20.44217
v 92.22218 18.13 20.44217
v 92.22218 8.129999 20.44217
v 87.14307 21.44321 22.68456
v 87.14307 11.44321 22.68456
v 87.14307 21.44321 22.68456
v 87.14307 11.44321 22.68456
v 83.02778 23.84 25.36092
v 83.02778 13.84 25.36092
v 83.02778 23.84 25.36092
v 83.02778 13.84 25.36092
v 80.81823 23.84 27.29355
v 80.81823 13.84 27.29355
v 80.81823 23.84 27.29355
v 80.81823 13.84 27.29355
v 76.11625 23.84 32.41995
v 76.11625 13.84 32.41995
v 76.11625 23.84 32.41995
v 76.11625 13.84 32.41995
v 71.01099 23.84 32.92261
v 71.01099 13.84 32.92261
vt -0.0436479 0.03125953
vt -0.05357078 0.03752175
vt -0.03854392 0.03162312
vt -0.05543901 0.04228541
vt -0.03218695 0.03626542
vt -0.05398419 0.0500214
vt -0.02717485 0.04397662
vt -0.05112595 0.05478125
vt -0.02369534 0.05614178
vt -0.04930548 0.05934024
vt -0.02608983 0.06536813
vt -0.04861372 0.06219307
vt -0.02885028 0.07175316
vt -0.04772589 0.06909237
vt -0.03350825 0.0739025
vt -0.04384359 0.07244559
vt -0.0436479 0.03125953
vt -0.0436479 0.03125953
vt -0.03854392 0.03162312
vt -0.03854392 0.03162312
vt -0.03854392 0.03162312
vt -0.03854392 0.03162312
vt -0.03218695 0.03626542
vt -0.03218695 0.03626542
vt -0.03218695 0.03626542
vt -0.03218695 0.03626542
vt -0.02717485 0.04397662
vt -0.02717485 0.04397662
vt -0.02717485 0.04397662
vt -0.02717485 0.04397662
vt -0.02369534 0.05614178
vt -0.02369534 0.05614178
vt -0.02369534 0.05614178
vt -0.02369534 0.05614178
vt -0.02608983 0.06536813
vt -0.02608983 0.06536813
vt -0.02608983 0.06536813
vt -0.02608983 0.06536813
vt -0.02885028 0.07175316
vt -0.02885028 0.07175316
vt -0.02885028 0.07175316
vt -0.02885028 0.07175316
vt -0.03350825 0.0739025
vt -0.03350825 0.0739025
vt -0.05357078 0.03752175
vt -0.05357078 0.03752175
vt -0.05543901 0.04228541
vt -0.05543901 0.04228541
vt -0.05543901 0.04228541
vt -0.05543901 0.04228541
vt -0.05398419 0.0500214
vt -0.05398419 0.0500214
vt -0.05398419 0.0500214
vt -0.05398419 0.0500214
vt -0.05112595 0.05478125
vt -0.05112595 0.05478125
vt -0.05112595 0.05478125
vt -0.05112595 0.05478125
vt -0.04930548 0.05934024
vt -0.04930548 0.05934024
vt -0.04930548 0.05934024
vt -0.04930548 0.05934024
vt -0.04861372 0.06219307
vt -0.04861372 0.06219307
vt -0.04861372 0.06219307
vt -0.04861372 0.06219307
vt -0.04772589 0.06909237
vt -0.04772589 0.06909237
vt -0.04772589 0.06909237
vt -0.04772589 0.06909237
vt -0.04384359 0.07244559
vt -0.04384359 0.07244559
vn 0 1 0
vn 0 1 0
vn 0 1 0
vn 0 1 0
vn 0 1 0
vn 0 1 0
vn 0 1 0
vn 0 1 0
vn 0 1 0
vn 0 1 0
vn 0 1 0
vn 0 1 0
vn 0 1 0
vn 0 1 0
vn 0 1 0
vn 0 1 0
vn 0.9235463 0 -0.383487
vn 0.9235463 0 -0.383487
vn 0.51683 0 -0.856088
vn 0.51683 0 -0.856088
vn -0.01649123 0 -0.999864
vn -0.01649123 0 -0.999864
vn -0.01649123 0 -0.999864
vn -0.01649123 0 -0.999864
vn -0.3710848 0 -0.928599
vn -0.3710848 0 -0.928599
vn -0.3710848 0 -0.928599
vn -0.3710848 0 -0.928599
vn -0.6271977 0 -0.77886
vn -0.6271977 0 -0.77886
vn -0.6271977 0 -0.77886
vn -0.6271977 0 -0.77886
vn -0.9357785 0 -0.3525884
vn -0.9357785 0 -0.3525884
vn -0.9357785 0 -0.3525884
vn -0.9357785 0 -0.3525884
vn -0.9788165 0 -0.2047391
vn -0.9788165 0 -0.2047391
vn -0.9788165 0 -0.2047391
vn -0.9788165 0 -0.2047391
vn -0.8657176 0 0.5005327
vn -0.8657176 0 0.5005327
vn -0.4566443 0 0.8896493
vn -0.4566443 0 0.8896493
vn 0.9235463 0 -0.383487
vn 0.9235463 0 -0.383487
vn 0.9712161 0 0.2382002
vn 0.9712161 0 0.2382002
vn 0.6966005 0 0.7174593
vn 0.6966005 0 0.7174593
vn 0.6966005 0 0.7174593
vn 0.6966005 0 0.7174593
vn 0.4038818 0 0.9148112
vn 0.4038818 0 0.9148112
vn 0.4038818 0 0.9148112
vn 0.4038818 0 0.9148112
vn 0.5451931 0 0.8383105
vn 0.5451931 0 0.8383105
vn 0.5451931 0 0.8383105
vn 0.5451931 0 0.8383105
vn 0.6583636 0 0.7527
vn 0.6583636 0 0.7527
vn 0.6583636 0 0.7527
vn 0.6583636 0 0.7527
vn 0.7369553 0 0.6759413
vn 0.7369553 0 0.6759413
vn 0.7369553 0 0.6759413
vn 0.7369553 0 0.6759413
vn 0.0979853 0 0.9951879
vn 0.0979853 0 0.9951879
vn -0.4566443 0 0.8896493
vn -0.4566443 0 0.8896493
g _0
f 3/3/3 2/2/2 1/1/1
f 2/2/2 3/3/3 4/4/4
f 5/5/5 4/4/4 3/3/3
f 4/4/4 5/5/5 6/6/6
f 7/7/7 6/6/6 5/5/5
f 6/6/6 7/7/7 8/8/8
f 9/9/9 8/8/8 7/7/7
f 8/8/8 9/9/9 10/10/10
f 11/11/11 10/10/10 9/9/9
f 10/10/10 11/11/11 12/12/12
f 13/13/13 12/12/12 11/11/11
f 12/12/12 13/13/13 14/14/14
f 15/15/15 14/14/14 13/13/13
f 14/14/14 15/15/15 16/16/16
g _1
f 17/17/17 18/18/18 19/19/19
f 20/20/20 19/19/19 18/18/18
f 21/21/21 22/22/22 23/23/23
f 24/24/24 23/23/23 22/22/22
f 25/25/25 26/26/26 27/27/27
f 28/28/28 27/27/27 26/26/26
f 29/29/29 30/30/30 31/31/31
f 32/32/32 31/31/31 30/30/30
f 33/33/33 34/34/34 35/35/35
f 36/36/36 35/35/35 34/34/34
f 37/37/37 38/38/38 39/39/39
f 40/40/40 39/39/39 38/38/38
f 41/41/41 42/42/42 43/43/43
f 44/44/44 43/43/43 42/42/42
f 47/47/47 46/46/46 45/45/45
f 46/46/46 47/47/47 48/48/48
f 51/51/51 50/50/50 49/49/49
f 50/50/50 51/51/51 52/52/52
f 55/55/55 54/54/54 53/53/53
f 54/54/54 55/55/55 56/56/56
f 59/59/59 58/58/58 57/57/57
f 58/58/58 59/59/59 60/60/60
f 63/63/63 62/62/62 61/61/61
f 62/62/62 63/63/63 64/64/64
f 67/67/67 66/66/66 65/65/65
f 66/66/66 67/67/67 68/68/68
f 71/71/71 70/70/70 69/69/69
f 70/70/70 71/71/71 72/72/72
f 45/45/45 18/18/18 17/17/17
f 18/18/18 45/45/45 46/46/46
f 43/43/43 44/44/44 71/71/71
f 72/72/72 71/71/71 44/44/44
