g 
v 16.04465 18.6 -112.9084
v 28.04826 18.6 -115.2005
v 12.01135 18.6 -108.8735
v 33.2845 18.6 -112.9356
v 10.92859 18.6 -100.7849
v 37.27142 18.6 -105.8151
v 14.16407 18.6 -90.30436
v 36.80982 18.6 -101.7688
v 22.00127 18.6 -80.15155
v 40.84951 18.6 -97.50876
v 29.07084 18.6 -71.81202
v 47.4415 18.6 -92.52888
v 35.80886 18.6 -63.89771
v 55.62259 18.6 -88.41871
v 42.29605 18.6 -56.74337
v 64.03128 18.6 -83.50607
v 48.48874 18.6 -50.38919
v 72.71126 18.6 -77.7508
v 64.28598 18.6 -42.54353
v 65.81216 18.6 -76.66224
v 81.27266 18.6 -48.36173
v 65.4648 18.6 -78.63593
v 85.63417 18.6 -51.26916
v 65.82584 18.6 -79.09084
v 91.75954 18.6 -59.66447
v 75.76332 18.6 -82.13187
v 91.60117 18.6 -66.92798
v 82.57514 18.6 -79.60545
v 16.04465 18.6 -112.9084
v 16.04465 -11.4 -112.9084
v 12.01135 18.6 -108.8735
v 12.01135 -11.4 -108.8735
v 12.01135 18.6 -108.8735
v 12.01135 -11.4 -108.8735
v 10.92859 18.6 -100.7849
v 10.92859 -11.4 -100.7849
v 10.92859 18.6 -100.7849
v 10.92859 -11.4 -100.7849
v 14.16407 18.6 -90.30436
v 14.16407 -11.4 -90.30436
v 14.16407 18.6 -90.30436
v 14.16407 -11.4 -90.30436
v 22.00127 18.6 -80.15155
v 22.00127 -11.4 -80.15155
v 22.00127 18.6 -80.15155
v 22.00127 -11.4 -80.15155
v 29.07084 18.6 -71.81202
v 29.07084 -11.4 -71.81202
v 29.07084 18.6 -71.81202
v 29.07084 -11.4 -71.81202
v 35.80886 18.6 -63.89771
v 35.80886 -11.4 -63.89771
v 35.80886 18.6 -63.89771
v 35.80886 -11.4 -63.89771
v 42.29605 18.6 -56.74337
v 42.29605 -11.4 -56.74337
v 42.29605 18.6 -56.74337
v 42.29605 -11.4 -56.74337
v 48.48874 18.6 -50.38919
v 48.48874 -11.4 -50.38919
v 48.48874 18.6 -50.38919
v 48.48874 -11.4 -50.38919
v 64.28598 18.6 -42.54353
v 64.28598 -11.4 -42.54353
v 64.28598 18.6 -42.54353
v 64.28598 -11.4 -42.54353
v 81.27266 18.6 -48.36173
v 81.27266 -11.4 -48.36173
v 81.27266 18.6 -48.36173
v 81.27266 -11.4 -48.36173
v 85.63417 18.6 -51.26916
v 85.63417 -11.4 -51.26916
v 85.63417 18.6 -51.26916
v 85.63417 -11.4 -51.26916
v 91.75954 18.6 -59.66447
v 91.75954 -11.4 -59.66447
v 91.75954 18.6 -59.66447
v 91.75954 -11.4 -59.66447
v 91.60117 18.6 -66.92798
v 91.60117 -11.4 -66.92798
v 28.04826 18.6 -115.2005
v 28.04826 -11.4 -115.2005
v 33.2845 18.6 -112.9356
v 33.2845 -11.4 -112.9356
v 33.2845 18.6 -112.9356
v 33.2845 -11.4 -112.9356
v 37.27142 18.6 -105.8151
v 37.27142 -11.4 -105.8151
v 37.27142 18.6 -105.8151
v 37.27142 -11.4 -105.8151
v 36.80982 18.6 -101.7688
v 36.80982 -11.4 -101.7688
v 36.80982 18.6 -101.7688
v 36.80982 -11.4 -101.7688
v 40.84951 18.6 -97.50876
v 40.84951 -11.4 -97.50876
v 40.84951 18.6 -97.50876
v 40.84951 -11.4 -97.50876
v 47.4415 18.6 -92.52888
v 47.4415 -11.4 -92.52888
v 47.4415 18.6 -92.52888
v 47.4415 -11.4 -92.52888
v 55.62259 18.6 -88.41871
v 55.62259 -11.4 -88.41871
v 55.62259 18.6 -88.41871
v 55.62259 -11.4 -88.41871
v 64.03128 18.6 -83.50607
v 64.03128 -11.4 -83.50607
v 64.03128 18.6 -83.50607
v 64.03128 -11.4 -83.50607
v 72.71126 18.6 -77.7508
v 72.71126 -11.4 -77.7508
v 72.71126 18.6 -77.7508
v 72.71126 -11.4 -77.7508
v 65.81216 18.6 -76.66224
v 65.81216 -11.4 -76.66224
v 65.81216 18.6 -76.66224
v 65.81216 -11.4 -76.66224
v 65.4648 18.6 -78.63593
v 65.4648 -11.4 -78.63593
v 65.4648 18.6 -78.63593
v 65.4648 -11.4 -78.63593
v 65.82584 18.6 -79.09084
v 65.82584 -11.4 -79.09084
v 65.82584 18.6 -79.09084
v 65.82584 -11.4 -79.09084
v 75.76332 18.6 -82.13187
v 75.76332 -11.4 -82.13187
v 75.76332 18.6 -82.13187
v 75.76332 -11.4 -82.13187
v 82.57514 18.6 -79.60545
v 82.57514 -11.4 -79.60545
vt -0.1447447 0.06161658
vt -0.1342923 0.05528513
vt -0.150442 0.0613184
vt -0.1319179 0.05009762
vt -0.1566604 0.05603362
vt -0.1337217 0.04213878
vt -0.1612715 0.04608132
vt -0.136773 0.03944151
vt -0.1622443 0.03329246
vt -0.136623 0.03357255
vt -0.1625738 0.02236459
vt -0.1350586 0.02546045
vt -0.1628649 0.01197458
vt -0.1317314 0.01693088
vt -0.1628338 0.002317087
vt -0.1287722 0.007652777
vt -0.1624859 -0.006548803
vt -0.1261754 -0.002432962
vt -0.1560004 -0.02295143
vt -0.1320298 0.001376049
vt -0.1394856 -0.02999842
vt -0.1309669 0.003074937
vt -0.1342992 -0.03075759
vt -0.1303941 0.00317126
vt -0.124129 -0.02862006
vt -0.1209755 -0.001220823
vt -0.119385 -0.02311754
vt -0.1176056 -0.007657219
vt -0.1447447 0.06161658
vt -0.1447447 0.06161658
vt -0.150442 0.0613184
vt -0.150442 0.0613184
vt -0.150442 0.0613184
vt -0.150442 0.0613184
vt -0.1566604 0.05603362
vt -0.1566604 0.05603362
vt -0.1566604 0.05603362
vt -0.1566604 0.05603362
vt -0.1612715 0.04608132
vt -0.1612715 0.04608132
vt -0.1612715 0.04608132
vt -0.1612715 0.04608132
vt -0.1622443 0.03329246
vt -0.1622443 0.03329246
vt -0.1622443 0.03329246
vt -0.1622443 0.03329246
vt -0.1625738 0.02236459
vt -0.1625738 0.02236459
vt -0.1625738 0.02236459
vt -0.1625738 0.02236459
vt -0.1628649 0.01197458
vt -0.1628649 0.01197458
vt -0.1628649 0.01197458
vt -0.1628649 0.01197458
vt -0.1628338 0.002317087
vt -0.1628338 0.002317087
vt -0.1628338 0.002317087
vt -0.1628338 0.002317087
vt -0.1624859 -0.006548803
vt -0.1624859 -0.006548803
vt -0.1624859 -0.006548803
vt -0.1624859 -0.006548803
vt -0.1560004 -0.02295143
vt -0.1560004 -0.02295143
vt -0.1560004 -0.02295143
vt -0.1560004 -0.02295143
vt -0.1394856 -0.02999842
vt -0.1394856 -0.02999842
vt -0.1394856 -0.02999842
vt -0.1394856 -0.02999842
vt -0.1342992 -0.03075759
vt -0.1342992 -0.03075759
vt -0.1342992 -0.03075759
vt -0.1342992 -0.03075759
vt -0.124129 -0.02862006
vt -0.124129 -0.02862006
vt -0.124129 -0.02862006
vt -0.124129 -0.02862006
vt -0.119385 -0.02311754
vt -0.119385 -0.02311754
vt -0.1342923 0.05528513
vt -0.1342923 0.05528513
vt -0.1319179 0.05009762
vt -0.1319179 0.05009762
vt -0.1319179 0.05009762
vt -0.1319179 0.05009762
vt -0.1337217 0.04213878
vt -0.1337217 0.04213878
vt -0.1337217 0.04213878
vt -0.1337217 0.04213878
vt -0.136773 0.03944151
vt -0.136773 0.03944151
vt -0.136773 0.03944151
vt -0.136773 0.03944151
vt -0.136623 0.03357255
vt -0.136623 0.03357255
vt -0.136623 0.03357255
vt -0.136623 0.03357255
vt -0.1350586 0.02546045
vt -0.1350586 0.02546045
vt -0.1350586 0.02546045
vt -0.1350586 0.02546045
vt -0.1317314 0.01693088
vt -0.1317314 0.01693088
vt -0.1317314 0.01693088
vt -0.1317314 0.01693088
vt -0.1287722 0.007652777
vt -0.1287722 0.007652777
vt -0.1287722 0.007652777
vt -0.1287722 0.007652777
vt -0.1261754 -0.002432962
vt -0.1261754 -0.002432962
vt -0.1261754 -0.002432962
vt -0.1261754 -0.002432962
vt -0.1320298 0.001376049
vt -0.1320298 0.001376049
vt -0.1320298 0.001376049
vt -0.1320298 0.001376049
vt -0.1309669 0.003074937
vt -0.1309669 0.003074937
vt -0.1309669 0.003074937
vt -0.1309669 0.003074937
vt -0.1303941 0.00317126
vt -0.1303941 0.00317126
vt -0.1303941 0.00317126
vt -0.1303941 0.00317126
vt -0.1209755 -0.001220823
vt -0.1209755 -0.001220823
vt -0.1209755 -0.001220823
vt -0.1209755 -0.001220823
vt -0.1176056 -0.007657219
vt -0.1176056 -0.007657219
vn 0 1 0
vn 0 1 0
vn 0 1 0
vn 0 1 0
vn 0 1 0
vn 0 1 0
vn 0 1 0
vn 0 1 0
vn 0 1 0
vn 0 1 0
vn 0 1 0
vn 0 1 0
vn 0 1 0
vn 0 1 0
vn 0 1 0
vn 0 1 0
vn 0 1 0
vn 0 1 0
vn 0 1 0
vn 0 1 0
vn 0 1 0
vn 0 1 0
vn 0 1 0
vn 0 1 0
vn 0 1 0
vn 0 1 0
vn 0 1 0
vn 0 1 0
vn -0.1875602 0 -0.9822531
vn -0.1875602 0 -0.9822531
vn -0.7072466 0 -0.7069669
vn -0.7072466 0 -0.7069669
vn -0.9911589 0 -0.1326802
vn -0.9911589 0 -0.1326802
vn -0.9911589 0 -0.1326802
vn -0.9911589 0 -0.1326802
vn -0.9555047 0 0.2949759
vn -0.9555047 0 0.2949759
vn -0.9555047 0 0.2949759
vn -0.9555047 0 0.2949759
vn -0.7915925 0 0.6110494
vn -0.7915925 0 0.6110494
vn -0.7915925 0 0.6110494
vn -0.7915925 0 0.6110494
vn -0.7627974 0 0.6466376
vn -0.7627974 0 0.6466376
vn -0.7627974 0 0.6466376
vn -0.7627974 0 0.6466376
vn -0.7614238 0 0.6482545
vn -0.7614238 0 0.6482545
vn -0.7614238 0 0.6482545
vn -0.7614238 0 0.6482545
vn -0.7408029 0 0.6717224
vn -0.7408029 0 0.6717224
vn -0.7408029 0 0.6717224
vn -0.7408029 0 0.6717224
vn -0.7161485 0 0.697948
vn -0.7161485 0 0.697948
vn -0.7161485 0 0.697948
vn -0.7161485 0 0.697948
vn -0.4448099 0 0.8956249
vn -0.4448099 0 0.8956249
vn -0.4448099 0 0.8956249
vn -0.4448099 0 0.8956249
vn 0.324035 0 0.9460451
vn 0.324035 0 0.9460451
vn 0.324035 0 0.9460451
vn 0.324035 0 0.9460451
vn 0.5546678 0 0.8320719
vn 0.5546678 0 0.8320719
vn 0.5546678 0 0.8320719
vn 0.5546678 0 0.8320719
vn 0.8078341 0 0.5894098
vn 0.8078341 0 0.5894098
vn 0.8078341 0 0.5894098
vn 0.8078341 0 0.5894098
vn 0.9997624 0 -0.02179743
vn 0.9997624 0 -0.02179743
vn 0.8146232 0 -0.5799905
vn 0.8146232 0 -0.5799905
vn -0.1875602 0 -0.9822531
vn -0.1875602 0 -0.9822531
vn 0.3969945 0 -0.9178209
vn 0.3969945 0 -0.9178209
vn 0.8725355 0 -0.4885508
vn 0.8725355 0 -0.4885508
vn 0.8725355 0 -0.4885508
vn 0.8725355 0 -0.4885508
vn 0.9935557 0 0.1133449
vn 0.9935557 0 0.1133449
vn 0.9935557 0 0.1133449
vn 0.9935557 0 0.1133449
vn 0.7256249 0 -0.6880905
vn 0.7256249 0 -0.6880905
vn 0.7256249 0 -0.6880905
vn 0.7256249 0 -0.6880905
vn 0.6027767 0 -0.7979099
vn 0.6027767 0 -0.7979099
vn 0.6027767 0 -0.7979099
vn 0.6027767 0 -0.7979099
vn 0.4489274 0 -0.8935682
vn 0.4489274 0 -0.8935682
vn 0.4489274 0 -0.8935682
vn 0.4489274 0 -0.8935682
vn 0.5044507 0 -0.8634405
vn 0.5044507 0 -0.8634405
vn 0.5044507 0 -0.8634405
vn 0.5044507 0 -0.8634405
vn 0.5526125 0 -0.8334383
vn 0.5526125 0 -0.8334383
vn 0.5526125 0 -0.8334383
vn 0.5526125 0 -0.8334383
vn 0.1558552 0 0.9877799
vn 0.1558552 0 0.9877799
vn 0.1558552 0 0.9877799
vn 0.1558552 0 0.9877799
vn -0.9848631 0 0.173334
vn -0.9848631 0 0.173334
vn -0.9848631 0 0.173334
vn -0.9848631 0 0.173334
vn -0.7832839 0 -0.6216641
vn -0.7832839 0 -0.6216641
vn -0.7832839 0 -0.6216641
vn -0.7832839 0 -0.6216641
vn -0.2926209 0 -0.9562286
vn -0.2926209 0 -0.9562286
vn -0.2926209 0 -0.9562286
vn -0.2926209 0 -0.9562286
vn 0.3477399 0 -0.937591
vn 0.3477399 0 -0.937591
vn 0.8146232 0 -0.5799905
vn 0.8146232 0 -0.5799905
g _0
f 3/3/3 2/2/2 1/1/1
f 2/2/2 3/3/3 4/4/4
f 5/5/5 4/4/4 3/3/3
f 4/4/4 5/5/5 6/6/6
f 7/7/7 6/6/6 5/5/5
f 6/6/6 7/7/7 8/8/8
f 9/9/9 8/8/8 7/7/7
f 8/8/8 9/9/9 10/10/10
f 11/11/11 10/10/10 9/9/9
f 10/10/10 11/11/11 12/12/12
f 13/13/13 12/12/12 11/11/11
f 12/12/12 13/13/13 14/14/14
f 15/15/15 14/14/14 13/13/13
f 14/14/14 15/15/15 16/16/16
f 17/17/17 16/16/16 15/15/15
f 16/16/16 17/17/17 18/18/18
f 19/19/19 18/18/18 17/17/17
f 21/21/21 20/20/20 19/19/19
f 20/20/20 21/21/21 22/22/22
f 23/23/23 22/22/22 21/21/21
f 22/22/22 23/23/23 24/24/24
f 25/25/25 24/24/24 23/23/23
f 24/24/24 25/25/25 26/26/26
f 27/27/27 26/26/26 25/25/25
f 26/26/26 27/27/27 28/28/28
g _1
f 29/29/29 30/30/30 31/31/31
f 32/32/32 31/31/31 30/30/30
f 33/33/33 34/34/34 35/35/35
f 36/36/36 35/35/35 34/34/34
f 37/37/37 38/38/38 39/39/39
f 40/40/40 39/39/39 38/38/38
f 41/41/41 42/42/42 43/43/43
f 44/44/44 43/43/43 42/42/42
f 45/45/45 46/46/46 47/47/47
f 48/48/48 47/47/47 46/46/46
f 49/49/49 50/50/50 51/51/51
f 52/52/52 51/51/51 50/50/50
f 53/53/53 54/54/54 55/55/55
f 56/56/56 55/55/55 54/54/54
f 57/57/57 58/58/58 59/59/59
f 60/60/60 59/59/59 58/58/58
f 61/61/61 62/62/62 63/63/63
f 64/64/64 63/63/63 62/62/62
f 65/65/65 66/66/66 67/67/67
f 68/68/68 67/67/67 66/66/66
f 69/69/69 70/70/70 71/71/71
f 72/72/72 71/71/71 70/70/70
f 73/73/73 74/74/74 75/75/75
f 76/76/76 75/75/75 74/74/74
f 77/77/77 78/78/78 79/79/79
f 80/80/80 79/79/79 78/78/78
f 83/83/83 82/82/82 81/81/81
f 82/82/82 83/83/83 84/84/84
f 87/87/87 86/86/86 85/85/85
f 86/86/86 87/87/87 88/88/88
f 91/91/91 90/90/90 89/89/89
f 90/90/90 91/91/91 92/92/92
f 95/95/95 94/94/94 93/93/93
f 94/94/94 95/95/95 96/96/96
f 99/99/99 98/98/98 97/97/97
f 98/98/98 99/99/99 100/100/100
f 103/103/103 102/102/102 101/101/101
f 102/102/102 103/103/103 104/104/104
f 107/107/107 106/106/106 105/105/105
f 106/106/106 107/107/107 108/108/108
f 111/111/111 110/110/110 109/109/109
f 110/110/110 111/111/111 112/112/112
f 115/115/115 114/114/114 113/113/113
f 114/114/114 115/115/115 116/116/116
f 119/119/119 118/118/118 117/117/117
f 118/118/118 119/119/119 120/120/120
f 123/123/123 122/122/122 121/121/121
f 122/122/122 123/123/123 124/124/124
f 127/127/127 126/126/126 125/125/125
f 126/126/126 127/127/127 128/128/128
f 131/131/131 130/130/130 129/129/129
f 130/130/130 131/131/131 132/132/132
f 81/81/81 30/30/30 29/29/29
f 30/30/30 81/81/81 82/82/82
f 79/79/79 80/80/80 131/131/131
f 132/132/132 131/131/131 80/80/80
