g 
v 82.72784 108.4166 -106.5579
v 82.72784 94.41657 -106.5579
v 84.66587 108.4166 -103.4521
v 84.66587 94.41657 -103.4521
v 81.51697 108.4166 -101.6427
v 81.51697 94.41657 -101.6427
v 80.51992 108.4166 -99.79675
v 80.51992 94.41657 -99.79675
v 77.27979 108.4166 -97.80722
v 77.27979 94.41657 -97.80722
v 76.0518 108.4166 -98.52063
v 76.0518 94.41657 -98.52063
v 72.59636 108.4166 -103.7702
v 72.59636 94.41657 -103.7702
v 72.77267 108.4166 -105.1801
v 72.77267 94.41657 -105.1801
v 75.03086 108.4166 -106.0385
v 75.03086 94.41657 -106.0385
v 76.94933 108.4166 -104.6716
v 76.94933 94.41657 -104.6716
v 78.63458 108.4166 -105.6748
v 78.63458 94.41657 -105.6748
v 81.2794 108.4166 -106.8415
v 81.2794 94.41657 -106.8415
v 82.72784 108.4166 -106.5579
v 82.72784 94.41657 -106.5579
vt 0.0002766418 -0.5780232
vt 0.0002766418 -0.5780232
vt -0.0191037 -0.5469652
vt -0.0191037 -0.5469652
vt 0.01238533 -0.528871
vt 0.01238533 -0.528871
vt 0.0223558 -0.5104115
vt 0.0223558 -0.5104115
vt 0.05475716 -0.4905162
vt 0.05475716 -0.4905162
vt 0.06703705 -0.4976503
vt 0.06703705 -0.4976503
vt 0.1015914 -0.5501463
vt 0.1015914 -0.5501463
vt 0.09982826 -0.5642447
vt 0.09982826 -0.5642447
vt 0.0772464 -0.5728288
vt 0.0772464 -0.5728288
vt 0.05806167 -0.5591595
vt 0.05806167 -0.5591595
vt 0.04120918 -0.5691916
vt 0.04120918 -0.5691916
vt 0.01476105 -0.5808594
vt 0.01476105 -0.5808594
vt 0.0002766418 -0.5780232
vt 0.0002766418 -0.5780232
vn 0.8483779 0 -0.5293911
vn 0.8483779 0 -0.5293911
vn 0.4982225 0 0.8670493
vn 0.4982225 0 0.8670493
vn 0.8798584 0 0.475236
vn 0.8798584 0 0.475236
vn 0.5232584 0 0.8521741
vn 0.5232584 0 0.8521741
vn -0.5023374 0 0.8646716
vn -0.5023374 0 0.8646716
vn -0.8352891 0 0.5498108
vn -0.8352891 0 0.5498108
vn -0.9922705 0 -0.1240936
vn -0.9922705 0 -0.1240936
vn -0.3553246 0 -0.934743
vn -0.3553246 0 -0.934743
vn 0.5802794 0 -0.8144174
vn 0.5802794 0 -0.8144174
vn -0.5115167 0 -0.8592733
vn -0.5115167 0 -0.8592733
vn -0.4036233 0 -0.9149253
vn -0.4036233 0 -0.9149253
vn 0.1921581 0 -0.981364
vn 0.1921581 0 -0.981364
vn 0.1921581 0 -0.981364
vn 0.1921581 0 -0.981364
g _0
f 3/3/3 2/2/2 1/1/1
f 2/2/2 3/3/3 4/4/4
f 5/5/5 4/4/4 3/3/3
f 4/4/4 5/5/5 6/6/6
f 7/7/7 6/6/6 5/5/5
f 6/6/6 7/7/7 8/8/8
f 9/9/9 8/8/8 7/7/7
f 8/8/8 9/9/9 10/10/10
f 11/11/11 10/10/10 9/9/9
f 10/10/10 11/11/11 12/12/12
f 13/13/13 12/12/12 11/11/11
f 12/12/12 13/13/13 14/14/14
f 15/15/15 14/14/14 13/13/13
f 14/14/14 15/15/15 16/16/16
f 17/17/17 16/16/16 15/15/15
f 16/16/16 17/17/17 18/18/18
f 19/19/19 18/18/18 17/17/17
f 18/18/18 19/19/19 20/20/20
f 21/21/21 20/20/20 19/19/19
f 20/20/20 21/21/21 22/22/22
f 23/23/23 22/22/22 21/21/21
f 22/22/22 23/23/23 24/24/24
f 25/25/25 24/24/24 23/23/23
f 24/24/24 25/25/25 26/26/26
