g 
v 97.09 31.98571 -1.29
v 97.09 6.814285 -1.29
v 108.7 30.66284 3.47
v 108.7 6.657164 3.47
v 113.15 30.66284 7.38
v 113.15 6.657164 7.38
v 109.15 30.66284 5.86
v 109.15 6.657164 5.86
v 107.44 30.66284 8.47
v 107.44 6.657164 8.47
v 103.49 27.4446 8.79
v 103.49 8.875399 8.79
v 99.13 27.4446 5.66
v 99.13 8.875399 5.66
v 95.96 27.49699 5.24
v 95.96 10.66301 5.24
v 93.66 27.4446 2.18
v 93.66 8.875399 2.18
v 94.61 23.9268 -1.26
v 94.61 13.8332 -1.26
v 97.09 31.98571 -1.29
v 97.09 6.814285 -1.29
vt -1.0224 0.2397
vt -1.0224 0.2397
vt -1.1385 0.2873
vt -1.1385 0.2873
vt -1.183 0.3264
vt -1.183 0.3264
vt -1.143 0.3112
vt -1.143 0.3112
vt -1.1259 0.3373
vt -1.1259 0.3373
vt -1.0864 0.3405
vt -1.0864 0.3405
vt -1.0428 0.3092
vt -1.0428 0.3092
vt -1.0111 0.305
vt -1.0111 0.305
vt -0.9881001 0.2744
vt -0.9881001 0.2744
vt -0.9976 0.24
vt -0.9976 0.24
vt -1.0224 0.2397
vt -1.0224 0.2397
vn 0.3793465 0 -0.9252547
vn 0.3793465 0 -0.9252547
vn 0.6600565 0 -0.7512159
vn 0.6600565 0 -0.7512159
vn -0.3552178 0 0.9347836
vn -0.3552178 0 0.9347836
vn 0.8364613 0 0.5480261
vn 0.8364613 0 0.5480261
vn 0.08074795 0 0.9967346
vn 0.08074794 0 0.9967345
vn -0.5831752 0 0.8123464
vn -0.5831752 0 0.8123464
vn -0.1313444 0 0.9913368
vn -0.1313444 0 0.9913368
vn -0.7993731 0 0.6008349
vn -0.7993731 0 0.6008348
vn -0.9639184 0 -0.2661976
vn -0.9639185 0 -0.2661976
vn -0.0120959 0 -0.9999269
vn -0.0120959 0 -0.9999269
vn -0.0120959 0 -0.9999269
vn -0.0120959 0 -0.9999269
g _0
f 3/3/3 2/2/2 1/1/1
f 2/2/2 3/3/3 4/4/4
f 5/5/5 4/4/4 3/3/3
f 4/4/4 5/5/5 6/6/6
f 7/7/7 6/6/6 5/5/5
f 6/6/6 7/7/7 8/8/8
f 9/9/9 8/8/8 7/7/7
f 8/8/8 9/9/9 10/10/10
f 11/11/11 10/10/10 9/9/9
f 10/10/10 11/11/11 12/12/12
f 13/13/13 12/12/12 11/11/11
f 12/12/12 13/13/13 14/14/14
f 15/15/15 14/14/14 13/13/13
f 14/14/14 15/15/15 16/16/16
f 17/17/17 16/16/16 15/15/15
f 16/16/16 17/17/17 18/18/18
f 19/19/19 18/18/18 17/17/17
f 18/18/18 19/19/19 20/20/20
f 21/21/21 20/20/20 19/19/19
f 20/20/20 21/21/21 22/22/22
