g 
v 36.9934 24.2 -107.2354
v 36.9934 10.2 -107.2354
v 39.88488 24.2 -111.0389
v 39.88488 10.2 -111.0389
v 36.70319 24.2 -115.2553
v 36.70319 10.2 -115.2553
v 33.52271 24.2 -112.6653
v 33.52271 10.2 -112.6653
v 33.76207 24.2 -107.8065
v 33.76207 10.2 -107.8065
v 35.51363 24.2 -106.0217
v 35.51363 10.2 -106.0217
v 36.9934 24.2 -107.2354
v 36.9934 10.2 -107.2354
vt -0.390934 -1.185354
vt -0.390934 -1.185354
vt -0.4198488 -1.223389
vt -0.4198488 -1.223389
vt -0.3880319 -1.265553
vt -0.3880319 -1.265553
vt -0.3562271 -1.239653
vt -0.3562271 -1.239653
vt -0.3586206 -1.191065
vt -0.3586206 -1.191065
vt -0.3761363 -1.173217
vt -0.3761363 -1.173217
vt -0.390934 -1.185354
vt -0.390934 -1.185354
vn 0.7960793 0 0.6051922
vn 0.7960793 0 0.6051922
vn 0.7982379 0 -0.6023424
vn 0.7982379 0 -0.6023424
vn -0.6314492 0 -0.7754171
vn -0.6314492 0 -0.7754171
vn -0.9987888 0 0.04920132
vn -0.9987888 0 0.04920132
vn -0.7137227 0 0.7004284
vn -0.7137227 0 0.7004284
vn 0.6341742 0 0.7731903
vn 0.6341742 0 0.7731903
vn 0.6341742 0 0.7731903
vn 0.6341742 0 0.7731903
g _0
f 1/1/1 2/2/2 3/3/3
f 4/4/4 3/3/3 2/2/2
f 3/3/3 4/4/4 5/5/5
f 6/6/6 5/5/5 4/4/4
f 5/5/5 6/6/6 7/7/7
f 8/8/8 7/7/7 6/6/6
f 7/7/7 8/8/8 9/9/9
f 10/10/10 9/9/9 8/8/8
f 9/9/9 10/10/10 11/11/11
f 12/12/12 11/11/11 10/10/10
f 11/11/11 12/12/12 13/13/13
f 14/14/14 13/13/13 12/12/12
