g 
v 46.10468 108.4166 -91.80597
v 46.10468 94.41657 -91.80597
v 46.57797 108.4166 -88.36437
v 46.57797 94.41657 -88.36437
v 48.90083 108.4166 -84.17114
v 48.90083 94.41657 -84.17114
v 47.68274 108.4166 -81.05698
v 47.68274 94.41657 -81.05698
v 40.06117 108.4166 -81.81273
v 40.06117 94.41657 -81.81273
v 34.2546 108.4166 -85.55413
v 34.2546 94.41657 -85.55413
v 32.84197 108.4166 -87.79585
v 32.84197 94.41657 -87.79585
v 33.90348 108.4166 -89.68454
v 33.90348 94.41657 -89.68454
v 37.37658 108.4166 -87.20341
v 37.37658 94.41657 -87.20341
v 40.07552 108.4166 -88.0415
v 40.07552 94.41657 -88.0415
v 39.66397 108.4166 -89.84665
v 39.66397 94.41657 -89.84665
v 37.93896 108.4166 -91.29649
v 37.93896 94.41657 -91.29649
v 39.22758 108.4166 -94.34064
v 39.22758 94.41657 -94.34064
v 43.21443 108.4166 -91.81067
v 43.21443 94.41657 -91.81067
v 46.10468 108.4166 -91.80597
v 46.10468 94.41657 -91.80597
vt 0.3665082 -0.4305037
vt 0.3665082 -0.4305037
vt 0.3617753 -0.3960877
vt 0.3617753 -0.3960877
vt 0.3385467 -0.3541554
vt 0.3385467 -0.3541554
vt 0.3507276 -0.3230138
vt 0.3507276 -0.3230138
vt 0.4269433 -0.3305713
vt 0.4269433 -0.3305713
vt 0.485009 -0.3679853
vt 0.485009 -0.3679853
vt 0.4991353 -0.3904025
vt 0.4991353 -0.3904025
vt 0.4885201 -0.4092894
vt 0.4885201 -0.4092894
vt 0.4537892 -0.3844782
vt 0.4537892 -0.3844782
vt 0.4267998 -0.392859
vt 0.4267998 -0.392859
vt 0.4309153 -0.4109105
vt 0.4309153 -0.4109105
vt 0.4481654 -0.4254088
vt 0.4481654 -0.4254088
vt 0.4352792 -0.4558504
vt 0.4352792 -0.4558504
vt 0.3954107 -0.4305507
vt 0.3954107 -0.4305507
vt 0.3665082 -0.4305037
vt 0.3665082 -0.4305037
vn 0.9906759 0 -0.1362392
vn 0.9906759 0 -0.1362392
vn 0.874751 0 -0.4845727
vn 0.874751 0 -0.4845727
vn 0.9312936 0 0.3642696
vn 0.9312936 0 0.3642696
vn -0.09867571 0 0.9951196
vn -0.09867571 0 0.9951196
vn -0.5416388 0 0.8406113
vn -0.5416388 0 0.8406113
vn -0.8460338 0 0.5331293
vn -0.8460338 0 0.5331293
vn -0.871748 0 -0.4899546
vn -0.871748 0 -0.4899546
vn 0.5812918 0 -0.8136952
vn 0.5812918 0 -0.8136952
vn -0.2965564 0 -0.9550154
vn -0.2965564 0 -0.9550154
vn -0.9749823 0 0.2222827
vn -0.9749823 0 0.2222827
vn -0.6434093 0 0.7655224
vn -0.6434093 0 0.7655224
vn -0.9208902 0 -0.3898221
vn -0.9208902 0 -0.3898221
vn 0.5358027 0 -0.8443432
vn 0.5358027 0 -0.8443432
vn 0.001626055 0 -0.9999987
vn 0.001626055 0 -0.9999987
vn 0.001626055 0 -0.9999987
vn 0.001626055 0 -0.9999987
g _0
f 3/3/3 2/2/2 1/1/1
f 2/2/2 3/3/3 4/4/4
f 5/5/5 4/4/4 3/3/3
f 4/4/4 5/5/5 6/6/6
f 7/7/7 6/6/6 5/5/5
f 6/6/6 7/7/7 8/8/8
f 9/9/9 8/8/8 7/7/7
f 8/8/8 9/9/9 10/10/10
f 11/11/11 10/10/10 9/9/9
f 10/10/10 11/11/11 12/12/12
f 13/13/13 12/12/12 11/11/11
f 12/12/12 13/13/13 14/14/14
f 15/15/15 14/14/14 13/13/13
f 14/14/14 15/15/15 16/16/16
f 17/17/17 16/16/16 15/15/15
f 16/16/16 17/17/17 18/18/18
f 19/19/19 18/18/18 17/17/17
f 18/18/18 19/19/19 20/20/20
f 21/21/21 20/20/20 19/19/19
f 20/20/20 21/21/21 22/22/22
f 23/23/23 22/22/22 21/21/21
f 22/22/22 23/23/23 24/24/24
f 25/25/25 24/24/24 23/23/23
f 24/24/24 25/25/25 26/26/26
f 27/27/27 26/26/26 25/25/25
f 26/26/26 27/27/27 28/28/28
f 29/29/29 28/28/28 27/27/27
f 28/28/28 29/29/29 30/30/30
