g 
v 120.88 13.60813 7.15
v 120.88 2.051871 7.15
v 123.47 16.04944 6.71
v 123.47 -1.869443 6.71
v 124.07 17.7473 8.76
v 124.07 -4.567305 8.76
v 122.62 17.7473 10.76
v 122.62 -4.567305 10.76
v 120.91 17.7473 10.69
v 120.91 -4.567305 10.69
v 119.98 17.7473 8.6
v 119.98 -4.567305 8.6
v 120.88 13.60813 7.15
v 120.88 2.051871 7.15
vt -1.2088 0.0715
vt -1.2088 0.0715
vt -1.2347 0.0671
vt -1.2347 0.0671
vt -1.2407 0.0876
vt -1.2407 0.0876
vt -1.2262 0.1076
vt -1.2262 0.1076
vt -1.2091 0.1069
vt -1.2091 0.1069
vt -1.1998 0.086
vt -1.1998 0.086
vt -1.2088 0.0715
vt -1.2088 0.0715
vn -0.1674843 0 -0.9858748
vn -0.1674843 0 -0.9858748
vn 0.9597375 0 -0.2808981
vn 0.9597376 0 -0.2808981
vn 0.809611 0 0.5869668
vn 0.809611 0 0.5869668
vn -0.04090181 0 0.9991632
vn -0.04090181 0 0.9991632
vn -0.9136311 0 0.4065443
vn -0.9136311 0 0.4065443
vn -0.8496418 0 -0.5273602
vn -0.8496419 0 -0.5273603
vn -0.8496419 0 -0.5273603
vn -0.8496419 0 -0.5273603
g _0
f 3/3/3 2/2/2 1/1/1
f 2/2/2 3/3/3 4/4/4
f 5/5/5 4/4/4 3/3/3
f 4/4/4 5/5/5 6/6/6
f 7/7/7 6/6/6 5/5/5
f 6/6/6 7/7/7 8/8/8
f 9/9/9 8/8/8 7/7/7
f 8/8/8 9/9/9 10/10/10
f 11/11/11 10/10/10 9/9/9
f 10/10/10 11/11/11 12/12/12
f 13/13/13 12/12/12 11/11/11
f 12/12/12 13/13/13 14/14/14
