g 
v 25.88044 108.4166 -88.00943
v 25.88044 94.41657 -88.00943
v 28.8463 108.4166 -83.91923
v 28.8463 94.41657 -83.91923
v 29.30573 108.4166 -79.02744
v 29.30573 94.41657 -79.02744
v 31.06136 108.4166 -78.19446
v 31.06136 94.41657 -78.19446
v 30.808 108.4166 -76.74358
v 30.808 94.41657 -76.74358
v 29.01207 108.4166 -77.04685
v 29.01207 94.41657 -77.04685
v 27.56503 108.4166 -76.28518
v 27.56503 94.41657 -76.28518
v 25.46263 108.4166 -77.98683
v 25.46263 94.41657 -77.98683
v 25.15583 108.4166 -80.87396
v 25.15583 94.41657 -80.87396
v 22.04221 108.4166 -83.18562
v 22.04221 94.41657 -83.18562
v 22.51722 108.4166 -84.87523
v 22.51722 94.41657 -84.87523
v 25.88044 108.4166 -88.00943
v 25.88044 94.41657 -88.00943
vt 0.5687506 -0.3925383
vt 0.5687506 -0.3925383
vt 0.539092 -0.3516363
vt 0.539092 -0.3516363
vt 0.5344977 -0.3027184
vt 0.5344977 -0.3027184
vt 0.5169414 -0.2943886
vt 0.5169414 -0.2943886
vt 0.519475 -0.2798797
vt 0.519475 -0.2798797
vt 0.5374343 -0.2829125
vt 0.5374343 -0.2829125
vt 0.5519047 -0.2752958
vt 0.5519047 -0.2752958
vt 0.5729288 -0.2923123
vt 0.5729288 -0.2923123
vt 0.5759967 -0.3211836
vt 0.5759967 -0.3211836
vt 0.6071329 -0.3443002
vt 0.6071329 -0.3443002
vt 0.6023828 -0.3611963
vt 0.6023828 -0.3611963
vt 0.5687506 -0.3925383
vt 0.5687506 -0.3925383
vn 0.8095667 0 -0.587028
vn 0.8095667 0 -0.587028
vn 0.9956185 0 -0.09350811
vn 0.9956185 0 -0.09350811
vn 0.4286638 0 -0.9034641
vn 0.4286638 0 -0.9034641
vn 0.9850935 0 0.1720197
vn 0.9850935 0 0.1720197
vn -0.1665111 0 0.9860396
vn -0.1665111 0 0.9860396
vn 0.4657822 0 0.8848994
vn 0.4657822 0 0.8848994
vn -0.6291317 0 0.7772987
vn -0.6291317 0 0.7772987
vn -0.9944016 0 0.1056674
vn -0.9944016 0 0.1056674
vn -0.596105 0 0.8029065
vn -0.596105 0 0.8029065
vn -0.9626788 0 -0.2706464
vn -0.9626788 0 -0.2706464
vn -0.68176 0 -0.731576
vn -0.68176 0 -0.731576
vn -0.68176 0 -0.731576
vn -0.68176 0 -0.731576
g _0
f 3/3/3 2/2/2 1/1/1
f 2/2/2 3/3/3 4/4/4
f 5/5/5 4/4/4 3/3/3
f 4/4/4 5/5/5 6/6/6
f 7/7/7 6/6/6 5/5/5
f 6/6/6 7/7/7 8/8/8
f 9/9/9 8/8/8 7/7/7
f 8/8/8 9/9/9 10/10/10
f 11/11/11 10/10/10 9/9/9
f 10/10/10 11/11/11 12/12/12
f 13/13/13 12/12/12 11/11/11
f 12/12/12 13/13/13 14/14/14
f 15/15/15 14/14/14 13/13/13
f 14/14/14 15/15/15 16/16/16
f 17/17/17 16/16/16 15/15/15
f 16/16/16 17/17/17 18/18/18
f 19/19/19 18/18/18 17/17/17
f 18/18/18 19/19/19 20/20/20
f 21/21/21 20/20/20 19/19/19
f 20/20/20 21/21/21 22/22/22
f 23/23/23 22/22/22 21/21/21
f 22/22/22 23/23/23 24/24/24
