g 
v 63.38756 108.4166 -129.5937
v 63.38756 94.41657 -129.5937
v 65.3376 108.4166 -130.8004
v 65.3376 94.41657 -130.8004
v 67.63629 108.4166 -129.4068
v 67.63629 94.41657 -129.4068
v 66.50313 108.4166 -126.6333
v 66.50313 94.41657 -126.6333
v 64.16072 108.4166 -127.3256
v 64.16072 94.41657 -127.3256
v 63.38756 108.4166 -129.5937
v 63.38756 94.41657 -129.5937
vt 0.1936794 -0.8083808
vt 0.1936794 -0.8083808
vt 0.174179 -0.8204475
vt 0.174179 -0.8204475
vt 0.1511921 -0.8065123
vt 0.1511921 -0.8065123
vt 0.1625237 -0.7787773
vt 0.1625237 -0.7787773
vt 0.1859478 -0.7857004
vt 0.1859478 -0.7857004
vt 0.1936794 -0.8083808
vt 0.1936794 -0.8083808
vn -0.5261956 0 -0.8503636
vn -0.5261956 0 -0.8503636
vn 0.5184046 0 -0.8551354
vn 0.5184046 0 -0.8551354
vn 0.9257164 0 0.3782183
vn 0.9257164 0 0.3782183
vn -0.2834333 0 0.9589919
vn -0.2834333 0 0.9589919
vn -0.9465148 0 0.3226603
vn -0.9465148 0 0.3226603
vn -0.9465148 0 0.3226603
vn -0.9465148 0 0.3226603
g _0
f 3/3/3 2/2/2 1/1/1
f 2/2/2 3/3/3 4/4/4
f 5/5/5 4/4/4 3/3/3
f 4/4/4 5/5/5 6/6/6
f 7/7/7 6/6/6 5/5/5
f 6/6/6 7/7/7 8/8/8
f 9/9/9 8/8/8 7/7/7
f 8/8/8 9/9/9 10/10/10
f 11/11/11 10/10/10 9/9/9
f 10/10/10 11/11/11 12/12/12
