g 
v 45.74367 17.6 -41.51358
v 37.85815 17.6 -35.66095
v 44.69913 17.6 -47.42677
v 32.50087 17.6 -38.37323
v 40.54411 17.6 -54.82314
v 26.6372 17.6 -44.47552
v 36.38465 17.6 -63.41684
v 19.63089 17.6 -50.85447
v 32.23536 17.6 -72.08504
v 12.53669 17.6 -57.09964
v 27.43136 17.6 -80.29922
v 5.968639 17.6 -63.70079
v 21.23109 17.6 -88.2602
v -0.07191658 17.6 -71.45728
v 14.9419 17.6 -96.13376
v -6.216872 17.6 -79.14957
v 8.665821 17.6 -103.9146
v -12.4493 17.6 -86.87621
v 6.782039 17.6 -106.2461
v -14.32204 17.6 -89.19395
v -2.977499 17.6 -110.6931
v -16.62016 17.6 -99.66978
v 45.74367 17.6 -41.51358
v 45.74367 -2.4 -41.51358
v 44.69913 17.6 -47.42677
v 44.69913 -2.4 -47.42677
v 44.69913 17.6 -47.42677
v 44.69913 -2.4 -47.42677
v 40.54411 17.6 -54.82314
v 40.54411 -2.4 -54.82314
v 40.54411 17.6 -54.82314
v 40.54411 -2.4 -54.82314
v 36.38465 17.6 -63.41684
v 36.38465 -2.4 -63.41684
v 36.38465 17.6 -63.41684
v 36.38465 -2.4 -63.41684
v 32.23536 17.6 -72.08504
v 32.23536 -2.4 -72.08504
v 32.23536 17.6 -72.08504
v 32.23536 -2.4 -72.08504
v 27.43136 17.6 -80.29922
v 27.43136 -2.4 -80.29922
v 27.43136 17.6 -80.29922
v 27.43136 -2.4 -80.29922
v 21.23109 17.6 -88.2602
v 21.23109 -2.4 -88.2602
v 21.23109 17.6 -88.2602
v 21.23109 -2.4 -88.2602
v 14.9419 17.6 -96.13376
v 14.9419 -2.4 -96.13376
v 14.9419 17.6 -96.13376
v 14.9419 -2.4 -96.13376
v 8.665821 17.6 -103.9146
v 8.665821 -2.4 -103.9146
v 8.665821 17.6 -103.9146
v 8.665821 -2.4 -103.9146
v 6.782039 17.6 -106.2461
v 6.782039 -2.4 -106.2461
v 6.782039 17.6 -106.2461
v 6.782039 -2.4 -106.2461
v -2.977499 17.6 -110.6931
v -2.977499 -2.4 -110.6931
v 37.85815 17.6 -35.66095
v 37.85815 -2.4 -35.66095
v 32.50087 17.6 -38.37323
v 32.50087 -2.4 -38.37323
v 32.50087 17.6 -38.37323
v 32.50087 -2.4 -38.37323
v 26.6372 17.6 -44.47552
v 26.6372 -2.4 -44.47552
v 26.6372 17.6 -44.47552
v 26.6372 -2.4 -44.47552
v 19.63089 17.6 -50.85447
v 19.63089 -2.4 -50.85447
v 19.63089 17.6 -50.85447
v 19.63089 -2.4 -50.85447
v 12.53669 17.6 -57.09964
v 12.53669 -2.4 -57.09964
v 12.53669 17.6 -57.09964
v 12.53669 -2.4 -57.09964
v 5.968639 17.6 -63.70079
v 5.968639 -2.4 -63.70079
v 5.968639 17.6 -63.70079
v 5.968639 -2.4 -63.70079
v -0.07191658 17.6 -71.45728
v -0.07191658 -2.4 -71.45728
v -0.07191658 17.6 -71.45728
v -0.07191658 -2.4 -71.45728
v -6.216872 17.6 -79.14957
v -6.216872 -2.4 -79.14957
v -6.216872 17.6 -79.14957
v -6.216872 -2.4 -79.14957
v -12.4493 17.6 -86.87621
v -12.4493 -2.4 -86.87621
v -12.4493 17.6 -86.87621
v -12.4493 -2.4 -86.87621
v -14.32204 17.6 -89.19395
v -14.32204 -2.4 -89.19395
v -14.32204 17.6 -89.19395
v -14.32204 -2.4 -89.19395
v -16.62016 17.6 -99.66978
v -16.62016 -2.4 -99.66978
vt -0.06656027 -0.08379897
vt -0.06463094 -0.09342771
vt -0.07235398 -0.0822211
vt -0.06936947 -0.09711596
vt -0.0808161 -0.08282371
vt -0.07739009 -0.09981601
vt -0.09036302 -0.08291958
vt -0.08614838 -0.1034315
vt -0.09997297 -0.08297444
vt -0.09482318 -0.1071835
vt -0.1094516 -0.08381514
vt -0.1035955 -0.1103078
vt -0.1192969 -0.08602669
vt -0.1131877 -0.1124622
vt -0.129101 -0.08835597
vt -0.1227663 -0.1147383
vt -0.1388158 -0.09071293
vt -0.1324134 -0.1170789
vt -0.141728 -0.0914221
vt -0.1353086 -0.1177839
vt -0.1499135 -0.09835187
vt -0.1457637 -0.1153934
vt -0.06656027 -0.08379897
vt -0.06656027 -0.08379897
vt -0.07235398 -0.0822211
vt -0.07235398 -0.0822211
vt -0.07235398 -0.0822211
vt -0.07235398 -0.0822211
vt -0.0808161 -0.08282371
vt -0.0808161 -0.08282371
vt -0.0808161 -0.08282371
vt -0.0808161 -0.08282371
vt -0.09036302 -0.08291958
vt -0.09036302 -0.08291958
vt -0.09036302 -0.08291958
vt -0.09036302 -0.08291958
vt -0.09997297 -0.08297444
vt -0.09997297 -0.08297444
vt -0.09997297 -0.08297444
vt -0.09997297 -0.08297444
vt -0.1094516 -0.08381514
vt -0.1094516 -0.08381514
vt -0.1094516 -0.08381514
vt -0.1094516 -0.08381514
vt -0.1192969 -0.08602669
vt -0.1192969 -0.08602669
vt -0.1192969 -0.08602669
vt -0.1192969 -0.08602669
vt -0.129101 -0.08835597
vt -0.129101 -0.08835597
vt -0.129101 -0.08835597
vt -0.129101 -0.08835597
vt -0.1388158 -0.09071293
vt -0.1388158 -0.09071293
vt -0.1388158 -0.09071293
vt -0.1388158 -0.09071293
vt -0.141728 -0.0914221
vt -0.141728 -0.0914221
vt -0.141728 -0.0914221
vt -0.141728 -0.0914221
vt -0.1499135 -0.09835187
vt -0.1499135 -0.09835187
vt -0.06463094 -0.09342771
vt -0.06463094 -0.09342771
vt -0.06936947 -0.09711596
vt -0.06936947 -0.09711596
vt -0.06936947 -0.09711596
vt -0.06936947 -0.09711596
vt -0.07739009 -0.09981601
vt -0.07739009 -0.09981601
vt -0.07739009 -0.09981601
vt -0.07739009 -0.09981601
vt -0.08614838 -0.1034315
vt -0.08614838 -0.1034315
vt -0.08614838 -0.1034315
vt -0.08614838 -0.1034315
vt -0.09482318 -0.1071835
vt -0.09482318 -0.1071835
vt -0.09482318 -0.1071835
vt -0.09482318 -0.1071835
vt -0.1035955 -0.1103078
vt -0.1035955 -0.1103078
vt -0.1035955 -0.1103078
vt -0.1035955 -0.1103078
vt -0.1131877 -0.1124622
vt -0.1131877 -0.1124622
vt -0.1131877 -0.1124622
vt -0.1131877 -0.1124622
vt -0.1227663 -0.1147383
vt -0.1227663 -0.1147383
vt -0.1227663 -0.1147383
vt -0.1227663 -0.1147383
vt -0.1324134 -0.1170789
vt -0.1324134 -0.1170789
vt -0.1324134 -0.1170789
vt -0.1324134 -0.1170789
vt -0.1353086 -0.1177839
vt -0.1353086 -0.1177839
vt -0.1353086 -0.1177839
vt -0.1353086 -0.1177839
vt -0.1457637 -0.1153934
vt -0.1457637 -0.1153934
vn 0 1 0
vn 0 1 0
vn 0 1 0
vn 0 1 0
vn 0 1 0
vn 0 1 0
vn 0 1 0
vn 0 1 0
vn 0 1 0
vn 0 1 0
vn 0 1 0
vn 0 1 0
vn 0 1 0
vn 0 1 0
vn 0 1 0
vn 0 1 0
vn 0 1 0
vn 0 1 0
vn 0 1 0
vn 0 1 0
vn 0 1 0
vn 0 1 0
vn 0.5959837 0 0.8029965
vn 0.5959837 0 0.8029965
vn 0.9847541 0 -0.1739521
vn 0.9847541 0 -0.1739521
vn 0.8718495 0 -0.4897738
vn 0.8718495 0 -0.4897738
vn 0.8718495 0 -0.4897738
vn 0.8718495 0 -0.4897738
vn 0.9001089 0 -0.435665
vn 0.9001089 0 -0.435665
vn 0.9001089 0 -0.435665
vn 0.9001089 0 -0.435665
vn 0.9019874 0 -0.4317624
vn 0.9019874 0 -0.4317624
vn 0.9019874 0 -0.4317624
vn 0.9019874 0 -0.4317624
vn 0.8632115 0 -0.5048426
vn 0.8632115 0 -0.5048426
vn 0.8632115 0 -0.5048426
vn 0.8632115 0 -0.5048426
vn 0.788949 0 -0.6144587
vn 0.788949 0 -0.6144587
vn 0.788949 0 -0.6144587
vn 0.788949 0 -0.6144587
vn 0.7813357 0 -0.6241109
vn 0.7813357 0 -0.6241109
vn 0.7813357 0 -0.6241109
vn 0.7813357 0 -0.6241109
vn 0.7783555 0 -0.6278238
vn 0.7783555 0 -0.6278238
vn 0.7783555 0 -0.6278238
vn 0.7783555 0 -0.6278238
vn 0.7778252 0 -0.6284807
vn 0.7778252 0 -0.6284807
vn 0.7778252 0 -0.6284807
vn 0.7778252 0 -0.6284807
vn 0.4146408 0 -0.9099852
vn 0.4146408 0 -0.9099852
vn -0.6284819 0 -0.7778242
vn -0.6284819 0 -0.7778242
vn 0.5959837 0 0.8029965
vn 0.5959837 0 0.8029965
vn -0.4516903 0 0.8921748
vn -0.4516903 0 0.8921748
vn -0.7210642 0 0.6928683
vn -0.7210642 0 0.6928683
vn -0.7210642 0 0.6928683
vn -0.7210642 0 0.6928683
vn -0.6732262 0 0.7394366
vn -0.6732262 0 0.7394366
vn -0.6732262 0 0.7394366
vn -0.6732262 0 0.7394366
vn -0.6607637 0 0.750594
vn -0.6607637 0 0.750594
vn -0.6607637 0 0.750594
vn -0.6607637 0 0.750594
vn -0.7088813 0 0.7053278
vn -0.7088813 0 0.7053278
vn -0.7088813 0 0.7053278
vn -0.7088813 0 0.7053278
vn -0.7889712 0 0.6144301
vn -0.7889712 0 0.6144301
vn -0.7889712 0 0.6144301
vn -0.7889712 0 0.6144301
vn -0.7813081 0 0.6241454
vn -0.7813081 0 0.6241454
vn -0.7813081 0 0.6241454
vn -0.7813081 0 0.6241454
vn -0.7783508 0 0.6278297
vn -0.7783508 0 0.6278297
vn -0.7783508 0 0.6278297
vn -0.7783508 0 0.6278297
vn -0.7778242 0 0.6284819
vn -0.7778242 0 0.6284819
vn -0.7778242 0 0.6284819
vn -0.7778242 0 0.6284819
vn -0.9767727 0 0.2142781
vn -0.9767727 0 0.2142781
vn -0.6284819 0 -0.7778242
vn -0.6284819 0 -0.7778242
g _0
f 3/3/3 2/2/2 1/1/1
f 2/2/2 3/3/3 4/4/4
f 5/5/5 4/4/4 3/3/3
f 4/4/4 5/5/5 6/6/6
f 7/7/7 6/6/6 5/5/5
f 6/6/6 7/7/7 8/8/8
f 9/9/9 8/8/8 7/7/7
f 8/8/8 9/9/9 10/10/10
f 11/11/11 10/10/10 9/9/9
f 10/10/10 11/11/11 12/12/12
f 13/13/13 12/12/12 11/11/11
f 12/12/12 13/13/13 14/14/14
f 15/15/15 14/14/14 13/13/13
f 14/14/14 15/15/15 16/16/16
f 17/17/17 16/16/16 15/15/15
f 16/16/16 17/17/17 18/18/18
f 19/19/19 18/18/18 17/17/17
f 18/18/18 19/19/19 20/20/20
f 21/21/21 20/20/20 19/19/19
f 20/20/20 21/21/21 22/22/22
g _1
f 23/23/23 24/24/24 25/25/25
f 26/26/26 25/25/25 24/24/24
f 27/27/27 28/28/28 29/29/29
f 30/30/30 29/29/29 28/28/28
f 31/31/31 32/32/32 33/33/33
f 34/34/34 33/33/33 32/32/32
f 35/35/35 36/36/36 37/37/37
f 38/38/38 37/37/37 36/36/36
f 39/39/39 40/40/40 41/41/41
f 42/42/42 41/41/41 40/40/40
f 43/43/43 44/44/44 45/45/45
f 46/46/46 45/45/45 44/44/44
f 47/47/47 48/48/48 49/49/49
f 50/50/50 49/49/49 48/48/48
f 51/51/51 52/52/52 53/53/53
f 54/54/54 53/53/53 52/52/52
f 55/55/55 56/56/56 57/57/57
f 58/58/58 57/57/57 56/56/56
f 59/59/59 60/60/60 61/61/61
f 62/62/62 61/61/61 60/60/60
f 65/65/65 64/64/64 63/63/63
f 64/64/64 65/65/65 66/66/66
f 69/69/69 68/68/68 67/67/67
f 68/68/68 69/69/69 70/70/70
f 73/73/73 72/72/72 71/71/71
f 72/72/72 73/73/73 74/74/74
f 77/77/77 76/76/76 75/75/75
f 76/76/76 77/77/77 78/78/78
f 81/81/81 80/80/80 79/79/79
f 80/80/80 81/81/81 82/82/82
f 85/85/85 84/84/84 83/83/83
f 84/84/84 85/85/85 86/86/86
f 89/89/89 88/88/88 87/87/87
f 88/88/88 89/89/89 90/90/90
f 93/93/93 92/92/92 91/91/91
f 92/92/92 93/93/93 94/94/94
f 97/97/97 96/96/96 95/95/95
f 96/96/96 97/97/97 98/98/98
f 101/101/101 100/100/100 99/99/99
f 100/100/100 101/101/101 102/102/102
f 63/63/63 24/24/24 23/23/23
f 24/24/24 63/63/63 64/64/64
f 61/61/61 62/62/62 101/101/101
f 102/102/102 101/101/101 62/62/62
