g 
v -122.1327 1.9 -5.971424
v -127.9522 1.9 -6.248614
v -119.6126 1.9 -7.173781
v -130.3466 1.9 -7.685029
v -117.6332 1.9 -8.802864
v -132.1622 1.9 -9.494863
v -116.3977 1.9 -12.90457
v -133.0023 1.9 -13.69543
v -117.1802 2.418519 -17.69681
v -131.7712 2.418519 -18.32134
v -118.9624 3.439095 -23.06803
v -129.5891 3.439095 -23.35439
v -119.4892 3.759259 -28.39155
v -128.902 3.759259 -28.41583
v -117.4845 2.753968 -33.54043
v -131.0145 2.753968 -33.2492
v -116.0929 2 -38.1775
v -132.7071 2 -37.62251
v -117.2701 2 -42.29634
v -131.8074 2 -41.81072
v -119.2262 2 -43.95337
v -129.9663 2 -43.59458
v -121.7289 2 -45.19139
v -127.5518 2 -44.99685
v -122.1327 1.9 -5.971424
v -122.1327 -0.1 -5.971424
v -119.6126 1.9 -7.173781
v -119.6126 -0.1 -7.173781
v -119.6126 1.9 -7.173781
v -119.6126 -0.1 -7.173781
v -117.6332 1.9 -8.802864
v -117.6332 -0.1 -8.802864
v -117.6332 1.9 -8.802864
v -117.6332 -0.1 -8.802864
v -116.3977 1.9 -12.90457
v -116.3977 -0.1 -12.90457
v -116.3977 1.9 -12.90457
v -116.3977 -0.1 -12.90457
v -117.1802 2.418519 -17.69681
v -117.1802 0.4185185 -17.69681
v -117.1802 2.418519 -17.69681
v -117.1802 0.4185185 -17.69681
v -118.9624 3.439095 -23.06803
v -118.9624 1.439095 -23.06803
v -118.9624 3.439095 -23.06803
v -118.9624 1.439095 -23.06803
v -119.4892 3.759259 -28.39155
v -119.4892 1.759259 -28.39155
v -119.4892 3.759259 -28.39155
v -119.4892 1.759259 -28.39155
v -117.4845 2.753968 -33.54043
v -117.4845 0.7539682 -33.54043
v -117.4845 2.753968 -33.54043
v -117.4845 0.7539682 -33.54043
v -116.0929 2 -38.1775
v -116.0929 0 -38.1775
v -116.0929 2 -38.1775
v -116.0929 0 -38.1775
v -117.2701 2 -42.29634
v -117.2701 0 -42.29634
v -117.2701 2 -42.29634
v -117.2701 0 -42.29634
v -119.2262 2 -43.95337
v -119.2262 0 -43.95337
v -119.2262 2 -43.95337
v -119.2262 0 -43.95337
v -121.7289 2 -45.19139
v -121.7289 0 -45.19139
v -127.9522 1.9 -6.248614
v -127.9522 -0.1 -6.248614
v -130.3466 1.9 -7.685029
v -130.3466 -0.1 -7.685029
v -130.3466 1.9 -7.685029
v -130.3466 -0.1 -7.685029
v -132.1622 1.9 -9.494863
v -132.1622 -0.1 -9.494863
v -132.1622 1.9 -9.494863
v -132.1622 -0.1 -9.494863
v -133.0023 1.9 -13.69543
v -133.0023 -0.1 -13.69543
v -133.0023 1.9 -13.69543
v -133.0023 -0.1 -13.69543
v -131.7712 2.418519 -18.32134
v -131.7712 0.4185185 -18.32134
v -131.7712 2.418519 -18.32134
v -131.7712 0.4185185 -18.32134
v -129.5891 3.439095 -23.35439
v -129.5891 1.439095 -23.35439
v -129.5891 3.439095 -23.35439
v -129.5891 1.439095 -23.35439
v -128.902 3.759259 -28.41583
v -128.902 1.759259 -28.41583
v -128.902 3.759259 -28.41583
v -128.902 1.759259 -28.41583
v -131.0145 2.753968 -33.2492
v -131.0145 0.7539682 -33.2492
v -131.0145 2.753968 -33.2492
v -131.0145 0.7539682 -33.2492
v -132.7071 2 -37.62251
v -132.7071 0 -37.62251
v -132.7071 2 -37.62251
v -132.7071 0 -37.62251
v -131.8074 2 -41.81072
v -131.8074 0 -41.81072
v -131.8074 2 -41.81072
v -131.8074 0 -41.81072
v -129.9663 2 -43.59458
v -129.9663 0 -43.59458
v -129.9663 2 -43.59458
v -129.9663 0 -43.59458
v -127.5518 2 -44.99685
v -127.5518 0 -44.99685
vt -0.03985284 0.01629868
vt -0.03694305 0.01616009
vt -0.04111286 0.0156975
vt -0.03574587 0.01544188
vt -0.04210256 0.01488296
vt -0.03483807 0.01453696
vt -0.04272031 0.01283211
vt -0.03441803 0.01243668
vt -0.04232908 0.01043599
vt -0.03503355 0.01012372
vt -0.04143797 0.007750381
vt -0.0361246 0.007607196
vt -0.04117457 0.005088619
vt -0.03646817 0.005076479
vt -0.04217692 0.002514179
vt -0.03541191 0.002659794
vt -0.04287269 0.0001956425
vt -0.03456564 0.0004731407
vt -0.04228413 -0.001863775
vt -0.03501546 -0.001620966
vt -0.04130609 -0.002692293
vt -0.03593602 -0.002512896
vt -0.04005473 -0.003311302
vt -0.03714328 -0.003214031
vt -0.03985284 0.01629868
vt -0.03985284 0.01629868
vt -0.04111286 0.0156975
vt -0.04111286 0.0156975
vt -0.04111286 0.0156975
vt -0.04111286 0.0156975
vt -0.04210256 0.01488296
vt -0.04210256 0.01488296
vt -0.04210256 0.01488296
vt -0.04210256 0.01488296
vt -0.04272031 0.01283211
vt -0.04272031 0.01283211
vt -0.04272031 0.01283211
vt -0.04272031 0.01283211
vt -0.04232908 0.01043599
vt -0.04232908 0.01043599
vt -0.04232908 0.01043599
vt -0.04232908 0.01043599
vt -0.04143797 0.007750381
vt -0.04143797 0.007750381
vt -0.04143797 0.007750381
vt -0.04143797 0.007750381
vt -0.04117457 0.005088619
vt -0.04117457 0.005088619
vt -0.04117457 0.005088619
vt -0.04117457 0.005088619
vt -0.04217692 0.002514179
vt -0.04217692 0.002514179
vt -0.04217692 0.002514179
vt -0.04217692 0.002514179
vt -0.04287269 0.0001956425
vt -0.04287269 0.0001956425
vt -0.04287269 0.0001956425
vt -0.04287269 0.0001956425
vt -0.04228413 -0.001863775
vt -0.04228413 -0.001863775
vt -0.04228413 -0.001863775
vt -0.04228413 -0.001863775
vt -0.04130609 -0.002692293
vt -0.04130609 -0.002692293
vt -0.04130609 -0.002692293
vt -0.04130609 -0.002692293
vt -0.04005473 -0.003311302
vt -0.04005473 -0.003311302
vt -0.03694305 0.01616009
vt -0.03694305 0.01616009
vt -0.03574587 0.01544188
vt -0.03574587 0.01544188
vt -0.03574587 0.01544188
vt -0.03574587 0.01544188
vt -0.03483807 0.01453696
vt -0.03483807 0.01453696
vt -0.03483807 0.01453696
vt -0.03483807 0.01453696
vt -0.03441803 0.01243668
vt -0.03441803 0.01243668
vt -0.03441803 0.01243668
vt -0.03441803 0.01243668
vt -0.03503355 0.01012372
vt -0.03503355 0.01012372
vt -0.03503355 0.01012372
vt -0.03503355 0.01012372
vt -0.0361246 0.007607196
vt -0.0361246 0.007607196
vt -0.0361246 0.007607196
vt -0.0361246 0.007607196
vt -0.03646817 0.005076479
vt -0.03646817 0.005076479
vt -0.03646817 0.005076479
vt -0.03646817 0.005076479
vt -0.03541191 0.002659794
vt -0.03541191 0.002659794
vt -0.03541191 0.002659794
vt -0.03541191 0.002659794
vt -0.03456564 0.0004731407
vt -0.03456564 0.0004731407
vt -0.03456564 0.0004731407
vt -0.03456564 0.0004731407
vt -0.03501546 -0.001620966
vt -0.03501546 -0.001620966
vt -0.03501546 -0.001620966
vt -0.03501546 -0.001620966
vt -0.03593602 -0.002512896
vt -0.03593602 -0.002512896
vt -0.03593602 -0.002512896
vt -0.03593602 -0.002512896
vt -0.03714328 -0.003214031
vt -0.03714328 -0.003214031
vn 0 1 0
vn 0 1 0
vn 0 1 0
vn 0 1 0
vn 0 1 0
vn 0 1 0
vn 0 1 0
vn 0 1 0
vn 0 1 0
vn 0 1 0
vn 0 1 0
vn 0 1 0
vn 0 1 0
vn 0 1 0
vn 0 1 0
vn 0 1 0
vn 0 1 0
vn 0 1 0
vn 0 1 0
vn 0 1 0
vn 0 1 0
vn 0 1 0
vn 0 1 0
vn 0 1 0
vn -0.04757677 0 0.9988676
vn -0.04757677 0 0.9988676
vn 0.4306168 0 0.9025348
vn 0.4306168 0 0.9025348
vn 0.6354721 0 0.7721238
vn 0.6354721 0 0.7721238
vn 0.6354721 0 0.7721238
vn 0.6354721 0 0.7721238
vn 0.957505 0 0.2884169
vn 0.957505 0 0.2884169
vn 0.957505 0 0.2884169
vn 0.957505 0 0.2884169
vn 0.9869313 0 -0.1611417
vn 0.9869313 0 -0.1611417
vn 0.9869313 0 -0.1611417
vn 0.9869313 0 -0.1611417
vn 0.9491163 0 -0.3149256
vn 0.9491163 0 -0.3149256
vn 0.9491163 0 -0.3149256
vn 0.9491163 0 -0.3149256
vn 0.9951394 0 -0.09847642
vn 0.9951394 0 -0.09847642
vn 0.9951394 0 -0.09847642
vn 0.9951394 0 -0.09847642
vn 0.9318604 0 0.3628168
vn 0.9318604 0 0.3628168
vn 0.9318604 0 0.3628168
vn 0.9318604 0 0.3628168
vn 0.9578021 0 0.2874286
vn 0.9578021 0 0.2874286
vn 0.9578021 0 0.2874286
vn 0.9578021 0 0.2874286
vn 0.9615041 0 -0.2747905
vn 0.9615041 0 -0.2747905
vn 0.9615041 0 -0.2747905
vn 0.9615041 0 -0.2747905
vn 0.6463725 0 -0.763022
vn 0.6463725 0 -0.763022
vn 0.6463725 0 -0.763022
vn 0.6463725 0 -0.763022
vn 0.4433885 0 -0.8963296
vn 0.4433885 0 -0.8963296
vn -0.03339105 0 -0.9994424
vn -0.03339105 0 -0.9994424
vn -0.04757677 0 0.9988676
vn -0.04757677 0 0.9988676
vn -0.5144446 0 0.8575236
vn -0.5144446 0 0.8575236
vn -0.7059787 0 0.7082331
vn -0.7059787 0 0.7082331
vn -0.7059787 0 0.7082331
vn -0.7059787 0 0.7082331
vn -0.9805825 0 0.1961069
vn -0.9805825 0 0.1961069
vn -0.9805825 0 0.1961069
vn -0.9805825 0 0.1961069
vn -0.9663671 0 -0.2571665
vn -0.9663671 0 -0.2571665
vn -0.9663671 0 -0.2571665
vn -0.9663671 0 -0.2571665
vn -0.9174818 0 -0.3977778
vn -0.9174818 0 -0.3977778
vn -0.9174818 0 -0.3977778
vn -0.9174818 0 -0.3977778
vn -0.9909098 0 -0.1345276
vn -0.9909098 0 -0.1345276
vn -0.9909098 0 -0.1345276
vn -0.9909098 0 -0.1345276
vn -0.9163021 0 0.4004876
vn -0.9163021 0 0.4004876
vn -0.9163021 0 0.4004876
vn -0.9163021 0 0.4004876
vn -0.9325926 0 0.3609307
vn -0.9325926 0 0.3609307
vn -0.9325926 0 0.3609307
vn -0.9325926 0 0.3609307
vn -0.9776985 0 -0.2100131
vn -0.9776985 0 -0.2100131
vn -0.9776985 0 -0.2100131
vn -0.9776985 0 -0.2100131
vn -0.6958493 0 -0.7181877
vn -0.6958493 0 -0.7181877
vn -0.6958493 0 -0.7181877
vn -0.6958493 0 -0.7181877
vn -0.502216 0 -0.8647422
vn -0.502216 0 -0.8647422
vn -0.03339105 0 -0.9994424
vn -0.03339105 0 -0.9994424
g _0
f 3/3/3 2/2/2 1/1/1
f 2/2/2 3/3/3 4/4/4
f 5/5/5 4/4/4 3/3/3
f 4/4/4 5/5/5 6/6/6
f 7/7/7 6/6/6 5/5/5
f 6/6/6 7/7/7 8/8/8
f 9/9/9 8/8/8 7/7/7
f 8/8/8 9/9/9 10/10/10
f 11/11/11 10/10/10 9/9/9
f 10/10/10 11/11/11 12/12/12
f 13/13/13 12/12/12 11/11/11
f 12/12/12 13/13/13 14/14/14
f 15/15/15 14/14/14 13/13/13
f 14/14/14 15/15/15 16/16/16
f 17/17/17 16/16/16 15/15/15
f 16/16/16 17/17/17 18/18/18
f 19/19/19 18/18/18 17/17/17
f 18/18/18 19/19/19 20/20/20
f 21/21/21 20/20/20 19/19/19
f 20/20/20 21/21/21 22/22/22
f 23/23/23 22/22/22 21/21/21
f 22/22/22 23/23/23 24/24/24
g _1
f 25/25/25 26/26/26 27/27/27
f 28/28/28 27/27/27 26/26/26
f 29/29/29 30/30/30 31/31/31
f 32/32/32 31/31/31 30/30/30
f 33/33/33 34/34/34 35/35/35
f 36/36/36 35/35/35 34/34/34
f 37/37/37 38/38/38 39/39/39
f 40/40/40 39/39/39 38/38/38
f 41/41/41 42/42/42 43/43/43
f 44/44/44 43/43/43 42/42/42
f 45/45/45 46/46/46 47/47/47
f 48/48/48 47/47/47 46/46/46
f 49/49/49 50/50/50 51/51/51
f 52/52/52 51/51/51 50/50/50
f 53/53/53 54/54/54 55/55/55
f 56/56/56 55/55/55 54/54/54
f 57/57/57 58/58/58 59/59/59
f 60/60/60 59/59/59 58/58/58
f 61/61/61 62/62/62 63/63/63
f 64/64/64 63/63/63 62/62/62
f 65/65/65 66/66/66 67/67/67
f 68/68/68 67/67/67 66/66/66
f 71/71/71 70/70/70 69/69/69
f 70/70/70 71/71/71 72/72/72
f 75/75/75 74/74/74 73/73/73
f 74/74/74 75/75/75 76/76/76
f 79/79/79 78/78/78 77/77/77
f 78/78/78 79/79/79 80/80/80
f 83/83/83 82/82/82 81/81/81
f 82/82/82 83/83/83 84/84/84
f 87/87/87 86/86/86 85/85/85
f 86/86/86 87/87/87 88/88/88
f 91/91/91 90/90/90 89/89/89
f 90/90/90 91/91/91 92/92/92
f 95/95/95 94/94/94 93/93/93
f 94/94/94 95/95/95 96/96/96
f 99/99/99 98/98/98 97/97/97
f 98/98/98 99/99/99 100/100/100
f 103/103/103 102/102/102 101/101/101
f 102/102/102 103/103/103 104/104/104
f 107/107/107 106/106/106 105/105/105
f 106/106/106 107/107/107 108/108/108
f 111/111/111 110/110/110 109/109/109
f 110/110/110 111/111/111 112/112/112
f 69/69/69 26/26/26 25/25/25
f 26/26/26 69/69/69 70/70/70
f 67/67/67 68/68/68 111/111/111
f 112/112/112 111/111/111 68/68/68
