g 
v 99.46747 49.75609 55.53763
v 99.46747 35.75609 55.53763
v 103.3348 49.43356 55.10442
v 103.3348 35.43356 55.10442
v 101.0897 48.51011 48.97295
v 101.0897 34.51011 48.97295
v 100.9928 47.03197 42.53724
v 100.9928 33.03197 42.53724
v 95.55905 45.91191 38.77811
v 95.55905 31.91191 38.77811
v 90.69757 46.7769 41.24659
v 90.69757 32.7769 41.24659
v 89.68045 48.10353 46.70928
v 89.68045 34.10353 46.70928
v 87.6545 49.27113 53.99525
v 87.6545 35.27113 53.99525
v 88.86306 49.68779 55.36427
v 88.86306 35.68779 55.36427
v 90.54044 50.85381 51.1172
v 90.54044 36.85381 51.1172
v 91.62425 51.76503 44.09113
v 91.62425 37.76503 44.09113
v 95.63725 51.45165 43.00111
v 95.63725 37.45165 43.00111
v 98.14988 51.83 46.23572
v 98.14988 37.83 46.23572
v 99.62469 50.24242 53.74443
v 99.62469 36.24242 53.74443
v 99.46747 49.75609 55.53763
v 99.46747 35.75609 55.53763
vt -1.015675 0.4423763
vt -1.015675 0.4423763
vt -1.054348 0.4380442
vt -1.054348 0.4380442
vt -1.031897 0.3767295
vt -1.031897 0.3767295
vt -1.030928 0.3123724
vt -1.030928 0.3123724
vt -0.9765905 0.2747811
vt -0.9765905 0.2747811
vt -0.9279757 0.2994659
vt -0.9279757 0.2994659
vt -0.9178045 0.3540928
vt -0.9178045 0.3540928
vt -0.897545 0.4269525
vt -0.897545 0.4269525
vt -0.9096305 0.4406427
vt -0.9096305 0.4406427
vt -0.9264043 0.398172
vt -0.9264043 0.398172
vt -0.9372425 0.3279113
vt -0.9372425 0.3279113
vt -0.9773725 0.3170111
vt -0.9773725 0.3170111
vt -1.002499 0.3493572
vt -1.002499 0.3493572
vt -1.017247 0.4244443
vt -1.017247 0.4244443
vt -1.015675 0.4423763
vt -1.015675 0.4423763
vn 0.1113193 0 0.9937847
vn 0.1113193 0 0.9937847
vn 0.9390292 0 -0.3438373
vn 0.9390292 0 -0.3438373
vn 0.9998866 0 -0.01505981
vn 0.9998866 0 -0.01505981
vn 0.5689352 0 -0.8223823
vn 0.5689352 0 -0.8223823
vn -0.4527423 0 -0.8916414
vn -0.4527423 0 -0.8916414
vn -0.9831039 0 -0.1830483
vn -0.9831039 0 -0.1830483
vn -0.9634475 0 -0.2678975
vn -0.9634475 0 -0.2678975
vn -0.7496759 0 0.6618052
vn -0.7496759 0 0.6618052
vn 0.9300879 0 0.3673372
vn 0.9300879 0 0.3673372
vn 0.9883106 0 0.1524533
vn 0.9883106 0 0.1524533
vn 0.2621262 0 0.9650336
vn 0.2621262 0 0.9650336
vn -0.7897289 0 0.613456
vn -0.7897289 0 0.613456
vn -0.9812515 0 0.1927316
vn -0.9812515 0 0.1927316
vn -0.9961782 0 -0.08734416
vn -0.9961782 0 -0.08734416
vn -0.9961782 0 -0.08734416
vn -0.9961782 0 -0.08734416
g _0
f 1/1/1 2/2/2 3/3/3
f 4/4/4 3/3/3 2/2/2
f 3/3/3 4/4/4 5/5/5
f 6/6/6 5/5/5 4/4/4
f 5/5/5 6/6/6 7/7/7
f 8/8/8 7/7/7 6/6/6
f 7/7/7 8/8/8 9/9/9
f 10/10/10 9/9/9 8/8/8
f 9/9/9 10/10/10 11/11/11
f 12/12/12 11/11/11 10/10/10
f 11/11/11 12/12/12 13/13/13
f 14/14/14 13/13/13 12/12/12
f 13/13/13 14/14/14 15/15/15
f 16/16/16 15/15/15 14/14/14
f 15/15/15 16/16/16 17/17/17
f 18/18/18 17/17/17 16/16/16
f 17/17/17 18/18/18 19/19/19
f 20/20/20 19/19/19 18/18/18
f 19/19/19 20/20/20 21/21/21
f 22/22/22 21/21/21 20/20/20
f 21/21/21 22/22/22 23/23/23
f 24/24/24 23/23/23 22/22/22
f 23/23/23 24/24/24 25/25/25
f 26/26/26 25/25/25 24/24/24
f 25/25/25 26/26/26 27/27/27
f 28/28/28 27/27/27 26/26/26
f 27/27/27 28/28/28 29/29/29
f 30/30/30 29/29/29 28/28/28
