g 
v -153.1934 10.75 4.233262
v -154.5715 10.75 8.896059
v -153.8849 10.75 2.071261
v -156.3271 10.75 10.33481
v -156.5479 10.75 0.2135668
v -159.5721 10.75 10.44643
v -168.2742 10.75 -1.398854
v -162.6658 10.75 7.678854
v -171.2457 8.11 11.07395
v -166.4343 8.11 12.90605
v -171.3116 8.11 12.63915
v -167.4262 8.11 14.11866
v -170.6841 8.11 13.53679
v -168.4918 8.11 14.37162
v -153.1934 10.75 4.233262
v -153.1934 -4.25 4.233262
v -153.8849 10.75 2.071261
v -153.8849 -4.25 2.071261
v -153.8849 10.75 2.071261
v -153.8849 -4.25 2.071261
v -156.5479 10.75 0.2135668
v -156.5479 -4.25 0.2135668
v -156.5479 10.75 0.2135668
v -156.5479 -4.25 0.2135668
v -168.2742 10.75 -1.398854
v -168.2742 -4.25 -1.398854
v -168.2742 10.75 -1.398854
v -168.2742 -4.25 -1.398854
v -171.2457 8.11 11.07395
v -171.2457 -6.89 11.07395
v -171.2457 8.11 11.07395
v -171.2457 -6.89 11.07395
v -171.3116 8.11 12.63915
v -171.3116 -6.89 12.63915
v -171.3116 8.11 12.63915
v -171.3116 -6.89 12.63915
v -170.6841 8.11 13.53679
v -170.6841 -6.89 13.53679
v -154.5715 10.75 8.896059
v -154.5715 -4.25 8.896059
v -156.3271 10.75 10.33481
v -156.3271 -4.25 10.33481
v -156.3271 10.75 10.33481
v -156.3271 -4.25 10.33481
v -159.5721 10.75 10.44643
v -159.5721 -4.25 10.44643
v -159.5721 10.75 10.44643
v -159.5721 -4.25 10.44643
v -162.6658 10.75 7.678854
v -162.6658 -4.25 7.678854
v -162.6658 10.75 7.678854
v -162.6658 -4.25 7.678854
v -166.4343 8.11 12.90605
v -166.4343 -6.89 12.90605
v -166.4343 8.11 12.90605
v -166.4343 -6.89 12.90605
v -167.4262 8.11 14.11866
v -167.4262 -6.89 14.11866
v -167.4262 8.11 14.11866
v -167.4262 -6.89 14.11866
v -168.4918 8.11 14.37162
v -168.4918 -6.89 14.37162
vt 0.008073677 -0.02604599
vt 0.008762718 -0.02371459
vt 0.008419419 -0.02712699
vt 0.009640549 -0.02299521
vt 0.009750901 -0.02805584
vt 0.01126305 -0.0229394
vt 0.01561405 -0.02886204
vt 0.0128099 -0.02432319
vt 0.0170998 -0.02262564
vt 0.01469415 -0.02170959
vt 0.01713276 -0.02184305
vt 0.01519007 -0.02110329
vt 0.01681904 -0.02139422
vt 0.01572286 -0.02097681
vt 0.008073677 -0.02604599
vt 0.008073677 -0.02604599
vt 0.008419419 -0.02712699
vt 0.008419419 -0.02712699
vt 0.008419419 -0.02712699
vt 0.008419419 -0.02712699
vt 0.009750901 -0.02805584
vt 0.009750901 -0.02805584
vt 0.009750901 -0.02805584
vt 0.009750901 -0.02805584
vt 0.01561405 -0.02886204
vt 0.01561405 -0.02886204
vt 0.01561405 -0.02886204
vt 0.01561405 -0.02886204
vt 0.0170998 -0.02262564
vt 0.0170998 -0.02262564
vt 0.0170998 -0.02262564
vt 0.0170998 -0.02262564
vt 0.01713276 -0.02184305
vt 0.01713276 -0.02184305
vt 0.01713276 -0.02184305
vt 0.01713276 -0.02184305
vt 0.01681904 -0.02139422
vt 0.01681904 -0.02139422
vt 0.008762718 -0.02371459
vt 0.008762718 -0.02371459
vt 0.009640549 -0.02299521
vt 0.009640549 -0.02299521
vt 0.009640549 -0.02299521
vt 0.009640549 -0.02299521
vt 0.01126305 -0.0229394
vt 0.01126305 -0.0229394
vt 0.01126305 -0.0229394
vt 0.01126305 -0.0229394
vt 0.0128099 -0.02432319
vt 0.0128099 -0.02432319
vt 0.0128099 -0.02432319
vt 0.0128099 -0.02432319
vt 0.01469415 -0.02170959
vt 0.01469415 -0.02170959
vt 0.01469415 -0.02170959
vt 0.01469415 -0.02170959
vt 0.01519007 -0.02110329
vt 0.01519007 -0.02110329
vt 0.01519007 -0.02110329
vt 0.01519007 -0.02110329
vt 0.01572286 -0.02097681
vt 0.01572286 -0.02097681
vn 0 1 0
vn 0 1 0
vn 0 1 0
vn 0 1 0
vn 0 1 0
vn 0 1 0
vn 0 1 0
vn 0 1 0
vn 0 1 0
vn 0 1 0
vn 0 1 0
vn 0 1 0
vn 0 1 0
vn 0 1 0
vn 0.9589933 0 0.2834289
vn 0.9589933 0 0.2834289
vn 0.9524699 0 -0.3046328
vn 0.9524699 0 -0.3046328
vn 0.5721428 0 -0.820154
vn 0.5721428 0 -0.820154
vn 0.5721428 0 -0.820154
vn 0.5721428 0 -0.820154
vn 0.1362228 0 -0.9906783
vn 0.1362228 0 -0.9906783
vn 0.1362228 0 -0.9906783
vn 0.1362228 0 -0.9906783
vn -0.9727749 0 -0.231752
vn -0.9727749 0 -0.231752
vn -0.9727749 0 -0.231752
vn -0.9727749 0 -0.231752
vn -0.9991144 0 -0.04207748
vn -0.9991144 0 -0.04207748
vn -0.9991144 0 -0.04207748
vn -0.9991144 0 -0.04207748
vn -0.8196227 0 0.5729037
vn -0.8196227 0 0.5729037
vn -0.3558648 0 0.9345375
vn -0.3558648 0 0.9345375
vn 0.9589933 0 0.2834289
vn 0.9589933 0 0.2834289
vn 0.6338452 0 0.77346
vn 0.6338452 0 0.77346
vn 0.03437782 0 0.9994089
vn 0.03437782 0 0.9994089
vn 0.03437782 0 0.9994089
vn 0.03437782 0 0.9994089
vn -0.6667317 0 0.7452978
vn -0.6667317 0 0.7452978
vn -0.6667317 0 0.7452978
vn -0.6667317 0 0.7452978
vn 0.8111727 0 0.5848066
vn 0.8111727 0 0.5848066
vn 0.8111727 0 0.5848066
vn 0.8111727 0 0.5848066
vn 0.774047 0 0.633128
vn 0.774047 0 0.633128
vn 0.774047 0 0.633128
vn 0.774047 0 0.633128
vn 0.2309725 0 0.9729603
vn 0.2309725 0 0.9729603
vn -0.3558648 0 0.9345375
vn -0.3558648 0 0.9345375
g _0
f 3/3/3 2/2/2 1/1/1
f 2/2/2 3/3/3 4/4/4
f 5/5/5 4/4/4 3/3/3
f 4/4/4 5/5/5 6/6/6
f 7/7/7 6/6/6 5/5/5
f 6/6/6 7/7/7 8/8/8
f 9/9/9 8/8/8 7/7/7
f 8/8/8 9/9/9 10/10/10
f 11/11/11 10/10/10 9/9/9
f 10/10/10 11/11/11 12/12/12
f 13/13/13 12/12/12 11/11/11
f 12/12/12 13/13/13 14/14/14
g _1
f 15/15/15 16/16/16 17/17/17
f 18/18/18 17/17/17 16/16/16
f 19/19/19 20/20/20 21/21/21
f 22/22/22 21/21/21 20/20/20
f 23/23/23 24/24/24 25/25/25
f 26/26/26 25/25/25 24/24/24
f 27/27/27 28/28/28 29/29/29
f 30/30/30 29/29/29 28/28/28
f 31/31/31 32/32/32 33/33/33
f 34/34/34 33/33/33 32/32/32
f 35/35/35 36/36/36 37/37/37
f 38/38/38 37/37/37 36/36/36
f 41/41/41 40/40/40 39/39/39
f 40/40/40 41/41/41 42/42/42
f 45/45/45 44/44/44 43/43/43
f 44/44/44 45/45/45 46/46/46
f 49/49/49 48/48/48 47/47/47
f 48/48/48 49/49/49 50/50/50
f 53/53/53 52/52/52 51/51/51
f 52/52/52 53/53/53 54/54/54
f 57/57/57 56/56/56 55/55/55
f 56/56/56 57/57/57 58/58/58
f 61/61/61 60/60/60 59/59/59
f 60/60/60 61/61/61 62/62/62
f 39/39/39 16/16/16 15/15/15
f 16/16/16 39/39/39 40/40/40
f 37/37/37 38/38/38 61/61/61
f 62/62/62 61/61/61 38/38/38
