g 
v 7.99 36.53356 -35.7
v 7.99 22.53356 -35.7
v 6.88 36.46597 -39.61
v 6.88 22.46597 -39.61
v 5.25 36.51321 -41.93
v 5.25 22.51321 -41.93
v 3.91 36.51321 -41.45
v 3.91 22.51321 -41.45
v 3.74 36.58359 -37.41
v 3.74 22.58359 -37.41
v 5.63 36.58359 -35.31
v 5.63 22.58359 -35.31
v 7.99 36.53356 -35.7
v 7.99 22.53356 -35.7
vt -1.0901 -0.002400017
vt -1.0901 -0.002400017
vt -1.079 -0.04150001
vt -1.079 -0.04150001
vt -1.0627 -0.06470001
vt -1.0627 -0.06470001
vt -1.0493 -0.05990002
vt -1.0493 -0.05990002
vt -1.0476 -0.01950001
vt -1.0476 -0.01950001
vt -1.0665 0.001499977
vt -1.0665 0.001499977
vt -1.0901 -0.002400017
vt -1.0901 -0.002400017
vn 0.9619868 0 -0.2730959
vn 0.9619868 0 -0.2730959
vn 0.8182365 0 -0.5748818
vn 0.8182365 0 -0.5748818
vn -0.3372261 0 -0.9414237
vn -0.3372261 0 -0.9414237
vn -0.9991158 0 -0.04204201
vn -0.9991158 0 -0.04204201
vn -0.7432939 0 0.668965
vn -0.7432939 0 0.668965
vn 0.1630427 0 0.986619
vn 0.1630427 0 0.986619
vn 0.1630427 0 0.986619
vn 0.1630427 0 0.986619
g _0
f 1/1/1 2/2/2 3/3/3
f 4/4/4 3/3/3 2/2/2
f 3/3/3 4/4/4 5/5/5
f 6/6/6 5/5/5 4/4/4
f 5/5/5 6/6/6 7/7/7
f 8/8/8 7/7/7 6/6/6
f 7/7/7 8/8/8 9/9/9
f 10/10/10 9/9/9 8/8/8
f 9/9/9 10/10/10 11/11/11
f 12/12/12 11/11/11 10/10/10
f 11/11/11 12/12/12 13/13/13
f 14/14/14 13/13/13 12/12/12
