g 
v 59.56239 17.6 -28.47094
v 53.13761 17.6 -20.10906
v 52.75135 17.6 -34.31979
v 47.95701 17.6 -23.47388
v 42.2851 17.6 -36.76505
v 41.45055 17.6 -24.61839
v 32.62152 18.45718 -36.17683
v 33.18687 18.45718 -24.01468
v 25.04272 21.20014 -35.92751
v 23.6821 21.20014 -23.82848
v 16.71932 22.97204 -37.95979
v 13.4029 22.97204 -26.24488
v 7.761627 23.38222 -40.89922
v 3.971687 23.38222 -29.32882
v -1.36427 23.79241 -43.888
v -5.291319 23.79241 -32.36342
v -10.31009 24.34323 -47.05485
v -14.57764 24.34323 -35.65196
v -19.20736 25.105 -50.56765
v -23.67736 25.105 -39.2426
v -28.1749 25.86677 -54.10705
v -32.70681 25.86677 -42.80662
v -37.0929 26.41759 -57.74026
v -41.7275 26.41759 -46.48156
v -46.02235 26.82778 -61.45411
v -50.69786 26.82778 -50.21234
v -54.97226 27.23796 -65.17642
v -59.64777 27.23796 -53.93465
v -56.76224 27.32 -65.92088
v -61.43776 27.32 -54.67912
v 59.56239 17.6 -28.47094
v 59.56239 -2.4 -28.47094
v 52.75135 17.6 -34.31979
v 52.75135 -2.4 -34.31979
v 52.75135 17.6 -34.31979
v 52.75135 -2.4 -34.31979
v 42.2851 17.6 -36.76505
v 42.2851 -2.4 -36.76505
v 42.2851 17.6 -36.76505
v 42.2851 -2.4 -36.76505
v 32.62152 18.45718 -36.17683
v 32.62152 -1.542824 -36.17683
v 32.62152 18.45718 -36.17683
v 32.62152 -1.542824 -36.17683
v 25.04272 21.20014 -35.92751
v 25.04272 1.200138 -35.92751
v 25.04272 21.20014 -35.92751
v 25.04272 1.200138 -35.92751
v 16.71932 22.97204 -37.95979
v 16.71932 2.972036 -37.95979
v 16.71932 22.97204 -37.95979
v 16.71932 2.972036 -37.95979
v 7.761627 23.38222 -40.89922
v 7.761627 3.382221 -40.89922
v 7.761627 23.38222 -40.89922
v 7.761627 3.382221 -40.89922
v -1.36427 23.79241 -43.888
v -1.36427 3.792408 -43.888
v -1.36427 23.79241 -43.888
v -1.36427 3.792408 -43.888
v -10.31009 24.34323 -47.05485
v -10.31009 4.343227 -47.05485
v -10.31009 24.34323 -47.05485
v -10.31009 4.343227 -47.05485
v -19.20736 25.105 -50.56765
v -19.20736 5.105 -50.56765
v -19.20736 25.105 -50.56765
v -19.20736 5.105 -50.56765
v -28.1749 25.86677 -54.10705
v -28.1749 5.866774 -54.10705
v -28.1749 25.86677 -54.10705
v -28.1749 5.866774 -54.10705
v -37.0929 26.41759 -57.74026
v -37.0929 6.417593 -57.74026
v -37.0929 26.41759 -57.74026
v -37.0929 6.417593 -57.74026
v -46.02235 26.82778 -61.45411
v -46.02235 6.827778 -61.45411
v -46.02235 26.82778 -61.45411
v -46.02235 6.827778 -61.45411
v -54.97226 27.23796 -65.17642
v -54.97226 7.237963 -65.17642
v -54.97226 27.23796 -65.17642
v -54.97226 7.237963 -65.17642
v -56.76224 27.32 -65.92088
v -56.76224 7.32 -65.92088
v 53.13761 17.6 -20.10906
v 53.13761 -2.4 -20.10906
v 47.95701 17.6 -23.47388
v 47.95701 -2.4 -23.47388
v 47.95701 17.6 -23.47388
v 47.95701 -2.4 -23.47388
v 41.45055 17.6 -24.61839
v 41.45055 -2.4 -24.61839
v 41.45055 17.6 -24.61839
v 41.45055 -2.4 -24.61839
v 33.18687 18.45718 -24.01468
v 33.18687 -1.542824 -24.01468
v 33.18687 18.45718 -24.01468
v 33.18687 -1.542824 -24.01468
v 23.6821 21.20014 -23.82848
v 23.6821 1.200138 -23.82848
v 23.6821 21.20014 -23.82848
v 23.6821 1.200138 -23.82848
v 13.4029 22.97204 -26.24488
v 13.4029 2.972036 -26.24488
v 13.4029 22.97204 -26.24488
v 13.4029 2.972036 -26.24488
v 3.971687 23.38222 -29.32882
v 3.971687 3.382221 -29.32882
v 3.971687 23.38222 -29.32882
v 3.971687 3.382221 -29.32882
v -5.291319 23.79241 -32.36342
v -5.291319 3.792408 -32.36342
v -5.291319 23.79241 -32.36342
v -5.291319 3.792408 -32.36342
v -14.57764 24.34323 -35.65196
v -14.57764 4.343227 -35.65196
v -14.57764 24.34323 -35.65196
v -14.57764 4.343227 -35.65196
v -23.67736 25.105 -39.2426
v -23.67736 5.105 -39.2426
v -23.67736 25.105 -39.2426
v -23.67736 5.105 -39.2426
v -32.70681 25.86677 -42.80662
v -32.70681 5.866774 -42.80662
v -32.70681 25.86677 -42.80662
v -32.70681 5.866774 -42.80662
v -41.7275 26.41759 -46.48156
v -41.7275 6.417593 -46.48156
v -41.7275 26.41759 -46.48156
v -41.7275 6.417593 -46.48156
v -50.69786 26.82778 -50.21234
v -50.69786 6.827778 -50.21234
v -50.69786 26.82778 -50.21234
v -50.69786 6.827778 -50.21234
v -59.64777 27.23796 -53.93465
v -59.64777 7.237963 -53.93465
v -59.64777 27.23796 -53.93465
v -59.64777 7.237963 -53.93465
v -61.43776 27.32 -54.67912
v -61.43776 7.32 -54.67912
vt 0.05091035 -0.1680326
vt 0.05432834 -0.1580568
vt 0.05923257 -0.1714
vt 0.06031222 -0.159591
vt 0.06993166 -0.1703749
vt 0.06684348 -0.1585977
vt 0.07890139 -0.1667314
vt 0.07448165 -0.1553866
vt 0.08600371 -0.1640748
vt 0.08342926 -0.1521748
vt 0.09454029 -0.1633426
vt 0.09394189 -0.151182
vt 0.1039676 -0.1632675
vt 0.1038641 -0.1510926
vt 0.1135701 -0.1631854
vt 0.1136112 -0.1510102
vt 0.1230589 -0.1633296
vt 0.1234614 -0.151161
vt 0.132612 -0.1638171
vt 0.1332313 -0.1516576
vt 0.1422403 -0.1643074
vt 0.1429261 -0.1521514
vt 0.1518516 -0.1649024
vt 0.1526481 -0.1527532
vt 0.1614995 -0.1655702
vt 0.1623401 -0.1534239
vt 0.1711695 -0.1662394
vt 0.1720101 -0.1540932
vt 0.1731035 -0.1663733
vt 0.1739441 -0.154227
vt 0.05091035 -0.1680326
vt 0.05091035 -0.1680326
vt 0.05923257 -0.1714
vt 0.05923257 -0.1714
vt 0.05923257 -0.1714
vt 0.05923257 -0.1714
vt 0.06993166 -0.1703749
vt 0.06993166 -0.1703749
vt 0.06993166 -0.1703749
vt 0.06993166 -0.1703749
vt 0.07890139 -0.1667314
vt 0.07890139 -0.1667314
vt 0.07890139 -0.1667314
vt 0.07890139 -0.1667314
vt 0.08600371 -0.1640748
vt 0.08600371 -0.1640748
vt 0.08600371 -0.1640748
vt 0.08600371 -0.1640748
vt 0.09454029 -0.1633426
vt 0.09454029 -0.1633426
vt 0.09454029 -0.1633426
vt 0.09454029 -0.1633426
vt 0.1039676 -0.1632675
vt 0.1039676 -0.1632675
vt 0.1039676 -0.1632675
vt 0.1039676 -0.1632675
vt 0.1135701 -0.1631854
vt 0.1135701 -0.1631854
vt 0.1135701 -0.1631854
vt 0.1135701 -0.1631854
vt 0.1230589 -0.1633296
vt 0.1230589 -0.1633296
vt 0.1230589 -0.1633296
vt 0.1230589 -0.1633296
vt 0.132612 -0.1638171
vt 0.132612 -0.1638171
vt 0.132612 -0.1638171
vt 0.132612 -0.1638171
vt 0.1422403 -0.1643074
vt 0.1422403 -0.1643074
vt 0.1422403 -0.1643074
vt 0.1422403 -0.1643074
vt 0.1518516 -0.1649024
vt 0.1518516 -0.1649024
vt 0.1518516 -0.1649024
vt 0.1518516 -0.1649024
vt 0.1614995 -0.1655702
vt 0.1614995 -0.1655702
vt 0.1614995 -0.1655702
vt 0.1614995 -0.1655702
vt 0.1711695 -0.1662394
vt 0.1711695 -0.1662394
vt 0.1711695 -0.1662394
vt 0.1711695 -0.1662394
vt 0.1731035 -0.1663733
vt 0.1731035 -0.1663733
vt 0.05432834 -0.1580568
vt 0.05432834 -0.1580568
vt 0.06031222 -0.159591
vt 0.06031222 -0.159591
vt 0.06031222 -0.159591
vt 0.06031222 -0.159591
vt 0.06684348 -0.1585977
vt 0.06684348 -0.1585977
vt 0.06684348 -0.1585977
vt 0.06684348 -0.1585977
vt 0.07448165 -0.1553866
vt 0.07448165 -0.1553866
vt 0.07448165 -0.1553866
vt 0.07448165 -0.1553866
vt 0.08342926 -0.1521748
vt 0.08342926 -0.1521748
vt 0.08342926 -0.1521748
vt 0.08342926 -0.1521748
vt 0.09394189 -0.151182
vt 0.09394189 -0.151182
vt 0.09394189 -0.151182
vt 0.09394189 -0.151182
vt 0.1038641 -0.1510926
vt 0.1038641 -0.1510926
vt 0.1038641 -0.1510926
vt 0.1038641 -0.1510926
vt 0.1136112 -0.1510102
vt 0.1136112 -0.1510102
vt 0.1136112 -0.1510102
vt 0.1136112 -0.1510102
vt 0.1234614 -0.151161
vt 0.1234614 -0.151161
vt 0.1234614 -0.151161
vt 0.1234614 -0.151161
vt 0.1332313 -0.1516576
vt 0.1332313 -0.1516576
vt 0.1332313 -0.1516576
vt 0.1332313 -0.1516576
vt 0.1429261 -0.1521514
vt 0.1429261 -0.1521514
vt 0.1429261 -0.1521514
vt 0.1429261 -0.1521514
vt 0.1526481 -0.1527532
vt 0.1526481 -0.1527532
vt 0.1526481 -0.1527532
vt 0.1526481 -0.1527532
vt 0.1623401 -0.1534239
vt 0.1623401 -0.1534239
vt 0.1623401 -0.1534239
vt 0.1623401 -0.1534239
vt 0.1720101 -0.1540932
vt 0.1720101 -0.1540932
vt 0.1720101 -0.1540932
vt 0.1720101 -0.1540932
vt 0.1739441 -0.154227
vt 0.1739441 -0.154227
vn 0 1 0
vn 0 1 0
vn 0 1 0
vn 0 1 0
vn 0 1 0
vn 0 1 0
vn 0 1 0
vn 0 1 0
vn 0 1 0
vn 0 1 0
vn 0 1 0
vn 0 1 0
vn 0 1 0
vn 0 1 0
vn 0 1 0
vn 0 1 0
vn 0 1 0
vn 0 1 0
vn 0 1 0
vn 0 1 0
vn 0 1 0
vn 0 1 0
vn 0 1 0
vn 0 1 0
vn 0 1 0
vn 0 1 0
vn 0 1 0
vn 0 1 0
vn 0 1 0
vn 0 1 0
vn 0.7929646 0 0.6092677
vn 0.7929646 0 0.6092677
vn 0.6514856 0 -0.758661
vn 0.6514856 0 -0.758661
vn 0.2275065 0 -0.9737766
vn 0.2275065 0 -0.9737766
vn 0.2275065 0 -0.9737766
vn 0.2275065 0 -0.9737766
vn -0.06075716 0 -0.9981526
vn -0.06075716 0 -0.9981526
vn -0.06075716 0 -0.9981526
vn -0.06075716 0 -0.9981526
vn -0.0328799 0 -0.9994593
vn -0.0328799 0 -0.9994593
vn -0.0328799 0 -0.9994593
vn -0.0328799 0 -0.9994593
vn 0.2371968 0 -0.9714617
vn 0.2371968 0 -0.9714617
vn 0.2371968 0 -0.9714617
vn 0.2371968 0 -0.9714617
vn 0.3117881 0 -0.9501516
vn 0.3117881 0 -0.9501516
vn 0.3117881 0 -0.9501516
vn 0.3117881 0 -0.9501516
vn 0.3112389 0 -0.9503317
vn 0.3112389 0 -0.9503317
vn 0.3112389 0 -0.9503317
vn 0.3112389 0 -0.9503317
vn 0.3337101 0 -0.9426758
vn 0.3337101 0 -0.9426758
vn 0.3337101 0 -0.9426758
vn 0.3337101 0 -0.9426758
vn 0.3672316 0 -0.9301296
vn 0.3672316 0 -0.9301296
vn 0.3672316 0 -0.9301296
vn 0.3672316 0 -0.9301296
vn 0.3671289 0 -0.9301701
vn 0.3671289 0 -0.9301701
vn 0.3671289 0 -0.9301701
vn 0.3671289 0 -0.9301701
vn 0.3772926 0 -0.9260941
vn 0.3772926 0 -0.9260941
vn 0.3772926 0 -0.9260941
vn 0.3772926 0 -0.9260941
vn 0.3840199 0 -0.9233248
vn 0.3840199 0 -0.9233248
vn 0.3840199 0 -0.9233248
vn 0.3840199 0 -0.9233248
vn 0.3840166 0 -0.9233261
vn 0.3840166 0 -0.9233261
vn 0.3840166 0 -0.9233261
vn 0.3840166 0 -0.9233261
vn 0.3840162 0 -0.9233263
vn 0.3840162 0 -0.9233263
vn -0.923326 0 -0.3840171
vn -0.923326 0 -0.3840171
vn 0.7929646 0 0.6092677
vn 0.7929646 0 0.6092677
vn -0.544696 0 0.8386335
vn -0.544696 0 0.8386335
vn -0.1732444 0 0.9848789
vn -0.1732444 0 0.9848789
vn -0.1732444 0 0.9848789
vn -0.1732444 0 0.9848789
vn 0.07286256 0 0.9973419
vn 0.07286256 0 0.9973419
vn 0.07286256 0 0.9973419
vn 0.07286256 0 0.9973419
vn 0.01958592 0 0.9998082
vn 0.01958592 0 0.9998082
vn 0.01958592 0 0.9998082
vn 0.01958592 0 0.9998082
vn -0.2288389 0 0.9734643
vn -0.2288389 0 0.9734643
vn -0.2288389 0 0.9734643
vn -0.2288389 0 0.9734643
vn -0.3107989 0 0.9504758
vn -0.3107989 0 0.9504758
vn -0.3107989 0 0.9504758
vn -0.3107989 0 0.9504758
vn -0.3113233 0 0.950304
vn -0.3113233 0 0.950304
vn -0.3113233 0 0.950304
vn -0.3113233 0 0.950304
vn -0.3338146 0 0.9426388
vn -0.3338146 0 0.9426388
vn -0.3338146 0 0.9426388
vn -0.3338146 0 0.9426388
vn -0.367046 0 0.9302028
vn -0.367046 0 0.9302028
vn -0.367046 0 0.9302028
vn -0.367046 0 0.9302028
vn -0.3671459 0 0.9301633
vn -0.3671459 0 0.9301633
vn -0.3671459 0 0.9301633
vn -0.3671459 0 0.9301633
vn -0.3772833 0 0.9260979
vn -0.3772833 0 0.9260979
vn -0.3772833 0 0.9260979
vn -0.3772833 0 0.9260979
vn -0.3840125 0 0.9233279
vn -0.3840125 0 0.9233279
vn -0.3840125 0 0.9233279
vn -0.3840125 0 0.9233279
vn -0.384016 0 0.9233264
vn -0.384016 0 0.9233264
vn -0.384016 0 0.9233264
vn -0.384016 0 0.9233264
vn -0.3840165 0 0.9233263
vn -0.3840165 0 0.9233263
vn -0.923326 0 -0.3840171
vn -0.923326 0 -0.3840171
g _0
f 3/3/3 2/2/2 1/1/1
f 2/2/2 3/3/3 4/4/4
f 5/5/5 4/4/4 3/3/3
f 4/4/4 5/5/5 6/6/6
f 7/7/7 6/6/6 5/5/5
f 6/6/6 7/7/7 8/8/8
f 9/9/9 8/8/8 7/7/7
f 8/8/8 9/9/9 10/10/10
f 11/11/11 10/10/10 9/9/9
f 10/10/10 11/11/11 12/12/12
f 13/13/13 12/12/12 11/11/11
f 12/12/12 13/13/13 14/14/14
f 15/15/15 14/14/14 13/13/13
f 14/14/14 15/15/15 16/16/16
f 17/17/17 16/16/16 15/15/15
f 16/16/16 17/17/17 18/18/18
f 19/19/19 18/18/18 17/17/17
f 18/18/18 19/19/19 20/20/20
f 21/21/21 20/20/20 19/19/19
f 20/20/20 21/21/21 22/22/22
f 23/23/23 22/22/22 21/21/21
f 22/22/22 23/23/23 24/24/24
f 25/25/25 24/24/24 23/23/23
f 24/24/24 25/25/25 26/26/26
f 27/27/27 26/26/26 25/25/25
f 26/26/26 27/27/27 28/28/28
f 29/29/29 28/28/28 27/27/27
f 28/28/28 29/29/29 30/30/30
g _1
f 31/31/31 32/32/32 33/33/33
f 34/34/34 33/33/33 32/32/32
f 35/35/35 36/36/36 37/37/37
f 38/38/38 37/37/37 36/36/36
f 39/39/39 40/40/40 41/41/41
f 42/42/42 41/41/41 40/40/40
f 43/43/43 44/44/44 45/45/45
f 46/46/46 45/45/45 44/44/44
f 47/47/47 48/48/48 49/49/49
f 50/50/50 49/49/49 48/48/48
f 51/51/51 52/52/52 53/53/53
f 54/54/54 53/53/53 52/52/52
f 55/55/55 56/56/56 57/57/57
f 58/58/58 57/57/57 56/56/56
f 59/59/59 60/60/60 61/61/61
f 62/62/62 61/61/61 60/60/60
f 63/63/63 64/64/64 65/65/65
f 66/66/66 65/65/65 64/64/64
f 67/67/67 68/68/68 69/69/69
f 70/70/70 69/69/69 68/68/68
f 71/71/71 72/72/72 73/73/73
f 74/74/74 73/73/73 72/72/72
f 75/75/75 76/76/76 77/77/77
f 78/78/78 77/77/77 76/76/76
f 79/79/79 80/80/80 81/81/81
f 82/82/82 81/81/81 80/80/80
f 83/83/83 84/84/84 85/85/85
f 86/86/86 85/85/85 84/84/84
f 89/89/89 88/88/88 87/87/87
f 88/88/88 89/89/89 90/90/90
f 93/93/93 92/92/92 91/91/91
f 92/92/92 93/93/93 94/94/94
f 97/97/97 96/96/96 95/95/95
f 96/96/96 97/97/97 98/98/98
f 101/101/101 100/100/100 99/99/99
f 100/100/100 101/101/101 102/102/102
f 105/105/105 104/104/104 103/103/103
f 104/104/104 105/105/105 106/106/106
f 109/109/109 108/108/108 107/107/107
f 108/108/108 109/109/109 110/110/110
f 113/113/113 112/112/112 111/111/111
f 112/112/112 113/113/113 114/114/114
f 117/117/117 116/116/116 115/115/115
f 116/116/116 117/117/117 118/118/118
f 121/121/121 120/120/120 119/119/119
f 120/120/120 121/121/121 122/122/122
f 125/125/125 124/124/124 123/123/123
f 124/124/124 125/125/125 126/126/126
f 129/129/129 128/128/128 127/127/127
f 128/128/128 129/129/129 130/130/130
f 133/133/133 132/132/132 131/131/131
f 132/132/132 133/133/133 134/134/134
f 137/137/137 136/136/136 135/135/135
f 136/136/136 137/137/137 138/138/138
f 141/141/141 140/140/140 139/139/139
f 140/140/140 141/141/141 142/142/142
f 87/87/87 32/32/32 31/31/31
f 32/32/32 87/87/87 88/88/88
f 85/85/85 86/86/86 141/141/141
f 142/142/142 141/141/141 86/86/86
