g 
v 27.91816 18 -61.89443
v 14.54855 18 -72.34906
v 35.82379 18 -61.36609
v 12.12978 18 -79.8941
v 45.27031 18 -67.62825
v 15.9297 18 -90.57175
v 50.57992 18.06667 -74.45748
v 21.27734 18.06667 -97.37124
v 56.47949 18.14074 -82.04552
v 27.21917 18.14074 -104.9262
v 62.36441 18.26561 -89.6447
v 33.17533 18.26561 -112.4697
v 68.24567 18.40318 -97.24664
v 39.13509 18.40318 -120.0103
v 74.13975 18.4963 -104.8389
v 45.0823 18.4963 -127.5609
v 80.03932 18.57037 -112.4269
v 51.02413 18.57037 -135.1159
v 82.39914 18.6 -115.4621
v 53.40086 18.6 -138.1379
v 86.15472 18.6 -126.0152
v 62.73717 18.6 -144.327
v 83.76418 18.6 -133.4722
v 70.55055 18.6 -143.8048
v 27.91816 18 -61.89443
v 27.91816 -12 -61.89443
v 35.82379 18 -61.36609
v 35.82379 -12 -61.36609
v 35.82379 18 -61.36609
v 35.82379 -12 -61.36609
v 45.27031 18 -67.62825
v 45.27031 -12 -67.62825
v 45.27031 18 -67.62825
v 45.27031 -12 -67.62825
v 50.57992 18.06667 -74.45748
v 50.57992 -11.93333 -74.45748
v 50.57992 18.06667 -74.45748
v 50.57992 -11.93333 -74.45748
v 56.47949 18.14074 -82.04552
v 56.47949 -11.85926 -82.04552
v 56.47949 18.14074 -82.04552
v 56.47949 -11.85926 -82.04552
v 62.36441 18.26561 -89.6447
v 62.36441 -11.73439 -89.6447
v 62.36441 18.26561 -89.6447
v 62.36441 -11.73439 -89.6447
v 68.24567 18.40318 -97.24664
v 68.24567 -11.59682 -97.24664
v 68.24567 18.40318 -97.24664
v 68.24567 -11.59682 -97.24664
v 74.13975 18.4963 -104.8389
v 74.13975 -11.5037 -104.8389
v 74.13975 18.4963 -104.8389
v 74.13975 -11.5037 -104.8389
v 80.03932 18.57037 -112.4269
v 80.03932 -11.42963 -112.4269
v 80.03932 18.57037 -112.4269
v 80.03932 -11.42963 -112.4269
v 82.39914 18.6 -115.4621
v 82.39914 -11.4 -115.4621
v 82.39914 18.6 -115.4621
v 82.39914 -11.4 -115.4621
v 86.15472 18.6 -126.0152
v 86.15472 -11.4 -126.0152
v 86.15472 18.6 -126.0152
v 86.15472 -11.4 -126.0152
v 83.76418 18.6 -133.4722
v 83.76418 -11.4 -133.4722
v 14.54855 18 -72.34906
v 14.54855 -12 -72.34906
v 12.12978 18 -79.8941
v 12.12978 -12 -79.8941
v 12.12978 18 -79.8941
v 12.12978 -12 -79.8941
v 15.9297 18 -90.57175
v 15.9297 -12 -90.57175
v 15.9297 18 -90.57175
v 15.9297 -12 -90.57175
v 21.27734 18.06667 -97.37124
v 21.27734 -11.93333 -97.37124
v 21.27734 18.06667 -97.37124
v 21.27734 -11.93333 -97.37124
v 27.21917 18.14074 -104.9262
v 27.21917 -11.85926 -104.9262
v 27.21917 18.14074 -104.9262
v 27.21917 -11.85926 -104.9262
v 33.17533 18.26561 -112.4697
v 33.17533 -11.73439 -112.4697
v 33.17533 18.26561 -112.4697
v 33.17533 -11.73439 -112.4697
v 39.13509 18.40318 -120.0103
v 39.13509 -11.59682 -120.0103
v 39.13509 18.40318 -120.0103
v 39.13509 -11.59682 -120.0103
v 45.0823 18.4963 -127.5609
v 45.0823 -11.5037 -127.5609
v 45.0823 18.4963 -127.5609
v 45.0823 -11.5037 -127.5609
v 51.02413 18.57037 -135.1159
v 51.02413 -11.42963 -135.1159
v 51.02413 18.57037 -135.1159
v 51.02413 -11.42963 -135.1159
v 53.40086 18.6 -138.1379
v 53.40086 -11.4 -138.1379
v 53.40086 18.6 -138.1379
v 53.40086 -11.4 -138.1379
v 62.73717 18.6 -144.327
v 62.73717 -11.4 -144.327
v 62.73717 18.6 -144.327
v 62.73717 -11.4 -144.327
v 70.55055 18.6 -143.8048
v 70.55055 -11.4 -143.8048
vt 0.006793868 -0.04221078
vt 0.005419958 -0.02529457
vt 0.01176338 -0.04838185
vt 0.0093285 -0.01840244
vt 0.02277025 -0.0510837
vt 0.01975512 -0.01395979
vt 0.03139033 -0.05035937
vt 0.0283791 -0.01328359
vt 0.04096819 -0.04955457
vt 0.0379613 -0.01253225
vt 0.05054433 -0.04873143
vt 0.04754475 -0.01179927
vt 0.06012001 -0.04790374
vt 0.05712852 -0.01107087
vt 0.06969722 -0.04709206
vt 0.06671119 -0.01032643
vt 0.07927508 -0.04628725
vt 0.07629339 -0.009575086
vt 0.08310622 -0.04596532
vt 0.08012627 -0.009274559
vt 0.09341118 -0.04157452
vt 0.09100473 -0.01194489
vt 0.09727414 -0.0347628
vt 0.09591625 -0.01804397
vt 0.006793868 -0.04221078
vt 0.006793868 -0.04221078
vt 0.01176338 -0.04838185
vt 0.01176338 -0.04838185
vt 0.01176338 -0.04838185
vt 0.01176338 -0.04838185
vt 0.02277025 -0.0510837
vt 0.02277025 -0.0510837
vt 0.02277025 -0.0510837
vt 0.02277025 -0.0510837
vt 0.03139033 -0.05035937
vt 0.03139033 -0.05035937
vt 0.03139033 -0.05035937
vt 0.03139033 -0.05035937
vt 0.04096819 -0.04955457
vt 0.04096819 -0.04955457
vt 0.04096819 -0.04955457
vt 0.04096819 -0.04955457
vt 0.05054433 -0.04873143
vt 0.05054433 -0.04873143
vt 0.05054433 -0.04873143
vt 0.05054433 -0.04873143
vt 0.06012001 -0.04790374
vt 0.06012001 -0.04790374
vt 0.06012001 -0.04790374
vt 0.06012001 -0.04790374
vt 0.06969722 -0.04709206
vt 0.06969722 -0.04709206
vt 0.06969722 -0.04709206
vt 0.06969722 -0.04709206
vt 0.07927508 -0.04628725
vt 0.07927508 -0.04628725
vt 0.07927508 -0.04628725
vt 0.07927508 -0.04628725
vt 0.08310622 -0.04596532
vt 0.08310622 -0.04596532
vt 0.08310622 -0.04596532
vt 0.08310622 -0.04596532
vt 0.09341118 -0.04157452
vt 0.09341118 -0.04157452
vt 0.09341118 -0.04157452
vt 0.09341118 -0.04157452
vt 0.09727414 -0.0347628
vt 0.09727414 -0.0347628
vt 0.005419958 -0.02529457
vt 0.005419958 -0.02529457
vt 0.0093285 -0.01840244
vt 0.0093285 -0.01840244
vt 0.0093285 -0.01840244
vt 0.0093285 -0.01840244
vt 0.01975512 -0.01395979
vt 0.01975512 -0.01395979
vt 0.01975512 -0.01395979
vt 0.01975512 -0.01395979
vt 0.0283791 -0.01328359
vt 0.0283791 -0.01328359
vt 0.0283791 -0.01328359
vt 0.0283791 -0.01328359
vt 0.0379613 -0.01253225
vt 0.0379613 -0.01253225
vt 0.0379613 -0.01253225
vt 0.0379613 -0.01253225
vt 0.04754475 -0.01179927
vt 0.04754475 -0.01179927
vt 0.04754475 -0.01179927
vt 0.04754475 -0.01179927
vt 0.05712852 -0.01107087
vt 0.05712852 -0.01107087
vt 0.05712852 -0.01107087
vt 0.05712852 -0.01107087
vt 0.06671119 -0.01032643
vt 0.06671119 -0.01032643
vt 0.06671119 -0.01032643
vt 0.06671119 -0.01032643
vt 0.07629339 -0.009575086
vt 0.07629339 -0.009575086
vt 0.07629339 -0.009575086
vt 0.07629339 -0.009575086
vt 0.08012627 -0.009274559
vt 0.08012627 -0.009274559
vt 0.08012627 -0.009274559
vt 0.08012627 -0.009274559
vt 0.09100473 -0.01194489
vt 0.09100473 -0.01194489
vt 0.09100473 -0.01194489
vt 0.09100473 -0.01194489
vt 0.09591625 -0.01804397
vt 0.09591625 -0.01804397
vn 0 1 0
vn 0 1 0
vn 0 1 0
vn 0 1 0
vn 0 1 0
vn 0 1 0
vn 0 1 0
vn 0 1 0
vn 0 1 0
vn 0 1 0
vn 0 1 0
vn 0 1 0
vn 0 1 0
vn 0 1 0
vn 0 1 0
vn 0 1 0
vn 0 1 0
vn 0 1 0
vn 0 1 0
vn 0 1 0
vn 0 1 0
vn 0 1 0
vn 0 1 0
vn 0 1 0
vn -0.6159962 0 0.7877492
vn -0.6159962 0 0.7877492
vn -0.06668203 0 0.9977742
vn -0.06668203 0 0.9977742
vn 0.5525287 0 0.8334938
vn 0.5525287 0 0.8334938
vn 0.5525287 0 0.8334938
vn 0.5525287 0 0.8334938
vn 0.7894651 0 0.6137954
vn 0.7894651 0 0.6137954
vn 0.7894651 0 0.6137954
vn 0.7894651 0 0.6137954
vn 0.7894647 0 0.613796
vn 0.7894647 0 0.613796
vn 0.7894647 0 0.613796
vn 0.7894647 0 0.613796
vn 0.7906389 0 0.6122828
vn 0.7906389 0 0.6122828
vn 0.7906389 0 0.6122828
vn 0.7906389 0 0.6122828
vn 0.7909309 0 0.6119054
vn 0.7909309 0 0.6119054
vn 0.7909309 0 0.6119054
vn 0.7909309 0 0.6119054
vn 0.7899054 0 0.6132287
vn 0.7899054 0 0.6132287
vn 0.7899054 0 0.6132287
vn 0.7899054 0 0.6132287
vn 0.7894647 0 0.613796
vn 0.7894647 0 0.613796
vn 0.7894647 0 0.613796
vn 0.7894647 0 0.613796
vn 0.7894658 0 0.6137946
vn 0.7894658 0 0.6137946
vn 0.7894658 0 0.6137946
vn 0.7894658 0 0.6137946
vn 0.9421192 0 0.3352779
vn 0.9421192 0 0.3352779
vn 0.9421192 0 0.3352779
vn 0.9421192 0 0.3352779
vn 0.9522646 0 -0.3052739
vn 0.9522646 0 -0.3052739
vn 0.6159956 0 -0.7877496
vn 0.6159956 0 -0.7877496
vn -0.6159962 0 0.7877492
vn -0.6159962 0 0.7877492
vn -0.9522642 0 0.3052749
vn -0.9522642 0 0.3052749
vn -0.9421194 0 -0.3352776
vn -0.9421194 0 -0.3352776
vn -0.9421194 0 -0.3352776
vn -0.9421194 0 -0.3352776
vn -0.7860267 0 -0.6181925
vn -0.7860267 0 -0.6181925
vn -0.7860267 0 -0.6181925
vn -0.7860267 0 -0.6181925
vn -0.7860267 0 -0.6181926
vn -0.7860267 0 -0.6181926
vn -0.7860267 0 -0.6181926
vn -0.7860267 0 -0.6181926
vn -0.7848422 0 -0.6196958
vn -0.7848422 0 -0.6196958
vn -0.7848422 0 -0.6196958
vn -0.7848422 0 -0.6196958
vn -0.7845457 0 -0.620071
vn -0.7845457 0 -0.620071
vn -0.7845457 0 -0.620071
vn -0.7845457 0 -0.620071
vn -0.7855824 0 -0.6187569
vn -0.7855824 0 -0.6187569
vn -0.7855824 0 -0.6187569
vn -0.7855824 0 -0.6187569
vn -0.7860269 0 -0.6181922
vn -0.7860269 0 -0.6181922
vn -0.7860269 0 -0.6181922
vn -0.7860269 0 -0.6181922
vn -0.7860255 0 -0.618194
vn -0.7860255 0 -0.618194
vn -0.7860255 0 -0.618194
vn -0.7860255 0 -0.618194
vn -0.5525289 0 -0.8334937
vn -0.5525289 0 -0.8334937
vn -0.5525289 0 -0.8334937
vn -0.5525289 0 -0.8334937
vn 0.06668352 0 -0.9977742
vn 0.06668352 0 -0.9977742
vn 0.6159956 0 -0.7877496
vn 0.6159956 0 -0.7877496
g _0
f 3/3/3 2/2/2 1/1/1
f 2/2/2 3/3/3 4/4/4
f 5/5/5 4/4/4 3/3/3
f 4/4/4 5/5/5 6/6/6
f 7/7/7 6/6/6 5/5/5
f 6/6/6 7/7/7 8/8/8
f 9/9/9 8/8/8 7/7/7
f 8/8/8 9/9/9 10/10/10
f 11/11/11 10/10/10 9/9/9
f 10/10/10 11/11/11 12/12/12
f 13/13/13 12/12/12 11/11/11
f 12/12/12 13/13/13 14/14/14
f 15/15/15 14/14/14 13/13/13
f 14/14/14 15/15/15 16/16/16
f 17/17/17 16/16/16 15/15/15
f 16/16/16 17/17/17 18/18/18
f 19/19/19 18/18/18 17/17/17
f 18/18/18 19/19/19 20/20/20
f 21/21/21 20/20/20 19/19/19
f 20/20/20 21/21/21 22/22/22
f 23/23/23 22/22/22 21/21/21
f 22/22/22 23/23/23 24/24/24
g _1
f 25/25/25 26/26/26 27/27/27
f 28/28/28 27/27/27 26/26/26
f 29/29/29 30/30/30 31/31/31
f 32/32/32 31/31/31 30/30/30
f 33/33/33 34/34/34 35/35/35
f 36/36/36 35/35/35 34/34/34
f 37/37/37 38/38/38 39/39/39
f 40/40/40 39/39/39 38/38/38
f 41/41/41 42/42/42 43/43/43
f 44/44/44 43/43/43 42/42/42
f 45/45/45 46/46/46 47/47/47
f 48/48/48 47/47/47 46/46/46
f 49/49/49 50/50/50 51/51/51
f 52/52/52 51/51/51 50/50/50
f 53/53/53 54/54/54 55/55/55
f 56/56/56 55/55/55 54/54/54
f 57/57/57 58/58/58 59/59/59
f 60/60/60 59/59/59 58/58/58
f 61/61/61 62/62/62 63/63/63
f 64/64/64 63/63/63 62/62/62
f 65/65/65 66/66/66 67/67/67
f 68/68/68 67/67/67 66/66/66
f 71/71/71 70/70/70 69/69/69
f 70/70/70 71/71/71 72/72/72
f 75/75/75 74/74/74 73/73/73
f 74/74/74 75/75/75 76/76/76
f 79/79/79 78/78/78 77/77/77
f 78/78/78 79/79/79 80/80/80
f 83/83/83 82/82/82 81/81/81
f 82/82/82 83/83/83 84/84/84
f 87/87/87 86/86/86 85/85/85
f 86/86/86 87/87/87 88/88/88
f 91/91/91 90/90/90 89/89/89
f 90/90/90 91/91/91 92/92/92
f 95/95/95 94/94/94 93/93/93
f 94/94/94 95/95/95 96/96/96
f 99/99/99 98/98/98 97/97/97
f 98/98/98 99/99/99 100/100/100
f 103/103/103 102/102/102 101/101/101
f 102/102/102 103/103/103 104/104/104
f 107/107/107 106/106/106 105/105/105
f 106/106/106 107/107/107 108/108/108
f 111/111/111 110/110/110 109/109/109
f 110/110/110 111/111/111 112/112/112
f 69/69/69 26/26/26 25/25/25
f 26/26/26 69/69/69 70/70/70
f 67/67/67 68/68/68 111/111/111
f 112/112/112 111/111/111 68/68/68
