g 
v -9.903188 18.6 31.79566
v -37.59697 18.6 -7.77217
v 11.17288 18.6 39.80619
v -37.90686 18.6 -30.31709
v 42.08806 18.6 30.6173
v -18.68805 18.6 -56.2173
v 47.75366 18.6 23.32973
v -9.917742 18.6 -59.03352
v 53.96169 18.6 14.97226
v -0.09025574 18.6 -61.9086
v 58.8513 18.6 4.648069
v 11.01607 18.6 -62.87193
v 64.21648 18.6 -5.106239
v 21.60395 18.6 -64.4647
v 70.89571 18.6 -13.68412
v 30.77778 18.6 -67.37286
v 76.9239 18.6 -23.56085
v 39.59474 18.6 -68.94876
v 82.52736 18.6 -32.2457
v 47.9045 18.6 -72.46353
v 88.23338 18.6 -39.69514
v 56.59418 18.6 -77.18514
v 93.50987 18.6 -48.01443
v 65.7351 18.6 -81.01123
v 99.6899 18.6 -55.29709
v 73.98203 18.6 -85.86269
v 101.5458 18.6 -57.48352
v 76.45415 18.6 -87.31649
v 107.7434 18.6 -67.59754
v 87.48064 18.6 -91.68916
v 106.896 18.6 -75.84667
v 95.4625 18.6 -89.44062
v -9.903188 18.6 31.79566
v -9.903188 -11.4 31.79566
v 11.17288 18.6 39.80619
v 11.17288 -11.4 39.80619
v 11.17288 18.6 39.80619
v 11.17288 -11.4 39.80619
v 42.08806 18.6 30.6173
v 42.08806 -11.4 30.6173
v 42.08806 18.6 30.6173
v 42.08806 -11.4 30.6173
v 47.75366 18.6 23.32973
v 47.75366 -11.4 23.32973
v 47.75366 18.6 23.32973
v 47.75366 -11.4 23.32973
v 53.96169 18.6 14.97226
v 53.96169 -11.4 14.97226
v 53.96169 18.6 14.97226
v 53.96169 -11.4 14.97226
v 58.8513 18.6 4.648069
v 58.8513 -11.4 4.648069
v 58.8513 18.6 4.648069
v 58.8513 -11.4 4.648069
v 64.21648 18.6 -5.106239
v 64.21648 -11.4 -5.106239
v 64.21648 18.6 -5.106239
v 64.21648 -11.4 -5.106239
v 70.89571 18.6 -13.68412
v 70.89571 -11.4 -13.68412
v 70.89571 18.6 -13.68412
v 70.89571 -11.4 -13.68412
v 76.9239 18.6 -23.56085
v 76.9239 -11.4 -23.56085
v 76.9239 18.6 -23.56085
v 76.9239 -11.4 -23.56085
v 82.52736 18.6 -32.2457
v 82.52736 -11.4 -32.2457
v 82.52736 18.6 -32.2457
v 82.52736 -11.4 -32.2457
v 88.23338 18.6 -39.69514
v 88.23338 -11.4 -39.69514
v 88.23338 18.6 -39.69514
v 88.23338 -11.4 -39.69514
v 93.50987 18.6 -48.01443
v 93.50987 -11.4 -48.01443
v 93.50987 18.6 -48.01443
v 93.50987 -11.4 -48.01443
v 99.6899 18.6 -55.29709
v 99.6899 -11.4 -55.29709
v 99.6899 18.6 -55.29709
v 99.6899 -11.4 -55.29709
v 101.5458 18.6 -57.48352
v 101.5458 -11.4 -57.48352
v 101.5458 18.6 -57.48352
v 101.5458 -11.4 -57.48352
v 107.7434 18.6 -67.59754
v 107.7434 -11.4 -67.59754
v 107.7434 18.6 -67.59754
v 107.7434 -11.4 -67.59754
v 106.896 18.6 -75.84667
v 106.896 -11.4 -75.84667
v -37.59697 18.6 -7.77217
v -37.59697 -11.4 -7.77217
v -37.90686 18.6 -30.31709
v -37.90686 -11.4 -30.31709
v -37.90686 18.6 -30.31709
v -37.90686 -11.4 -30.31709
v -18.68805 18.6 -56.2173
v -18.68805 -11.4 -56.2173
v -18.68805 18.6 -56.2173
v -18.68805 -11.4 -56.2173
v -9.917742 18.6 -59.03352
v -9.917742 -11.4 -59.03352
v -9.917742 18.6 -59.03352
v -9.917742 -11.4 -59.03352
v -0.09025574 18.6 -61.9086
v -0.09025574 -11.4 -61.9086
v -0.09025574 18.6 -61.9086
v -0.09025574 -11.4 -61.9086
v 11.01607 18.6 -62.87193
v 11.01607 -11.4 -62.87193
v 11.01607 18.6 -62.87193
v 11.01607 -11.4 -62.87193
v 21.60395 18.6 -64.4647
v 21.60395 -11.4 -64.4647
v 21.60395 18.6 -64.4647
v 21.60395 -11.4 -64.4647
v 30.77778 18.6 -67.37286
v 30.77778 -11.4 -67.37286
v 30.77778 18.6 -67.37286
v 30.77778 -11.4 -67.37286
v 39.59474 18.6 -68.94876
v 39.59474 -11.4 -68.94876
v 39.59474 18.6 -68.94876
v 39.59474 -11.4 -68.94876
v 47.9045 18.6 -72.46353
v 47.9045 -11.4 -72.46353
v 47.9045 18.6 -72.46353
v 47.9045 -11.4 -72.46353
v 56.59418 18.6 -77.18514
v 56.59418 -11.4 -77.18514
v 56.59418 18.6 -77.18514
v 56.59418 -11.4 -77.18514
v 65.7351 18.6 -81.01123
v 65.7351 -11.4 -81.01123
v 65.7351 18.6 -81.01123
v 65.7351 -11.4 -81.01123
v 73.98203 18.6 -85.86269
v 73.98203 -11.4 -85.86269
v 73.98203 18.6 -85.86269
v 73.98203 -11.4 -85.86269
v 76.45415 18.6 -87.31649
v 76.45415 -11.4 -87.31649
v 76.45415 18.6 -87.31649
v 76.45415 -11.4 -87.31649
v 87.48064 18.6 -91.68916
v 87.48064 -11.4 -91.68916
v 87.48064 18.6 -91.68916
v 87.48064 -11.4 -91.68916
v 95.4625 18.6 -89.44062
v 95.4625 -11.4 -89.44062
vt -0.4082779 -0.0002257615
vt -0.4023694 0.04770804
vt -0.3979808 -0.02028416
vt -0.3875097 0.06466554
vt -0.3688615 -0.03414961
vt -0.355895 0.07104476
vt -0.3597744 -0.03252736
vt -0.3474939 0.06726687
vt -0.3495681 -0.03047328
vt -0.3382681 0.06282512
vt -0.339025 -0.02607553
vt -0.3293717 0.05610704
vt -0.32851 -0.02241951
vt -0.3204392 0.05020361
vt -0.3178061 -0.02051705
vt -0.3116768 0.04622396
vt -0.3067166 -0.01721385
vt -0.3040713 0.04149333
vt -0.2967404 -0.01451187
vt -0.2955449 0.0385427
vt -0.2875149 -0.01279641
vt -0.2859285 0.03623442
vt -0.2780263 -0.01014719
vt -0.2765762 0.03295878
vt -0.2685602 -0.008872909
vt -0.2672018 0.03104332
vt -0.2657179 -0.008490712
vt -0.264392 0.03046877
vt -0.2543437 -0.005124586
vt -0.253273 0.02633715
vt -0.2494519 0.001571432
vt -0.2488477 0.01932406
vt -0.4082779 -0.0002257615
vt -0.4082779 -0.0002257615
vt -0.3979808 -0.02028416
vt -0.3979808 -0.02028416
vt -0.3979808 -0.02028416
vt -0.3979808 -0.02028416
vt -0.3688615 -0.03414961
vt -0.3688615 -0.03414961
vt -0.3688615 -0.03414961
vt -0.3688615 -0.03414961
vt -0.3597744 -0.03252736
vt -0.3597744 -0.03252736
vt -0.3597744 -0.03252736
vt -0.3597744 -0.03252736
vt -0.3495681 -0.03047328
vt -0.3495681 -0.03047328
vt -0.3495681 -0.03047328
vt -0.3495681 -0.03047328
vt -0.339025 -0.02607553
vt -0.339025 -0.02607553
vt -0.339025 -0.02607553
vt -0.339025 -0.02607553
vt -0.32851 -0.02241951
vt -0.32851 -0.02241951
vt -0.32851 -0.02241951
vt -0.32851 -0.02241951
vt -0.3178061 -0.02051705
vt -0.3178061 -0.02051705
vt -0.3178061 -0.02051705
vt -0.3178061 -0.02051705
vt -0.3067166 -0.01721385
vt -0.3067166 -0.01721385
vt -0.3067166 -0.01721385
vt -0.3067166 -0.01721385
vt -0.2967404 -0.01451187
vt -0.2967404 -0.01451187
vt -0.2967404 -0.01451187
vt -0.2967404 -0.01451187
vt -0.2875149 -0.01279641
vt -0.2875149 -0.01279641
vt -0.2875149 -0.01279641
vt -0.2875149 -0.01279641
vt -0.2780263 -0.01014719
vt -0.2780263 -0.01014719
vt -0.2780263 -0.01014719
vt -0.2780263 -0.01014719
vt -0.2685602 -0.008872909
vt -0.2685602 -0.008872909
vt -0.2685602 -0.008872909
vt -0.2685602 -0.008872909
vt -0.2657179 -0.008490712
vt -0.2657179 -0.008490712
vt -0.2657179 -0.008490712
vt -0.2657179 -0.008490712
vt -0.2543437 -0.005124586
vt -0.2543437 -0.005124586
vt -0.2543437 -0.005124586
vt -0.2543437 -0.005124586
vt -0.2494519 0.001571432
vt -0.2494519 0.001571432
vt -0.4023694 0.04770804
vt -0.4023694 0.04770804
vt -0.3875097 0.06466554
vt -0.3875097 0.06466554
vt -0.3875097 0.06466554
vt -0.3875097 0.06466554
vt -0.355895 0.07104476
vt -0.355895 0.07104476
vt -0.355895 0.07104476
vt -0.355895 0.07104476
vt -0.3474939 0.06726687
vt -0.3474939 0.06726687
vt -0.3474939 0.06726687
vt -0.3474939 0.06726687
vt -0.3382681 0.06282512
vt -0.3382681 0.06282512
vt -0.3382681 0.06282512
vt -0.3382681 0.06282512
vt -0.3293717 0.05610704
vt -0.3293717 0.05610704
vt -0.3293717 0.05610704
vt -0.3293717 0.05610704
vt -0.3204392 0.05020361
vt -0.3204392 0.05020361
vt -0.3204392 0.05020361
vt -0.3204392 0.05020361
vt -0.3116768 0.04622396
vt -0.3116768 0.04622396
vt -0.3116768 0.04622396
vt -0.3116768 0.04622396
vt -0.3040713 0.04149333
vt -0.3040713 0.04149333
vt -0.3040713 0.04149333
vt -0.3040713 0.04149333
vt -0.2955449 0.0385427
vt -0.2955449 0.0385427
vt -0.2955449 0.0385427
vt -0.2955449 0.0385427
vt -0.2859285 0.03623442
vt -0.2859285 0.03623442
vt -0.2859285 0.03623442
vt -0.2859285 0.03623442
vt -0.2765762 0.03295878
vt -0.2765762 0.03295878
vt -0.2765762 0.03295878
vt -0.2765762 0.03295878
vt -0.2672018 0.03104332
vt -0.2672018 0.03104332
vt -0.2672018 0.03104332
vt -0.2672018 0.03104332
vt -0.264392 0.03046877
vt -0.264392 0.03046877
vt -0.264392 0.03046877
vt -0.264392 0.03046877
vt -0.253273 0.02633715
vt -0.253273 0.02633715
vt -0.253273 0.02633715
vt -0.253273 0.02633715
vt -0.2488477 0.01932406
vt -0.2488477 0.01932406
vn 0 1 0
vn 0 1 0
vn 0 1 0
vn 0 1 0
vn 0 1 0
vn 0 1 0
vn 0 1 0
vn 0 1 0
vn 0 1 0
vn 0 1 0
vn 0 1 0
vn 0 1 0
vn 0 1 0
vn 0 1 0
vn 0 1 0
vn 0 1 0
vn 0 1 0
vn 0 1 0
vn 0 1 0
vn 0 1 0
vn 0 1 0
vn 0 1 0
vn 0 1 0
vn 0 1 0
vn 0 1 0
vn 0 1 0
vn 0 1 0
vn 0 1 0
vn 0 1 0
vn 0 1 0
vn 0 1 0
vn 0 1 0
vn -0.8192679 0 0.573411
vn -0.8192679 0 0.573411
vn -0.3552808 0 0.9347596
vn -0.3552808 0 0.9347596
vn 0.2849101 0 0.9585542
vn 0.2849101 0 0.9585542
vn 0.2849101 0 0.9585542
vn 0.2849101 0 0.9585542
vn 0.789484 0 0.613771
vn 0.789484 0 0.613771
vn 0.789484 0 0.613771
vn 0.789484 0 0.613771
vn 0.8027614 0 0.5963004
vn 0.8027614 0 0.5963004
vn 0.8027614 0 0.5963004
vn 0.8027614 0 0.5963004
vn 0.9037647 0 0.4280295
vn 0.9037647 0 0.4280295
vn 0.9037647 0 0.4280295
vn 0.9037647 0 0.4280295
vn 0.8762038 0 0.4819407
vn 0.8762038 0 0.4819407
vn 0.8762038 0 0.4819407
vn 0.8762038 0 0.4819407
vn 0.7890161 0 0.6143725
vn 0.7890161 0 0.6143725
vn 0.7890161 0 0.6143725
vn 0.7890161 0 0.6143725
vn 0.8535731 0 0.520973
vn 0.8535731 0 0.520973
vn 0.8535731 0 0.520973
vn 0.8535731 0 0.520973
vn 0.8402823 0 0.5421491
vn 0.8402823 0 0.5421491
vn 0.8402823 0 0.5421491
vn 0.8402823 0 0.5421491
vn 0.7938749 0 0.608081
vn 0.7938749 0 0.608081
vn 0.7938749 0 0.608081
vn 0.7938749 0 0.608081
vn 0.8444698 0 0.5356032
vn 0.8444698 0 0.5356032
vn 0.8444698 0 0.5356032
vn 0.8444698 0 0.5356032
vn 0.7624677 0 0.6470262
vn 0.7624677 0 0.6470262
vn 0.7624677 0 0.6470262
vn 0.7624677 0 0.6470262
vn 0.7623718 0 0.6471393
vn 0.7623718 0 0.6471393
vn 0.7623718 0 0.6471393
vn 0.7623718 0 0.6471393
vn 0.852651 0 0.5224808
vn 0.852651 0 0.5224808
vn 0.852651 0 0.5224808
vn 0.852651 0 0.5224808
vn 0.9947649 0 -0.1021906
vn 0.9947649 0 -0.1021906
vn 0.7652999 0 -0.6436738
vn 0.7652999 0 -0.6436738
vn -0.8192679 0 0.573411
vn -0.8192679 0 0.573411
vn -0.9999055 0 0.01374419
vn -0.9999055 0 0.01374419
vn -0.8030607 0 -0.5958973
vn -0.8030607 0 -0.5958973
vn -0.8030607 0 -0.5958973
vn -0.8030607 0 -0.5958973
vn -0.3057331 0 -0.9521172
vn -0.3057331 0 -0.9521172
vn -0.3057331 0 -0.9521172
vn -0.3057331 0 -0.9521172
vn -0.2807853 0 -0.9597706
vn -0.2807853 0 -0.9597706
vn -0.2807853 0 -0.9597706
vn -0.2807853 0 -0.9597706
vn -0.08641289 0 -0.9962594
vn -0.08641289 0 -0.9962594
vn -0.08641289 0 -0.9962594
vn -0.08641289 0 -0.9962594
vn -0.1487591 0 -0.9888735
vn -0.1487591 0 -0.9888735
vn -0.1487591 0 -0.9888735
vn -0.1487591 0 -0.9888735
vn -0.3021864 0 -0.9532489
vn -0.3021864 0 -0.9532489
vn -0.3021864 0 -0.9532489
vn -0.3021864 0 -0.9532489
vn -0.1759464 0 -0.9843997
vn -0.1759464 0 -0.9843997
vn -0.1759464 0 -0.9843997
vn -0.1759464 0 -0.9843997
vn -0.3895558 0 -0.9210029
vn -0.3895558 0 -0.9210029
vn -0.3895558 0 -0.9210029
vn -0.3895558 0 -0.9210029
vn -0.4774318 0 -0.8786688
vn -0.4774318 0 -0.8786688
vn -0.4774318 0 -0.8786688
vn -0.4774318 0 -0.8786688
vn -0.3861088 0 -0.9224533
vn -0.3861088 0 -0.9224533
vn -0.3861088 0 -0.9224533
vn -0.3861088 0 -0.9224533
vn -0.5070452 0 -0.8619195
vn -0.5070452 0 -0.8619195
vn -0.5070452 0 -0.8619195
vn -0.5070452 0 -0.8619195
vn -0.5069191 0 -0.8619936
vn -0.5069191 0 -0.8619936
vn -0.5069191 0 -0.8619936
vn -0.5069191 0 -0.8619936
vn -0.3686327 0 -0.9295751
vn -0.3686327 0 -0.9295751
vn -0.3686327 0 -0.9295751
vn -0.3686327 0 -0.9295751
vn 0.2711518 0 -0.9625366
vn 0.2711518 0 -0.9625366
vn 0.7652999 0 -0.6436738
vn 0.7652999 0 -0.6436738
g _0
f 3/3/3 2/2/2 1/1/1
f 2/2/2 3/3/3 4/4/4
f 5/5/5 4/4/4 3/3/3
f 4/4/4 5/5/5 6/6/6
f 7/7/7 6/6/6 5/5/5
f 6/6/6 7/7/7 8/8/8
f 9/9/9 8/8/8 7/7/7
f 8/8/8 9/9/9 10/10/10
f 11/11/11 10/10/10 9/9/9
f 10/10/10 11/11/11 12/12/12
f 13/13/13 12/12/12 11/11/11
f 12/12/12 13/13/13 14/14/14
f 15/15/15 14/14/14 13/13/13
f 14/14/14 15/15/15 16/16/16
f 17/17/17 16/16/16 15/15/15
f 16/16/16 17/17/17 18/18/18
f 19/19/19 18/18/18 17/17/17
f 18/18/18 19/19/19 20/20/20
f 21/21/21 20/20/20 19/19/19
f 20/20/20 21/21/21 22/22/22
f 23/23/23 22/22/22 21/21/21
f 22/22/22 23/23/23 24/24/24
f 25/25/25 24/24/24 23/23/23
f 24/24/24 25/25/25 26/26/26
f 27/27/27 26/26/26 25/25/25
f 26/26/26 27/27/27 28/28/28
f 29/29/29 28/28/28 27/27/27
f 28/28/28 29/29/29 30/30/30
f 31/31/31 30/30/30 29/29/29
f 30/30/30 31/31/31 32/32/32
g _1
f 33/33/33 34/34/34 35/35/35
f 36/36/36 35/35/35 34/34/34
f 37/37/37 38/38/38 39/39/39
f 40/40/40 39/39/39 38/38/38
f 41/41/41 42/42/42 43/43/43
f 44/44/44 43/43/43 42/42/42
f 45/45/45 46/46/46 47/47/47
f 48/48/48 47/47/47 46/46/46
f 49/49/49 50/50/50 51/51/51
f 52/52/52 51/51/51 50/50/50
f 53/53/53 54/54/54 55/55/55
f 56/56/56 55/55/55 54/54/54
f 57/57/57 58/58/58 59/59/59
f 60/60/60 59/59/59 58/58/58
f 61/61/61 62/62/62 63/63/63
f 64/64/64 63/63/63 62/62/62
f 65/65/65 66/66/66 67/67/67
f 68/68/68 67/67/67 66/66/66
f 69/69/69 70/70/70 71/71/71
f 72/72/72 71/71/71 70/70/70
f 73/73/73 74/74/74 75/75/75
f 76/76/76 75/75/75 74/74/74
f 77/77/77 78/78/78 79/79/79
f 80/80/80 79/79/79 78/78/78
f 81/81/81 82/82/82 83/83/83
f 84/84/84 83/83/83 82/82/82
f 85/85/85 86/86/86 87/87/87
f 88/88/88 87/87/87 86/86/86
f 89/89/89 90/90/90 91/91/91
f 92/92/92 91/91/91 90/90/90
f 95/95/95 94/94/94 93/93/93
f 94/94/94 95/95/95 96/96/96
f 99/99/99 98/98/98 97/97/97
f 98/98/98 99/99/99 100/100/100
f 103/103/103 102/102/102 101/101/101
f 102/102/102 103/103/103 104/104/104
f 107/107/107 106/106/106 105/105/105
f 106/106/106 107/107/107 108/108/108
f 111/111/111 110/110/110 109/109/109
f 110/110/110 111/111/111 112/112/112
f 115/115/115 114/114/114 113/113/113
f 114/114/114 115/115/115 116/116/116
f 119/119/119 118/118/118 117/117/117
f 118/118/118 119/119/119 120/120/120
f 123/123/123 122/122/122 121/121/121
f 122/122/122 123/123/123 124/124/124
f 127/127/127 126/126/126 125/125/125
f 126/126/126 127/127/127 128/128/128
f 131/131/131 130/130/130 129/129/129
f 130/130/130 131/131/131 132/132/132
f 135/135/135 134/134/134 133/133/133
f 134/134/134 135/135/135 136/136/136
f 139/139/139 138/138/138 137/137/137
f 138/138/138 139/139/139 140/140/140
f 143/143/143 142/142/142 141/141/141
f 142/142/142 143/143/143 144/144/144
f 147/147/147 146/146/146 145/145/145
f 146/146/146 147/147/147 148/148/148
f 151/151/151 150/150/150 149/149/149
f 150/150/150 151/151/151 152/152/152
f 93/93/93 34/34/34 33/33/33
f 34/34/34 93/93/93 94/94/94
f 91/91/91 92/92/92 151/151/151
f 152/152/152 151/151/151 92/92/92
