g 
v 6.699116 0 -54.63633
v 2.667344 0 -52.52021
v 7.786479 0 -56.359
v 0.6319165 0 -52.60385
v 8.588047 0 -58.28098
v -1.40519 0 -53.0359
v 7.845503 0 -61.5156
v -3.645504 0 -55.4844
v 7.184907 0 -62.34168
v -3.958124 0 -56.51255
v 6.997735 0 -63.59776
v -4.847002 0 -57.31964
v 6.466632 0 -64.74062
v -5.419048 0 -58.22505
v 5.770681 0 -65.76614
v -5.856496 0 -59.23116
v 5.392057 0 -66.68981
v -6.369628 0 -59.87905
v 4.748617 0 -67.47289
v -6.616366 0 -60.60167
v 4.1183 0 -68.19361
v -6.90607 0 -61.36932
v 3.778625 0 -69.00837
v -7.488327 0 -62.0418
v 3.631219 0 -68.93356
v -7.43122 0 -62.26643
v 1.377566 0 -71.33567
v -8.502461 0 -65.38116
v -0.6241062 0 -71.68688
v -7.878006 0 -67.31509
v -2.863524 0 -71.5324
v -6.695364 0 -69.22303
vt -0.182013 -0.04970559
vt -0.1849245 -0.05320657
vt -0.1816698 -0.04769757
vt -0.1868362 -0.05391022
vt -0.1816669 -0.04561515
vt -0.1888832 -0.05429276
vt -0.1835936 -0.04291292
vt -0.1918914 -0.05289112
vt -0.1845206 -0.04240349
vt -0.1925746 -0.05206158
vt -0.1851753 -0.04131534
vt -0.1937051 -0.05165727
vt -0.1861042 -0.04046369
vt -0.1945807 -0.05104061
vt -0.1871404 -0.03978363
vt -0.1953707 -0.05027932
vt -0.1878444 -0.03907591
vt -0.1960931 -0.04987786
vt -0.188739 -0.0385996
vt -0.1965982 -0.0493052
vt -0.1895976 -0.03817585
vt -0.1971602 -0.04870744
vt -0.1902239 -0.03755376
vt -0.1979559 -0.0483098
vt -0.1903313 -0.03767939
vt -0.1979894 -0.04808045
vt -0.1933341 -0.03632571
vt -0.2001736 -0.04561504
vt -0.1953173 -0.03676931
vt -0.2003389 -0.04358952
vt -0.1973261 -0.03777112
vt -0.1999787 -0.04137386
vn 0 1 0
vn 0 1 0
vn 0 1 0
vn 0 1 0
vn 0 1 0
vn 0 1 0
vn 0 1 0
vn 0 1 0
vn 0 1 0
vn 0 1 0
vn 0 1 0
vn 0 1 0
vn 0 1 0
vn 0 1 0
vn 0 1 0
vn 0 1 0
vn 0 1 0
vn 0 1 0
vn 0 1 0
vn 0 1 0
vn 0 1 0
vn 0 1 0
vn 0 1 0
vn 0 1 0
vn 0 1 0
vn 0 1 0
vn 0 1 0
vn 0 1 0
vn 0 1 0
vn 0 1 0
vn 0 1 0
vn 0 1 0
g _0
f 3/3/3 2/2/2 1/1/1
f 2/2/2 3/3/3 4/4/4
f 5/5/5 4/4/4 3/3/3
f 4/4/4 5/5/5 6/6/6
f 7/7/7 6/6/6 5/5/5
f 6/6/6 7/7/7 8/8/8
f 9/9/9 8/8/8 7/7/7
f 8/8/8 9/9/9 10/10/10
f 11/11/11 10/10/10 9/9/9
f 10/10/10 11/11/11 12/12/12
f 13/13/13 12/12/12 11/11/11
f 12/12/12 13/13/13 14/14/14
f 15/15/15 14/14/14 13/13/13
f 14/14/14 15/15/15 16/16/16
f 17/17/17 16/16/16 15/15/15
f 16/16/16 17/17/17 18/18/18
f 19/19/19 18/18/18 17/17/17
f 18/18/18 19/19/19 20/20/20
f 21/21/21 20/20/20 19/19/19
f 20/20/20 21/21/21 22/22/22
f 23/23/23 22/22/22 21/21/21
f 22/22/22 23/23/23 24/24/24
f 25/25/25 24/24/24 23/23/23
f 24/24/24 25/25/25 26/26/26
f 27/27/27 26/26/26 25/25/25
f 26/26/26 27/27/27 28/28/28
f 29/29/29 28/28/28 27/27/27
f 28/28/28 29/29/29 30/30/30
f 31/31/31 30/30/30 29/29/29
f 30/30/30 31/31/31 32/32/32
