g 
v 37.29657 18.6 -56.70203
v 33.4355 18.6 -52.69946
v 37.73706 18.6 -59.26068
v 30.89436 18.6 -52.1672
v 36.0167 18.6 -62.55198
v 27.5433 18.6 -53.76802
v 31.74707 23.7 -65.62115
v 23.89293 23.7 -58.33886
v 29.75553 23.7 -68.19289
v 21.32447 23.7 -61.58711
v 27.03733 23.7 -69.99109
v 20.22882 23.7 -64.65659
v 24.76409 23.7 -69.83699
v 20.92231 23.7 -66.82695
v 37.29657 18.6 -56.70203
v 37.29657 -11.4 -56.70203
v 37.73706 18.6 -59.26068
v 37.73706 -11.4 -59.26068
v 37.73706 18.6 -59.26068
v 37.73706 -11.4 -59.26068
v 36.0167 18.6 -62.55198
v 36.0167 -11.4 -62.55198
v 36.0167 18.6 -62.55198
v 36.0167 -11.4 -62.55198
v 31.74707 23.7 -65.62115
v 31.74707 -6.299999 -65.62115
v 31.74707 23.7 -65.62115
v 31.74707 -6.299999 -65.62115
v 29.75553 23.7 -68.19289
v 29.75553 -6.299999 -68.19289
v 29.75553 23.7 -68.19289
v 29.75553 -6.299999 -68.19289
v 27.03733 23.7 -69.99109
v 27.03733 -6.299999 -69.99109
v 27.03733 23.7 -69.99109
v 27.03733 -6.299999 -69.99109
v 24.76409 23.7 -69.83699
v 24.76409 -6.299999 -69.83699
v 33.4355 18.6 -52.69946
v 33.4355 -11.4 -52.69946
v 30.89436 18.6 -52.1672
v 30.89436 -11.4 -52.1672
v 30.89436 18.6 -52.1672
v 30.89436 -11.4 -52.1672
v 27.5433 18.6 -53.76802
v 27.5433 -11.4 -53.76802
v 27.5433 18.6 -53.76802
v 27.5433 -11.4 -53.76802
v 23.89293 23.7 -58.33886
v 23.89293 -6.299999 -58.33886
v 23.89293 23.7 -58.33886
v 23.89293 -6.299999 -58.33886
v 21.32447 23.7 -61.58711
v 21.32447 -6.299999 -61.58711
v 21.32447 23.7 -61.58711
v 21.32447 -6.299999 -61.58711
v 20.22882 23.7 -64.65659
v 20.22882 -6.299999 -64.65659
v 20.22882 23.7 -64.65659
v 20.22882 -6.299999 -64.65659
v 20.92231 23.7 -66.82695
v 20.92231 -6.299999 -66.82695
vt -0.1112759 0.04403268
vt -0.1168236 0.04364324
vt -0.1092361 0.04563883
vt -0.1190678 0.04494865
vt -0.1083113 0.04923563
vt -0.1204861 0.04838097
vt -0.1094292 0.05437372
vt -0.1201388 0.05422024
vt -0.1091874 0.05761743
vt -0.1198729 0.05835273
vt -0.1100034 0.0607728
vt -0.1186324 0.0613666
vt -0.1117955 0.06217986
vt -0.1166645 0.06251492
vt -0.1112759 0.04403268
vt -0.1112759 0.04403268
vt -0.1092361 0.04563883
vt -0.1092361 0.04563883
vt -0.1092361 0.04563883
vt -0.1092361 0.04563883
vt -0.1083113 0.04923563
vt -0.1083113 0.04923563
vt -0.1083113 0.04923563
vt -0.1083113 0.04923563
vt -0.1094292 0.05437372
vt -0.1094292 0.05437372
vt -0.1094292 0.05437372
vt -0.1094292 0.05437372
vt -0.1091874 0.05761743
vt -0.1091874 0.05761743
vt -0.1091874 0.05761743
vt -0.1091874 0.05761743
vt -0.1100034 0.0607728
vt -0.1100034 0.0607728
vt -0.1100034 0.0607728
vt -0.1100034 0.0607728
vt -0.1117955 0.06217986
vt -0.1117955 0.06217986
vt -0.1168236 0.04364324
vt -0.1168236 0.04364324
vt -0.1190678 0.04494865
vt -0.1190678 0.04494865
vt -0.1190678 0.04494865
vt -0.1190678 0.04494865
vt -0.1204861 0.04838097
vt -0.1204861 0.04838097
vt -0.1204861 0.04838097
vt -0.1204861 0.04838097
vt -0.1201388 0.05422024
vt -0.1201388 0.05422024
vt -0.1201388 0.05422024
vt -0.1201388 0.05422024
vt -0.1198729 0.05835273
vt -0.1198729 0.05835273
vt -0.1198729 0.05835273
vt -0.1198729 0.05835273
vt -0.1186324 0.0613666
vt -0.1186324 0.0613666
vt -0.1186324 0.0613666
vt -0.1186324 0.0613666
vt -0.1166645 0.06251492
vt -0.1166645 0.06251492
vn 0 1 0
vn 0 1 0
vn 0 1 0
vn 0 1 0
vn 0 1 0
vn 0 1 0
vn 0 1 0
vn 0 1 0
vn 0 1 0
vn 0 1 0
vn 0 1 0
vn 0 1 0
vn 0 1 0
vn 0 1 0
vn 0.7197143 0 0.6942704
vn 0.7197143 0 0.6942704
vn 0.9855023 0 0.169662
vn 0.9855023 0 0.169662
vn 0.886236 0 -0.4632341
vn 0.886236 0 -0.4632341
vn 0.886236 0 -0.4632341
vn 0.886236 0 -0.4632341
vn 0.5836829 0 -0.8119817
vn 0.5836829 0 -0.8119817
vn 0.5836829 0 -0.8119817
vn 0.5836829 0 -0.8119817
vn 0.7906485 0 -0.6122704
vn 0.7906485 0 -0.6122704
vn 0.7906485 0 -0.6122704
vn 0.7906485 0 -0.6122704
vn 0.5517355 0 -0.8340191
vn 0.5517355 0 -0.8340191
vn 0.5517355 0 -0.8340191
vn 0.5517355 0 -0.8340191
vn -0.06763292 0 -0.9977103
vn -0.06763292 0 -0.9977103
vn -0.6167438 0 -0.7871639
vn -0.6167438 0 -0.7871639
vn 0.7197143 0 0.6942704
vn 0.7197143 0 0.6942704
vn 0.2050088 0 0.9787601
vn 0.2050088 0 0.9787601
vn -0.4310483 0 0.9023288
vn -0.4310483 0 0.9023288
vn -0.4310483 0 0.9023288
vn -0.4310483 0 0.9023288
vn -0.7813935 0 0.6240386
vn -0.7813935 0 0.6240386
vn -0.7813935 0 0.6240386
vn -0.7813935 0 0.6240386
vn -0.7844066 0 0.6202469
vn -0.7844066 0 0.6202469
vn -0.7844066 0 0.6202469
vn -0.7844066 0 0.6202469
vn -0.9417999 0 0.336174
vn -0.9417999 0 0.336174
vn -0.9417999 0 0.336174
vn -0.9417999 0 0.336174
vn -0.9525544 0 -0.3043683
vn -0.9525544 0 -0.3043683
vn -0.6167438 0 -0.7871639
vn -0.6167438 0 -0.7871639
g _0
f 3/3/3 2/2/2 1/1/1
f 2/2/2 3/3/3 4/4/4
f 5/5/5 4/4/4 3/3/3
f 4/4/4 5/5/5 6/6/6
f 7/7/7 6/6/6 5/5/5
f 6/6/6 7/7/7 8/8/8
f 9/9/9 8/8/8 7/7/7
f 8/8/8 9/9/9 10/10/10
f 11/11/11 10/10/10 9/9/9
f 10/10/10 11/11/11 12/12/12
f 13/13/13 12/12/12 11/11/11
f 12/12/12 13/13/13 14/14/14
g _1
f 15/15/15 16/16/16 17/17/17
f 18/18/18 17/17/17 16/16/16
f 19/19/19 20/20/20 21/21/21
f 22/22/22 21/21/21 20/20/20
f 23/23/23 24/24/24 25/25/25
f 26/26/26 25/25/25 24/24/24
f 27/27/27 28/28/28 29/29/29
f 30/30/30 29/29/29 28/28/28
f 31/31/31 32/32/32 33/33/33
f 34/34/34 33/33/33 32/32/32
f 35/35/35 36/36/36 37/37/37
f 38/38/38 37/37/37 36/36/36
f 41/41/41 40/40/40 39/39/39
f 40/40/40 41/41/41 42/42/42
f 45/45/45 44/44/44 43/43/43
f 44/44/44 45/45/45 46/46/46
f 49/49/49 48/48/48 47/47/47
f 48/48/48 49/49/49 50/50/50
f 53/53/53 52/52/52 51/51/51
f 52/52/52 53/53/53 54/54/54
f 57/57/57 56/56/56 55/55/55
f 56/56/56 57/57/57 58/58/58
f 61/61/61 60/60/60 59/59/59
f 60/60/60 61/61/61 62/62/62
f 39/39/39 16/16/16 15/15/15
f 16/16/16 39/39/39 40/40/40
f 37/37/37 38/38/38 61/61/61
f 62/62/62 61/61/61 38/38/38
