g 
v 28.68401 18.6 -87.78503
v 38.51918 18.6 -95.03827
v 26.78983 18.6 -82.40358
v 44.22004 18.6 -95.25798
v 29.30797 18.6 -74.64111
v 50.89203 18.6 -90.55888
v 34.33531 18.6 -68.5693
v 55.2157 18.6 -83.95098
v 39.953 18.6 -61.93093
v 59.97378 18.6 -76.4903
v 45.23797 18.6 -54.75066
v 64.30551 18.6 -70.2777
v 50.71796 13.43175 -48.95162
v 67.79862 13.43175 -66.64092
v 55.76469 7.5 -44.48145
v 72.03531 7.5 -62.91856
v 62.65267 7.5 -41.55863
v 75.792 7.5 -56.44753
v 67.71992 7.5 -42.85693
v 75.13393 7.5 -51.25816
v 28.68401 18.6 -87.78503
v 28.68401 -11.4 -87.78503
v 26.78983 18.6 -82.40358
v 26.78983 -11.4 -82.40358
v 26.78983 18.6 -82.40358
v 26.78983 -11.4 -82.40358
v 29.30797 18.6 -74.64111
v 29.30797 -11.4 -74.64111
v 29.30797 18.6 -74.64111
v 29.30797 -11.4 -74.64111
v 34.33531 18.6 -68.5693
v 34.33531 -11.4 -68.5693
v 34.33531 18.6 -68.5693
v 34.33531 -11.4 -68.5693
v 39.953 18.6 -61.93093
v 39.953 -11.4 -61.93093
v 39.953 18.6 -61.93093
v 39.953 -11.4 -61.93093
v 45.23797 18.6 -54.75066
v 45.23797 -11.4 -54.75066
v 45.23797 18.6 -54.75066
v 45.23797 -11.4 -54.75066
v 50.71796 13.43175 -48.95162
v 50.71796 -16.56825 -48.95162
v 50.71796 13.43175 -48.95162
v 50.71796 -16.56825 -48.95162
v 55.76469 7.5 -44.48145
v 55.76469 -22.5 -44.48145
v 55.76469 7.5 -44.48145
v 55.76469 -22.5 -44.48145
v 62.65267 7.5 -41.55863
v 62.65267 -22.5 -41.55863
v 62.65267 7.5 -41.55863
v 62.65267 -22.5 -41.55863
v 67.71992 7.5 -42.85693
v 67.71992 -22.5 -42.85693
v 38.51918 18.6 -95.03827
v 38.51918 -11.4 -95.03827
v 44.22004 18.6 -95.25798
v 44.22004 -11.4 -95.25798
v 44.22004 18.6 -95.25798
v 44.22004 -11.4 -95.25798
v 50.89203 18.6 -90.55888
v 50.89203 -11.4 -90.55888
v 50.89203 18.6 -90.55888
v 50.89203 -11.4 -90.55888
v 55.2157 18.6 -83.95098
v 55.2157 -11.4 -83.95098
v 55.2157 18.6 -83.95098
v 55.2157 -11.4 -83.95098
v 59.97378 18.6 -76.4903
v 59.97378 -11.4 -76.4903
v 59.97378 18.6 -76.4903
v 59.97378 -11.4 -76.4903
v 64.30551 18.6 -70.2777
v 64.30551 -11.4 -70.2777
v 64.30551 18.6 -70.2777
v 64.30551 -11.4 -70.2777
v 67.79862 13.43175 -66.64092
v 67.79862 -16.56825 -66.64092
v 67.79862 13.43175 -66.64092
v 67.79862 -16.56825 -66.64092
v 72.03531 7.5 -62.91856
v 72.03531 -22.5 -62.91856
v 72.03531 7.5 -62.91856
v 72.03531 -22.5 -62.91856
v 75.792 7.5 -56.44753
v 75.792 -22.5 -56.44753
v 75.792 7.5 -56.44753
v 75.792 -22.5 -56.44753
v 75.13393 7.5 -51.25816
v 75.13393 -22.5 -51.25816
vt -0.08619993 -0.0487291
vt -0.07403793 -0.04992318
vt -0.09120921 -0.0514595
vt -0.06965533 -0.0535757
vt -0.09453398 -0.0589122
vt -0.06784353 -0.06153273
vt -0.09486289 -0.0667883
vt -0.06905407 -0.06933613
vt -0.09513241 -0.07548046
vt -0.07051264 -0.07806388
vt -0.09601184 -0.08435255
vt -0.0714526 -0.08557899
vt -0.09582186 -0.09232895
vt -0.07129154 -0.09061903
vt -0.09506435 -0.09902807
vt -0.07063533 -0.09622037
vt -0.09190315 -0.10581
vt -0.0721755 -0.1035426
vt -0.08726937 -0.108237
vt -0.07613782 -0.1069576
vt -0.08619993 -0.0487291
vt -0.08619993 -0.0487291
vt -0.09120921 -0.0514595
vt -0.09120921 -0.0514595
vt -0.09120921 -0.0514595
vt -0.09120921 -0.0514595
vt -0.09453398 -0.0589122
vt -0.09453398 -0.0589122
vt -0.09453398 -0.0589122
vt -0.09453398 -0.0589122
vt -0.09486289 -0.0667883
vt -0.09486289 -0.0667883
vt -0.09486289 -0.0667883
vt -0.09486289 -0.0667883
vt -0.09513241 -0.07548046
vt -0.09513241 -0.07548046
vt -0.09513241 -0.07548046
vt -0.09513241 -0.07548046
vt -0.09601184 -0.08435255
vt -0.09601184 -0.08435255
vt -0.09601184 -0.08435255
vt -0.09601184 -0.08435255
vt -0.09582186 -0.09232895
vt -0.09582186 -0.09232895
vt -0.09582186 -0.09232895
vt -0.09582186 -0.09232895
vt -0.09506435 -0.09902807
vt -0.09506435 -0.09902807
vt -0.09506435 -0.09902807
vt -0.09506435 -0.09902807
vt -0.09190315 -0.10581
vt -0.09190315 -0.10581
vt -0.09190315 -0.10581
vt -0.09190315 -0.10581
vt -0.08726937 -0.108237
vt -0.08726937 -0.108237
vt -0.07403793 -0.04992318
vt -0.07403793 -0.04992318
vt -0.06965533 -0.0535757
vt -0.06965533 -0.0535757
vt -0.06965533 -0.0535757
vt -0.06965533 -0.0535757
vt -0.06784353 -0.06153273
vt -0.06784353 -0.06153273
vt -0.06784353 -0.06153273
vt -0.06784353 -0.06153273
vt -0.06905407 -0.06933613
vt -0.06905407 -0.06933613
vt -0.06905407 -0.06933613
vt -0.06905407 -0.06933613
vt -0.07051264 -0.07806388
vt -0.07051264 -0.07806388
vt -0.07051264 -0.07806388
vt -0.07051264 -0.07806388
vt -0.0714526 -0.08557899
vt -0.0714526 -0.08557899
vt -0.0714526 -0.08557899
vt -0.0714526 -0.08557899
vt -0.07129154 -0.09061903
vt -0.07129154 -0.09061903
vt -0.07129154 -0.09061903
vt -0.07129154 -0.09061903
vt -0.07063533 -0.09622037
vt -0.07063533 -0.09622037
vt -0.07063533 -0.09622037
vt -0.07063533 -0.09622037
vt -0.0721755 -0.1035426
vt -0.0721755 -0.1035426
vt -0.0721755 -0.1035426
vt -0.0721755 -0.1035426
vt -0.07613782 -0.1069576
vt -0.07613782 -0.1069576
vn 0 1 0
vn 0 1 0
vn 0 1 0
vn 0 1 0
vn 0 1 0
vn 0 1 0
vn 0 1 0
vn 0 1 0
vn 0 1 0
vn 0 1 0
vn 0 1 0
vn 0 1 0
vn 0 1 0
vn 0 1 0
vn 0 1 0
vn 0 1 0
vn 0 1 0
vn 0 1 0
vn 0 1 0
vn 0 1 0
vn -0.5935313 0 -0.804811
vn -0.5935313 0 -0.804811
vn -0.943274 0 -0.3320154
vn -0.943274 0 -0.3320154
vn -0.951202 0 0.3085686
vn -0.951202 0 0.3085686
vn -0.951202 0 0.3085686
vn -0.951202 0 0.3085686
vn -0.7702452 0 0.6377479
vn -0.7702452 0 0.6377479
vn -0.7702452 0 0.6377479
vn -0.7702452 0 0.6377479
vn -0.763352 0 0.6459827
vn -0.763352 0 0.6459827
vn -0.763352 0 0.6459827
vn -0.763352 0 0.6459827
vn -0.8053638 0 0.5927808
vn -0.8053638 0 0.5927808
vn -0.8053638 0 0.5927808
vn -0.8053638 0 0.5927808
vn -0.7268175 0 0.6868306
vn -0.7268175 0 0.6868306
vn -0.7268175 0 0.6868306
vn -0.7268175 0 0.6868306
vn -0.6630532 0 0.7485723
vn -0.6630532 0 0.7485723
vn -0.6630532 0 0.7485723
vn -0.6630532 0 0.7485723
vn -0.3906225 0 0.920551
vn -0.3906225 0 0.920551
vn -0.3906225 0 0.920551
vn -0.3906225 0 0.920551
vn 0.248197 0 0.9687096
vn 0.248197 0 0.9687096
vn 0.7497869 0 0.6616794
vn 0.7497869 0 0.6616794
vn -0.5935313 0 -0.804811
vn -0.5935313 0 -0.804811
vn -0.03851147 0 -0.9992582
vn -0.03851147 0 -0.9992582
vn 0.5758206 0 -0.8175761
vn 0.5758206 0 -0.8175761
vn 0.5758206 0 -0.8175761
vn 0.5758206 0 -0.8175761
vn 0.8367888 0 -0.5475259
vn 0.8367888 0 -0.5475259
vn 0.8367888 0 -0.5475259
vn 0.8367888 0 -0.5475259
vn 0.8431298 0 -0.5377101
vn 0.8431298 0 -0.5377101
vn 0.8431298 0 -0.5377101
vn 0.8431298 0 -0.5377101
vn 0.8202907 0 -0.5719469
vn 0.8202907 0 -0.5719469
vn 0.8202907 0 -0.5719469
vn 0.8202907 0 -0.5719469
vn 0.7212088 0 -0.6927178
vn 0.7212088 0 -0.6927178
vn 0.7212088 0 -0.6927178
vn 0.7212088 0 -0.6927178
vn 0.6600363 0 -0.7512337
vn 0.6600363 0 -0.7512337
vn 0.6600363 0 -0.7512337
vn 0.6600363 0 -0.7512337
vn 0.8648285 0 -0.5020673
vn 0.8648285 0 -0.5020673
vn 0.8648285 0 -0.5020673
vn 0.8648285 0 -0.5020673
vn 0.9920551 0 0.1258045
vn 0.9920551 0 0.1258045
vn 0.7497869 0 0.6616794
vn 0.7497869 0 0.6616794
g _0
f 3/3/3 2/2/2 1/1/1
f 2/2/2 3/3/3 4/4/4
f 5/5/5 4/4/4 3/3/3
f 4/4/4 5/5/5 6/6/6
f 7/7/7 6/6/6 5/5/5
f 6/6/6 7/7/7 8/8/8
f 9/9/9 8/8/8 7/7/7
f 8/8/8 9/9/9 10/10/10
f 11/11/11 10/10/10 9/9/9
f 10/10/10 11/11/11 12/12/12
f 13/13/13 12/12/12 11/11/11
f 12/12/12 13/13/13 14/14/14
f 15/15/15 14/14/14 13/13/13
f 14/14/14 15/15/15 16/16/16
f 17/17/17 16/16/16 15/15/15
f 16/16/16 17/17/17 18/18/18
f 19/19/19 18/18/18 17/17/17
f 18/18/18 19/19/19 20/20/20
g _1
f 21/21/21 22/22/22 23/23/23
f 24/24/24 23/23/23 22/22/22
f 25/25/25 26/26/26 27/27/27
f 28/28/28 27/27/27 26/26/26
f 29/29/29 30/30/30 31/31/31
f 32/32/32 31/31/31 30/30/30
f 33/33/33 34/34/34 35/35/35
f 36/36/36 35/35/35 34/34/34
f 37/37/37 38/38/38 39/39/39
f 40/40/40 39/39/39 38/38/38
f 41/41/41 42/42/42 43/43/43
f 44/44/44 43/43/43 42/42/42
f 45/45/45 46/46/46 47/47/47
f 48/48/48 47/47/47 46/46/46
f 49/49/49 50/50/50 51/51/51
f 52/52/52 51/51/51 50/50/50
f 53/53/53 54/54/54 55/55/55
f 56/56/56 55/55/55 54/54/54
f 59/59/59 58/58/58 57/57/57
f 58/58/58 59/59/59 60/60/60
f 63/63/63 62/62/62 61/61/61
f 62/62/62 63/63/63 64/64/64
f 67/67/67 66/66/66 65/65/65
f 66/66/66 67/67/67 68/68/68
f 71/71/71 70/70/70 69/69/69
f 70/70/70 71/71/71 72/72/72
f 75/75/75 74/74/74 73/73/73
f 74/74/74 75/75/75 76/76/76
f 79/79/79 78/78/78 77/77/77
f 78/78/78 79/79/79 80/80/80
f 83/83/83 82/82/82 81/81/81
f 82/82/82 83/83/83 84/84/84
f 87/87/87 86/86/86 85/85/85
f 86/86/86 87/87/87 88/88/88
f 91/91/91 90/90/90 89/89/89
f 90/90/90 91/91/91 92/92/92
f 57/57/57 22/22/22 21/21/21
f 22/22/22 57/57/57 58/58/58
f 55/55/55 56/56/56 91/91/91
f 92/92/92 91/91/91 56/56/56
