g 
v 7.21 36.53356 -33.64
v 7.21 22.53356 -33.64
v 8.62 36.46597 -37.31
v 8.62 22.46597 -37.31
v 7.36 36.51321 -39.03
v 7.36 22.51321 -39.03
v 5.27 36.58359 -37.92
v 5.27 22.58359 -37.92
v 3.01 36.58359 -37.47
v 3.01 22.58359 -37.47
v 2.56 36.58359 -36.41
v 2.56 22.58359 -36.41
v 5.49 36.58359 -33.47
v 5.49 22.58359 -33.47
v 7.21 36.53356 -33.64
v 7.21 22.53356 -33.64
vt -0.4599 -0.8985
vt -0.4599 -0.8985
vt -0.474 -0.9352
vt -0.474 -0.9352
vt -0.4614 -0.9524
vt -0.4614 -0.9524
vt -0.4405 -0.9413
vt -0.4405 -0.9413
vt -0.4179 -0.9368
vt -0.4179 -0.9368
vt -0.4134 -0.9261999
vt -0.4134 -0.9261999
vt -0.4427 -0.8968
vt -0.4427 -0.8968
vt -0.4599 -0.8985
vt -0.4599 -0.8985
vn 0.9334767 0 0.358638
vn 0.9334767 0 0.358638
vn 0.8067027 0 -0.5909574
vn 0.8067027 0 -0.5909574
vn -0.4690524 0 -0.8831703
vn -0.4690524 0 -0.8831703
vn -0.1952803 0 -0.9807475
vn -0.1952803 0 -0.9807475
vn -0.9204873 0 -0.3907725
vn -0.9204873 0 -0.3907725
vn -0.7083102 0 0.7059013
vn -0.7083102 0 0.7059013
vn 0.09835689 0 0.9951512
vn 0.09835689 0 0.9951512
vn 0.09835689 0 0.9951512
vn 0.09835689 0 0.9951512
g _0
f 1/1/1 2/2/2 3/3/3
f 4/4/4 3/3/3 2/2/2
f 3/3/3 4/4/4 5/5/5
f 6/6/6 5/5/5 4/4/4
f 5/5/5 6/6/6 7/7/7
f 8/8/8 7/7/7 6/6/6
f 7/7/7 8/8/8 9/9/9
f 10/10/10 9/9/9 8/8/8
f 9/9/9 10/10/10 11/11/11
f 12/12/12 11/11/11 10/10/10
f 11/11/11 12/12/12 13/13/13
f 14/14/14 13/13/13 12/12/12
f 13/13/13 14/14/14 15/15/15
f 16/16/16 15/15/15 14/14/14
