g 
v -13.4435 0 -64.30936
v -14.91413 0 -68.1496
v -11.77349 0 -63.08707
v -14.48772 0 -70.17471
v -8.829159 0 -62.97585
v -12.37084 0 -72.22414
v -6.741584 0 -64.25934
v -9.983955 0 -72.65417
v -4.53465 0 -65.0938
v -7.274914 0 -73.7331
v -2.670262 0 -66.3302
v -4.085248 0 -73.74567
v -0.2649384 0 -66.71389
v -1.274733 0 -74.07267
v 2.456324 0 -66.57368
v 1.360554 0 -74.95296
v 4.969656 0 -67.39591
v 4.214288 0 -74.79299
v 7.492418 0 -67.42034
v 7.074496 0 -75.20406
v 9.994303 0 -67.14975
v 9.972445 0 -75.6181
v 12.53905 0 -66.976
v 12.83997 0 -75.67632
v 15.23473 0 -67.30585
v 15.56001 0 -75.08749
v 17.92576 0 -66.99242
v 18.27424 0 -75.20758
v 18.72558 0 -67.38519
v 19.84774 0 -74.6782
v 19.22109 0 -67.10509
v 21.66502 0 -74.37387
v 20.02686 0 -66.37621
v 23.12206 0 -74.14875
v 20.81462 0 -65.8942
v 23.78538 0 -74.1058
v 23.36257 0 -66.06499
v 25.63427 0 -72.34434
v 24.81646 0 -67.23725
v 26.00161 0 -70.51321
vt 0 -0.002056102
vt 0 0.002056102
vt 0.001122442 -0.003794786
vt 0.001122442 0.003794786
vt 0.003832263 -0.00495163
vt 0.003832263 0.00495163
vt 0.006227933 -0.004499617
vt 0.006227933 0.004499617
vt 0.00886554 -0.004531735
vt 0.00886554 0.004531735
vt 0.01146858 -0.00377463
vt 0.01146858 0.00377463
vt 0.0141006 -0.003713871
vt 0.0141006 0.003713871
vt 0.01680432 -0.004225306
vt 0.01680432 0.004225306
vt 0.01950821 -0.003717772
vt 0.01950821 0.003717772
vt 0.02220849 -0.003897463
vt 0.02220849 0.003897463
vt 0.02490935 -0.004234195
vt 0.02490935 0.004234195
vt 0.02761611 -0.004352759
vt 0.02761611 0.004352759
vt 0.03032706 -0.003894211
vt 0.03032706 0.003894211
vt 0.03303142 -0.004111279
vt 0.03303142 0.004111279
vt 0.03422004 -0.003689422
vt 0.03422004 0.003689422
vt 0.03541278 -0.003834323
vt 0.03541278 0.003834323
vt 0.03664063 -0.004183077
vt 0.03664063 0.004183077
vt 0.03741219 -0.004366234
vt 0.03741219 0.004366234
vt 0.03975005 -0.003338814
vt 0.03975005 0.003338814
vt 0.04071843 -0.001741869
vt 0.04071843 0.001741869
vn 0 1 0
vn 0 1 0
vn 0 1 0
vn 0 1 0
vn 0 1 0
vn 0 1 0
vn 0 1 0
vn 0 1 0
vn 0 1 0
vn 0 1 0
vn 0 1 0
vn 0 0.9999999 0
vn 0 0.9999999 0
vn 0 1 0
vn 0 1 0
vn 0 1 0
vn 0 1 0
vn 0 0.9999999 0
vn 0 1 0
vn 0 1 0
vn 0 1 0
vn 0 1 0
vn 0 1 0
vn 0 1 0
vn 0 1 0
vn 0 1 0
vn 0 1 0
vn 0 1 0
vn 0 1 0
vn 0 1 0
vn 0 1 0
vn 0 1 0
vn 0 1 0
vn 0 1 0
vn 0 1 0
vn 0 1 0
vn 0 1 0
vn 0 1 0
vn 0 0.9999999 0
vn 0 1 0
g _0
f 3/3/3 2/2/2 1/1/1
f 2/2/2 3/3/3 4/4/4
f 5/5/5 4/4/4 3/3/3
f 4/4/4 5/5/5 6/6/6
f 7/7/7 6/6/6 5/5/5
f 6/6/6 7/7/7 8/8/8
f 9/9/9 8/8/8 7/7/7
f 8/8/8 9/9/9 10/10/10
f 11/11/11 10/10/10 9/9/9
f 10/10/10 11/11/11 12/12/12
f 13/13/13 12/12/12 11/11/11
f 12/12/12 13/13/13 14/14/14
f 15/15/15 14/14/14 13/13/13
f 14/14/14 15/15/15 16/16/16
f 17/17/17 16/16/16 15/15/15
f 16/16/16 17/17/17 18/18/18
f 19/19/19 18/18/18 17/17/17
f 18/18/18 19/19/19 20/20/20
f 21/21/21 20/20/20 19/19/19
f 20/20/20 21/21/21 22/22/22
f 23/23/23 22/22/22 21/21/21
f 22/22/22 23/23/23 24/24/24
f 25/25/25 24/24/24 23/23/23
f 24/24/24 25/25/25 26/26/26
f 27/27/27 26/26/26 25/25/25
f 26/26/26 27/27/27 28/28/28
f 29/29/29 28/28/28 27/27/27
f 28/28/28 29/29/29 30/30/30
f 31/31/31 30/30/30 29/29/29
f 30/30/30 31/31/31 32/32/32
f 33/33/33 32/32/32 31/31/31
f 32/32/32 33/33/33 34/34/34
f 35/35/35 34/34/34 33/33/33
f 34/34/34 35/35/35 36/36/36
f 37/37/37 36/36/36 35/35/35
f 36/36/36 37/37/37 38/38/38
f 39/39/39 38/38/38 37/37/37
f 38/38/38 39/39/39 40/40/40
