g 
v -17.33973 0 -76.01606
v -17.55949 0 -76.13879
v -17.31642 0 -76.05783
v -17.53617 0 -76.18053
v -17.24686 0 -76.15125
v -17.49314 0 -76.28876
v -16.80779 0 -76.93142
v -17.05934 0 -77.07188
v -16.29213 0 -77.78276
v -16.60513 0 -77.95752
v -15.85343 0 -78.67706
v -16.07397 0 -78.8002
v -15.27157 0 -79.49143
v -15.68597 0 -79.72282
v -14.76353 0 -80.34702
v -15.22414 0 -80.60421
v -14.37585 0 -81.26981
v -14.64196 0 -81.4184
v -13.87146 0 -82.17017
v -14.17649 0 -82.25504
v -13.74642 0 -83.17006
v -14.27854 0 -83.08647
v -14.05938 0 -84.15797
v -14.57384 0 -83.99277
v -14.42476 0 -85.08541
v -14.81673 0 -84.95954
v -14.67863 0 -86.04865
v -15.17112 0 -85.89051
v -15.02602 0 -86.98187
v -15.43199 0 -86.85152
v -15.32549 0 -87.93048
v -15.74079 0 -87.79712
v -15.6647 0 -88.86633
v -16.00985 0 -88.75549
v -15.99217 0 -89.80593
v -16.29064 0 -89.71009
v -16.20602 0 -90.78204
v -16.68505 0 -90.62821
v -16.52491 0 -91.7244
v -16.97443 0 -91.58006
v -16.78488 0 -92.68569
v -17.32272 0 -92.51298
v -17.16873 0 -93.63635
v -17.54714 0 -93.45653
v -17.72267 0 -94.49182
v -18.04831 0 -94.207
v -18.54116 0 -95.11687
v -18.73178 0 -94.89959
v -19.27697 0 -95.79298
v -19.49793 0 -95.54112
v -19.95658 0 -96.53316
v -20.32028 0 -96.1186
v -20.72505 0 -97.17206
v -21.05377 0 -96.79735
v -21.47883 0 -97.82769
v -21.80196 0 -97.45936
v -22.29218 0 -98.41542
v -22.49057 0 -98.18929
v -23.03385 0 -99.08485
v -23.25085 0 -98.83749
v -23.8015 0 -99.72467
v -23.98516 0 -99.51532
v -24.51015 0 -100.4318
v -24.77848 0 -100.1259
v -25.25802 0 -101.0941
v -25.53257 0 -100.7812
v -26.00532 0 -101.7571
v -26.28723 0 -101.4358
v -26.77883 0 -102.3903
v -27.01568 0 -102.1203
v -27.46582 0 -103.122
v -27.83065 0 -102.7062
v -28.28834 0 -103.7123
v -28.51009 0 -103.4336
v -29.11909 0 -104.3114
v -29.26922 0 -103.9775
v -30.13595 0 -104.4932
v -30.19387 0 -104.2402
v -31.1113 0 -104.6954
v -31.16005 0 -104.4824
v -32.05553 0 -105.0335
v -32.15734 0 -104.5888
v -33.04282 0 -105.1835
v -33.11157 0 -104.8832
v -34.00678 0 -105.4354
v -34.08913 0 -105.0757
v -34.97001 0 -105.6905
v -35.06741 0 -105.265
v -35.92796 0 -105.9687
v -36.05098 0 -105.4313
v -36.90372 0 -106.1691
v -37.01674 0 -105.6754
v -37.89581 0 -106.2982
v -37.96618 0 -105.9907
v -38.85119 0 -106.5875
v -38.95232 0 -106.1458
v -39.81933 0 -106.8212
v -39.9257 0 -106.3566
v -40.8156 0 -106.932
v -40.87095 0 -106.6902
v -41.75353 0 -107.2976
v -41.87453 0 -106.769
v -42.72027 0 -107.5374
v -42.84932 0 -106.9737
v -43.71355 0 -107.6612
v -43.79755 0 -107.2943
v -44.70255 0 -107.8253
v -44.75008 0 -107.5747
v -45.72388 0 -108.0185
v -45.64063 0 -107.6683
v -46.6036 0 -107.4208
v -46.40603 0 -107.1337
v -47.48068 0 -106.9338
v -47.17409 0 -106.4884
v -48.27835 0 -106.3315
v -48.02155 0 -105.9584
v -49.09138 0 -105.7515
v -48.85365 0 -105.4061
v -49.90675 0 -105.1749
v -49.6834 0 -104.8504
v -50.7062 0 -104.5751
v -50.52909 0 -104.3178
v -51.55833 0 -104.0519
v -51.32208 0 -103.7087
v -52.42249 0 -103.5462
v -52.10304 0 -103.0821
v -53.23389 0 -102.9638
v -52.93678 0 -102.5322
v -54.03502 0 -102.3665
v -53.78078 0 -101.9972
v -54.89199 0 -101.8504
v -54.56894 0 -101.381
v -55.63266 0 -101.1652
v -55.47339 0 -100.9338
v -56.53526 0 -100.7154
v -56.21592 0 -100.2514
v -57.27991 0 -100.036
v -57.11639 0 -99.79844
v -58.10721 0 -99.47674
v -57.93423 0 -99.22541
v -58.97937 0 -98.98266
v -58.70719 0 -98.5872
v -59.75404 0 -98.34692
v -59.57764 0 -98.09063
v -60.59563 0 -97.8084
v -60.38119 0 -97.49683
v -61.53382 0 -97.24759
v -61.08812 0 -96.92534
v -61.74852 0 -96.26839
v -61.20684 0 -96.30031
v -61.33853 0 -95.28788
v -61.07577 0 -95.36198
v -61.16847 0 -94.30013
v -60.70477 0 -94.43089
v -60.94215 0 -93.32825
v -60.39003 0 -93.48393
v -60.62289 0 -92.38257
v -60.16822 0 -92.51077
v -60.38669 0 -91.41346
v -59.86336 0 -91.56103
v -60.08608 0 -90.46252
v -59.6229 0 -90.59312
v -59.82262 0 -89.50111
v -59.3453 0 -89.6357
v -59.44171 0 -88.57281
v -59.18515 0 -88.64516
v -59.25256 0 -87.59045
v -58.83324 0 -87.70869
v -59.03035 0 -86.6174
v -58.51439 0 -86.76289
v -58.72752 0 -85.66709
v -58.27615 0 -85.79436
v -58.49358 0 -84.69735
v -57.96902 0 -84.84527
v -58.0904 0 -83.77533
v -57.83115 0 -83.84843
v -57.82279 0 -82.81509
v -57.55769 0 -82.88984
v -57.552 0 -81.85574
v -57.28742 0 -81.93034
v -57.37109 0 -80.87105
v -56.92727 0 -80.9962
v -57.10133 0 -79.91142
v -56.65597 0 -80.03699
v -56.83257 0 -78.95149
v -56.38366 0 -79.07808
v -56.5421 0 -77.99769
v -56.13307 0 -78.11303
v -56.19734 0 -76.97966
v -55.93677 0 -77.21222
v -55.24598 0 -76.54103
v -55.10467 0 -76.96523
v -54.27769 0 -76.2578
v -54.15147 0 -76.69986
v -53.29287 0 -76.06779
v -53.2148 0 -76.34126
v -52.35198 0 -75.72395
v -52.23419 0 -76.13652
v -51.39101 0 -75.45043
v -51.27366 0 -75.86144
v -50.44837 0 -75.11272
v -50.29481 0 -75.65056
v -49.44489 0 -74.98808
v -49.37679 0 -75.2266
v -48.48514 0 -74.71028
v -48.41504 0 -74.9558
v -47.54228 0 -74.37334
v -47.43641 0 -74.74414
v -46.56822 0 -74.14567
v -46.48898 0 -74.42321
v -45.63831 0 -73.76337
v -45.4974 0 -74.2569
v -44.66513 0 -73.5326
v -44.54908 0 -73.93908
v -43.702 0 -73.26665
v -43.59071 0 -73.65643
v -42.7462 0 -72.97501
v -42.62502 0 -73.39947
v -41.755 0 -72.80739
v -41.69473 0 -73.01849
v -40.82052 0 -72.44106
v -40.7077 0 -72.83622
v -39.8592 0 -72.16876
v -39.74752 0 -72.55992
v -38.87911 0 -71.96221
v -38.80612 0 -72.21787
v -37.9565 0 -71.55433
v -37.80724 0 -72.07716
v -36.95454 0 -71.42441
v -36.8877 0 -71.65848
v -35.98808 0 -71.07496
v -35.93267 0 -71.45933
v -34.97393 0 -71.07079
v -35.02787 0 -71.45853
v -33.97837 0 -71.30509
v -34.10703 0 -71.76284
v -33.0181 0 -71.56704
v -33.15089 0 -72.03951
v -32.06404 0 -71.85107
v -32.18856 0 -72.29411
v -31.13673 0 -72.23029
v -31.19946 0 -72.45351
v -30.17441 0 -72.48498
v -30.24537 0 -72.73745
v -29.19055 0 -72.66299
v -29.31284 0 -73.09808
v -28.24497 0 -72.97722
v -28.34201 0 -73.32246
v -27.26191 0 -73.15806
v -27.40867 0 -73.68024
v -26.33899 0 -73.55292
v -26.41519 0 -73.82401
v -25.3533 0 -73.72441
v -25.48448 0 -74.19115
v -24.39488 0 -73.99296
v -24.52649 0 -74.46122
v -23.45601 0 -74.33105
v -23.54896 0 -74.66174
v -22.4774 0 -74.52776
v -22.61117 0 -75.00368
v -21.51913 0 -74.79679
v -21.65304 0 -75.27326
v -20.56642 0 -75.08566
v -20.68935 0 -75.52301
v -19.60289 0 -75.33599
v -19.73648 0 -75.81132
v -18.65797 0 -75.65258
v -18.76499 0 -76.03335
v -17.71015 0 -75.95882
v -17.79641 0 -76.26572
v -17.33788 0 -76.1057
v -17.40213 0 -76.3343
v -17.19933 0 -76.03953
v -17.31835 0 -76.46296
v -17.19255 0 -76.19221
v -17.23303 0 -76.33617
vt 0.4114973 -1.00526
vt 0.4136949 -1.006488
vt 0.4112643 -1.005678
vt 0.4134617 -1.006905
vt 0.4105687 -1.006612
vt 0.4130314 -1.007987
vt 0.4061779 -1.014414
vt 0.4086934 -1.015819
vt 0.4010213 -1.022928
vt 0.4041513 -1.024675
vt 0.3966343 -1.031871
vt 0.3988397 -1.033102
vt 0.3908157 -1.040014
vt 0.3949597 -1.042328
vt 0.3857353 -1.04857
vt 0.3903414 -1.051142
vt 0.3818585 -1.057798
vt 0.3845196 -1.059284
vt 0.3768146 -1.066802
vt 0.3798649 -1.06765
vt 0.3755642 -1.0768
vt 0.3808854 -1.075965
vt 0.3786938 -1.08668
vt 0.3838384 -1.085028
vt 0.3823476 -1.095954
vt 0.3862673 -1.094695
vt 0.3848863 -1.105586
vt 0.3898112 -1.104005
vt 0.3883602 -1.114919
vt 0.39242 -1.113615
vt 0.3913549 -1.124405
vt 0.3955079 -1.123071
vt 0.394747 -1.133763
vt 0.3981985 -1.132655
vt 0.3980217 -1.143159
vt 0.4010064 -1.142201
vt 0.4001603 -1.15292
vt 0.4049505 -1.151382
vt 0.4033491 -1.162344
vt 0.4078443 -1.1609
vt 0.4059488 -1.171957
vt 0.4113272 -1.17023
vt 0.4097873 -1.181463
vt 0.4135714 -1.179665
vt 0.4153267 -1.190018
vt 0.4185831 -1.18717
vt 0.4235116 -1.196269
vt 0.4254178 -1.194096
vt 0.4308697 -1.20303
vt 0.4330793 -1.200511
vt 0.4376658 -1.210432
vt 0.4413028 -1.206286
vt 0.4453505 -1.21682
vt 0.4486377 -1.213073
vt 0.4528883 -1.223377
vt 0.4561196 -1.219694
vt 0.4610218 -1.229254
vt 0.4630057 -1.226993
vt 0.4684385 -1.235948
vt 0.4706086 -1.233475
vt 0.476115 -1.242347
vt 0.4779516 -1.240253
vt 0.4832015 -1.249417
vt 0.4858848 -1.246359
vt 0.4906802 -1.256041
vt 0.4934257 -1.252912
vt 0.4981532 -1.262671
vt 0.5009723 -1.259458
vt 0.5058883 -1.269003
vt 0.5082569 -1.266303
vt 0.5127582 -1.27632
vt 0.5164065 -1.272162
vt 0.5209834 -1.282223
vt 0.5232009 -1.279436
vt 0.5292909 -1.288214
vt 0.5307922 -1.284875
vt 0.5394595 -1.290032
vt 0.5400386 -1.287502
vt 0.5492129 -1.292054
vt 0.5497004 -1.289924
vt 0.5586553 -1.295435
vt 0.5596734 -1.290987
vt 0.5685282 -1.296935
vt 0.5692157 -1.293932
vt 0.5781678 -1.299454
vt 0.5789913 -1.295857
vt 0.5878001 -1.302005
vt 0.5887741 -1.29775
vt 0.5973796 -1.304787
vt 0.5986098 -1.299413
vt 0.6071372 -1.306791
vt 0.6082674 -1.301854
vt 0.617058 -1.308082
vt 0.6177618 -1.305007
vt 0.6266119 -1.310975
vt 0.6276231 -1.306558
vt 0.6362933 -1.313312
vt 0.637357 -1.308665
vt 0.6462559 -1.31442
vt 0.6468095 -1.312002
vt 0.6556354 -1.318076
vt 0.6568454 -1.31279
vt 0.6653027 -1.320474
vt 0.6665931 -1.314837
vt 0.6752356 -1.321712
vt 0.6760756 -1.318043
vt 0.6851254 -1.323353
vt 0.6856009 -1.320847
vt 0.6953388 -1.325285
vt 0.6945063 -1.321783
vt 0.704136 -1.319308
vt 0.7021603 -1.316437
vt 0.7129068 -1.314438
vt 0.7098409 -1.309983
vt 0.7208835 -1.308415
vt 0.7183155 -1.304684
vt 0.7290138 -1.302615
vt 0.7266365 -1.299161
vt 0.7371675 -1.296849
vt 0.7349341 -1.293604
vt 0.745162 -1.290851
vt 0.7433909 -1.288278
vt 0.7536833 -1.285619
vt 0.7513208 -1.282187
vt 0.762325 -1.280562
vt 0.7591304 -1.275921
vt 0.7704388 -1.274738
vt 0.7674678 -1.270422
vt 0.7784501 -1.268765
vt 0.7759078 -1.265072
vt 0.7870198 -1.263604
vt 0.7837893 -1.25891
vt 0.7944266 -1.256752
vt 0.7928339 -1.254438
vt 0.8034526 -1.252254
vt 0.8002592 -1.247614
vt 0.8108992 -1.24546
vt 0.8092639 -1.243084
vt 0.819172 -1.239867
vt 0.8174423 -1.237354
vt 0.8278937 -1.234926
vt 0.8251719 -1.230972
vt 0.8356404 -1.228569
vt 0.8338765 -1.226006
vt 0.8440564 -1.223184
vt 0.8419119 -1.220068
vt 0.8534383 -1.217576
vt 0.8489812 -1.214353
vt 0.8555852 -1.207784
vt 0.8501683 -1.208103
vt 0.8514853 -1.197979
vt 0.8488577 -1.19872
vt 0.8497847 -1.188101
vt 0.8451477 -1.189409
vt 0.8475215 -1.178382
vt 0.8420002 -1.179939
vt 0.8443289 -1.168926
vt 0.8397822 -1.170208
vt 0.8419669 -1.159235
vt 0.8367335 -1.16071
vt 0.8389609 -1.149725
vt 0.8343291 -1.151031
vt 0.8363262 -1.140111
vt 0.831553 -1.141457
vt 0.8325171 -1.130828
vt 0.8299515 -1.131552
vt 0.8306256 -1.121004
vt 0.8264323 -1.122187
vt 0.8284035 -1.111274
vt 0.8232439 -1.112729
vt 0.8253752 -1.101771
vt 0.8208615 -1.103044
vt 0.8230359 -1.092073
vt 0.8177902 -1.093553
vt 0.8190041 -1.082853
vt 0.8164114 -1.083584
vt 0.8163279 -1.073251
vt 0.8136769 -1.073998
vt 0.81362 -1.063657
vt 0.8109742 -1.064403
vt 0.8118109 -1.05381
vt 0.8073727 -1.055062
vt 0.8091133 -1.044214
vt 0.8046597 -1.04547
vt 0.8064258 -1.034615
vt 0.8019366 -1.035881
vt 0.803521 -1.025077
vt 0.7994307 -1.02623
vt 0.8000734 -1.014897
vt 0.7974676 -1.017222
vt 0.7905598 -1.01051
vt 0.7891467 -1.014752
vt 0.7808769 -1.007678
vt 0.7796147 -1.012099
vt 0.7710288 -1.005778
vt 0.7702479 -1.008512
vt 0.7616198 -1.002339
vt 0.7604419 -1.006465
vt 0.7520101 -0.9996042
vt 0.7508366 -1.003714
vt 0.7425837 -0.9962271
vt 0.7410481 -1.001606
vt 0.732549 -0.9949807
vt 0.731868 -0.997366
vt 0.7229514 -0.9922028
vt 0.7222504 -0.9946579
vt 0.7135228 -0.9888333
vt 0.7124642 -0.9925413
vt 0.7037822 -0.9865566
vt 0.7029898 -0.989332
vt 0.694483 -0.9827337
vt 0.693074 -0.987669
vt 0.6847513 -0.980426
vt 0.6835908 -0.9844907
vt 0.67512 -0.9777664
vt 0.6740071 -0.9816642
vt 0.665562 -0.9748501
vt 0.6643501 -0.9790946
vt 0.65565 -0.9731738
vt 0.6550473 -0.9752849
vt 0.6463052 -0.9695106
vt 0.645177 -0.9734621
vt 0.636692 -0.9667875
vt 0.6355752 -0.9706991
vt 0.6268911 -0.964722
vt 0.6261612 -0.9672787
vt 0.6176651 -0.9606432
vt 0.6161724 -0.9658715
vt 0.6076454 -0.959344
vt 0.606977 -0.9616847
vt 0.5979807 -0.9558495
vt 0.5974267 -0.9596932
vt 0.5878392 -0.9558078
vt 0.5883787 -0.9596852
vt 0.5778837 -0.9581509
vt 0.5791702 -0.9627283
vt 0.568281 -0.9607703
vt 0.5696089 -0.965495
vt 0.5587404 -0.9636106
vt 0.5599856 -0.9680411
vt 0.5494673 -0.9674029
vt 0.5500946 -0.9696351
vt 0.5398441 -0.9699497
vt 0.5405537 -0.9724744
vt 0.5300055 -0.9717298
vt 0.5312284 -0.9760807
vt 0.5205498 -0.9748721
vt 0.5215201 -0.9783246
vt 0.5107191 -0.9766805
vt 0.5121867 -0.9819024
vt 0.5014899 -0.9806291
vt 0.5022519 -0.98334
vt 0.491633 -0.982344
vt 0.4929448 -0.9870114
vt 0.4820489 -0.9850295
vt 0.4833649 -0.9897121
vt 0.4726601 -0.9884105
vt 0.4735896 -0.9917173
vt 0.4628741 -0.9903775
vt 0.4642117 -0.9951367
vt 0.4532913 -0.9930679
vt 0.4546304 -0.9978325
vt 0.4437642 -0.9959565
vt 0.4449935 -1.00033
vt 0.4341289 -0.9984598
vt 0.4354648 -1.003213
vt 0.4246798 -1.001626
vt 0.4257499 -1.005433
vt 0.4152015 -1.004688
vt 0.4160641 -1.007757
vt 0.4114788 -1.006157
vt 0.4121213 -1.008443
vt 0.4100932 -1.005495
vt 0.4112835 -1.00973
vt 0.4100255 -1.007022
vt 0.4104303 -1.008462
vn 0 1 0
vn 0 1 0
vn 0 1 0
vn 0 1 0
vn 0 1 0
vn 0 1 0
vn 0 1 0
vn 0 1 0
vn 0 1 0
vn 0 1 0
vn 0 1 0
vn 0 1 0
vn 0 1 0
vn 0 1 0
vn 0 1 0
vn 0 1 0
vn 0 1 0
vn 0 1 0
vn 0 1 0
vn 0 1 0
vn 0 1 0
vn 0 1 0
vn 0 1 0
vn 0 1 0
vn 0 1 0
vn 0 1 0
vn 0 1 0
vn 0 1 0
vn 0 1 0
vn 0 1 0
vn 0 1 0
vn 0 1 0
vn 0 1 0
vn 0 1 0
vn 0 1 0
vn 0 1 0
vn 0 1 0
vn 0 1 0
vn 0 1 0
vn 0 1 0
vn 0 1 0
vn 0 1 0
vn 0 1 0
vn 0 1 0
vn 0 1 0
vn 0 1 0
vn 0 1 0
vn 0 1 0
vn 0 1 0
vn 0 1 0
vn 0 1 0
vn 0 1 0
vn 0 1 0
vn 0 1 0
vn 0 1 0
vn 0 1 0
vn 0 1 0
vn 0 1 0
vn 0 1 0
vn 0 1 0
vn 0 1 0
vn 0 1 0
vn 0 1 0
vn 0 1 0
vn 0 1 0
vn 0 1 0
vn 0 1 0
vn 0 1 0
vn 0 1 0
vn 0 1 0
vn 0 1 0
vn 0 1 0
vn 0 1 0
vn 0 1 0
vn 0 1 0
vn 0 1 0
vn 0 1 0
vn 0 1 0
vn 0 1 0
vn 0 1 0
vn 0 1 0
vn 0 1 0
vn 0 1 0
vn 0 1 0
vn 0 1 0
vn 0 1 0
vn 0 1 0
vn 0 1 0
vn 0 1 0
vn 0 1 0
vn 0 1 0
vn 0 1 0
vn 0 1 0
vn 0 1 0
vn 0 1 0
vn 0 1 0
vn 0 1 0
vn 0 1 0
vn 0 1 0
vn 0 1 0
vn 0 1 0
vn 0 1 0
vn 0 1 0
vn 0 1 0
vn 0 1 0
vn 0 1 0
vn 0 1 0
vn 0 1 0
vn 0 1 0
vn 0 1 0
vn 0 1 0
vn 0 1 0
vn 0 1 0
vn 0 1 0
vn 0 1 0
vn 0 1 0
vn 0 1 0
vn 0 1 0
vn 0 1 0
vn 0 1 0
vn 0 1 0
vn 0 1 0
vn 0 1 0
vn 0 1 0
vn 0 1 0
vn 0 1 0
vn 0 1 0
vn 0 1 0
vn 0 1 0
vn 0 1 0
vn 0 1 0
vn 0 1 0
vn 0 1 0
vn 0 1 0
vn 0 1 0
vn 0 1 0
vn 0 1 0
vn 0 1 0
vn 0 1 0
vn 0 1 0
vn 0 1 0
vn 0 1 0
vn 0 1 0
vn 0 1 0
vn 0 1 0
vn 0 1 0
vn 0 1 0
vn 0 1 0
vn 0 1 0
vn 0 1 0
vn 0 1 0
vn 0 1 0
vn 0 1 0
vn 0 1 0
vn 0 1 0
vn 0 1 0
vn 0 1 0
vn 0 1 0
vn 0 1 0
vn 0 1 0
vn 0 1 0
vn 0 1 0
vn 0 1 0
vn 0 1 0
vn 0 1 0
vn 0 1 0
vn 0 1 0
vn 0 1 0
vn 0 1 0
vn 0 1 0
vn 0 1 0
vn 0 1 0
vn 0 1 0
vn 0 1 0
vn 0 1 0
vn 0 1 0
vn 0 1 0
vn 0 1 0
vn 0 1 0
vn 0 1 0
vn 0 1 0
vn 0 1 0
vn 0 1 0
vn 0 1 0
vn 0 1 0
vn 0 1 0
vn 0 1 0
vn 0 1 0
vn 0 1 0
vn 0 1 0
vn 0 1 0
vn 0 1 0
vn 0 1 0
vn 0 1 0
vn 0 1 0
vn 0 1 0
vn 0 1 0
vn 0 1 0
vn 0 1 0
vn 0 1 0
vn 0 1 0
vn 0 1 0
vn 0 1 0
vn 0 1 0
vn 0 1 0
vn 0 1 0
vn 0 1 0
vn 0 1 0
vn 0 1 0
vn 0 1 0
vn 0 1 0
vn 0 1 0
vn 0 1 0
vn 0 1 0
vn 0 1 0
vn 0 1 0
vn 0 1 0
vn 0 1 0
vn 0 1 0
vn 0 1 0
vn 0 1 0
vn 0 1 0
vn 0 1 0
vn 0 1 0
vn 0 1 0
vn 0 1 0
vn 0 1 0
vn 0 1 0
vn 0 1 0
vn 0 1 0
vn 0 1 0
vn 0 1 0
vn 0 1 0
vn 0 1 0
vn 0 1 0
vn 0 1 0
vn 0 1 0
vn 0 1 0
vn 0 1 0
vn 0 1 0
vn 0 1 0
vn 0 1 0
vn 0 1 0
vn 0 1 0
vn 0 1 0
vn 0 1 0
vn 0 1 0
vn 0 1 0
vn 0 1 0
vn 0 1 0
vn 0 1 0
vn 0 1 0
vn 0 1 0
vn 0 1 0
vn 0 1 0
vn 0 1 0
vn 0 1 0
vn 0 1 0
vn 0 1 0
vn 0 1 0
vn 0 1 0
vn 0 1 0
vn 0 1 0
vn 0 1 0
vn 0 1 0
vn 0 1 0
vn 0 1 0
vn 0 1 0
vn 0 1 0
vn 0 1 0
vn 0 1 0
vn 0 1 0
vn 0 1 0
vn 0 1 0
vn 0 1 0
vn 0 1 0
g _0
f 3/3/3 2/2/2 1/1/1
f 2/2/2 3/3/3 4/4/4
f 5/5/5 4/4/4 3/3/3
f 4/4/4 5/5/5 6/6/6
f 7/7/7 6/6/6 5/5/5
f 6/6/6 7/7/7 8/8/8
f 9/9/9 8/8/8 7/7/7
f 8/8/8 9/9/9 10/10/10
f 11/11/11 10/10/10 9/9/9
f 10/10/10 11/11/11 12/12/12
f 13/13/13 12/12/12 11/11/11
f 12/12/12 13/13/13 14/14/14
f 15/15/15 14/14/14 13/13/13
f 14/14/14 15/15/15 16/16/16
f 17/17/17 16/16/16 15/15/15
f 16/16/16 17/17/17 18/18/18
f 19/19/19 18/18/18 17/17/17
f 18/18/18 19/19/19 20/20/20
f 21/21/21 20/20/20 19/19/19
f 20/20/20 21/21/21 22/22/22
f 23/23/23 22/22/22 21/21/21
f 22/22/22 23/23/23 24/24/24
f 25/25/25 24/24/24 23/23/23
f 24/24/24 25/25/25 26/26/26
f 27/27/27 26/26/26 25/25/25
f 26/26/26 27/27/27 28/28/28
f 29/29/29 28/28/28 27/27/27
f 28/28/28 29/29/29 30/30/30
f 31/31/31 30/30/30 29/29/29
f 30/30/30 31/31/31 32/32/32
f 33/33/33 32/32/32 31/31/31
f 32/32/32 33/33/33 34/34/34
f 35/35/35 34/34/34 33/33/33
f 34/34/34 35/35/35 36/36/36
f 37/37/37 36/36/36 35/35/35
f 36/36/36 37/37/37 38/38/38
f 39/39/39 38/38/38 37/37/37
f 38/38/38 39/39/39 40/40/40
f 41/41/41 40/40/40 39/39/39
f 40/40/40 41/41/41 42/42/42
f 43/43/43 42/42/42 41/41/41
f 42/42/42 43/43/43 44/44/44
f 45/45/45 44/44/44 43/43/43
f 44/44/44 45/45/45 46/46/46
f 47/47/47 46/46/46 45/45/45
f 46/46/46 47/47/47 48/48/48
f 49/49/49 48/48/48 47/47/47
f 48/48/48 49/49/49 50/50/50
f 51/51/51 50/50/50 49/49/49
f 50/50/50 51/51/51 52/52/52
f 53/53/53 52/52/52 51/51/51
f 52/52/52 53/53/53 54/54/54
f 55/55/55 54/54/54 53/53/53
f 54/54/54 55/55/55 56/56/56
f 57/57/57 56/56/56 55/55/55
f 56/56/56 57/57/57 58/58/58
f 59/59/59 58/58/58 57/57/57
f 58/58/58 59/59/59 60/60/60
f 61/61/61 60/60/60 59/59/59
f 60/60/60 61/61/61 62/62/62
f 63/63/63 62/62/62 61/61/61
f 62/62/62 63/63/63 64/64/64
f 65/65/65 64/64/64 63/63/63
f 64/64/64 65/65/65 66/66/66
f 67/67/67 66/66/66 65/65/65
f 66/66/66 67/67/67 68/68/68
f 69/69/69 68/68/68 67/67/67
f 68/68/68 69/69/69 70/70/70
f 71/71/71 70/70/70 69/69/69
f 70/70/70 71/71/71 72/72/72
f 73/73/73 72/72/72 71/71/71
f 72/72/72 73/73/73 74/74/74
f 75/75/75 74/74/74 73/73/73
f 74/74/74 75/75/75 76/76/76
f 77/77/77 76/76/76 75/75/75
f 76/76/76 77/77/77 78/78/78
f 79/79/79 78/78/78 77/77/77
f 78/78/78 79/79/79 80/80/80
f 81/81/81 80/80/80 79/79/79
f 80/80/80 81/81/81 82/82/82
f 83/83/83 82/82/82 81/81/81
f 82/82/82 83/83/83 84/84/84
f 85/85/85 84/84/84 83/83/83
f 84/84/84 85/85/85 86/86/86
f 87/87/87 86/86/86 85/85/85
f 86/86/86 87/87/87 88/88/88
f 89/89/89 88/88/88 87/87/87
f 88/88/88 89/89/89 90/90/90
f 91/91/91 90/90/90 89/89/89
f 90/90/90 91/91/91 92/92/92
f 93/93/93 92/92/92 91/91/91
f 92/92/92 93/93/93 94/94/94
f 95/95/95 94/94/94 93/93/93
f 94/94/94 95/95/95 96/96/96
f 97/97/97 96/96/96 95/95/95
f 96/96/96 97/97/97 98/98/98
f 99/99/99 98/98/98 97/97/97
f 98/98/98 99/99/99 100/100/100
f 101/101/101 100/100/100 99/99/99
f 100/100/100 101/101/101 102/102/102
f 103/103/103 102/102/102 101/101/101
f 102/102/102 103/103/103 104/104/104
f 105/105/105 104/104/104 103/103/103
f 104/104/104 105/105/105 106/106/106
f 107/107/107 106/106/106 105/105/105
f 106/106/106 107/107/107 108/108/108
f 109/109/109 108/108/108 107/107/107
f 108/108/108 109/109/109 110/110/110
f 111/111/111 110/110/110 109/109/109
f 110/110/110 111/111/111 112/112/112
f 113/113/113 112/112/112 111/111/111
f 112/112/112 113/113/113 114/114/114
f 115/115/115 114/114/114 113/113/113
f 114/114/114 115/115/115 116/116/116
f 117/117/117 116/116/116 115/115/115
f 116/116/116 117/117/117 118/118/118
f 119/119/119 118/118/118 117/117/117
f 118/118/118 119/119/119 120/120/120
f 121/121/121 120/120/120 119/119/119
f 120/120/120 121/121/121 122/122/122
f 123/123/123 122/122/122 121/121/121
f 122/122/122 123/123/123 124/124/124
f 125/125/125 124/124/124 123/123/123
f 124/124/124 125/125/125 126/126/126
f 127/127/127 126/126/126 125/125/125
f 126/126/126 127/127/127 128/128/128
f 129/129/129 128/128/128 127/127/127
f 128/128/128 129/129/129 130/130/130
f 131/131/131 130/130/130 129/129/129
f 130/130/130 131/131/131 132/132/132
f 133/133/133 132/132/132 131/131/131
f 132/132/132 133/133/133 134/134/134
f 135/135/135 134/134/134 133/133/133
f 134/134/134 135/135/135 136/136/136
f 137/137/137 136/136/136 135/135/135
f 136/136/136 137/137/137 138/138/138
f 139/139/139 138/138/138 137/137/137
f 138/138/138 139/139/139 140/140/140
f 141/141/141 140/140/140 139/139/139
f 140/140/140 141/141/141 142/142/142
f 143/143/143 142/142/142 141/141/141
f 142/142/142 143/143/143 144/144/144
f 145/145/145 144/144/144 143/143/143
f 144/144/144 145/145/145 146/146/146
f 147/147/147 146/146/146 145/145/145
f 146/146/146 147/147/147 148/148/148
f 149/149/149 148/148/148 147/147/147
f 148/148/148 149/149/149 150/150/150
f 151/151/151 150/150/150 149/149/149
f 150/150/150 151/151/151 152/152/152
f 153/153/153 152/152/152 151/151/151
f 152/152/152 153/153/153 154/154/154
f 155/155/155 154/154/154 153/153/153
f 154/154/154 155/155/155 156/156/156
f 157/157/157 156/156/156 155/155/155
f 156/156/156 157/157/157 158/158/158
f 159/159/159 158/158/158 157/157/157
f 158/158/158 159/159/159 160/160/160
f 161/161/161 160/160/160 159/159/159
f 160/160/160 161/161/161 162/162/162
f 163/163/163 162/162/162 161/161/161
f 162/162/162 163/163/163 164/164/164
f 165/165/165 164/164/164 163/163/163
f 164/164/164 165/165/165 166/166/166
f 167/167/167 166/166/166 165/165/165
f 166/166/166 167/167/167 168/168/168
f 169/169/169 168/168/168 167/167/167
f 168/168/168 169/169/169 170/170/170
f 171/171/171 170/170/170 169/169/169
f 170/170/170 171/171/171 172/172/172
f 173/173/173 172/172/172 171/171/171
f 172/172/172 173/173/173 174/174/174
f 175/175/175 174/174/174 173/173/173
f 174/174/174 175/175/175 176/176/176
f 177/177/177 176/176/176 175/175/175
f 176/176/176 177/177/177 178/178/178
f 179/179/179 178/178/178 177/177/177
f 178/178/178 179/179/179 180/180/180
f 181/181/181 180/180/180 179/179/179
f 180/180/180 181/181/181 182/182/182
f 183/183/183 182/182/182 181/181/181
f 182/182/182 183/183/183 184/184/184
f 185/185/185 184/184/184 183/183/183
f 184/184/184 185/185/185 186/186/186
f 187/187/187 186/186/186 185/185/185
f 186/186/186 187/187/187 188/188/188
f 189/189/189 188/188/188 187/187/187
f 188/188/188 189/189/189 190/190/190
f 191/191/191 190/190/190 189/189/189
f 190/190/190 191/191/191 192/192/192
f 193/193/193 192/192/192 191/191/191
f 192/192/192 193/193/193 194/194/194
f 195/195/195 194/194/194 193/193/193
f 194/194/194 195/195/195 196/196/196
f 197/197/197 196/196/196 195/195/195
f 196/196/196 197/197/197 198/198/198
f 199/199/199 198/198/198 197/197/197
f 198/198/198 199/199/199 200/200/200
f 201/201/201 200/200/200 199/199/199
f 200/200/200 201/201/201 202/202/202
f 203/203/203 202/202/202 201/201/201
f 202/202/202 203/203/203 204/204/204
f 205/205/205 204/204/204 203/203/203
f 204/204/204 205/205/205 206/206/206
f 207/207/207 206/206/206 205/205/205
f 206/206/206 207/207/207 208/208/208
f 209/209/209 208/208/208 207/207/207
f 208/208/208 209/209/209 210/210/210
f 211/211/211 210/210/210 209/209/209
f 210/210/210 211/211/211 212/212/212
f 213/213/213 212/212/212 211/211/211
f 212/212/212 213/213/213 214/214/214
f 215/215/215 214/214/214 213/213/213
f 214/214/214 215/215/215 216/216/216
f 217/217/217 216/216/216 215/215/215
f 216/216/216 217/217/217 218/218/218
f 219/219/219 218/218/218 217/217/217
f 218/218/218 219/219/219 220/220/220
f 221/221/221 220/220/220 219/219/219
f 220/220/220 221/221/221 222/222/222
f 223/223/223 222/222/222 221/221/221
f 222/222/222 223/223/223 224/224/224
f 225/225/225 224/224/224 223/223/223
f 224/224/224 225/225/225 226/226/226
f 227/227/227 226/226/226 225/225/225
f 226/226/226 227/227/227 228/228/228
f 229/229/229 228/228/228 227/227/227
f 228/228/228 229/229/229 230/230/230
f 231/231/231 230/230/230 229/229/229
f 230/230/230 231/231/231 232/232/232
f 233/233/233 232/232/232 231/231/231
f 232/232/232 233/233/233 234/234/234
f 235/235/235 234/234/234 233/233/233
f 234/234/234 235/235/235 236/236/236
f 237/237/237 236/236/236 235/235/235
f 236/236/236 237/237/237 238/238/238
f 239/239/239 238/238/238 237/237/237
f 238/238/238 239/239/239 240/240/240
f 241/241/241 240/240/240 239/239/239
f 240/240/240 241/241/241 242/242/242
f 243/243/243 242/242/242 241/241/241
f 242/242/242 243/243/243 244/244/244
f 245/245/245 244/244/244 243/243/243
f 244/244/244 245/245/245 246/246/246
f 247/247/247 246/246/246 245/245/245
f 246/246/246 247/247/247 248/248/248
f 249/249/249 248/248/248 247/247/247
f 248/248/248 249/249/249 250/250/250
f 251/251/251 250/250/250 249/249/249
f 250/250/250 251/251/251 252/252/252
f 253/253/253 252/252/252 251/251/251
f 252/252/252 253/253/253 254/254/254
f 255/255/255 254/254/254 253/253/253
f 254/254/254 255/255/255 256/256/256
f 257/257/257 256/256/256 255/255/255
f 256/256/256 257/257/257 258/258/258
f 259/259/259 258/258/258 257/257/257
f 258/258/258 259/259/259 260/260/260
f 261/261/261 260/260/260 259/259/259
f 260/260/260 261/261/261 262/262/262
f 263/263/263 262/262/262 261/261/261
f 262/262/262 263/263/263 264/264/264
f 265/265/265 264/264/264 263/263/263
f 264/264/264 265/265/265 266/266/266
f 267/267/267 266/266/266 265/265/265
f 266/266/266 267/267/267 268/268/268
f 269/269/269 268/268/268 267/267/267
f 268/268/268 269/269/269 270/270/270
f 271/271/271 270/270/270 269/269/269
f 270/270/270 271/271/271 272/272/272
f 273/273/273 272/272/272 271/271/271
f 272/272/272 273/273/273 274/274/274
f 275/275/275 274/274/274 273/273/273
f 274/274/274 275/275/275 276/276/276
