g 
v 76.22 64.67245 -3.15
v 76.22 49.04755 -3.15
v 78.38 64.30325 -0.14
v 78.38 49.41676 -0.14
v 81.96 64.30325 6.3
v 81.96 49.41676 6.3
v 84.83 64.30325 14.05
v 84.83 49.41676 14.05
v 87.9 64.30325 25.95
v 87.9 49.41676 25.95
v 89.41 64.30325 31.75
v 89.41 49.41676 31.75
v 90.28 64.30325 43
v 90.28 49.41676 43
v 88.61 64.30325 44.13
v 88.61 49.41676 44.13
v 89.99 64.30325 46.34
v 89.99 49.41676 46.34
v 92.39 64.30325 44.79
v 92.39 49.41676 44.79
v 91.5 63.68324 43.49
v 91.5 48.79676 43.49
v 92.12 63.68324 42.56
v 92.12 48.79676 42.56
v 92.12 63.11324 39.09
v 92.12 48.22676 39.09
v 91.74 61.97324 36.1
v 91.74 47.08676 36.1
v 91.67 61.25324 34.7
v 91.67 46.36676 34.7
v 93.25 61.25324 34.33
v 93.25 46.36676 34.33
v 93.13 60.44324 31.86
v 93.13 45.55676 31.86
v 91.49 60.44324 31.88
v 91.49 45.55676 31.88
v 90.44 60.06324 26.81
v 90.44 45.17676 26.81
v 91.96 60.06324 26.48
v 91.96 45.17676 26.48
v 91.39 60.06324 23.96
v 91.39 45.17676 23.96
v 89.78 60.06324 24.14
v 89.78 45.17676 24.14
v 88.62 59.61324 19.84
v 88.62 44.72676 19.84
v 90.17 59.61324 19.37
v 90.17 44.72676 19.37
v 89.38 59.61324 16.7
v 89.38 44.72676 16.7
v 87.77 59.61324 17.18
v 87.77 44.72676 17.18
v 86.65 59.61324 12.28
v 86.65 44.72676 12.28
v 87.78 59.61324 11.82
v 87.78 44.72676 11.82
v 86.4 59.61324 9.38
v 86.4 44.72676 9.38
v 85.16 59.61324 9.72
v 85.16 44.72676 9.72
v 84.56 59.61324 7.21
v 84.56 44.72676 7.21
v 85.98 59.61324 5.45
v 85.98 44.72676 5.45
v 86.18 59.17324 3.37
v 86.18 44.28676 3.37
v 86.13 59.17324 1.32
v 86.13 44.28676 1.32
v 85.25 59.17324 -0.04
v 85.25 44.28676 -0.04
v 83.89 59.17324 -1.49
v 83.89 44.28676 -1.49
v 81.63 59.17324 -2.23
v 81.63 44.28676 -2.23
v 80.99 59.17324 -2.4
v 80.99 44.28676 -2.4
v 79.25 59.17324 -4.43
v 79.25 44.28676 -4.43
v 78.28 59.17324 -3.61
v 78.28 44.28676 -3.61
v 76.82 59.17324 -5.62
v 76.82 44.28676 -5.62
v 79.18 59.17324 -6.3
v 79.18 44.28676 -6.3
v 81.38 59.17324 -8.6
v 81.38 44.28676 -8.6
v 81.29 59.17324 -12.51
v 81.29 44.28676 -12.51
v 80.41 59.17324 -13.43
v 80.41 44.28676 -13.43
v 77.75 59.17324 -13.47
v 77.75 44.28676 -13.47
v 75.52 59.17324 -15.15
v 75.52 44.28676 -15.15
v 75.2 59.17324 -15.09
v 75.2 44.28676 -15.09
v 75.34 59.17324 -17.04
v 75.34 44.28676 -17.04
v 74.66 59.17324 -18.37
v 74.66 44.28676 -18.37
v 74.52 59.17324 -21.56
v 74.52 44.28676 -21.56
v 75.45 59.17324 -21.94
v 75.45 44.28676 -21.94
v 75.85 59.17324 -23.8
v 75.85 44.28676 -23.8
v 74.93 59.17324 -24.76
v 74.93 44.28676 -24.76
v 73.69 59.17324 -25.12
v 73.69 44.28676 -25.12
v 72.84 59.17324 -24.6
v 72.84 44.28676 -24.6
v 71.97 59.17324 -22.37
v 71.97 44.28676 -22.37
v 70.99 61.50324 -21.64
v 70.99 46.61676 -21.64
v 70.18 62.78324 -19.15
v 70.18 47.89676 -19.15
v 68.43 64.00324 -16.72
v 68.43 49.11676 -16.72
v 67.99 64.00324 -16.39
v 67.99 49.11676 -16.39
v 67.36 64.00324 -16.3
v 67.36 49.11676 -16.3
v 66.5 64.00324 -14.85
v 66.5 49.11676 -14.85
v 69.79 64.00324 -10.98
v 69.79 49.11676 -10.98
v 74.78 64.00324 -4.82
v 74.78 49.11676 -4.82
v 76.22 64.67245 -3.15
v 76.22 49.04755 -3.15
vt -0.7832 -0.1445
vt -0.7832 -0.1445
vt -0.8047999 -0.1144
vt -0.8047999 -0.1144
vt -0.8406 -0.05
vt -0.8406 -0.05
vt -0.8693 0.0275
vt -0.8693 0.0275
vt -0.9 0.1465
vt -0.9 0.1465
vt -0.9151 0.2045
vt -0.9151 0.2045
vt -0.9237999 0.317
vt -0.9237999 0.317
vt -0.9071 0.3283
vt -0.9071 0.3283
vt -0.9208999 0.3504
vt -0.9208999 0.3504
vt -0.9449 0.3349
vt -0.9449 0.3349
vt -0.936 0.3219
vt -0.936 0.3219
vt -0.9422 0.3126
vt -0.9422 0.3126
vt -0.9422 0.2779
vt -0.9422 0.2779
vt -0.9384 0.248
vt -0.9384 0.248
vt -0.9377 0.234
vt -0.9377 0.234
vt -0.9535 0.2303
vt -0.9535 0.2303
vt -0.9523 0.2056
vt -0.9523 0.2056
vt -0.9358999 0.2058
vt -0.9358999 0.2058
vt -0.9254 0.1551
vt -0.9254 0.1551
vt -0.9406 0.1518
vt -0.9406 0.1518
vt -0.9349 0.1266
vt -0.9349 0.1266
vt -0.9187999 0.1284
vt -0.9187999 0.1284
vt -0.9072 0.0854
vt -0.9072 0.0854
vt -0.9226999 0.0807
vt -0.9226999 0.0807
vt -0.9147999 0.05400001
vt -0.9147999 0.05400001
vt -0.8986999 0.0588
vt -0.8986999 0.0588
vt -0.8875 0.009799995
vt -0.8875 0.009799995
vt -0.8988 0.005199995
vt -0.8988 0.005199995
vt -0.885 -0.0192
vt -0.885 -0.0192
vt -0.8726 -0.0158
vt -0.8726 -0.0158
vt -0.8665999 -0.0409
vt -0.8665999 -0.0409
vt -0.8808 -0.0585
vt -0.8808 -0.0585
vt -0.8828 -0.0793
vt -0.8828 -0.0793
vt -0.8823 -0.09980001
vt -0.8823 -0.09980001
vt -0.8735 -0.1134
vt -0.8735 -0.1134
vt -0.8598999 -0.1279
vt -0.8598999 -0.1279
vt -0.8372999 -0.1353
vt -0.8372999 -0.1353
vt -0.8309 -0.137
vt -0.8309 -0.137
vt -0.8135 -0.1573
vt -0.8135 -0.1573
vt -0.8037999 -0.1491
vt -0.8037999 -0.1491
vt -0.7891999 -0.1692
vt -0.7891999 -0.1692
vt -0.8128 -0.176
vt -0.8128 -0.176
vt -0.8347999 -0.199
vt -0.8347999 -0.199
vt -0.8339 -0.2381
vt -0.8339 -0.2381
vt -0.8251 -0.2473
vt -0.8251 -0.2473
vt -0.7984999 -0.2477
vt -0.7984999 -0.2477
vt -0.7761999 -0.2645
vt -0.7761999 -0.2645
vt -0.7729999 -0.2639
vt -0.7729999 -0.2639
vt -0.7743999 -0.2834
vt -0.7743999 -0.2834
vt -0.7676 -0.2967
vt -0.7676 -0.2967
vt -0.7661999 -0.3286
vt -0.7661999 -0.3286
vt -0.7754999 -0.3324
vt -0.7754999 -0.3324
vt -0.7794999 -0.351
vt -0.7794999 -0.351
vt -0.7703 -0.3606
vt -0.7703 -0.3606
vt -0.7579 -0.3642
vt -0.7579 -0.3642
vt -0.7494 -0.359
vt -0.7494 -0.359
vt -0.7407 -0.3367
vt -0.7407 -0.3367
vt -0.7308999 -0.3294
vt -0.7308999 -0.3294
vt -0.7228 -0.3045
vt -0.7228 -0.3045
vt -0.7053 -0.2802
vt -0.7053 -0.2802
vt -0.7009 -0.2769
vt -0.7009 -0.2769
vt -0.6946 -0.276
vt -0.6946 -0.276
vt -0.686 -0.2615
vt -0.686 -0.2615
vt -0.7189 -0.2228
vt -0.7189 -0.2228
vt -0.7688 -0.1612
vt -0.7688 -0.1612
vt -0.7832 -0.1445
vt -0.7832 -0.1445
vn -0.8124554 0 0.5830234
vn -0.8124554 0 0.5830234
vn -0.8740291 0 0.4858736
vn -0.8740291 0 0.4858736
vn -0.9377632 0 0.3472752
vn -0.9377632 0 0.3472752
vn -0.9682964 0 0.2498042
vn -0.9682964 0 0.2498042
vn -0.9677411 0 0.2519468
vn -0.9677411 0 0.2519468
vn -0.9970232 0 0.07710269
vn -0.9970232 0 0.07710269
vn -0.5604102 0 -0.8282152
vn -0.5604102 0 -0.8282152
vn -0.8482142 0 0.5296533
vn -0.8482142 0 0.5296533
vn 0.542525 0 0.8400397
vn 0.542525 0 0.8400397
vn 0.8251516 0 -0.5649114
vn 0.8251515 0 -0.5649114
vn 0.8320493 0 0.5547018
vn 0.8320493 0 0.5547018
vn 1 0 0
vn 1 0 0
vn 0.9920204 0 -0.1260777
vn 0.9920204 0 -0.1260777
vn 0.9987524 0 -0.04993748
vn 0.9987524 0 -0.04993748
vn 0.2280079 0 0.9736593
vn 0.2280079 0 0.9736593
vn 0.9988219 0 -0.04852685
vn 0.9988219 0 -0.04852685
vn -0.01219334 0 -0.9999256
vn -0.01219334 0 -0.9999256
vn 0.9792209 0 -0.2027964
vn 0.9792209 0 -0.2027964
vn 0.2121631 0 0.9772342
vn 0.2121631 0 0.9772342
vn 0.9753605 0 -0.2206171
vn 0.9753605 0 -0.2206171
vn -0.1111091 0 -0.9938082
vn -0.1111091 0 -0.9938082
vn 0.9654858 0 -0.2604558
vn 0.9654858 0 -0.2604558
vn 0.2901792 0 0.9569724
vn 0.2901792 0 0.9569724
vn 0.9589066 0 -0.2837217
vn 0.9589066 0 -0.2837217
vn -0.2857089 0 -0.9583165
vn -0.2857089 0 -0.9583165
vn 0.9748587 0 -0.2228238
vn 0.9748587 0 -0.2228238
vn 0.3770373 0 0.9261981
vn 0.3770373 0 0.9261981
vn 0.8704303 0 -0.4922917
vn 0.8704303 0 -0.4922917
vn -0.2644339 0 -0.9644038
vn -0.2644339 0 -0.9644038
vn 0.9725975 0 -0.2324958
vn 0.9725975 0 -0.2324958
vn 0.7782724 0 0.6279268
vn 0.7782724 0 0.6279268
vn 0.9954092 0 0.09571096
vn 0.9954092 0 0.09571096
vn 0.9997026 0 -0.02438448
vn 0.9997026 0 -0.02438448
vn 0.8395709 0 -0.54325
vn 0.8395709 0 -0.54325
vn 0.7293802 0 -0.6841086
vn 0.7293802 0 -0.6841086
vn 0.3111769 0 -0.950352
vn 0.3111769 0 -0.950352
vn 0.2567229 0 -0.966485
vn 0.2567229 0 -0.966485
vn 0.759257 0 -0.6507909
vn 0.759257 0 -0.6507909
vn -0.6455888 0 -0.7636853
vn -0.6455888 0 -0.7636853
vn 0.8090842 0 -0.5876927
vn 0.8090842 0 -0.5876927
vn 0.2768715 0 0.9609069
vn 0.2768715 0 0.9609069
vn 0.7226424 0 0.6912221
vn 0.7226424 0 0.6912221
vn 0.9997352 0 -0.02301087
vn 0.9997352 0 -0.02301087
vn 0.722643 0 -0.6912215
vn 0.722643 0 -0.6912215
vn 0.01503586 0 -0.9998869
vn 0.01503586 0 -0.9998869
vn 0.6017171 0 -0.7987093
vn 0.6017171 0 -0.7987093
vn -0.1842871 0 -0.9828725
vn -0.1842871 0 -0.9828725
vn 0.9974327 0 0.07161021
vn 0.9974327 0 0.07161021
vn 0.8903764 0 -0.4552251
vn 0.8903764 0 -0.4552251
vn 0.9990383 0 -0.04384716
vn 0.9990383 0 -0.04384716
vn 0.378246 0 0.9257051
vn 0.378246 0 0.9257051
vn 0.9776481 0 0.2102479
vn 0.9776481 0 0.2102479
vn 0.7219892 0 -0.6919043
vn 0.7219892 0 -0.6919043
vn 0.2788111 0 -0.9603459
vn 0.2788111 0 -0.9603459
vn -0.5218535 0 -0.8530352
vn -0.5218535 0 -0.8530352
vn -0.9316127 0 -0.3634523
vn -0.9316127 0 -0.3634523
vn -0.5973776 0 -0.8019601
vn -0.5973776 0 -0.8019601
vn -0.9509501 0 -0.3093443
vn -0.9509501 0 -0.3093443
vn -0.811471 0 -0.5843926
vn -0.811471 0 -0.5843926
vn -0.5999978 0 -0.8000017
vn -0.5999978 0 -0.8000017
vn -0.1414222 0 -0.9899494
vn -0.1414222 0 -0.9899494
vn -0.8600985 0 -0.5101281
vn -0.8600985 0 -0.5101281
vn -0.7618908 0 0.6477056
vn -0.7618908 0 0.6477056
vn -0.7770393 0 0.6294521
vn -0.7770393 0 0.6294521
vn -0.7573321 0 0.65303
vn -0.7573321 0 0.65303
vn -0.7573321 0 0.65303
vn -0.7573321 0 0.65303
g _0
f 1/1/1 2/2/2 3/3/3
f 4/4/4 3/3/3 2/2/2
f 3/3/3 4/4/4 5/5/5
f 6/6/6 5/5/5 4/4/4
f 5/5/5 6/6/6 7/7/7
f 8/8/8 7/7/7 6/6/6
f 7/7/7 8/8/8 9/9/9
f 10/10/10 9/9/9 8/8/8
f 9/9/9 10/10/10 11/11/11
f 12/12/12 11/11/11 10/10/10
f 11/11/11 12/12/12 13/13/13
f 14/14/14 13/13/13 12/12/12
f 13/13/13 14/14/14 15/15/15
f 16/16/16 15/15/15 14/14/14
f 15/15/15 16/16/16 17/17/17
f 18/18/18 17/17/17 16/16/16
f 17/17/17 18/18/18 19/19/19
f 20/20/20 19/19/19 18/18/18
f 19/19/19 20/20/20 21/21/21
f 22/22/22 21/21/21 20/20/20
f 21/21/21 22/22/22 23/23/23
f 24/24/24 23/23/23 22/22/22
f 23/23/23 24/24/24 25/25/25
f 26/26/26 25/25/25 24/24/24
f 25/25/25 26/26/26 27/27/27
f 28/28/28 27/27/27 26/26/26
f 27/27/27 28/28/28 29/29/29
f 30/30/30 29/29/29 28/28/28
f 29/29/29 30/30/30 31/31/31
f 32/32/32 31/31/31 30/30/30
f 31/31/31 32/32/32 33/33/33
f 34/34/34 33/33/33 32/32/32
f 33/33/33 34/34/34 35/35/35
f 36/36/36 35/35/35 34/34/34
f 35/35/35 36/36/36 37/37/37
f 38/38/38 37/37/37 36/36/36
f 37/37/37 38/38/38 39/39/39
f 40/40/40 39/39/39 38/38/38
f 39/39/39 40/40/40 41/41/41
f 42/42/42 41/41/41 40/40/40
f 41/41/41 42/42/42 43/43/43
f 44/44/44 43/43/43 42/42/42
f 43/43/43 44/44/44 45/45/45
f 46/46/46 45/45/45 44/44/44
f 45/45/45 46/46/46 47/47/47
f 48/48/48 47/47/47 46/46/46
f 47/47/47 48/48/48 49/49/49
f 50/50/50 49/49/49 48/48/48
f 49/49/49 50/50/50 51/51/51
f 52/52/52 51/51/51 50/50/50
f 51/51/51 52/52/52 53/53/53
f 54/54/54 53/53/53 52/52/52
f 53/53/53 54/54/54 55/55/55
f 56/56/56 55/55/55 54/54/54
f 55/55/55 56/56/56 57/57/57
f 58/58/58 57/57/57 56/56/56
f 57/57/57 58/58/58 59/59/59
f 60/60/60 59/59/59 58/58/58
f 59/59/59 60/60/60 61/61/61
f 62/62/62 61/61/61 60/60/60
f 61/61/61 62/62/62 63/63/63
f 64/64/64 63/63/63 62/62/62
f 63/63/63 64/64/64 65/65/65
f 66/66/66 65/65/65 64/64/64
f 65/65/65 66/66/66 67/67/67
f 68/68/68 67/67/67 66/66/66
f 67/67/67 68/68/68 69/69/69
f 70/70/70 69/69/69 68/68/68
f 69/69/69 70/70/70 71/71/71
f 72/72/72 71/71/71 70/70/70
f 71/71/71 72/72/72 73/73/73
f 74/74/74 73/73/73 72/72/72
f 73/73/73 74/74/74 75/75/75
f 76/76/76 75/75/75 74/74/74
f 75/75/75 76/76/76 77/77/77
f 78/78/78 77/77/77 76/76/76
f 77/77/77 78/78/78 79/79/79
f 80/80/80 79/79/79 78/78/78
f 79/79/79 80/80/80 81/81/81
f 82/82/82 81/81/81 80/80/80
f 81/81/81 82/82/82 83/83/83
f 84/84/84 83/83/83 82/82/82
f 83/83/83 84/84/84 85/85/85
f 86/86/86 85/85/85 84/84/84
f 85/85/85 86/86/86 87/87/87
f 88/88/88 87/87/87 86/86/86
f 87/87/87 88/88/88 89/89/89
f 90/90/90 89/89/89 88/88/88
f 89/89/89 90/90/90 91/91/91
f 92/92/92 91/91/91 90/90/90
f 91/91/91 92/92/92 93/93/93
f 94/94/94 93/93/93 92/92/92
f 93/93/93 94/94/94 95/95/95
f 96/96/96 95/95/95 94/94/94
f 95/95/95 96/96/96 97/97/97
f 98/98/98 97/97/97 96/96/96
f 97/97/97 98/98/98 99/99/99
f 100/100/100 99/99/99 98/98/98
f 99/99/99 100/100/100 101/101/101
f 102/102/102 101/101/101 100/100/100
f 101/101/101 102/102/102 103/103/103
f 104/104/104 103/103/103 102/102/102
f 103/103/103 104/104/104 105/105/105
f 106/106/106 105/105/105 104/104/104
f 105/105/105 106/106/106 107/107/107
f 108/108/108 107/107/107 106/106/106
f 107/107/107 108/108/108 109/109/109
f 110/110/110 109/109/109 108/108/108
f 109/109/109 110/110/110 111/111/111
f 112/112/112 111/111/111 110/110/110
f 111/111/111 112/112/112 113/113/113
f 114/114/114 113/113/113 112/112/112
f 113/113/113 114/114/114 115/115/115
f 116/116/116 115/115/115 114/114/114
f 115/115/115 116/116/116 117/117/117
f 118/118/118 117/117/117 116/116/116
f 117/117/117 118/118/118 119/119/119
f 120/120/120 119/119/119 118/118/118
f 119/119/119 120/120/120 121/121/121
f 122/122/122 121/121/121 120/120/120
f 121/121/121 122/122/122 123/123/123
f 124/124/124 123/123/123 122/122/122
f 123/123/123 124/124/124 125/125/125
f 126/126/126 125/125/125 124/124/124
f 125/125/125 126/126/126 127/127/127
f 128/128/128 127/127/127 126/126/126
f 127/127/127 128/128/128 129/129/129
f 130/130/130 129/129/129 128/128/128
f 129/129/129 130/130/130 131/131/131
f 132/132/132 131/131/131 130/130/130
