g 
v 10.80799 18.571 -77.82536
v 8.733745 18.571 -77.85787
v 11.61742 18.571 -78.3571
v 7.941379 18.571 -78.41473
v 12.07605 18.571 -79.66432
v 7.523953 18.571 -79.73568
v 12.12761 18.539 -80.26966
v 7.491386 18.539 -80.34234
v 11.70247 18.539 -81.61502
v 7.958487 18.539 -81.67371
v 10.89546 18.539 -82.18217
v 8.782877 18.539 -82.21529
v 10.80799 18.571 -77.82536
v 10.80799 -11.429 -77.82536
v 11.61742 18.571 -78.3571
v 11.61742 -11.429 -78.3571
v 11.61742 18.571 -78.3571
v 11.61742 -11.429 -78.3571
v 12.07605 18.571 -79.66432
v 12.07605 -11.429 -79.66432
v 12.07605 18.571 -79.66432
v 12.07605 -11.429 -79.66432
v 12.12761 18.539 -80.26966
v 12.12761 -11.461 -80.26966
v 12.12761 18.539 -80.26966
v 12.12761 -11.461 -80.26966
v 11.70247 18.539 -81.61502
v 11.70247 -11.461 -81.61502
v 11.70247 18.539 -81.61502
v 11.70247 -11.461 -81.61502
v 10.89546 18.539 -82.18217
v 10.89546 -11.461 -82.18217
v 8.733745 18.571 -77.85787
v 8.733745 -11.429 -77.85787
v 7.941379 18.571 -78.41473
v 7.941379 -11.429 -78.41473
v 7.941379 18.571 -78.41473
v 7.941379 -11.429 -78.41473
v 7.523953 18.571 -79.73568
v 7.523953 -11.429 -79.73568
v 7.523953 18.571 -79.73568
v 7.523953 -11.429 -79.73568
v 7.491386 18.539 -80.34234
v 7.491386 -11.461 -80.34234
v 7.491386 18.539 -80.34234
v 7.491386 -11.461 -80.34234
v 7.958487 18.539 -81.67371
v 7.958487 -11.461 -81.67371
v 7.958487 18.539 -81.67371
v 7.958487 -11.461 -81.67371
v 8.782877 18.539 -82.21529
v 8.782877 -11.461 -82.21529
vt -0.1272175 0.07535619
vt -0.1287368 0.0767687
vt -0.1262602 0.07520947
vt -0.1289528 0.07771278
vt -0.1250445 0.07587372
vt -0.1283788 0.07897359
vt -0.124601 0.07628895
vt -0.1279969 0.07944611
vt -0.1240164 0.07757306
vt -0.1267588 0.08012263
vt -0.1242364 0.0785346
vt -0.1257838 0.07997321
vt -0.1272175 0.07535619
vt -0.1272175 0.07535619
vt -0.1262602 0.07520947
vt -0.1262602 0.07520947
vt -0.1262602 0.07520947
vt -0.1262602 0.07520947
vt -0.1250445 0.07587372
vt -0.1250445 0.07587372
vt -0.1250445 0.07587372
vt -0.1250445 0.07587372
vt -0.124601 0.07628895
vt -0.124601 0.07628895
vt -0.124601 0.07628895
vt -0.124601 0.07628895
vt -0.1240164 0.07757306
vt -0.1240164 0.07757306
vt -0.1240164 0.07757306
vt -0.1240164 0.07757306
vt -0.1242364 0.0785346
vt -0.1242364 0.0785346
vt -0.1287368 0.0767687
vt -0.1287368 0.0767687
vt -0.1289528 0.07771278
vt -0.1289528 0.07771278
vt -0.1289528 0.07771278
vt -0.1289528 0.07771278
vt -0.1283788 0.07897359
vt -0.1283788 0.07897359
vt -0.1283788 0.07897359
vt -0.1283788 0.07897359
vt -0.1279969 0.07944611
vt -0.1279969 0.07944611
vt -0.1279969 0.07944611
vt -0.1279969 0.07944611
vt -0.1267588 0.08012263
vt -0.1267588 0.08012263
vt -0.1267588 0.08012263
vt -0.1267588 0.08012263
vt -0.1257838 0.07997321
vt -0.1257838 0.07997321
vn 0 1 0
vn 0 1 0
vn 0 1 0
vn 0 1 0
vn 0 1 0
vn 0 1 0
vn 0 1 0
vn 0 1 0
vn 0 1 0
vn 0 1 0
vn 0 1 0
vn 0 1 0
vn -0.01567435 0 0.9998772
vn -0.01567435 0 0.9998772
vn 0.5490587 0 0.8357838
vn 0.5490587 0 0.8357838
vn 0.9436108 0 0.3310568
vn 0.9436108 0 0.3310568
vn 0.9436108 0 0.3310568
vn 0.9436108 0 0.3310568
vn 0.9963915 0 0.08487656
vn 0.9963915 0 0.08487656
vn 0.9963915 0 0.08487656
vn 0.9963915 0 0.08487656
vn 0.9535236 0 -0.3013182
vn 0.9535236 0 -0.3013182
vn 0.9535236 0 -0.3013182
vn 0.9535236 0 -0.3013182
vn 0.5749899 0 -0.8181605
vn 0.5749899 0 -0.8181605
vn 0.01567156 0 -0.9998772
vn 0.01567156 0 -0.9998772
vn -0.01567435 0 0.9998772
vn -0.01567435 0 0.9998772
vn -0.5749901 0 0.8181604
vn -0.5749901 0 0.8181604
vn -0.9535235 0 0.3013187
vn -0.9535235 0 0.3013187
vn -0.9535235 0 0.3013187
vn -0.9535235 0 0.3013187
vn -0.9985622 0 0.05360541
vn -0.9985622 0 0.05360541
vn -0.9985622 0 0.05360541
vn -0.9985622 0 0.05360541
vn -0.9436101 0 -0.3310591
vn -0.9436101 0 -0.3310591
vn -0.9436101 0 -0.3310591
vn -0.9436101 0 -0.3310591
vn -0.5490634 0 -0.8357807
vn -0.5490634 0 -0.8357807
vn 0.01567156 0 -0.9998772
vn 0.01567156 0 -0.9998772
g _0
f 3/3/3 2/2/2 1/1/1
f 2/2/2 3/3/3 4/4/4
f 5/5/5 4/4/4 3/3/3
f 4/4/4 5/5/5 6/6/6
f 7/7/7 6/6/6 5/5/5
f 6/6/6 7/7/7 8/8/8
f 9/9/9 8/8/8 7/7/7
f 8/8/8 9/9/9 10/10/10
f 11/11/11 10/10/10 9/9/9
f 10/10/10 11/11/11 12/12/12
g _1
f 13/13/13 14/14/14 15/15/15
f 16/16/16 15/15/15 14/14/14
f 17/17/17 18/18/18 19/19/19
f 20/20/20 19/19/19 18/18/18
f 21/21/21 22/22/22 23/23/23
f 24/24/24 23/23/23 22/22/22
f 25/25/25 26/26/26 27/27/27
f 28/28/28 27/27/27 26/26/26
f 29/29/29 30/30/30 31/31/31
f 32/32/32 31/31/31 30/30/30
f 35/35/35 34/34/34 33/33/33
f 34/34/34 35/35/35 36/36/36
f 39/39/39 38/38/38 37/37/37
f 38/38/38 39/39/39 40/40/40
f 43/43/43 42/42/42 41/41/41
f 42/42/42 43/43/43 44/44/44
f 47/47/47 46/46/46 45/45/45
f 46/46/46 47/47/47 48/48/48
f 51/51/51 50/50/50 49/49/49
f 50/50/50 51/51/51 52/52/52
f 33/33/33 14/14/14 13/13/13
f 14/14/14 33/33/33 34/34/34
f 31/31/31 32/32/32 51/51/51
f 52/52/52 51/51/51 32/32/32
