g 
v -25.95641 13.48 -10.15809
v -24.52753 13.48 13.39448
v -32.82839 13.48 -19.45359
v -30.22538 13.48 23.45255
v -48.30183 13.48 -23.48332
v -45.09818 13.48 29.32332
v -54.36932 13.84 -23.38417
v -56.10342 13.84 30.25993
v -59.81125 14.18584 -23.74049
v -69.34369 14.18584 28.42467
v -67.23505 14.04424 -25.11757
v -81.26921 14.04424 25.04362
v -75.4683 13.80556 -28.335
v -92.06322 13.80556 22.28213
v -85.09236 13.60328 -31.34785
v -101.3443 13.60328 18.8377
v -97.20241 13.49 -34.47392
v -108.1401 13.49 16.17648
v -108.6555 13.49 -31.39182
v -115.7628 13.49 10.67969
v -116.5885 13.49 -25.77792
v -126.1569 13.49 1.161908
v -125.1973 13.49 -25.09054
v -134.971 13.49 -8.319137
v -131.6573 12.45329 -27.65707
v -144.7629 12.45329 -16.58315
v -133.3947 9.973168 -32.29953
v -150.1094 9.973168 -28.72721
v -133.3942 8.369074 -40.13232
v -150.5682 8.369074 -39.39762
v -134.3813 4.67 -46.70933
v -150.6708 4.67 -50.50285
v -131.4512 0.9709259 -51.3876
v -144.9035 0.9709259 -60.81031
v -126.5962 0.3940742 -55.26641
v -138.3236 0.3940742 -70.6876
v -119.8982 0.3394446 -55.06136
v -128.5916 0.3394446 -78.32703
v -112.2584 0.3200002 -56.37845
v -118.3652 0.3200002 -82.39064
v -103.7388 0.3200002 -56.28498
v -108.5807 0.3200002 -85.59505
v -103.4484 0.3200002 -55.98923
v -107.0117 0.3200002 -86.11077
v -95.22554 0.3200002 -59.95355
v -98.09083 0.3200002 -84.1745
v -92.31504 0.3200002 -65.78419
v -93.90022 0.3200002 -79.18392
v -25.95641 13.48 -10.15809
v -25.95641 -16.52 -10.15809
v -32.82839 13.48 -19.45359
v -32.82839 -16.52 -19.45359
v -32.82839 13.48 -19.45359
v -32.82839 -16.52 -19.45359
v -48.30183 13.48 -23.48332
v -48.30183 -16.52 -23.48332
v -48.30183 13.48 -23.48332
v -48.30183 -16.52 -23.48332
v -54.36932 13.84 -23.38417
v -54.36932 -16.16 -23.38417
v -54.36932 13.84 -23.38417
v -54.36932 -16.16 -23.38417
v -59.81125 14.18584 -23.74049
v -59.81125 -15.81416 -23.74049
v -59.81125 14.18584 -23.74049
v -59.81125 -15.81416 -23.74049
v -67.23505 14.04424 -25.11757
v -67.23505 -15.95576 -25.11757
v -67.23505 14.04424 -25.11757
v -67.23505 -15.95576 -25.11757
v -75.4683 13.80556 -28.335
v -75.4683 -16.19444 -28.335
v -75.4683 13.80556 -28.335
v -75.4683 -16.19444 -28.335
v -85.09236 13.60328 -31.34785
v -85.09236 -16.39672 -31.34785
v -85.09236 13.60328 -31.34785
v -85.09236 -16.39672 -31.34785
v -97.20241 13.49 -34.47392
v -97.20241 -16.51 -34.47392
v -97.20241 13.49 -34.47392
v -97.20241 -16.51 -34.47392
v -108.6555 13.49 -31.39182
v -108.6555 -16.51 -31.39182
v -108.6555 13.49 -31.39182
v -108.6555 -16.51 -31.39182
v -116.5885 13.49 -25.77792
v -116.5885 -16.51 -25.77792
v -116.5885 13.49 -25.77792
v -116.5885 -16.51 -25.77792
v -125.1973 13.49 -25.09054
v -125.1973 -16.51 -25.09054
v -125.1973 13.49 -25.09054
v -125.1973 -16.51 -25.09054
v -131.6573 12.45329 -27.65707
v -131.6573 -17.54671 -27.65707
v -131.6573 12.45329 -27.65707
v -131.6573 -17.54671 -27.65707
v -133.3947 9.973168 -32.29953
v -133.3947 -20.02683 -32.29953
v -133.3947 9.973168 -32.29953
v -133.3947 -20.02683 -32.29953
v -133.3942 8.369074 -40.13232
v -133.3942 -21.63093 -40.13232
v -133.3942 8.369074 -40.13232
v -133.3942 -21.63093 -40.13232
v -134.3813 4.67 -46.70933
v -134.3813 -25.33 -46.70933
v -134.3813 4.67 -46.70933
v -134.3813 -25.33 -46.70933
v -131.4512 0.9709259 -51.3876
v -131.4512 -29.02907 -51.3876
v -131.4512 0.9709259 -51.3876
v -131.4512 -29.02907 -51.3876
v -126.5962 0.3940742 -55.26641
v -126.5962 -29.60593 -55.26641
v -126.5962 0.3940742 -55.26641
v -126.5962 -29.60593 -55.26641
v -119.8982 0.3394446 -55.06136
v -119.8982 -29.66055 -55.06136
v -119.8982 0.3394446 -55.06136
v -119.8982 -29.66055 -55.06136
v -112.2584 0.3200002 -56.37845
v -112.2584 -29.68 -56.37845
v -112.2584 0.3200002 -56.37845
v -112.2584 -29.68 -56.37845
v -103.7388 0.3200002 -56.28498
v -103.7388 -29.68 -56.28498
v -103.7388 0.3200002 -56.28498
v -103.7388 -29.68 -56.28498
v -103.4484 0.3200002 -55.98923
v -103.4484 -29.68 -55.98923
v -103.4484 0.3200002 -55.98923
v -103.4484 -29.68 -55.98923
v -95.22554 0.3200002 -59.95355
v -95.22554 -29.68 -59.95355
v -95.22554 0.3200002 -59.95355
v -95.22554 -29.68 -59.95355
v -92.31504 0.3200002 -65.78419
v -92.31504 -29.68 -65.78419
v -24.52753 13.48 13.39448
v -24.52753 -16.52 13.39448
v -30.22538 13.48 23.45255
v -30.22538 -16.52 23.45255
v -30.22538 13.48 23.45255
v -30.22538 -16.52 23.45255
v -45.09818 13.48 29.32332
v -45.09818 -16.52 29.32332
v -45.09818 13.48 29.32332
v -45.09818 -16.52 29.32332
v -56.10342 13.84 30.25993
v -56.10342 -16.16 30.25993
v -56.10342 13.84 30.25993
v -56.10342 -16.16 30.25993
v -69.34369 14.18584 28.42467
v -69.34369 -15.81416 28.42467
v -69.34369 14.18584 28.42467
v -69.34369 -15.81416 28.42467
v -81.26921 14.04424 25.04362
v -81.26921 -15.95576 25.04362
v -81.26921 14.04424 25.04362
v -81.26921 -15.95576 25.04362
v -92.06322 13.80556 22.28213
v -92.06322 -16.19444 22.28213
v -92.06322 13.80556 22.28213
v -92.06322 -16.19444 22.28213
v -101.3443 13.60328 18.8377
v -101.3443 -16.39672 18.8377
v -101.3443 13.60328 18.8377
v -101.3443 -16.39672 18.8377
v -108.1401 13.49 16.17648
v -108.1401 -16.51 16.17648
v -108.1401 13.49 16.17648
v -108.1401 -16.51 16.17648
v -115.7628 13.49 10.67969
v -115.7628 -16.51 10.67969
v -115.7628 13.49 10.67969
v -115.7628 -16.51 10.67969
v -126.1569 13.49 1.161908
v -126.1569 -16.51 1.161908
v -126.1569 13.49 1.161908
v -126.1569 -16.51 1.161908
v -134.971 13.49 -8.319137
v -134.971 -16.51 -8.319137
v -134.971 13.49 -8.319137
v -134.971 -16.51 -8.319137
v -144.7629 12.45329 -16.58315
v -144.7629 -17.54671 -16.58315
v -144.7629 12.45329 -16.58315
v -144.7629 -17.54671 -16.58315
v -150.1094 9.973168 -28.72721
v -150.1094 -20.02683 -28.72721
v -150.1094 9.973168 -28.72721
v -150.1094 -20.02683 -28.72721
v -150.5682 8.369074 -39.39762
v -150.5682 -21.63093 -39.39762
v -150.5682 8.369074 -39.39762
v -150.5682 -21.63093 -39.39762
v -150.6708 4.67 -50.50285
v -150.6708 -25.33 -50.50285
v -150.6708 4.67 -50.50285
v -150.6708 -25.33 -50.50285
v -144.9035 0.9709259 -60.81031
v -144.9035 -29.02907 -60.81031
v -144.9035 0.9709259 -60.81031
v -144.9035 -29.02907 -60.81031
v -138.3236 0.3940742 -70.6876
v -138.3236 -29.60593 -70.6876
v -138.3236 0.3940742 -70.6876
v -138.3236 -29.60593 -70.6876
v -128.5916 0.3394446 -78.32703
v -128.5916 -29.66055 -78.32703
v -128.5916 0.3394446 -78.32703
v -128.5916 -29.66055 -78.32703
v -118.3652 0.3200002 -82.39064
v -118.3652 -29.68 -82.39064
v -118.3652 0.3200002 -82.39064
v -118.3652 -29.68 -82.39064
v -108.5807 0.3200002 -85.59505
v -108.5807 -29.68 -85.59505
v -108.5807 0.3200002 -85.59505
v -108.5807 -29.68 -85.59505
v -107.0117 0.3200002 -86.11077
v -107.0117 -29.68 -86.11077
v -107.0117 0.3200002 -86.11077
v -107.0117 -29.68 -86.11077
v -98.09083 0.3200002 -84.1745
v -98.09083 -29.68 -84.1745
v -98.09083 0.3200002 -84.1745
v -98.09083 -29.68 -84.1745
v -93.90022 0.3200002 -79.18392
v -93.90022 -29.68 -79.18392
vt 0.02784124 -0.00133701
vt 0.01896567 0.02052597
vt 0.0373219 -0.007951197
vt 0.02115311 0.03187697
vt 0.05327199 -0.006828478
vt 0.0333723 0.04218996
vt 0.05899011 -0.004796867
vt 0.04350216 0.04659204
vt 0.06426088 -0.003396651
vt 0.05663523 0.04908117
vt 0.0717357 -0.002330838
vt 0.06901603 0.04968557
vt 0.08056533 -0.002750499
vt 0.08012671 0.05051574
vt 0.09064759 -0.002532148
vt 0.09002174 0.05021558
vt 0.1031218 -0.001627189
vt 0.09731165 0.04986397
vt 0.112991 0.004951074
vt 0.1062905 0.0470893
vt 0.1187157 0.0128044
vt 0.1191799 0.04138924
vt 0.1266543 0.01620502
vt 0.1305602 0.03521943
vt 0.1335956 0.01583588
vt 0.1424785 0.03051519
vt 0.1367246 0.01199136
vt 0.1514232 0.02071444
vt 0.1392255 0.004568555
vt 0.1552656 0.0107493
vt 0.1422613 -0.001348837
vt 0.1589093 0.0002583332
vt 0.1409786 -0.006717864
vt 0.1567357 -0.01135119
vt 0.1376166 -0.01194401
vt 0.1536546 -0.02281257
vt 0.1312038 -0.01388873
vt 0.1468719 -0.03315989
vt 0.1243846 -0.01757661
vt 0.1384787 -0.04027649
vt 0.1162813 -0.02020876
vt 0.1302298 -0.04643782
vt 0.1159116 -0.02002125
vt 0.1289077 -0.04742759
vt 0.1093854 -0.02640394
vt 0.1198356 -0.04844158
vt 0.1084893 -0.03285873
vt 0.1142707 -0.04505059
vt 0.02784124 -0.00133701
vt 0.02784124 -0.00133701
vt 0.0373219 -0.007951197
vt 0.0373219 -0.007951197
vt 0.0373219 -0.007951197
vt 0.0373219 -0.007951197
vt 0.05327199 -0.006828478
vt 0.05327199 -0.006828478
vt 0.05327199 -0.006828478
vt 0.05327199 -0.006828478
vt 0.05899011 -0.004796867
vt 0.05899011 -0.004796867
vt 0.05899011 -0.004796867
vt 0.05899011 -0.004796867
vt 0.06426088 -0.003396651
vt 0.06426088 -0.003396651
vt 0.06426088 -0.003396651
vt 0.06426088 -0.003396651
vt 0.0717357 -0.002330838
vt 0.0717357 -0.002330838
vt 0.0717357 -0.002330838
vt 0.0717357 -0.002330838
vt 0.08056533 -0.002750499
vt 0.08056533 -0.002750499
vt 0.08056533 -0.002750499
vt 0.08056533 -0.002750499
vt 0.09064759 -0.002532148
vt 0.09064759 -0.002532148
vt 0.09064759 -0.002532148
vt 0.09064759 -0.002532148
vt 0.1031218 -0.001627189
vt 0.1031218 -0.001627189
vt 0.1031218 -0.001627189
vt 0.1031218 -0.001627189
vt 0.112991 0.004951074
vt 0.112991 0.004951074
vt 0.112991 0.004951074
vt 0.112991 0.004951074
vt 0.1187157 0.0128044
vt 0.1187157 0.0128044
vt 0.1187157 0.0128044
vt 0.1187157 0.0128044
vt 0.1266543 0.01620502
vt 0.1266543 0.01620502
vt 0.1266543 0.01620502
vt 0.1266543 0.01620502
vt 0.1335956 0.01583588
vt 0.1335956 0.01583588
vt 0.1335956 0.01583588
vt 0.1335956 0.01583588
vt 0.1367246 0.01199136
vt 0.1367246 0.01199136
vt 0.1367246 0.01199136
vt 0.1367246 0.01199136
vt 0.1392255 0.004568555
vt 0.1392255 0.004568555
vt 0.1392255 0.004568555
vt 0.1392255 0.004568555
vt 0.1422613 -0.001348837
vt 0.1422613 -0.001348837
vt 0.1422613 -0.001348837
vt 0.1422613 -0.001348837
vt 0.1409786 -0.006717864
vt 0.1409786 -0.006717864
vt 0.1409786 -0.006717864
vt 0.1409786 -0.006717864
vt 0.1376166 -0.01194401
vt 0.1376166 -0.01194401
vt 0.1376166 -0.01194401
vt 0.1376166 -0.01194401
vt 0.1312038 -0.01388873
vt 0.1312038 -0.01388873
vt 0.1312038 -0.01388873
vt 0.1312038 -0.01388873
vt 0.1243846 -0.01757661
vt 0.1243846 -0.01757661
vt 0.1243846 -0.01757661
vt 0.1243846 -0.01757661
vt 0.1162813 -0.02020876
vt 0.1162813 -0.02020876
vt 0.1162813 -0.02020876
vt 0.1162813 -0.02020876
vt 0.1159116 -0.02002125
vt 0.1159116 -0.02002125
vt 0.1159116 -0.02002125
vt 0.1159116 -0.02002125
vt 0.1093854 -0.02640394
vt 0.1093854 -0.02640394
vt 0.1093854 -0.02640394
vt 0.1093854 -0.02640394
vt 0.1084893 -0.03285873
vt 0.1084893 -0.03285873
vt 0.01896567 0.02052597
vt 0.01896567 0.02052597
vt 0.02115311 0.03187697
vt 0.02115311 0.03187697
vt 0.02115311 0.03187697
vt 0.02115311 0.03187697
vt 0.0333723 0.04218996
vt 0.0333723 0.04218996
vt 0.0333723 0.04218996
vt 0.0333723 0.04218996
vt 0.04350216 0.04659204
vt 0.04350216 0.04659204
vt 0.04350216 0.04659204
vt 0.04350216 0.04659204
vt 0.05663523 0.04908117
vt 0.05663523 0.04908117
vt 0.05663523 0.04908117
vt 0.05663523 0.04908117
vt 0.06901603 0.04968557
vt 0.06901603 0.04968557
vt 0.06901603 0.04968557
vt 0.06901603 0.04968557
vt 0.08012671 0.05051574
vt 0.08012671 0.05051574
vt 0.08012671 0.05051574
vt 0.08012671 0.05051574
vt 0.09002174 0.05021558
vt 0.09002174 0.05021558
vt 0.09002174 0.05021558
vt 0.09002174 0.05021558
vt 0.09731165 0.04986397
vt 0.09731165 0.04986397
vt 0.09731165 0.04986397
vt 0.09731165 0.04986397
vt 0.1062905 0.0470893
vt 0.1062905 0.0470893
vt 0.1062905 0.0470893
vt 0.1062905 0.0470893
vt 0.1191799 0.04138924
vt 0.1191799 0.04138924
vt 0.1191799 0.04138924
vt 0.1191799 0.04138924
vt 0.1305602 0.03521943
vt 0.1305602 0.03521943
vt 0.1305602 0.03521943
vt 0.1305602 0.03521943
vt 0.1424785 0.03051519
vt 0.1424785 0.03051519
vt 0.1424785 0.03051519
vt 0.1424785 0.03051519
vt 0.1514232 0.02071444
vt 0.1514232 0.02071444
vt 0.1514232 0.02071444
vt 0.1514232 0.02071444
vt 0.1552656 0.0107493
vt 0.1552656 0.0107493
vt 0.1552656 0.0107493
vt 0.1552656 0.0107493
vt 0.1589093 0.0002583332
vt 0.1589093 0.0002583332
vt 0.1589093 0.0002583332
vt 0.1589093 0.0002583332
vt 0.1567357 -0.01135119
vt 0.1567357 -0.01135119
vt 0.1567357 -0.01135119
vt 0.1567357 -0.01135119
vt 0.1536546 -0.02281257
vt 0.1536546 -0.02281257
vt 0.1536546 -0.02281257
vt 0.1536546 -0.02281257
vt 0.1468719 -0.03315989
vt 0.1468719 -0.03315989
vt 0.1468719 -0.03315989
vt 0.1468719 -0.03315989
vt 0.1384787 -0.04027649
vt 0.1384787 -0.04027649
vt 0.1384787 -0.04027649
vt 0.1384787 -0.04027649
vt 0.1302298 -0.04643782
vt 0.1302298 -0.04643782
vt 0.1302298 -0.04643782
vt 0.1302298 -0.04643782
vt 0.1289077 -0.04742759
vt 0.1289077 -0.04742759
vt 0.1289077 -0.04742759
vt 0.1289077 -0.04742759
vt 0.1198356 -0.04844158
vt 0.1198356 -0.04844158
vt 0.1198356 -0.04844158
vt 0.1198356 -0.04844158
vt 0.1142707 -0.04505059
vt 0.1142707 -0.04505059
vn 0 1 0
vn 0 1 0
vn 0 1 0
vn 0 1 0
vn 0 1 0
vn 0 1 0
vn 0 1 0
vn 0 1 0
vn 0 1 0
vn 0 1 0
vn 0 1 0
vn 0 1 0
vn 0 1 0
vn 0 1 0
vn 0 1 0
vn 0 1 0
vn 0 1 0
vn 0 1 0
vn 0 1 0
vn 0 1 0
vn 0 1 0
vn 0 1 0
vn 0 1 0
vn 0 1 0
vn 0 1 0
vn 0 1 0
vn 0 1 0
vn 0 1 0
vn 0 1 0
vn 0 1 0
vn 0 1 0
vn 0 1 0
vn 0 1 0
vn 0 1 0
vn 0 1 0
vn 0 1 0
vn 0 1 0
vn 0 1 0
vn 0 1 0
vn 0 1 0
vn 0 1 0
vn 0 1 0
vn 0 1 0
vn 0 1 0
vn 0 1 0
vn 0 1 0
vn 0 1 0
vn 0 1 0
vn 0.9981648 0 -0.06055629
vn 0.9981648 0 -0.06055629
vn 0.8041183 0 -0.5944693
vn 0.8041183 0 -0.5944693
vn 0.2520225 0 -0.9677213
vn 0.2520225 0 -0.9677213
vn 0.2520225 0 -0.9677213
vn 0.2520225 0 -0.9677213
vn -0.01633895 0 -0.9998665
vn -0.01633895 0 -0.9998665
vn -0.01633895 0 -0.9998665
vn -0.01633895 0 -0.9998665
vn 0.06533742 0 -0.9978632
vn 0.06533742 0 -0.9978632
vn 0.06533742 0 -0.9978632
vn 0.06533742 0 -0.9978632
vn 0.1823846 0 -0.9832273
vn 0.1823846 0 -0.9832273
vn 0.1823846 0 -0.9832273
vn 0.1823846 0 -0.9832273
vn 0.3639789 0 -0.9314072
vn 0.3639789 0 -0.9314072
vn 0.3639789 0 -0.9314072
vn 0.3639789 0 -0.9314072
vn 0.2987568 0 -0.9543293
vn 0.2987568 0 -0.9543293
vn 0.2987568 0 -0.9543293
vn 0.2987568 0 -0.9543293
vn 0.2499455 0 -0.9682599
vn 0.2499455 0 -0.9682599
vn 0.2499455 0 -0.9682599
vn 0.2499455 0 -0.9682599
vn -0.2598606 0 -0.9656461
vn -0.2598606 0 -0.9656461
vn -0.2598606 0 -0.9656461
vn -0.2598606 0 -0.9656461
vn -0.5776563 0 -0.8162801
vn -0.5776563 0 -0.8162801
vn -0.5776563 0 -0.8162801
vn -0.5776563 0 -0.8162801
vn -0.07959257 0 -0.9968275
vn -0.07959257 0 -0.9968275
vn -0.07959257 0 -0.9968275
vn -0.07959257 0 -0.9968275
vn 0.3692241 0 -0.9293404
vn 0.3692241 0 -0.9293404
vn 0.3692241 0 -0.9293404
vn 0.3692241 0 -0.9293404
vn 0.9365608 0 -0.3505054
vn 0.9365608 0 -0.3505054
vn 0.9365608 0 -0.3505054
vn 0.9365608 0 -0.3505054
vn 1 0 6.623423E-05
vn 1 0 6.623423E-05
vn 1 0 6.623423E-05
vn 1 0 6.623423E-05
vn 0.9889247 0 -0.1484176
vn 0.9889247 0 -0.1484176
vn 0.9889247 0 -0.1484176
vn 0.9889247 0 -0.1484176
vn 0.8474947 0 0.530804
vn 0.8474947 0 0.530804
vn 0.8474947 0 0.530804
vn 0.8474947 0 0.530804
vn 0.6241867 0 0.7812752
vn 0.6241867 0 0.7812752
vn 0.6241867 0 0.7812752
vn 0.6241867 0 0.7812752
vn -0.03059809 0 0.9995317
vn -0.03059809 0 0.9995317
vn -0.03059809 0 0.9995317
vn -0.03059809 0 0.9995317
vn 0.169893 0 0.9854625
vn 0.169893 0 0.9854625
vn 0.169893 0 0.9854625
vn 0.169893 0 0.9854625
vn -0.01097071 0 0.9999398
vn -0.01097071 0 0.9999398
vn -0.01097071 0 0.9999398
vn -0.01097071 0 0.9999398
vn -0.7134691 0 0.7006867
vn -0.7134691 0 0.7006867
vn -0.7134691 0 0.7006867
vn -0.7134691 0 0.7006867
vn 0.4342768 0 0.9007794
vn 0.4342768 0 0.9007794
vn 0.4342768 0 0.9007794
vn 0.4342768 0 0.9007794
vn 0.8947227 0 0.446622
vn 0.8947227 0 0.446622
vn 0.9930752 0 -0.1174803
vn 0.9930752 0 -0.1174803
vn 0.9981648 0 -0.06055629
vn 0.9981648 0 -0.06055629
vn 0.8700864 0 0.4928991
vn 0.8700864 0 0.4928991
vn 0.3671622 0 0.9301569
vn 0.3671622 0 0.9301569
vn 0.3671622 0 0.9301569
vn 0.3671622 0 0.9301569
vn 0.08479955 0 0.996398
vn 0.08479955 0 0.996398
vn 0.08479955 0 0.996398
vn 0.08479955 0 0.996398
vn -0.1372988 0 0.9905297
vn -0.1372988 0 0.9905297
vn -0.1372988 0 0.9905297
vn -0.1372988 0 0.9905297
vn -0.2727636 0 0.9620811
vn -0.2727636 0 0.9620811
vn -0.2727636 0 0.9620811
vn -0.2727636 0 0.9620811
vn -0.2478528 0 0.9687977
vn -0.2478528 0 0.9687977
vn -0.2478528 0 0.9687977
vn -0.2478528 0 0.9687977
vn -0.3479366 0 0.9375181
vn -0.3479366 0 0.9375181
vn -0.3479366 0 0.9375181
vn -0.3479366 0 0.9375181
vn -0.3646329 0 0.9311513
vn -0.3646329 0 0.9311513
vn -0.3646329 0 0.9311513
vn -0.3646329 0 0.9311513
vn -0.5848984 0 0.8111065
vn -0.5848984 0 0.8111065
vn -0.5848984 0 0.8111065
vn -0.5848984 0 0.8111065
vn -0.6753347 0 0.7375115
vn -0.6753347 0 0.7375115
vn -0.6753347 0 0.7375115
vn -0.6753347 0 0.7375115
vn -0.7323979 0 0.6808769
vn -0.7323979 0 0.6808769
vn -0.7323979 0 0.6808769
vn -0.7323979 0 0.6808769
vn -0.6449661 0 0.7642112
vn -0.6449661 0 0.7642112
vn -0.6449661 0 0.7642112
vn -0.6449661 0 0.7642112
vn -0.9152285 0 0.4029351
vn -0.9152285 0 0.4029351
vn -0.9152285 0 0.4029351
vn -0.9152285 0 0.4029351
vn -0.9990767 0 0.04296353
vn -0.9990767 0 0.04296353
vn -0.9990767 0 0.04296353
vn -0.9990767 0 0.04296353
vn -0.9999573 0 0.009237128
vn -0.9999573 0 0.009237128
vn -0.9999573 0 0.009237128
vn -0.9999573 0 0.009237128
vn -0.8726813 0 -0.4882903
vn -0.8726813 0 -0.4882903
vn -0.8726813 0 -0.4882903
vn -0.8726813 0 -0.4882903
vn -0.8322421 0 -0.5544124
vn -0.8322421 0 -0.5544124
vn -0.8322421 0 -0.5544124
vn -0.8322421 0 -0.5544124
vn -0.6174651 0 -0.7865983
vn -0.6174651 0 -0.7865983
vn -0.6174651 0 -0.7865983
vn -0.6174651 0 -0.7865983
vn -0.3692798 0 -0.9293183
vn -0.3692798 0 -0.9293183
vn -0.3692798 0 -0.9293183
vn -0.3692798 0 -0.9293183
vn -0.3112313 0 -0.9503342
vn -0.3112313 0 -0.9503342
vn -0.3112313 0 -0.9503342
vn -0.3112313 0 -0.9503342
vn -0.3122532 0 -0.9499989
vn -0.3122532 0 -0.9499989
vn -0.3122532 0 -0.9499989
vn -0.3122532 0 -0.9499989
vn 0.2121119 0 -0.9772453
vn 0.2121119 0 -0.9772453
vn 0.2121119 0 -0.9772453
vn 0.2121119 0 -0.9772453
vn 0.7658167 0 -0.6430589
vn 0.7658167 0 -0.6430589
vn 0.9930752 0 -0.1174803
vn 0.9930752 0 -0.1174803
g _0
f 3/3/3 2/2/2 1/1/1
f 2/2/2 3/3/3 4/4/4
f 5/5/5 4/4/4 3/3/3
f 4/4/4 5/5/5 6/6/6
f 7/7/7 6/6/6 5/5/5
f 6/6/6 7/7/7 8/8/8
f 9/9/9 8/8/8 7/7/7
f 8/8/8 9/9/9 10/10/10
f 11/11/11 10/10/10 9/9/9
f 10/10/10 11/11/11 12/12/12
f 13/13/13 12/12/12 11/11/11
f 12/12/12 13/13/13 14/14/14
f 15/15/15 14/14/14 13/13/13
f 14/14/14 15/15/15 16/16/16
f 17/17/17 16/16/16 15/15/15
f 16/16/16 17/17/17 18/18/18
f 19/19/19 18/18/18 17/17/17
f 18/18/18 19/19/19 20/20/20
f 21/21/21 20/20/20 19/19/19
f 20/20/20 21/21/21 22/22/22
f 23/23/23 22/22/22 21/21/21
f 22/22/22 23/23/23 24/24/24
f 25/25/25 24/24/24 23/23/23
f 24/24/24 25/25/25 26/26/26
f 27/27/27 26/26/26 25/25/25
f 26/26/26 27/27/27 28/28/28
f 29/29/29 28/28/28 27/27/27
f 28/28/28 29/29/29 30/30/30
f 31/31/31 30/30/30 29/29/29
f 30/30/30 31/31/31 32/32/32
f 33/33/33 32/32/32 31/31/31
f 32/32/32 33/33/33 34/34/34
f 35/35/35 34/34/34 33/33/33
f 34/34/34 35/35/35 36/36/36
f 37/37/37 36/36/36 35/35/35
f 36/36/36 37/37/37 38/38/38
f 39/39/39 38/38/38 37/37/37
f 38/38/38 39/39/39 40/40/40
f 41/41/41 40/40/40 39/39/39
f 40/40/40 41/41/41 42/42/42
f 43/43/43 42/42/42 41/41/41
f 42/42/42 43/43/43 44/44/44
f 45/45/45 44/44/44 43/43/43
f 44/44/44 45/45/45 46/46/46
f 47/47/47 46/46/46 45/45/45
f 46/46/46 47/47/47 48/48/48
g _1
f 49/49/49 50/50/50 51/51/51
f 52/52/52 51/51/51 50/50/50
f 53/53/53 54/54/54 55/55/55
f 56/56/56 55/55/55 54/54/54
f 57/57/57 58/58/58 59/59/59
f 60/60/60 59/59/59 58/58/58
f 61/61/61 62/62/62 63/63/63
f 64/64/64 63/63/63 62/62/62
f 65/65/65 66/66/66 67/67/67
f 68/68/68 67/67/67 66/66/66
f 69/69/69 70/70/70 71/71/71
f 72/72/72 71/71/71 70/70/70
f 73/73/73 74/74/74 75/75/75
f 76/76/76 75/75/75 74/74/74
f 77/77/77 78/78/78 79/79/79
f 80/80/80 79/79/79 78/78/78
f 81/81/81 82/82/82 83/83/83
f 84/84/84 83/83/83 82/82/82
f 85/85/85 86/86/86 87/87/87
f 88/88/88 87/87/87 86/86/86
f 89/89/89 90/90/90 91/91/91
f 92/92/92 91/91/91 90/90/90
f 93/93/93 94/94/94 95/95/95
f 96/96/96 95/95/95 94/94/94
f 97/97/97 98/98/98 99/99/99
f 100/100/100 99/99/99 98/98/98
f 101/101/101 102/102/102 103/103/103
f 104/104/104 103/103/103 102/102/102
f 105/105/105 106/106/106 107/107/107
f 108/108/108 107/107/107 106/106/106
f 109/109/109 110/110/110 111/111/111
f 112/112/112 111/111/111 110/110/110
f 113/113/113 114/114/114 115/115/115
f 116/116/116 115/115/115 114/114/114
f 117/117/117 118/118/118 119/119/119
f 120/120/120 119/119/119 118/118/118
f 121/121/121 122/122/122 123/123/123
f 124/124/124 123/123/123 122/122/122
f 125/125/125 126/126/126 127/127/127
f 128/128/128 127/127/127 126/126/126
f 129/129/129 130/130/130 131/131/131
f 132/132/132 131/131/131 130/130/130
f 133/133/133 134/134/134 135/135/135
f 136/136/136 135/135/135 134/134/134
f 137/137/137 138/138/138 139/139/139
f 140/140/140 139/139/139 138/138/138
f 143/143/143 142/142/142 141/141/141
f 142/142/142 143/143/143 144/144/144
f 147/147/147 146/146/146 145/145/145
f 146/146/146 147/147/147 148/148/148
f 151/151/151 150/150/150 149/149/149
f 150/150/150 151/151/151 152/152/152
f 155/155/155 154/154/154 153/153/153
f 154/154/154 155/155/155 156/156/156
f 159/159/159 158/158/158 157/157/157
f 158/158/158 159/159/159 160/160/160
f 163/163/163 162/162/162 161/161/161
f 162/162/162 163/163/163 164/164/164
f 167/167/167 166/166/166 165/165/165
f 166/166/166 167/167/167 168/168/168
f 171/171/171 170/170/170 169/169/169
f 170/170/170 171/171/171 172/172/172
f 175/175/175 174/174/174 173/173/173
f 174/174/174 175/175/175 176/176/176
f 179/179/179 178/178/178 177/177/177
f 178/178/178 179/179/179 180/180/180
f 183/183/183 182/182/182 181/181/181
f 182/182/182 183/183/183 184/184/184
f 187/187/187 186/186/186 185/185/185
f 186/186/186 187/187/187 188/188/188
f 191/191/191 190/190/190 189/189/189
f 190/190/190 191/191/191 192/192/192
f 195/195/195 194/194/194 193/193/193
f 194/194/194 195/195/195 196/196/196
f 199/199/199 198/198/198 197/197/197
f 198/198/198 199/199/199 200/200/200
f 203/203/203 202/202/202 201/201/201
f 202/202/202 203/203/203 204/204/204
f 207/207/207 206/206/206 205/205/205
f 206/206/206 207/207/207 208/208/208
f 211/211/211 210/210/210 209/209/209
f 210/210/210 211/211/211 212/212/212
f 215/215/215 214/214/214 213/213/213
f 214/214/214 215/215/215 216/216/216
f 219/219/219 218/218/218 217/217/217
f 218/218/218 219/219/219 220/220/220
f 223/223/223 222/222/222 221/221/221
f 222/222/222 223/223/223 224/224/224
f 227/227/227 226/226/226 225/225/225
f 226/226/226 227/227/227 228/228/228
f 231/231/231 230/230/230 229/229/229
f 230/230/230 231/231/231 232/232/232
f 141/141/141 50/50/50 49/49/49
f 50/50/50 141/141/141 142/142/142
f 139/139/139 140/140/140 231/231/231
f 232/232/232 231/231/231 140/140/140
