g 
v 57.61 18.5924 43.42
v 57.61 2.9676 43.42
v 54.39 18.59245 44.49
v 54.39 2.96755 44.49
v 53.92 18.59245 47.74
v 53.92 2.96755 47.74
v 55.01 18.59245 49.95
v 55.01 2.96755 49.95
v 64.53 18.59245 51.64
v 64.53 2.96755 51.64
v 73.05 18.59245 51.31
v 73.05 2.96755 51.31
v 75.65 18.59245 48.73
v 75.65 2.96755 48.73
v 82.21 18.59245 47.42
v 82.21 2.96755 47.42
v 84.2 18.59245 43.66
v 84.2 2.96755 43.66
v 87.91 18.59245 43.45
v 87.91 2.96755 43.45
v 91.31 18.59245 40.67
v 91.31 2.96755 40.67
v 91.77 18.59245 37.29
v 91.77 2.96755 37.29
v 90.31 18.59245 36.03
v 90.31 2.96755 36.03
v 89.43 18.59245 31.48
v 89.43 2.96755 31.48
v 89.17 18.59245 26.76
v 89.17 2.96755 26.76
v 92.05 18.59245 25.85
v 92.05 2.96755 25.85
v 92.6 18.59245 23.57
v 92.6 2.96755 23.57
v 90.07 18.59245 21.64
v 90.07 2.96755 21.64
v 89.21 18.59245 18.49
v 89.21 2.96755 18.49
v 90.4 18.59245 17.15
v 90.4 2.96755 17.15
v 89.61 18.59245 13.65
v 89.61 2.96755 13.65
v 87.1 18.59245 10.03
v 87.1 2.96755 10.03
v 84.53 18.59245 8.24
v 84.53 2.96755 8.24
v 81.11 18.59245 7.99
v 81.11 2.96755 7.99
v 80.17 18.59245 11.9
v 80.17 2.96755 11.9
v 81.12 18.59245 16.68
v 81.12 2.96755 16.68
v 84.26 18.59245 18.19
v 84.26 2.96755 18.19
v 84.98 18.59245 22.58
v 84.98 2.96755 22.58
v 84.69 18.59245 26.2
v 84.69 2.96755 26.2
v 83.19 18.59245 32.15
v 83.19 2.96755 32.15
v 78.2 18.59245 39.33
v 78.2 2.96755 39.33
v 71.94 18.59245 44.99
v 71.94 2.96755 44.99
v 67.17 18.59245 45.57
v 67.17 2.96755 45.57
v 61.13 18.59245 45.21
v 61.13 2.96755 45.21
v 57.61 18.5924 43.42
v 57.61 2.9676 43.42
vt -0.5971 0.3212
vt -0.5971 0.3212
vt -0.5648999 0.3319
vt -0.5648999 0.3319
vt -0.5602 0.3644
vt -0.5602 0.3644
vt -0.5710999 0.3865
vt -0.5710999 0.3865
vt -0.6662999 0.4034
vt -0.6662999 0.4034
vt -0.7515 0.4001
vt -0.7515 0.4001
vt -0.7775 0.3743
vt -0.7775 0.3743
vt -0.8431 0.3612
vt -0.8431 0.3612
vt -0.8629999 0.3236
vt -0.8629999 0.3236
vt -0.9001 0.3215
vt -0.9001 0.3215
vt -0.9340999 0.2937
vt -0.9340999 0.2937
vt -0.9386999 0.2599
vt -0.9386999 0.2599
vt -0.9240999 0.2473
vt -0.9240999 0.2473
vt -0.9153 0.2018
vt -0.9153 0.2018
vt -0.9126999 0.1546
vt -0.9126999 0.1546
vt -0.9415 0.1455
vt -0.9415 0.1455
vt -0.947 0.1227
vt -0.947 0.1227
vt -0.9216999 0.1034
vt -0.9216999 0.1034
vt -0.9130999 0.0719
vt -0.9130999 0.0719
vt -0.925 0.05849999
vt -0.925 0.05849999
vt -0.9171 0.02349999
vt -0.9171 0.02349999
vt -0.892 -0.0127
vt -0.892 -0.0127
vt -0.8662999 -0.0306
vt -0.8662999 -0.0306
vt -0.8321 -0.03310001
vt -0.8321 -0.03310001
vt -0.8227 0.005999994
vt -0.8227 0.005999994
vt -0.8322 0.0538
vt -0.8322 0.0538
vt -0.8636 0.0689
vt -0.8636 0.0689
vt -0.8708 0.1128
vt -0.8708 0.1128
vt -0.8679 0.149
vt -0.8679 0.149
vt -0.8529 0.2085
vt -0.8529 0.2085
vt -0.8029999 0.2803
vt -0.8029999 0.2803
vt -0.7404 0.3369
vt -0.7404 0.3369
vt -0.6927 0.3427
vt -0.6927 0.3427
vt -0.6323 0.3391
vt -0.6323 0.3391
vt -0.5971 0.3212
vt -0.5971 0.3212
vn -0.3153439 0 -0.9489775
vn -0.315344 0 -0.9489774
vn -0.9897045 0 -0.1431257
vn -0.9897045 0 -0.1431257
vn -0.8968487 0 0.4423374
vn -0.8968487 0 0.4423374
vn -0.1747881 0 0.984606
vn -0.1747881 0 0.984606
vn 0.03870312 0 0.9992507
vn 0.03870312 0 0.9992507
vn 0.7043719 0 0.7098312
vn 0.7043719 0 0.7098312
vn 0.1958289 0 0.9806381
vn 0.1958289 0 0.9806381
vn 0.8838452 0 0.4677795
vn 0.8838452 0 0.4677795
vn 0.05651297 0 0.9984019
vn 0.05651297 0 0.9984019
vn 0.6329908 0 0.7741593
vn 0.6329908 0 0.7741593
vn 0.9908658 0 0.1348514
vn 0.9908658 0 0.1348514
vn 0.6533507 0 -0.7570554
vn 0.6533507 0 -0.7570554
vn 0.981806 0 -0.1898872
vn 0.981806 0 -0.1898872
vn 0.9984862 0 -0.05500182
vn 0.9984862 0 -0.05500182
vn 0.3012893 0 0.9535328
vn 0.3012893 0 0.9535328
vn 0.9721162 0 0.2344997
vn 0.9721162 0 0.2344997
vn 0.6065167 0 -0.7950706
vn 0.6065167 0 -0.7950706
vn 0.964693 0 -0.2633767
vn 0.964693 0 -0.2633767
vn 0.7477164 0 0.6640182
vn 0.7477164 0 0.6640182
vn 0.9754602 0 -0.2201756
vn 0.9754602 0 -0.2201756
vn 0.8217832 0 -0.5698004
vn 0.8217832 0 -0.5698004
vn 0.5715322 0 -0.8205796
vn 0.5715322 0 -0.8205796
vn 0.07290493 0 -0.9973389
vn 0.07290493 0 -0.9973389
vn -0.9722968 0 -0.2337497
vn -0.9722968 0 -0.2337497
vn -0.9808165 0 0.1949331
vn -0.9808165 0 0.1949331
vn -0.4333842 0 0.9012093
vn -0.4333842 0 0.9012093
vn -0.9868158 0 0.1618471
vn -0.9868158 0 0.1618471
vn -0.9968065 0 -0.0798549
vn -0.9968065 0 -0.0798549
vn -0.9696613 0 -0.2444524
vn -0.9696613 0 -0.2444524
vn -0.8211613 0 -0.5706963
vn -0.8211613 0 -0.5706963
vn -0.6706654 0 -0.74176
vn -0.6706654 0 -0.74176
vn -0.1207037 0 -0.9926885
vn -0.1207037 0 -0.9926885
vn 0.05949719 0 -0.9982285
vn 0.05949719 0 -0.9982285
vn 0.4532809 0 -0.8913677
vn 0.4532809 0 -0.8913677
vn 0.4532809 0 -0.8913677
vn 0.4532809 0 -0.8913677
g _0
f 1/1/1 2/2/2 3/3/3
f 4/4/4 3/3/3 2/2/2
f 3/3/3 4/4/4 5/5/5
f 6/6/6 5/5/5 4/4/4
f 5/5/5 6/6/6 7/7/7
f 8/8/8 7/7/7 6/6/6
f 7/7/7 8/8/8 9/9/9
f 10/10/10 9/9/9 8/8/8
f 9/9/9 10/10/10 11/11/11
f 12/12/12 11/11/11 10/10/10
f 11/11/11 12/12/12 13/13/13
f 14/14/14 13/13/13 12/12/12
f 13/13/13 14/14/14 15/15/15
f 16/16/16 15/15/15 14/14/14
f 15/15/15 16/16/16 17/17/17
f 18/18/18 17/17/17 16/16/16
f 17/17/17 18/18/18 19/19/19
f 20/20/20 19/19/19 18/18/18
f 19/19/19 20/20/20 21/21/21
f 22/22/22 21/21/21 20/20/20
f 21/21/21 22/22/22 23/23/23
f 24/24/24 23/23/23 22/22/22
f 23/23/23 24/24/24 25/25/25
f 26/26/26 25/25/25 24/24/24
f 25/25/25 26/26/26 27/27/27
f 28/28/28 27/27/27 26/26/26
f 27/27/27 28/28/28 29/29/29
f 30/30/30 29/29/29 28/28/28
f 29/29/29 30/30/30 31/31/31
f 32/32/32 31/31/31 30/30/30
f 31/31/31 32/32/32 33/33/33
f 34/34/34 33/33/33 32/32/32
f 33/33/33 34/34/34 35/35/35
f 36/36/36 35/35/35 34/34/34
f 35/35/35 36/36/36 37/37/37
f 38/38/38 37/37/37 36/36/36
f 37/37/37 38/38/38 39/39/39
f 40/40/40 39/39/39 38/38/38
f 39/39/39 40/40/40 41/41/41
f 42/42/42 41/41/41 40/40/40
f 41/41/41 42/42/42 43/43/43
f 44/44/44 43/43/43 42/42/42
f 43/43/43 44/44/44 45/45/45
f 46/46/46 45/45/45 44/44/44
f 45/45/45 46/46/46 47/47/47
f 48/48/48 47/47/47 46/46/46
f 47/47/47 48/48/48 49/49/49
f 50/50/50 49/49/49 48/48/48
f 49/49/49 50/50/50 51/51/51
f 52/52/52 51/51/51 50/50/50
f 51/51/51 52/52/52 53/53/53
f 54/54/54 53/53/53 52/52/52
f 53/53/53 54/54/54 55/55/55
f 56/56/56 55/55/55 54/54/54
f 55/55/55 56/56/56 57/57/57
f 58/58/58 57/57/57 56/56/56
f 57/57/57 58/58/58 59/59/59
f 60/60/60 59/59/59 58/58/58
f 59/59/59 60/60/60 61/61/61
f 62/62/62 61/61/61 60/60/60
f 61/61/61 62/62/62 63/63/63
f 64/64/64 63/63/63 62/62/62
f 63/63/63 64/64/64 65/65/65
f 66/66/66 65/65/65 64/64/64
f 65/65/65 66/66/66 67/67/67
f 68/68/68 67/67/67 66/66/66
f 67/67/67 68/68/68 69/69/69
f 70/70/70 69/69/69 68/68/68
