g 
v -21.3234 17.6 -5.126506
v -30.23444 17.6 -19.94789
v -14.11555 17.6 -1.480974
v -30.07373 17.6 -28.02361
v -3.026969 17.6 -3.179586
v -23.37303 17.6 -37.02042
v 4.373544 17.6 -7.56912
v -16.02732 17.6 -41.49673
v 10.53305 17.6 -15.87962
v -5.803204 17.6 -43.03893
v 17.6735 17.6 -22.56475
v 3.43821 17.6 -46.20944
v 27.98445 17.6 -24.0056
v 9.502869 17.6 -54.63459
v 34.74593 17.6 -30.81103
v 18.62654 17.6 -57.42936
v 37.7393 17.6 -34.75888
v 23.4607 17.6 -58.24112
v 45.01958 17.6 -40.10797
v 31.55979 17.6 -62.24361
v 45.33038 17.6 -46.77189
v 37.61934 17.6 -59.45325
v -21.3234 17.6 -5.126506
v -21.3234 -2.4 -5.126506
v -14.11555 17.6 -1.480974
v -14.11555 -2.4 -1.480974
v -14.11555 17.6 -1.480974
v -14.11555 -2.4 -1.480974
v -3.026969 17.6 -3.179586
v -3.026969 -2.4 -3.179586
v -3.026969 17.6 -3.179586
v -3.026969 -2.4 -3.179586
v 4.373544 17.6 -7.56912
v 4.373544 -2.4 -7.56912
v 4.373544 17.6 -7.56912
v 4.373544 -2.4 -7.56912
v 10.53305 17.6 -15.87962
v 10.53305 -2.4 -15.87962
v 10.53305 17.6 -15.87962
v 10.53305 -2.4 -15.87962
v 17.6735 17.6 -22.56475
v 17.6735 -2.4 -22.56475
v 17.6735 17.6 -22.56475
v 17.6735 -2.4 -22.56475
v 27.98445 17.6 -24.0056
v 27.98445 -2.4 -24.0056
v 27.98445 17.6 -24.0056
v 27.98445 -2.4 -24.0056
v 34.74593 17.6 -30.81103
v 34.74593 -2.4 -30.81103
v 34.74593 17.6 -30.81103
v 34.74593 -2.4 -30.81103
v 37.7393 17.6 -34.75888
v 37.7393 -2.4 -34.75888
v 37.7393 17.6 -34.75888
v 37.7393 -2.4 -34.75888
v 45.01958 17.6 -40.10797
v 45.01958 -2.4 -40.10797
v 45.01958 17.6 -40.10797
v 45.01958 -2.4 -40.10797
v 45.33038 17.6 -46.77189
v 45.33038 -2.4 -46.77189
v -30.23444 17.6 -19.94789
v -30.23444 -2.4 -19.94789
v -30.07373 17.6 -28.02361
v -30.07373 -2.4 -28.02361
v -30.07373 17.6 -28.02361
v -30.07373 -2.4 -28.02361
v -23.37303 17.6 -37.02042
v -23.37303 -2.4 -37.02042
v -23.37303 17.6 -37.02042
v -23.37303 -2.4 -37.02042
v -16.02732 17.6 -41.49673
v -16.02732 -2.4 -41.49673
v -16.02732 17.6 -41.49673
v -16.02732 -2.4 -41.49673
v -5.803204 17.6 -43.03893
v -5.803204 -2.4 -43.03893
v -5.803204 17.6 -43.03893
v -5.803204 -2.4 -43.03893
v 3.43821 17.6 -46.20944
v 3.43821 -2.4 -46.20944
v 3.43821 17.6 -46.20944
v 3.43821 -2.4 -46.20944
v 9.502869 17.6 -54.63459
v 9.502869 -2.4 -54.63459
v 9.502869 17.6 -54.63459
v 9.502869 -2.4 -54.63459
v 18.62654 17.6 -57.42936
v 18.62654 -2.4 -57.42936
v 18.62654 17.6 -57.42936
v 18.62654 -2.4 -57.42936
v 23.4607 17.6 -58.24112
v 23.4607 -2.4 -58.24112
v 23.4607 17.6 -58.24112
v 23.4607 -2.4 -58.24112
v 31.55979 17.6 -62.24361
v 31.55979 -2.4 -62.24361
v 31.55979 17.6 -62.24361
v 31.55979 -2.4 -62.24361
v 37.61934 17.6 -59.45325
v 37.61934 -2.4 -59.45325
vt 0.04420236 -0.01814321
vt 0.05727907 -0.01660614
vt 0.03941369 -0.02200158
vt 0.06283191 -0.01924896
vt 0.03711657 -0.03022763
vt 0.06697388 -0.02671815
vt 0.03784251 -0.03673824
vt 0.06777721 -0.03321793
vt 0.04167794 -0.04361681
vt 0.06564252 -0.04079517
vt 0.04407815 -0.05066653
vt 0.06494564 -0.04820096
vt 0.04184593 -0.05827224
vt 0.06889035 -0.05504966
vt 0.0444484 -0.06509672
vt 0.06796966 -0.06225598
vt 0.04624929 -0.06841107
vt 0.06701764 -0.06586452
vt 0.04767868 -0.07513902
vt 0.06725606 -0.07273851
vt 0.05220492 -0.07744345
vt 0.06342067 -0.0760682
vt 0.04420236 -0.01814321
vt 0.04420236 -0.01814321
vt 0.03941369 -0.02200158
vt 0.03941369 -0.02200158
vt 0.03941369 -0.02200158
vt 0.03941369 -0.02200158
vt 0.03711657 -0.03022763
vt 0.03711657 -0.03022763
vt 0.03711657 -0.03022763
vt 0.03711657 -0.03022763
vt 0.03784251 -0.03673824
vt 0.03784251 -0.03673824
vt 0.03784251 -0.03673824
vt 0.03784251 -0.03673824
vt 0.04167794 -0.04361681
vt 0.04167794 -0.04361681
vt 0.04167794 -0.04361681
vt 0.04167794 -0.04361681
vt 0.04407815 -0.05066653
vt 0.04407815 -0.05066653
vt 0.04407815 -0.05066653
vt 0.04407815 -0.05066653
vt 0.04184593 -0.05827224
vt 0.04184593 -0.05827224
vt 0.04184593 -0.05827224
vt 0.04184593 -0.05827224
vt 0.0444484 -0.06509672
vt 0.0444484 -0.06509672
vt 0.0444484 -0.06509672
vt 0.0444484 -0.06509672
vt 0.04624929 -0.06841107
vt 0.04624929 -0.06841107
vt 0.04624929 -0.06841107
vt 0.04624929 -0.06841107
vt 0.04767868 -0.07513902
vt 0.04767868 -0.07513902
vt 0.04767868 -0.07513902
vt 0.04767868 -0.07513902
vt 0.05220492 -0.07744345
vt 0.05220492 -0.07744345
vt 0.05727907 -0.01660614
vt 0.05727907 -0.01660614
vt 0.06283191 -0.01924896
vt 0.06283191 -0.01924896
vt 0.06283191 -0.01924896
vt 0.06283191 -0.01924896
vt 0.06697388 -0.02671815
vt 0.06697388 -0.02671815
vt 0.06697388 -0.02671815
vt 0.06697388 -0.02671815
vt 0.06777721 -0.03321793
vt 0.06777721 -0.03321793
vt 0.06777721 -0.03321793
vt 0.06777721 -0.03321793
vt 0.06564252 -0.04079517
vt 0.06564252 -0.04079517
vt 0.06564252 -0.04079517
vt 0.06564252 -0.04079517
vt 0.06494564 -0.04820096
vt 0.06494564 -0.04820096
vt 0.06494564 -0.04820096
vt 0.06494564 -0.04820096
vt 0.06889035 -0.05504966
vt 0.06889035 -0.05504966
vt 0.06889035 -0.05504966
vt 0.06889035 -0.05504966
vt 0.06796966 -0.06225598
vt 0.06796966 -0.06225598
vt 0.06796966 -0.06225598
vt 0.06796966 -0.06225598
vt 0.06701764 -0.06586452
vt 0.06701764 -0.06586452
vt 0.06701764 -0.06586452
vt 0.06701764 -0.06586452
vt 0.06725606 -0.07273851
vt 0.06725606 -0.07273851
vt 0.06725606 -0.07273851
vt 0.06725606 -0.07273851
vt 0.06342067 -0.0760682
vt 0.06342067 -0.0760682
vn 0 1 0
vn 0 1 0
vn 0 1 0
vn 0 1 0
vn 0 1 0
vn 0 1 0
vn 0 1 0
vn 0 1 0
vn 0 1 0
vn 0 1 0
vn 0 1 0
vn 0 1 0
vn 0 1 0
vn 0 1 0
vn 0 1 0
vn 0 1 0
vn 0 1 0
vn 0 1 0
vn 0 1 0
vn 0 1 0
vn 0 1 0
vn 0 1 0
vn -0.8570282 0 0.5152696
vn -0.8570282 0 0.5152696
vn -0.4513295 0 0.8923574
vn -0.4513295 0 0.8923574
vn 0.1514195 0 0.9884696
vn 0.1514195 0 0.9884696
vn 0.1514195 0 0.9884696
vn 0.1514195 0 0.9884696
vn 0.5101503 0 0.8600853
vn 0.5101503 0 0.8600853
vn 0.5101503 0 0.8600853
vn 0.5101503 0 0.8600853
vn 0.8033918 0 0.5954508
vn 0.8033918 0 0.5954508
vn 0.8033918 0 0.5954508
vn 0.8033918 0 0.5954508
vn 0.6834491 0 0.7299981
vn 0.6834491 0 0.7299981
vn 0.6834491 0 0.7299981
vn 0.6834491 0 0.7299981
vn 0.138395 0 0.9903771
vn 0.138395 0 0.9903771
vn 0.138395 0 0.9903771
vn 0.138395 0 0.9903771
vn 0.7093933 0 0.7048129
vn 0.7093933 0 0.7048129
vn 0.7093933 0 0.7048129
vn 0.7093933 0 0.7048129
vn 0.7968419 0 0.6041878
vn 0.7968419 0 0.6041878
vn 0.7968419 0 0.6041878
vn 0.7968419 0 0.6041878
vn 0.592099 0 0.8058653
vn 0.592099 0 0.8058653
vn 0.592099 0 0.8058653
vn 0.592099 0 0.8058653
vn 0.9989142 0 0.04658779
vn 0.9989142 0 0.04658779
vn 0.8544393 0 -0.5195512
vn 0.8544393 0 -0.5195512
vn -0.8570282 0 0.5152696
vn -0.8570282 0 0.5152696
vn -0.9998021 0 -0.01989614
vn -0.9998021 0 -0.01989614
vn -0.8020024 0 -0.5973209
vn -0.8020024 0 -0.5973209
vn -0.8020024 0 -0.5973209
vn -0.8020024 0 -0.5973209
vn -0.5203719 0 -0.8539397
vn -0.5203719 0 -0.8539397
vn -0.5203719 0 -0.8539397
vn -0.5203719 0 -0.8539397
vn -0.1491527 0 -0.9888142
vn -0.1491527 0 -0.9888142
vn -0.1491527 0 -0.9888142
vn -0.1491527 0 -0.9888142
vn -0.3245094 0 -0.9458825
vn -0.3245094 0 -0.9458825
vn -0.3245094 0 -0.9458825
vn -0.3245094 0 -0.9458825
vn -0.8116007 0 -0.5842125
vn -0.8116007 0 -0.5842125
vn -0.8116007 0 -0.5842125
vn -0.8116007 0 -0.5842125
vn -0.2928874 0 -0.9561469
vn -0.2928874 0 -0.9561469
vn -0.2928874 0 -0.9561469
vn -0.2928874 0 -0.9561469
vn -0.1656025 0 -0.9861926
vn -0.1656025 0 -0.9861926
vn -0.1656025 0 -0.9861926
vn -0.1656025 0 -0.9861926
vn -0.4430415 0 -0.8965011
vn -0.4430415 0 -0.8965011
vn -0.4430415 0 -0.8965011
vn -0.4430415 0 -0.8965011
vn 0.4182725 0 -0.9083216
vn 0.4182725 0 -0.9083216
vn 0.8544393 0 -0.5195512
vn 0.8544393 0 -0.5195512
g _0
f 3/3/3 2/2/2 1/1/1
f 2/2/2 3/3/3 4/4/4
f 5/5/5 4/4/4 3/3/3
f 4/4/4 5/5/5 6/6/6
f 7/7/7 6/6/6 5/5/5
f 6/6/6 7/7/7 8/8/8
f 9/9/9 8/8/8 7/7/7
f 8/8/8 9/9/9 10/10/10
f 11/11/11 10/10/10 9/9/9
f 10/10/10 11/11/11 12/12/12
f 13/13/13 12/12/12 11/11/11
f 12/12/12 13/13/13 14/14/14
f 15/15/15 14/14/14 13/13/13
f 14/14/14 15/15/15 16/16/16
f 17/17/17 16/16/16 15/15/15
f 16/16/16 17/17/17 18/18/18
f 19/19/19 18/18/18 17/17/17
f 18/18/18 19/19/19 20/20/20
f 21/21/21 20/20/20 19/19/19
f 20/20/20 21/21/21 22/22/22
g _1
f 23/23/23 24/24/24 25/25/25
f 26/26/26 25/25/25 24/24/24
f 27/27/27 28/28/28 29/29/29
f 30/30/30 29/29/29 28/28/28
f 31/31/31 32/32/32 33/33/33
f 34/34/34 33/33/33 32/32/32
f 35/35/35 36/36/36 37/37/37
f 38/38/38 37/37/37 36/36/36
f 39/39/39 40/40/40 41/41/41
f 42/42/42 41/41/41 40/40/40
f 43/43/43 44/44/44 45/45/45
f 46/46/46 45/45/45 44/44/44
f 47/47/47 48/48/48 49/49/49
f 50/50/50 49/49/49 48/48/48
f 51/51/51 52/52/52 53/53/53
f 54/54/54 53/53/53 52/52/52
f 55/55/55 56/56/56 57/57/57
f 58/58/58 57/57/57 56/56/56
f 59/59/59 60/60/60 61/61/61
f 62/62/62 61/61/61 60/60/60
f 65/65/65 64/64/64 63/63/63
f 64/64/64 65/65/65 66/66/66
f 69/69/69 68/68/68 67/67/67
f 68/68/68 69/69/69 70/70/70
f 73/73/73 72/72/72 71/71/71
f 72/72/72 73/73/73 74/74/74
f 77/77/77 76/76/76 75/75/75
f 76/76/76 77/77/77 78/78/78
f 81/81/81 80/80/80 79/79/79
f 80/80/80 81/81/81 82/82/82
f 85/85/85 84/84/84 83/83/83
f 84/84/84 85/85/85 86/86/86
f 89/89/89 88/88/88 87/87/87
f 88/88/88 89/89/89 90/90/90
f 93/93/93 92/92/92 91/91/91
f 92/92/92 93/93/93 94/94/94
f 97/97/97 96/96/96 95/95/95
f 96/96/96 97/97/97 98/98/98
f 101/101/101 100/100/100 99/99/99
f 100/100/100 101/101/101 102/102/102
f 63/63/63 24/24/24 23/23/23
f 24/24/24 63/63/63 64/64/64
f 61/61/61 62/62/62 101/101/101
f 102/102/102 101/101/101 62/62/62
