g 
v 60.69566 68.38123 25.34475
v 60.69566 54.38123 25.34475
v 60.73259 68.38123 35.15676
v 60.73259 54.38123 35.15676
v 58.11338 68.38123 34.26403
v 58.11338 54.38123 34.26403
v 57.35905 68.38123 31.8445
v 57.35905 54.38123 31.8445
v 54.82462 68.38123 28.83896
v 54.82462 54.38123 28.83896
v 56.5845 68.38123 26.10476
v 56.5845 54.38123 26.10476
v 60.69566 68.38123 25.34475
v 60.69566 54.38123 25.34475
vt -0.6279566 0.1404475
vt -0.6279566 0.1404475
vt -0.6283258 0.2385676
vt -0.6283258 0.2385676
vt -0.6021338 0.2296403
vt -0.6021338 0.2296403
vt -0.5945904 0.205445
vt -0.5945904 0.205445
vt -0.5692462 0.1753896
vt -0.5692462 0.1753896
vt -0.5868449 0.1480476
vt -0.5868449 0.1480476
vt -0.6279566 0.1404475
vt -0.6279566 0.1404475
vn 0.9999929 0 -0.00376296
vn 0.9999929 0 -0.00376296
vn -0.3226135 0 0.9465308
vn -0.3226135 0 0.9465308
vn -0.9546783 0 0.2976394
vn -0.9546783 0 0.2976394
vn -0.7644791 0 0.6446486
vn -0.7644791 0 0.6446486
vn -0.8408746 0 -0.54123
vn -0.8408746 0 -0.54123
vn -0.181785 0 -0.9833383
vn -0.181785 0 -0.9833383
vn -0.181785 0 -0.9833383
vn -0.181785 0 -0.9833383
g _0
f 3/3/3 2/2/2 1/1/1
f 2/2/2 3/3/3 4/4/4
f 5/5/5 4/4/4 3/3/3
f 4/4/4 5/5/5 6/6/6
f 7/7/7 6/6/6 5/5/5
f 6/6/6 7/7/7 8/8/8
f 9/9/9 8/8/8 7/7/7
f 8/8/8 9/9/9 10/10/10
f 11/11/11 10/10/10 9/9/9
f 10/10/10 11/11/11 12/12/12
f 13/13/13 12/12/12 11/11/11
f 12/12/12 13/13/13 14/14/14
