g 
v 21.89759 17.6 -21.99142
v 10.57619 17.6 -11.17949
v 24.72018 17.6 -30.63134
v 1.815551 17.6 -8.757427
v 19.13785 17.6 -39.65115
v -6.93785 17.6 -14.74885
v 11.17427 17.6 -43.51808
v -10.43427 17.6 -22.88192
v 3.857368 17.6 -49.27727
v -15.8507 17.6 -30.45606
v -3.747013 17.6 -54.76192
v -20.97965 17.6 -38.30475
v -4.138482 17.6 -55.66274
v -21.86152 17.6 -38.73726
v -11.81536 17.6 -57.58498
v -23.42849 17.6 -46.49445
v -15.58603 17.6 -57.81698
v -23.48675 17.6 -50.27181
v 21.89759 17.6 -21.99142
v 21.89759 -2.4 -21.99142
v 24.72018 17.6 -30.63134
v 24.72018 -2.4 -30.63134
v 24.72018 17.6 -30.63134
v 24.72018 -2.4 -30.63134
v 19.13785 17.6 -39.65115
v 19.13785 -2.4 -39.65115
v 19.13785 17.6 -39.65115
v 19.13785 -2.4 -39.65115
v 11.17427 17.6 -43.51808
v 11.17427 -2.4 -43.51808
v 11.17427 17.6 -43.51808
v 11.17427 -2.4 -43.51808
v 3.857368 17.6 -49.27727
v 3.857368 -2.4 -49.27727
v 3.857368 17.6 -49.27727
v 3.857368 -2.4 -49.27727
v -3.747013 17.6 -54.76192
v -3.747013 -2.4 -54.76192
v -3.747013 17.6 -54.76192
v -3.747013 -2.4 -54.76192
v -4.138482 17.6 -55.66274
v -4.138482 -2.4 -55.66274
v -4.138482 17.6 -55.66274
v -4.138482 -2.4 -55.66274
v -11.81536 17.6 -57.58498
v -11.81536 -2.4 -57.58498
v -11.81536 17.6 -57.58498
v -11.81536 -2.4 -57.58498
v -15.58603 17.6 -57.81698
v -15.58603 -2.4 -57.81698
v 10.57619 17.6 -11.17949
v 10.57619 -2.4 -11.17949
v 1.815551 17.6 -8.757427
v 1.815551 -2.4 -8.757427
v 1.815551 17.6 -8.757427
v 1.815551 -2.4 -8.757427
v -6.93785 17.6 -14.74885
v -6.93785 -2.4 -14.74885
v -6.93785 17.6 -14.74885
v -6.93785 -2.4 -14.74885
v -10.43427 17.6 -22.88192
v -10.43427 -2.4 -22.88192
v -10.43427 17.6 -22.88192
v -10.43427 -2.4 -22.88192
v -15.8507 17.6 -30.45606
v -15.8507 -2.4 -30.45606
v -15.8507 17.6 -30.45606
v -15.8507 -2.4 -30.45606
v -20.97965 17.6 -38.30475
v -20.97965 -2.4 -38.30475
v -20.97965 17.6 -38.30475
v -20.97965 -2.4 -38.30475
v -21.86152 17.6 -38.73726
v -21.86152 -2.4 -38.73726
v -21.86152 17.6 -38.73726
v -21.86152 -2.4 -38.73726
v -23.42849 17.6 -46.49445
v -23.42849 -2.4 -46.49445
v -23.42849 17.6 -46.49445
v -23.42849 -2.4 -46.49445
v -23.48675 17.6 -50.27181
v -23.48675 -2.4 -50.27181
vt -0.03436634 -0.07616409
vt -0.02709055 -0.06230281
vt -0.03428197 -0.08525299
vt -0.01956213 -0.05720987
vt -0.02611148 -0.09201777
vt -0.009353724 -0.06009217
vt -0.01732999 -0.09313905
vt -0.003443094 -0.06668278
vt -0.008557028 -0.09626002
vt 0.004108518 -0.07213058
vt 0.0004006861 -0.09902902
vt 0.01147538 -0.07793035
vt 0.001059335 -0.09975766
vt 0.01244919 -0.0780586
vt 0.008948097 -0.09912764
vt 0.01641137 -0.08490919
vt 0.01259542 -0.09814332
vt 0.01767287 -0.08847015
vt -0.03436634 -0.07616409
vt -0.03436634 -0.07616409
vt -0.03428197 -0.08525299
vt -0.03428197 -0.08525299
vt -0.03428197 -0.08525299
vt -0.03428197 -0.08525299
vt -0.02611148 -0.09201777
vt -0.02611148 -0.09201777
vt -0.02611148 -0.09201777
vt -0.02611148 -0.09201777
vt -0.01732999 -0.09313905
vt -0.01732999 -0.09313905
vt -0.01732999 -0.09313905
vt -0.01732999 -0.09313905
vt -0.008557028 -0.09626002
vt -0.008557028 -0.09626002
vt -0.008557028 -0.09626002
vt -0.008557028 -0.09626002
vt 0.0004006861 -0.09902902
vt 0.0004006861 -0.09902902
vt 0.0004006861 -0.09902902
vt 0.0004006861 -0.09902902
vt 0.001059335 -0.09975766
vt 0.001059335 -0.09975766
vt 0.001059335 -0.09975766
vt 0.001059335 -0.09975766
vt 0.008948097 -0.09912764
vt 0.008948097 -0.09912764
vt 0.008948097 -0.09912764
vt 0.008948097 -0.09912764
vt 0.01259542 -0.09814332
vt 0.01259542 -0.09814332
vt -0.02709055 -0.06230281
vt -0.02709055 -0.06230281
vt -0.01956213 -0.05720987
vt -0.01956213 -0.05720987
vt -0.01956213 -0.05720987
vt -0.01956213 -0.05720987
vt -0.009353724 -0.06009217
vt -0.009353724 -0.06009217
vt -0.009353724 -0.06009217
vt -0.009353724 -0.06009217
vt -0.003443094 -0.06668278
vt -0.003443094 -0.06668278
vt -0.003443094 -0.06668278
vt -0.003443094 -0.06668278
vt 0.004108518 -0.07213058
vt 0.004108518 -0.07213058
vt 0.004108518 -0.07213058
vt 0.004108518 -0.07213058
vt 0.01147538 -0.07793035
vt 0.01147538 -0.07793035
vt 0.01147538 -0.07793035
vt 0.01147538 -0.07793035
vt 0.01244919 -0.0780586
vt 0.01244919 -0.0780586
vt 0.01244919 -0.0780586
vt 0.01244919 -0.0780586
vt 0.01641137 -0.08490919
vt 0.01641137 -0.08490919
vt 0.01641137 -0.08490919
vt 0.01641137 -0.08490919
vt 0.01767287 -0.08847015
vt 0.01767287 -0.08847015
vn 0 1 0
vn 0 1 0
vn 0 1 0
vn 0 1 0
vn 0 1 0
vn 0 1 0
vn 0 1 0
vn 0 1 0
vn 0 1 0
vn 0 1 0
vn 0 1 0
vn 0 1 0
vn 0 1 0
vn 0 1 0
vn 0 1 0
vn 0 1 0
vn 0 1 0
vn 0 1 0
vn 0.6906477 0 0.7231913
vn 0.6906477 0 0.7231913
vn 0.9505603 0 0.3105398
vn 0.9505603 0 0.3105398
vn 0.8503226 0 -0.5262617
vn 0.8503226 0 -0.5262617
vn 0.8503226 0 -0.5262617
vn 0.8503226 0 -0.5262617
vn 0.4368044 0 -0.8995565
vn 0.4368044 0 -0.8995565
vn 0.4368044 0 -0.8995565
vn 0.4368044 0 -0.8995565
vn 0.618498 0 -0.7857863
vn 0.618498 0 -0.7857863
vn 0.618498 0 -0.7857863
vn 0.618498 0 -0.7857863
vn 0.5849715 0 -0.8110538
vn 0.5849715 0 -0.8110538
vn 0.5849715 0 -0.8110538
vn 0.5849715 0 -0.8110538
vn 0.9171424 0 -0.3985598
vn 0.9171424 0 -0.3985598
vn 0.9171424 0 -0.3985598
vn 0.9171424 0 -0.3985598
vn 0.2428949 0 -0.9700526
vn 0.2428949 0 -0.9700526
vn 0.2428949 0 -0.9700526
vn 0.2428949 0 -0.9700526
vn 0.06141092 0 -0.9981126
vn 0.06141092 0 -0.9981126
vn -0.6906475 0 -0.7231916
vn -0.6906475 0 -0.7231916
vn 0.6906477 0 0.7231913
vn 0.6906477 0 0.7231913
vn 0.2664741 0 0.9638421
vn 0.2664741 0 0.9638421
vn -0.5648289 0 0.825208
vn -0.5648289 0 0.825208
vn -0.5648289 0 0.825208
vn -0.5648289 0 0.825208
vn -0.9187019 0 0.3949517
vn -0.9187019 0 0.3949517
vn -0.9187019 0 0.3949517
vn -0.9187019 0 0.3949517
vn -0.8134118 0 0.5816882
vn -0.8134118 0 0.5816882
vn -0.8134118 0 0.5816882
vn -0.8134118 0 0.5816882
vn -0.8371104 0 0.5470339
vn -0.8371104 0 0.5470339
vn -0.8371104 0 0.5470339
vn -0.8371104 0 0.5470339
vn -0.4403433 0 0.8978295
vn -0.4403433 0 0.8978295
vn -0.4403433 0 0.8978295
vn -0.4403433 0 0.8978295
vn -0.9802014 0 0.198003
vn -0.9802014 0 0.198003
vn -0.9802014 0 0.198003
vn -0.9802014 0 0.198003
vn -0.999881 0 0.01542064
vn -0.999881 0 0.01542064
vn -0.6906475 0 -0.7231916
vn -0.6906475 0 -0.7231916
g _0
f 3/3/3 2/2/2 1/1/1
f 2/2/2 3/3/3 4/4/4
f 5/5/5 4/4/4 3/3/3
f 4/4/4 5/5/5 6/6/6
f 7/7/7 6/6/6 5/5/5
f 6/6/6 7/7/7 8/8/8
f 9/9/9 8/8/8 7/7/7
f 8/8/8 9/9/9 10/10/10
f 11/11/11 10/10/10 9/9/9
f 10/10/10 11/11/11 12/12/12
f 13/13/13 12/12/12 11/11/11
f 12/12/12 13/13/13 14/14/14
f 15/15/15 14/14/14 13/13/13
f 14/14/14 15/15/15 16/16/16
f 17/17/17 16/16/16 15/15/15
f 16/16/16 17/17/17 18/18/18
g _1
f 19/19/19 20/20/20 21/21/21
f 22/22/22 21/21/21 20/20/20
f 23/23/23 24/24/24 25/25/25
f 26/26/26 25/25/25 24/24/24
f 27/27/27 28/28/28 29/29/29
f 30/30/30 29/29/29 28/28/28
f 31/31/31 32/32/32 33/33/33
f 34/34/34 33/33/33 32/32/32
f 35/35/35 36/36/36 37/37/37
f 38/38/38 37/37/37 36/36/36
f 39/39/39 40/40/40 41/41/41
f 42/42/42 41/41/41 40/40/40
f 43/43/43 44/44/44 45/45/45
f 46/46/46 45/45/45 44/44/44
f 47/47/47 48/48/48 49/49/49
f 50/50/50 49/49/49 48/48/48
f 53/53/53 52/52/52 51/51/51
f 52/52/52 53/53/53 54/54/54
f 57/57/57 56/56/56 55/55/55
f 56/56/56 57/57/57 58/58/58
f 61/61/61 60/60/60 59/59/59
f 60/60/60 61/61/61 62/62/62
f 65/65/65 64/64/64 63/63/63
f 64/64/64 65/65/65 66/66/66
f 69/69/69 68/68/68 67/67/67
f 68/68/68 69/69/69 70/70/70
f 73/73/73 72/72/72 71/71/71
f 72/72/72 73/73/73 74/74/74
f 77/77/77 76/76/76 75/75/75
f 76/76/76 77/77/77 78/78/78
f 81/81/81 80/80/80 79/79/79
f 80/80/80 81/81/81 82/82/82
f 51/51/51 20/20/20 19/19/19
f 20/20/20 51/51/51 52/52/52
f 49/49/49 50/50/50 81/81/81
f 82/82/82 81/81/81 50/50/50
