g 
v 79.30074 59.59 -16.31287
v 79.30074 45.59 -16.31287
v 76.86173 59.59 -18.00706
v 76.86173 45.59 -18.00706
v 74.63505 59.59 -17.77249
v 74.63505 45.59 -17.77249
v 73.8086 59.59 -15.06368
v 73.8086 45.59 -15.06368
v 76.91215 59.59 -13.1109
v 76.91215 45.59 -13.1109
v 80.08593 59.59 -14.49033
v 80.08593 45.59 -14.49033
v 79.30074 59.59 -16.31287
v 79.30074 45.59 -16.31287
vt -0.8140073 -0.2761287
vt -0.8140073 -0.2761287
vt -0.7896173 -0.2930706
vt -0.7896173 -0.2930706
vt -0.7673504 -0.2907249
vt -0.7673504 -0.2907249
vt -0.759086 -0.2636368
vt -0.759086 -0.2636368
vt -0.7901214 -0.244109
vt -0.7901214 -0.244109
vt -0.8218592 -0.2579033
vt -0.8218592 -0.2579033
vt -0.8140073 -0.2761287
vt -0.8140073 -0.2761287
vn 0.5704955 0 -0.8213007
vn 0.5704955 0 -0.8213007
vn -0.1047651 0 -0.994497
vn -0.1047651 0 -0.994497
vn -0.9564746 0 -0.2918158
vn -0.9564746 0 -0.2918158
vn -0.532558 0 0.8463935
vn -0.532558 0 0.8463935
vn 0.3986121 0 0.9171196
vn 0.3986121 0 0.9171196
vn 0.9183939 0 -0.3956673
vn 0.9183939 0 -0.3956673
vn 0.9183939 0 -0.3956673
vn 0.9183939 0 -0.3956673
g _0
f 1/1/1 2/2/2 3/3/3
f 4/4/4 3/3/3 2/2/2
f 3/3/3 4/4/4 5/5/5
f 6/6/6 5/5/5 4/4/4
f 5/5/5 6/6/6 7/7/7
f 8/8/8 7/7/7 6/6/6
f 7/7/7 8/8/8 9/9/9
f 10/10/10 9/9/9 8/8/8
f 9/9/9 10/10/10 11/11/11
f 12/12/12 11/11/11 10/10/10
f 11/11/11 12/12/12 13/13/13
f 14/14/14 13/13/13 12/12/12
