g 
v 46.50361 65.25194 73.93165
v 46.50361 51.25194 73.93165
v 44.39594 65.25343 76.04453
v 44.39594 51.25343 76.04453
v 43.42173 65.25343 80.42299
v 43.42173 51.25343 80.42299
v 40.73802 65.25343 83.66588
v 40.73802 51.25343 83.66588
v 34.74802 65.24148 84.86268
v 34.74802 51.24148 84.86268
v 31.16656 65.25343 84.6982
v 31.16656 51.25343 84.6982
v 26.39591 65.24828 82.44852
v 26.39591 51.24828 82.44852
v 26.56042 65.25343 78.46021
v 26.56042 51.25343 78.46021
v 25.05774 65.25343 77.69849
v 25.05774 51.25343 77.69849
v 21.7889 59.59 77.09767
v 21.7889 45.59 77.09767
v 22.11519 59.59 81.62032
v 22.11519 45.59 81.62032
v 25.14217 59.59 87.42938
v 25.14217 45.59 87.42938
v 28.99237 59.59 89.22961
v 28.99237 45.59 89.22961
v 33.68978 59.59 89.44867
v 33.68978 45.59 89.44867
v 37.85955 59.59 91.07913
v 37.85955 45.59 91.07913
v 42.59997 59.59 89.17677
v 42.59997 45.59 89.17677
v 42.47285 59.59 85.2938
v 42.47285 45.59 85.2938
v 46.47384 59.59 82.39934
v 46.47384 45.59 82.39934
v 48.52523 59.59 75.37657
v 48.52523 45.59 75.37657
v 46.50361 65.25194 73.93165
v 46.50361 51.25194 73.93165
vt -0.4860361 0.6263165
vt -0.4860361 0.6263165
vt -0.4649594 0.6474452
vt -0.4649594 0.6474452
vt -0.4552173 0.6912298
vt -0.4552173 0.6912298
vt -0.4283802 0.7236587
vt -0.4283802 0.7236587
vt -0.3684802 0.7356268
vt -0.3684802 0.7356268
vt -0.3326656 0.7339819
vt -0.3326656 0.7339819
vt -0.2849591 0.7114852
vt -0.2849591 0.7114852
vt -0.2866042 0.671602
vt -0.2866042 0.671602
vt -0.2715774 0.6639849
vt -0.2715774 0.6639849
vt -0.238889 0.6579767
vt -0.238889 0.6579767
vt -0.2421519 0.7032032
vt -0.2421519 0.7032032
vt -0.2724217 0.7612938
vt -0.2724217 0.7612938
vt -0.3109237 0.779296
vt -0.3109237 0.779296
vt -0.3578978 0.7814866
vt -0.3578978 0.7814866
vt -0.3995955 0.7977913
vt -0.3995955 0.7977913
vt -0.4469997 0.7787677
vt -0.4469997 0.7787677
vt -0.4457285 0.739938
vt -0.4457285 0.739938
vt -0.4857384 0.7109933
vt -0.4857384 0.7109933
vt -0.5062523 0.6407657
vt -0.5062523 0.6407657
vt -0.4860361 0.6263165
vt -0.4860361 0.6263165
vn -0.707978 0 -0.7062345
vn -0.707978 0 -0.7062345
vn -0.9761295 0 -0.217189
vn -0.9761295 0 -0.217189
vn -0.7704016 0 -0.6375589
vn -0.7704016 0 -0.6375589
vn -0.1959272 0 -0.9806184
vn -0.1959272 0 -0.9806184
vn 0.04587758 0 -0.9989471
vn 0.04587758 0 -0.9989471
vn 0.4265209 0 -0.9044777
vn 0.4265209 0 -0.9044777
vn 0.9991504 0 0.04121213
vn 0.9991504 0 0.04121213
vn 0.4521326 0 -0.8919507
vn 0.4521326 0 -0.8919507
vn 0.1807743 0 -0.9835246
vn 0.1807743 0 -0.9835246
vn -0.9974076 0 0.07195956
vn -0.9974076 0 0.07195956
vn -0.8868249 0 0.4621057
vn -0.8868249 0 0.4621057
vn -0.4235546 0 0.9058706
vn -0.4235546 0 0.9058706
vn -0.04658415 0 0.9989144
vn -0.04658415 0 0.9989144
vn -0.3641696 0 0.9313326
vn -0.3641696 0 0.9313326
vn 0.3724352 0 0.9280582
vn 0.3724352 0 0.9280582
vn 0.9994645 0 -0.03272052
vn 0.9994645 0 -0.03272052
vn 0.5861372 0 0.8102118
vn 0.5861372 0 0.8102118
vn 0.9598865 0 0.280389
vn 0.9598865 0 0.280389
vn 0.5814801 0 -0.8135606
vn 0.5814801 0 -0.8135606
vn 0.5814801 0 -0.8135606
vn 0.5814801 0 -0.8135606
g _0
f 1/1/1 2/2/2 3/3/3
f 4/4/4 3/3/3 2/2/2
f 3/3/3 4/4/4 5/5/5
f 6/6/6 5/5/5 4/4/4
f 5/5/5 6/6/6 7/7/7
f 8/8/8 7/7/7 6/6/6
f 7/7/7 8/8/8 9/9/9
f 10/10/10 9/9/9 8/8/8
f 9/9/9 10/10/10 11/11/11
f 12/12/12 11/11/11 10/10/10
f 11/11/11 12/12/12 13/13/13
f 14/14/14 13/13/13 12/12/12
f 13/13/13 14/14/14 15/15/15
f 16/16/16 15/15/15 14/14/14
f 15/15/15 16/16/16 17/17/17
f 18/18/18 17/17/17 16/16/16
f 17/17/17 18/18/18 19/19/19
f 20/20/20 19/19/19 18/18/18
f 19/19/19 20/20/20 21/21/21
f 22/22/22 21/21/21 20/20/20
f 21/21/21 22/22/22 23/23/23
f 24/24/24 23/23/23 22/22/22
f 23/23/23 24/24/24 25/25/25
f 26/26/26 25/25/25 24/24/24
f 25/25/25 26/26/26 27/27/27
f 28/28/28 27/27/27 26/26/26
f 27/27/27 28/28/28 29/29/29
f 30/30/30 29/29/29 28/28/28
f 29/29/29 30/30/30 31/31/31
f 32/32/32 31/31/31 30/30/30
f 31/31/31 32/32/32 33/33/33
f 34/34/34 33/33/33 32/32/32
f 33/33/33 34/34/34 35/35/35
f 36/36/36 35/35/35 34/34/34
f 35/35/35 36/36/36 37/37/37
f 38/38/38 37/37/37 36/36/36
f 37/37/37 38/38/38 39/39/39
f 40/40/40 39/39/39 38/38/38
