g 
v -34.69364 108.4166 -141.5358
v -34.69364 94.41657 -141.5358
v -33.04199 108.4166 -140.0239
v -33.04199 94.41657 -140.0239
v -33.7011 108.4166 -137.215
v -33.7011 94.41657 -137.215
v -36.1603 108.4166 -136.0897
v -36.1603 94.41657 -136.0897
v -39.80309 108.4166 -138.4594
v -39.80309 94.41657 -138.4594
v -39.43427 108.4166 -141.7461
v -39.43427 94.41657 -141.7461
v -38.48043 108.4166 -142.4326
v -38.48043 94.41657 -142.4326
v -36.37485 108.4166 -142.2182
v -36.37485 94.41657 -142.2182
v -34.69364 108.4166 -141.5358
v -34.69364 94.41657 -141.5358
vt 1.174491 -0.9278024
vt 1.174491 -0.9278024
vt 1.157975 -0.9126832
vt 1.157975 -0.9126832
vt 1.164566 -0.8845938
vt 1.164566 -0.8845938
vt 1.189158 -0.8733409
vt 1.189158 -0.8733409
vt 1.225586 -0.8970375
vt 1.225586 -0.8970375
vt 1.221898 -0.9299052
vt 1.221898 -0.9299052
vt 1.212359 -0.93677
vt 1.212359 -0.93677
vt 1.191303 -0.9346255
vt 1.191303 -0.9346255
vt 1.174491 -0.9278024
vt 1.174491 -0.9278024
vn 0.6752161 0 -0.73762
vn 0.6752161 0 -0.73762
vn 0.9735579 0 0.22844
vn 0.9735579 0 0.22844
vn 0.4160906 0 0.9093232
vn 0.4160906 0 0.9093232
vn -0.5452875 0 0.8382491
vn -0.5452875 0 0.8382491
vn -0.9937631 0 -0.1115113
vn -0.9937631 0 -0.1115113
vn -0.5841429 0 -0.8116509
vn -0.5841429 0 -0.8116509
vn 0.1013227 0 -0.9948536
vn 0.1013227 0 -0.9948536
vn 0.3760564 0 -0.9265968
vn 0.3760564 0 -0.9265968
vn 0.3760564 0 -0.9265968
vn 0.3760564 0 -0.9265968
g _0
f 3/3/3 2/2/2 1/1/1
f 2/2/2 3/3/3 4/4/4
f 5/5/5 4/4/4 3/3/3
f 4/4/4 5/5/5 6/6/6
f 7/7/7 6/6/6 5/5/5
f 6/6/6 7/7/7 8/8/8
f 9/9/9 8/8/8 7/7/7
f 8/8/8 9/9/9 10/10/10
f 11/11/11 10/10/10 9/9/9
f 10/10/10 11/11/11 12/12/12
f 13/13/13 12/12/12 11/11/11
f 12/12/12 13/13/13 14/14/14
f 15/15/15 14/14/14 13/13/13
f 14/14/14 15/15/15 16/16/16
f 17/17/17 16/16/16 15/15/15
f 16/16/16 17/17/17 18/18/18
