g 
v -94.39317 8.25 7.420574
v -103.0843 8.25 13.05501
v -92.00092 8.25 3.071135
v -108.0314 8.25 13.46361
v -90.83186 8.25 -1.333913
v -112.53 8.25 12.73285
v -93.30106 8.25 -8.53815
v -118.0989 8.25 7.538149
v -94.9874 8.25 -13.6887
v -122.1126 8.25 3.896392
v -96.86109 8.25 -19.41154
v -126.5722 8.25 -0.1500025
v -98.40233 8.25 -25.34992
v -131.3643 8.25 -3.980846
v -99.16779 8.25 -31.79124
v -136.9322 8.25 -7.308757
v -99.93324 8.25 -38.23254
v -142.5001 8.25 -10.63669
v -101.4744 8.25 -44.17091
v -147.2922 8.25 -14.46756
v -103.3482 8.25 -49.89375
v -151.7518 8.25 -18.51395
v -105.0345 8.25 -55.0443
v -155.7655 8.25 -22.1557
v -116.4273 8.25 -65.67151
v -160.817 8.25 -36.894
v -125.6304 8.25 -67.16647
v -158.4253 8.25 -45.90576
v -135.7511 8.25 -66.33059
v -153.5313 8.25 -54.80375
v -94.39317 8.25 7.420574
v -94.39317 -41.75 7.420574
v -92.00092 8.25 3.071135
v -92.00092 -41.75 3.071135
v -92.00092 8.25 3.071135
v -92.00092 -41.75 3.071135
v -90.83186 8.25 -1.333913
v -90.83186 -41.75 -1.333913
v -90.83186 8.25 -1.333913
v -90.83186 -41.75 -1.333913
v -93.30106 8.25 -8.53815
v -93.30106 -41.75 -8.53815
v -93.30106 8.25 -8.53815
v -93.30106 -41.75 -8.53815
v -94.9874 8.25 -13.6887
v -94.9874 -41.75 -13.6887
v -94.9874 8.25 -13.6887
v -94.9874 -41.75 -13.6887
v -96.86109 8.25 -19.41154
v -96.86109 -41.75 -19.41154
v -96.86109 8.25 -19.41154
v -96.86109 -41.75 -19.41154
v -98.40233 8.25 -25.34992
v -98.40233 -41.75 -25.34992
v -98.40233 8.25 -25.34992
v -98.40233 -41.75 -25.34992
v -99.16779 8.25 -31.79124
v -99.16779 -41.75 -31.79124
v -99.16779 8.25 -31.79124
v -99.16779 -41.75 -31.79124
v -99.93324 8.25 -38.23254
v -99.93324 -41.75 -38.23254
v -99.93324 8.25 -38.23254
v -99.93324 -41.75 -38.23254
v -101.4744 8.25 -44.17091
v -101.4744 -41.75 -44.17091
v -101.4744 8.25 -44.17091
v -101.4744 -41.75 -44.17091
v -103.3482 8.25 -49.89375
v -103.3482 -41.75 -49.89375
v -103.3482 8.25 -49.89375
v -103.3482 -41.75 -49.89375
v -105.0345 8.25 -55.0443
v -105.0345 -41.75 -55.0443
v -105.0345 8.25 -55.0443
v -105.0345 -41.75 -55.0443
v -116.4273 8.25 -65.67151
v -116.4273 -41.75 -65.67151
v -116.4273 8.25 -65.67151
v -116.4273 -41.75 -65.67151
v -125.6304 8.25 -67.16647
v -125.6304 -41.75 -67.16647
v -125.6304 8.25 -67.16647
v -125.6304 -41.75 -67.16647
v -135.7511 8.25 -66.33059
v -135.7511 -41.75 -66.33059
v -103.0843 8.25 13.05501
v -103.0843 -41.75 13.05501
v -108.0314 8.25 13.46361
v -108.0314 -41.75 13.46361
v -108.0314 8.25 13.46361
v -108.0314 -41.75 13.46361
v -112.53 8.25 12.73285
v -112.53 -41.75 12.73285
v -112.53 8.25 12.73285
v -112.53 -41.75 12.73285
v -118.0989 8.25 7.538149
v -118.0989 -41.75 7.538149
v -118.0989 8.25 7.538149
v -118.0989 -41.75 7.538149
v -122.1126 8.25 3.896392
v -122.1126 -41.75 3.896392
v -122.1126 8.25 3.896392
v -122.1126 -41.75 3.896392
v -126.5722 8.25 -0.1500025
v -126.5722 -41.75 -0.1500025
v -126.5722 8.25 -0.1500025
v -126.5722 -41.75 -0.1500025
v -131.3643 8.25 -3.980846
v -131.3643 -41.75 -3.980846
v -131.3643 8.25 -3.980846
v -131.3643 -41.75 -3.980846
v -136.9322 8.25 -7.308757
v -136.9322 -41.75 -7.308757
v -136.9322 8.25 -7.308757
v -136.9322 -41.75 -7.308757
v -142.5001 8.25 -10.63669
v -142.5001 -41.75 -10.63669
v -142.5001 8.25 -10.63669
v -142.5001 -41.75 -10.63669
v -147.2922 8.25 -14.46756
v -147.2922 -41.75 -14.46756
v -147.2922 8.25 -14.46756
v -147.2922 -41.75 -14.46756
v -151.7518 8.25 -18.51395
v -151.7518 -41.75 -18.51395
v -151.7518 8.25 -18.51395
v -151.7518 -41.75 -18.51395
v -155.7655 8.25 -22.1557
v -155.7655 -41.75 -22.1557
v -155.7655 8.25 -22.1557
v -155.7655 -41.75 -22.1557
v -160.817 8.25 -36.894
v -160.817 -41.75 -36.894
v -160.817 8.25 -36.894
v -160.817 -41.75 -36.894
v -158.4253 8.25 -45.90576
v -158.4253 -41.75 -45.90576
v -158.4253 8.25 -45.90576
v -158.4253 -41.75 -45.90576
v -153.5313 8.25 -54.80375
v -153.5313 -41.75 -54.80375
vt -0.01835342 0.03431029
vt -0.01400783 0.03712751
vt -0.01954955 0.03213557
vt -0.0115343 0.03733181
vt -0.02013408 0.02993305
vt -0.009285008 0.03696642
vt -0.01889947 0.02633093
vt -0.006500534 0.03436908
vt -0.01805631 0.02375565
vt -0.004493702 0.0325482
vt -0.01711946 0.02089423
vt -0.002263889 0.030525
vt -0.01634884 0.01792504
vt 0.0001321564 0.02860958
vt -0.01596611 0.01470438
vt 0.0029161 0.02694562
vt -0.01558339 0.01148373
vt 0.005700051 0.02528166
vt -0.01481278 0.008514548
vt 0.0080961 0.02336622
vt -0.01387592 0.005653128
vt 0.01032591 0.02134303
vt -0.01303276 0.003077852
vt 0.01233275 0.01952215
vt -0.007336339 -0.002235754
vt 0.01485848 0.012153
vt -0.002734795 -0.002983236
vt 0.01366265 0.007647122
vt 0.002325523 -0.002565294
vt 0.01121565 0.003198128
vt -0.01835342 0.03431029
vt -0.01835342 0.03431029
vt -0.01954955 0.03213557
vt -0.01954955 0.03213557
vt -0.01954955 0.03213557
vt -0.01954955 0.03213557
vt -0.02013408 0.02993305
vt -0.02013408 0.02993305
vt -0.02013408 0.02993305
vt -0.02013408 0.02993305
vt -0.01889947 0.02633093
vt -0.01889947 0.02633093
vt -0.01889947 0.02633093
vt -0.01889947 0.02633093
vt -0.01805631 0.02375565
vt -0.01805631 0.02375565
vt -0.01805631 0.02375565
vt -0.01805631 0.02375565
vt -0.01711946 0.02089423
vt -0.01711946 0.02089423
vt -0.01711946 0.02089423
vt -0.01711946 0.02089423
vt -0.01634884 0.01792504
vt -0.01634884 0.01792504
vt -0.01634884 0.01792504
vt -0.01634884 0.01792504
vt -0.01596611 0.01470438
vt -0.01596611 0.01470438
vt -0.01596611 0.01470438
vt -0.01596611 0.01470438
vt -0.01558339 0.01148373
vt -0.01558339 0.01148373
vt -0.01558339 0.01148373
vt -0.01558339 0.01148373
vt -0.01481278 0.008514548
vt -0.01481278 0.008514548
vt -0.01481278 0.008514548
vt -0.01481278 0.008514548
vt -0.01387592 0.005653128
vt -0.01387592 0.005653128
vt -0.01387592 0.005653128
vt -0.01387592 0.005653128
vt -0.01303276 0.003077852
vt -0.01303276 0.003077852
vt -0.01303276 0.003077852
vt -0.01303276 0.003077852
vt -0.007336339 -0.002235754
vt -0.007336339 -0.002235754
vt -0.007336339 -0.002235754
vt -0.007336339 -0.002235754
vt -0.002734795 -0.002983236
vt -0.002734795 -0.002983236
vt -0.002734795 -0.002983236
vt -0.002734795 -0.002983236
vt 0.002325523 -0.002565294
vt 0.002325523 -0.002565294
vt -0.01400783 0.03712751
vt -0.01400783 0.03712751
vt -0.0115343 0.03733181
vt -0.0115343 0.03733181
vt -0.0115343 0.03733181
vt -0.0115343 0.03733181
vt -0.009285008 0.03696642
vt -0.009285008 0.03696642
vt -0.009285008 0.03696642
vt -0.009285008 0.03696642
vt -0.006500534 0.03436908
vt -0.006500534 0.03436908
vt -0.006500534 0.03436908
vt -0.006500534 0.03436908
vt -0.004493702 0.0325482
vt -0.004493702 0.0325482
vt -0.004493702 0.0325482
vt -0.004493702 0.0325482
vt -0.002263889 0.030525
vt -0.002263889 0.030525
vt -0.002263889 0.030525
vt -0.002263889 0.030525
vt 0.0001321564 0.02860958
vt 0.0001321564 0.02860958
vt 0.0001321564 0.02860958
vt 0.0001321564 0.02860958
vt 0.0029161 0.02694562
vt 0.0029161 0.02694562
vt 0.0029161 0.02694562
vt 0.0029161 0.02694562
vt 0.005700051 0.02528166
vt 0.005700051 0.02528166
vt 0.005700051 0.02528166
vt 0.005700051 0.02528166
vt 0.0080961 0.02336622
vt 0.0080961 0.02336622
vt 0.0080961 0.02336622
vt 0.0080961 0.02336622
vt 0.01032591 0.02134303
vt 0.01032591 0.02134303
vt 0.01032591 0.02134303
vt 0.01032591 0.02134303
vt 0.01233275 0.01952215
vt 0.01233275 0.01952215
vt 0.01233275 0.01952215
vt 0.01233275 0.01952215
vt 0.01485848 0.012153
vt 0.01485848 0.012153
vt 0.01485848 0.012153
vt 0.01485848 0.012153
vt 0.01366265 0.007647122
vt 0.01366265 0.007647122
vt 0.01366265 0.007647122
vt 0.01366265 0.007647122
vt 0.01121565 0.003198128
vt 0.01121565 0.003198128
vn 0 1 0
vn 0 1 0
vn 0 1 0
vn 0 1 0
vn 0 1 0
vn 0 1 0
vn 0 1 0
vn 0 1 0
vn 0 1 0
vn 0 1 0
vn 0 1 0
vn 0 1 0
vn 0 1 0
vn 0 1 0
vn 0 1 0
vn 0 1 0
vn 0 1 0
vn 0 1 0
vn 0 1 0
vn 0 1 0
vn 0 1 0
vn 0 1 0
vn 0 1 0
vn 0 1 0
vn 0 1 0
vn 0 1 0
vn 0 1 0
vn 0 1 0
vn 0 1 0
vn 0 1 0
vn 0.5439817 0 0.8390971
vn 0.5439817 0 0.8390971
vn 0.8762109 0 0.4819278
vn 0.8762109 0 0.4819278
vn 0.9665412 0 0.2565113
vn 0.9665412 0 0.2565113
vn 0.9665412 0 0.2565113
vn 0.9665412 0 0.2565113
vn 0.9459788 0 -0.3242284
vn 0.9459788 0 -0.3242284
vn 0.9459788 0 -0.3242284
vn 0.9459788 0 -0.3242284
vn 0.9503591 0 -0.3111553
vn 0.9503591 0 -0.3111553
vn 0.9503591 0 -0.3111553
vn 0.9503591 0 -0.3111553
vn 0.9503595 0 -0.3111542
vn 0.9503595 0 -0.3111542
vn 0.9503595 0 -0.3111542
vn 0.9503595 0 -0.3111542
vn 0.9679313 0 -0.251215
vn 0.9679313 0 -0.251215
vn 0.9679313 0 -0.251215
vn 0.9679313 0 -0.251215
vn 0.993013 0 -0.1180051
vn 0.993013 0 -0.1180051
vn 0.993013 0 -0.1180051
vn 0.993013 0 -0.1180051
vn 0.9930131 0 -0.1180044
vn 0.9930131 0 -0.1180044
vn 0.9930131 0 -0.1180044
vn 0.9930131 0 -0.1180044
vn 0.967932 0 -0.2512122
vn 0.967932 0 -0.2512122
vn 0.967932 0 -0.2512122
vn 0.967932 0 -0.2512122
vn 0.9503587 0 -0.3111562
vn 0.9503587 0 -0.3111562
vn 0.9503587 0 -0.3111562
vn 0.9503587 0 -0.3111562
vn 0.950359 0 -0.3111554
vn 0.950359 0 -0.3111554
vn 0.950359 0 -0.3111554
vn 0.950359 0 -0.3111554
vn 0.6821089 0 -0.7312506
vn 0.6821089 0 -0.7312506
vn 0.6821089 0 -0.7312506
vn 0.6821089 0 -0.7312506
vn 0.16034 0 -0.9870619
vn 0.16034 0 -0.9870619
vn 0.16034 0 -0.9870619
vn 0.16034 0 -0.9870619
vn -0.08231179 0 -0.9966066
vn -0.08231179 0 -0.9966066
vn -0.5439823 0 -0.8390967
vn -0.5439823 0 -0.8390967
vn 0.5439817 0 0.8390971
vn 0.5439817 0 0.8390971
vn 0.08231299 0 0.9966065
vn 0.08231299 0 0.9966065
vn -0.160341 0 0.9870617
vn -0.160341 0 0.9870617
vn -0.160341 0 0.9870617
vn -0.160341 0 0.9870617
vn -0.6821088 0 0.7312507
vn -0.6821088 0 0.7312507
vn -0.6821088 0 0.7312507
vn -0.6821088 0 0.7312507
vn -0.6719623 0 0.7405853
vn -0.6719623 0 0.7405853
vn -0.6719623 0 0.7405853
vn -0.6719623 0 0.7405853
vn -0.6719624 0 0.7405853
vn -0.6719624 0 0.7405853
vn -0.6719624 0 0.7405853
vn -0.6719624 0 0.7405853
vn -0.6244138 0 0.7810937
vn -0.6244138 0 0.7810937
vn -0.6244138 0 0.7810937
vn -0.6244138 0 0.7810937
vn -0.5130416 0 0.8583637
vn -0.5130416 0 0.8583637
vn -0.5130416 0 0.8583637
vn -0.5130416 0 0.8583637
vn -0.5130431 0 0.8583628
vn -0.5130431 0 0.8583628
vn -0.5130431 0 0.8583628
vn -0.5130431 0 0.8583628
vn -0.6244156 0 0.7810923
vn -0.6244156 0 0.7810923
vn -0.6244156 0 0.7810923
vn -0.6244156 0 0.7810923
vn -0.6719619 0 0.7405857
vn -0.6719619 0 0.7405857
vn -0.6719619 0 0.7405857
vn -0.6719619 0 0.7405857
vn -0.6719612 0 0.7405863
vn -0.6719612 0 0.7405863
vn -0.6719612 0 0.7405863
vn -0.6719612 0 0.7405863
vn -0.9459787 0 0.3242288
vn -0.9459787 0 0.3242288
vn -0.9459787 0 0.3242288
vn -0.9459787 0 0.3242288
vn -0.9665406 0 -0.2565136
vn -0.9665406 0 -0.2565136
vn -0.9665406 0 -0.2565136
vn -0.9665406 0 -0.2565136
vn -0.8762109 0 -0.4819278
vn -0.8762109 0 -0.4819278
vn -0.5439823 0 -0.8390967
vn -0.5439823 0 -0.8390967
g _0
f 3/3/3 2/2/2 1/1/1
f 2/2/2 3/3/3 4/4/4
f 5/5/5 4/4/4 3/3/3
f 4/4/4 5/5/5 6/6/6
f 7/7/7 6/6/6 5/5/5
f 6/6/6 7/7/7 8/8/8
f 9/9/9 8/8/8 7/7/7
f 8/8/8 9/9/9 10/10/10
f 11/11/11 10/10/10 9/9/9
f 10/10/10 11/11/11 12/12/12
f 13/13/13 12/12/12 11/11/11
f 12/12/12 13/13/13 14/14/14
f 15/15/15 14/14/14 13/13/13
f 14/14/14 15/15/15 16/16/16
f 17/17/17 16/16/16 15/15/15
f 16/16/16 17/17/17 18/18/18
f 19/19/19 18/18/18 17/17/17
f 18/18/18 19/19/19 20/20/20
f 21/21/21 20/20/20 19/19/19
f 20/20/20 21/21/21 22/22/22
f 23/23/23 22/22/22 21/21/21
f 22/22/22 23/23/23 24/24/24
f 25/25/25 24/24/24 23/23/23
f 24/24/24 25/25/25 26/26/26
f 27/27/27 26/26/26 25/25/25
f 26/26/26 27/27/27 28/28/28
f 29/29/29 28/28/28 27/27/27
f 28/28/28 29/29/29 30/30/30
g _1
f 31/31/31 32/32/32 33/33/33
f 34/34/34 33/33/33 32/32/32
f 35/35/35 36/36/36 37/37/37
f 38/38/38 37/37/37 36/36/36
f 39/39/39 40/40/40 41/41/41
f 42/42/42 41/41/41 40/40/40
f 43/43/43 44/44/44 45/45/45
f 46/46/46 45/45/45 44/44/44
f 47/47/47 48/48/48 49/49/49
f 50/50/50 49/49/49 48/48/48
f 51/51/51 52/52/52 53/53/53
f 54/54/54 53/53/53 52/52/52
f 55/55/55 56/56/56 57/57/57
f 58/58/58 57/57/57 56/56/56
f 59/59/59 60/60/60 61/61/61
f 62/62/62 61/61/61 60/60/60
f 63/63/63 64/64/64 65/65/65
f 66/66/66 65/65/65 64/64/64
f 67/67/67 68/68/68 69/69/69
f 70/70/70 69/69/69 68/68/68
f 71/71/71 72/72/72 73/73/73
f 74/74/74 73/73/73 72/72/72
f 75/75/75 76/76/76 77/77/77
f 78/78/78 77/77/77 76/76/76
f 79/79/79 80/80/80 81/81/81
f 82/82/82 81/81/81 80/80/80
f 83/83/83 84/84/84 85/85/85
f 86/86/86 85/85/85 84/84/84
f 89/89/89 88/88/88 87/87/87
f 88/88/88 89/89/89 90/90/90
f 93/93/93 92/92/92 91/91/91
f 92/92/92 93/93/93 94/94/94
f 97/97/97 96/96/96 95/95/95
f 96/96/96 97/97/97 98/98/98
f 101/101/101 100/100/100 99/99/99
f 100/100/100 101/101/101 102/102/102
f 105/105/105 104/104/104 103/103/103
f 104/104/104 105/105/105 106/106/106
f 109/109/109 108/108/108 107/107/107
f 108/108/108 109/109/109 110/110/110
f 113/113/113 112/112/112 111/111/111
f 112/112/112 113/113/113 114/114/114
f 117/117/117 116/116/116 115/115/115
f 116/116/116 117/117/117 118/118/118
f 121/121/121 120/120/120 119/119/119
f 120/120/120 121/121/121 122/122/122
f 125/125/125 124/124/124 123/123/123
f 124/124/124 125/125/125 126/126/126
f 129/129/129 128/128/128 127/127/127
f 128/128/128 129/129/129 130/130/130
f 133/133/133 132/132/132 131/131/131
f 132/132/132 133/133/133 134/134/134
f 137/137/137 136/136/136 135/135/135
f 136/136/136 137/137/137 138/138/138
f 141/141/141 140/140/140 139/139/139
f 140/140/140 141/141/141 142/142/142
f 87/87/87 32/32/32 31/31/31
f 32/32/32 87/87/87 88/88/88
f 85/85/85 86/86/86 141/141/141
f 142/142/142 141/141/141 86/86/86
