g 
v 355.4 28.59329 10.4
v 355.4 17.40671 10.4
v 156.1 28.59329 -62.5
v 156.1 17.40671 -62.5
v 118.5 27.21568 -69.4
v 118.5 18.78432 -69.4
v 90 27.21568 -73.1
v 90 18.78432 -73.1
v 64.1 27.21568 -70.1
v 64.1 18.78432 -70.1
v 18.4 27.21568 -70.5
v 18.4 18.78432 -70.5
v -0.7 27.21568 -66.9
v -0.7 18.78432 -66.9
v -31.8 27.21568 -65.3
v -31.8 18.78432 -65.3
v -172 27.21568 -62.3
v -172 18.78432 -62.3
vt -3.575 0.3600908
vt -3.575 -0.4483493
vt -1.582 -0.3075727
vt -1.582 -1.116013
vt -1.206 -0.4703255
vt -1.206 -1.079649
vt -0.9209999 -0.5042124
vt -0.9209999 -1.113536
vt -0.6619999 -0.4767365
vt -0.6619999 -1.08606
vt -0.205 -0.4804
vt -0.205 -1.089723
vt -0.01399998 -0.4474289
vt -0.01399998 -1.056752
vt 0.297 -0.4327751
vt 0.297 -1.042099
vt 1.699 -0.4052992
vt 1.699 -1.014623
vn 0.3435207 0 -0.939145
vn 0.3435207 0 -0.939145
vn 0.1804966 0 -0.9835756
vn 0.1804966 0 -0.9835756
vn 0.128744 0 -0.9916779
vn 0.128744 0 -0.9916779
vn -0.1150608 0 -0.9933585
vn -0.1150608 0 -0.9933585
vn 0.008752434 0 -0.9999617
vn 0.008752434 0 -0.9999617
vn -0.1852203 0 -0.9826971
vn -0.1852203 0 -0.9826971
vn -0.05137895 0 -0.9986793
vn -0.05137895 0 -0.9986793
vn -0.02139313 0 -0.9997711
vn -0.02139313 0 -0.9997711
vn -0.02139313 0 -0.9997711
vn -0.02139313 0 -0.9997711
g _0
f 1/1/1 2/2/2 3/3/3
f 4/4/4 3/3/3 2/2/2
f 3/3/3 4/4/4 5/5/5
f 6/6/6 5/5/5 4/4/4
f 5/5/5 6/6/6 7/7/7
f 8/8/8 7/7/7 6/6/6
f 7/7/7 8/8/8 9/9/9
f 10/10/10 9/9/9 8/8/8
f 9/9/9 10/10/10 11/11/11
f 12/12/12 11/11/11 10/10/10
f 11/11/11 12/12/12 13/13/13
f 14/14/14 13/13/13 12/12/12
f 13/13/13 14/14/14 15/15/15
f 16/16/16 15/15/15 14/14/14
f 15/15/15 16/16/16 17/17/17
f 18/18/18 17/17/17 16/16/16
