g 
v -0.01226449 17.6 -15.02492
v -5.698617 17.6 -19.84772
v 2.359835 17.6 -15.3616
v -5.753673 17.6 -22.24297
v 7.533476 17.6 -16.64353
v -5.333476 17.6 -27.55647
v 13.03298 17.6 -23.23011
v 0.2670197 17.6 -34.0574
v 17.97029 17.6 -31.54361
v 7.663049 17.6 -40.28556
v 24.21305 17.6 -38.7499
v 13.75362 17.6 -47.62094
v 30.39676 17.6 -46.00628
v 19.90324 17.6 -54.90623
v 36.89045 17.6 -51.74964
v 24.50955 17.6 -62.25036
v 38.93839 17.6 -56.07674
v 28.4443 17.6 -64.97717
v 37.71137 17.6 -59.62923
v 32.14943 17.6 -64.34651
v -0.01226449 17.6 -15.02492
v -0.01226449 -2.4 -15.02492
v 2.359835 17.6 -15.3616
v 2.359835 -2.4 -15.3616
v 2.359835 17.6 -15.3616
v 2.359835 -2.4 -15.3616
v 7.533476 17.6 -16.64353
v 7.533476 -2.4 -16.64353
v 7.533476 17.6 -16.64353
v 7.533476 -2.4 -16.64353
v 13.03298 17.6 -23.23011
v 13.03298 -2.4 -23.23011
v 13.03298 17.6 -23.23011
v 13.03298 -2.4 -23.23011
v 17.97029 17.6 -31.54361
v 17.97029 -2.4 -31.54361
v 17.97029 17.6 -31.54361
v 17.97029 -2.4 -31.54361
v 24.21305 17.6 -38.7499
v 24.21305 -2.4 -38.7499
v 24.21305 17.6 -38.7499
v 24.21305 -2.4 -38.7499
v 30.39676 17.6 -46.00628
v 30.39676 -2.4 -46.00628
v 30.39676 17.6 -46.00628
v 30.39676 -2.4 -46.00628
v 36.89045 17.6 -51.74964
v 36.89045 -2.4 -51.74964
v 36.89045 17.6 -51.74964
v 36.89045 -2.4 -51.74964
v 38.93839 17.6 -56.07674
v 38.93839 -2.4 -56.07674
v 38.93839 17.6 -56.07674
v 38.93839 -2.4 -56.07674
v 37.71137 17.6 -59.62923
v 37.71137 -2.4 -59.62923
v -5.698617 17.6 -19.84772
v -5.698617 -2.4 -19.84772
v -5.753673 17.6 -22.24297
v -5.753673 -2.4 -22.24297
v -5.753673 17.6 -22.24297
v -5.753673 -2.4 -22.24297
v -5.333476 17.6 -27.55647
v -5.333476 -2.4 -27.55647
v -5.333476 17.6 -27.55647
v -5.333476 -2.4 -27.55647
v 0.2670197 17.6 -34.0574
v 0.2670197 -2.4 -34.0574
v 0.2670197 17.6 -34.0574
v 0.2670197 -2.4 -34.0574
v 7.663049 17.6 -40.28556
v 7.663049 -2.4 -40.28556
v 7.663049 17.6 -40.28556
v 7.663049 -2.4 -40.28556
v 13.75362 17.6 -47.62094
v 13.75362 -2.4 -47.62094
v 13.75362 17.6 -47.62094
v 13.75362 -2.4 -47.62094
v 19.90324 17.6 -54.90623
v 19.90324 -2.4 -54.90623
v 19.90324 17.6 -54.90623
v 19.90324 -2.4 -54.90623
v 24.50955 17.6 -62.25036
v 24.50955 -2.4 -62.25036
v 24.50955 17.6 -62.25036
v 24.50955 -2.4 -62.25036
v 28.4443 17.6 -64.97717
v 28.4443 -2.4 -64.97717
v 28.4443 17.6 -64.97717
v 28.4443 -2.4 -64.97717
v 32.14943 17.6 -64.34651
v 32.14943 -2.4 -64.34651
vt 0.05812474 -0.0532229
vt 0.05750892 -0.04757967
vt 0.05961177 -0.05427935
vt 0.05873309 -0.04622736
vt 0.06314188 -0.05628091
vt 0.0617484 -0.04351152
vt 0.06963054 -0.05552211
vt 0.068248 -0.04285295
vt 0.0767131 -0.05351465
vt 0.07559685 -0.04328557
vt 0.08393705 -0.05280275
vt 0.08280429 -0.04242263
vt 0.09115459 -0.05203224
vt 0.09001815 -0.04161829
vt 0.09775091 -0.0522601
vt 0.09641007 -0.03997307
vt 0.101149 -0.05094188
vt 0.1000125 -0.04052736
vt 0.1023317 -0.04833628
vt 0.1017294 -0.04281653
vt 0.05812474 -0.0532229
vt 0.05812474 -0.0532229
vt 0.05961177 -0.05427935
vt 0.05961177 -0.05427935
vt 0.05961177 -0.05427935
vt 0.05961177 -0.05427935
vt 0.06314188 -0.05628091
vt 0.06314188 -0.05628091
vt 0.06314188 -0.05628091
vt 0.06314188 -0.05628091
vt 0.06963054 -0.05552211
vt 0.06963054 -0.05552211
vt 0.06963054 -0.05552211
vt 0.06963054 -0.05552211
vt 0.0767131 -0.05351465
vt 0.0767131 -0.05351465
vt 0.0767131 -0.05351465
vt 0.0767131 -0.05351465
vt 0.08393705 -0.05280275
vt 0.08393705 -0.05280275
vt 0.08393705 -0.05280275
vt 0.08393705 -0.05280275
vt 0.09115459 -0.05203224
vt 0.09115459 -0.05203224
vt 0.09115459 -0.05203224
vt 0.09115459 -0.05203224
vt 0.09775091 -0.0522601
vt 0.09775091 -0.0522601
vt 0.09775091 -0.0522601
vt 0.09775091 -0.0522601
vt 0.101149 -0.05094188
vt 0.101149 -0.05094188
vt 0.101149 -0.05094188
vt 0.101149 -0.05094188
vt 0.1023317 -0.04833628
vt 0.1023317 -0.04833628
vt 0.05750892 -0.04757967
vt 0.05750892 -0.04757967
vt 0.05873309 -0.04622736
vt 0.05873309 -0.04622736
vt 0.05873309 -0.04622736
vt 0.05873309 -0.04622736
vt 0.0617484 -0.04351152
vt 0.0617484 -0.04351152
vt 0.0617484 -0.04351152
vt 0.0617484 -0.04351152
vt 0.068248 -0.04285295
vt 0.068248 -0.04285295
vt 0.068248 -0.04285295
vt 0.068248 -0.04285295
vt 0.07559685 -0.04328557
vt 0.07559685 -0.04328557
vt 0.07559685 -0.04328557
vt 0.07559685 -0.04328557
vt 0.08280429 -0.04242263
vt 0.08280429 -0.04242263
vt 0.08280429 -0.04242263
vt 0.08280429 -0.04242263
vt 0.09001815 -0.04161829
vt 0.09001815 -0.04161829
vt 0.09001815 -0.04161829
vt 0.09001815 -0.04161829
vt 0.09641007 -0.03997307
vt 0.09641007 -0.03997307
vt 0.09641007 -0.03997307
vt 0.09641007 -0.03997307
vt 0.1000125 -0.04052736
vt 0.1000125 -0.04052736
vt 0.1000125 -0.04052736
vt 0.1000125 -0.04052736
vt 0.1017294 -0.04281653
vt 0.1017294 -0.04281653
vn 0 1 0
vn 0 1 0
vn 0 1 0
vn 0 1 0
vn 0 1 0
vn 0 1 0
vn 0 1 0
vn 0 1 0
vn 0 1 0
vn 0 1 0
vn 0 1 0
vn 0 1 0
vn 0 1 0
vn 0 1 0
vn 0 1 0
vn 0 1 0
vn 0 1 0
vn 0 1 0
vn 0 1 0
vn 0 1 0
vn -0.6468232 0 0.7626399
vn -0.6468232 0 0.7626399
vn 0.1405243 0 0.9900772
vn 0.1405243 0 0.9900772
vn 0.2405081 0 0.9706471
vn 0.2405081 0 0.9706471
vn 0.2405081 0 0.9706471
vn 0.2405081 0 0.9706471
vn 0.7676081 0 0.6409194
vn 0.7676081 0 0.6409194
vn 0.7676081 0 0.6409194
vn 0.7676081 0 0.6409194
vn 0.8598019 0 0.5106278
vn 0.8598019 0 0.5106278
vn 0.8598019 0 0.5106278
vn 0.8598019 0 0.5106278
vn 0.7558284 0 0.6547697
vn 0.7558284 0 0.6547697
vn 0.7558284 0 0.6547697
vn 0.7558284 0 0.6547697
vn 0.7611221 0 0.6486086
vn 0.7611221 0 0.6486086
vn 0.7611221 0 0.6486086
vn 0.7611221 0 0.6486086
vn 0.662505 0 0.7490574
vn 0.662505 0 0.7490574
vn 0.662505 0 0.7490574
vn 0.662505 0 0.7490574
vn 0.9038786 0 0.4277889
vn 0.9038786 0 0.4277889
vn 0.9038786 0 0.4277889
vn 0.9038786 0 0.4277889
vn 0.9452068 0 -0.3264722
vn 0.9452068 0 -0.3264722
vn 0.6468233 0 -0.7626399
vn 0.6468233 0 -0.7626399
vn -0.6468232 0 0.7626399
vn -0.6468232 0 0.7626399
vn -0.999736 0 0.02297913
vn -0.999736 0 0.02297913
vn -0.9968877 0 -0.07883482
vn -0.9968877 0 -0.07883482
vn -0.9968877 0 -0.07883482
vn -0.9968877 0 -0.07883482
vn -0.757626 0 -0.6526889
vn -0.757626 0 -0.6526889
vn -0.757626 0 -0.6526889
vn -0.757626 0 -0.6526889
vn -0.6441317 0 -0.7649146
vn -0.6441317 0 -0.7649146
vn -0.6441317 0 -0.7649146
vn -0.6441317 0 -0.7649146
vn -0.7693674 0 -0.6388065
vn -0.7693674 0 -0.6388065
vn -0.7693674 0 -0.6388065
vn -0.7693674 0 -0.6388065
vn -0.7641537 0 -0.6450342
vn -0.7641537 0 -0.6450342
vn -0.7641537 0 -0.6450342
vn -0.7641537 0 -0.6450342
vn -0.8471562 0 -0.5313439
vn -0.8471562 0 -0.5313439
vn -0.8471562 0 -0.5313439
vn -0.8471562 0 -0.5313439
vn -0.5695989 0 -0.8219228
vn -0.5695989 0 -0.8219228
vn -0.5695989 0 -0.8219228
vn -0.5695989 0 -0.8219228
vn 0.1677994 0 -0.9858211
vn 0.1677994 0 -0.9858211
vn 0.6468233 0 -0.7626399
vn 0.6468233 0 -0.7626399
g _0
f 3/3/3 2/2/2 1/1/1
f 2/2/2 3/3/3 4/4/4
f 5/5/5 4/4/4 3/3/3
f 4/4/4 5/5/5 6/6/6
f 7/7/7 6/6/6 5/5/5
f 6/6/6 7/7/7 8/8/8
f 9/9/9 8/8/8 7/7/7
f 8/8/8 9/9/9 10/10/10
f 11/11/11 10/10/10 9/9/9
f 10/10/10 11/11/11 12/12/12
f 13/13/13 12/12/12 11/11/11
f 12/12/12 13/13/13 14/14/14
f 15/15/15 14/14/14 13/13/13
f 14/14/14 15/15/15 16/16/16
f 17/17/17 16/16/16 15/15/15
f 16/16/16 17/17/17 18/18/18
f 19/19/19 18/18/18 17/17/17
f 18/18/18 19/19/19 20/20/20
g _1
f 21/21/21 22/22/22 23/23/23
f 24/24/24 23/23/23 22/22/22
f 25/25/25 26/26/26 27/27/27
f 28/28/28 27/27/27 26/26/26
f 29/29/29 30/30/30 31/31/31
f 32/32/32 31/31/31 30/30/30
f 33/33/33 34/34/34 35/35/35
f 36/36/36 35/35/35 34/34/34
f 37/37/37 38/38/38 39/39/39
f 40/40/40 39/39/39 38/38/38
f 41/41/41 42/42/42 43/43/43
f 44/44/44 43/43/43 42/42/42
f 45/45/45 46/46/46 47/47/47
f 48/48/48 47/47/47 46/46/46
f 49/49/49 50/50/50 51/51/51
f 52/52/52 51/51/51 50/50/50
f 53/53/53 54/54/54 55/55/55
f 56/56/56 55/55/55 54/54/54
f 59/59/59 58/58/58 57/57/57
f 58/58/58 59/59/59 60/60/60
f 63/63/63 62/62/62 61/61/61
f 62/62/62 63/63/63 64/64/64
f 67/67/67 66/66/66 65/65/65
f 66/66/66 67/67/67 68/68/68
f 71/71/71 70/70/70 69/69/69
f 70/70/70 71/71/71 72/72/72
f 75/75/75 74/74/74 73/73/73
f 74/74/74 75/75/75 76/76/76
f 79/79/79 78/78/78 77/77/77
f 78/78/78 79/79/79 80/80/80
f 83/83/83 82/82/82 81/81/81
f 82/82/82 83/83/83 84/84/84
f 87/87/87 86/86/86 85/85/85
f 86/86/86 87/87/87 88/88/88
f 91/91/91 90/90/90 89/89/89
f 90/90/90 91/91/91 92/92/92
f 57/57/57 22/22/22 21/21/21
f 22/22/22 57/57/57 58/58/58
f 55/55/55 56/56/56 91/91/91
f 92/92/92 91/91/91 56/56/56
