g 
v 36.41487 18.6 -84.04213
v 39.39258 18.6 -86.49352
v 35.90841 18.6 -82.31422
v 41.18559 18.6 -86.65865
v 36.8326 18.6 -79.91013
v 43.3674 18.6 -85.28987
v 41.6237 18.6 -74.34097
v 47.79762 18.6 -79.65785
v 47.27075 17.19 -68.10216
v 53.02925 17.19 -73.75784
v 52.04075 11.61093 -63.78937
v 57.41042 11.61093 -69.81545
v 53.15092 10.78 -62.85268
v 58.34908 10.78 -69.02732
v 55.43358 10.78 -61.94626
v 59.63135 10.78 -66.93259
v 57.08647 10.78 -62.41107
v 59.4551 10.78 -65.22466
v 36.41487 18.6 -84.04213
v 36.41487 -11.4 -84.04213
v 35.90841 18.6 -82.31422
v 35.90841 -11.4 -82.31422
v 35.90841 18.6 -82.31422
v 35.90841 -11.4 -82.31422
v 36.8326 18.6 -79.91013
v 36.8326 -11.4 -79.91013
v 36.8326 18.6 -79.91013
v 36.8326 -11.4 -79.91013
v 41.6237 18.6 -74.34097
v 41.6237 -11.4 -74.34097
v 41.6237 18.6 -74.34097
v 41.6237 -11.4 -74.34097
v 47.27075 17.19 -68.10216
v 47.27075 -12.81 -68.10216
v 47.27075 17.19 -68.10216
v 47.27075 -12.81 -68.10216
v 52.04075 11.61093 -63.78937
v 52.04075 -18.38907 -63.78937
v 52.04075 11.61093 -63.78937
v 52.04075 -18.38907 -63.78937
v 53.15092 10.78 -62.85268
v 53.15092 -19.22 -62.85268
v 53.15092 10.78 -62.85268
v 53.15092 -19.22 -62.85268
v 55.43358 10.78 -61.94626
v 55.43358 -19.22 -61.94626
v 55.43358 10.78 -61.94626
v 55.43358 -19.22 -61.94626
v 57.08647 10.78 -62.41107
v 57.08647 -19.22 -62.41107
v 39.39258 18.6 -86.49352
v 39.39258 -11.4 -86.49352
v 41.18559 18.6 -86.65865
v 41.18559 -11.4 -86.65865
v 41.18559 18.6 -86.65865
v 41.18559 -11.4 -86.65865
v 43.3674 18.6 -85.28987
v 43.3674 -11.4 -85.28987
v 43.3674 18.6 -85.28987
v 43.3674 -11.4 -85.28987
v 47.79762 18.6 -79.65785
v 47.79762 -11.4 -79.65785
v 47.79762 18.6 -79.65785
v 47.79762 -11.4 -79.65785
v 53.02925 17.19 -73.75784
v 53.02925 -12.81 -73.75784
v 53.02925 17.19 -73.75784
v 53.02925 -12.81 -73.75784
v 57.41042 11.61093 -69.81545
v 57.41042 -18.38907 -69.81545
v 57.41042 11.61093 -69.81545
v 57.41042 -18.38907 -69.81545
v 58.34908 10.78 -69.02732
v 58.34908 -19.22 -69.02732
v 58.34908 10.78 -69.02732
v 58.34908 -19.22 -69.02732
v 59.63135 10.78 -66.93259
v 59.63135 -19.22 -66.93259
v 59.63135 10.78 -66.93259
v 59.63135 -19.22 -66.93259
v 59.4551 10.78 -65.22466
v 59.4551 -19.22 -65.22466
vt -0.1108001 0.03456354
vt -0.106947 0.03439176
vt -0.1123329 0.03361876
vt -0.1055043 0.03331433
vt -0.1132554 0.03121401
vt -0.1047995 0.03083702
vt -0.1134234 0.02386949
vt -0.1052777 0.02368735
vt -0.1134037 0.01545453
vt -0.1053398 0.01580216
vt -0.1127464 0.009057572
vt -0.1047235 0.009940656
vt -0.1125486 0.007618571
vt -0.1045536 0.008726826
vt -0.1114593 0.005417276
vt -0.105003 0.006312247
vt -0.1099202 0.004656286
vt -0.1062771 0.005161282
vt -0.1108001 0.03456354
vt -0.1108001 0.03456354
vt -0.1123329 0.03361876
vt -0.1123329 0.03361876
vt -0.1123329 0.03361876
vt -0.1123329 0.03361876
vt -0.1132554 0.03121401
vt -0.1132554 0.03121401
vt -0.1132554 0.03121401
vt -0.1132554 0.03121401
vt -0.1134234 0.02386949
vt -0.1134234 0.02386949
vt -0.1134234 0.02386949
vt -0.1134234 0.02386949
vt -0.1134037 0.01545453
vt -0.1134037 0.01545453
vt -0.1134037 0.01545453
vt -0.1134037 0.01545453
vt -0.1127464 0.009057572
vt -0.1127464 0.009057572
vt -0.1127464 0.009057572
vt -0.1127464 0.009057572
vt -0.1125486 0.007618571
vt -0.1125486 0.007618571
vt -0.1125486 0.007618571
vt -0.1125486 0.007618571
vt -0.1114593 0.005417276
vt -0.1114593 0.005417276
vt -0.1114593 0.005417276
vt -0.1114593 0.005417276
vt -0.1099202 0.004656286
vt -0.1099202 0.004656286
vt -0.106947 0.03439176
vt -0.106947 0.03439176
vt -0.1055043 0.03331433
vt -0.1055043 0.03331433
vt -0.1055043 0.03331433
vt -0.1055043 0.03331433
vt -0.1047995 0.03083702
vt -0.1047995 0.03083702
vt -0.1047995 0.03083702
vt -0.1047995 0.03083702
vt -0.1052777 0.02368735
vt -0.1052777 0.02368735
vt -0.1052777 0.02368735
vt -0.1052777 0.02368735
vt -0.1053398 0.01580216
vt -0.1053398 0.01580216
vt -0.1053398 0.01580216
vt -0.1053398 0.01580216
vt -0.1047235 0.009940656
vt -0.1047235 0.009940656
vt -0.1047235 0.009940656
vt -0.1047235 0.009940656
vt -0.1045536 0.008726826
vt -0.1045536 0.008726826
vt -0.1045536 0.008726826
vt -0.1045536 0.008726826
vt -0.105003 0.006312247
vt -0.105003 0.006312247
vt -0.105003 0.006312247
vt -0.105003 0.006312247
vt -0.1062771 0.005161282
vt -0.1062771 0.005161282
vn 0 1 0
vn 0 1 0
vn 0 1 0
vn 0 1 0
vn 0 1 0
vn 0 1 0
vn 0 1 0
vn 0 1 0
vn 0 1 0
vn 0 1 0
vn 0 1 0
vn 0 1 0
vn 0 1 0
vn 0 1 0
vn 0 1 0
vn 0 1 0
vn 0 1 0
vn 0 1 0
vn -0.6355764 0 -0.772038
vn -0.6355764 0 -0.772038
vn -0.9596269 0 -0.281276
vn -0.9596269 0 -0.281276
vn -0.9334058 0 0.3588226
vn -0.9334058 0 0.3588226
vn -0.9334058 0 0.3588226
vn -0.9334058 0 0.3588226
vn -0.7580756 0 0.6521667
vn -0.7580756 0 0.6521667
vn -0.7580756 0 0.6521667
vn -0.7580756 0 0.6521667
vn -0.741393 0 0.6710711
vn -0.741393 0 0.6710711
vn -0.741393 0 0.6710711
vn -0.741393 0 0.6710711
vn -0.6706631 0 0.741762
vn -0.6706631 0 0.741762
vn -0.6706631 0 0.741762
vn -0.6706631 0 0.741762
vn -0.6448614 0 0.7642995
vn -0.6448614 0 0.7642995
vn -0.6448614 0 0.7642995
vn -0.6448614 0 0.7642995
vn -0.3690597 0 0.9294056
vn -0.3690597 0 0.9294056
vn -0.3690597 0 0.9294056
vn -0.3690597 0 0.9294056
vn 0.2707107 0 0.9626608
vn 0.2707107 0 0.9626608
vn 0.7650049 0 0.6440245
vn 0.7650049 0 0.6440245
vn -0.6355764 0 -0.772038
vn -0.6355764 0 -0.772038
vn -0.09170892 0 -0.9957859
vn -0.09170892 0 -0.9957859
vn 0.5314337 0 -0.8470998
vn 0.5314337 0 -0.8470998
vn 0.5314337 0 -0.8470998
vn 0.5314337 0 -0.8470998
vn 0.7859754 0 -0.6182577
vn 0.7859754 0 -0.6182577
vn 0.7859754 0 -0.6182577
vn 0.7859754 0 -0.6182577
vn 0.7482163 0 -0.6634549
vn 0.7482163 0 -0.6634549
vn 0.7482163 0 -0.6634549
vn 0.7482163 0 -0.6634549
vn 0.6689024 0 -0.7433503
vn 0.6689024 0 -0.7433503
vn 0.6689024 0 -0.7433503
vn 0.6689024 0 -0.7433503
vn 0.6430268 0 -0.7658437
vn 0.6430268 0 -0.7658437
vn 0.6430268 0 -0.7658437
vn 0.6430268 0 -0.7658437
vn 0.8528908 0 -0.5220893
vn 0.8528908 0 -0.5220893
vn 0.8528908 0 -0.5220893
vn 0.8528908 0 -0.5220893
vn 0.9947178 0 0.102648
vn 0.9947178 0 0.102648
vn 0.7650049 0 0.6440245
vn 0.7650049 0 0.6440245
g _0
f 3/3/3 2/2/2 1/1/1
f 2/2/2 3/3/3 4/4/4
f 5/5/5 4/4/4 3/3/3
f 4/4/4 5/5/5 6/6/6
f 7/7/7 6/6/6 5/5/5
f 6/6/6 7/7/7 8/8/8
f 9/9/9 8/8/8 7/7/7
f 8/8/8 9/9/9 10/10/10
f 11/11/11 10/10/10 9/9/9
f 10/10/10 11/11/11 12/12/12
f 13/13/13 12/12/12 11/11/11
f 12/12/12 13/13/13 14/14/14
f 15/15/15 14/14/14 13/13/13
f 14/14/14 15/15/15 16/16/16
f 17/17/17 16/16/16 15/15/15
f 16/16/16 17/17/17 18/18/18
g _1
f 19/19/19 20/20/20 21/21/21
f 22/22/22 21/21/21 20/20/20
f 23/23/23 24/24/24 25/25/25
f 26/26/26 25/25/25 24/24/24
f 27/27/27 28/28/28 29/29/29
f 30/30/30 29/29/29 28/28/28
f 31/31/31 32/32/32 33/33/33
f 34/34/34 33/33/33 32/32/32
f 35/35/35 36/36/36 37/37/37
f 38/38/38 37/37/37 36/36/36
f 39/39/39 40/40/40 41/41/41
f 42/42/42 41/41/41 40/40/40
f 43/43/43 44/44/44 45/45/45
f 46/46/46 45/45/45 44/44/44
f 47/47/47 48/48/48 49/49/49
f 50/50/50 49/49/49 48/48/48
f 53/53/53 52/52/52 51/51/51
f 52/52/52 53/53/53 54/54/54
f 57/57/57 56/56/56 55/55/55
f 56/56/56 57/57/57 58/58/58
f 61/61/61 60/60/60 59/59/59
f 60/60/60 61/61/61 62/62/62
f 65/65/65 64/64/64 63/63/63
f 64/64/64 65/65/65 66/66/66
f 69/69/69 68/68/68 67/67/67
f 68/68/68 69/69/69 70/70/70
f 73/73/73 72/72/72 71/71/71
f 72/72/72 73/73/73 74/74/74
f 77/77/77 76/76/76 75/75/75
f 76/76/76 77/77/77 78/78/78
f 81/81/81 80/80/80 79/79/79
f 80/80/80 81/81/81 82/82/82
f 51/51/51 20/20/20 19/19/19
f 20/20/20 51/51/51 52/52/52
f 49/49/49 50/50/50 81/81/81
f 82/82/82 81/81/81 50/50/50
