g 
v 11.15 21.15324 37.32
v 11.15 6.266758 37.32
v 10.46 22.23245 36.16
v 10.46 6.607551 36.16
v 7.55 22.23245 37.23
v 7.55 6.607551 37.23
v 7.53 22.23245 38.77
v 7.53 6.607551 38.77
v 8.51 22.23245 40.24
v 8.51 6.607549 40.24
v 9.549994 22.23245 40.90001
v 9.549994 6.607549 40.90001
v 11.15 21.15324 37.32
v 11.15 6.266758 37.32
vt -0.1325 0.2602
vt -0.1325 0.2602
vt -0.1256 0.2486
vt -0.1256 0.2486
vt -0.09649999 0.2593
vt -0.09649999 0.2593
vt -0.0963 0.2747
vt -0.0963 0.2747
vt -0.1061 0.2894
vt -0.1061 0.2894
vt -0.1164999 0.2960001
vt -0.1164999 0.2960001
vt -0.1325 0.2602
vt -0.1325 0.2602
vn 0.8594463 0 -0.5112259
vn 0.8594463 0 -0.511226
vn -0.3451065 0 -0.9385635
vn -0.3451065 0 -0.9385635
vn -0.9999157 0 -0.0129859
vn -0.9999157 0 -0.0129859
vn -0.8320505 0 0.5546999
vn -0.8320505 0 0.5546998
vn -0.5358291 0 0.8443265
vn -0.5358291 0 0.8443265
vn 0.9129679 0 0.4080313
vn 0.912968 0 0.4080313
vn 0.912968 0 0.4080313
vn 0.912968 0 0.4080313
g _0
f 1/1/1 2/2/2 3/3/3
f 4/4/4 3/3/3 2/2/2
f 3/3/3 4/4/4 5/5/5
f 6/6/6 5/5/5 4/4/4
f 5/5/5 6/6/6 7/7/7
f 8/8/8 7/7/7 6/6/6
f 7/7/7 8/8/8 9/9/9
f 10/10/10 9/9/9 8/8/8
f 9/9/9 10/10/10 11/11/11
f 12/12/12 11/11/11 10/10/10
f 11/11/11 12/12/12 13/13/13
f 14/14/14 13/13/13 12/12/12
