g 
v -8.024958 108.4166 -139.6157
v -8.024958 94.41657 -139.6157
v -5.785097 108.4166 -136.933
v -5.785097 94.41657 -136.933
v -6.847383 108.4166 -131.4205
v -6.847383 94.41657 -131.4205
v -8.436243 108.4166 -130.9528
v -8.436243 94.41657 -130.9528
v -9.357775 108.4166 -133.5674
v -9.357775 94.41657 -133.5674
v -9.59643 108.4166 -139.7432
v -9.59643 94.41657 -139.7432
v -8.024958 108.4166 -139.6157
v -8.024958 94.41657 -139.6157
vt 0.9078045 -0.9086006
vt 0.9078045 -0.9086006
vt 0.885406 -0.8817735
vt 0.885406 -0.8817735
vt 0.8960288 -0.8266493
vt 0.8960288 -0.8266493
vt 0.9119174 -0.8219716
vt 0.9119174 -0.8219716
vt 0.9211327 -0.8481182
vt 0.9211327 -0.8481182
vt 0.9235193 -0.9098764
vt 0.9235193 -0.9098764
vt 0.9078045 -0.9086006
vt 0.9078045 -0.9086006
vn 0.76762 0 -0.6409053
vn 0.76762 0 -0.6409053
vn 0.9819335 0 0.1892262
vn 0.9819335 0 0.1892262
vn 0.2824228 0 0.95929
vn 0.2824228 0 0.95929
vn -0.9431366 0 0.3324054
vn -0.9431366 0 0.3324054
vn -0.9992542 0 0.0386147
vn -0.9992542 0 0.0386147
vn 0.080918 0 -0.9967208
vn 0.080918 0 -0.9967208
vn 0.080918 0 -0.9967208
vn 0.080918 0 -0.9967208
g _0
f 3/3/3 2/2/2 1/1/1
f 2/2/2 3/3/3 4/4/4
f 5/5/5 4/4/4 3/3/3
f 4/4/4 5/5/5 6/6/6
f 7/7/7 6/6/6 5/5/5
f 6/6/6 7/7/7 8/8/8
f 9/9/9 8/8/8 7/7/7
f 8/8/8 9/9/9 10/10/10
f 11/11/11 10/10/10 9/9/9
f 10/10/10 11/11/11 12/12/12
f 13/13/13 12/12/12 11/11/11
f 12/12/12 13/13/13 14/14/14
