g 
v -5.763076 16.4 -78.978
v 1.358759 16.4 -94.38336
v -4.470359 16.4 -71.1609
v 8.151162 16.4 -98.46275
v 3.785302 16.4 -63.39588
v 19.4147 16.4 -97.20412
v 11.49006 16.56232 -59.17169
v 27.62399 16.56232 -94.07132
v 20.0509 16.74267 -54.47816
v 36.74542 16.74267 -90.59042
v 28.46658 17.01578 -49.47328
v 46.01001 17.01578 -87.4218
v 36.7855 17.35073 -44.26082
v 55.37002 17.35073 -84.46138
v 45.17699 17.63929 -39.20404
v 64.65846 17.63929 -81.34481
v 53.73783 17.81965 -34.51051
v 73.77989 17.81965 -77.86391
v 62.29866 18 -29.81698
v 82.90134 18 -74.38301
v 77.14626 18 -28.15787
v 93.78394 18 -64.14717
v 86.10001 18 -33.53532
v 95.488 18 -53.84267
v -5.763076 16.4 -78.978
v -5.763076 -13.6 -78.978
v -4.470359 16.4 -71.1609
v -4.470359 -13.6 -71.1609
v -4.470359 16.4 -71.1609
v -4.470359 -13.6 -71.1609
v 3.785302 16.4 -63.39588
v 3.785302 -13.6 -63.39588
v 3.785302 16.4 -63.39588
v 3.785302 -13.6 -63.39588
v 11.49006 16.56232 -59.17169
v 11.49006 -13.43768 -59.17169
v 11.49006 16.56232 -59.17169
v 11.49006 -13.43768 -59.17169
v 20.0509 16.74267 -54.47816
v 20.0509 -13.25733 -54.47816
v 20.0509 16.74267 -54.47816
v 20.0509 -13.25733 -54.47816
v 28.46658 17.01578 -49.47328
v 28.46658 -12.98422 -49.47328
v 28.46658 17.01578 -49.47328
v 28.46658 -12.98422 -49.47328
v 36.7855 17.35073 -44.26082
v 36.7855 -12.64927 -44.26082
v 36.7855 17.35073 -44.26082
v 36.7855 -12.64927 -44.26082
v 45.17699 17.63929 -39.20404
v 45.17699 -12.36071 -39.20404
v 45.17699 17.63929 -39.20404
v 45.17699 -12.36071 -39.20404
v 53.73783 17.81965 -34.51051
v 53.73783 -12.18035 -34.51051
v 53.73783 17.81965 -34.51051
v 53.73783 -12.18035 -34.51051
v 62.29866 18 -29.81698
v 62.29866 -12 -29.81698
v 62.29866 18 -29.81698
v 62.29866 -12 -29.81698
v 77.14626 18 -28.15787
v 77.14626 -12 -28.15787
v 77.14626 18 -28.15787
v 77.14626 -12 -28.15787
v 86.10001 18 -33.53532
v 86.10001 -12 -33.53532
v 1.358759 16.4 -94.38336
v 1.358759 -13.6 -94.38336
v 8.151162 16.4 -98.46275
v 8.151162 -13.6 -98.46275
v 8.151162 16.4 -98.46275
v 8.151162 -13.6 -98.46275
v 19.4147 16.4 -97.20412
v 19.4147 -13.6 -97.20412
v 19.4147 16.4 -97.20412
v 19.4147 -13.6 -97.20412
v 27.62399 16.56232 -94.07132
v 27.62399 -13.43768 -94.07132
v 27.62399 16.56232 -94.07132
v 27.62399 -13.43768 -94.07132
v 36.74542 16.74267 -90.59042
v 36.74542 -13.25733 -90.59042
v 36.74542 16.74267 -90.59042
v 36.74542 -13.25733 -90.59042
v 46.01001 17.01578 -87.4218
v 46.01001 -12.98422 -87.4218
v 46.01001 17.01578 -87.4218
v 46.01001 -12.98422 -87.4218
v 55.37002 17.35073 -84.46138
v 55.37002 -12.64927 -84.46138
v 55.37002 17.35073 -84.46138
v 55.37002 -12.64927 -84.46138
v 64.65846 17.63929 -81.34481
v 64.65846 -12.36071 -81.34481
v 64.65846 17.63929 -81.34481
v 64.65846 -12.36071 -81.34481
v 73.77989 17.81965 -77.86391
v 73.77989 -12.18035 -77.86391
v 73.77989 17.81965 -77.86391
v 73.77989 -12.18035 -77.86391
v 82.90134 18 -74.38301
v 82.90134 -12 -74.38301
v 82.90134 18 -74.38301
v 82.90134 -12 -74.38301
v 93.78394 18 -64.14717
v 93.78394 -12 -64.14717
v 93.78394 18 -64.14717
v 93.78394 -12 -64.14717
v 95.488 18 -53.84267
v 95.488 -12 -53.84267
vt 0.08882812 -0.1171667
vt 0.1049824 -0.1119625
vt 0.08395635 -0.1234153
vt 0.1125855 -0.1141922
vt 0.08384198 -0.1347483
vt 0.1192938 -0.1233272
vt 0.0859578 -0.1432765
vt 0.1225541 -0.1314867
vt 0.08830872 -0.1527523
vt 0.1261766 -0.1405529
vt 0.09033232 -0.1623324
vt 0.1301257 -0.1495126
vt 0.09213772 -0.171982
vt 0.1342927 -0.1584014
vt 0.09410676 -0.1815794
vt 0.1382962 -0.1673434
vt 0.09645768 -0.1910552
vt 0.1419187 -0.1764095
vt 0.09880861 -0.200531
vt 0.1455413 -0.1854757
vt 0.1076515 -0.2125728
vt 0.1453905 -0.2004149
vt 0.1176739 -0.215512
vt 0.1389685 -0.2086517
vt 0.08882812 -0.1171667
vt 0.08882812 -0.1171667
vt 0.08395635 -0.1234153
vt 0.08395635 -0.1234153
vt 0.08395635 -0.1234153
vt 0.08395635 -0.1234153
vt 0.08384198 -0.1347483
vt 0.08384198 -0.1347483
vt 0.08384198 -0.1347483
vt 0.08384198 -0.1347483
vt 0.0859578 -0.1432765
vt 0.0859578 -0.1432765
vt 0.0859578 -0.1432765
vt 0.0859578 -0.1432765
vt 0.08830872 -0.1527523
vt 0.08830872 -0.1527523
vt 0.08830872 -0.1527523
vt 0.08830872 -0.1527523
vt 0.09033232 -0.1623324
vt 0.09033232 -0.1623324
vt 0.09033232 -0.1623324
vt 0.09033232 -0.1623324
vt 0.09213772 -0.171982
vt 0.09213772 -0.171982
vt 0.09213772 -0.171982
vt 0.09213772 -0.171982
vt 0.09410676 -0.1815794
vt 0.09410676 -0.1815794
vt 0.09410676 -0.1815794
vt 0.09410676 -0.1815794
vt 0.09645768 -0.1910552
vt 0.09645768 -0.1910552
vt 0.09645768 -0.1910552
vt 0.09645768 -0.1910552
vt 0.09880861 -0.200531
vt 0.09880861 -0.200531
vt 0.09880861 -0.200531
vt 0.09880861 -0.200531
vt 0.1076515 -0.2125728
vt 0.1076515 -0.2125728
vt 0.1076515 -0.2125728
vt 0.1076515 -0.2125728
vt 0.1176739 -0.215512
vt 0.1176739 -0.215512
vt 0.1049824 -0.1119625
vt 0.1049824 -0.1119625
vt 0.1125855 -0.1141922
vt 0.1125855 -0.1141922
vt 0.1125855 -0.1141922
vt 0.1125855 -0.1141922
vt 0.1192938 -0.1233272
vt 0.1192938 -0.1233272
vt 0.1192938 -0.1233272
vt 0.1192938 -0.1233272
vt 0.1225541 -0.1314867
vt 0.1225541 -0.1314867
vt 0.1225541 -0.1314867
vt 0.1225541 -0.1314867
vt 0.1261766 -0.1405529
vt 0.1261766 -0.1405529
vt 0.1261766 -0.1405529
vt 0.1261766 -0.1405529
vt 0.1301257 -0.1495126
vt 0.1301257 -0.1495126
vt 0.1301257 -0.1495126
vt 0.1301257 -0.1495126
vt 0.1342927 -0.1584014
vt 0.1342927 -0.1584014
vt 0.1342927 -0.1584014
vt 0.1342927 -0.1584014
vt 0.1382962 -0.1673434
vt 0.1382962 -0.1673434
vt 0.1382962 -0.1673434
vt 0.1382962 -0.1673434
vt 0.1419187 -0.1764095
vt 0.1419187 -0.1764095
vt 0.1419187 -0.1764095
vt 0.1419187 -0.1764095
vt 0.1455413 -0.1854757
vt 0.1455413 -0.1854757
vt 0.1455413 -0.1854757
vt 0.1455413 -0.1854757
vt 0.1453905 -0.2004149
vt 0.1453905 -0.2004149
vt 0.1453905 -0.2004149
vt 0.1453905 -0.2004149
vt 0.1389685 -0.2086517
vt 0.1389685 -0.2086517
vn 0 1 0
vn 0 1 0
vn 0 1 0
vn 0 1 0
vn 0 1 0
vn 0 1 0
vn 0 1 0
vn 0 1 0
vn 0 1 0
vn 0 1 0
vn 0 1 0
vn 0 1 0
vn 0 1 0
vn 0 1 0
vn 0 1 0
vn 0 1 0
vn 0 1 0
vn 0 1 0
vn 0 1 0
vn 0 1 0
vn 0 1 0
vn 0 1 0
vn 0 1 0
vn 0 1 0
vn -0.9076976 0 -0.4196248
vn -0.9076976 0 -0.4196248
vn -0.9866005 0 0.1631545
vn -0.9866005 0 0.1631545
vn -0.6851298 0 0.728421
vn -0.6851298 0 0.728421
vn -0.6851298 0 0.728421
vn -0.6851298 0 0.728421
vn -0.4807451 0 0.8768604
vn -0.4807451 0 0.8768604
vn -0.4807451 0 0.8768604
vn -0.4807451 0 0.8768604
vn -0.4807439 0 0.8768611
vn -0.4807439 0 0.8768611
vn -0.4807439 0 0.8768611
vn -0.4807439 0 0.8768611
vn -0.5111483 0 0.8594925
vn -0.5111483 0 0.8594925
vn -0.5111483 0 0.8594925
vn -0.5111483 0 0.8594925
vn -0.5309609 0 0.8473964
vn -0.5309609 0 0.8473964
vn -0.5309609 0 0.8473964
vn -0.5309609 0 0.8473964
vn -0.5161375 0 0.8565057
vn -0.5161375 0 0.8565057
vn -0.5161375 0 0.8565057
vn -0.5161375 0 0.8565057
vn -0.4807438 0 0.8768611
vn -0.4807438 0 0.8768611
vn -0.4807438 0 0.8768611
vn -0.4807438 0 0.8768611
vn -0.4807443 0 0.8768608
vn -0.4807443 0 0.8768608
vn -0.4807443 0 0.8768608
vn -0.4807443 0 0.8768608
vn -0.1110515 0 0.9938146
vn -0.1110515 0 0.9938146
vn -0.1110515 0 0.9938146
vn -0.1110515 0 0.9938146
vn 0.5148615 0 0.8572733
vn 0.5148615 0 0.8572733
vn 0.907698 0 0.4196241
vn 0.907698 0 0.4196241
vn -0.9076976 0 -0.4196248
vn -0.9076976 0 -0.4196248
vn -0.5148615 0 -0.8572733
vn -0.5148615 0 -0.8572733
vn 0.1110518 0 -0.9938146
vn 0.1110518 0 -0.9938146
vn 0.1110518 0 -0.9938146
vn 0.1110518 0 -0.9938146
vn 0.3565376 0 -0.9342809
vn 0.3565376 0 -0.9342809
vn 0.3565376 0 -0.9342809
vn 0.3565376 0 -0.9342809
vn 0.3565377 0 -0.9342809
vn 0.3565377 0 -0.9342809
vn 0.3565377 0 -0.9342809
vn 0.3565377 0 -0.9342809
vn 0.3236111 0 -0.9461902
vn 0.3236111 0 -0.9461902
vn 0.3236111 0 -0.9461902
vn 0.3236111 0 -0.9461902
vn 0.3015597 0 -0.9534473
vn 0.3015597 0 -0.9534473
vn 0.3015597 0 -0.9534473
vn 0.3015597 0 -0.9534473
vn 0.3181032 0 -0.948056
vn 0.3181032 0 -0.948056
vn 0.3181032 0 -0.948056
vn 0.3181032 0 -0.948056
vn 0.3565378 0 -0.9342809
vn 0.3565378 0 -0.9342809
vn 0.3565378 0 -0.9342809
vn 0.3565378 0 -0.9342809
vn 0.356538 0 -0.9342808
vn 0.356538 0 -0.9342808
vn 0.356538 0 -0.9342808
vn 0.356538 0 -0.9342808
vn 0.6851299 0 -0.7284209
vn 0.6851299 0 -0.7284209
vn 0.6851299 0 -0.7284209
vn 0.6851299 0 -0.7284209
vn 0.9866006 0 -0.1631543
vn 0.9866006 0 -0.1631543
vn 0.907698 0 0.4196241
vn 0.907698 0 0.4196241
g _0
f 3/3/3 2/2/2 1/1/1
f 2/2/2 3/3/3 4/4/4
f 5/5/5 4/4/4 3/3/3
f 4/4/4 5/5/5 6/6/6
f 7/7/7 6/6/6 5/5/5
f 6/6/6 7/7/7 8/8/8
f 9/9/9 8/8/8 7/7/7
f 8/8/8 9/9/9 10/10/10
f 11/11/11 10/10/10 9/9/9
f 10/10/10 11/11/11 12/12/12
f 13/13/13 12/12/12 11/11/11
f 12/12/12 13/13/13 14/14/14
f 15/15/15 14/14/14 13/13/13
f 14/14/14 15/15/15 16/16/16
f 17/17/17 16/16/16 15/15/15
f 16/16/16 17/17/17 18/18/18
f 19/19/19 18/18/18 17/17/17
f 18/18/18 19/19/19 20/20/20
f 21/21/21 20/20/20 19/19/19
f 20/20/20 21/21/21 22/22/22
f 23/23/23 22/22/22 21/21/21
f 22/22/22 23/23/23 24/24/24
g _1
f 25/25/25 26/26/26 27/27/27
f 28/28/28 27/27/27 26/26/26
f 29/29/29 30/30/30 31/31/31
f 32/32/32 31/31/31 30/30/30
f 33/33/33 34/34/34 35/35/35
f 36/36/36 35/35/35 34/34/34
f 37/37/37 38/38/38 39/39/39
f 40/40/40 39/39/39 38/38/38
f 41/41/41 42/42/42 43/43/43
f 44/44/44 43/43/43 42/42/42
f 45/45/45 46/46/46 47/47/47
f 48/48/48 47/47/47 46/46/46
f 49/49/49 50/50/50 51/51/51
f 52/52/52 51/51/51 50/50/50
f 53/53/53 54/54/54 55/55/55
f 56/56/56 55/55/55 54/54/54
f 57/57/57 58/58/58 59/59/59
f 60/60/60 59/59/59 58/58/58
f 61/61/61 62/62/62 63/63/63
f 64/64/64 63/63/63 62/62/62
f 65/65/65 66/66/66 67/67/67
f 68/68/68 67/67/67 66/66/66
f 71/71/71 70/70/70 69/69/69
f 70/70/70 71/71/71 72/72/72
f 75/75/75 74/74/74 73/73/73
f 74/74/74 75/75/75 76/76/76
f 79/79/79 78/78/78 77/77/77
f 78/78/78 79/79/79 80/80/80
f 83/83/83 82/82/82 81/81/81
f 82/82/82 83/83/83 84/84/84
f 87/87/87 86/86/86 85/85/85
f 86/86/86 87/87/87 88/88/88
f 91/91/91 90/90/90 89/89/89
f 90/90/90 91/91/91 92/92/92
f 95/95/95 94/94/94 93/93/93
f 94/94/94 95/95/95 96/96/96
f 99/99/99 98/98/98 97/97/97
f 98/98/98 99/99/99 100/100/100
f 103/103/103 102/102/102 101/101/101
f 102/102/102 103/103/103 104/104/104
f 107/107/107 106/106/106 105/105/105
f 106/106/106 107/107/107 108/108/108
f 111/111/111 110/110/110 109/109/109
f 110/110/110 111/111/111 112/112/112
f 69/69/69 26/26/26 25/25/25
f 26/26/26 69/69/69 70/70/70
f 67/67/67 68/68/68 111/111/111
f 112/112/112 111/111/111 68/68/68
