g 
v -39.10028 -6.7 137.9779
v -35.80201 -6.7 137.5821
v -40.7863 -6.7 139.1487
v -33.88686 -6.7 138.3209
v -40.86526 -6.7 141.4966
v -33.25474 -6.7 140.5834
v -40.97639 -6.900664 143.0843
v -32.77337 -6.900664 142.0816
v -40.62349 -7.497476 144.6998
v -32.72193 -7.497476 143.7171
v -40.51435 -8.34384 146.2817
v -32.43847 -8.34384 145.2921
v -40.255 -9.297031 147.8138
v -32.32144 -9.297031 146.8779
v -39.49595 -10.21082 149.2939
v -32.71935 -10.21082 148.5325
v -39.63022 -10.93766 150.9148
v -32.23363 -10.93766 150.1187
v -39.02721 -11.33614 152.5142
v -32.48414 -11.33614 151.8519
v -38.88094 -11.41227 154.3
v -32.27399 -11.41227 153.7375
v -39.06376 -11.61786 156.1658
v -31.81248 -11.61786 155.6603
v -38.73643 -11.94423 158.0374
v -31.89125 -11.94423 157.5636
v -38.72004 -12.33 159.9684
v -31.63446 -12.33 159.3959
v -38.39329 -12.71577 161.8959
v -31.62686 -12.71577 161.2241
v -38.46789 -13.04214 163.8755
v -31.14087 -13.04214 162.999
v -38.1653 -13.24773 165.8161
v -30.9556 -13.24773 164.8208
v -37.51946 -13.28246 167.7962
v -31.03125 -13.28246 166.7433
v -37.69221 -13.19372 170.0406
v -30.12966 -13.19372 168.6017
v -37.07135 -13.03185 172.1095
v -29.92227 -13.03185 170.6137
v -36.43543 -12.82835 174.1245
v -29.6811 -12.82835 172.6684
v -36.35111 -12.61608 176.2144
v -28.88797 -12.61608 174.6473
v -35.41241 -12.4276 178.0911
v -28.9935 -12.4276 176.8481
v -35.26226 -12.29469 180.0942
v -28.39429 -12.29469 178.9402
v -35.25288 -12.25411 182.0911
v -27.78615 -12.25411 180.9827
v -34.73931 -12.52094 183.5802
v -27.85049 -12.52094 182.6402
v -34.37491 -13.14486 184.9875
v -27.82343 -13.14486 184.2471
v -34.68551 -13.98201 186.365
v -27.2312 -13.98201 185.8116
v -34.76809 -14.89569 187.6843
v -26.99483 -14.89569 187.4165
v -34.1813 -15.74664 189.0571
v -27.53273 -15.74664 189.0016
v -34.55899 -16.39355 190.5798
v -27.15387 -16.39355 190.52
v -34.38089 -16.70178 192.2516
v -27.283 -16.70178 192.0154
v -34.19044 -16.95567 194.5892
v -27.26431 -16.95567 194.2643
v -34.12072 -17.96417 196.9371
v -27.10876 -17.96417 196.5918
v -34.39215 -19.80018 198.8763
v -26.64399 -19.80018 198.4773
v -34.01903 -21.9177 200.1059
v -26.88609 -21.9177 199.7221
v -34.25974 -24.31376 201.0227
v -26.54705 -24.31376 200.5936
v -34.21417 -26.72075 201.6391
v -26.52338 -26.72075 201.2007
v -33.68584 -29.25087 202.0357
v -27.00287 -29.25087 201.6518
v -34.04234 -31.70649 202.3462
v -26.61265 -31.70649 201.9308
v -33.77245 -34.28621 202.5229
v -26.85989 -34.28621 202.1728
v -33.83782 -36.95584 202.6323
v -26.78101 -36.95584 202.3585
v -33.7714 -39.68626 202.6552
v -26.84128 -39.68626 202.5471
v -33.90282 -42.15044 202.5963
v -26.71058 -42.15044 202.743
v -33.93916 -44.62475 202.56
v -26.67883 -44.62475 202.9026
v -33.91708 -47.0923 202.5946
v -26.70839 -47.0923 203.0006
v -34.04691 -49.75779 202.7128
v -26.58876 -49.75779 203.0636
v -34.13369 -52.44262 202.9016
v -26.51325 -52.44262 203.1499
v -34.11617 -55.04893 203.1453
v -26.54096 -55.04893 203.2896
v -34.19975 -57.54634 203.4567
v -26.46465 -57.54634 203.5117
v -33.78158 -60.01794 203.8796
v -26.88486 -60.01794 203.8643
v -33.93211 -62.50742 204.4641
v -26.7281 -62.50742 204.392
v -33.74837 -64.89491 205.2838
v -26.89097 -64.89491 205.169
v -33.62395 -67.09016 206.4386
v -26.97146 -67.09016 206.2884
v -33.83807 -69.06541 208.1838
v -26.67223 -69.06541 207.9872
v -33.62735 -70.34828 210.4887
v -26.74763 -70.34828 210.2724
v -33.85955 -70.7234 212.896
v -26.35614 -70.7234 212.6454
v -33.3597 -70.74 213.1115
v -26.8403 -70.74 212.8885
v -32.81068 -70.74 215.1453
v -27.24905 -70.74 214.9551
v -31.65999 -70.74 215.9562
v -28.34163 -70.74 215.8427
vt 0 -0.001660964
vt 0 0.001660964
vt 0 -0.003474465
vt 0 0.003474465
vt 0.0009616822 -0.003832552
vt 0.0009616822 0.003832552
vt 0.003283376 -0.004132042
vt 0.003283376 0.004132042
vt 0.004850267 -0.003981214
vt 0.004850267 0.003981214
vt 0.006593646 -0.004068149
vt 0.006593646 0.004068149
vt 0.008395423 -0.003994282
vt 0.008395423 0.003994282
vt 0.01023236 -0.003409626
vt 0.01023236 0.003409626
vt 0.01205558 -0.003719654
vt 0.01205558 0.003719654
vt 0.01382494 -0.003288255
vt 0.01382494 0.003288255
vt 0.01554724 -0.003315426
vt 0.01554724 0.003315426
vt 0.01739321 -0.003634439
vt 0.01739321 0.003634439
vt 0.01930365 -0.00343078
vt 0.01930365 0.00343078
vt 0.02122314 -0.003554335
vt 0.02122314 0.003554335
vt 0.02314881 -0.003399855
vt 0.02314881 0.003399855
vt 0.02507314 -0.003689631
vt 0.02507314 0.003689631
vt 0.02698965 -0.00363903
vt 0.02698965 0.00363903
vt 0.02889768 -0.003286541
vt 0.02889768 0.003286541
vt 0.03087001 -0.003849112
vt 0.03087001 0.003849112
vt 0.03295536 -0.003651943
vt 0.03295536 0.003651943
vt 0.03504372 -0.003454751
vt 0.03504372 0.003454751
vt 0.03713524 -0.003812955
vt 0.03713524 0.003812955
vt 0.0392272 -0.003269072
vt 0.0392272 0.003269072
vt 0.0413166 -0.003482128
vt 0.0413166 0.003482128
vt 0.04340243 -0.003774277
vt 0.04340243 0.003774277
vt 0.045446 -0.003476333
vt 0.045446 0.003476333
vt 0.04705751 -0.003296593
vt 0.04705751 0.003296593
vt 0.04870035 -0.003737411
vt 0.04870035 0.003737411
vt 0.05039873 -0.003888934
vt 0.05039873 0.003888934
vt 0.05212453 -0.003324403
vt 0.05212453 0.003324403
vt 0.05383103 -0.003702681
vt 0.05383103 0.003702681
vt 0.05548344 -0.003550911
vt 0.05548344 0.003550911
vt 0.05709697 -0.003466872
vt 0.05709697 0.003466872
vt 0.05940656 -0.003510229
vt 0.05940656 0.003510229
vt 0.06195503 -0.003879213
vt 0.06195503 0.003879213
vt 0.06460781 -0.003571628
vt 0.06460781 0.003571628
vt 0.06706116 -0.003862305
vt 0.06706116 0.003862305
vt 0.0696191 -0.003851639
vt 0.0696191 0.003851639
vt 0.07210284 -0.003346995
vt 0.07210284 0.003346995
vt 0.07466834 -0.00372065
vt 0.07466834 0.00372065
vt 0.07714164 -0.003460706
vt 0.07714164 0.003460706
vt 0.07972987 -0.003531062
vt 0.07972987 0.003531062
vt 0.08240359 -0.003465482
vt 0.08240359 0.003465482
vt 0.08513604 -0.003596871
vt 0.08513604 0.003596871
vt 0.08760118 -0.003634207
vt 0.08760118 0.003634207
vt 0.09007626 -0.003610061
vt 0.09007626 0.003610061
vt 0.09254471 -0.003733203
vt 0.09254471 0.003733203
vt 0.09521174 -0.003812244
vt 0.09521174 0.003812244
vt 0.09790009 -0.003788296
vt 0.09790009 0.003788296
vt 0.1005135 -0.003867648
vt 0.1005135 0.003867648
vt 0.1030251 -0.003448369
vt 0.1030251 0.003448369
vt 0.1055269 -0.003602186
vt 0.1055269 0.003602186
vt 0.1080777 -0.003429179
vt 0.1080777 0.003429179
vt 0.1105952 -0.003327095
vt 0.1105952 0.003327095
vt 0.1130676 -0.003584268
vt 0.1130676 0.003584268
vt 0.1156884 -0.003441559
vt 0.1156884 0.003441559
vt 0.1183185 -0.003753793
vt 0.1183185 0.003753793
vt 0.1207392 -0.003261612
vt 0.1207392 0.003261612
vt 0.1209693 -0.002782442
vt 0.1209693 0.002782442
vt 0.1230207 -0.00166015
vt 0.1230207 0.00166015
vn 0 1 0
vn 0 1 0
vn 0 1 0
vn 0 1 0
vn 0.01516852 0.9918607 0.1264203
vn 0.01562223 0.9916762 0.1278064
vn 0.04134905 0.940137 0.3382789
vn 0.04244626 0.9389927 0.3413078
vn 0.05817902 0.88191 0.467814
vn 0.05693953 0.8836726 0.4646296
vn 0.06365302 0.8521499 0.519412
vn 0.06026985 0.8574971 0.5109465
vn 0.05924119 0.8627049 0.5022258
vn 0.05538353 0.8683242 0.4928953
vn 0.04628337 0.9100498 0.4119068
vn 0.04360639 0.9132271 0.4051108
vn 0.0250571 0.9722055 0.2327847
vn 0.02299192 0.9735865 0.2271577
vn 0.004275189 0.9990984 0.0422384
vn 0.003402112 0.9991955 0.03996015
vn 0.009402239 0.9938388 0.1104358
vn 0.007290848 0.994489 0.104587
vn 0.01183461 0.9854131 0.1697671
vn 0.01172968 0.9854658 0.1694687
vn 0.01355031 0.9805556 0.195773
vn 0.01646542 0.9788779 0.2037816
vn 0.01564848 0.9809418 0.1936709
vn 0.02048901 0.9782649 0.2063442
vn 0.01620925 0.9864527 0.1632429
vn 0.02096473 0.9843011 0.1752476
vn 0.01237453 0.9945587 0.1034406
vn 0.01526569 0.9937488 0.1105908
vn 0.002316431 0.9998565 0.01678116
vn 0.002949806 0.9998304 0.01817813
vn -0.00649198 0.9991783 -0.04000673
vn -0.008309836 0.9990113 -0.04367462
vn -0.01404207 0.997174 -0.07380196
vn -0.01642373 0.9967791 -0.07849684
vn -0.01972903 0.9953488 -0.09429446
vn -0.02072356 0.9951532 -0.09612813
vn -0.02159371 0.9947366 -0.1001644
vn -0.02067143 0.9949282 -0.0984411
vn -0.01900405 0.9957151 -0.09050069
vn -0.01667369 0.9961461 -0.0861093
vn -0.01263582 0.9977885 -0.06525621
vn -0.01016609 0.9981164 -0.06050013
vn -0.003410891 0.9997881 -0.02029881
vn -0.002823631 0.9998151 -0.01902087
vn 0.02493718 0.9854742 0.1679847
vn 0.02179554 0.9869211 0.1597238
vn 0.05363901 0.9179378 0.3930816
vn 0.04079976 0.9316571 0.3610409
vn 0.05969251 0.8470039 0.5282246
vn 0.03424903 0.8865272 0.461407
vn 0.04235453 0.8201315 0.5706053
vn 0.01698117 0.8699747 0.492804
vn 0.01796018 0.8532361 0.5212154
vn 0.003955567 0.8805071 0.4740164
vn 0.003268694 0.9200852 0.3917047
vn 0.003160666 0.9202597 0.3912953
vn 0.001463296 0.9834529 0.1811583
vn 0.006738254 0.9792737 0.2024293
vn 0.003584699 0.9941779 0.1076908
vn 0.005259599 0.9936789 0.1121366
vn 0.01848595 0.9188699 0.3941274
vn 0.01952303 0.9178663 0.3964091
vn 0.03396443 0.7233581 0.6896372
vn 0.03566865 0.7203717 0.6926705
vn 0.04431196 0.5074858 0.8605199
vn 0.04645469 0.5022809 0.8634557
vn 0.05027419 0.3525302 0.934449
vn 0.0520813 0.3478638 0.9360974
vn 0.05380576 0.2486705 0.9670925
vn 0.05518675 0.2446797 0.9680321
vn 0.05612678 0.1660356 0.9845212
vn 0.05656238 0.1648595 0.9846938
vn 0.05695251 0.1171003 0.9914857
vn 0.05541143 0.1213966 0.9910562
vn 0.05567108 0.07404209 0.9957001
vn 0.05038774 0.0884992 0.9948009
vn 0.05054647 0.03963616 0.9979349
vn 0.03867002 0.0704774 0.9967635
vn 0.03876473 0.009330147 0.9992049
vn 0.0155546 0.06857016 0.997525
vn 0.0155546 0.06857016 0.997525
vn -0.02032585 0.07815202 0.9967342
vn -0.02032585 0.07815202 0.9967342
vn -0.04703847 0.06368116 0.9968611
vn -0.04712978 0.01359236 0.9987963
vn -0.05618684 0.0403086 0.9976063
vn -0.05617052 0.04695391 0.9973165
vn -0.04698103 0.02150815 0.9986642
vn -0.04687136 0.07158264 0.9963328
vn -0.0325531 0.03118537 0.9989834
vn -0.0324283 0.09283195 0.9951535
vn -0.01902033 0.05371356 0.9983752
vn -0.01890006 0.1243203 0.9920622
vn -0.007089367 0.08836815 0.9960627
vn -0.007016644 0.1675119 0.9858451
vn 0.00219917 0.140852 0.9900283
vn 0.002162583 0.2284323 0.9735575
vn 0.00978668 0.2079424 0.9780921
vn 0.009460988 0.3253622 0.9455422
vn 0.01591928 0.3084507 0.9511071
vn 0.01480562 0.4661707 0.884571
vn 0.02010925 0.4536076 0.8909746
vn 0.01693177 0.6610043 0.750191
vn 0.02075646 0.6537179 0.7564536
vn 0.01331815 0.8742074 0.4853699
vn 0.01540192 0.8716651 0.4898598
vn 0.004855192 0.9879933 0.1544199
vn 0.005186926 0.9878538 0.1552992
vn 0.002381621 0.9974516 0.07130696
vn 0.002500056 0.9973228 0.07308181
vn 0 1 0
vn 0 1 0
vn 0 1 0
vn 0 1 0
vn 0 1 0
vn 0 1 0
g _0
f 3/3/3 2/2/2 1/1/1
f 2/2/2 3/3/3 4/4/4
f 5/5/5 4/4/4 3/3/3
f 4/4/4 5/5/5 6/6/6
f 7/7/7 6/6/6 5/5/5
f 6/6/6 7/7/7 8/8/8
f 9/9/9 8/8/8 7/7/7
f 8/8/8 9/9/9 10/10/10
f 11/11/11 10/10/10 9/9/9
f 10/10/10 11/11/11 12/12/12
f 13/13/13 12/12/12 11/11/11
f 12/12/12 13/13/13 14/14/14
f 15/15/15 14/14/14 13/13/13
f 14/14/14 15/15/15 16/16/16
f 17/17/17 16/16/16 15/15/15
f 16/16/16 17/17/17 18/18/18
f 19/19/19 18/18/18 17/17/17
f 18/18/18 19/19/19 20/20/20
f 21/21/21 20/20/20 19/19/19
f 20/20/20 21/21/21 22/22/22
f 23/23/23 22/22/22 21/21/21
f 22/22/22 23/23/23 24/24/24
f 25/25/25 24/24/24 23/23/23
f 24/24/24 25/25/25 26/26/26
f 27/27/27 26/26/26 25/25/25
f 26/26/26 27/27/27 28/28/28
f 29/29/29 28/28/28 27/27/27
f 28/28/28 29/29/29 30/30/30
f 31/31/31 30/30/30 29/29/29
f 30/30/30 31/31/31 32/32/32
f 33/33/33 32/32/32 31/31/31
f 32/32/32 33/33/33 34/34/34
f 35/35/35 34/34/34 33/33/33
f 34/34/34 35/35/35 36/36/36
f 37/37/37 36/36/36 35/35/35
f 36/36/36 37/37/37 38/38/38
f 39/39/39 38/38/38 37/37/37
f 38/38/38 39/39/39 40/40/40
f 41/41/41 40/40/40 39/39/39
f 40/40/40 41/41/41 42/42/42
f 43/43/43 42/42/42 41/41/41
f 42/42/42 43/43/43 44/44/44
f 45/45/45 44/44/44 43/43/43
f 44/44/44 45/45/45 46/46/46
f 47/47/47 46/46/46 45/45/45
f 46/46/46 47/47/47 48/48/48
f 49/49/49 48/48/48 47/47/47
f 48/48/48 49/49/49 50/50/50
f 51/51/51 50/50/50 49/49/49
f 50/50/50 51/51/51 52/52/52
f 53/53/53 52/52/52 51/51/51
f 52/52/52 53/53/53 54/54/54
f 55/55/55 54/54/54 53/53/53
f 54/54/54 55/55/55 56/56/56
f 57/57/57 56/56/56 55/55/55
f 56/56/56 57/57/57 58/58/58
f 59/59/59 58/58/58 57/57/57
f 58/58/58 59/59/59 60/60/60
f 61/61/61 60/60/60 59/59/59
f 60/60/60 61/61/61 62/62/62
f 63/63/63 62/62/62 61/61/61
f 62/62/62 63/63/63 64/64/64
f 65/65/65 64/64/64 63/63/63
f 64/64/64 65/65/65 66/66/66
f 67/67/67 66/66/66 65/65/65
f 66/66/66 67/67/67 68/68/68
f 69/69/69 68/68/68 67/67/67
f 68/68/68 69/69/69 70/70/70
f 71/71/71 70/70/70 69/69/69
f 70/70/70 71/71/71 72/72/72
f 73/73/73 72/72/72 71/71/71
f 72/72/72 73/73/73 74/74/74
f 75/75/75 74/74/74 73/73/73
f 74/74/74 75/75/75 76/76/76
f 77/77/77 76/76/76 75/75/75
f 76/76/76 77/77/77 78/78/78
f 79/79/79 78/78/78 77/77/77
f 78/78/78 79/79/79 80/80/80
f 81/81/81 80/80/80 79/79/79
f 80/80/80 81/81/81 82/82/82
f 83/83/83 82/82/82 81/81/81
f 82/82/82 83/83/83 84/84/84
f 85/85/85 84/84/84 83/83/83
f 84/84/84 85/85/85 86/86/86
f 86/86/86 87/87/87 88/88/88
f 88/88/88 89/89/89 90/90/90
f 91/91/91 90/90/90 89/89/89
f 90/90/90 91/91/91 92/92/92
f 93/93/93 92/92/92 91/91/91
f 92/92/92 93/93/93 94/94/94
f 95/95/95 94/94/94 93/93/93
f 94/94/94 95/95/95 96/96/96
f 97/97/97 96/96/96 95/95/95
f 96/96/96 97/97/97 98/98/98
f 99/99/99 98/98/98 97/97/97
f 98/98/98 99/99/99 100/100/100
f 101/101/101 100/100/100 99/99/99
f 100/100/100 101/101/101 102/102/102
f 103/103/103 102/102/102 101/101/101
f 102/102/102 103/103/103 104/104/104
f 105/105/105 104/104/104 103/103/103
f 104/104/104 105/105/105 106/106/106
f 107/107/107 106/106/106 105/105/105
f 106/106/106 107/107/107 108/108/108
f 109/109/109 108/108/108 107/107/107
f 108/108/108 109/109/109 110/110/110
f 111/111/111 110/110/110 109/109/109
f 110/110/110 111/111/111 112/112/112
f 113/113/113 112/112/112 111/111/111
f 112/112/112 113/113/113 114/114/114
f 115/115/115 114/114/114 113/113/113
f 114/114/114 115/115/115 116/116/116
f 117/117/117 116/116/116 115/115/115
f 116/116/116 117/117/117 118/118/118
f 119/119/119 118/118/118 117/117/117
f 118/118/118 119/119/119 120/120/120
