g 
v 90.02444 59.59 44.50752
v 90.02444 45.59 44.50752
v 85.39862 59.59 44.96031
v 85.39862 45.59 44.96031
v 81.11739 59.59 47.63501
v 81.11739 45.59 47.63501
v 77.73235 59.59 44.98799
v 77.73235 45.59 44.98799
v 74.42245 59.59 43.52597
v 74.42245 45.59 43.52597
v 70.521 59.59 45.17817
v 70.521 45.59 45.17817
v 68.68101 59.59 42.96733
v 68.68101 45.59 42.96733
v 65.89711 59.59 41.68136
v 65.89711 45.59 41.68136
v 67.14595 59.59 37.7661
v 67.14595 45.59 37.7661
v 61.84451 59.59 35.52779
v 61.84451 45.59 35.52779
v 63.93044 59.59 30.825
v 63.93044 45.59 30.825
v 64.95657 59.59 24.60641
v 64.95657 45.59 24.60641
v 56.04931 62.89598 24.03047
v 56.04931 48.89598 24.03047
v 49.45385 64.6143 18.87123
v 49.45385 50.6143 18.87123
v 47.32425 65.03185 17.45435
v 47.32425 51.03185 17.45435
v 45.45967 59.59 20.20373
v 45.45967 45.59 20.20373
v 46.74088 59.59 24.59386
v 46.74088 45.59 24.59386
v 47.39827 59.59 29.79016
v 47.39827 45.59 29.79016
v 49.91864 59.59 33.10523
v 49.91864 45.59 33.10523
v 48.51388 59.59 35.50246
v 48.51388 45.59 35.50246
v 49.65919 59.59 37.18417
v 49.65919 45.59 37.18417
v 51.95448 59.59 38.06769
v 51.95448 45.59 38.06769
v 55.26595 59.59 40.83878
v 55.26595 45.59 40.83878
v 61.48551 59.59 45.44056
v 61.48551 45.59 45.44056
v 67.00015 59.59 51.04308
v 67.00015 45.59 51.04308
v 73.77852 59.59 56.04426
v 73.77852 45.59 56.04426
v 77.37368 65.25343 57.79538
v 77.37368 51.25343 57.79538
v 78.93423 65.25212 56.11678
v 78.93423 51.25212 56.11678
v 81.12038 65.21427 57.12718
v 81.12038 51.21427 57.12718
v 82.63014 65.25343 60.04417
v 82.63014 51.25343 60.04417
v 84.05472 65.18564 62.02377
v 84.05472 51.18564 62.02377
v 87.2728 63.38112 61.42854
v 87.2728 49.38112 61.42854
v 89.12464 61.50557 59.75891
v 89.12464 47.50557 59.75891
v 89.13851 59.81577 57.27891
v 89.13851 45.81577 57.27891
v 87.45655 59.59 55.95822
v 87.45655 45.59 55.95822
v 87.39982 59.59 51.9617
v 87.39982 45.59 51.9617
v 89.98087 59.59 50.3755
v 89.98087 45.59 50.3755
v 90.02444 59.59 44.50752
v 90.02444 45.59 44.50752
vt -0.9212444 0.3320752
vt -0.9212444 0.3320752
vt -0.8749862 0.3366031
vt -0.8749862 0.3366031
vt -0.8321739 0.3633501
vt -0.8321739 0.3633501
vt -0.7983235 0.3368799
vt -0.7983235 0.3368799
vt -0.7652245 0.3222597
vt -0.7652245 0.3222597
vt -0.7262099 0.3387817
vt -0.7262099 0.3387817
vt -0.70781 0.3166733
vt -0.70781 0.3166733
vt -0.6799711 0.3038136
vt -0.6799711 0.3038136
vt -0.6924595 0.264661
vt -0.6924595 0.264661
vt -0.6394451 0.2422779
vt -0.6394451 0.2422779
vt -0.6603044 0.19525
vt -0.6603044 0.19525
vt -0.6705656 0.1330641
vt -0.6705656 0.1330641
vt -0.5814931 0.1273047
vt -0.5814931 0.1273047
vt -0.5155385 0.07571229
vt -0.5155385 0.07571229
vt -0.4942425 0.06154345
vt -0.4942425 0.06154345
vt -0.4755967 0.08903731
vt -0.4755967 0.08903731
vt -0.4884088 0.1329386
vt -0.4884088 0.1329386
vt -0.4949827 0.1849016
vt -0.4949827 0.1849016
vt -0.5201864 0.2180523
vt -0.5201864 0.2180523
vt -0.5061387 0.2420246
vt -0.5061387 0.2420246
vt -0.5175919 0.2588417
vt -0.5175919 0.2588417
vt -0.5405447 0.2676769
vt -0.5405447 0.2676769
vt -0.5736594 0.2953877
vt -0.5736594 0.2953877
vt -0.6358551 0.3414056
vt -0.6358551 0.3414056
vt -0.6910015 0.3974307
vt -0.6910015 0.3974307
vt -0.7587851 0.4474426
vt -0.7587851 0.4474426
vt -0.7947367 0.4649538
vt -0.7947367 0.4649538
vt -0.8103423 0.4481677
vt -0.8103423 0.4481677
vt -0.8322038 0.4582718
vt -0.8322038 0.4582718
vt -0.8473014 0.4874417
vt -0.8473014 0.4874417
vt -0.8615472 0.5072377
vt -0.8615472 0.5072377
vt -0.893728 0.5012854
vt -0.893728 0.5012854
vt -0.9122464 0.4845891
vt -0.9122464 0.4845891
vt -0.9123851 0.4597891
vt -0.9123851 0.4597891
vt -0.8955655 0.4465822
vt -0.8955655 0.4465822
vt -0.8949981 0.406617
vt -0.8949981 0.406617
vt -0.9208086 0.390755
vt -0.9208086 0.390755
vt -0.9212444 0.3320752
vt -0.9212444 0.3320752
vn -0.09741657 0 -0.9952437
vn -0.09741657 0 -0.9952437
vn -0.5298467 0 -0.8480935
vn -0.5298467 0 -0.8480935
vn 0.6159989 0 -0.787747
vn 0.6159989 0 -0.787747
vn 0.40405 0 -0.9147369
vn 0.40405 0 -0.9147369
vn -0.3899566 0 -0.9208332
vn -0.3899566 0 -0.9208332
vn 0.7686275 0 -0.6396967
vn 0.7686275 0 -0.6396967
vn 0.419351 0 -0.9078242
vn 0.419351 0 -0.9078242
vn 0.9527093 0 0.3038832
vn 0.9527093 0 0.3038832
vn 0.3889607 0 -0.9212544
vn 0.3889607 0 -0.9212544
vn 0.9141143 0 0.4054565
vn 0.9141143 0 0.4054565
vn 0.9866579 0 0.1628074
vn 0.9866579 0 0.1628074
vn 0.06452502 0 -0.9979161
vn 0.06452502 0 -0.9979161
vn 0.6161287 0 -0.7876455
vn 0.6161287 0 -0.7876455
vn 0.5539299 0 -0.8325633
vn 0.5539299 0 -0.8325633
vn -0.8276263 0 -0.5612795
vn -0.8276263 0 -0.5612795
vn -0.9599557 0 0.2801516
vn -0.9599557 0 0.2801516
vn -0.9920922 0 0.125511
vn -0.9920922 0 0.125511
vn -0.7960573 0 0.6052212
vn -0.7960573 0 0.6052212
vn -0.8627785 0 -0.505582
vn -0.8627785 0 -0.505582
vn -0.8265268 0 0.5628974
vn -0.8265268 0 0.5628974
vn -0.3592315 0 0.9332485
vn -0.3592315 0 0.9332485
vn -0.6417588 0 0.7669065
vn -0.6417588 0 0.7669065
vn -0.594785 0 0.8038849
vn -0.594785 0 0.8038849
vn -0.7126738 0 0.7014955
vn -0.7126738 0 0.7014955
vn -0.5937065 0 0.8046817
vn -0.5937065 0 0.8046817
vn -0.4378959 0 0.8990256
vn -0.4378959 0 0.8990256
vn 0.7323932 0 0.680882
vn 0.7323932 0 0.680882
vn -0.4195397 0 0.907737
vn -0.4195397 0 0.907737
vn -0.8880972 0 0.4596556
vn -0.8880972 0 0.4596556
vn -0.8116778 0 0.5841054
vn -0.8116778 0 0.5841054
vn 0.1818812 0 0.9833205
vn 0.1818812 0 0.9833205
vn 0.6696236 0 0.7427006
vn 0.6696236 0 0.7427006
vn 0.9999844 0 0.005592752
vn 0.9999844 0 0.005592752
vn 0.6175745 0 -0.7865124
vn 0.6175745 0 -0.7865124
vn 0.9998993 0 -0.01419396
vn 0.9998993 0 -0.01419396
vn 0.523586 0 0.8519729
vn 0.523586 0 0.8519729
vn 0.9999724 0 0.007426392
vn 0.9999724 0 0.007426392
vn 0.9999724 0 0.007426392
vn 0.9999724 0 0.007426392
g _0
f 1/1/1 2/2/2 3/3/3
f 4/4/4 3/3/3 2/2/2
f 3/3/3 4/4/4 5/5/5
f 6/6/6 5/5/5 4/4/4
f 5/5/5 6/6/6 7/7/7
f 8/8/8 7/7/7 6/6/6
f 7/7/7 8/8/8 9/9/9
f 10/10/10 9/9/9 8/8/8
f 9/9/9 10/10/10 11/11/11
f 12/12/12 11/11/11 10/10/10
f 11/11/11 12/12/12 13/13/13
f 14/14/14 13/13/13 12/12/12
f 13/13/13 14/14/14 15/15/15
f 16/16/16 15/15/15 14/14/14
f 15/15/15 16/16/16 17/17/17
f 18/18/18 17/17/17 16/16/16
f 17/17/17 18/18/18 19/19/19
f 20/20/20 19/19/19 18/18/18
f 19/19/19 20/20/20 21/21/21
f 22/22/22 21/21/21 20/20/20
f 21/21/21 22/22/22 23/23/23
f 24/24/24 23/23/23 22/22/22
f 23/23/23 24/24/24 25/25/25
f 26/26/26 25/25/25 24/24/24
f 25/25/25 26/26/26 27/27/27
f 28/28/28 27/27/27 26/26/26
f 27/27/27 28/28/28 29/29/29
f 30/30/30 29/29/29 28/28/28
f 29/29/29 30/30/30 31/31/31
f 32/32/32 31/31/31 30/30/30
f 31/31/31 32/32/32 33/33/33
f 34/34/34 33/33/33 32/32/32
f 33/33/33 34/34/34 35/35/35
f 36/36/36 35/35/35 34/34/34
f 35/35/35 36/36/36 37/37/37
f 38/38/38 37/37/37 36/36/36
f 37/37/37 38/38/38 39/39/39
f 40/40/40 39/39/39 38/38/38
f 39/39/39 40/40/40 41/41/41
f 42/42/42 41/41/41 40/40/40
f 41/41/41 42/42/42 43/43/43
f 44/44/44 43/43/43 42/42/42
f 43/43/43 44/44/44 45/45/45
f 46/46/46 45/45/45 44/44/44
f 45/45/45 46/46/46 47/47/47
f 48/48/48 47/47/47 46/46/46
f 47/47/47 48/48/48 49/49/49
f 50/50/50 49/49/49 48/48/48
f 49/49/49 50/50/50 51/51/51
f 52/52/52 51/51/51 50/50/50
f 51/51/51 52/52/52 53/53/53
f 54/54/54 53/53/53 52/52/52
f 53/53/53 54/54/54 55/55/55
f 56/56/56 55/55/55 54/54/54
f 55/55/55 56/56/56 57/57/57
f 58/58/58 57/57/57 56/56/56
f 57/57/57 58/58/58 59/59/59
f 60/60/60 59/59/59 58/58/58
f 59/59/59 60/60/60 61/61/61
f 62/62/62 61/61/61 60/60/60
f 61/61/61 62/62/62 63/63/63
f 64/64/64 63/63/63 62/62/62
f 63/63/63 64/64/64 65/65/65
f 66/66/66 65/65/65 64/64/64
f 65/65/65 66/66/66 67/67/67
f 68/68/68 67/67/67 66/66/66
f 67/67/67 68/68/68 69/69/69
f 70/70/70 69/69/69 68/68/68
f 69/69/69 70/70/70 71/71/71
f 72/72/72 71/71/71 70/70/70
f 71/71/71 72/72/72 73/73/73
f 74/74/74 73/73/73 72/72/72
f 73/73/73 74/74/74 75/75/75
f 76/76/76 75/75/75 74/74/74
