g 
v 62.2 57.54324 -45.77
v 62.2 42.65676 -45.77
v 66.3 57.91245 -45.96
v 66.3 42.28755 -45.96
v 71.36 57.91245 -43.48
v 71.36 42.28755 -43.48
v 66.84 57.91245 -24.85
v 66.84 42.28755 -24.85
v 62.7 57.91245 -24.78
v 62.7 42.28755 -24.78
v 60.5 57.91245 -28.19
v 60.5 42.28755 -28.19
v 57.11 57.91245 -28.07
v 57.11 42.28755 -28.07
v 54.17 57.91245 -29.06
v 54.17 42.28755 -29.06
v 50.23 57.91245 -31.58
v 50.23 42.28755 -31.58
v 48.7 57.91245 -34.54
v 48.7 42.28755 -34.54
v 48.98 57.91245 -37.02
v 48.98 42.28755 -37.02
v 50.91 57.91245 -41.26
v 50.91 42.28755 -41.26
v 53.32 57.91245 -42.3
v 53.32 42.28755 -42.3
v 54.98 57.91245 -41.16
v 54.98 42.28755 -41.16
v 58.15 57.91245 -43.91
v 58.15 42.28755 -43.91
v 59.54 57.91245 -45.51
v 59.54 42.28755 -45.51
v 62.2 57.54324 -45.77
v 62.2 42.65676 -45.77
vt -1.293 -0.8307
vt -1.293 -0.8307
vt -1.334 -0.8325999
vt -1.334 -0.8325999
vt -1.3846 -0.8078
vt -1.3846 -0.8078
vt -1.3394 -0.6215
vt -1.3394 -0.6215
vt -1.298 -0.6208
vt -1.298 -0.6208
vt -1.276 -0.6549
vt -1.276 -0.6549
vt -1.2421 -0.6536999
vt -1.2421 -0.6536999
vt -1.2127 -0.6636
vt -1.2127 -0.6636
vt -1.1733 -0.6888
vt -1.1733 -0.6888
vt -1.158 -0.7183999
vt -1.158 -0.7183999
vt -1.1608 -0.7432
vt -1.1608 -0.7432
vt -1.1801 -0.7855999
vt -1.1801 -0.7855999
vt -1.2042 -0.7959999
vt -1.2042 -0.7959999
vt -1.2208 -0.7846
vt -1.2208 -0.7846
vt -1.2525 -0.8121
vt -1.2525 -0.8121
vt -1.2664 -0.8281
vt -1.2664 -0.8281
vt -1.293 -0.8307
vt -1.293 -0.8307
vn -0.04629142 0 -0.998928
vn -0.04629143 0 -0.998928
vn 0.4401012 0 -0.8979481
vn 0.4401012 0 -0.8979481
vn 0.9718066 0 0.2357794
vn 0.9718066 0 0.2357794
vn 0.01690574 0 0.9998571
vn 0.01690574 0 0.9998571
vn -0.8402966 0 0.542127
vn -0.8402966 0 0.542127
vn 0.03537633 0 0.999374
vn 0.03537633 0 0.999374
vn -0.3191271 0 0.9477119
vn -0.3191271 0 0.9477119
vn -0.5388112 0 0.8424266
vn -0.5388112 0 0.8424266
vn -0.8883445 0 0.4591776
vn -0.8883445 0 0.4591776
vn -0.9936868 0 -0.11219
vn -0.9936868 0 -0.11219
vn -0.9101457 0 -0.4142883
vn -0.9101457 0 -0.4142883
vn -0.3962174 0 -0.9181567
vn -0.3962174 0 -0.9181567
vn 0.5661071 0 -0.8243317
vn 0.5661071 0 -0.8243317
vn -0.655293 0 -0.7553747
vn -0.655293 0 -0.7553747
vn -0.75491 0 -0.6558284
vn -0.75491 0 -0.6558284
vn -0.09728155 0 -0.9952569
vn -0.09728155 0 -0.9952569
vn -0.09728155 0 -0.9952569
vn -0.09728155 0 -0.9952569
g _0
f 3/3/3 2/2/2 1/1/1
f 2/2/2 3/3/3 4/4/4
f 5/5/5 4/4/4 3/3/3
f 4/4/4 5/5/5 6/6/6
f 7/7/7 6/6/6 5/5/5
f 6/6/6 7/7/7 8/8/8
f 9/9/9 8/8/8 7/7/7
f 8/8/8 9/9/9 10/10/10
f 11/11/11 10/10/10 9/9/9
f 10/10/10 11/11/11 12/12/12
f 13/13/13 12/12/12 11/11/11
f 12/12/12 13/13/13 14/14/14
f 15/15/15 14/14/14 13/13/13
f 14/14/14 15/15/15 16/16/16
f 17/17/17 16/16/16 15/15/15
f 16/16/16 17/17/17 18/18/18
f 19/19/19 18/18/18 17/17/17
f 18/18/18 19/19/19 20/20/20
f 21/21/21 20/20/20 19/19/19
f 20/20/20 21/21/21 22/22/22
f 23/23/23 22/22/22 21/21/21
f 22/22/22 23/23/23 24/24/24
f 25/25/25 24/24/24 23/23/23
f 24/24/24 25/25/25 26/26/26
f 27/27/27 26/26/26 25/25/25
f 26/26/26 27/27/27 28/28/28
f 29/29/29 28/28/28 27/27/27
f 28/28/28 29/29/29 30/30/30
f 31/31/31 30/30/30 29/29/29
f 30/30/30 31/31/31 32/32/32
f 33/33/33 32/32/32 31/31/31
f 32/32/32 33/33/33 34/34/34
