g 
v 47.17231 49.5 81.39354
v 47.17231 35.5 81.39354
v 48.71763 49.5 76.93232
v 48.71763 35.5 76.93232
v 47.50738 49.5 71.01138
v 47.50738 35.5 71.01138
v 43.86388 49.5 68.22362
v 43.86388 35.5 68.22362
v 39.97195 49.5 70.01078
v 39.97195 35.5 70.01078
v 37.74087 49.5 74.24839
v 37.74087 35.5 74.24839
v 37.23673 49.5 82.25468
v 37.23673 35.5 82.25468
v 38.587 51.11974 80.9349
v 38.587 37.11974 80.9349
v 39.07687 53.9 73.93719
v 39.07687 39.9 73.93719
v 39.64502 53.87995 71.8895
v 39.64502 39.87995 71.8895
v 41.17893 53.89257 71.03241
v 41.17893 39.89257 71.03241
v 45.97978 53.59472 71.59347
v 45.97978 39.59472 71.59347
v 46.75326 53.85143 74.06886
v 46.75326 39.85143 74.06886
v 47.17231 49.5 81.39354
v 47.17231 35.5 81.39354
vt -0.4927231 0.7009354
vt -0.4927231 0.7009354
vt -0.5081763 0.6563231
vt -0.5081763 0.6563231
vt -0.4960738 0.5971137
vt -0.4960738 0.5971137
vt -0.4596388 0.5692362
vt -0.4596388 0.5692362
vt -0.4207194 0.5871078
vt -0.4207194 0.5871078
vt -0.3984087 0.6294839
vt -0.3984087 0.6294839
vt -0.3933673 0.7095468
vt -0.3933673 0.7095468
vt -0.4068699 0.696349
vt -0.4068699 0.696349
vt -0.4117687 0.6263719
vt -0.4117687 0.6263719
vt -0.4174502 0.6058949
vt -0.4174502 0.6058949
vt -0.4327893 0.5973241
vt -0.4327893 0.5973241
vt -0.4807978 0.6029347
vt -0.4807978 0.6029347
vt -0.4885326 0.6276886
vt -0.4885326 0.6276886
vt -0.4927231 0.7009354
vt -0.4927231 0.7009354
vn 0.9449175 0 0.3273084
vn 0.9449175 0 0.3273084
vn 0.9797427 0 -0.2002604
vn 0.9797427 0 -0.2002604
vn 0.6076634 0 -0.7941947
vn 0.6076634 0 -0.7941947
vn -0.417303 0 -0.9087675
vn -0.417303 0 -0.9087675
vn -0.8848529 0 -0.4658704
vn -0.8848529 0 -0.4658704
vn -0.9980235 0 -0.06284289
vn -0.9980235 0 -0.06284289
vn 0.6989894 0 0.7151321
vn 0.6989894 0 0.7151321
vn 0.9975587 0 0.06983377
vn 0.9975587 0 0.06983377
vn 0.963597 0 0.2673591
vn 0.963597 0 0.2673591
vn 0.4877788 0 0.8729672
vn 0.4877788 0 0.8729672
vn -0.1160765 0 0.9932402
vn -0.1160765 0 0.9932402
vn -0.9544886 0 0.2982477
vn -0.9544886 0 0.2982477
vn -0.9983674 0 0.05711761
vn -0.9983674 0 0.05711761
vn -0.9983674 0 0.05711761
vn -0.9983674 0 0.05711761
g _0
f 1/1/1 2/2/2 3/3/3
f 4/4/4 3/3/3 2/2/2
f 3/3/3 4/4/4 5/5/5
f 6/6/6 5/5/5 4/4/4
f 5/5/5 6/6/6 7/7/7
f 8/8/8 7/7/7 6/6/6
f 7/7/7 8/8/8 9/9/9
f 10/10/10 9/9/9 8/8/8
f 9/9/9 10/10/10 11/11/11
f 12/12/12 11/11/11 10/10/10
f 11/11/11 12/12/12 13/13/13
f 14/14/14 13/13/13 12/12/12
f 13/13/13 14/14/14 15/15/15
f 16/16/16 15/15/15 14/14/14
f 15/15/15 16/16/16 17/17/17
f 18/18/18 17/17/17 16/16/16
f 17/17/17 18/18/18 19/19/19
f 20/20/20 19/19/19 18/18/18
f 19/19/19 20/20/20 21/21/21
f 22/22/22 21/21/21 20/20/20
f 21/21/21 22/22/22 23/23/23
f 24/24/24 23/23/23 22/22/22
f 23/23/23 24/24/24 25/25/25
f 26/26/26 25/25/25 24/24/24
f 25/25/25 26/26/26 27/27/27
f 28/28/28 27/27/27 26/26/26
