g 
v 113.9533 59.59 -29.2513
v 113.9533 45.59 -29.2513
v 114.5554 59.59 -36.06945
v 114.5554 45.59 -36.06945
v 111.6065 59.59 -37.82969
v 111.6065 45.59 -37.82969
v 113.0478 59.59 -41.99752
v 113.0478 45.59 -41.99752
v 113.6253 59.59 -49.53943
v 113.6253 45.59 -49.53943
v 110.3128 59.59 -49.51646
v 110.3128 45.59 -49.51646
v 110.4342 59.59 -41.14917
v 110.4342 45.59 -41.14917
v 108.314 59.59 -35.78167
v 108.314 45.59 -35.78167
v 101.7061 59.59 -35.66774
v 101.7061 45.59 -35.66774
v 96.70624 59.59 -36.51739
v 96.70624 45.59 -36.51739
v 96.17619 59.59 -38.03154
v 96.17619 45.59 -38.03154
v 94.32287 59.59 -38.05575
v 94.32287 45.59 -38.05575
v 94.94135 59.59 -43.64496
v 94.94135 45.59 -43.64496
v 94.44666 59.59 -50.52016
v 94.44666 45.59 -50.52016
v 99.04836 59.59 -52.257
v 99.04836 45.59 -52.257
v 101.2396 59.59 -51.49282
v 101.2396 45.59 -51.49282
v 100.8364 59.59 -54.12658
v 100.8364 45.59 -54.12658
v 98.8223 59.59 -54.28711
v 98.8223 45.59 -54.28711
v 96.21394 59.59 -54.99937
v 96.21394 45.59 -54.99937
v 94.69996 59.59 -65.51373
v 94.69996 45.59 -65.51373
v 92.90273 59.59 -67.72002
v 92.90273 45.59 -67.72002
v 93.60914 59.59 -74.53066
v 93.60914 45.59 -74.53066
v 92.04738 59.59 -76.22575
v 92.04738 45.59 -76.22575
v 89.47262 59.59 -77.14394
v 89.47262 45.59 -77.14394
v 80.91057 59.59 -78.39625
v 80.91057 45.59 -78.39625
v 77.94375 59.59 -74.85313
v 77.94375 45.59 -74.85313
v 80.53152 59.59 -71.43542
v 80.53152 45.59 -71.43542
v 83.39385 59.59 -64.89851
v 83.39385 45.59 -64.89851
v 83.58688 59.59 -53.44481
v 83.58688 45.59 -53.44481
v 82.89989 59.59 -47.52721
v 82.89989 45.59 -47.52721
v 84.86553 59.59 -47.54992
v 84.86553 45.59 -47.54992
v 84.46771 59.59 -43.33193
v 84.46771 45.59 -43.33193
v 79.88703 59.59 -43.45229
v 79.88703 45.59 -43.45229
v 79.13088 59.59 -38.25832
v 79.13088 45.59 -38.25832
v 81.56856 59.59 -33.53233
v 81.56856 45.59 -33.53233
v 87.17469 59.59 -32.68217
v 87.17469 45.59 -32.68217
v 89.6252 59.59 -29.32281
v 89.6252 45.59 -29.32281
v 94.77496 59.59 -29.20189
v 94.77496 45.59 -29.20189
v 94.46394 59.59 -26.7932
v 94.46394 45.59 -26.7932
v 100.1865 59.59 -25.74019
v 100.1865 45.59 -25.74019
v 109.5258 59.59 -25.22328
v 109.5258 45.59 -25.22328
v 112.959 59.59 -25.07553
v 112.959 45.59 -25.07553
v 113.9533 59.59 -29.2513
v 113.9533 45.59 -29.2513
vt -1.160533 -0.405513
vt -1.160533 -0.405513
vt -1.166554 -0.4736945
vt -1.166554 -0.4736945
vt -1.137065 -0.4912968
vt -1.137065 -0.4912968
vt -1.151478 -0.5329752
vt -1.151478 -0.5329752
vt -1.157253 -0.6083943
vt -1.157253 -0.6083943
vt -1.124128 -0.6081645
vt -1.124128 -0.6081645
vt -1.125342 -0.5244917
vt -1.125342 -0.5244917
vt -1.10414 -0.4708166
vt -1.10414 -0.4708166
vt -1.038061 -0.4696774
vt -1.038061 -0.4696774
vt -0.9880623 -0.4781739
vt -0.9880623 -0.4781739
vt -0.9827619 -0.4933153
vt -0.9827619 -0.4933153
vt -0.9642286 -0.4935575
vt -0.9642286 -0.4935575
vt -0.9704134 -0.5494496
vt -0.9704134 -0.5494496
vt -0.9654666 -0.6182016
vt -0.9654666 -0.6182016
vt -1.011484 -0.63557
vt -1.011484 -0.63557
vt -1.033396 -0.6279281
vt -1.033396 -0.6279281
vt -1.029364 -0.6542658
vt -1.029364 -0.6542658
vt -1.009223 -0.655871
vt -1.009223 -0.655871
vt -0.9831393 -0.6629937
vt -0.9831393 -0.6629937
vt -0.9679996 -0.7681373
vt -0.9679996 -0.7681373
vt -0.9500273 -0.7902002
vt -0.9500273 -0.7902002
vt -0.9570913 -0.8583066
vt -0.9570913 -0.8583066
vt -0.9414737 -0.8752576
vt -0.9414737 -0.8752576
vt -0.9157261 -0.8844395
vt -0.9157261 -0.8844395
vt -0.8301057 -0.8969625
vt -0.8301057 -0.8969625
vt -0.8004375 -0.8615313
vt -0.8004375 -0.8615313
vt -0.8263152 -0.8273543
vt -0.8263152 -0.8273543
vt -0.8549385 -0.7619851
vt -0.8549385 -0.7619851
vt -0.8568688 -0.6474481
vt -0.8568688 -0.6474481
vt -0.8499989 -0.5882721
vt -0.8499989 -0.5882721
vt -0.8696553 -0.5884992
vt -0.8696553 -0.5884992
vt -0.8656771 -0.5463192
vt -0.8656771 -0.5463192
vt -0.8198703 -0.5475228
vt -0.8198703 -0.5475228
vt -0.8123088 -0.4955832
vt -0.8123088 -0.4955832
vt -0.8366855 -0.4483233
vt -0.8366855 -0.4483233
vt -0.8927469 -0.4398217
vt -0.8927469 -0.4398217
vt -0.9172519 -0.4062281
vt -0.9172519 -0.4062281
vt -0.9687496 -0.4050189
vt -0.9687496 -0.4050189
vt -0.9656394 -0.380932
vt -0.9656394 -0.380932
vt -1.022865 -0.3704019
vt -1.022865 -0.3704019
vt -1.116259 -0.3652328
vt -1.116259 -0.3652328
vt -1.15059 -0.3637553
vt -1.15059 -0.3637553
vt -1.160533 -0.405513
vt -1.160533 -0.405513
vn 0.9961238 0 0.08796227
vn 0.9961238 0 0.08796227
vn 0.5125433 0 -0.8586614
vn 0.5125433 0 -0.8586614
vn 0.9450852 0 0.3268242
vn 0.9450852 0 0.3268242
vn 0.9970806 0 0.07635561
vn 0.9970806 0 0.07635561
vn -0.006934793 0 -0.999976
vn -0.006934793 0 -0.999976
vn -0.9998948 0 0.01450358
vn -0.9998948 0 0.01450358
vn -0.930073 0 -0.3673747
vn -0.930073 0 -0.3673747
vn -0.01723752 0 -0.9998514
vn -0.01723752 0 -0.9998514
vn 0.1675329 0 -0.9858665
vn 0.1675329 0 -0.9858665
vn 0.9438404 0 -0.3304018
vn 0.9438404 0 -0.3304018
vn 0.01306497 0 -0.9999146
vn 0.01306497 0 -0.9999146
vn 0.9939333 0 0.1099842
vn 0.9939333 0 0.1099842
vn 0.9974214 0 -0.07176615
vn 0.9974214 0 -0.07176615
vn 0.3531193 0 0.9355782
vn 0.3531193 0 0.9355782
vn -0.3292959 0 0.9442269
vn -0.3292959 0 0.9442269
vn 0.9884865 0 -0.1513088
vn 0.9884865 0 -0.1513088
vn 0.07944942 0 -0.9968389
vn 0.07944942 0 -0.9968389
vn 0.2634244 0 -0.96468
vn 0.2634244 0 -0.96468
vn 0.9897917 0 -0.1425215
vn 0.9897917 0 -0.1425215
vn 0.7753198 0 -0.6315688
vn 0.7753198 0 -0.6315688
vn 0.994664 0 0.1031673
vn 0.994664 0 0.1031673
vn 0.7354388 0 -0.6775911
vn 0.7354388 0 -0.6775911
vn 0.3358928 0 -0.9419003
vn 0.3358928 0 -0.9419003
vn 0.1447224 0 -0.9894723
vn 0.1447224 0 -0.9894723
vn -0.766706 0 -0.6419985
vn -0.766706 0 -0.6419985
vn -0.7972492 0 0.6036503
vn -0.7972492 0 0.6036503
vn -0.9160321 0 0.401105
vn -0.9160321 0 0.401105
vn -0.999858 0 0.0168508
vn -0.999858 0 0.0168508
vn -0.9933286 0 -0.115318
vn -0.9933286 0 -0.115318
vn 0.01155217 0 0.9999332
vn 0.01155217 0 0.9999332
vn -0.9955818 0 -0.09389814
vn -0.9955818 0 -0.09389814
vn 0.02626596 0 -0.999655
vn 0.02626596 0 -0.999655
vn -0.9895684 0 -0.1440637
vn -0.9895684 0 -0.1440637
vn -0.8887391 0 0.4584135
vn -0.8887391 0 0.4584135
vn -0.1499338 0 0.988696
vn -0.1499338 0 0.988696
vn -0.8078959 0 0.5893252
vn -0.8078959 0 0.5893252
vn -0.02347536 0 0.9997244
vn -0.02347536 0 0.9997244
vn -0.9917663 0 -0.1280608
vn -0.9917663 0 -0.1280608
vn -0.1809707 0 0.9834884
vn -0.1809707 0 0.9834884
vn -0.05526325 0 0.9984718
vn -0.05526325 0 0.9984718
vn -0.04299478 0 0.9990753
vn -0.04299478 0 0.9990753
vn 0.9728009 0 0.2316429
vn 0.9728009 0 0.2316429
vn 0.9728009 0 0.2316429
vn 0.9728009 0 0.2316429
g _0
f 1/1/1 2/2/2 3/3/3
f 4/4/4 3/3/3 2/2/2
f 3/3/3 4/4/4 5/5/5
f 6/6/6 5/5/5 4/4/4
f 5/5/5 6/6/6 7/7/7
f 8/8/8 7/7/7 6/6/6
f 7/7/7 8/8/8 9/9/9
f 10/10/10 9/9/9 8/8/8
f 9/9/9 10/10/10 11/11/11
f 12/12/12 11/11/11 10/10/10
f 11/11/11 12/12/12 13/13/13
f 14/14/14 13/13/13 12/12/12
f 13/13/13 14/14/14 15/15/15
f 16/16/16 15/15/15 14/14/14
f 15/15/15 16/16/16 17/17/17
f 18/18/18 17/17/17 16/16/16
f 17/17/17 18/18/18 19/19/19
f 20/20/20 19/19/19 18/18/18
f 19/19/19 20/20/20 21/21/21
f 22/22/22 21/21/21 20/20/20
f 21/21/21 22/22/22 23/23/23
f 24/24/24 23/23/23 22/22/22
f 23/23/23 24/24/24 25/25/25
f 26/26/26 25/25/25 24/24/24
f 25/25/25 26/26/26 27/27/27
f 28/28/28 27/27/27 26/26/26
f 27/27/27 28/28/28 29/29/29
f 30/30/30 29/29/29 28/28/28
f 29/29/29 30/30/30 31/31/31
f 32/32/32 31/31/31 30/30/30
f 31/31/31 32/32/32 33/33/33
f 34/34/34 33/33/33 32/32/32
f 33/33/33 34/34/34 35/35/35
f 36/36/36 35/35/35 34/34/34
f 35/35/35 36/36/36 37/37/37
f 38/38/38 37/37/37 36/36/36
f 37/37/37 38/38/38 39/39/39
f 40/40/40 39/39/39 38/38/38
f 39/39/39 40/40/40 41/41/41
f 42/42/42 41/41/41 40/40/40
f 41/41/41 42/42/42 43/43/43
f 44/44/44 43/43/43 42/42/42
f 43/43/43 44/44/44 45/45/45
f 46/46/46 45/45/45 44/44/44
f 45/45/45 46/46/46 47/47/47
f 48/48/48 47/47/47 46/46/46
f 47/47/47 48/48/48 49/49/49
f 50/50/50 49/49/49 48/48/48
f 49/49/49 50/50/50 51/51/51
f 52/52/52 51/51/51 50/50/50
f 51/51/51 52/52/52 53/53/53
f 54/54/54 53/53/53 52/52/52
f 53/53/53 54/54/54 55/55/55
f 56/56/56 55/55/55 54/54/54
f 55/55/55 56/56/56 57/57/57
f 58/58/58 57/57/57 56/56/56
f 57/57/57 58/58/58 59/59/59
f 60/60/60 59/59/59 58/58/58
f 59/59/59 60/60/60 61/61/61
f 62/62/62 61/61/61 60/60/60
f 61/61/61 62/62/62 63/63/63
f 64/64/64 63/63/63 62/62/62
f 63/63/63 64/64/64 65/65/65
f 66/66/66 65/65/65 64/64/64
f 65/65/65 66/66/66 67/67/67
f 68/68/68 67/67/67 66/66/66
f 67/67/67 68/68/68 69/69/69
f 70/70/70 69/69/69 68/68/68
f 69/69/69 70/70/70 71/71/71
f 72/72/72 71/71/71 70/70/70
f 71/71/71 72/72/72 73/73/73
f 74/74/74 73/73/73 72/72/72
f 73/73/73 74/74/74 75/75/75
f 76/76/76 75/75/75 74/74/74
f 75/75/75 76/76/76 77/77/77
f 78/78/78 77/77/77 76/76/76
f 77/77/77 78/78/78 79/79/79
f 80/80/80 79/79/79 78/78/78
f 79/79/79 80/80/80 81/81/81
f 82/82/82 81/81/81 80/80/80
f 81/81/81 82/82/82 83/83/83
f 84/84/84 83/83/83 82/82/82
f 83/83/83 84/84/84 85/85/85
f 86/86/86 85/85/85 84/84/84
