g 
v -1.4 108.4166 -220.95
v -1.4 94.41657 -220.95
v 1.46 108.4166 -219.06
v 1.46 94.41657 -219.06
v -1.882699 108.4166 -213.9661
v -1.882699 94.41657 -213.9661
v -3.718126 108.4166 -215.4994
v -3.718126 94.41657 -215.4994
v -3.739587 108.4166 -218.3611
v -3.739587 94.41657 -218.3611
v -1.4 108.4166 -220.95
v -1.4 94.41657 -220.95
vt 1.244455 -1.754044
vt 1.244455 -1.754044
vt 1.215855 -1.735144
vt 1.215855 -1.735144
vt 1.249282 -1.684205
vt 1.249282 -1.684205
vt 1.267636 -1.699538
vt 1.267636 -1.699538
vt 1.267851 -1.728155
vt 1.267851 -1.728155
vt 1.244455 -1.754044
vt 1.244455 -1.754044
vn 0.5513297 0 -0.8342875
vn 0.5513297 0 -0.8342875
vn 0.8360602 0 0.5486376
vn 0.8360602 0 0.5486376
vn -0.6411149 0 0.7674448
vn -0.6411149 0 0.7674448
vn -0.9999719 0 0.007499243
vn -0.9999719 0 0.007499243
vn -0.7419217 0 -0.6704866
vn -0.7419217 0 -0.6704866
vn -0.7419217 0 -0.6704866
vn -0.7419217 0 -0.6704866
g _0
f 3/3/3 2/2/2 1/1/1
f 2/2/2 3/3/3 4/4/4
f 5/5/5 4/4/4 3/3/3
f 4/4/4 5/5/5 6/6/6
f 7/7/7 6/6/6 5/5/5
f 6/6/6 7/7/7 8/8/8
f 9/9/9 8/8/8 7/7/7
f 8/8/8 9/9/9 10/10/10
f 11/11/11 10/10/10 9/9/9
f 10/10/10 11/11/11 12/12/12
