g 
v 18.13088 18.4 -88.19672
v 28.34503 18.4 -112.2857
v 20.50826 18.4 -76.21532
v 38.61012 18.4 -118.9064
v 33.61211 18.4 -64.6575
v 56.02789 18.4 -117.5225
v 41.41516 18.42593 -61.08828
v 64.0182 18.42593 -114.395
v 50.07627 18.4572 -57.10146
v 72.90526 18.4572 -110.9411
v 58.65706 18.5107 -52.92534
v 81.87257 18.5107 -107.6765
v 67.26462 18.55679 -48.81232
v 90.81311 18.55679 -104.3488
v 75.93464 18.5856 -44.84654
v 99.69126 18.5856 -100.8738
v 80.26965 18.6 -42.86365
v 104.1303 18.6 -99.13635
v 98.81018 18.6 -41.3905
v 118.0789 18.6 -86.83351
v 109.737 18.6 -48.43805
v 120.6095 18.6 -74.07977
v 18.13088 18.4 -88.19672
v 18.13088 -11.6 -88.19672
v 20.50826 18.4 -76.21532
v 20.50826 -11.6 -76.21532
v 20.50826 18.4 -76.21532
v 20.50826 -11.6 -76.21532
v 33.61211 18.4 -64.6575
v 33.61211 -11.6 -64.6575
v 33.61211 18.4 -64.6575
v 33.61211 -11.6 -64.6575
v 41.41516 18.42593 -61.08828
v 41.41516 -11.57407 -61.08828
v 41.41516 18.42593 -61.08828
v 41.41516 -11.57407 -61.08828
v 50.07627 18.4572 -57.10146
v 50.07627 -11.5428 -57.10146
v 50.07627 18.4572 -57.10146
v 50.07627 -11.5428 -57.10146
v 58.65706 18.5107 -52.92534
v 58.65706 -11.4893 -52.92534
v 58.65706 18.5107 -52.92534
v 58.65706 -11.4893 -52.92534
v 67.26462 18.55679 -48.81232
v 67.26462 -11.44321 -48.81232
v 67.26462 18.55679 -48.81232
v 67.26462 -11.44321 -48.81232
v 75.93464 18.5856 -44.84654
v 75.93464 -11.4144 -44.84654
v 75.93464 18.5856 -44.84654
v 75.93464 -11.4144 -44.84654
v 80.26965 18.6 -42.86365
v 80.26965 -11.4 -42.86365
v 80.26965 18.6 -42.86365
v 80.26965 -11.4 -42.86365
v 98.81018 18.6 -41.3905
v 98.81018 -11.4 -41.3905
v 98.81018 18.6 -41.3905
v 98.81018 -11.4 -41.3905
v 109.737 18.6 -48.43805
v 109.737 -11.4 -48.43805
v 28.34503 18.4 -112.2857
v 28.34503 -11.6 -112.2857
v 38.61012 18.4 -118.9064
v 38.61012 -11.6 -118.9064
v 38.61012 18.4 -118.9064
v 38.61012 -11.6 -118.9064
v 56.02789 18.4 -117.5225
v 56.02789 -11.6 -117.5225
v 56.02789 18.4 -117.5225
v 56.02789 -11.6 -117.5225
v 64.0182 18.42593 -114.395
v 64.0182 -11.57407 -114.395
v 64.0182 18.42593 -114.395
v 64.0182 -11.57407 -114.395
v 72.90526 18.4572 -110.9411
v 72.90526 -11.5428 -110.9411
v 72.90526 18.4572 -110.9411
v 72.90526 -11.5428 -110.9411
v 81.87257 18.5107 -107.6765
v 81.87257 -11.4893 -107.6765
v 81.87257 18.5107 -107.6765
v 81.87257 -11.4893 -107.6765
v 90.81311 18.55679 -104.3488
v 90.81311 -11.44321 -104.3488
v 90.81311 18.55679 -104.3488
v 90.81311 -11.44321 -104.3488
v 99.69126 18.5856 -100.8738
v 99.69126 -11.4144 -100.8738
v 99.69126 18.5856 -100.8738
v 99.69126 -11.4144 -100.8738
v 104.1303 18.6 -99.13635
v 104.1303 -11.4 -99.13635
v 104.1303 18.6 -99.13635
v 104.1303 -11.4 -99.13635
v 118.0789 18.6 -86.83351
v 118.0789 -11.4 -86.83351
v 118.0789 18.6 -86.83351
v 118.0789 -11.4 -86.83351
v 120.6095 18.6 -74.07977
v 120.6095 -11.4 -74.07977
vt -0.06879371 -0.1237863
vt -0.04415857 -0.1149706
vt -0.07599235 -0.1336547
vt -0.03233324 -0.1180313
vt -0.07560971 -0.1511232
vt -0.02154605 -0.1317765
vt -0.07294569 -0.1592797
vt -0.01843028 -0.1397714
vt -0.07000717 -0.1683503
vt -0.01494679 -0.1486469
vt -0.06726227 -0.17749
vt -0.01126969 -0.1574531
vt -0.06445285 -0.1866067
vt -0.007657143 -0.1662824
vt -0.06149282 -0.1956696
vt -0.004195163 -0.1751656
vt -0.06001281 -0.200201
vt -0.002464168 -0.1796072
vt -0.04853027 -0.2148322
vt -0.002056879 -0.1982017
vt -0.03594266 -0.2180902
vt -0.009719546 -0.2087062
vt -0.06879371 -0.1237863
vt -0.06879371 -0.1237863
vt -0.07599235 -0.1336547
vt -0.07599235 -0.1336547
vt -0.07599235 -0.1336547
vt -0.07599235 -0.1336547
vt -0.07560971 -0.1511232
vt -0.07560971 -0.1511232
vt -0.07560971 -0.1511232
vt -0.07560971 -0.1511232
vt -0.07294569 -0.1592797
vt -0.07294569 -0.1592797
vt -0.07294569 -0.1592797
vt -0.07294569 -0.1592797
vt -0.07000717 -0.1683503
vt -0.07000717 -0.1683503
vt -0.07000717 -0.1683503
vt -0.07000717 -0.1683503
vt -0.06726227 -0.17749
vt -0.06726227 -0.17749
vt -0.06726227 -0.17749
vt -0.06726227 -0.17749
vt -0.06445285 -0.1866067
vt -0.06445285 -0.1866067
vt -0.06445285 -0.1866067
vt -0.06445285 -0.1866067
vt -0.06149282 -0.1956696
vt -0.06149282 -0.1956696
vt -0.06149282 -0.1956696
vt -0.06149282 -0.1956696
vt -0.06001281 -0.200201
vt -0.06001281 -0.200201
vt -0.06001281 -0.200201
vt -0.06001281 -0.200201
vt -0.04853027 -0.2148322
vt -0.04853027 -0.2148322
vt -0.04853027 -0.2148322
vt -0.04853027 -0.2148322
vt -0.03594266 -0.2180902
vt -0.03594266 -0.2180902
vt -0.04415857 -0.1149706
vt -0.04415857 -0.1149706
vt -0.03233324 -0.1180313
vt -0.03233324 -0.1180313
vt -0.03233324 -0.1180313
vt -0.03233324 -0.1180313
vt -0.02154605 -0.1317765
vt -0.02154605 -0.1317765
vt -0.02154605 -0.1317765
vt -0.02154605 -0.1317765
vt -0.01843028 -0.1397714
vt -0.01843028 -0.1397714
vt -0.01843028 -0.1397714
vt -0.01843028 -0.1397714
vt -0.01494679 -0.1486469
vt -0.01494679 -0.1486469
vt -0.01494679 -0.1486469
vt -0.01494679 -0.1486469
vt -0.01126969 -0.1574531
vt -0.01126969 -0.1574531
vt -0.01126969 -0.1574531
vt -0.01126969 -0.1574531
vt -0.007657143 -0.1662824
vt -0.007657143 -0.1662824
vt -0.007657143 -0.1662824
vt -0.007657143 -0.1662824
vt -0.004195163 -0.1751656
vt -0.004195163 -0.1751656
vt -0.004195163 -0.1751656
vt -0.004195163 -0.1751656
vt -0.002464168 -0.1796072
vt -0.002464168 -0.1796072
vt -0.002464168 -0.1796072
vt -0.002464168 -0.1796072
vt -0.002056879 -0.1982017
vt -0.002056879 -0.1982017
vt -0.002056879 -0.1982017
vt -0.002056879 -0.1982017
vt -0.009719546 -0.2087062
vt -0.009719546 -0.2087062
vn 0 1 0
vn 0 1 0
vn 0 1 0
vn 0 1 0
vn 0 1 0
vn 0 1 0
vn 0 1 0
vn 0 1 0
vn 0 1 0
vn 0 1 0
vn 0 1 0
vn 0 1 0
vn 0 1 0
vn 0 1 0
vn 0 1 0
vn 0 1 0
vn 0 1 0
vn 0 1 0
vn 0 1 0
vn 0 1 0
vn 0 1 0
vn 0 1 0
vn -0.920656 0 -0.390375
vn -0.920656 0 -0.390375
vn -0.980877 0 0.1946287
vn -0.980877 0 0.1946287
vn -0.6614798 0 0.7499629
vn -0.6614798 0 0.7499629
vn -0.6614798 0 0.7499629
vn -0.6614798 0 0.7499629
vn -0.4159637 0 0.9093812
vn -0.4159637 0 0.9093812
vn -0.4159637 0 0.9093812
vn -0.4159637 0 0.9093812
vn -0.4181398 0 0.9083827
vn -0.4181398 0 0.9083827
vn -0.4181398 0 0.9083827
vn -0.4181398 0 0.9083827
vn -0.4376082 0 0.8991657
vn -0.4376082 0 0.8991657
vn -0.4376082 0 0.8991657
vn -0.4376082 0 0.8991657
vn -0.4311449 0 0.9022827
vn -0.4311449 0 0.9022827
vn -0.4311449 0 0.9022827
vn -0.4311449 0 0.9022827
vn -0.4159631 0 0.9093815
vn -0.4159631 0 0.9093815
vn -0.4159631 0 0.9093815
vn -0.4159631 0 0.9093815
vn -0.4159641 0 0.909381
vn -0.4159641 0 0.909381
vn -0.4159641 0 0.909381
vn -0.4159641 0 0.909381
vn -0.07920592 0 0.9968582
vn -0.07920592 0 0.9968582
vn -0.07920592 0 0.9968582
vn -0.07920592 0 0.9968582
vn 0.5420193 0 0.840366
vn 0.5420193 0 0.840366
vn 0.9206559 0 0.3903752
vn 0.9206559 0 0.3903752
vn -0.920656 0 -0.390375
vn -0.920656 0 -0.390375
vn -0.5420188 0 -0.8403664
vn -0.5420188 0 -0.8403664
vn 0.07920609 0 -0.9968582
vn 0.07920609 0 -0.9968582
vn 0.07920609 0 -0.9968582
vn 0.07920609 0 -0.9968582
vn 0.3644822 0 -0.9312104
vn 0.3644822 0 -0.9312104
vn 0.3644822 0 -0.9312104
vn 0.3644822 0 -0.9312104
vn 0.3622496 0 -0.9320811
vn 0.3622496 0 -0.9320811
vn 0.3622496 0 -0.9320811
vn 0.3622496 0 -0.9320811
vn 0.3420906 0 -0.9396669
vn 0.3420906 0 -0.9396669
vn 0.3420906 0 -0.9396669
vn 0.3420906 0 -0.9396669
vn 0.348825 0 -0.9371879
vn 0.348825 0 -0.9371879
vn 0.348825 0 -0.9371879
vn 0.348825 0 -0.9371879
vn 0.364482 0 -0.9312105
vn 0.364482 0 -0.9312105
vn 0.364482 0 -0.9312105
vn 0.364482 0 -0.9312105
vn 0.3644819 0 -0.9312105
vn 0.3644819 0 -0.9312105
vn 0.3644819 0 -0.9312105
vn 0.3644819 0 -0.9312105
vn 0.6614799 0 -0.7499628
vn 0.6614799 0 -0.7499628
vn 0.6614799 0 -0.7499628
vn 0.6614799 0 -0.7499628
vn 0.980877 0 -0.1946289
vn 0.980877 0 -0.1946289
vn 0.9206559 0 0.3903752
vn 0.9206559 0 0.3903752
g _0
f 3/3/3 2/2/2 1/1/1
f 2/2/2 3/3/3 4/4/4
f 5/5/5 4/4/4 3/3/3
f 4/4/4 5/5/5 6/6/6
f 7/7/7 6/6/6 5/5/5
f 6/6/6 7/7/7 8/8/8
f 9/9/9 8/8/8 7/7/7
f 8/8/8 9/9/9 10/10/10
f 11/11/11 10/10/10 9/9/9
f 10/10/10 11/11/11 12/12/12
f 13/13/13 12/12/12 11/11/11
f 12/12/12 13/13/13 14/14/14
f 15/15/15 14/14/14 13/13/13
f 14/14/14 15/15/15 16/16/16
f 17/17/17 16/16/16 15/15/15
f 16/16/16 17/17/17 18/18/18
f 19/19/19 18/18/18 17/17/17
f 18/18/18 19/19/19 20/20/20
f 21/21/21 20/20/20 19/19/19
f 20/20/20 21/21/21 22/22/22
g _1
f 23/23/23 24/24/24 25/25/25
f 26/26/26 25/25/25 24/24/24
f 27/27/27 28/28/28 29/29/29
f 30/30/30 29/29/29 28/28/28
f 31/31/31 32/32/32 33/33/33
f 34/34/34 33/33/33 32/32/32
f 35/35/35 36/36/36 37/37/37
f 38/38/38 37/37/37 36/36/36
f 39/39/39 40/40/40 41/41/41
f 42/42/42 41/41/41 40/40/40
f 43/43/43 44/44/44 45/45/45
f 46/46/46 45/45/45 44/44/44
f 47/47/47 48/48/48 49/49/49
f 50/50/50 49/49/49 48/48/48
f 51/51/51 52/52/52 53/53/53
f 54/54/54 53/53/53 52/52/52
f 55/55/55 56/56/56 57/57/57
f 58/58/58 57/57/57 56/56/56
f 59/59/59 60/60/60 61/61/61
f 62/62/62 61/61/61 60/60/60
f 65/65/65 64/64/64 63/63/63
f 64/64/64 65/65/65 66/66/66
f 69/69/69 68/68/68 67/67/67
f 68/68/68 69/69/69 70/70/70
f 73/73/73 72/72/72 71/71/71
f 72/72/72 73/73/73 74/74/74
f 77/77/77 76/76/76 75/75/75
f 76/76/76 77/77/77 78/78/78
f 81/81/81 80/80/80 79/79/79
f 80/80/80 81/81/81 82/82/82
f 85/85/85 84/84/84 83/83/83
f 84/84/84 85/85/85 86/86/86
f 89/89/89 88/88/88 87/87/87
f 88/88/88 89/89/89 90/90/90
f 93/93/93 92/92/92 91/91/91
f 92/92/92 93/93/93 94/94/94
f 97/97/97 96/96/96 95/95/95
f 96/96/96 97/97/97 98/98/98
f 101/101/101 100/100/100 99/99/99
f 100/100/100 101/101/101 102/102/102
f 63/63/63 24/24/24 23/23/23
f 24/24/24 63/63/63 64/64/64
f 61/61/61 62/62/62 101/101/101
f 102/102/102 101/101/101 62/62/62
