g 
v -29.80189 108.4166 -174.8868
v -29.80189 94.41657 -174.8868
v -28.51197 108.4166 -172.3686
v -28.51197 94.41657 -172.3686
v -30.70558 108.4166 -171.8162
v -30.70558 94.41657 -171.8162
v -31.93305 108.4166 -173.5176
v -31.93305 94.41657 -173.5176
v -30.72946 108.4166 -174.5146
v -30.72946 94.41657 -174.5146
v -29.80189 108.4166 -174.8868
v -29.80189 94.41657 -174.8868
vt 1.132574 -1.260312
vt 1.132574 -1.260312
vt 1.119675 -1.23513
vt 1.119675 -1.23513
vt 1.141611 -1.229606
vt 1.141611 -1.229606
vt 1.153885 -1.24662
vt 1.153885 -1.24662
vt 1.14185 -1.25659
vt 1.14185 -1.25659
vt 1.132574 -1.260312
vt 1.132574 -1.260312
vn 0.8900294 0 -0.4559032
vn 0.8900294 0 -0.4559032
vn 0.2442041 0 0.9697238
vn 0.2442041 0 0.9697238
vn -0.8109743 0 0.5850818
vn -0.8109743 0 0.5850818
vn -0.6379191 0 -0.7701033
vn -0.6379191 0 -0.7701033
vn -0.3724591 0 -0.9280486
vn -0.3724591 0 -0.9280486
vn -0.3724591 0 -0.9280486
vn -0.3724591 0 -0.9280486
g _0
f 3/3/3 2/2/2 1/1/1
f 2/2/2 3/3/3 4/4/4
f 5/5/5 4/4/4 3/3/3
f 4/4/4 5/5/5 6/6/6
f 7/7/7 6/6/6 5/5/5
f 6/6/6 7/7/7 8/8/8
f 9/9/9 8/8/8 7/7/7
f 8/8/8 9/9/9 10/10/10
f 11/11/11 10/10/10 9/9/9
f 10/10/10 11/11/11 12/12/12
