g Morningstar Star
v 2.155274 -0.1654974 -0.1149627
v 1.914542 0.009401619 -0.2988662
v 1.995157 -0.2522723 -0.3205733
v 1.822594 -0.2735938 -0.1149627
v 2.155274 -0.1654974 -0.1149627
v 1.995157 -0.2522723 -0.3205733
v 1.914542 0.009401619 -0.2988662
v 1.822594 -0.2735938 -0.1149627
v 1.995157 -0.2522723 -0.3205733
v 1.914542 0.009401619 -0.2988662
v 2.155274 -0.1654974 -0.1149627
v 2.188321 0.0052073 -0.3205738
v 2.155274 0.1843006 -0.1149627
v 1.914542 0.009401619 -0.2988662
v 2.188321 0.0052073 -0.3205738
v 2.155274 -0.1654974 -0.1149627
v 2.155274 0.1843006 -0.1149627
v 2.188321 0.0052073 -0.3205738
v 1.822594 -0.2735938 -0.1149627
v 1.914542 0.009401619 -0.2988662
v 1.690586 -0.1481289 -0.3205735
v 1.61698 0.009401619 -0.1149627
v 1.822594 -0.2735938 -0.1149627
v 1.690586 -0.1481289 -0.3205735
v 1.914542 0.009401619 -0.2988662
v 1.61698 0.009401619 -0.1149627
v 1.690586 -0.1481289 -0.3205735
v 1.61698 0.009401619 -0.1149627
v 1.914542 0.009401619 -0.2988662
v 1.690586 0.1669321 -0.3205735
v 1.822594 0.292397 -0.1149627
v 1.61698 0.009401619 -0.1149627
v 1.690586 0.1669321 -0.3205735
v 1.914542 0.009401619 -0.2988662
v 1.822594 0.292397 -0.1149627
v 1.690586 0.1669321 -0.3205735
v 1.822594 0.292397 -0.1149627
v 1.914542 0.009401619 -0.2988662
v 1.995157 0.2710755 -0.3205734
v 2.155274 0.1843006 -0.1149627
v 1.822594 0.292397 -0.1149627
v 1.995157 0.2710755 -0.3205734
v 1.914542 0.009401619 -0.2988662
v 2.155274 0.1843006 -0.1149627
v 1.995157 0.2710755 -0.3205734
v 2.155274 0.1843006 -0.1149627
v 2.155274 -0.1654974 -0.1149627
v 2.353958 0.0052073 -0.05256771
v 2.212104 0.009401619 0.1826013
v 2.155274 0.1843006 -0.1149627
v 2.353958 0.0052073 -0.05256771
v 2.155274 -0.1654974 -0.1149627
v 2.212104 0.009401619 0.1826013
v 2.353958 0.0052073 -0.05256771
v 2.155274 -0.1654974 -0.1149627
v 1.822594 -0.2735938 -0.1149627
v 2.046341 -0.4098005 -0.05256657
v 2.006491 -0.2735938 0.1826013
v 2.155274 -0.1654974 -0.1149627
v 2.046341 -0.4098005 -0.05256657
v 1.822594 -0.2735938 -0.1149627
v 2.006491 -0.2735938 0.1826013
v 2.046341 -0.4098005 -0.05256657
v 1.822594 -0.2735938 -0.1149627
v 1.61698 0.009401619 -0.1149627
v 1.561515 -0.2522736 -0.05256684
v 1.67381 -0.1654974 0.1826013
v 1.822594 -0.2735938 -0.1149627
v 1.561515 -0.2522736 -0.05256684
v 1.61698 0.009401619 -0.1149627
v 1.67381 -0.1654974 0.1826013
v 1.561515 -0.2522736 -0.05256684
v 1.61698 0.009401619 -0.1149627
v 1.822594 0.292397 -0.1149627
v 1.556584 0.2642902 -0.05256683
v 1.67381 0.1843006 0.1826013
v 1.61698 0.009401619 -0.1149627
v 1.556584 0.2642902 -0.05256683
v 1.822594 0.292397 -0.1149627
v 1.67381 0.1843006 0.1826013
v 1.556584 0.2642902 -0.05256683
v 1.822594 0.292397 -0.1149627
v 2.155274 0.1843006 -0.1149627
v 2.046341 0.4286037 -0.05256657
v 2.006491 0.292397 0.1826013
v 1.822594 0.292397 -0.1149627
v 2.046341 0.4286037 -0.05256657
v 2.155274 0.1843006 -0.1149627
v 2.006491 0.292397 0.1826013
v 2.046341 0.4286037 -0.05256657
v 2.212104 0.009401619 0.1826013
v 2.155274 -0.1654974 -0.1149627
v 2.267569 -0.2522736 0.1202054
v 2.006491 -0.2735938 0.1826013
v 2.212104 0.009401619 0.1826013
v 2.267569 -0.2522736 0.1202054
v 2.155274 -0.1654974 -0.1149627
v 2.006491 -0.2735938 0.1826013
v 2.267569 -0.2522736 0.1202054
v 2.006491 -0.2735938 0.1826013
v 1.822594 -0.2735938 -0.1149627
v 1.778333 -0.4098005 0.1130692
v 1.67381 -0.1654974 0.1826013
v 2.006491 -0.2735938 0.1826013
v 1.778333 -0.4098005 0.1130692
v 1.822594 -0.2735938 -0.1149627
v 1.67381 -0.1654974 0.1826013
v 1.778333 -0.4098005 0.1130692
v 1.67381 -0.1654974 0.1826013
v 1.61698 0.009401619 -0.1149627
v 1.475127 0.0052073 0.1202063
v 1.67381 0.1843006 0.1826013
v 1.67381 -0.1654974 0.1826013
v 1.475127 0.0052073 0.1202063
v 1.61698 0.009401619 -0.1149627
v 1.67381 0.1843006 0.1826013
v 1.475127 0.0052073 0.1202063
v 1.67381 0.1843006 0.1826013
v 1.822594 0.292397 -0.1149627
v 1.778333 0.4286037 0.1130692
v 2.006491 0.292397 0.1826013
v 1.67381 0.1843006 0.1826013
v 1.778333 0.4286037 0.1130692
v 1.822594 0.292397 -0.1149627
v 2.006491 0.292397 0.1826013
v 1.778333 0.4286037 0.1130692
v 2.006491 0.292397 0.1826013
v 2.155274 0.1843006 -0.1149627
v 2.267569 0.2710768 0.1202054
v 2.212104 0.009401619 0.1826013
v 2.006491 0.292397 0.1826013
v 2.267569 0.2710768 0.1202054
v 2.155274 0.1843006 -0.1149627
v 2.212104 0.009401619 0.1826013
v 2.267569 0.2710768 0.1202054
v 2.212104 0.009401619 0.1826013
v 2.006491 -0.2735938 0.1826013
v 2.133568 -0.1549155 0.3882121
v 1.914542 0.009401619 0.3665048
v 2.212104 0.009401619 0.1826013
v 2.133568 -0.1549155 0.3882121
v 2.006491 -0.2735938 0.1826013
v 1.914542 0.009401619 0.3665048
v 2.133568 -0.1549155 0.3882121
v 2.006491 -0.2735938 0.1826013
v 1.67381 -0.1654974 0.1826013
v 1.833927 -0.2522723 0.388212
v 1.914542 0.009401619 0.3665048
v 2.006491 -0.2735938 0.1826013
v 1.833927 -0.2522723 0.388212
v 1.67381 -0.1654974 0.1826013
v 1.914542 0.009401619 0.3665048
v 1.833927 -0.2522723 0.388212
v 1.67381 -0.1654974 0.1826013
v 1.67381 0.1843006 0.1826013
v 1.640763 0.0052073 0.3882124
v 1.914542 0.009401619 0.3665048
v 1.67381 -0.1654974 0.1826013
v 1.640763 0.0052073 0.3882124
v 1.67381 0.1843006 0.1826013
v 1.914542 0.009401619 0.3665048
v 1.640763 0.0052073 0.3882124
v 1.67381 0.1843006 0.1826013
v 2.006491 0.292397 0.1826013
v 1.825949 0.2684832 0.388212
v 1.914542 0.009401619 0.3665048
v 1.67381 0.1843006 0.1826013
v 1.825949 0.2684832 0.388212
v 2.006491 0.292397 0.1826013
v 1.914542 0.009401619 0.3665048
v 1.825949 0.2684832 0.388212
v 2.006491 0.292397 0.1826013
v 2.212104 0.009401619 0.1826013
v 2.138499 0.1669321 0.3882121
v 1.914542 0.009401619 0.3665048
v 2.006491 0.292397 0.1826013
v 2.138499 0.1669321 0.3882121
v 2.212104 0.009401619 0.1826013
v 1.914542 0.009401619 0.3665048
v 2.138499 0.1669321 0.3882121
v 1.689862 0.03585257 0.03120369
v 1.689862 0.03585257 -0.0263995
v 1.689862 -0.03585257 -0.0263995
v 1.689862 -0.03585257 0.03120369
v 1.689862 0.03585257 0.03120369
v 1.689862 -0.03585257 0.03120369
v -0.02970707 -0.03585257 0.03120369
v -0.02970707 0.03585257 0.03120369
v 1.689862 -0.03585257 -0.0263995
v 1.689862 0.03585257 -0.0263995
v -0.02970707 0.03585257 -0.0263995
v -0.02970707 -0.03585257 -0.0263995
v 1.689862 -0.03585257 0.03120369
v 1.689862 -0.03585257 -0.0263995
v -0.02970707 -0.03585257 -0.0263995
v -0.02970707 -0.03585257 0.03120369
v 1.689862 0.03585257 -0.0263995
v 1.689862 0.03585257 0.03120369
v -0.02970707 0.03585257 0.03120369
v -0.02970707 0.03585257 -0.0263995
v -0.02970707 0.03585257 0.03120369
v -0.02970707 -0.03585257 0.03120369
v -0.02970707 -0.03585257 -0.0263995
v -0.02970707 0.03585257 -0.0263995
vt 0.272728 0.157461
vt 0.181819 0
vt 0.181819 0
vt 0.09091 0.157461
vt 0.272728 0.157461
vt 0.272728 0.157461
vt 0.181819 0
vt 0.09091 0.157461
vt 0.09091 0.157461
vt 0.363637 0
vt 0.272728 0.157461
vt 0.272728 0.157461
vt 0.454546 0.157461
vt 0.363637 0
vt 0.363637 0
vt 0.272728 0.157461
vt 0.454546 0.157461
vt 0.454546 0.157461
vt 1 0.157461
vt 0.909091 0
vt 0.909091 0
vt 0.818182 0.157461
vt 1 0.157461
vt 1 0.157461
vt 0.909091 0
vt 0.818182 0.157461
vt 0.818182 0.157461
vt 0.818182 0.157461
vt 0.727273 0
vt 0.727273 0
vt 0.636364 0.157461
vt 0.818182 0.157461
vt 0.818182 0.157461
vt 0.727273 0
vt 0.636364 0.157461
vt 0.636364 0.157461
vt 0.636364 0.157461
vt 0.545455 0
vt 0.545455 0
vt 0.454546 0.157461
vt 0.636364 0.157461
vt 0.636364 0.157461
vt 0.545455 0
vt 0.454546 0.157461
vt 0.454546 0.157461
vt 0.454546 0.157461
vt 0.272728 0.157461
vt 0.272728 0.157461
vt 0.363637 0.314921
vt 0.454546 0.157461
vt 0.454546 0.157461
vt 0.272728 0.157461
vt 0.363637 0.314921
vt 0.363637 0.314921
vt 0.272728 0.157461
vt 0.09091 0.157461
vt 0.09091 0.157461
vt 0.181819 0.314921
vt 0.272728 0.157461
vt 0.272728 0.157461
vt 0.09091 0.157461
vt 0.181819 0.314921
vt 0.181819 0.314921
vt 1 0.157461
vt 0.818182 0.157461
vt 0.818182 0.157461
vt 0.909091 0.314921
vt 1 0.157461
vt 1 0.157461
vt 0.818182 0.157461
vt 0.909091 0.314921
vt 0.909091 0.314921
vt 0.818182 0.157461
vt 0.636364 0.157461
vt 0.636364 0.157461
vt 0.727273 0.314921
vt 0.818182 0.157461
vt 0.818182 0.157461
vt 0.636364 0.157461
vt 0.727273 0.314921
vt 0.727273 0.314921
vt 0.636364 0.157461
vt 0.454546 0.157461
vt 0.454546 0.157461
vt 0.545455 0.314921
vt 0.636364 0.157461
vt 0.636364 0.157461
vt 0.454546 0.157461
vt 0.545455 0.314921
vt 0.545455 0.314921
vt 0.363637 0.314921
vt 0.272728 0.157461
vt 0.272728 0.157461
vt 0.181819 0.314921
vt 0.363637 0.314921
vt 0.363637 0.314921
vt 0.272728 0.157461
vt 0.181819 0.314921
vt 0.181819 0.314921
vt 0.181819 0.314921
vt 0.09091 0.157461
vt 0.09091 0.157461
vt 0 0.314921
vt 0.181819 0.314921
vt 0.181819 0.314921
vt 0.09091 0.157461
vt 0 0.314921
vt 0 0.314921
vt 0.909091 0.314921
vt 0.818182 0.157461
vt 0.818182 0.157461
vt 0.727273 0.314921
vt 0.909091 0.314921
vt 0.909091 0.314921
vt 0.818182 0.157461
vt 0.727273 0.314921
vt 0.727273 0.314921
vt 0.727273 0.314921
vt 0.636364 0.157461
vt 0.636364 0.157461
vt 0.545455 0.314921
vt 0.727273 0.314921
vt 0.727273 0.314921
vt 0.636364 0.157461
vt 0.545455 0.314921
vt 0.545455 0.314921
vt 0.545455 0.314921
vt 0.454546 0.157461
vt 0.454546 0.157461
vt 0.363637 0.314921
vt 0.545455 0.314921
vt 0.545455 0.314921
vt 0.454546 0.157461
vt 0.363637 0.314921
vt 0.363637 0.314921
vt 0.363637 0.314921
vt 0.181819 0.314921
vt 0.181819 0.314921
vt 0.272728 0.472382
vt 0.363637 0.314921
vt 0.363637 0.314921
vt 0.181819 0.314921
vt 0.272728 0.472382
vt 0.272728 0.472382
vt 0.181819 0.314921
vt 0 0.314921
vt 0 0.314921
vt 0.09091 0.472382
vt 0.181819 0.314921
vt 0.181819 0.314921
vt 0 0.314921
vt 0.09091 0.472382
vt 0.09091 0.472382
vt 0.909091 0.314921
vt 0.727273 0.314921
vt 0.727273 0.314921
vt 0.818182 0.472382
vt 0.909091 0.314921
vt 0.909091 0.314921
vt 0.727273 0.314921
vt 0.818182 0.472382
vt 0.818182 0.472382
vt 0.727273 0.314921
vt 0.545455 0.314921
vt 0.545455 0.314921
vt 0.636364 0.472382
vt 0.727273 0.314921
vt 0.727273 0.314921
vt 0.545455 0.314921
vt 0.636364 0.472382
vt 0.636364 0.472382
vt 0.545455 0.314921
vt 0.363637 0.314921
vt 0.363637 0.314921
vt 0.454546 0.472382
vt 0.545455 0.314921
vt 0.545455 0.314921
vt 0.363637 0.314921
vt 0.454546 0.472382
vt 0.454546 0.472382
vt 0.125 0.5
vt 0.375 0.5
vt 0.375 0.75
vt 0.125 0.75
vt 0.125 0.5
vt 0.125 0.75
vt 0.125 0.75
vt 0.125 0.5
vt 0.375 0.75
vt 0.375 0.5
vt 0.375 0.5
vt 0.375 0.75
vt 0.125 0.75
vt 0.375 0.75
vt 0.375 0.75
vt 0.125 0.75
vt 0.375 0.5
vt 0.125 0.5
vt 0.125 0.5
vt 0.375 0.5
vt 0.125 0.5
vt 0.125 0.75
vt 0.375 0.75
vt 0.375 0.5
vn 0.7008283 0.2706568 -0.6599884
vn 0.7008283 0.2706568 -0.6599884
vn 0.7008283 0.2706568 -0.6599884
vn 0.3051057 -0.9390031 0.1586941
vn 0.3051057 -0.9390031 0.1586941
vn 0.3051057 -0.9390031 0.1586941
vn -0.7449368 -0.1761167 -0.6434687
vn -0.7449368 -0.1761167 -0.6434687
vn -0.7449368 -0.1761167 -0.6434687
vn -0.06270725 -0.762903 -0.6434647
vn -0.06270725 -0.762903 -0.6434647
vn -0.06270725 -0.762903 -0.6434647
vn -0.04083663 0.7501693 -0.6599836
vn -0.04083663 0.7501693 -0.6599836
vn -0.04083663 0.7501693 -0.6599836
vn 0.9873288 0 0.1586878
vn 0.9873288 0 0.1586878
vn 0.9873288 0 0.1586878
vn 0.4739761 -0.5828913 -0.6599882
vn 0.4739761 -0.5828913 -0.6599882
vn 0.4739761 -0.5828913 -0.6599882
vn -0.798758 -0.580347 0.1586919
vn -0.798758 -0.580347 0.1586919
vn -0.798758 -0.580347 0.1586919
vn -0.3976896 0.6540509 -0.6434753
vn -0.3976896 0.6540509 -0.6434753
vn -0.3976896 0.6540509 -0.6434753
vn -0.3976895 -0.6540511 -0.6434751
vn -0.3976895 -0.6540511 -0.6434751
vn -0.3976895 -0.6540511 -0.6434751
vn -0.798758 0.5803469 0.1586918
vn -0.798758 0.5803469 0.1586918
vn -0.798758 0.5803469 0.1586918
vn 0.4739762 0.582891 -0.6599884
vn 0.4739762 0.582891 -0.6599884
vn 0.4739762 0.582891 -0.6599884
vn -0.7449369 0.1761169 -0.6434687
vn -0.7449369 0.1761169 -0.6434687
vn -0.7449369 0.1761169 -0.6434687
vn 0.3051059 0.9390029 0.1586944
vn 0.3051059 0.9390029 0.1586944
vn 0.3051059 0.9390029 0.1586944
vn 0.7008283 -0.2706566 -0.6599884
vn 0.7008283 -0.2706566 -0.6599884
vn 0.7008283 -0.2706566 -0.6599884
vn 0.2996151 0 -0.9540601
vn 0.2996151 0 -0.9540601
vn 0.2996151 0 -0.9540601
vn 0.5720434 0.7501717 0.3316755
vn 0.5720434 0.7501717 0.3316755
vn 0.5720434 0.7501717 0.3316755
vn 0.5474877 -0.7629054 0.3438498
vn 0.5474877 -0.7629054 0.3438498
vn 0.5474877 -0.7629054 0.3438498
vn 0.09258941 -0.2849559 -0.9540584
vn 0.09258941 -0.2849559 -0.9540584
vn 0.09258941 -0.2849559 -0.9540584
vn 0.8902212 -0.3122291 0.3316915
vn 0.8902212 -0.3122291 0.3316915
vn 0.8902212 -0.3122291 0.3316915
vn -0.5563771 -0.7564487 0.3438457
vn -0.5563771 -0.7564487 0.3438457
vn -0.5563771 -0.7564487 0.3438457
vn -0.2423952 -0.1761151 -0.9540587
vn -0.2423952 -0.1761151 -0.9540587
vn -0.2423952 -0.1761151 -0.9540587
vn 0.005499884 -0.9390036 0.3438632
vn 0.005499884 -0.9390036 0.3438632
vn 0.005499884 -0.9390036 0.3438632
vn -0.9037386 0.2706427 0.3316763
vn -0.9037386 0.2706427 0.3316763
vn -0.9037386 0.2706427 0.3316763
vn -0.2423951 0.176115 -0.9540587
vn -0.2423951 0.176115 -0.9540587
vn -0.2423951 0.176115 -0.9540587
vn -0.8913576 -0.2953781 0.3438509
vn -0.8913576 -0.2953781 0.3438509
vn -0.8913576 -0.2953781 0.3438509
vn -0.02185111 0.9431358 0.3316888
vn -0.02185111 0.9431358 0.3316888
vn -0.02185111 0.9431358 0.3316888
vn 0.09258945 0.2849559 -0.9540584
vn 0.09258945 0.2849559 -0.9540584
vn 0.09258945 0.2849559 -0.9540584
vn -0.5563771 0.7564488 0.3438456
vn -0.5563771 0.7564488 0.3438456
vn -0.5563771 0.7564488 0.3438456
vn 0.8902211 0.3122299 0.3316912
vn 0.8902211 0.3122299 0.3316912
vn 0.8902211 0.3122299 0.3316912
vn 0.9037376 0.2706457 -0.3316763
vn 0.9037376 0.2706457 -0.3316763
vn 0.9037376 0.2706457 -0.3316763
vn 0.2423951 -0.1761152 0.9540587
vn 0.2423951 -0.1761152 0.9540587
vn 0.2423951 -0.1761152 0.9540587
vn -0.005499901 -0.9390036 -0.3438634
vn -0.005499901 -0.9390036 -0.3438634
vn -0.005499901 -0.9390036 -0.3438634
vn 0.5563781 -0.7564477 -0.3438465
vn 0.5563781 -0.7564477 -0.3438465
vn 0.5563781 -0.7564477 -0.3438465
vn -0.1014563 -0.3122446 0.9445687
vn -0.1014563 -0.3122446 0.9445687
vn -0.1014563 -0.3122446 0.9445687
vn -0.8947434 -0.2849392 -0.3438659
vn -0.8947434 -0.2849392 -0.3438659
vn -0.8947434 -0.2849392 -0.3438659
vn -0.5474891 -0.7629041 -0.3438501
vn -0.5474891 -0.7629041 -0.3438501
vn -0.5474891 -0.7629041 -0.3438501
vn -0.2996152 0 0.9540601
vn -0.2996152 0 0.9540601
vn -0.2996152 0 0.9540601
vn -0.5720448 0.7501705 -0.3316759
vn -0.5720448 0.7501705 -0.3316759
vn -0.5720448 0.7501705 -0.3316759
vn -0.8947434 0.2849397 -0.3438657
vn -0.8947434 0.2849397 -0.3438657
vn -0.8947434 0.2849397 -0.3438657
vn -0.1014564 0.3122446 0.9445687
vn -0.1014564 0.3122446 0.9445687
vn -0.1014564 0.3122446 0.9445687
vn 0.5563779 0.7564479 -0.3438461
vn 0.5563779 0.7564479 -0.3438461
vn 0.5563779 0.7564479 -0.3438461
vn -0.005499801 0.9390036 -0.3438634
vn -0.005499801 0.9390036 -0.3438634
vn -0.005499801 0.9390036 -0.3438634
vn 0.2423951 0.1761152 0.9540587
vn 0.2423951 0.1761152 0.9540587
vn 0.2423951 0.1761152 0.9540587
vn 0.9037378 -0.2706453 -0.3316764
vn 0.9037378 -0.2706453 -0.3316764
vn 0.9037378 -0.2706453 -0.3316764
vn 0.7987584 -0.5803457 -0.1586937
vn 0.7987584 -0.5803457 -0.1586937
vn 0.7987584 -0.5803457 -0.1586937
vn 0.4078986 0.6308938 0.6599936
vn 0.4078986 0.6308938 0.6599936
vn 0.4078986 0.6308938 0.6599936
vn -0.4991536 -0.5803382 0.6434698
vn -0.4991536 -0.5803382 0.6434698
vn -0.4991536 -0.5803382 0.6434698
vn -0.3051062 -0.9390028 -0.1586941
vn -0.3051062 -0.9390028 -0.1586941
vn -0.3051062 -0.9390028 -0.1586941
vn 0.744937 -0.1761176 0.6434683
vn 0.744937 -0.1761176 0.6434683
vn 0.744937 -0.1761176 0.6434683
vn -0.7008284 0.2706561 0.6599885
vn -0.7008284 0.2706561 0.6599885
vn -0.7008284 0.2706561 0.6599885
vn -0.9873286 0 -0.1586884
vn -0.9873286 0 -0.1586884
vn -0.9873286 0 -0.1586884
vn 0.0627072 -0.7629032 0.6434644
vn 0.0627072 -0.7629032 0.6434644
vn 0.0627072 -0.7629032 0.6434644
vn 0.04083645 0.7501696 0.6599833
vn 0.04083645 0.7501696 0.6599833
vn 0.04083645 0.7501696 0.6599833
vn -0.3051061 0.9390029 -0.158694
vn -0.3051061 0.9390029 -0.158694
vn -0.3051061 0.9390029 -0.158694
vn -0.7061801 -0.2953915 0.64347
vn -0.7061801 -0.2953915 0.64347
vn -0.7061801 -0.2953915 0.64347
vn 0.7260682 0.1929824 0.659987
vn 0.7260682 0.1929824 0.659987
vn 0.7260682 0.1929824 0.659987
vn 0.7987573 0.5803474 -0.1586937
vn 0.7987573 0.5803474 -0.1586937
vn 0.7987573 0.5803474 -0.1586937
vn -0.4739752 0.5828909 0.6599892
vn -0.4739752 0.5828909 0.6599892
vn -0.4739752 0.5828909 0.6599892
vn 0.3976892 -0.6540519 0.6434745
vn 0.3976892 -0.6540519 0.6434745
vn 0.3976892 -0.6540519 0.6434745
vn 1 0 0
vn 1 0 0
vn 1 0 0
vn 1 0 0
vn 0 0 1
vn 0 0 1
vn 0 0 1
vn 0 0 1
vn 0 0 -1
vn 0 0 -1
vn 0 0 -1
vn 0 0 -1
vn 0 -1 0
vn 0 -1 0
vn 0 -1 0
vn 0 -1 0
vn 0 1 0
vn 0 1 0
vn 0 1 0
vn 0 1 0
vn -1 0 0
vn -1 0 0
vn -1 0 0
vn -1 0 0
g Morningstar Star_0
f 3/3/3 2/2/2 1/1/1
f 6/6/6 5/5/5 4/4/4
f 9/9/9 8/8/8 7/7/7
f 12/12/12 11/11/11 10/10/10
f 15/15/15 14/14/14 13/13/13
f 18/18/18 17/17/17 16/16/16
f 21/21/21 20/20/20 19/19/19
f 24/24/24 23/23/23 22/22/22
f 27/27/27 26/26/26 25/25/25
f 30/30/30 29/29/29 28/28/28
f 33/33/33 32/32/32 31/31/31
f 36/36/36 35/35/35 34/34/34
f 39/39/39 38/38/38 37/37/37
f 42/42/42 41/41/41 40/40/40
f 45/45/45 44/44/44 43/43/43
f 48/48/48 47/47/47 46/46/46
f 51/51/51 50/50/50 49/49/49
f 54/54/54 53/53/53 52/52/52
f 57/57/57 56/56/56 55/55/55
f 60/60/60 59/59/59 58/58/58
f 63/63/63 62/62/62 61/61/61
f 66/66/66 65/65/65 64/64/64
f 69/69/69 68/68/68 67/67/67
f 72/72/72 71/71/71 70/70/70
f 75/75/75 74/74/74 73/73/73
f 78/78/78 77/77/77 76/76/76
f 81/81/81 80/80/80 79/79/79
f 84/84/84 83/83/83 82/82/82
f 87/87/87 86/86/86 85/85/85
f 90/90/90 89/89/89 88/88/88
f 93/93/93 92/92/92 91/91/91
f 96/96/96 95/95/95 94/94/94
f 99/99/99 98/98/98 97/97/97
f 102/102/102 101/101/101 100/100/100
f 105/105/105 104/104/104 103/103/103
f 108/108/108 107/107/107 106/106/106
f 111/111/111 110/110/110 109/109/109
f 114/114/114 113/113/113 112/112/112
f 117/117/117 116/116/116 115/115/115
f 120/120/120 119/119/119 118/118/118
f 123/123/123 122/122/122 121/121/121
f 126/126/126 125/125/125 124/124/124
f 129/129/129 128/128/128 127/127/127
f 132/132/132 131/131/131 130/130/130
f 135/135/135 134/134/134 133/133/133
f 138/138/138 137/137/137 136/136/136
f 141/141/141 140/140/140 139/139/139
f 144/144/144 143/143/143 142/142/142
f 147/147/147 146/146/146 145/145/145
f 150/150/150 149/149/149 148/148/148
f 153/153/153 152/152/152 151/151/151
f 156/156/156 155/155/155 154/154/154
f 159/159/159 158/158/158 157/157/157
f 162/162/162 161/161/161 160/160/160
f 165/165/165 164/164/164 163/163/163
f 168/168/168 167/167/167 166/166/166
f 171/171/171 170/170/170 169/169/169
f 174/174/174 173/173/173 172/172/172
f 177/177/177 176/176/176 175/175/175
f 180/180/180 179/179/179 178/178/178
f 183/183/183 182/182/182 181/181/181
f 184/184/184 183/183/183 181/181/181
f 187/187/187 186/186/186 185/185/185
f 188/188/188 187/187/187 185/185/185
f 191/191/191 190/190/190 189/189/189
f 192/192/192 191/191/191 189/189/189
f 195/195/195 194/194/194 193/193/193
f 196/196/196 195/195/195 193/193/193
f 199/199/199 198/198/198 197/197/197
f 200/200/200 199/199/199 197/197/197
f 203/203/203 202/202/202 201/201/201
f 204/204/204 203/203/203 201/201/201
