g Nordfels Bonus
v 0.3014197 0.04146349 3.327288E-12
v 0.3716914 -0.6598007 3.327288E-12
v -0.141935 -1.021133 -2.577654E-11
v -0.2182258 0.2080851 3.327288E-12
v -0.4573182 -0.5736691 -1.122463E-11
v -0.5340179 -0.1447138 3.327288E-12
vt 0.4971422 0.3124976
vt 0.0983999 0.1203038
vt 9.93408E-05 0.9999007
vt 0.8958845 0.5046915
vt 0.493627 0.9883908
vt 0.9871547 0.9768808
vn 0 0 1
vn 0 0 1
vn 0 0 1
vn 0 0 1
vn 0 0 1
vn 0 0 1
g Nordfels Bonus_0
f 3/3/3 2/2/2 1/1/1
f 1/1/1 4/4/4 3/3/3
f 4/4/4 5/5/5 3/3/3
f 4/4/4 6/6/6 5/5/5
