g Ramp D
v 0.4012123 0.1164591 0.06690003
v 0.4012123 0.1164591 0.06690003
v 0.4259172 0.09160472 0.06690003
v 0.4259172 0.09160472 0.06690003
v 0.4293484 0.07481334 0.06690003
v 0.4293484 0.07481334 0.06690003
v 0.1527089 0.2896486 0.1410819
v 0.1296098 0.2749821 0.06690001
v 0.1527089 0.2896486 0.06690001
v 0.1296098 0.2749821 0.144
v 0.09217756 0.2610431 0.06690001
v 0.09217756 0.2610431 0.144
v 0.04888959 0.2487096 0.06690001
v 0.04888959 0.2487096 0.144
v -0.005834055 0.2362584 0.06690001
v -0.005834043 0.2362584 0.144
v -0.06019999 0.1985868 0.06690004
v -0.06019999 0.1985869 0.144
v -0.09292953 0.1368105 0.144
v -0.09292954 0.1368105 0.06690004
v 0.3844418 0.1199916 0.06690003
v 0.3844418 0.1199916 0.06690001
v 0.4012123 0.1164591 0.06690003
v 0.4012123 0.1164591 0.06690003
v 0.1276691 -0.0580104 0.09312794
v 0.1035885 -0.05393485 0.06690004
v 0.1276691 -0.05801032 0.06690006
v 0.1035885 -0.05393485 0.1039831
v 0.07430265 -0.03278111 0.06690004
v 0.07430266 -0.03278112 0.1107531
v 0.03824628 -0.01035207 0.06690004
v 0.03824628 -0.01035207 0.1173838
v 0.01350248 0.01210658 0.06690006
v 0.01350249 0.0121065 0.1285
v 0.001670389 0.04449836 0.06690006
v 0.001670395 0.04449843 0.1396161
v -0.003361425 0.08413047 0.06690004
v -0.003361416 0.08413047 0.144
v -0.001178675 0.1099118 0.06690004
v -0.001178672 0.1099118 0.144
v 0.07789326 0.4518353 0.1219
v 0.1020122 0.419201 0.06690001
v 0.07789319 0.4518353 0.06690001
v 0.1020122 0.419201 0.1219
v 0.128299 0.385462 0.06690001
v 0.128299 0.385462 0.1219
v 0.1523711 0.3554116 0.06690001
v 0.1523711 0.3554116 0.1219
v 0.1579112 0.3195425 0.06690001
v 0.1579112 0.3195425 0.1308721
v 0.1527089 0.2896486 0.06690001
v 0.1527089 0.2896486 0.1410819
v -0.09292953 0.1368105 0.144
v -0.08653151 0.07302758 0.06690006
v -0.09292954 0.1368105 0.06690004
v -0.0865315 0.07302751 0.144
v -0.07178255 0.0224742 0.1396161
v -0.07178256 0.02247427 0.06690006
v -0.05070905 -0.03066251 0.1285
v -0.04576163 -0.02535329 0.05732341
v -0.009832842 -0.07059736 0.1173838
v -0.003965654 -0.06430106 0.05732343
v 0.03005953 -0.09875471 0.1107531
v 0.0314296 -0.0972843 0.05732341
v 0.07478189 -0.1275786 0.1039832
v 0.07495827 -0.1264498 0.05732341
v 0.1378552 -0.136566 0.09312794
v 0.137899 -0.1362856 0.05732343
v 0.1925102 -0.1158199 0.06690006
v 0.1925102 -0.11582 0.08699999
v 0.2387586 -0.09369526 0.08411931
v 0.2387586 -0.09369517 0.06690004
v 0.2856499 -0.06746028 0.08080115
v 0.2856499 -0.06746028 0.06690004
v 0.3256158 -0.03410033 0.07573291
v 0.3256158 -0.03410026 0.06690004
v 0.3628844 -0.001927133 0.07136644
v 0.3628844 -0.001927137 0.06690004
v 0.3973547 0.03385002 0.06829628
v 0.3973407 0.03359945 0.06690004
v 0.4189957 0.053289 0.06655891
v 0.4189818 0.05303843 0.06690003
v -0.001178672 0.1099118 0.144
v 0.01730633 0.1188842 0.06690004
v -0.001178675 0.1099118 0.06690004
v 0.01730633 0.1188842 0.144
v 0.04242393 0.1375603 0.144
v 0.04242393 0.1375603 0.06690004
v 0.07928013 0.1524021 0.06690001
v 0.07928014 0.1524021 0.144
v 0.1265305 0.1702444 0.06690001
v 0.1265305 0.1702444 0.144
v 0.1792298 0.1944846 0.144
v 0.1792298 0.1944846 0.06690001
v 0.2305503 0.2430709 0.06690001
v 0.2305503 0.2430709 0.1410819
v 0.07294676 0.5051364 0.1219
v 0.07789326 0.4518353 0.1219
v 0.07789319 0.4518353 0.06690001
v 0.07294676 0.5051364 0.0669
v 0.2451662 0.3074161 0.1308721
v 0.2305503 0.2430709 0.06690001
v 0.2305503 0.2430709 0.1410819
v 0.2451662 0.3074161 0.06690001
v 0.2569243 0.3646511 0.1219
v 0.2569243 0.3646511 0.06690001
v 0.2596413 0.4262129 0.1219
v 0.2567725 0.4278862 0.05732341
v 0.2508316 0.4807661 0.0669
v 0.2513185 0.4807304 0.1219
v 0.2408534 0.5246744 0.1219
v 0.2406936 0.5246861 0.0669
v 0.2042452 0.5638906 0.1219
v 0.2042452 0.5638906 0.0669
v 0.1606032 -0.04303491 0.08699999
v 0.1276691 -0.0580104 0.09312794
v 0.1276691 -0.05801032 0.06690006
v 0.1606032 -0.04303493 0.06690004
v 0.2036029 -0.02336063 0.08411931
v 0.2036029 -0.02336055 0.06690004
v 0.2425656 -0.003872461 0.08080115
v 0.2425656 -0.003872461 0.06690001
v 0.2748774 0.02418728 0.07573292
v 0.2748774 0.02418736 0.06690001
v 0.3088084 0.05548904 0.07136644
v 0.3088084 0.05548911 0.06690001
v 0.3430496 0.08848364 0.06829628
v 0.3088084 0.05548904 0.07136644
v 0.3430357 0.08823307 0.06690002
v 0.3626188 0.110007 0.06655892
v 0.3626049 0.1097565 0.06690001
v 0.4293484 0.07481334 0.06690003
v 0.4293484 0.07481334 0.06690003
v 0.4189818 0.05303843 0.06690003
v 0.4189957 0.053289 0.06655891
v 0.1666357 0.5700557 0.1219
v 0.1666357 0.5700557 0.06689998
v 0.2042452 0.5638906 0.0669
v 0.2042452 0.5638906 0.1219
v 0.09340996 0.5372882 0.1219
v 0.07294676 0.5051364 0.1219
v 0.07294676 0.5051364 0.0669
v 0.09340996 0.5372882 0.06689998
v 0.3844418 0.1199916 0.06690003
v 0.3626188 0.110007 0.06655892
v 0.3626049 0.1097565 0.06690001
v 0.3844418 0.1199916 0.06690001
v 0.1666357 0.5700557 0.1219
v 0.09340996 0.5372882 0.1219
v 0.09340996 0.5372882 0.06689998
v 0.1666357 0.5700557 0.06689998
v 0.2042452 0.5638906 0.1219
v 0.2408534 0.5246744 0.1219
v 0.1666357 0.5700557 0.1219
v 0.2513185 0.4807304 0.1219
v 0.1020122 0.419201 0.1219
v 0.09340996 0.5372882 0.1219
v 0.07789326 0.4518353 0.1219
v 0.07294676 0.5051364 0.1219
v 0.128299 0.385462 0.1219
v 0.1523711 0.3554116 0.1219
v 0.2596413 0.4262129 0.1219
v 0.2569243 0.3646511 0.1219
v 0.2451662 0.3074161 0.1308721
v 0.1579112 0.3195425 0.1308721
v 0.1527089 0.2896486 0.1410819
v 0.2305503 0.2430709 0.1410819
v 0.1296098 0.2749821 0.144
v 0.1792298 0.1944846 0.144
v 0.1265305 0.1702444 0.144
v 0.09217756 0.2610431 0.144
v 0.07928014 0.1524021 0.144
v 0.04888959 0.2487096 0.144
v 0.04242393 0.1375603 0.144
v -0.005834043 0.2362584 0.144
v -0.06019999 0.1985869 0.144
v 0.01730633 0.1188842 0.144
v -0.001178672 0.1099118 0.144
v -0.09292953 0.1368105 0.144
v -0.003361416 0.08413047 0.144
v -0.0865315 0.07302751 0.144
v 0.001670395 0.04449843 0.1396161
v -0.07178255 0.0224742 0.1396161
v 0.01350249 0.0121065 0.1285
v -0.05070905 -0.03066251 0.1285
v -0.009832842 -0.07059736 0.1173838
v 0.03824628 -0.01035207 0.1173838
v 0.07430266 -0.03278112 0.1107531
v 0.03005953 -0.09875471 0.1107531
v 0.1035885 -0.05393485 0.1039831
v 0.07478189 -0.1275786 0.1039832
v 0.1276691 -0.0580104 0.09312794
v 0.1378552 -0.136566 0.09312794
v 0.1925102 -0.11582 0.08699999
v 0.1606032 -0.04303491 0.08699999
v 0.2036029 -0.02336063 0.08411931
v 0.2387586 -0.09369526 0.08411931
v 0.2425656 -0.003872461 0.08080115
v 0.2856499 -0.06746028 0.08080115
v 0.2748774 0.02418728 0.07573292
v 0.3256158 -0.03410033 0.07573291
v 0.3088084 0.05548904 0.07136644
v 0.3628844 -0.001927133 0.07136644
v 0.3973547 0.03385002 0.06829628
v 0.3430496 0.08848364 0.06829628
v 0.3626188 0.110007 0.06655892
v 0.4189957 0.053289 0.06655891
v 0.4012123 0.1164591 0.06690003
v 0.3844418 0.1199916 0.06690003
v 0.4259172 0.09160472 0.06690003
v 0.4293484 0.07481334 0.06690003
vt 0.6478019 0.1306497
vt 0.6478019 0.1306497
vt 0.6562485 0.1221522
vt 0.6562485 0.1221522
vt 0.6574215 0.1164113
vt 0.6574215 0.1164113
vt 0.5628405 0.1898618
vt 0.5549431 0.1848475
vt 0.5628405 0.1898618
vt 0.5549431 0.1848475
vt 0.5421453 0.1800819
vt 0.5421453 0.1800819
vt 0.5273455 0.1758651
vt 0.5273455 0.1758651
vt 0.5086358 0.1716082
vt 0.5086358 0.1716082
vt 0.4900486 0.1587285
vt 0.4900486 0.1587285
vt 0.4788585 0.1376077
vt 0.4788585 0.1376077
vt 0.6420682 0.1318575
vt 0.6420682 0.1318575
vt 0.6478019 0.1306497
vt 0.6478019 0.1306497
vt 0.5542796 0.07099998
vt 0.5460467 0.07239333
vt 0.5542796 0.07099998
vt 0.5460467 0.07239333
vt 0.536034 0.07962558
vt 0.536034 0.07962558
vt 0.5237067 0.08729395
vt 0.5237067 0.08729395
vt 0.5152469 0.09497237
vt 0.5152469 0.09497237
vt 0.5112016 0.1060469
vt 0.5112016 0.1060469
vt 0.5094812 0.1195968
vt 0.5094812 0.1195968
vt 0.5102275 0.1284113
vt 0.5102275 0.1284113
vt 0.5372616 0.2453123
vt 0.5455076 0.2341549
vt 0.5372616 0.2453123
vt 0.5455076 0.2341549
vt 0.554495 0.2226198
vt 0.554495 0.2226198
vt 0.5627249 0.2123457
vt 0.5627249 0.2123457
vt 0.5646192 0.2000824
vt 0.5646192 0.2000824
vt 0.5628405 0.1898618
vt 0.5628405 0.1898618
vt 0.4788585 0.1376077
vt 0.481046 0.1158008
vt 0.4788585 0.1376077
vt 0.481046 0.1158007
vt 0.4860885 0.09851697
vt 0.4860885 0.09851697
vt 0.4932935 0.08034992
vt 0.494985 0.08216512
vt 0.5072688 0.06669649
vt 0.5092748 0.06884921
vt 0.5209075 0.05706972
vt 0.521376 0.05757251
vt 0.5361978 0.04721504
vt 0.5362582 0.04760092
vt 0.5577621 0.04414237
vt 0.5577772 0.04423821
vt 0.5764482 0.05123523
vt 0.5764482 0.05123523
vt 0.5922602 0.05879948
vt 0.5922602 0.05879948
vt 0.608292 0.06776902
vt 0.608292 0.06776902
vt 0.6219561 0.07917452
vt 0.6219561 0.07917452
vt 0.6346979 0.09017438
vt 0.6346979 0.09017438
vt 0.646483 0.1024063
vt 0.6464782 0.1023206
vt 0.6538819 0.1090523
vt 0.6538773 0.1089667
vt 0.5102275 0.1284113
vt 0.5165474 0.1314787
vt 0.5102275 0.1284113
vt 0.5165474 0.1314787
vt 0.5251348 0.137864
vt 0.5251348 0.137864
vt 0.5377359 0.1429384
vt 0.5377359 0.1429384
vt 0.5538903 0.1490384
vt 0.5538903 0.1490384
vt 0.5719078 0.157326
vt 0.5719078 0.157326
vt 0.5894538 0.1739373
vt 0.5894538 0.1739373
vt 0.5355704 0.2635356
vt 0.5372616 0.2453123
vt 0.5372616 0.2453123
vt 0.5355704 0.2635356
vt 0.594451 0.1959364
vt 0.5894538 0.1739373
vt 0.5894538 0.1739373
vt 0.594451 0.1959364
vt 0.598471 0.2155047
vt 0.598471 0.2155047
vt 0.5993999 0.2365522
vt 0.598419 0.2371242
vt 0.5963879 0.2552035
vt 0.5965545 0.2551913
vt 0.5929765 0.2702154
vt 0.5929218 0.2702194
vt 0.5804604 0.2836231
vt 0.5804604 0.2836231
vt 0.5655396 0.0761199
vt 0.5542796 0.07099998
vt 0.5542796 0.07099998
vt 0.5655396 0.0761199
vt 0.5802408 0.08284643
vt 0.5802408 0.08284643
vt 0.5935619 0.08950922
vt 0.5935619 0.08950922
vt 0.604609 0.09910262
vt 0.604609 0.09910268
vt 0.6162097 0.1098045
vt 0.6162097 0.1098045
vt 0.6279166 0.1210851
vt 0.6162097 0.1098045
vt 0.6279119 0.1209995
vt 0.6346072 0.1284438
vt 0.6346022 0.1283582
vt 0.6574215 0.1164113
vt 0.6574215 0.1164113
vt 0.6538773 0.1089667
vt 0.6538819 0.1090523
vt 0.5676019 0.285731
vt 0.5676019 0.285731
vt 0.5804604 0.2836231
vt 0.5804604 0.2836231
vt 0.5425666 0.274528
vt 0.5355704 0.2635356
vt 0.5355704 0.2635356
vt 0.5425666 0.274528
vt 0.6420682 0.1318575
vt 0.6346072 0.1284438
vt 0.6346022 0.1283582
vt 0.6420682 0.1318575
vt 0.5676019 0.285731
vt 0.5425666 0.274528
vt 0.5425666 0.274528
vt 0.5676019 0.285731
vt 0.5804604 0.2836231
vt 0.5929765 0.2702154
vt 0.5676019 0.285731
vt 0.5965545 0.2551913
vt 0.5455076 0.2341549
vt 0.5425666 0.274528
vt 0.5372616 0.2453123
vt 0.5355704 0.2635356
vt 0.554495 0.2226198
vt 0.5627249 0.2123457
vt 0.5993999 0.2365522
vt 0.598471 0.2155047
vt 0.594451 0.1959364
vt 0.5646192 0.2000824
vt 0.5628405 0.1898618
vt 0.5894538 0.1739373
vt 0.5549431 0.1848475
vt 0.5719078 0.157326
vt 0.5538903 0.1490384
vt 0.5421453 0.1800819
vt 0.5377359 0.1429384
vt 0.5273455 0.1758651
vt 0.5251348 0.137864
vt 0.5086358 0.1716082
vt 0.4900486 0.1587285
vt 0.5165474 0.1314787
vt 0.5102275 0.1284113
vt 0.4788585 0.1376077
vt 0.5094812 0.1195968
vt 0.481046 0.1158007
vt 0.5112016 0.1060469
vt 0.4860885 0.09851697
vt 0.5152469 0.09497237
vt 0.4932935 0.08034992
vt 0.5072688 0.06669649
vt 0.5237067 0.08729395
vt 0.536034 0.07962558
vt 0.5209075 0.05706972
vt 0.5460467 0.07239333
vt 0.5361978 0.04721504
vt 0.5542796 0.07099998
vt 0.5577621 0.04414237
vt 0.5764482 0.05123523
vt 0.5655396 0.0761199
vt 0.5802408 0.08284643
vt 0.5922602 0.05879948
vt 0.5935619 0.08950922
vt 0.608292 0.06776902
vt 0.604609 0.09910262
vt 0.6219561 0.07917452
vt 0.6162097 0.1098045
vt 0.6346979 0.09017438
vt 0.646483 0.1024063
vt 0.6279166 0.1210851
vt 0.6346072 0.1284438
vt 0.6538819 0.1090523
vt 0.6478019 0.1306497
vt 0.6420682 0.1318575
vt 0.6562485 0.1221522
vt 0.6574215 0.1164113
vn 0 -0.1525973 -0.9882884
vn 0 -0.1525973 -0.9882884
vn 0 -0.1525973 -0.9882884
vn 0 0 1
vn 0 0 1
vn -0.01060614 -0.002167219 0.9999415
vn -0.5360191 0.8442058 2.074346E-07
vn -0.4449269 0.8955669 1.042875E-07
vn -0.5360191 0.8442058 2.074346E-07
vn -0.4416323 0.8971961 1.006366E-07
vn -0.3117335 0.9501696 1.10009E-07
vn -0.3117335 0.9501696 1.10009E-07
vn -0.2480252 0.9687535 0
vn -0.2480252 0.9687535 0
vn -0.4030443 0.9151804 -3.042746E-07
vn -0.4030443 0.9151804 -3.042745E-07
vn -0.7478219 0.6638994 -2.268178E-07
vn -0.7478218 0.6638996 -2.268178E-07
vn -0.8836433 0.4681608 -1.415438E-07
vn -0.8836433 0.4681608 -1.415438E-07
vn 0.2246624 0.3767696 -0.8986498
vn 0.2246624 0.3767696 -0.8986498
vn 0.2246624 0.3767696 -0.8986498
vn 0.2246624 0.3767696 -0.8986498
vn 0.1668719 0.9859785 1.035366E-06
vn 0.3862867 0.9223788 5.194652E-07
vn 0.1668719 0.9859785 1.035366E-06
vn 0.4303813 0.9026472 4.061939E-07
vn 0.5572029 0.8303763 0
vn 0.5540626 0.8324751 0
vn 0.6025968 0.7980458 2.540916E-07
vn 0.612941 0.7901288 2.888539E-07
vn 0.8298278 0.5580195 2.2772E-07
vn 0.8565724 0.5160268 1.707515E-07
vn 0.9717513 0.236007 -1.087475E-07
vn 0.975427 0.2203228 -1.168744E-07
vn 0.9997813 0.02091097 -1.187285E-07
vn 0.9998538 0.01709946 -1.170435E-07
vn 0.9964352 -0.08436204 0
vn 0.9964352 -0.08436204 0
vn -0.8042004 -0.5943583 6.016265E-07
vn -0.7965837 -0.6045282 3.303092E-07
vn -0.8042004 -0.5943583 6.016265E-07
vn -0.7965837 -0.6045282 3.303092E-07
vn -0.7846702 -0.6199136 1.298722E-07
vn -0.7846702 -0.6199136 1.298722E-07
vn -0.9153925 -0.4025627 1.964096E-07
vn -0.9229259 -0.3849774 1.95555E-07
vn -0.9999546 0.009527446 1.605245E-07
vn -0.9992629 0.03838971 1.568405E-07
vn -0.9851933 0.1714477 1.380971E-07
vn -0.9851933 0.1714477 1.380971E-07
vn -0.9950067 -0.09980855 0
vn -0.9816393 -0.190747 0
vn -0.9950067 -0.09980855 0
vn -0.9821138 -0.1882885 0
vn -0.9394169 -0.3421194 -0.02121966
vn -0.9357631 -0.351773 -0.02456257
vn -0.8273394 -0.5558794 -0.08066965
vn -0.8104485 -0.5793889 -0.08649666
vn -0.6670896 -0.7371054 -0.108014
vn -0.6638246 -0.7402566 -0.1065696
vn -0.5962211 -0.8002325 -0.06440753
vn -0.5925856 -0.8031472 -0.06162076
vn -0.3771507 -0.9258171 -0.02490468
vn -0.3589014 -0.9330586 -0.0243217
vn 0.08285186 -0.9964921 -0.01179059
vn 0.09151006 -0.9957368 -0.01157081
vn 0.3907069 -0.9205121 -0.002321012
vn 0.3906643 -0.9205303 -0.002323406
vn 0.4590739 -0.8883982 -3.375093E-06
vn 0.46014 -0.8878464 -3.335535E-06
vn 0.5630493 -0.8264233 -2.43277E-06
vn 0.5669701 -0.8237383 -2.440424E-06
vn 0.6467854 -0.762672 -3.147217E-06
vn 0.6471583 -0.7623557 -3.182798E-06
vn 0.6856024 -0.7278543 0.01332777
vn 0.6871663 -0.7263653 0.01399113
vn 0.6861122 -0.70486 0.1800627
vn 0.6910951 -0.7044666 0.161599
vn 0.6411191 -0.6996527 0.3153608
vn 0.6411191 -0.6996527 0.3153608
vn 0.4366649 -0.8996242 0
vn 0.5189514 -0.8548037 0
vn 0.4366649 -0.8996242 0
vn 0.5189514 -0.8548037 0
vn 0.4891313 -0.8722102 0
vn 0.4891313 -0.8722102 0
vn 0.3634261 -0.931623 0
vn 0.3634261 -0.931623 0
vn 0.3858112 -0.9225777 0
vn 0.3858112 -0.9225777 0
vn 0.5583381 -0.8296135 0
vn 0.560158 -0.8283858 0
vn 0.6874977 -0.7261866 0
vn 0.6874977 -0.7261866 0
vn -0.9957215 -0.09240545 7.298511E-07
vn -0.9957215 -0.09240545 7.298511E-07
vn -0.9957215 -0.09240545 7.298511E-07
vn -0.9957215 -0.09240545 7.298511E-07
vn 0.97719 -0.212367 0
vn 0.975159 -0.2215062 0
vn 0.975159 -0.2215062 0
vn 0.9774039 -0.2113805 0
vn 0.9931301 -0.1164358 -0.01163171
vn 0.9940491 -0.1081837 -0.01275267
vn 0.9981969 0.05450146 -0.02515201
vn 0.9980732 0.05671073 -0.02517458
vn 0.9837447 0.1788303 -0.01630609
vn 0.9833131 0.1812344 -0.01579034
vn 0.8823693 0.470545 -0.00342511
vn 0.8821297 0.4709943 -0.003420517
vn 0.7316871 0.6816399 -0.0009903701
vn 0.7316871 0.6816399 -0.0009903701
vn -0.4149196 0.9098581 1.472291E-06
vn -0.4139262 0.9103104 1.342925E-06
vn -0.4139262 0.9103104 1.342925E-06
vn -0.4149948 0.9098238 1.482085E-06
vn -0.4310803 0.9023136 1.922611E-06
vn -0.4317651 0.9019861 1.936398E-06
vn -0.5493062 0.8356212 2.478871E-06
vn -0.5558915 0.8312549 2.492968E-06
vn -0.6661929 0.7457794 5.351642E-06
vn -0.6669434 0.7451083 5.542493E-06
vn -0.685247 0.7281792 -0.01383576
vn -0.6856207 0.7278132 -0.01456563
vn -0.710947 0.6838361 -0.1640805
vn -0.685247 0.7281792 -0.01383576
vn -0.7094535 0.6892101 -0.1471912
vn -0.7150344 0.6386412 -0.2843649
vn -0.7150344 0.6386412 -0.2843649
vn -0.869706 0.41405 0.2686523
vn -0.869706 0.41405 0.2686523
vn -0.869706 0.41405 0.2686523
vn -0.869706 0.41405 0.2686523
vn 0.1617656 0.9868292 0
vn 0.1617656 0.9868292 0
vn 0.1617656 0.9868292 0
vn 0.1617656 0.9868292 0
vn -0.8436267 0.5369301 0
vn -0.8436267 0.5369301 0
vn -0.8436267 0.5369301 0
vn -0.8436267 0.5369301 0
vn 0.3562322 -0.7600397 -0.5435423
vn 0.3562322 -0.7600397 -0.5435423
vn 0.3562322 -0.7600397 -0.5435423
vn 0.3562322 -0.7600397 -0.5435423
vn -0.4084548 0.9127785 0
vn -0.4084548 0.9127785 0
vn -0.4084548 0.9127785 0
vn -0.4084548 0.9127785 0
vn 0 0 1
vn -2.455273E-07 0 1
vn 0 0 1
vn 0 0 1
vn 0 0 1
vn 0 0 1
vn 0 0 1
vn 0 0 1
vn 0 0 1
vn 0.001175488 0.0781006 0.9969447
vn 0 0 1
vn 0.001228321 0.08161472 0.9966632
vn 0.03489717 0.1930234 0.9805734
vn 0.03405795 0.1929223 0.9806228
vn 0.05594412 0.1178604 0.9914531
vn 0.05614306 0.1189658 0.9913098
vn 0.019985 0.0200456 0.9995993
vn 0.02050544 0.02056763 0.9995782
vn 1.200076E-07 0 1
vn 1.193503E-07 0 1
vn 1.390732E-07 0 1
vn 1.380774E-07 0 1
vn 2.031841E-07 0 1
vn 2.034444E-07 0 1
vn 1.226928E-07 0 1
vn 0 0 1
vn 1.024692E-07 0 1
vn 1.532299E-07 0 1
vn 0.009139641 -0.04321035 0.9990243
vn 0.009402437 -0.04445282 0.9989672
vn 0.05896648 -0.1516378 0.9866757
vn 0.05924238 -0.1520508 0.9865956
vn 0.1312493 -0.1950592 0.97197
vn 0.1311907 -0.1950955 0.9719705
vn 0.1387506 -0.1301052 0.9817438
vn 0.138675 -0.1299534 0.9817746
vn 0.1249209 -0.07745946 0.9891384
vn 0.1249377 -0.07744495 0.9891374
vn 0.1849863 -0.04991796 0.9814725
vn 0.1852991 -0.04979493 0.9814198
vn 0.1811013 0.003006239 0.9834599
vn 0.1807264 0.003217788 0.9835281
vn 0.08858885 0.02970321 0.9956253
vn 0.08845387 0.0296846 0.995638
vn 0.05580108 0.0295116 0.9980057
vn 0.05580477 0.02951752 0.9980053
vn 0.07152597 0.04958263 0.9962056
vn 0.07151148 0.04956527 0.9962075
vn 0.07586642 0.06304085 0.9951232
vn 0.07587291 0.06304228 0.9951226
vn 0.05644579 0.05252453 0.997023
vn 0.05646912 0.05254274 0.9970208
vn 0.04381322 0.04294942 0.9981161
vn 0.04381036 0.04294774 0.9981163
vn 0.02040808 0.0185045 0.9996204
vn 0.01849548 0.02017459 0.9996253
vn -0.007191914 -0.009844683 0.9999257
vn -0.004925781 -0.02338742 0.9997143
vn -0.006128257 -0.004410642 0.9999715
vn -0.01060614 -0.002167219 0.9999415
g Ramp D_0
f 3/3/3 2/2/2 1/1/1
f 6/6/6 5/5/5 4/4/4
f 9/9/9 8/8/8 7/7/7
f 8/8/8 10/10/10 7/7/7
f 8/8/8 11/11/11 10/10/10
f 11/11/11 12/12/12 10/10/10
f 11/11/11 13/13/13 12/12/12
f 13/13/13 14/14/14 12/12/12
f 13/13/13 15/15/15 14/14/14
f 15/15/15 16/16/16 14/14/14
f 15/15/15 17/17/17 16/16/16
f 17/17/17 18/18/18 16/16/16
f 18/18/18 17/17/17 19/19/19
f 17/17/17 20/20/20 19/19/19
f 23/23/23 22/22/22 21/21/21
f 24/24/24 23/23/23 21/21/21
f 27/27/27 26/26/26 25/25/25
f 26/26/26 28/28/28 25/25/25
f 26/26/26 29/29/29 28/28/28
f 29/29/29 30/30/30 28/28/28
f 29/29/29 31/31/31 30/30/30
f 31/31/31 32/32/32 30/30/30
f 31/31/31 33/33/33 32/32/32
f 33/33/33 34/34/34 32/32/32
f 33/33/33 35/35/35 34/34/34
f 35/35/35 36/36/36 34/34/34
f 35/35/35 37/37/37 36/36/36
f 37/37/37 38/38/38 36/36/36
f 37/37/37 39/39/39 38/38/38
f 39/39/39 40/40/40 38/38/38
f 43/43/43 42/42/42 41/41/41
f 42/42/42 44/44/44 41/41/41
f 42/42/42 45/45/45 44/44/44
f 45/45/45 46/46/46 44/44/44
f 45/45/45 47/47/47 46/46/46
f 47/47/47 48/48/48 46/46/46
f 47/47/47 49/49/49 48/48/48
f 49/49/49 50/50/50 48/48/48
f 49/49/49 51/51/51 50/50/50
f 51/51/51 52/52/52 50/50/50
f 55/55/55 54/54/54 53/53/53
f 54/54/54 56/56/56 53/53/53
f 56/56/56 54/54/54 57/57/57
f 54/54/54 58/58/58 57/57/57
f 57/57/57 58/58/58 59/59/59
f 58/58/58 60/60/60 59/59/59
f 59/59/59 60/60/60 61/61/61
f 60/60/60 62/62/62 61/61/61
f 61/61/61 62/62/62 63/63/63
f 62/62/62 64/64/64 63/63/63
f 63/63/63 64/64/64 65/65/65
f 64/64/64 66/66/66 65/65/65
f 65/65/65 66/66/66 67/67/67
f 66/66/66 68/68/68 67/67/67
f 68/68/68 69/69/69 67/67/67
f 69/69/69 70/70/70 67/67/67
f 70/70/70 69/69/69 71/71/71
f 69/69/69 72/72/72 71/71/71
f 71/71/71 72/72/72 73/73/73
f 72/72/72 74/74/74 73/73/73
f 73/73/73 74/74/74 75/75/75
f 74/74/74 76/76/76 75/75/75
f 75/75/75 76/76/76 77/77/77
f 76/76/76 78/78/78 77/77/77
f 77/77/77 78/78/78 79/79/79
f 78/78/78 80/80/80 79/79/79
f 79/79/79 80/80/80 81/81/81
f 80/80/80 82/82/82 81/81/81
f 85/85/85 84/84/84 83/83/83
f 84/84/84 86/86/86 83/83/83
f 86/86/86 84/84/84 87/87/87
f 84/84/84 88/88/88 87/87/87
f 88/88/88 89/89/89 87/87/87
f 89/89/89 90/90/90 87/87/87
f 89/89/89 91/91/91 90/90/90
f 91/91/91 92/92/92 90/90/90
f 92/92/92 91/91/91 93/93/93
f 91/91/91 94/94/94 93/93/93
f 94/94/94 95/95/95 93/93/93
f 95/95/95 96/96/96 93/93/93
f 99/99/99 98/98/98 97/97/97
f 100/100/100 99/99/99 97/97/97
f 103/103/103 102/102/102 101/101/101
f 102/102/102 104/104/104 101/101/101
f 101/101/101 104/104/104 105/105/105
f 104/104/104 106/106/106 105/105/105
f 105/105/105 106/106/106 107/107/107
f 106/106/106 108/108/108 107/107/107
f 108/108/108 109/109/109 107/107/107
f 109/109/109 110/110/110 107/107/107
f 110/110/110 109/109/109 111/111/111
f 109/109/109 112/112/112 111/111/111
f 111/111/111 112/112/112 113/113/113
f 112/112/112 114/114/114 113/113/113
f 117/117/117 116/116/116 115/115/115
f 118/118/118 117/117/117 115/115/115
f 118/118/118 115/115/115 119/119/119
f 120/120/120 118/118/118 119/119/119
f 120/120/120 119/119/119 121/121/121
f 122/122/122 120/120/120 121/121/121
f 122/122/122 121/121/121 123/123/123
f 124/124/124 122/122/122 123/123/123
f 124/124/124 123/123/123 125/125/125
f 126/126/126 124/124/124 125/125/125
f 126/126/126 128/128/128 127/127/127
f 129/129/129 126/126/126 127/127/127
f 129/129/129 127/127/127 130/130/130
f 131/131/131 129/129/129 130/130/130
f 134/134/134 133/133/133 132/132/132
f 135/135/135 134/134/134 132/132/132
f 138/138/138 137/137/137 136/136/136
f 139/139/139 138/138/138 136/136/136
f 142/142/142 141/141/141 140/140/140
f 143/143/143 142/142/142 140/140/140
f 146/146/146 145/145/145 144/144/144
f 147/147/147 146/146/146 144/144/144
f 150/150/150 149/149/149 148/148/148
f 151/151/151 150/150/150 148/148/148
g Ramp D_1
f 154/154/154 153/153/153 152/152/152
f 155/155/155 153/153/153 154/154/154
f 155/155/155 154/154/154 156/156/156
f 157/157/157 156/156/156 154/154/154
f 156/156/156 157/157/157 158/158/158
f 159/159/159 158/158/158 157/157/157
f 160/160/160 155/155/155 156/156/156
f 160/160/160 161/161/161 155/155/155
f 161/161/161 162/162/162 155/155/155
f 162/162/162 161/161/161 163/163/163
f 164/164/164 163/163/163 161/161/161
f 165/165/165 164/164/164 161/161/161
f 165/165/165 166/166/166 164/164/164
f 166/166/166 167/167/167 164/164/164
f 167/167/167 166/166/166 168/168/168
f 169/169/169 167/167/167 168/168/168
f 170/170/170 169/169/169 168/168/168
f 171/171/171 170/170/170 168/168/168
f 172/172/172 170/170/170 171/171/171
f 173/173/173 172/172/172 171/171/171
f 174/174/174 172/172/172 173/173/173
f 175/175/175 174/174/174 173/173/173
f 175/175/175 176/176/176 174/174/174
f 176/176/176 177/177/177 174/174/174
f 177/177/177 176/176/176 178/178/178
f 179/179/179 178/178/178 176/176/176
f 178/178/178 179/179/179 180/180/180
f 179/179/179 181/181/181 180/180/180
f 180/180/180 181/181/181 182/182/182
f 181/181/181 183/183/183 182/182/182
f 182/182/182 183/183/183 184/184/184
f 183/183/183 185/185/185 184/184/184
f 184/184/184 185/185/185 186/186/186
f 187/187/187 184/184/184 186/186/186
f 187/187/187 186/186/186 188/188/188
f 186/186/186 189/189/189 188/188/188
f 188/188/188 189/189/189 190/190/190
f 189/189/189 191/191/191 190/190/190
f 190/190/190 191/191/191 192/192/192
f 191/191/191 193/193/193 192/192/192
f 192/192/192 193/193/193 194/194/194
f 195/195/195 192/192/192 194/194/194
f 195/195/195 194/194/194 196/196/196
f 194/194/194 197/197/197 196/196/196
f 196/196/196 197/197/197 198/198/198
f 197/197/197 199/199/199 198/198/198
f 198/198/198 199/199/199 200/200/200
f 199/199/199 201/201/201 200/200/200
f 200/200/200 201/201/201 202/202/202
f 201/201/201 203/203/203 202/202/202
f 202/202/202 203/203/203 204/204/204
f 205/205/205 202/202/202 204/204/204
f 205/205/205 204/204/204 206/206/206
f 204/204/204 207/207/207 206/206/206
f 208/208/208 206/206/206 207/207/207
f 209/209/209 206/206/206 208/208/208
f 210/210/210 208/208/208 207/207/207
f 211/211/211 210/210/210 207/207/207
