g Ramp C
v 0.2757841 0.6147143 0.01848284
v 0.2994458 0.5926804 0.1162484
v 0.2989892 0.5932257 0.01848276
v 0.2757841 0.6147143 0.01848284
v 0.2755935 0.6154708 0.1013862
v 0.2459601 0.646413 0.07785182
v 0.2461788 0.645884 0.01848293
v 0.2164959 0.6779625 0.07121166
v 0.2167899 0.6775268 0.01848291
v 0.4081483 0.5676406 0.01848277
v 0.4080179 0.5690289 0.1219
v 0.4057771 0.6305347 0.1104184
v 0.4061268 0.6300426 0.01848271
v 0.4022625 0.6775532 0.09487312
v 0.4022625 0.6775532 0.09487312
v 0.4021727 0.678304 0.01848304
v 0.3957733 0.7295991 0.07785182
v 0.3955866 0.7301431 0.01848291
v 0.09913593 0.4243434 0.01848292
v 0.08269151 0.458137 0.01848292
v 0.08269153 0.458137 0.1219
v 0.09913593 0.4243434 0.1219
v 0.381677 0.7869896 0.02013371
v 0.3816877 0.7869923 0.06689999
v 0.3013245 0.7960613 0.06689977
v 0.3013169 0.7961664 0.01848315
v 0.3013169 0.7961664 0.01848315
v 0.3013245 0.7960613 0.06689977
v 0.2684293 0.7936255 0.06258874
v 0.2681423 0.7938464 0.01848232
v 0.08269151 0.458137 0.01848292
v 0.09396771 0.538339 0.01848292
v 0.09396771 0.538339 0.1219
v 0.08269153 0.458137 0.1219
v 0.4081483 0.5676406 0.01848277
v 0.3860636 0.5076726 0.01848319
v 0.3858994 0.5077261 0.1218999
v 0.4080179 0.5690289 0.1219
v 0.2982888 0.5776397 0.01848288
v 0.2989892 0.5932257 0.01848276
v 0.2994458 0.5926804 0.1162484
v 0.2984316 0.5762206 0.1219
v 0.2352229 0.5570377 0.01848292
v 0.2666561 0.5442119 0.01848292
v 0.2666554 0.5442117 0.1218143
v 0.2352229 0.5570377 0.1219
v 0.1944373 0.5686134 0.01848292
v 0.2352229 0.5570377 0.01848292
v 0.2352229 0.5570377 0.1219
v 0.1944373 0.5686134 0.1219
v 0.2939562 0.5517836 0.01848304
v 0.2982888 0.5776397 0.01848288
v 0.2984316 0.5762206 0.1219
v 0.2940833 0.5517558 0.1218999
v 0.2132144 0.7527868 0.01848329
v 0.2681423 0.7938464 0.01848232
v 0.2684293 0.7936255 0.06258874
v 0.2132944 0.7526794 0.06689963
v 0.2236699 0.3997571 0.01848292
v 0.2236705 0.3997571 0.1219643
v 0.2846591 0.4120747 0.1219004
v 0.2846604 0.4120737 0.01848292
v 0.2872756 0.5322195 0.01848292
v 0.2872911 0.5322126 0.1219004
v 0.2666554 0.5442117 0.1218143
v 0.2666561 0.5442119 0.01848292
v 0.3955866 0.7301431 0.01848291
v 0.3957733 0.7295991 0.07785182
v 0.3816877 0.7869923 0.06689999
v 0.381677 0.7869896 0.02013371
v 0.3470233 0.4484745 0.01848292
v 0.3470092 0.4484824 0.1219004
v 0.3858994 0.5077261 0.1218999
v 0.3860636 0.5076726 0.01848319
v 0.2846604 0.4120737 0.01848292
v 0.2846591 0.4120747 0.1219004
v 0.3470092 0.4484824 0.1219004
v 0.3470233 0.4484745 0.01848292
v 0.1190929 0.5662881 0.01848292
v 0.1718123 0.5773014 0.01848292
v 0.1718123 0.5773014 0.1219
v 0.1190929 0.5662881 0.1219
v 0.2236699 0.3997571 0.01848292
v 0.1709181 0.4013325 0.01848292
v 0.1709181 0.4013325 0.1219
v 0.2236705 0.3997571 0.1219643
v 0.1709181 0.4013325 0.01848292
v 0.1467746 0.39922 0.01848292
v 0.1467746 0.39922 0.1219
v 0.1709181 0.4013325 0.1219
v 0.1467746 0.39922 0.01848292
v 0.09913593 0.4243434 0.01848292
v 0.09913593 0.4243434 0.1219
v 0.1467746 0.39922 0.1219
v 0.2167899 0.6775268 0.01848291
v 0.2019642 0.7214301 0.01848298
v 0.2019167 0.7214141 0.06689995
v 0.2164959 0.6779625 0.07121166
v 0.09396771 0.538339 0.01848292
v 0.1190929 0.5662881 0.01848292
v 0.1190929 0.5662881 0.1219
v 0.09396771 0.538339 0.1219
v 0.2019642 0.7214301 0.01848298
v 0.2132144 0.7527868 0.01848329
v 0.2132944 0.7526794 0.06689963
v 0.2019167 0.7214141 0.06689995
v 0.1718123 0.5773014 0.01848292
v 0.1944373 0.5686134 0.01848292
v 0.1944373 0.5686134 0.1219
v 0.1718123 0.5773014 0.1219
v 0.2939562 0.5517836 0.01848304
v 0.2940833 0.5517558 0.1218999
v 0.2872911 0.5322126 0.1219004
v 0.2872756 0.5322195 0.01848292
v 0.3013245 0.7960613 0.06689977
v 0.3957733 0.7295991 0.07785182
v 0.2684293 0.7936255 0.06258874
v 0.2684293 0.7936255 0.06258874
v 0.2164959 0.6779625 0.07121166
v 0.2132944 0.7526794 0.06689963
v 0.2132944 0.7526794 0.06689963
v 0.2164959 0.6779625 0.07121166
v 0.2019167 0.7214141 0.06689995
v 0.2984316 0.5762206 0.1219
v 0.4080179 0.5690289 0.1219
v 0.3858994 0.5077261 0.1218999
v 0.2872911 0.5322126 0.1219004
v 0.2940833 0.5517558 0.1218999
v 0.2984316 0.5762206 0.1219
v 0.3858994 0.5077261 0.1218999
v 0.3470092 0.4484824 0.1219004
v 0.2846591 0.4120747 0.1219004
v 0.2236705 0.3997571 0.1219643
v 0.2666554 0.5442117 0.1218143
v 0.2352229 0.5570377 0.1219
v 0.1709181 0.4013325 0.1219
v 0.1944373 0.5686134 0.1219
v 0.08269153 0.458137 0.1219
v 0.09913593 0.4243434 0.1219
v 0.1467746 0.39922 0.1219
v 0.09396771 0.538339 0.1219
v 0.1190929 0.5662881 0.1219
v 0.1718123 0.5773014 0.1219
v 0.3957733 0.7295991 0.07785182
v 0.3013245 0.7960613 0.06689977
v 0.3816877 0.7869923 0.06689999
v 0.2994458 0.5926804 0.1162484
v 0.4057771 0.6305347 0.1104184
v 0.4080179 0.5690289 0.1219
v 0.4022625 0.6775532 0.09487312
v 0.2755935 0.6154708 0.1013862
v 0.2459601 0.646413 0.07785182
v 0.4022625 0.6775532 0.09487312
v 0.4057771 0.6305347 0.1104184
v 0.2994458 0.5926804 0.1162484
v 0.2994458 0.5926804 0.1162484
v 0.4080179 0.5690289 0.1219
v 0.2984316 0.5762206 0.1219
v 0.4022625 0.6775532 0.09487312
v 0.2459601 0.646413 0.07785182
v 0.3957733 0.7295991 0.07785182
v 0.4022625 0.6775532 0.09487312
v 0.2994458 0.5926804 0.1162484
v 0.2755935 0.6154708 0.1013862
v 0.2684293 0.7936255 0.06258874
v 0.3957733 0.7295991 0.07785182
v 0.2459601 0.646413 0.07785182
v 0.2164959 0.6779625 0.07121166
vt 0.6049139 0.3009946
vt 0.6128369 0.2936534
vt 0.6128369 0.2936534
vt 0.6049139 0.3009946
vt 0.6049139 0.3009946
vt 0.5947943 0.3116535
vt 0.5947943 0.3116535
vt 0.5847628 0.3224823
vt 0.5847628 0.3224823
vt 0.6501849 0.2848958
vt 0.6501849 0.2848958
vt 0.6495149 0.3062421
vt 0.6495149 0.3062421
vt 0.6481132 0.322739
vt 0.6481132 0.322739
vt 0.6481132 0.322739
vt 0.6429209 0.3404629
vt 0.6429209 0.3404629
vt 0.5445243 0.2359131
vt 0.5389021 0.2474667
vt 0.5389021 0.2474667
vt 0.5445243 0.2359131
vt 0.6411248 0.3598996
vt 0.6411248 0.3598996
vt 0.6136498 0.3630185
vt 0.6136498 0.3630185
vt 0.6136498 0.3630185
vt 0.6136498 0.3630185
vt 0.6022913 0.3622796
vt 0.6022913 0.3622796
vt 0.5389021 0.2474667
vt 0.5427573 0.2748873
vt 0.5427573 0.2748873
vt 0.5389021 0.2474667
vt 0.6501849 0.2848958
vt 0.6425992 0.2644108
vt 0.6425992 0.2644108
vt 0.6501849 0.2848958
vt 0.6126042 0.2883263
vt 0.6128369 0.2936534
vt 0.6128369 0.2936534
vt 0.6126042 0.2883263
vt 0.5910513 0.2812802
vt 0.6017982 0.2768951
vt 0.6017982 0.2768951
vt 0.5910513 0.2812802
vt 0.5771071 0.2852379
vt 0.5910513 0.2812802
vt 0.5910513 0.2812802
vt 0.5771071 0.2852379
vt 0.6111468 0.2794816
vt 0.6126042 0.2883263
vt 0.6126042 0.2883263
vt 0.6111468 0.2794816
vt 0.5835406 0.348187
vt 0.6022913 0.3622796
vt 0.6022913 0.3622796
vt 0.5835406 0.348187
vt 0.5871016 0.2275072
vt 0.5871016 0.2275072
vt 0.6079536 0.2317183
vt 0.6079536 0.2317183
vt 0.6088496 0.2727944
vt 0.6088496 0.2727944
vt 0.6017982 0.2768951
vt 0.6017982 0.2768951
vt 0.6429209 0.3404629
vt 0.6429209 0.3404629
vt 0.6411248 0.3598996
vt 0.6411248 0.3598996
vt 0.629274 0.244164
vt 0.629274 0.244164
vt 0.6425992 0.2644108
vt 0.6425992 0.2644108
vt 0.6079536 0.2317183
vt 0.6079536 0.2317183
vt 0.629274 0.244164
vt 0.629274 0.244164
vt 0.5513474 0.2844429
vt 0.5693718 0.2882082
vt 0.5693718 0.2882082
vt 0.5513474 0.2844429
vt 0.5871016 0.2275072
vt 0.5690662 0.2280457
vt 0.5690662 0.2280457
vt 0.5871016 0.2275072
vt 0.5690662 0.2280457
vt 0.5608116 0.2273235
vt 0.5608116 0.2273235
vt 0.5690662 0.2280457
vt 0.5608116 0.2273235
vt 0.5445243 0.2359131
vt 0.5445243 0.2359131
vt 0.5608116 0.2273235
vt 0.5847628 0.3224823
vt 0.5796724 0.337482
vt 0.5796724 0.337482
vt 0.5847628 0.3224823
vt 0.5427573 0.2748873
vt 0.5513474 0.2844429
vt 0.5513474 0.2844429
vt 0.5427573 0.2748873
vt 0.5796724 0.337482
vt 0.5835406 0.348187
vt 0.5835406 0.348187
vt 0.5796724 0.337482
vt 0.5693718 0.2882082
vt 0.5771071 0.2852379
vt 0.5771071 0.2852379
vt 0.5693718 0.2882082
vt 0.6111468 0.2794816
vt 0.6111468 0.2794816
vt 0.6088496 0.2727944
vt 0.6088496 0.2727944
vt 0.6136498 0.3630185
vt 0.6429209 0.3404629
vt 0.6022913 0.3622796
vt 0.6022913 0.3622796
vt 0.5847628 0.3224823
vt 0.5835406 0.348187
vt 0.5835406 0.348187
vt 0.5847628 0.3224823
vt 0.5796724 0.337482
vt 0.6126042 0.2883263
vt 0.6501849 0.2848958
vt 0.6425992 0.2644108
vt 0.6088496 0.2727944
vt 0.6111468 0.2794816
vt 0.6126042 0.2883263
vt 0.6425992 0.2644108
vt 0.629274 0.244164
vt 0.6079536 0.2317183
vt 0.5871016 0.2275072
vt 0.6017982 0.2768951
vt 0.5910513 0.2812802
vt 0.5690662 0.2280457
vt 0.5771071 0.2852379
vt 0.5389021 0.2474667
vt 0.5445243 0.2359131
vt 0.5608116 0.2273235
vt 0.5427573 0.2748873
vt 0.5513474 0.2844429
vt 0.5693718 0.2882082
vt 0.6429209 0.3404629
vt 0.6136498 0.3630185
vt 0.6411248 0.3598996
vt 0.6128369 0.2936534
vt 0.6495149 0.3062421
vt 0.6501849 0.2848958
vt 0.6481132 0.322739
vt 0.6049139 0.3009946
vt 0.5947943 0.3116535
vt 0.6481132 0.322739
vt 0.6495149 0.3062421
vt 0.6128369 0.2936534
vt 0.6128369 0.2936534
vt 0.6501849 0.2848958
vt 0.6126042 0.2883263
vt 0.6481132 0.322739
vt 0.5947943 0.3116535
vt 0.6429209 0.3404629
vt 0.6481132 0.322739
vt 0.6128369 0.2936534
vt 0.6049139 0.3009946
vt 0.6022913 0.3622796
vt 0.6429209 0.3404629
vt 0.5947943 0.3116535
vt 0.5847628 0.3224823
vn -0.6794476 -0.7337235 -0.000918686
vn -0.6924459 -0.7214526 0.004992012
vn -0.6794476 -0.7337235 -0.000918686
vn -0.725064 -0.6886728 0.003465038
vn -0.6924459 -0.7214526 0.004992012
vn -0.725064 -0.6886728 0.003465038
vn -0.725064 -0.6886728 0.003465038
vn -0.7327203 -0.6805282 0.001536011
vn -0.7327203 -0.6805282 0.001536011
vn 0.9993315 0.0365514 0.000769638
vn 0.9993315 0.0365514 0.000769638
vn 0.9993315 0.0365514 0.000769638
vn 0.9971283 0.07565476 0.003387802
vn 0.9971283 0.07565476 0.003387802
vn 0.9923145 0.1237417 4.986027E-05
vn 0.9923145 0.1237417 4.986027E-05
vn 0.9923145 0.1237417 4.986027E-05
vn 0.9920238 0.1260354 -0.001965368
vn -0.8991897 -0.437559 2.853039E-07
vn -0.8991897 -0.437559 2.853039E-07
vn -0.8991897 -0.437559 2.853039E-07
vn -0.8991904 -0.4375577 0
vn 0.1121391 0.9936925 -8.39161E-05
vn 0.1121391 0.9936925 -8.39161E-05
vn 0.1121391 0.9936925 -8.39161E-05
vn 0.113414 0.9935455 0.002142367
vn -0.07412971 0.9972463 0.002170768
vn -0.07412971 0.9972463 0.002170768
vn -0.07412971 0.9972463 0.002170768
vn -0.06976005 0.9975489 0.005451896
vn -0.9902604 0.1392277 0
vn -0.9902604 0.1392277 0
vn -0.9902604 0.1392277 0
vn -0.9902603 0.1392282 1.821762E-07
vn 0.9383866 -0.3455835 0.001668523
vn 0.9383866 -0.3455835 0.001668523
vn 0.9383866 -0.3455835 0.001668523
vn 0.9406295 -0.3393866 0.005742268
vn -0.9989795 0.04489605 0.004915976
vn -0.9989795 0.04489605 0.004915976
vn -0.9989795 0.04489605 0.004915976
vn -0.9980571 0.06226536 0.002232351
vn 0.3777948 0.9258894 3.914185E-06
vn 0.3777948 0.9258894 3.914185E-06
vn 0.3777948 0.9258894 3.914185E-06
vn 0.3778063 0.9258846 0
vn 0.273033 0.9620047 0
vn 0.273033 0.9620047 0
vn 0.273033 0.9620047 0
vn 0.2730331 0.9620046 0
vn -0.9862432 0.1652608 0.003629298
vn -0.9862432 0.1652608 0.003629298
vn -0.9862432 0.1652608 0.003629298
vn -0.9845694 0.1749902 0.001257203
vn -0.5987082 0.8009282 0.007907335
vn -0.5987082 0.8009282 0.007907335
vn -0.5987082 0.8009282 0.007907335
vn -0.5960757 0.8029235 0.002768091
vn 0.1979682 -0.9802084 -4.739778E-07
vn 0.1979682 -0.9802084 -4.739778E-07
vn 0.1979682 -0.9802084 -4.739778E-07
vn 0.197948 -0.9802126 1.226752E-05
vn 0.5026719 0.8644773 -1.792499E-05
vn 0.5026719 0.8644773 -1.792499E-05
vn 0.5026719 0.8644773 -1.792499E-05
vn 0.5027564 0.8644281 4.953306E-06
vn 0.9712175 0.2381932 -0.0008722506
vn 0.9712175 0.2381932 -0.0008722506
vn 0.9712175 0.2381932 -0.0008722506
vn 0.9713435 0.2376799 -0.0002340856
vn 0.8359733 -0.5487701 0.0001565648
vn 0.8359733 -0.5487701 0.0001565648
vn 0.8359733 -0.5487701 0.0001565648
vn 0.8348064 -0.5505413 0.001609682
vn 0.5042509 -0.8635572 1.471336E-05
vn 0.5042509 -0.8635572 1.471336E-05
vn 0.5042509 -0.8635572 1.471336E-05
vn 0.5041026 -0.8636438 0.0001350325
vn -0.2044891 0.9788689 0
vn -0.2044891 0.9788689 0
vn -0.2044891 0.9788689 0
vn -0.2044891 0.9788688 0
vn -0.02985093 -0.9995543 0
vn -0.02985093 -0.9995543 0
vn -0.02985093 -0.9995543 0
vn -0.02984921 -0.9995543 5.587953E-07
vn 0.08716153 -0.9961942 0
vn 0.08716153 -0.9961942 0
vn 0.08716153 -0.9961942 0
vn 0.08716153 -0.9961942 0
vn -0.4664792 -0.8845322 0
vn -0.4664792 -0.8845322 0
vn -0.4664792 -0.8845322 0
vn -0.4664788 -0.8845324 0
vn -0.9474367 -0.3199416 -0.00103339
vn -0.9474367 -0.3199416 -0.00103339
vn -0.9474367 -0.3199416 -0.00103339
vn -0.9479752 -0.3183331 -0.002657032
vn -0.7436769 0.6685391 0
vn -0.7436769 0.6685391 0
vn -0.7436769 0.6685391 0
vn -0.7436767 0.6685394 0
vn -0.9412502 0.3377022 0.002305193
vn -0.9412502 0.3377022 0.002305193
vn -0.9412502 0.3377022 0.002305193
vn -0.9397112 0.3419683 -0.0008089314
vn 0.3584783 0.9335381 0
vn 0.3584783 0.9335381 0
vn 0.3584783 0.9335381 0
vn 0.3584787 0.9335379 0
vn -0.9445769 0.3282879 0.00124905
vn -0.9445769 0.3282879 0.00124905
vn -0.9445769 0.3282879 0.00124905
vn -0.9463471 0.3231521 0.0001626742
vn -0.128517 -0.01924581 0.9915206
vn -0.128517 -0.01924581 0.9915206
vn -0.128517 -0.01924581 0.9915206
vn 0.0341596 0.0590408 0.9976709
vn 0.0341596 0.0590408 0.9976709
vn 0.0341596 0.0590408 0.9976709
vn -0.1402683 0.05105463 0.9887964
vn -0.1402683 0.05105463 0.9887964
vn -0.1402683 0.05105463 0.9887964
vn 0 -2.127573E-06 1
vn 0 -2.127573E-06 1
vn 0 -2.127573E-06 1
vn 0.001050992 -2.303089E-05 0.9999995
vn 1.166211E-05 2.425961E-05 1
vn -2.503793E-06 -5.028812E-06 1
vn -2.503793E-06 -5.028812E-06 1
vn 0 0 1
vn 0.001050992 -2.303089E-05 0.9999995
vn 0.001050992 -2.303089E-05 0.9999995
vn 0.002810278 0.0002023326 0.9999961
vn 0.002810278 0.0002023326 0.9999961
vn 0 0 1
vn 0 0 1
vn 0 0 1
vn 1.348517E-07 0 1
vn 1.348517E-07 0 1
vn 0 0 1
vn -1.348506E-07 0 1
vn -1.348506E-07 0 1
vn 0.02172544 0.1925364 0.9810494
vn 0.02172544 0.1925364 0.9810494
vn 0.02172544 0.1925364 0.9810494
vn -0.01128449 0.1830966 0.9830301
vn -0.01128449 0.1830966 0.9830301
vn -0.01128449 0.1830966 0.9830301
vn -0.1881199 0.4740677 0.8601574
vn -0.1881199 0.4740677 0.8601574
vn -0.1881199 0.4740677 0.8601574
vn -0.05812804 0.3094583 0.9491347
vn -0.05812804 0.3094583 0.9491347
vn -0.05812804 0.3094583 0.9491347
vn 0.02123038 0.3235033 0.9459888
vn 0.02123038 0.3235033 0.9459888
vn 0.02123038 0.3235033 0.9459888
vn -0.1603099 0.2887084 0.9439005
vn -0.1603099 0.2887084 0.9439005
vn -0.1603099 0.2887084 0.9439005
vn -0.1586086 0.4174822 0.8947357
vn -0.1586086 0.4174822 0.8947357
vn -0.1586086 0.4174822 0.8947357
vn -0.06237981 0.1123423 0.9917096
vn -0.06237981 0.1123423 0.9917096
vn -0.06237981 0.1123423 0.9917096
vn -0.09713595 0.1172972 0.988335
g Ramp C_0
f 3/3/3 2/2/2 1/1/1
f 5/5/5 4/4/4 2/2/2
f 5/5/5 6/6/6 4/4/4
f 6/6/6 7/7/7 4/4/4
f 6/6/6 8/8/8 7/7/7
f 8/8/8 9/9/9 7/7/7
f 12/12/12 11/11/11 10/10/10
f 13/13/13 12/12/12 10/10/10
f 14/14/14 12/12/12 13/13/13
f 16/16/16 15/15/15 13/13/13
f 17/17/17 15/15/15 16/16/16
f 18/18/18 17/17/17 16/16/16
f 21/21/21 20/20/20 19/19/19
f 22/22/22 21/21/21 19/19/19
f 25/25/25 24/24/24 23/23/23
f 26/26/26 25/25/25 23/23/23
f 29/29/29 28/28/28 27/27/27
f 30/30/30 29/29/29 27/27/27
f 33/33/33 32/32/32 31/31/31
f 34/34/34 33/33/33 31/31/31
f 37/37/37 36/36/36 35/35/35
f 38/38/38 37/37/37 35/35/35
f 41/41/41 40/40/40 39/39/39
f 42/42/42 41/41/41 39/39/39
f 45/45/45 44/44/44 43/43/43
f 46/46/46 45/45/45 43/43/43
f 49/49/49 48/48/48 47/47/47
f 50/50/50 49/49/49 47/47/47
f 53/53/53 52/52/52 51/51/51
f 54/54/54 53/53/53 51/51/51
f 57/57/57 56/56/56 55/55/55
f 58/58/58 57/57/57 55/55/55
f 61/61/61 60/60/60 59/59/59
f 62/62/62 61/61/61 59/59/59
f 65/65/65 64/64/64 63/63/63
f 66/66/66 65/65/65 63/63/63
f 69/69/69 68/68/68 67/67/67
f 70/70/70 69/69/69 67/67/67
f 73/73/73 72/72/72 71/71/71
f 74/74/74 73/73/73 71/71/71
f 77/77/77 76/76/76 75/75/75
f 78/78/78 77/77/77 75/75/75
f 81/81/81 80/80/80 79/79/79
f 82/82/82 81/81/81 79/79/79
f 85/85/85 84/84/84 83/83/83
f 86/86/86 85/85/85 83/83/83
f 89/89/89 88/88/88 87/87/87
f 90/90/90 89/89/89 87/87/87
f 93/93/93 92/92/92 91/91/91
f 94/94/94 93/93/93 91/91/91
f 97/97/97 96/96/96 95/95/95
f 98/98/98 97/97/97 95/95/95
f 101/101/101 100/100/100 99/99/99
f 102/102/102 101/101/101 99/99/99
f 105/105/105 104/104/104 103/103/103
f 106/106/106 105/105/105 103/103/103
f 109/109/109 108/108/108 107/107/107
f 110/110/110 109/109/109 107/107/107
f 113/113/113 112/112/112 111/111/111
f 114/114/114 113/113/113 111/111/111
g Ramp C_1
f 117/117/117 116/116/116 115/115/115
f 120/120/120 119/119/119 118/118/118
f 123/123/123 122/122/122 121/121/121
f 126/126/126 125/125/125 124/124/124
f 126/126/126 128/128/128 127/127/127
f 128/128/128 130/130/130 129/129/129
f 131/131/131 130/130/130 127/127/127
f 131/131/131 127/127/127 132/132/132
f 133/133/133 132/132/132 127/127/127
f 134/134/134 133/133/133 127/127/127
f 135/135/135 133/133/133 134/134/134
f 136/136/136 133/133/133 135/135/135
f 137/137/137 136/136/136 135/135/135
f 138/138/138 136/136/136 137/137/137
f 139/139/139 136/136/136 138/138/138
f 140/140/140 136/136/136 139/139/139
f 141/141/141 138/138/138 137/137/137
f 141/141/141 137/137/137 142/142/142
f 142/142/142 137/137/137 143/143/143
f 146/146/146 145/145/145 144/144/144
f 149/149/149 148/148/148 147/147/147
f 152/152/152 151/151/151 150/150/150
f 155/155/155 154/154/154 153/153/153
f 158/158/158 157/157/157 156/156/156
f 161/161/161 160/160/160 159/159/159
f 164/164/164 163/163/163 162/162/162
f 167/167/167 166/166/166 165/165/165
f 168/168/168 167/167/167 165/165/165
