g Rock B Alternate
v 0.2621643 -3.737322 9.98243
v 2.633488 -2.888491 9.32844
v 3.517401 -4.634263 7.49254
v -4.898784 -1.214246 9.490909
v -5.178566 0.389516 8.354403
v -3.244824 -0.05946252 10.13359
v -3.244824 -0.05946252 10.13359
v -1.82634 -4.044743 9.273661
v -4.618519 -1.90081 9.379322
v 3.28984 -1.794626 9.166037
v 0.2621643 -3.737322 9.98243
v 2.740527 -0.25217 9.992139
v 2.740527 -0.25217 9.992139
v -1.482689 2.796721 9.422976
v 1.719454 3.073085 9.66188
v -3.244824 -0.05946252 10.13359
v -2.691851 1.782682 9.486757
v 2.740527 -0.25217 9.992139
v -1.482689 2.796721 9.422976
v 2.740527 -0.25217 9.992139
v -2.691851 1.782682 9.486757
v -3.244824 -0.05946252 10.13359
v -4.618519 -1.90081 9.379322
v -4.898784 -1.214246 9.490909
v 2.633488 -2.888491 9.32844
v 0.2621643 -3.737322 9.98243
v 3.28984 -1.794626 9.166037
v 2.740527 -0.25217 9.992139
v 0.2621643 -3.737322 9.98243
v -3.244824 -0.05946252 10.13359
v -1.82634 -4.044743 9.273661
v -3.244824 -0.05946252 10.13359
v 0.2621643 -3.737322 9.98243
v 4.311392 7.114284 -0.02554655
v 7.401395 4.072981 -0.02899885
v 6.940152 3.663871 1.331904
v -9.129561 -0.1171657 -0.005671978
v -5.178566 0.389516 8.354403
v -4.898784 -1.214246 9.490909
v 6.940152 3.663871 1.331904
v 6.148225 -2.029278 3.566696
v 5.865289 -1.709246 4.609926
v 6.084093 2.90344 4.308569
v 7.358425 -3.435528 -0.05458975
v 6.148225 -2.029278 3.566696
v 6.940152 3.663871 1.331904
v 7.401395 4.072981 -0.02899885
v 4.427465 -3.443294 7.122128
v 3.517401 -4.634263 7.49254
v 2.633488 -2.888491 9.32844
v 3.28984 -1.794626 9.166037
v -5.178566 0.389516 8.354403
v -5.301198 2.917784 7.117154
v -2.691851 1.782682 9.486757
v -3.244824 -0.05946252 10.13359
v 5.865289 -1.709246 4.609926
v 4.427465 -3.443294 7.122128
v 3.28984 -1.794626 9.166037
v 5.379277 3.774806 5.57208
v 6.084093 2.90344 4.308569
v -1.482689 2.796721 9.422976
v -3.56925 5.453327 6.81254
v 2.494078 4.961998 8.426903
v 1.719454 3.073085 9.66188
v -3.56925 5.453327 6.81254
v -1.482689 2.796721 9.422976
v -2.691851 1.782682 9.486757
v -5.301198 2.917784 7.117154
v -4.824948 5.723154 5.709411
v -5.700096 4.683561 5.715415
v 3.517401 -4.634263 7.49254
v 3.632201 -7.29115 -0.03917408
v -4.466386 -7.515737 0.02248478
v -1.904149 -4.070839 9.20704
v 0.2621643 -3.737322 9.98243
v -1.82634 -4.044743 9.273661
v -1.904149 -4.070839 9.20704
v -5.529342 -3.374873 7.312932
v -5.768348 -3.04695 7.366526
v -4.618519 -1.90081 9.379322
v -1.82634 -4.044743 9.273661
v 5.198058 4.182997 5.848588
v 2.740527 -0.25217 9.992139
v 1.719454 3.073085 9.66188
v 2.494078 4.961998 8.426903
v 3.517401 -4.634263 7.49254
v 4.427465 -3.443294 7.122128
v 5.865289 -1.709246 4.609926
v 6.148225 -2.029278 3.566696
v 7.358425 -3.435528 -0.05458975
v 3.632201 -7.29115 -0.03917408
v 3.517401 -4.634263 7.49254
v 6.148225 -2.029278 3.566696
v 5.379277 3.774806 5.57208
v 3.28984 -1.794626 9.166037
v 2.740527 -0.25217 9.992139
v 5.198058 4.182997 5.848588
v 6.084093 2.90344 4.308569
v 5.379277 3.774806 5.57208
v 5.198058 4.182997 5.848588
v 2.494078 4.961998 8.426903
v 6.084093 2.90344 4.308569
v 2.494078 4.961998 8.426903
v 4.311392 7.114284 -0.02554655
v 6.940152 3.663871 1.331904
v -4.618519 -1.90081 9.379322
v -5.768348 -3.04695 7.366526
v -9.129561 -0.1171657 -0.005671978
v -4.898784 -1.214246 9.490909
v -9.129561 -0.1171657 -0.005671978
v -7.643361 5.024439 -0.03749561
v -5.178566 0.389516 8.354403
v -5.301198 2.917784 7.117154
v -5.700096 4.683561 5.715415
v -7.643361 5.024439 -0.03749561
v -4.794014 7.143074 -0.04570436
v -4.824948 5.723154 5.709411
v -5.700096 4.683561 5.715415
v -4.824948 5.723154 5.709411
v -4.794014 7.143074 -0.04570436
v 4.311392 7.114284 -0.02554655
v 2.494078 4.961998 8.426903
v -3.56925 5.453327 6.81254
v -4.466386 -7.515737 0.02248478
v -7.028771 -5.790334 0.02680159
v -5.529342 -3.374873 7.312932
v -1.904149 -4.070839 9.20704
v -7.028771 -5.790334 0.02680159
v -9.129561 -0.1171657 -0.005671978
v -5.768348 -3.04695 7.366526
v -5.529342 -3.374873 7.312932
vt 0.7016497 0.7667527
vt 0.6572664 0.715391
vt 0.6057321 0.7822665
vt 0.7588377 0.3721217
vt 0.6133578 0.132579
vt 0.8540884 0.617421
vt 0.8540884 0.617421
vt 0.7886606 0.7575095
vt 0.8670025 0.6864206
vt 0.625 0.6831246
vt 0.7016497 0.7667527
vt 0.625 0.6231376
vt 0.625 0.6231376
vt 0.7882069 0.5163856
vt 0.684522 0.5163919
vt 0.8540884 0.617421
vt 0.8292308 0.5574094
vt 0.625 0.6231376
vt 0.7882069 0.5163856
vt 0.625 0.6231376
vt 0.8292308 0.5574094
vt 0.8540884 0.617421
vt 0.8670025 0.6864206
vt 0.8627831 0.661132
vt 0.6572664 0.715391
vt 0.7016497 0.7667527
vt 0.625 0.6831246
vt 0.625 0.6231376
vt 0.7016497 0.7667527
vt 0.8540884 0.617421
vt 0.7886606 0.7575095
vt 0.8540884 0.617421
vt 0.7016497 0.7667527
vt 0.5018594 0.5063742
vt 0.5 0.5530243
vt 0.5191671 0.5657072
vt 0.5 0.1307564
vt 0.6133578 0.132579
vt 0.7588377 0.3721217
vt 0.5191671 0.5657072
vt 0.5508828 0.6744331
vt 0.5594303 0.6619831
vt 0.5470729 0.5657072
vt 0.5 0.6843575
vt 0.5508828 0.6744331
vt 0.5191671 0.5657072
vt 0.5 0.5530243
vt 0.5985217 0.7083819
vt 0.6379985 0.75
vt 0.6572664 0.715391
vt 0.625 0.6831246
vt 0.6133578 0.132579
vt 0.5995187 0.1925906
vt 0.8292308 0.5574094
vt 0.7183114 0.2992618
vt 0.5594303 0.6619831
vt 0.5985217 0.7083819
vt 0.625 0.6831246
vt 0.5636986 0.5531377
vt 0.5470729 0.5657072
vt 0.625 0.3531786
vt 0.5941818 0.2978234
vt 0.6131417 0.4407659
vt 0.625 0.4313378
vt 0.6622337 0.3658752
vt 0.7485049 0.4439124
vt 0.6901287 0.3034885
vt 0.5995187 0.1925906
vt 0.6122621 0.3047149
vt 0.5801288 0.2274184
vt 0.6057321 0.7822665
vt 0.5 0.8132372
vt 0.5 0.9514741
vt 0.6198182 0.9272103
vt 0.6149961 0.8534063
vt 0.6205157 0.9256545
vt 0.6198182 0.9062839
vt 0.6752699 0.261398
vt 0.6919005 0.2568821
vt 0.8670025 0.6864206
vt 0.6205157 0.9256545
vt 0.5642382 0.5365005
vt 0.625 0.6231376
vt 0.625 0.45687
vt 0.6131417 0.4407659
vt 0.5682538 0.7307264
vt 0.5648785 0.7044301
vt 0.5594303 0.6619831
vt 0.5508828 0.6744331
vt 0.5 0.6843575
vt 0.5 0.8132372
vt 0.6057321 0.7822665
vt 0.5508828 0.6744331
vt 0.5636986 0.5531377
vt 0.625 0.6831246
vt 0.625 0.6231376
vt 0.5642382 0.5365005
vt 0.5470729 0.5657072
vt 0.5636986 0.5531377
vt 0.5642382 0.5365005
vt 0.5831572 0.4987736
vt 0.5470729 0.5657072
vt 0.6131417 0.4407659
vt 0.5 0.4462309
vt 0.5191671 0.5657072
vt 0.712613 0.2490033
vt 0.6341226 0.09318556
vt 0.5 0.1307564
vt 0.7588377 0.3721217
vt 0.5 0.1307564
vt 0.5 0.215121
vt 0.6133578 0.132579
vt 0.5995187 0.1925906
vt 0.5801288 0.2274184
vt 0.5 0.215121
vt 0.5 0.2886724
vt 0.5801289 0.2725816
vt 0.5801288 0.2274184
vt 0.5801289 0.2725816
vt 0.5 0.2886724
vt 0.5 0.4462309
vt 0.6131417 0.4407659
vt 0.5941818 0.2978234
vt 0.5 0.9514741
vt 0.5013019 0.9992759
vt 0.588972 0.996008
vt 0.6198182 0.9272103
vt 0.5013019 0.9992759
vt 0.5054556 1.0481
vt 0.5871821 1
vt 0.588972 0.996008
vn 0.4004752 -0.5599709 0.7252946
vn 0.4004752 -0.5599709 0.7252946
vn 0.4004752 -0.5599709 0.7252946
vn -0.5644127 0.4094787 0.7167745
vn -0.5644127 0.4094787 0.7167745
vn -0.5644127 0.4094787 0.7167745
vn -0.1670878 -0.2644204 0.9498228
vn -0.1670878 -0.2644204 0.9498228
vn -0.1670878 -0.2644204 0.9498228
vn 0.4253891 -0.3048769 0.8521116
vn 0.4253891 -0.3048769 0.8521116
vn 0.4253891 -0.3048769 0.8521116
vn -0.08054538 0.07398945 0.994001
vn -0.08054538 0.07398945 0.994001
vn -0.08054538 0.07398945 0.994001
vn 0.03273588 0.322359 0.9460512
vn 0.03273588 0.322359 0.9460512
vn 0.03273588 0.322359 0.9460512
vn -0.04762465 0.1191672 0.9917313
vn -0.04762465 0.1191672 0.9917313
vn -0.04762465 0.1191672 0.9917313
vn -0.2033498 -0.2373956 0.9498906
vn -0.2033498 -0.2373956 0.9498906
vn -0.2033498 -0.2373956 0.9498906
vn 0.2727355 -0.02084406 0.9618632
vn 0.2727355 -0.02084406 0.9618632
vn 0.2727355 -0.02084406 0.9618632
vn 0.02300503 -0.01914401 0.999552
vn 0.02300503 -0.01914401 0.999552
vn 0.02300503 -0.01914401 0.999552
vn -0.2682015 -0.2934526 0.9175802
vn -0.2682015 -0.2934526 0.9175802
vn -0.2682015 -0.2934526 0.9175802
vn 0.639437 0.6492087 0.4118837
vn 0.639437 0.6492087 0.4118837
vn 0.639437 0.6492087 0.4118837
vn -0.9083088 0.1385245 0.3946974
vn -0.9083088 0.1385245 0.3946974
vn -0.9083088 0.1385245 0.3946974
vn 0.9625484 -0.02804141 0.269656
vn 0.9625484 -0.02804141 0.269656
vn 0.9625484 -0.02804141 0.269656
vn 0.9625484 -0.02804141 0.269656
vn 0.9476561 -0.006511246 0.3192264
vn 0.9476561 -0.006511246 0.3192264
vn 0.9476561 -0.006511246 0.3192264
vn 0.9476561 -0.006511246 0.3192264
vn 0.6923633 -0.3243613 0.644533
vn 0.6923633 -0.3243613 0.644533
vn 0.6923633 -0.3243613 0.644533
vn 0.6923633 -0.3243613 0.644533
vn -0.5500966 0.3756891 0.7458226
vn -0.5500966 0.3756891 0.7458226
vn -0.5500966 0.3756891 0.7458226
vn -0.5500966 0.3756891 0.7458226
vn 0.8705789 -0.009156209 0.4919437
vn 0.8705789 -0.009156209 0.4919437
vn 0.8705789 -0.009156209 0.4919437
vn 0.8705789 -0.009156209 0.4919437
vn 0.8705789 -0.009156209 0.4919437
vn -0.1408393 0.6154198 0.7755145
vn -0.1408393 0.6154198 0.7755145
vn -0.1408393 0.6154198 0.7755145
vn -0.1408393 0.6154198 0.7755145
vn -0.4754107 0.4525712 0.7544296
vn -0.4754107 0.4525712 0.7544296
vn -0.4754107 0.4525712 0.7544296
vn -0.4754107 0.4525712 0.7544296
vn -0.4754107 0.4525712 0.7544296
vn -0.4754107 0.4525712 0.7544296
vn 0.02078019 -0.9397614 0.341199
vn 0.02078019 -0.9397614 0.341199
vn 0.02078019 -0.9397614 0.341199
vn 0.02078019 -0.9397614 0.341199
vn 0.02078019 -0.9397614 0.341199
vn 0.02078019 -0.9397614 0.341199
vn -0.4650706 -0.6086424 0.6428559
vn -0.4650706 -0.6086424 0.6428559
vn -0.4650706 -0.6086424 0.6428559
vn -0.4650706 -0.6086424 0.6428559
vn -0.4650706 -0.6086424 0.6428559
vn 0.6814721 0.2397756 0.6914502
vn 0.6814721 0.2397756 0.6914502
vn 0.6814721 0.2397756 0.6914502
vn 0.6814721 0.2397756 0.6914502
vn 0.8573783 -0.4592839 0.2322946
vn 0.8573783 -0.4592839 0.2322946
vn 0.8573783 -0.4592839 0.2322946
vn 0.8573783 -0.4592839 0.2322946
vn 0.7650251 -0.5705219 0.2987328
vn 0.7650251 -0.5705219 0.2987328
vn 0.7650251 -0.5705219 0.2987328
vn 0.7650251 -0.5705219 0.2987328
vn 0.8499938 0.0207896 0.5263822
vn 0.8499938 0.0207896 0.5263822
vn 0.8499938 0.0207896 0.5263822
vn 0.8499938 0.0207896 0.5263822
vn -0.4883322 0.5121996 -0.7065289
vn -0.4883322 0.5121996 -0.7065289
vn -0.4883322 0.5121996 -0.7065289
vn -0.4883322 0.5121996 -0.7065289
vn 0.703838 0.6313758 0.3255405
vn 0.703838 0.6313758 0.3255405
vn 0.703838 0.6313758 0.3255405
vn 0.703838 0.6313758 0.3255405
vn -0.9083088 0.1385245 0.3946974
vn -0.9083088 0.1385245 0.3946974
vn -0.9083088 0.1385245 0.3946974
vn -0.9083088 0.1385245 0.3946974
vn -0.9083088 0.1385245 0.3946974
vn -0.9083088 0.1385245 0.3946974
vn -0.9083088 0.1385245 0.3946974
vn -0.9083088 0.1385245 0.3946974
vn -0.9083088 0.1385245 0.3946974
vn -0.6305997 0.7446497 0.218725
vn -0.6305997 0.7446497 0.218725
vn -0.6305997 0.7446497 0.218725
vn -0.6305997 0.7446497 0.218725
vn 0.00648563 0.9699042 0.2434006
vn 0.00648563 0.9699042 0.2434006
vn 0.00648563 0.9699042 0.2434006
vn 0.00648563 0.9699042 0.2434006
vn 0.00648563 0.9699042 0.2434006
vn -0.4369124 -0.808018 0.3952396
vn -0.4369124 -0.808018 0.3952396
vn -0.4369124 -0.808018 0.3952396
vn -0.4369124 -0.808018 0.3952396
vn -0.8930219 -0.3491838 0.2838705
vn -0.8930219 -0.3491838 0.2838705
vn -0.8930219 -0.3491838 0.2838705
vn -0.8930219 -0.3491838 0.2838705
g Rock B Alternate_0
f 3/3/3 2/2/2 1/1/1
f 6/6/6 5/5/5 4/4/4
f 9/9/9 8/8/8 7/7/7
f 12/12/12 11/11/11 10/10/10
f 15/15/15 14/14/14 13/13/13
f 18/18/18 17/17/17 16/16/16
f 21/21/21 20/20/20 19/19/19
f 24/24/24 23/23/23 22/22/22
f 27/27/27 26/26/26 25/25/25
f 30/30/30 29/29/29 28/28/28
f 33/33/33 32/32/32 31/31/31
f 36/36/36 35/35/35 34/34/34
f 39/39/39 38/38/38 37/37/37
f 42/42/42 41/41/41 40/40/40
f 43/43/43 42/42/42 40/40/40
f 46/46/46 45/45/45 44/44/44
f 47/47/47 46/46/46 44/44/44
f 50/50/50 49/49/49 48/48/48
f 48/48/48 51/51/51 50/50/50
f 54/54/54 53/53/53 52/52/52
f 55/55/55 54/54/54 52/52/52
f 58/58/58 57/57/57 56/56/56
f 56/56/56 59/59/59 58/58/58
f 56/56/56 60/60/60 59/59/59
f 63/63/63 62/62/62 61/61/61
f 64/64/64 63/63/63 61/61/61
f 67/67/67 66/66/66 65/65/65
f 65/65/65 68/68/68 67/67/67
f 65/65/65 69/69/69 68/68/68
f 69/69/69 70/70/70 68/68/68
f 73/73/73 72/72/72 71/71/71
f 71/71/71 74/74/74 73/73/73
f 71/71/71 75/75/75 74/74/74
f 75/75/75 76/76/76 74/74/74
f 79/79/79 78/78/78 77/77/77
f 77/77/77 80/80/80 79/79/79
f 77/77/77 81/81/81 80/80/80
f 84/84/84 83/83/83 82/82/82
f 82/82/82 85/85/85 84/84/84
f 88/88/88 87/87/87 86/86/86
f 89/89/89 88/88/88 86/86/86
f 92/92/92 91/91/91 90/90/90
f 93/93/93 92/92/92 90/90/90
f 96/96/96 95/95/95 94/94/94
f 97/97/97 96/96/96 94/94/94
f 100/100/100 99/99/99 98/98/98
f 101/101/101 100/100/100 98/98/98
f 104/104/104 103/103/103 102/102/102
f 105/105/105 104/104/104 102/102/102
f 108/108/108 107/107/107 106/106/106
f 106/106/106 109/109/109 108/108/108
f 112/112/112 111/111/111 110/110/110
f 112/112/112 113/113/113 111/111/111
f 113/113/113 114/114/114 111/111/111
f 117/117/117 116/116/116 115/115/115
f 118/118/118 117/117/117 115/115/115
f 121/121/121 120/120/120 119/119/119
f 119/119/119 122/122/122 121/121/121
f 119/119/119 123/123/123 122/122/122
f 126/126/126 125/125/125 124/124/124
f 127/127/127 126/126/126 124/124/124
f 130/130/130 129/129/129 128/128/128
f 131/131/131 130/130/130 128/128/128
