g Rock A Alternate
v -0.008113027 -1.919091 13.37486
v 1.331097 -1.439711 12.49862
v 1.830289 -2.42564 10.03881
v -2.922769 -0.4941782 12.7163
v -3.080776 0.4115499 11.19357
v -1.988692 0.1579883 13.57739
v -1.988692 0.1579883 13.57739
v -1.1876 -2.092707 12.42523
v -2.764489 -0.8819163 12.5668
v 1.701773 -0.8219489 12.28103
v -0.008113027 -1.919091 13.37486
v 1.391548 0.04915643 13.38787
v 1.391548 0.04915643 13.38787
v -0.9935226 1.771024 12.62528
v 0.8148946 1.927101 12.94538
v -1.988692 0.1579883 13.57739
v -1.676399 1.198343 12.71074
v 1.391548 0.04915643 13.38787
v -0.9935226 1.771024 12.62528
v 1.391548 0.04915643 13.38787
v -1.676399 1.198343 12.71074
v -1.988692 0.1579883 13.57739
v -2.764489 -0.8819163 12.5668
v -2.922769 -0.4941782 12.7163
v 1.331097 -1.439711 12.49862
v -0.008113027 -1.919091 13.37486
v 1.701773 -0.8219489 12.28103
v 1.391548 0.04915643 13.38787
v -0.008113027 -1.919091 13.37486
v -1.988692 0.1579883 13.57739
v -1.1876 -2.092707 12.42523
v -1.988692 0.1579883 13.57739
v -0.008113027 -1.919091 13.37486
v 2.278697 4.209376 -0.0342283
v 4.023782 2.491794 -0.03885384
v 3.763294 2.260748 1.784539
v -5.312109 0.1254004 -0.007599546
v -3.080776 0.4115499 11.19357
v -2.922769 -0.4941782 12.7163
v 3.763294 2.260748 1.784539
v 3.316052 -0.9544688 4.778804
v 3.156263 -0.7737305 6.176566
v 3.279833 1.831294 5.772795
v 3.999515 -1.748652 -0.07314156
v 3.316052 -0.9544688 4.778804
v 3.763294 2.260748 1.784539
v 4.023782 2.491794 -0.03885384
v 2.344249 -1.753037 9.542515
v 1.830289 -2.42564 10.03881
v 1.331097 -1.439711 12.49862
v 1.701773 -0.8219489 12.28103
v -3.080776 0.4115499 11.19357
v -3.150033 1.839395 9.535851
v -1.676399 1.198343 12.71074
v -1.988692 0.1579883 13.57739
v 3.156263 -0.7737305 6.176566
v 2.344249 -1.753037 9.542515
v 1.701773 -0.8219489 12.28103
v 2.881787 2.323399 7.465698
v 3.279833 1.831294 5.772795
v -0.9935226 1.771024 12.62528
v -2.171912 3.271348 9.127717
v 1.252365 2.993868 11.29071
v 0.8148946 1.927101 12.94538
v -0.9935226 1.771024 12.62528
v -1.676399 1.198343 12.71074
v -3.150033 1.839395 9.535851
v -2.171912 3.271348 9.127717
v -3.375312 2.83662 7.657745
v -2.88107 3.423733 7.6497
v 1.830289 -2.42564 10.03881
v 1.895122 -3.926122 -0.05248702
v -2.678572 -4.052958 0.03012602
v -1.231543 -2.107445 12.33597
v -0.008113027 -1.919091 13.37486
v -1.1876 -2.092707 12.42523
v -1.231543 -2.107445 12.33597
v -3.278878 -1.714397 9.798162
v -3.413857 -1.529202 9.86997
v -2.764489 -0.8819163 12.5668
v -1.1876 -2.092707 12.42523
v 2.779443 2.553926 7.836176
v 1.391548 0.04915643 13.38787
v 0.8148946 1.927101 12.94538
v 1.252365 2.993868 11.29071
v 1.830289 -2.42564 10.03881
v 2.344249 -1.753037 9.542515
v 3.156263 -0.7737305 6.176566
v 3.316052 -0.9544688 4.778804
v 3.999515 -1.748652 -0.07314156
v 1.895122 -3.926122 -0.05248702
v 1.830289 -2.42564 10.03881
v 3.316052 -0.9544688 4.778804
v 2.881787 2.323399 7.465698
v 1.701773 -0.8219489 12.28103
v 1.391548 0.04915643 13.38787
v 2.779443 2.553926 7.836176
v 3.279833 1.831294 5.772795
v 2.881787 2.323399 7.465698
v 2.779443 2.553926 7.836176
v 1.252365 2.993868 11.29071
v 3.279833 1.831294 5.772795
v 1.252365 2.993868 11.29071
v 2.278697 4.209376 -0.0342283
v 3.763294 2.260748 1.784539
v -2.764489 -0.8819163 12.5668
v -3.413857 -1.529202 9.86997
v -5.312109 0.1254004 -0.007599546
v -2.922769 -0.4941782 12.7163
v -5.312109 0.1254004 -0.007599546
v -4.472775 3.029132 -0.05023814
v -3.080776 0.4115499 11.19357
v -3.150033 1.839395 9.535851
v -3.375312 2.83662 7.657745
v -4.472775 3.029132 -0.05023814
v -2.8636 4.225636 -0.06123656
v -2.88107 3.423733 7.6497
v -3.375312 2.83662 7.657745
v -2.88107 3.423733 7.6497
v -2.8636 4.225636 -0.06123656
v 2.278697 4.209376 -0.0342283
v 1.252365 2.993868 11.29071
v -2.171912 3.271348 9.127717
v -2.678572 -4.052958 0.03012602
v -4.125684 -3.078533 0.03590985
v -3.278878 -1.714397 9.798162
v -1.231543 -2.107445 12.33597
v -4.125684 -3.078533 0.03590985
v -5.312109 0.1254004 -0.007599546
v -3.413857 -1.529202 9.86997
v -3.278878 -1.714397 9.798162
vt 0.7016497 0.7667527
vt 0.6572664 0.715391
vt 0.6057321 0.7822665
vt 0.7588377 0.3721217
vt 0.6133578 0.132579
vt 0.8540884 0.617421
vt 0.8540884 0.617421
vt 0.7886606 0.7575095
vt 0.8670025 0.6864206
vt 0.625 0.6831246
vt 0.7016497 0.7667527
vt 0.625 0.6231376
vt 0.625 0.6231376
vt 0.7882069 0.5163856
vt 0.684522 0.5163919
vt 0.8540884 0.617421
vt 0.8292308 0.5574094
vt 0.625 0.6231376
vt 0.7882069 0.5163856
vt 0.625 0.6231376
vt 0.8292308 0.5574094
vt 0.8540884 0.617421
vt 0.8670025 0.6864206
vt 0.8627831 0.661132
vt 0.6572664 0.715391
vt 0.7016497 0.7667527
vt 0.625 0.6831246
vt 0.625 0.6231376
vt 0.7016497 0.7667527
vt 0.8540884 0.617421
vt 0.7886606 0.7575095
vt 0.8540884 0.617421
vt 0.7016497 0.7667527
vt 0.5018594 0.5063742
vt 0.5 0.5530243
vt 0.5191671 0.5657072
vt 0.5 0.1307564
vt 0.6133578 0.132579
vt 0.7588377 0.3721217
vt 0.5191671 0.5657072
vt 0.5508828 0.6744331
vt 0.5594303 0.6619831
vt 0.5470729 0.5657072
vt 0.5 0.6843575
vt 0.5508828 0.6744331
vt 0.5191671 0.5657072
vt 0.5 0.5530243
vt 0.5985217 0.7083819
vt 0.6379985 0.75
vt 0.6572664 0.715391
vt 0.625 0.6831246
vt 0.6133578 0.132579
vt 0.5995187 0.1925906
vt 0.8292308 0.5574094
vt 0.7183114 0.2992618
vt 0.5594303 0.6619831
vt 0.5985217 0.7083819
vt 0.625 0.6831246
vt 0.5636986 0.5531377
vt 0.5470729 0.5657072
vt 0.625 0.3531786
vt 0.5941818 0.2978234
vt 0.6131417 0.4407659
vt 0.625 0.4313378
vt 0.7485049 0.4439124
vt 0.6901287 0.3034885
vt 0.5995187 0.1925906
vt 0.6622337 0.3658752
vt 0.5801288 0.2274184
vt 0.6122621 0.3047149
vt 0.6057321 0.7822665
vt 0.5 0.8132372
vt 0.5 0.9514741
vt 0.6198182 0.9272103
vt 0.6149961 0.8534063
vt 0.6205157 0.9256545
vt 0.6198182 0.9062839
vt 0.6752699 0.261398
vt 0.6919005 0.2568821
vt 0.8670025 0.6864206
vt 0.6205157 0.9256545
vt 0.5642382 0.5365005
vt 0.625 0.6231376
vt 0.625 0.45687
vt 0.6131417 0.4407659
vt 0.5682538 0.7307264
vt 0.5648785 0.7044301
vt 0.5594303 0.6619831
vt 0.5508828 0.6744331
vt 0.5 0.6843575
vt 0.5 0.8132372
vt 0.6057321 0.7822665
vt 0.5508828 0.6744331
vt 0.5636986 0.5531377
vt 0.625 0.6831246
vt 0.625 0.6231376
vt 0.5642382 0.5365005
vt 0.5470729 0.5657072
vt 0.5636986 0.5531377
vt 0.5642382 0.5365005
vt 0.5831572 0.4987736
vt 0.5470729 0.5657072
vt 0.6131417 0.4407659
vt 0.5 0.4462309
vt 0.5191671 0.5657072
vt 0.712613 0.2490033
vt 0.6341226 0.09318556
vt 0.5 0.1307564
vt 0.7588377 0.3721217
vt 0.5 0.1307564
vt 0.5 0.215121
vt 0.6133578 0.132579
vt 0.5995187 0.1925906
vt 0.5801288 0.2274184
vt 0.5 0.215121
vt 0.5 0.2886724
vt 0.5801289 0.2725816
vt 0.5801288 0.2274184
vt 0.5801289 0.2725816
vt 0.5 0.2886724
vt 0.5 0.4462309
vt 0.6131417 0.4407659
vt 0.5941818 0.2978234
vt 0.5 0.9514741
vt 0.5013019 0.9992759
vt 0.588972 0.996008
vt 0.6198182 0.9272103
vt 0.5013019 0.9992759
vt 0.5054556 1.0481
vt 0.5871821 1
vt 0.588972 0.996008
vn 0.5316518 -0.7433899 0.4058543
vn 0.5316518 -0.7433899 0.4058543
vn 0.5316518 -0.7433899 0.4058543
vn -0.7427031 0.5388279 0.3975632
vn -0.7427031 0.5388279 0.3975632
vn -0.7427031 0.5388279 0.3975632
vn -0.3288752 -0.5204542 0.7880156
vn -0.3288752 -0.5204542 0.7880156
vn -0.3288752 -0.5204542 0.7880156
vn 0.6701668 -0.4803088 0.5658444
vn 0.6701668 -0.4803088 0.5658444
vn 0.6701668 -0.4803088 0.5658444
vn -0.1860113 0.170869 0.9675761
vn -0.1860113 0.170869 0.9675761
vn -0.1860113 0.170869 0.9675761
vn 0.06371261 0.6273876 0.7760962
vn 0.06371261 0.6273876 0.7760962
vn 0.06371261 0.6273876 0.7760962
vn -0.108912 0.2725216 0.9559655
vn -0.108912 0.2725216 0.9559655
vn -0.108912 0.2725216 0.9559655
vn -0.4003352 -0.4673555 0.7882326
vn -0.4003352 -0.4673555 0.7882326
vn -0.4003352 -0.4673555 0.7882326
vn 0.5576536 -0.04261908 0.828979
vn 0.5576536 -0.04261908 0.828979
vn 0.5576536 -0.04261908 0.828979
vn 0.05446658 -0.04532441 0.9974864
vn 0.05446658 -0.04532441 0.9974864
vn 0.05446658 -0.04532441 0.9974864
vn -0.4835532 -0.5290785 0.6973179
vn -0.4835532 -0.5290785 0.6973179
vn -0.4835532 -0.5290785 0.6973179
vn 0.6893252 0.6998594 0.1871569
vn 0.6893252 0.6998594 0.1871569
vn 0.6893252 0.6998594 0.1871569
vn -0.9727519 0.1483528 0.1781712
vn -0.9727519 0.1483528 0.1781712
vn -0.9727519 0.1483528 0.1781712
vn 0.9926847 -0.0289192 0.1172204
vn 0.9926847 -0.0289192 0.1172204
vn 0.9926847 -0.0289192 0.1172204
vn 0.9926847 -0.0289192 0.1172204
vn 0.9900467 -0.006802612 0.1405751
vn 0.9900467 -0.006802612 0.1405751
vn 0.9900467 -0.006802612 0.1405751
vn 0.9900467 -0.006802612 0.1405751
vn 0.853285 -0.3997511 0.3348191
vn 0.853285 -0.3997511 0.3348191
vn 0.853285 -0.3997511 0.3348191
vn 0.853285 -0.3997511 0.3348191
vn -0.7468068 0.5100331 0.4267856
vn -0.7468068 0.5100331 0.4267856
vn -0.7468068 0.5100331 0.4267856
vn -0.7468068 0.5100331 0.4267856
vn 0.9727359 -0.01023068 0.2316899
vn 0.9727359 -0.01023068 0.2316899
vn 0.9727359 -0.01023068 0.2316899
vn 0.9727359 -0.01023068 0.2316899
vn 0.9727359 -0.01023068 0.2316899
vn -0.1981038 0.8656465 0.4597945
vn -0.1981038 0.8656465 0.4597945
vn -0.1981038 0.8656465 0.4597945
vn -0.1981038 0.8656465 0.4597945
vn -0.6518239 0.6205089 0.4359982
vn -0.6518239 0.6205089 0.4359982
vn -0.6518239 0.6205089 0.4359982
vn -0.6518239 0.6205089 0.4359982
vn -0.6518239 0.6205089 0.4359982
vn -0.6518239 0.6205089 0.4359982
vn 0.02185243 -0.9882556 0.1512391
vn 0.02185243 -0.9882556 0.1512391
vn 0.02185243 -0.9882556 0.1512391
vn 0.02185243 -0.9882556 0.1512391
vn 0.02185243 -0.9882556 0.1512391
vn 0.02185243 -0.9882556 0.1512391
vn -0.5723926 -0.7490965 0.3334982
vn -0.5723926 -0.7490965 0.3334982
vn -0.5723926 -0.7490965 0.3334982
vn -0.5723926 -0.7490965 0.3334982
vn -0.5723926 -0.7490965 0.3334982
vn 0.8748043 0.3077995 0.374135
vn 0.8748043 0.3077995 0.374135
vn 0.8748043 0.3077995 0.374135
vn 0.8748043 0.3077995 0.374135
vn 0.877058 -0.4698265 0.1001611
vn 0.877058 -0.4698265 0.1001611
vn 0.877058 -0.4698265 0.1001611
vn 0.877058 -0.4698265 0.1001611
vn 0.7947423 -0.5926835 0.1308091
vn 0.7947423 -0.5926835 0.1308091
vn 0.7947423 -0.5926835 0.1308091
vn 0.7947423 -0.5926835 0.1308091
vn 0.9673085 0.023659 0.2524965
vn 0.9673085 0.023659 0.2524965
vn 0.9673085 0.023659 0.2524965
vn 0.9673085 0.023659 0.2524965
vn -0.6360203 0.6671074 -0.3878734
vn -0.6360203 0.6671074 -0.3878734
vn -0.6360203 0.6671074 -0.3878734
vn -0.6360203 0.6671074 -0.3878734
vn 0.7366693 0.6608269 0.1436183
vn 0.7366693 0.6608269 0.1436183
vn 0.7366693 0.6608269 0.1436183
vn 0.7366693 0.6608269 0.1436183
vn -0.9727519 0.1483528 0.1781712
vn -0.9727519 0.1483528 0.1781712
vn -0.9727519 0.1483528 0.1781712
vn -0.9727519 0.1483528 0.1781712
vn -0.9727519 0.1483528 0.1781712
vn -0.9727519 0.1483528 0.1781712
vn -0.9727519 0.1483528 0.1781712
vn -0.9727519 0.1483528 0.1781712
vn -0.9727519 0.1483528 0.1781712
vn -0.6433823 0.7597443 0.09406295
vn -0.6433823 0.7597443 0.09406295
vn -0.6433823 0.7597443 0.09406295
vn -0.6433823 0.7597443 0.09406295
vn 0.006649629 0.99443 0.1051894
vn 0.006649629 0.99443 0.1051894
vn 0.006649629 0.99443 0.1051894
vn 0.006649629 0.99443 0.1051894
vn 0.006649629 0.99443 0.1051894
vn -0.4680052 -0.8655207 0.1784521
vn -0.4680052 -0.8655207 0.1784521
vn -0.4680052 -0.8655207 0.1784521
vn -0.4680052 -0.8655207 0.1784521
vn -0.9241669 -0.3613622 0.1238264
vn -0.9241669 -0.3613622 0.1238264
vn -0.9241669 -0.3613622 0.1238264
vn -0.9241669 -0.3613622 0.1238264
g Rock A Alternate_0
f 3/3/3 2/2/2 1/1/1
f 6/6/6 5/5/5 4/4/4
f 9/9/9 8/8/8 7/7/7
f 12/12/12 11/11/11 10/10/10
f 15/15/15 14/14/14 13/13/13
f 18/18/18 17/17/17 16/16/16
f 21/21/21 20/20/20 19/19/19
f 24/24/24 23/23/23 22/22/22
f 27/27/27 26/26/26 25/25/25
f 30/30/30 29/29/29 28/28/28
f 33/33/33 32/32/32 31/31/31
f 36/36/36 35/35/35 34/34/34
f 39/39/39 38/38/38 37/37/37
f 42/42/42 41/41/41 40/40/40
f 43/43/43 42/42/42 40/40/40
f 46/46/46 45/45/45 44/44/44
f 47/47/47 46/46/46 44/44/44
f 50/50/50 49/49/49 48/48/48
f 48/48/48 51/51/51 50/50/50
f 54/54/54 53/53/53 52/52/52
f 55/55/55 54/54/54 52/52/52
f 58/58/58 57/57/57 56/56/56
f 56/56/56 59/59/59 58/58/58
f 56/56/56 60/60/60 59/59/59
f 63/63/63 62/62/62 61/61/61
f 64/64/64 63/63/63 61/61/61
f 67/67/67 66/66/66 65/65/65
f 65/65/65 68/68/68 67/67/67
f 68/68/68 69/69/69 67/67/67
f 68/68/68 70/70/70 69/69/69
f 73/73/73 72/72/72 71/71/71
f 71/71/71 74/74/74 73/73/73
f 71/71/71 75/75/75 74/74/74
f 75/75/75 76/76/76 74/74/74
f 79/79/79 78/78/78 77/77/77
f 77/77/77 80/80/80 79/79/79
f 77/77/77 81/81/81 80/80/80
f 84/84/84 83/83/83 82/82/82
f 82/82/82 85/85/85 84/84/84
f 88/88/88 87/87/87 86/86/86
f 89/89/89 88/88/88 86/86/86
f 92/92/92 91/91/91 90/90/90
f 93/93/93 92/92/92 90/90/90
f 96/96/96 95/95/95 94/94/94
f 97/97/97 96/96/96 94/94/94
f 100/100/100 99/99/99 98/98/98
f 101/101/101 100/100/100 98/98/98
f 104/104/104 103/103/103 102/102/102
f 105/105/105 104/104/104 102/102/102
f 108/108/108 107/107/107 106/106/106
f 106/106/106 109/109/109 108/108/108
f 112/112/112 111/111/111 110/110/110
f 112/112/112 113/113/113 111/111/111
f 113/113/113 114/114/114 111/111/111
f 117/117/117 116/116/116 115/115/115
f 118/118/118 117/117/117 115/115/115
f 121/121/121 120/120/120 119/119/119
f 119/119/119 122/122/122 121/121/121
f 119/119/119 123/123/123 122/122/122
f 126/126/126 125/125/125 124/124/124
f 127/127/127 126/126/126 124/124/124
f 130/130/130 129/129/129 128/128/128
f 131/131/131 130/130/130 128/128/128
