g Rock A
v 1.231025 -3.78875 7.628542
v 0.5337231 -1.642648 13.83487
v 3.065167 -2.226962 10.8058
v -3.222904 -2.341555 8.789846
v -1.397319 -1.015204 13.83487
v -1.170798 -3.603298 11.08036
v -3.222904 2.341553 10.09018
v -1.397319 1.015202 13.83487
v -3.788737 -6.750523E-07 10.52659
v 1.231025 3.788748 11.81808
v 0.5337231 1.642646 13.83487
v -1.170798 3.603297 9.73667
v 3.983736 -6.750523E-07 7.944318
v 1.727197 -9.536743E-07 13.01688
v 3.065167 2.226961 10.23614
v 1.727197 -9.536743E-07 13.01688
v 3.814697E-06 -9.536743E-07 14.00762
v 0.5337231 1.642646 13.83487
v 1.727197 -9.536743E-07 13.01688
v 0.5337231 1.642646 13.83487
v 3.065167 2.226961 10.23614
v 3.065167 2.226961 10.23614
v 0.5337231 1.642646 13.83487
v 1.231025 3.788748 11.81808
v 0.5337231 1.642646 13.83487
v 3.814697E-06 -9.536743E-07 14.00762
v -1.397319 1.015202 13.83487
v 0.5337231 1.642646 13.83487
v -1.397319 1.015202 13.83487
v -1.170798 3.603297 9.73667
v -1.170798 3.603297 9.73667
v -1.397319 1.015202 13.83487
v -3.222904 2.341553 10.09018
v -1.397319 1.015202 13.83487
v 3.814697E-06 -9.536743E-07 14.00762
v -1.397319 -1.015204 13.83487
v -1.397319 1.015202 13.83487
v -1.397319 -1.015204 13.83487
v -3.788737 -6.750523E-07 10.52659
v -3.788737 -6.750523E-07 10.52659
v -1.397319 -1.015204 13.83487
v -3.222904 -2.341555 8.789846
v -1.397319 -1.015204 13.83487
v 3.814697E-06 -9.536743E-07 14.00762
v 0.5337231 -1.642648 13.83487
v -1.397319 -1.015204 13.83487
v 0.5337231 -1.642648 13.83487
v -1.170798 -3.603298 11.08036
v -1.170798 -3.603298 11.08036
v 0.5337231 -1.642648 13.83487
v 1.231025 -3.78875 7.628542
v 0.5337231 -1.642648 13.83487
v 3.814697E-06 -9.536743E-07 14.00762
v 1.727197 -9.536743E-07 13.01688
v 0.5337231 -1.642648 13.83487
v 1.727197 -9.536743E-07 13.01688
v 3.065167 -2.226962 10.8058
v 3.065167 -2.226962 10.8058
v 1.727197 -9.536743E-07 13.01688
v 3.983736 -6.750523E-07 7.944318
v 4.852275 1.576573 -9.536743E-07
v 3.983736 -6.750523E-07 7.944318
v 3.065167 2.226961 10.23614
v 4.852275 1.576573 -9.536743E-07
v 3.065167 2.226961 10.23614
v 2.99887 4.127581 -9.536743E-07
v 2.99887 4.127581 -9.536743E-07
v 3.065167 2.226961 10.23614
v 1.231025 3.788748 11.81808
v 3.814697E-06 5.101972 -9.536743E-07
v 1.231025 3.788748 11.81808
v -1.170798 3.603297 9.73667
v 3.814697E-06 5.101972 -9.536743E-07
v -1.170798 3.603297 9.73667
v -2.998862 4.127581 -9.536743E-07
v -2.998862 4.127581 -9.536743E-07
v -1.170798 3.603297 9.73667
v -3.222904 2.341553 10.09018
v -4.852267 1.576573 -9.536743E-07
v -3.222904 2.341553 10.09018
v -3.788737 -6.750523E-07 10.52659
v -4.852267 1.576573 -9.536743E-07
v -3.788737 -6.750523E-07 10.52659
v -4.852267 -1.576574 -9.536743E-07
v -4.852267 -1.576574 -9.536743E-07
v -3.788737 -6.750523E-07 10.52659
v -3.222904 -2.341555 8.789846
v -2.998862 -4.127582 -9.536743E-07
v -3.222904 -2.341555 8.789846
v -1.170798 -3.603298 11.08036
v -2.998862 -4.127582 -9.536743E-07
v -1.170798 -3.603298 11.08036
v 3.814697E-06 -5.101973 -9.536743E-07
v 3.814697E-06 -5.101973 -9.536743E-07
v -1.170798 -3.603298 11.08036
v 1.231025 -3.78875 7.628542
v 2.99887 -4.127582 -9.536743E-07
v 1.231025 -3.78875 7.628542
v 3.065167 -2.226962 10.8058
v 2.99887 -4.127582 -9.536743E-07
v 3.065167 -2.226962 10.8058
v 4.852275 -1.576574 -9.536743E-07
v 4.852275 -1.576574 -9.536743E-07
v 3.065167 -2.226962 10.8058
v 3.983736 -6.750523E-07 7.944318
v 2.99887 4.127581 -9.536743E-07
v 1.231025 3.788748 11.81808
v 3.814697E-06 5.101972 -9.536743E-07
v -2.998862 4.127581 -9.536743E-07
v -3.222904 2.341553 10.09018
v -4.852267 1.576573 -9.536743E-07
v -4.852267 -1.576574 -9.536743E-07
v -3.222904 -2.341555 8.789846
v -2.998862 -4.127582 -9.536743E-07
v 3.814697E-06 -5.101973 -9.536743E-07
v 1.231025 -3.78875 7.628542
v 2.99887 -4.127582 -9.536743E-07
v 4.852275 -1.576574 -9.536743E-07
v 3.983736 -6.750523E-07 7.944318
v 4.852275 1.576573 -9.536743E-07
vt 0.181819 0.314921
vt 0.2272735 0.3936515
vt 0.272728 0.314921
vt 0 0.314921
vt 0.045455 0.3936515
vt 0.0909095 0.314921
vt 0.727273 0.314921
vt 0.7727275 0.3936515
vt 0.818182 0.314921
vt 0.545455 0.314921
vt 0.5909095 0.3936515
vt 0.636364 0.314921
vt 0.363637 0.314921
vt 0.4090915 0.3936515
vt 0.454546 0.314921
vt 0.4090915 0.3936515
vt 0.454546 0.472382
vt 0.5000005 0.3936515
vt 0.4090915 0.3936515
vt 0.5000005 0.3936515
vt 0.454546 0.314921
vt 0.454546 0.314921
vt 0.5000005 0.3936515
vt 0.545455 0.314921
vt 0.5909095 0.3936515
vt 0.636364 0.472382
vt 0.6818185 0.3936515
vt 0.5909095 0.3936515
vt 0.6818185 0.3936515
vt 0.636364 0.314921
vt 0.636364 0.314921
vt 0.6818185 0.3936515
vt 0.727273 0.314921
vt 0.7727275 0.3936515
vt 0.818182 0.472382
vt 0.8636365 0.3936515
vt 0.7727275 0.3936515
vt 0.8636365 0.3936515
vt 0.818182 0.314921
vt 0.818182 0.314921
vt 0.8636365 0.3936515
vt 0.909091 0.314921
vt 0.045455 0.3936515
vt 0.09091 0.472382
vt 0.1363645 0.3936515
vt 0.045455 0.3936515
vt 0.1363645 0.3936515
vt 0.0909095 0.314921
vt 0.0909095 0.314921
vt 0.1363645 0.3936515
vt 0.181819 0.314921
vt 0.2272735 0.3936515
vt 0.272728 0.472382
vt 0.3181825 0.3936515
vt 0.2272735 0.3936515
vt 0.3181825 0.3936515
vt 0.272728 0.314921
vt 0.272728 0.314921
vt 0.3181825 0.3936515
vt 0.363637 0.314921
vt 0.4090915 0.236191
vt 0.363637 0.314921
vt 0.454546 0.314921
vt 0.4090915 0.236191
vt 0.454546 0.314921
vt 0.5000005 0.236191
vt 0.5000005 0.236191
vt 0.454546 0.314921
vt 0.545455 0.314921
vt 0.5909095 0.236191
vt 0.545455 0.314921
vt 0.636364 0.314921
vt 0.5909095 0.236191
vt 0.636364 0.314921
vt 0.6818185 0.236191
vt 0.6818185 0.236191
vt 0.636364 0.314921
vt 0.727273 0.314921
vt 0.7727275 0.236191
vt 0.727273 0.314921
vt 0.818182 0.314921
vt 0.7727275 0.236191
vt 0.818182 0.314921
vt 0.8636365 0.236191
vt 0.8636365 0.236191
vt 0.818182 0.314921
vt 0.909091 0.314921
vt 0.045455 0.236191
vt 0 0.314921
vt 0.0909095 0.314921
vt 0.045455 0.236191
vt 0.0909095 0.314921
vt 0.1363645 0.236191
vt 0.1363645 0.236191
vt 0.0909095 0.314921
vt 0.181819 0.314921
vt 0.2272735 0.236191
vt 0.181819 0.314921
vt 0.272728 0.314921
vt 0.2272735 0.236191
vt 0.272728 0.314921
vt 0.3181825 0.236191
vt 0.3181825 0.236191
vt 0.272728 0.314921
vt 0.363637 0.314921
vt 0.5000005 0.236191
vt 0.545455 0.314921
vt 0.5909095 0.236191
vt 0.6818185 0.236191
vt 0.727273 0.314921
vt 0.7727275 0.236191
vt 0.8636365 0.236191
vt 0.909091 0.314921
vt 0.9545455 0.236191
vt 0.1363645 0.236191
vt 0.181819 0.314921
vt 0.2272735 0.236191
vt 0.3181825 0.236191
vt 0.363637 0.314921
vt 0.4090915 0.236191
vn 0.1944707 -0.9200943 0.3400113
vn 0.1944707 -0.9200943 0.3400113
vn 0.1944707 -0.9200943 0.3400113
vn -0.7633168 -0.5009524 0.4079145
vn -0.7633168 -0.5009524 0.4079145
vn -0.7633168 -0.5009524 0.4079145
vn -0.8156108 0.2903653 0.5004669
vn -0.8156108 0.2903653 0.5004669
vn -0.8156108 0.2903653 0.5004669
vn -0.5151119 0.6698729 0.5347242
vn -0.5151119 0.6698729 0.5347242
vn -0.5151119 0.6698729 0.5347242
vn 0.9128908 -0.04138339 0.4061008
vn 0.9128908 -0.04138339 0.4061008
vn 0.9128908 -0.04138339 0.4061008
vn 0.4963371 -0.07026611 0.8652816
vn 0.4963371 -0.07026611 0.8652816
vn 0.4963371 -0.07026611 0.8652816
vn 0.7672545 0.2671 0.5830764
vn 0.7672545 0.2671 0.5830764
vn 0.7672545 0.2671 0.5830764
vn 0.7566002 0.3001064 0.5809409
vn 0.7566002 0.3001064 0.5809409
vn 0.7566002 0.3001064 0.5809409
vn -0.03791757 0.1166941 0.9924439
vn -0.03791757 0.1166941 0.9924439
vn -0.03791757 0.1166941 0.9924439
vn -0.2669041 0.8214309 0.5039975
vn -0.2669041 0.8214309 0.5039975
vn -0.2669041 0.8214309 0.5039975
vn -0.4008054 0.7844662 0.4732524
vn -0.4008054 0.7844662 0.4732524
vn -0.4008054 0.7844662 0.4732524
vn -0.1226995 0 0.9924439
vn -0.1226995 0 0.9924439
vn -0.1226995 0 0.9924439
vn -0.8104347 0 0.5858289
vn -0.8104347 0 0.5858289
vn -0.8104347 0 0.5858289
vn -0.7713625 -0.4887256 0.4076117
vn -0.7713625 -0.4887256 0.4076117
vn -0.7713625 -0.4887256 0.4076117
vn -0.03791823 -0.116694 0.9924439
vn -0.03791823 -0.116694 0.9924439
vn -0.03791823 -0.116694 0.9924439
vn -0.2333486 -0.7181627 0.6555844
vn -0.2333486 -0.7181627 0.6555844
vn -0.2333486 -0.7181627 0.6555844
vn 0.4212315 -0.8414933 0.338309
vn 0.4212315 -0.8414933 0.338309
vn 0.4212315 -0.8414933 0.338309
vn 0.4963372 0.07026611 0.8652816
vn 0.4963372 0.07026611 0.8652816
vn 0.4963372 0.07026611 0.8652816
vn 0.7307035 -0.2069294 0.6505787
vn 0.7307035 -0.2069294 0.6505787
vn 0.7307035 -0.2069294 0.6505787
vn 0.9041672 0.1438767 0.4022202
vn 0.9041672 0.1438767 0.4022202
vn 0.9041672 0.1438767 0.4022202
vn 0.9590363 0.2388869 0.1522577
vn 0.9590363 0.2388869 0.1522577
vn 0.9590363 0.2388869 0.1522577
vn 0.804687 0.5846362 0.1033419
vn 0.804687 0.5846362 0.1033419
vn 0.804687 0.5846362 0.1033419
vn 0.70364 0.69942 0.1253091
vn 0.70364 0.69942 0.1253091
vn 0.70364 0.69942 0.1253091
vn -0.1858163 0.9742621 0.1276153
vn -0.1858163 0.9742621 0.1276153
vn -0.1858163 0.9742621 0.1276153
vn -0.3071901 0.9454331 0.1085832
vn -0.3071901 0.9454331 0.1085832
vn -0.3071901 0.9454331 0.1085832
vn -0.5009879 0.8540477 0.1400481
vn -0.5009879 0.8540477 0.1400481
vn -0.5009879 0.8540477 0.1400481
vn -0.9570674 0.2564541 0.1351044
vn -0.9570674 0.2564541 0.1351044
vn -0.9570674 0.2564541 0.1351044
vn -0.994935 0 0.1005211
vn -0.994935 0 0.1005211
vn -0.994935 0 0.1005211
vn -0.9322324 -0.3320125 0.1439117
vn -0.9322324 -0.3320125 0.1439117
vn -0.9322324 -0.3320125 0.1439117
vn -0.6271119 -0.7662954 0.1397209
vn -0.6271119 -0.7662954 0.1397209
vn -0.6271119 -0.7662954 0.1397209
vn -0.3076035 -0.9467055 0.095544
vn -0.3076035 -0.9467055 0.095544
vn -0.3076035 -0.9467055 0.095544
vn 0.135367 -0.9798549 0.1468338
vn 0.135367 -0.9798549 0.1468338
vn 0.135367 -0.9798549 0.1468338
vn 0.4783069 -0.8654118 0.1492817
vn 0.4783069 -0.8654118 0.1492817
vn 0.4783069 -0.8654118 0.1492817
vn 0.8051285 -0.5849568 0.0979476
vn 0.8051285 -0.5849568 0.0979476
vn 0.8051285 -0.5849568 0.0979476
vn 0.9666553 -0.2095043 0.1472596
vn 0.9666553 -0.2095043 0.1472596
vn 0.9666553 -0.2095043 0.1472596
vn 0.3081861 0.9484984 0.07329513
vn 0.3081861 0.9484984 0.07329513
vn 0.3081861 0.9484984 0.07329513
vn -0.806038 0.5856175 0.08576084
vn -0.806038 0.5856175 0.08576084
vn -0.806038 0.5856175 0.08576084
vn -0.8050976 -0.5849344 0.09833305
vn -0.8050976 -0.5849344 0.09833305
vn -0.8050976 -0.5849344 0.09833305
vn 0.3070336 -0.9449515 0.1131235
vn 0.3070336 -0.9449515 0.1131235
vn 0.3070336 -0.9449515 0.1131235
vn 0.9940767 0 0.1086808
vn 0.9940767 0 0.1086808
vn 0.9940767 0 0.1086808
g Rock A_0
f 3/3/3 2/2/2 1/1/1
f 6/6/6 5/5/5 4/4/4
f 9/9/9 8/8/8 7/7/7
f 12/12/12 11/11/11 10/10/10
f 15/15/15 14/14/14 13/13/13
f 18/18/18 17/17/17 16/16/16
f 21/21/21 20/20/20 19/19/19
f 24/24/24 23/23/23 22/22/22
f 27/27/27 26/26/26 25/25/25
f 30/30/30 29/29/29 28/28/28
f 33/33/33 32/32/32 31/31/31
f 36/36/36 35/35/35 34/34/34
f 39/39/39 38/38/38 37/37/37
f 42/42/42 41/41/41 40/40/40
f 45/45/45 44/44/44 43/43/43
f 48/48/48 47/47/47 46/46/46
f 51/51/51 50/50/50 49/49/49
f 54/54/54 53/53/53 52/52/52
f 57/57/57 56/56/56 55/55/55
f 60/60/60 59/59/59 58/58/58
f 63/63/63 62/62/62 61/61/61
f 66/66/66 65/65/65 64/64/64
f 69/69/69 68/68/68 67/67/67
f 72/72/72 71/71/71 70/70/70
f 75/75/75 74/74/74 73/73/73
f 78/78/78 77/77/77 76/76/76
f 81/81/81 80/80/80 79/79/79
f 84/84/84 83/83/83 82/82/82
f 87/87/87 86/86/86 85/85/85
f 90/90/90 89/89/89 88/88/88
f 93/93/93 92/92/92 91/91/91
f 96/96/96 95/95/95 94/94/94
f 99/99/99 98/98/98 97/97/97
f 102/102/102 101/101/101 100/100/100
f 105/105/105 104/104/104 103/103/103
f 108/108/108 107/107/107 106/106/106
f 111/111/111 110/110/110 109/109/109
f 114/114/114 113/113/113 112/112/112
f 117/117/117 116/116/116 115/115/115
f 120/120/120 119/119/119 118/118/118
