g Ruin Wall.005
v -0.8729957 3.651063 1.149895
v 4.130438 3.651063 8.519942
v 2.719172 3.651063 9.140716
v -2.046022 3.651063 2.150416
v -19.2942 3.840205 -22.97853
v -19.2942 3.227831 -22.97853
v -18.99284 3.227831 -23.33939
v -18.99284 3.840205 -23.33939
v -0.5141684 3.651063 0.8438376
v -0.5141685 4.263437 0.8438377
v -10.88244 4.263438 -16.70735
v -10.88244 3.651064 -16.70736
v -10.87815 1.016723E-06 -16.71281
v -0.5088915 1.391801E-07 0.8393368
v -10.88244 4.263438 -16.70735
v -18.99284 3.840205 -23.33939
v -18.99284 3.227831 -23.33939
v -10.88244 3.651064 -16.70736
v -18.9884 -0.4232317 -23.34469
v -10.87815 1.016723E-06 -16.71281
v -0.872995 4.167434E-08 1.149895
v 4.568491 -2.748901E-07 8.327255
v -0.5088915 1.391801E-07 0.8393368
v 4.130438 -3.644938E-07 8.519941
v -2.046021 -2.724585E-07 2.150415
v 2.719173 -6.531685E-07 9.140716
v -0.8729957 3.651063 1.149895
v -2.046022 3.651063 2.150416
v -12.12619 3.651064 -15.12407
v -11.17378 3.651064 -16.33648
v -20.27937 -0.4232321 -21.79887
v -19.2942 3.227831 -22.97853
v -20.27937 3.227831 -21.79887
v -19.2942 -0.4232318 -22.97853
v -18.99284 3.227831 -23.33939
v -18.9884 -0.4232317 -23.34469
v -11.17378 3.651064 -16.33648
v -19.2942 3.227831 -22.97853
v -19.2942 3.840205 -22.97853
v -11.17378 4.263438 -16.33648
v -12.12619 6.022341E-07 -15.12407
v -20.27937 -0.4232321 -21.79887
v -20.27937 3.227831 -21.79887
v -12.12619 3.651064 -15.12407
v -10.87815 1.016723E-06 -16.71281
v -18.9884 -0.4232317 -23.34469
v -19.2942 -0.4232318 -22.97853
v -11.17378 9.185421E-07 -16.33648
v -20.27937 -0.4232321 -21.79887
v -12.12619 6.022341E-07 -15.12407
v -10.87815 1.016723E-06 -16.71281
v -0.872995 4.167434E-08 1.149895
v -0.5088915 1.391801E-07 0.8393368
v -11.17378 9.185421E-07 -16.33648
v -2.046021 -2.724585E-07 2.150415
v -12.12619 6.022341E-07 -15.12407
v -2.046021 -2.724585E-07 2.150415
v -12.12619 6.022341E-07 -15.12407
v -12.12619 3.651064 -15.12407
v -2.046022 3.651063 2.150416
v -12.12619 3.651064 -15.12407
v -20.27937 3.227831 -21.79887
v -19.2942 3.227831 -22.97853
v -11.17378 3.651064 -16.33648
v -0.8729957 4.263437 1.149896
v 4.130438 4.263436 8.519942
v 4.130438 3.651063 8.519942
v -0.8729957 3.651063 1.149895
v -11.17378 3.651064 -16.33648
v -11.17378 4.263438 -16.33648
v -0.8729957 4.263437 1.149896
v -0.8729957 3.651063 1.149895
v -11.17378 4.263438 -16.33648
v -19.2942 3.840205 -22.97853
v -18.99284 3.840205 -23.33939
v -10.88244 4.263438 -16.70735
v -0.5141685 4.263437 0.8438377
v -0.8729957 4.263437 1.149896
v -11.17378 4.263438 -16.33648
v -10.88244 4.263438 -16.70735
v 4.130438 -3.644938E-07 8.519941
v 2.719173 -6.531685E-07 9.140716
v 2.719172 3.651063 9.140716
v 4.130438 3.651063 8.519942
v 4.568491 -2.748901E-07 8.327255
v 4.562142 3.651063 8.330048
v 4.562142 4.263436 8.330048
v 4.130438 3.651063 8.519942
v 4.130438 4.263436 8.519942
v -0.5088915 1.391801E-07 0.8393368
v 4.568491 -2.748901E-07 8.327255
v 4.562142 3.651063 8.330048
v -0.5141684 3.651063 0.8438376
v 4.562142 4.263436 8.330048
v -0.5141685 4.263437 0.8438377
v -0.5141685 4.263437 0.8438377
v 4.562142 4.263436 8.330048
v 4.130438 4.263436 8.519942
v -0.8729957 4.263437 1.149896
v -2.046022 3.651063 2.150416
v 2.719172 3.651063 9.140716
v 2.719173 -6.531685E-07 9.140716
v -2.046021 -2.724585E-07 2.150415
vt 0.7506061 0.5729628
vt 0.7506061 0.5729628
vt 0.687803 0.812803
vt 0.687803 0.812803
vt 0.6250001 0.1604339
vt 0.6271392 0.1618747
vt 0.625 0.25
vt 0.625 0.2416859
vt 0.625 0.3743939
vt 0.7031475 0.4525415
vt 0.625 0.25
vt 0.625 0.25
vt 0.375 0.25
vt 0.312197 0.437197
vt 0.625 0.25
vt 0.625 0.2416859
vt 0.625 0.25
vt 0.625 0.25
vt 0.375 0.25
vt 0.375 0.25
vt 0.249394 0.5729628
vt 0.312197 0.437197
vt 0.312197 0.437197
vt 0.249394 0.5729628
vt 0.312197 0.812803
vt 0.312197 0.812803
vt 0.7506061 0.5729628
vt 0.687803 0.812803
vt 0.875 0.75
vt 0.875 0.5729628
vt 0.3782088 -0.01170819
vt 0.6271392 0.1618747
vt 0.6282088 -0.01170819
vt 0.3782088 0.1626789
vt 0.625 0.25
vt 0.375 0.25
vt 0.875 0.5729628
vt 0.8749999 0.5729628
vt 0.875 0.5729628
vt 0.875 0.5729628
vt 0.375 1
vt 0.375 1
vt 0.625 1
vt 0.625 1
vt 0.125 0.5
vt 0.125 0.5
vt 0.125 0.5729628
vt 0.125 0.5729628
vt 0.125 0.75
vt 0.125 0.75
vt 0.125 0.5
vt 0.249394 0.5729628
vt 0.312197 0.437197
vt 0.125 0.5729628
vt 0.312197 0.812803
vt 0.125 0.75
vt 0.312197 0.812803
vt 0.375 1
vt 0.625 1
vt 0.687803 0.812803
vt 0.875 0.75
vt 0.875 0.75
vt 0.8749999 0.5729628
vt 0.875 0.5729628
vt 0.7506059 0.5729628
vt 0.7506059 0.5729628
vt 0.7506061 0.5729628
vt 0.7506061 0.5729628
vt 0.875 0.5729628
vt 0.875 0.5729628
vt 0.7506059 0.5729628
vt 0.7506061 0.5729628
vt 0.875 0.5729628
vt 0.875 0.5729628
vt 0.875 0.5
vt 0.875 0.5
vt 0.7031475 0.4525415
vt 0.7506059 0.5729628
vt 0.875 0.5729628
vt 0.875 0.5
vt 0.249394 0.5729628
vt 0.312197 0.812803
vt 0.687803 0.812803
vt 0.7506061 0.5729628
vt 0.312197 0.437197
vt 0.625 0.3743939
vt 0.7031475 0.4525415
vt 0.7506061 0.5729628
vt 0.7506059 0.5729628
vt 0.312197 0.437197
vt 0.312197 0.437197
vt 0.625 0.3743939
vt 0.625 0.3743939
vt 0.7031475 0.4525415
vt 0.7031475 0.4525415
vt 0.7031475 0.4525415
vt 0.7031475 0.4525415
vt 0.7506059 0.5729628
vt 0.7506059 0.5729628
vt 0.687803 0.812803
vt 0.687803 0.812803
vt 0.312197 0.812803
vt 0.312197 0.812803
vn -1.468447E-07 1 0
vn -1.468447E-07 1 0
vn -1.468447E-07 1 0
vn -1.468447E-07 1 0
vn -0.7675447 0 -0.6409953
vn -0.7675421 -1.247193E-07 -0.6409985
vn -0.7675426 -1.871916E-07 -0.6409979
vn -0.7675447 0 -0.6409953
vn 0.860986 0.0009105272 -0.508628
vn 0.8609884 5.006727E-07 -0.5086244
vn 0.8609884 5.006727E-07 -0.5086244
vn 0.8609859 0.0009108215 -0.508628
vn 0.8609827 0.001820742 -0.5086311
vn 0.8609827 0.001820742 -0.5086311
vn 0.6330234 9.741746E-07 -0.7741326
vn 0.6330234 9.741746E-07 -0.7741326
vn 0.6329922 0.0009729652 -0.7741576
vn 0.6329938 0.0009242437 -0.7741563
vn 0.632962 0.001896252 -0.7741806
vn 0.632962 0.001896252 -0.7741806
vn 1.39355E-07 -1 -1.496789E-07
vn 1.393216E-07 -1 -1.497321E-07
vn 1.393216E-07 -1 -1.497321E-07
vn 1.393534E-07 -1 -1.496815E-07
vn 1.393935E-07 -1 -1.496177E-07
vn 1.393935E-07 -1 -1.496177E-07
vn -1.442578E-07 1 1.050563E-07
vn -1.442578E-07 1 1.050563E-07
vn -1.442578E-07 1 1.050563E-07
vn -1.442578E-07 1 1.050563E-07
vn -0.7675412 0 -0.6409996
vn -0.7675421 -1.247193E-07 -0.6409985
vn -0.7675412 0 -0.6409996
vn -0.7675408 -1.870789E-07 -0.641
vn -0.7675426 -1.871916E-07 -0.6409979
vn -0.7675404 -3.741579E-07 -0.6410006
vn -0.6331275 -9.728652E-07 0.7740476
vn -0.6331275 -9.728652E-07 0.7740476
vn -0.6331275 -9.728652E-07 0.7740476
vn -0.6331275 -9.728652E-07 0.7740476
vn -0.6334665 0 0.7737701
vn -0.6334665 0 0.7737701
vn -0.6334665 0 0.7737701
vn -0.6334665 0 0.7737701
vn 0.03134557 -0.9991861 0.02538969
vn 0.03134557 -0.9991861 0.02538969
vn 0.03130024 -0.9991885 0.02535303
vn 0.03129997 -0.9991885 0.02535281
vn 0.03125549 -0.9991907 0.02531684
vn 0.03125549 -0.9991907 0.02531684
vn 1.514582E-07 -1 -1.394196E-07
vn 1.5154E-07 -1 -1.39341E-07
vn 1.514582E-07 -1 -1.394196E-07
vn 1.515144E-07 -1 -1.393657E-07
vn 1.516055E-07 -1 -1.392781E-07
vn 1.516055E-07 -1 -1.392781E-07
vn -0.8637052 -3.423584E-07 0.5039975
vn -0.8637052 -3.423584E-07 0.5039975
vn -0.8637052 -3.423584E-07 0.5039975
vn -0.8637052 -3.423584E-07 0.5039975
vn -0.03125554 0.9991907 -0.02531683
vn -0.03125554 0.9991907 -0.02531683
vn -0.03125554 0.9991907 -0.02531683
vn -0.03125554 0.9991907 -0.02531683
vn -0.827354 -2.86434E-07 0.5616809
vn -0.827354 -2.86434E-07 0.5616809
vn -0.827354 -2.86434E-07 0.5616809
vn -0.827354 -2.86434E-07 0.5616809
vn -0.8616179 -1.005792E-06 0.5075576
vn -0.8616179 -1.005792E-06 0.5075576
vn -0.8616179 -1.005792E-06 0.5075576
vn -0.8616179 -1.005792E-06 0.5075576
vn -0.0313453 0.9991861 -0.02538921
vn -0.0313453 0.9991861 -0.02538921
vn -0.0313453 0.9991861 -0.02538921
vn -0.0313453 0.9991861 -0.02538921
vn 0 1 -3.399337E-07
vn 0 1 -3.399337E-07
vn 0 1 -3.399337E-07
vn 0 1 -3.399337E-07
vn 0.4026384 -1.222652E-07 0.9153591
vn 0.4026391 -1.215296E-07 0.9153588
vn 0.4026391 -1.215296E-07 0.9153588
vn 0.4026386 0 0.915359
vn 0.4026378 -1.230009E-07 0.9153594
vn 0.4026383 0 0.9153591
vn 0.402639 0 0.9153588
vn 0.4026386 0 0.915359
vn 0.402639 0 0.9153588
vn 0.8276623 0.001878195 -0.5612231
vn 0.8276623 0.001878195 -0.5612231
vn 0.8276623 0.0009392003 -0.5612255
vn 0.8276623 0.0009391604 -0.5612255
vn 0.8276616 0 -0.5612274
vn 0.8276616 0 -0.5612274
vn 0 1 -5.132616E-07
vn 0 1 -5.132616E-07
vn 0 1 -5.132616E-07
vn 0 1 -5.132616E-07
vn -0.8262779 -2.244594E-07 0.5632626
vn -0.8262779 -2.244594E-07 0.5632626
vn -0.8262779 -2.244594E-07 0.5632626
vn -0.8262779 -2.244594E-07 0.5632626
g Ruin Wall.005_0
f 3/3/3 2/2/2 1/1/1
f 4/4/4 3/3/3 1/1/1
f 7/7/7 6/6/6 5/5/5
f 8/8/8 7/7/7 5/5/5
f 11/11/11 10/10/10 9/9/9
f 12/12/12 11/11/11 9/9/9
f 12/12/12 9/9/9 13/13/13
f 9/9/9 14/14/14 13/13/13
f 17/17/17 16/16/16 15/15/15
f 18/18/18 17/17/17 15/15/15
f 19/19/19 17/17/17 18/18/18
f 20/20/20 19/19/19 18/18/18
f 23/23/23 22/22/22 21/21/21
f 22/22/22 24/24/24 21/21/21
f 21/21/21 24/24/24 25/25/25
f 24/24/24 26/26/26 25/25/25
f 29/29/29 28/28/28 27/27/27
f 30/30/30 29/29/29 27/27/27
f 33/33/33 32/32/32 31/31/31
f 32/32/32 34/34/34 31/31/31
f 32/32/32 35/35/35 34/34/34
f 35/35/35 36/36/36 34/34/34
f 39/39/39 38/38/38 37/37/37
f 40/40/40 39/39/39 37/37/37
f 43/43/43 42/42/42 41/41/41
f 44/44/44 43/43/43 41/41/41
f 47/47/47 46/46/46 45/45/45
f 48/48/48 47/47/47 45/45/45
f 49/49/49 47/47/47 48/48/48
f 50/50/50 49/49/49 48/48/48
f 53/53/53 52/52/52 51/51/51
f 52/52/52 54/54/54 51/51/51
f 52/52/52 55/55/55 54/54/54
f 55/55/55 56/56/56 54/54/54
f 59/59/59 58/58/58 57/57/57
f 60/60/60 59/59/59 57/57/57
f 63/63/63 62/62/62 61/61/61
f 64/64/64 63/63/63 61/61/61
f 67/67/67 66/66/66 65/65/65
f 68/68/68 67/67/67 65/65/65
f 71/71/71 70/70/70 69/69/69
f 72/72/72 71/71/71 69/69/69
f 75/75/75 74/74/74 73/73/73
f 76/76/76 75/75/75 73/73/73
f 79/79/79 78/78/78 77/77/77
f 80/80/80 79/79/79 77/77/77
f 83/83/83 82/82/82 81/81/81
f 84/84/84 83/83/83 81/81/81
f 84/84/84 81/81/81 85/85/85
f 86/86/86 84/84/84 85/85/85
f 88/88/88 86/86/86 87/87/87
f 89/89/89 88/88/88 87/87/87
f 92/92/92 91/91/91 90/90/90
f 93/93/93 92/92/92 90/90/90
f 94/94/94 92/92/92 93/93/93
f 95/95/95 94/94/94 93/93/93
f 98/98/98 97/97/97 96/96/96
f 99/99/99 98/98/98 96/96/96
f 102/102/102 101/101/101 100/100/100
f 103/103/103 102/102/102 100/100/100
