g Ruin Wall.006
v 9.02005 3.651063 5.736989
v 9.02005 4.263437 5.736989
v 9.321072 4.263437 5.373928
v 2.396124 3.651063 1.33099
v 9.02005 3.651063 5.736989
v 8.035993 3.651063 6.923859
v 1.716012 3.651063 2.714637
v -10.9691 3.840203 -4.962461
v -10.9691 3.22783 -4.962461
v -10.78696 3.22783 -5.395888
v -10.78696 3.840203 -5.395888
v 2.604169 3.651064 0.9077343
v 2.604169 4.263437 0.9077345
v -5.193949 4.263437 -2.589556
v -5.193949 3.651063 -2.589556
v -5.189664 -4.91408E-08 -2.595011
v 2.607229 2.196783E-07 0.90151
v -5.193949 4.263437 -2.589556
v -10.78696 3.840203 -5.395888
v -10.78696 3.22783 -5.395888
v -5.193949 3.651063 -2.589556
v -10.78428 -0.4232329 -5.402259
v -5.189664 -4.91408E-08 -2.595011
v 2.396124 1.249555E-07 1.33099
v 9.325499 7.181443E-08 5.368588
v 2.607229 2.196783E-07 0.90151
v 9.02005 -2.650027E-08 5.736989
v 1.716012 -1.802114E-07 2.714637
v 8.035993 -3.432393E-07 6.923859
v 2.396124 3.651063 1.33099
v 1.716012 3.651063 2.714637
v -6.437703 3.651063 -1.006271
v -5.485291 3.651063 -2.218681
v -11.56456 -0.4232332 -3.54557
v -10.9691 3.22783 -4.962461
v -11.56456 3.22783 -3.54557
v -10.9691 -0.423233 -4.962461
v -10.78696 3.22783 -5.395888
v -10.78428 -0.4232329 -5.402259
v -5.485291 3.651063 -2.218681
v -10.9691 3.22783 -4.962461
v -10.9691 3.840203 -4.962461
v -5.485291 4.263437 -2.218681
v -5.485291 4.263437 -2.218681
v 2.396124 4.263437 1.33099
v 2.396124 3.651063 1.33099
v -6.437703 -4.636298E-07 -1.006271
v -11.56456 -0.4232332 -3.54557
v -11.56456 3.22783 -3.54557
v -6.437703 3.651063 -1.006271
v -5.189664 -4.91408E-08 -2.595011
v -10.78428 -0.4232329 -5.402259
v -10.9691 -0.423233 -4.962461
v -5.48529 -1.473218E-07 -2.218682
v -11.56456 -0.4232332 -3.54557
v -6.437703 -4.636298E-07 -1.006271
v -5.189664 -4.91408E-08 -2.595011
v 2.396124 1.249555E-07 1.33099
v 2.607229 2.196783E-07 0.90151
v -5.48529 -1.473218E-07 -2.218682
v 1.716012 -1.802114E-07 2.714637
v -6.437703 -4.636298E-07 -1.006271
v 1.716012 -1.802114E-07 2.714637
v -6.437703 -4.636298E-07 -1.006271
v -6.437703 3.651063 -1.006271
v 1.716012 3.651063 2.714637
v -6.437703 3.651063 -1.006271
v -11.56456 3.22783 -3.54557
v -10.9691 3.22783 -4.962461
v -5.485291 3.651063 -2.218681
v 2.396124 4.263437 1.33099
v 9.02005 4.263437 5.736989
v 9.02005 3.651063 5.736989
v 2.396124 3.651063 1.33099
v -5.485291 4.263437 -2.218681
v -10.9691 3.840203 -4.962461
v -10.78696 3.840203 -5.395888
v -5.193949 4.263437 -2.589556
v 2.604169 4.263437 0.9077345
v 2.396124 4.263437 1.33099
v -5.485291 4.263437 -2.218681
v -5.193949 4.263437 -2.589556
v 2.607229 2.196783E-07 0.90151
v 9.325499 7.181443E-08 5.368588
v 9.321072 3.651063 5.373928
v 2.604169 3.651064 0.9077343
v 9.321072 4.263437 5.373928
v 2.604169 4.263437 0.9077345
v 2.604169 4.263437 0.9077345
v 9.321072 4.263437 5.373928
v 9.02005 4.263437 5.736989
v 2.396124 4.263437 1.33099
v 1.716012 3.651063 2.714637
v 8.035993 3.651063 6.923859
v 8.035993 -3.432393E-07 6.923859
v 1.716012 -1.802114E-07 2.714637
v 9.02005 -2.650027E-08 5.736989
v 8.035993 -3.432393E-07 6.923859
v 8.035993 3.651063 6.923859
v 9.325499 7.181443E-08 5.368588
v 9.321072 3.651063 5.373928
v 9.02005 3.651063 5.736989
v 9.321072 4.263437 5.373928
vt 0.7506061 0.5729628
vt 0.7506059 0.5729628
vt 0.7031475 0.4525415
vt 0.7506061 0.5729628
vt 0.7506061 0.5729628
vt 0.687803 0.812803
vt 0.687803 0.812803
vt 0.6250001 0.1604339
vt 0.6271392 0.1618747
vt 0.625 0.25
vt 0.625 0.2416859
vt 0.625 0.3743939
vt 0.7031475 0.4525415
vt 0.625 0.25
vt 0.625 0.25
vt 0.375 0.25
vt 0.312197 0.437197
vt 0.625 0.25
vt 0.625 0.2416859
vt 0.625 0.25
vt 0.625 0.25
vt 0.375 0.25
vt 0.375 0.25
vt 0.249394 0.5729628
vt 0.312197 0.437197
vt 0.312197 0.437197
vt 0.249394 0.5729628
vt 0.312197 0.812803
vt 0.312197 0.812803
vt 0.7506061 0.5729628
vt 0.687803 0.812803
vt 0.875 0.75
vt 0.875 0.5729628
vt 0.3782088 -0.01170819
vt 0.6271392 0.1618747
vt 0.6282088 -0.01170819
vt 0.3782088 0.1626789
vt 0.625 0.25
vt 0.375 0.25
vt 0.875 0.5729628
vt 0.8749999 0.5729628
vt 0.875 0.5729628
vt 0.875 0.5729628
vt 0.875 0.5729628
vt 0.7506059 0.5729628
vt 0.7506061 0.5729628
vt 0.375 1
vt 0.375 1
vt 0.625 1
vt 0.625 1
vt 0.125 0.5
vt 0.125 0.5
vt 0.125 0.5729628
vt 0.125 0.5729628
vt 0.125 0.75
vt 0.125 0.75
vt 0.125 0.5
vt 0.249394 0.5729628
vt 0.312197 0.437197
vt 0.125 0.5729628
vt 0.312197 0.812803
vt 0.125 0.75
vt 0.312197 0.812803
vt 0.375 1
vt 0.625 1
vt 0.687803 0.812803
vt 0.875 0.75
vt 0.875 0.75
vt 0.8749999 0.5729628
vt 0.875 0.5729628
vt 0.7506059 0.5729628
vt 0.7506059 0.5729628
vt 0.7506061 0.5729628
vt 0.7506061 0.5729628
vt 0.875 0.5729628
vt 0.875 0.5729628
vt 0.875 0.5
vt 0.875 0.5
vt 0.7031475 0.4525415
vt 0.7506059 0.5729628
vt 0.875 0.5729628
vt 0.875 0.5
vt 0.312197 0.437197
vt 0.312197 0.437197
vt 0.625 0.3743939
vt 0.625 0.3743939
vt 0.7031475 0.4525415
vt 0.7031475 0.4525415
vt 0.7031475 0.4525415
vt 0.7031475 0.4525415
vt 0.7506059 0.5729628
vt 0.7506059 0.5729628
vt 0.687803 0.812803
vt 0.687803 0.812803
vt 0.312197 0.812803
vt 0.312197 0.812803
vt 0.249394 0.5729628
vt 0.312197 0.812803
vt 0.687803 0.812803
vt 0.312197 0.437197
vt 0.625 0.3743939
vt 0.7506061 0.5729628
vt 0.7031475 0.4525415
vn 0.769814 -1.020913E-07 0.6382684
vn 0.769814 -1.020913E-07 0.6382684
vn 0.769814 -1.020913E-07 0.6382684
vn -1.104462E-07 1 0
vn -1.104462E-07 1 0
vn -1.104462E-07 1 0
vn -1.104462E-07 1 0
vn -0.9218998 1.356788E-06 -0.3874285
vn -0.9218983 3.303891E-07 -0.387432
vn -0.9218986 3.954328E-07 -0.3874313
vn -0.9218998 1.356788E-06 -0.3874285
vn 0.4092045 0.0009355085 -0.9124421
vn 0.4092101 0 -0.9124402
vn 0.4092101 0 -0.9124402
vn 0.4092045 0.0009353518 -0.9124421
vn 0.4091986 0.001870902 -0.9124435
vn 0.4091986 0.001870902 -0.9124435
vn 0.4484698 0 -0.893798
vn 0.4484698 0 -0.893798
vn 0.4484141 0.0009780343 -0.8938254
vn 0.4484187 0.0008974895 -0.8938233
vn 0.4483626 0.001875369 -0.8938497
vn 0.4483626 0.001875369 -0.8938497
vn 0 -1 -1.796412E-07
vn 0 -1 -1.792751E-07
vn 0 -1 -1.792751E-07
vn 0 -1 -1.796475E-07
vn 0 -1 -1.800734E-07
vn 0 -1 -1.800734E-07
vn 0 1 0
vn 0 1 0
vn 0 1 0
vn 0 1 0
vn -0.9218978 1.991455E-07 -0.3874332
vn -0.9218983 3.303891E-07 -0.387432
vn -0.9218978 1.991455E-07 -0.3874332
vn -0.9218976 -1.828096E-07 -0.3874337
vn -0.9218986 3.954328E-07 -0.3874313
vn -0.9218975 -5.647647E-07 -0.3874341
vn -0.4474581 9.507278E-07 0.8943049
vn -0.4474581 9.507278E-07 0.8943049
vn -0.4474581 9.507278E-07 0.8943049
vn -0.4474581 9.507278E-07 0.8943049
vn -0.4106564 1.475924E-07 0.9117901
vn -0.4106564 1.475924E-07 0.9117901
vn -0.4106564 1.475924E-07 0.9117901
vn -0.4438363 -1.883055E-07 0.8961079
vn -0.4438363 -1.883055E-07 0.8961079
vn -0.4438363 -1.883055E-07 0.8961079
vn -0.4438363 -1.883055E-07 0.8961079
vn 0.05886459 -0.9976643 0.03465347
vn 0.05886459 -0.9976643 0.03465347
vn 0.06014367 -0.9975616 0.03540642
vn 0.06002847 -0.9975709 0.0353386
vn 0.06153466 -0.9974474 0.03622524
vn 0.06153466 -0.9974474 0.03622524
vn 1.107894E-07 -1 -1.697221E-07
vn 1.111017E-07 -1 -1.695258E-07
vn 1.107894E-07 -1 -1.697221E-07
vn 1.111578E-07 -1 -1.694905E-07
vn 1.114276E-07 -1 -1.693208E-07
vn 1.114276E-07 -1 -1.693208E-07
vn -0.4151593 -2.005653E-07 0.9097487
vn -0.4151593 -2.005653E-07 0.9097487
vn -0.4151593 -2.005653E-07 0.9097487
vn -0.4151593 -2.005653E-07 0.9097487
vn -0.06153469 0.9974474 -0.03622507
vn -0.06153469 0.9974474 -0.03622507
vn -0.06153469 0.9974474 -0.03622507
vn -0.06153469 0.9974474 -0.03622507
vn -0.5538341 0 0.8326271
vn -0.5538341 0 0.8326271
vn -0.5538341 0 0.8326271
vn -0.5538341 0 0.8326271
vn -0.05887356 0.9976636 -0.03465882
vn -0.05887356 0.9976636 -0.03465882
vn -0.05887356 0.9976636 -0.03465882
vn -0.05887356 0.9976636 -0.03465882
vn -1.194817E-07 1 0
vn -1.194817E-07 1 0
vn -1.194817E-07 1 0
vn -1.194817E-07 1 0
vn 0.55369 0.001886327 -0.8327208
vn 0.55369 0.001886327 -0.8327208
vn 0.5536913 0.0009432237 -0.8327215
vn 0.5536913 0.0009432377 -0.8327215
vn 0.5536922 0 -0.8327215
vn 0.5536922 0 -0.8327215
vn -1.324533E-07 1 0
vn -1.324533E-07 1 0
vn -1.324533E-07 1 0
vn -1.324533E-07 1 0
vn -0.5543265 -1.769147E-07 0.8322993
vn -0.5543265 -1.769147E-07 0.8322993
vn -0.5543265 -1.769147E-07 0.8322993
vn -0.5543265 -1.769147E-07 0.8322993
vn 0.769814 -1.020913E-07 0.6382684
vn 0.769814 -1.020913E-07 0.6382684
vn 0.769814 -1.020913E-07 0.6382684
vn 0.769814 -1.020913E-07 0.6382684
vn 0.769814 -1.020913E-07 0.6382684
vn 0.769814 -1.020913E-07 0.6382684
vn 0.769814 -1.020913E-07 0.6382684
g Ruin Wall.006_0
f 3/3/3 2/2/2 1/1/1
f 6/6/6 5/5/5 4/4/4
f 7/7/7 6/6/6 4/4/4
f 10/10/10 9/9/9 8/8/8
f 11/11/11 10/10/10 8/8/8
f 14/14/14 13/13/13 12/12/12
f 15/15/15 14/14/14 12/12/12
f 15/15/15 12/12/12 16/16/16
f 12/12/12 17/17/17 16/16/16
f 20/20/20 19/19/19 18/18/18
f 21/21/21 20/20/20 18/18/18
f 22/22/22 20/20/20 21/21/21
f 23/23/23 22/22/22 21/21/21
f 26/26/26 25/25/25 24/24/24
f 25/25/25 27/27/27 24/24/24
f 24/24/24 27/27/27 28/28/28
f 27/27/27 29/29/29 28/28/28
f 32/32/32 31/31/31 30/30/30
f 33/33/33 32/32/32 30/30/30
f 36/36/36 35/35/35 34/34/34
f 35/35/35 37/37/37 34/34/34
f 35/35/35 38/38/38 37/37/37
f 38/38/38 39/39/39 37/37/37
f 42/42/42 41/41/41 40/40/40
f 43/43/43 42/42/42 40/40/40
f 45/45/45 44/44/44 40/40/40
f 46/46/46 45/45/45 40/40/40
f 49/49/49 48/48/48 47/47/47
f 50/50/50 49/49/49 47/47/47
f 53/53/53 52/52/52 51/51/51
f 54/54/54 53/53/53 51/51/51
f 55/55/55 53/53/53 54/54/54
f 56/56/56 55/55/55 54/54/54
f 59/59/59 58/58/58 57/57/57
f 58/58/58 60/60/60 57/57/57
f 58/58/58 61/61/61 60/60/60
f 61/61/61 62/62/62 60/60/60
f 65/65/65 64/64/64 63/63/63
f 66/66/66 65/65/65 63/63/63
f 69/69/69 68/68/68 67/67/67
f 70/70/70 69/69/69 67/67/67
f 73/73/73 72/72/72 71/71/71
f 74/74/74 73/73/73 71/71/71
f 77/77/77 76/76/76 75/75/75
f 78/78/78 77/77/77 75/75/75
f 81/81/81 80/80/80 79/79/79
f 82/82/82 81/81/81 79/79/79
f 85/85/85 84/84/84 83/83/83
f 86/86/86 85/85/85 83/83/83
f 87/87/87 85/85/85 86/86/86
f 88/88/88 87/87/87 86/86/86
f 91/91/91 90/90/90 89/89/89
f 92/92/92 91/91/91 89/89/89
f 95/95/95 94/94/94 93/93/93
f 96/96/96 95/95/95 93/93/93
f 99/99/99 98/98/98 97/97/97
f 97/97/97 100/100/100 99/99/99
f 100/100/100 101/101/101 99/99/99
f 101/101/101 102/102/102 99/99/99
f 101/101/101 103/103/103 102/102/102
