g Ruin Wall.007
v 10.55703 3.651064 1.988625
v 10.55703 4.263437 1.988626
v 10.73238 4.263437 1.550813
v 4.470379 3.651064 0.7833636
v 10.55703 3.651064 1.988625
v 9.983797 3.651064 3.41986
v 4.152886 3.651063 2.292081
v -8.498574 3.840203 -1.409078
v -8.498574 3.22783 -1.409078
v -8.388416 3.22783 -1.866136
v -8.388416 3.840203 -1.866136
v 4.5675 3.651064 0.321849
v 4.5675 4.263437 0.3218491
v -1.932596 4.263437 -0.7352108
v -1.932597 3.651063 -0.7352111
v -1.930625 -3.08793E-08 -0.7418611
v 4.568929 4.098599E-07 0.315062
v -1.932596 4.263437 -0.7352108
v -8.388416 3.840203 -1.866136
v -8.388416 3.22783 -1.866136
v -1.932597 3.651063 -0.7352111
v -8.386792 -0.423233 -1.872855
v -1.930625 -3.08793E-08 -0.7418611
v 4.47038 3.246356E-07 0.7833629
v 10.73496 5.301342E-07 1.544375
v 4.568929 4.098599E-07 0.315062
v 10.55703 4.377015E-07 1.988625
v 4.152886 5.006994E-08 2.29208
v 9.983797 1.399116E-07 3.419859
v 4.470379 3.651064 0.7833636
v 4.152886 3.651063 2.292081
v -2.504727 3.651062 1.195174
v -2.066614 3.651063 -0.2830307
v -8.858695 -0.4232334 0.08506432
v -8.498574 3.22783 -1.409078
v -8.858694 3.22783 0.08506489
v -8.498574 -0.4232331 -1.409079
v -8.388416 3.22783 -1.866136
v -8.386792 -0.423233 -1.872855
v -2.066614 3.651063 -0.2830307
v -8.498574 3.22783 -1.409078
v -8.498574 3.840203 -1.409078
v -2.066615 4.263437 -0.2830306
v -2.066615 4.263437 -0.2830306
v 4.470379 4.263437 0.7833637
v 4.470379 3.651064 0.7833636
v -2.504727 -4.062328E-07 1.195173
v -8.858695 -0.4232334 0.08506432
v -8.858694 3.22783 0.08506489
v -2.504727 3.651062 1.195174
v -1.930625 -3.08793E-08 -0.7418611
v -8.386792 -0.423233 -1.872855
v -8.498574 -0.4232331 -1.409079
v -2.066614 -1.197902E-07 -0.2830314
v -8.858695 -0.4232334 0.08506432
v -2.504727 -4.062328E-07 1.195173
v -1.930625 -3.08793E-08 -0.7418611
v 4.47038 3.246356E-07 0.7833629
v 4.568929 4.098599E-07 0.315062
v -2.066614 -1.197902E-07 -0.2830314
v 4.152886 5.006994E-08 2.29208
v -2.504727 -4.062328E-07 1.195173
v 4.152886 5.006994E-08 2.29208
v -2.504727 -4.062328E-07 1.195173
v -2.504727 3.651062 1.195174
v 4.152886 3.651063 2.292081
v -2.504727 3.651062 1.195174
v -8.858694 3.22783 0.08506489
v -8.498574 3.22783 -1.409078
v -2.066614 3.651063 -0.2830307
v 4.470379 4.263437 0.7833637
v 10.55703 4.263437 1.988626
v 10.55703 3.651064 1.988625
v 4.470379 3.651064 0.7833636
v -2.066615 4.263437 -0.2830306
v -8.498574 3.840203 -1.409078
v -8.388416 3.840203 -1.866136
v -1.932596 4.263437 -0.7352108
v 4.5675 4.263437 0.3218491
v 4.470379 4.263437 0.7833637
v -2.066615 4.263437 -0.2830306
v -1.932596 4.263437 -0.7352108
v 4.568929 4.098599E-07 0.315062
v 10.73496 5.301342E-07 1.544375
v 10.73238 3.651064 1.550813
v 4.5675 3.651064 0.321849
v 10.73238 4.263437 1.550813
v 4.5675 4.263437 0.3218491
v 4.5675 4.263437 0.3218491
v 10.73238 4.263437 1.550813
v 10.55703 4.263437 1.988626
v 4.470379 4.263437 0.7833637
v 4.152886 3.651063 2.292081
v 9.983797 3.651064 3.41986
v 9.983797 1.399116E-07 3.419859
v 4.152886 5.006994E-08 2.29208
v 10.55703 4.377015E-07 1.988625
v 9.983797 1.399116E-07 3.419859
v 9.983797 3.651064 3.41986
v 10.73496 5.301342E-07 1.544375
v 10.73238 3.651064 1.550813
v 10.55703 3.651064 1.988625
v 10.73238 4.263437 1.550813
vt 0.7506061 0.5729628
vt 0.7506059 0.5729628
vt 0.7031475 0.4525415
vt 0.7506061 0.5729628
vt 0.7506061 0.5729628
vt 0.687803 0.812803
vt 0.687803 0.812803
vt 0.6250001 0.1604339
vt 0.6271392 0.1618747
vt 0.625 0.25
vt 0.625 0.2416859
vt 0.625 0.3743939
vt 0.7031475 0.4525415
vt 0.625 0.25
vt 0.625 0.25
vt 0.375 0.25
vt 0.312197 0.437197
vt 0.625 0.25
vt 0.625 0.2416859
vt 0.625 0.25
vt 0.625 0.25
vt 0.375 0.25
vt 0.375 0.25
vt 0.249394 0.5729628
vt 0.312197 0.437197
vt 0.312197 0.437197
vt 0.249394 0.5729628
vt 0.312197 0.812803
vt 0.312197 0.812803
vt 0.7506061 0.5729628
vt 0.687803 0.812803
vt 0.875 0.75
vt 0.875 0.5729628
vt 0.3782088 -0.01170819
vt 0.6271392 0.1618747
vt 0.6282088 -0.01170819
vt 0.3782088 0.1626789
vt 0.625 0.25
vt 0.375 0.25
vt 0.875 0.5729628
vt 0.8749999 0.5729628
vt 0.875 0.5729628
vt 0.875 0.5729628
vt 0.875 0.5729628
vt 0.7506059 0.5729628
vt 0.7506061 0.5729628
vt 0.375 1
vt 0.375 1
vt 0.625 1
vt 0.625 1
vt 0.125 0.5
vt 0.125 0.5
vt 0.125 0.5729628
vt 0.125 0.5729628
vt 0.125 0.75
vt 0.125 0.75
vt 0.125 0.5
vt 0.249394 0.5729628
vt 0.312197 0.437197
vt 0.125 0.5729628
vt 0.312197 0.812803
vt 0.125 0.75
vt 0.312197 0.812803
vt 0.375 1
vt 0.625 1
vt 0.687803 0.812803
vt 0.875 0.75
vt 0.875 0.75
vt 0.8749999 0.5729628
vt 0.875 0.5729628
vt 0.7506059 0.5729628
vt 0.7506059 0.5729628
vt 0.7506061 0.5729628
vt 0.7506061 0.5729628
vt 0.875 0.5729628
vt 0.875 0.5729628
vt 0.875 0.5
vt 0.875 0.5
vt 0.7031475 0.4525415
vt 0.7506059 0.5729628
vt 0.875 0.5729628
vt 0.875 0.5
vt 0.312197 0.437197
vt 0.312197 0.437197
vt 0.625 0.3743939
vt 0.625 0.3743939
vt 0.7031475 0.4525415
vt 0.7031475 0.4525415
vt 0.7031475 0.4525415
vt 0.7031475 0.4525415
vt 0.7506059 0.5729628
vt 0.7506059 0.5729628
vt 0.687803 0.812803
vt 0.687803 0.812803
vt 0.312197 0.812803
vt 0.312197 0.812803
vt 0.249394 0.5729628
vt 0.312197 0.812803
vt 0.687803 0.812803
vt 0.312197 0.437197
vt 0.625 0.3743939
vt 0.7506061 0.5729628
vt 0.7031475 0.4525415
vn 0.9283107 0 0.3718055
vn 0.9283107 0 0.3718055
vn 0.9283107 0 0.3718055
vn 0 1 1.262961E-07
vn 0 1 1.262961E-07
vn 0 1 1.262961E-07
vn 0 1 1.262961E-07
vn -0.9721629 1.356788E-06 -0.2343058
vn -0.9721621 1.925255E-07 -0.2343093
vn -0.9721624 2.17072E-07 -0.2343082
vn -0.9721629 1.356788E-06 -0.2343058
vn 0.1605117 0.0009456688 -0.9870335
vn 0.1605136 2.421563E-07 -0.9870336
vn 0.1605136 2.421563E-07 -0.9870336
vn 0.1605117 0.0009455701 -0.9870335
vn 0.1605097 0.001891042 -0.9870324
vn 0.1605097 0.001891042 -0.9870324
vn 0.1725516 3.189107E-07 -0.9850005
vn 0.1725516 3.189107E-07 -0.9850005
vn 0.1724893 0.0009830196 -0.9850109
vn 0.1724942 0.0009056162 -0.9850101
vn 0.1724318 0.001888283 -0.9850197
vn 0.1724318 0.001888283 -0.9850197
vn 0 -1 -1.785514E-07
vn 0 -1 -1.781853E-07
vn 0 -1 -1.781853E-07
vn 0 -1 -1.785057E-07
vn 0 -1 -1.789119E-07
vn 0 -1 -1.789119E-07
vn -1.592912E-07 1 1.522687E-07
vn -1.592912E-07 1 1.522687E-07
vn -1.592912E-07 1 1.522687E-07
vn -1.592912E-07 1 1.522687E-07
vn -0.9721615 1.420605E-07 -0.2343116
vn -0.9721621 1.925255E-07 -0.2343093
vn -0.9721615 1.420605E-07 -0.2343116
vn -0.9721617 -3.896059E-07 -0.2343111
vn -0.9721624 2.17072E-07 -0.2343082
vn -0.9721618 -9.212722E-07 -0.2343105
vn -0.172448 0 0.9850187
vn -0.172448 0 0.9850187
vn -0.172448 0 0.9850187
vn -0.172448 0 0.9850187
vn -0.1610039 -2.166929E-07 0.9869538
vn -0.1610039 -2.166929E-07 0.9869538
vn -0.1610039 -2.166929E-07 0.9869538
vn -0.1721042 -1.78481E-07 0.9850787
vn -0.1721042 -1.78481E-07 0.9850787
vn -0.1721042 -1.78481E-07 0.9850787
vn -0.1721042 -1.78481E-07 0.9850787
vn 0.06259596 -0.9978974 0.0168103
vn 0.06259596 -0.9978974 0.0168103
vn 0.06285703 -0.9978797 0.01688034
vn 0.06282865 -0.9978816 0.01687273
vn 0.06309795 -0.9978635 0.01694498
vn 0.06309795 -0.9978635 0.01694498
vn 0 -1 -1.638924E-07
vn 0 -1 -1.638283E-07
vn 0 -1 -1.638924E-07
vn 0 -1 -1.638211E-07
vn 0 -1 -1.637604E-07
vn 0 -1 -1.637604E-07
vn -0.1625681 -2.083862E-07 0.9866973
vn -0.1625681 -2.083862E-07 0.9866973
vn -0.1625681 -2.083862E-07 0.9866973
vn -0.1625681 -2.083862E-07 0.9866973
vn -0.06309795 0.9978635 -0.01694474
vn -0.06309795 0.9978635 -0.01694474
vn -0.06309795 0.9978635 -0.01694474
vn -0.06309795 0.9978635 -0.01694474
vn -0.1942455 -6.932175E-07 0.9809529
vn -0.1942455 -6.932175E-07 0.9809529
vn -0.1942455 -6.932175E-07 0.9809529
vn -0.1942455 -6.932175E-07 0.9809529
vn -0.06259794 0.9978973 -0.01681102
vn -0.06259794 0.9978973 -0.01681102
vn -0.06259794 0.9978973 -0.01681102
vn -0.06259794 0.9978973 -0.01681102
vn 0 1 0
vn 0 1 0
vn 0 1 0
vn 0 1 0
vn 0.1955111 0.001883509 -0.9806997
vn 0.1955111 0.001883509 -0.9806997
vn 0.1955068 0.0009418589 -0.9807019
vn 0.1955068 0.0009417486 -0.9807019
vn 0.1955023 0 -0.9807032
vn 0.1955023 0 -0.9807032
vn 0 1 5.851981E-07
vn 0 1 5.851981E-07
vn 0 1 5.851981E-07
vn 0 1 5.851981E-07
vn -0.1898946 -1.405125E-07 0.9818045
vn -0.1898946 -1.405125E-07 0.9818045
vn -0.1898946 -1.405125E-07 0.9818045
vn -0.1898946 -1.405125E-07 0.9818045
vn 0.9283107 0 0.3718055
vn 0.9283107 0 0.3718055
vn 0.9283107 0 0.3718055
vn 0.9283107 0 0.3718055
vn 0.9283107 0 0.3718055
vn 0.9283107 0 0.3718055
vn 0.9283107 0 0.3718055
g Ruin Wall.007_0
f 3/3/3 2/2/2 1/1/1
f 6/6/6 5/5/5 4/4/4
f 7/7/7 6/6/6 4/4/4
f 10/10/10 9/9/9 8/8/8
f 11/11/11 10/10/10 8/8/8
f 14/14/14 13/13/13 12/12/12
f 15/15/15 14/14/14 12/12/12
f 15/15/15 12/12/12 16/16/16
f 12/12/12 17/17/17 16/16/16
f 20/20/20 19/19/19 18/18/18
f 21/21/21 20/20/20 18/18/18
f 22/22/22 20/20/20 21/21/21
f 23/23/23 22/22/22 21/21/21
f 26/26/26 25/25/25 24/24/24
f 25/25/25 27/27/27 24/24/24
f 24/24/24 27/27/27 28/28/28
f 27/27/27 29/29/29 28/28/28
f 32/32/32 31/31/31 30/30/30
f 33/33/33 32/32/32 30/30/30
f 36/36/36 35/35/35 34/34/34
f 35/35/35 37/37/37 34/34/34
f 35/35/35 38/38/38 37/37/37
f 38/38/38 39/39/39 37/37/37
f 42/42/42 41/41/41 40/40/40
f 43/43/43 42/42/42 40/40/40
f 45/45/45 44/44/44 40/40/40
f 46/46/46 45/45/45 40/40/40
f 49/49/49 48/48/48 47/47/47
f 50/50/50 49/49/49 47/47/47
f 53/53/53 52/52/52 51/51/51
f 54/54/54 53/53/53 51/51/51
f 55/55/55 53/53/53 54/54/54
f 56/56/56 55/55/55 54/54/54
f 59/59/59 58/58/58 57/57/57
f 58/58/58 60/60/60 57/57/57
f 58/58/58 61/61/61 60/60/60
f 61/61/61 62/62/62 60/60/60
f 65/65/65 64/64/64 63/63/63
f 66/66/66 65/65/65 63/63/63
f 69/69/69 68/68/68 67/67/67
f 70/70/70 69/69/69 67/67/67
f 73/73/73 72/72/72 71/71/71
f 74/74/74 73/73/73 71/71/71
f 77/77/77 76/76/76 75/75/75
f 78/78/78 77/77/77 75/75/75
f 81/81/81 80/80/80 79/79/79
f 82/82/82 81/81/81 79/79/79
f 85/85/85 84/84/84 83/83/83
f 86/86/86 85/85/85 83/83/83
f 87/87/87 85/85/85 86/86/86
f 88/88/88 87/87/87 86/86/86
f 91/91/91 90/90/90 89/89/89
f 92/92/92 91/91/91 89/89/89
f 95/95/95 94/94/94 93/93/93
f 96/96/96 95/95/95 93/93/93
f 99/99/99 98/98/98 97/97/97
f 97/97/97 100/100/100 99/99/99
f 100/100/100 101/101/101 99/99/99
f 101/101/101 102/102/102 99/99/99
f 101/101/101 103/103/103 102/102/102
