g Ruin Wall.003
v 0.01580609 3.651063 -0.01828723
v -7.310493 3.651063 2.777274
v -7.763683 3.651063 1.303623
v -1.20834 3.651063 -0.9555687
v 6.988779 3.840204 -12.85739
v 6.988779 3.227831 -12.85739
v 7.41906 3.227831 -12.66793
v 7.41906 3.840204 -12.66793
v 0.3902708 3.651063 0.2684261
v 0.3902708 4.263437 0.268426
v 2.819394 4.263437 -4.030295
v 2.819394 3.651063 -4.030295
v 2.824901 6.389348E-08 -4.026079
v 0.3957773 3.62383E-08 0.2726422
v 2.819394 4.263437 -4.030295
v 7.41906 3.840204 -12.66793
v 7.41906 3.227831 -12.66793
v 2.819394 3.651063 -4.030295
v 7.425387 -0.4232326 -12.66515
v 2.824901 6.389348E-08 -4.026079
v 0.0158063 1.081762E-10 -0.01828706
v -7.169826 1.09163E-07 3.234691
v 0.3957773 3.62383E-08 0.2726422
v -7.310494 7.973645E-08 2.777274
v -1.20834 -1.162916E-07 -0.9555686
v -7.763683 -1.506654E-08 1.303622
v 0.01580609 3.651063 -0.01828723
v -1.20834 3.651063 -0.9555687
v 1.220784 3.651063 -5.25429
v 2.44493 3.651063 -4.317008
v 5.582168 -0.4232327 -13.47675
v 6.988779 3.227831 -12.85739
v 5.582167 3.227831 -13.47675
v 6.988779 -0.4232326 -12.85739
v 7.41906 3.227831 -12.66793
v 7.425387 -0.4232326 -12.66515
v 2.44493 3.651063 -4.317008
v 6.988779 3.227831 -12.85739
v 6.988779 3.840204 -12.85739
v 2.44493 4.263437 -4.317008
v 2.44493 4.263437 -4.317008
v 0.01580605 4.263437 -0.01828726
v 0.01580609 3.651063 -0.01828723
v 1.220784 -8.863643E-08 -5.25429
v 5.582168 -0.4232327 -13.47675
v 5.582167 3.227831 -13.47675
v 1.220784 3.651063 -5.25429
v 2.824901 6.389348E-08 -4.026079
v 7.425387 -0.4232326 -12.66515
v 6.988779 -0.4232326 -12.85739
v 2.44493 2.776336E-08 -4.317008
v 5.582168 -0.4232327 -13.47675
v 1.220784 -8.863643E-08 -5.25429
v 2.824901 6.389348E-08 -4.026079
v 0.0158063 1.081762E-10 -0.01828706
v 0.3957773 3.62383E-08 0.2726422
v 2.44493 2.776336E-08 -4.317008
v -1.20834 -1.162916E-07 -0.9555686
v 1.220784 -8.863643E-08 -5.25429
v -1.20834 -1.162916E-07 -0.9555686
v 1.220784 -8.863643E-08 -5.25429
v 1.220784 3.651063 -5.25429
v -1.20834 3.651063 -0.9555687
v 1.220784 3.651063 -5.25429
v 5.582167 3.227831 -13.47675
v 6.988779 3.227831 -12.85739
v 2.44493 3.651063 -4.317008
v 0.01580605 4.263437 -0.01828726
v -7.310493 4.263437 2.777274
v -7.310493 3.651063 2.777274
v 0.01580609 3.651063 -0.01828723
v 2.44493 4.263437 -4.317008
v 6.988779 3.840204 -12.85739
v 7.41906 3.840204 -12.66793
v 2.819394 4.263437 -4.030295
v 0.3902708 4.263437 0.268426
v 0.01580605 4.263437 -0.01828726
v 2.44493 4.263437 -4.317008
v 2.819394 4.263437 -4.030295
v -7.310494 7.973645E-08 2.777274
v -7.763683 -1.506654E-08 1.303622
v -7.763683 3.651063 1.303623
v -7.310493 3.651063 2.777274
v -7.169826 1.09163E-07 3.234691
v -7.171864 3.651063 3.228062
v -7.171864 4.263437 3.228062
v -7.310493 3.651063 2.777274
v -7.310493 4.263437 2.777274
v 0.3957773 3.62383E-08 0.2726422
v -7.169826 1.09163E-07 3.234691
v -7.171864 3.651063 3.228062
v 0.3902708 3.651063 0.2684261
v -7.171864 4.263437 3.228062
v 0.3902708 4.263437 0.268426
v 0.3902708 4.263437 0.268426
v -7.171864 4.263437 3.228062
v -7.310493 4.263437 2.777274
v 0.01580605 4.263437 -0.01828726
v -1.20834 3.651063 -0.9555687
v -7.763683 3.651063 1.303623
v -7.763683 -1.506654E-08 1.303622
v -1.20834 -1.162916E-07 -0.9555686
vt 0.7506061 0.5729628
vt 0.7506061 0.5729628
vt 0.687803 0.812803
vt 0.687803 0.812803
vt 0.6250001 0.1604339
vt 0.6271392 0.1618747
vt 0.625 0.25
vt 0.625 0.2416859
vt 0.625 0.3743939
vt 0.7031475 0.4525415
vt 0.625 0.25
vt 0.625 0.25
vt 0.375 0.25
vt 0.312197 0.437197
vt 0.625 0.25
vt 0.625 0.2416859
vt 0.625 0.25
vt 0.625 0.25
vt 0.375 0.25
vt 0.375 0.25
vt 0.249394 0.5729628
vt 0.312197 0.437197
vt 0.312197 0.437197
vt 0.249394 0.5729628
vt 0.312197 0.812803
vt 0.312197 0.812803
vt 0.7506061 0.5729628
vt 0.687803 0.812803
vt 0.875 0.75
vt 0.875 0.5729628
vt 0.3782088 -0.01170819
vt 0.6271392 0.1618747
vt 0.6282088 -0.01170819
vt 0.3782088 0.1626789
vt 0.625 0.25
vt 0.375 0.25
vt 0.875 0.5729628
vt 0.8749999 0.5729628
vt 0.875 0.5729628
vt 0.875 0.5729628
vt 0.875 0.5729628
vt 0.7506059 0.5729628
vt 0.7506061 0.5729628
vt 0.375 1
vt 0.375 1
vt 0.625 1
vt 0.625 1
vt 0.125 0.5
vt 0.125 0.5
vt 0.125 0.5729628
vt 0.125 0.5729628
vt 0.125 0.75
vt 0.125 0.75
vt 0.125 0.5
vt 0.249394 0.5729628
vt 0.312197 0.437197
vt 0.125 0.5729628
vt 0.312197 0.812803
vt 0.125 0.75
vt 0.312197 0.812803
vt 0.375 1
vt 0.625 1
vt 0.687803 0.812803
vt 0.875 0.75
vt 0.875 0.75
vt 0.8749999 0.5729628
vt 0.875 0.5729628
vt 0.7506059 0.5729628
vt 0.7506059 0.5729628
vt 0.7506061 0.5729628
vt 0.7506061 0.5729628
vt 0.875 0.5729628
vt 0.875 0.5729628
vt 0.875 0.5
vt 0.875 0.5
vt 0.7031475 0.4525415
vt 0.7506059 0.5729628
vt 0.875 0.5729628
vt 0.875 0.5
vt 0.249394 0.5729628
vt 0.312197 0.812803
vt 0.687803 0.812803
vt 0.7506061 0.5729628
vt 0.312197 0.437197
vt 0.625 0.3743939
vt 0.7031475 0.4525415
vt 0.7506061 0.5729628
vt 0.7506059 0.5729628
vt 0.312197 0.437197
vt 0.312197 0.437197
vt 0.625 0.3743939
vt 0.625 0.3743939
vt 0.7031475 0.4525415
vt 0.7031475 0.4525415
vt 0.7031475 0.4525415
vt 0.7031475 0.4525415
vt 0.7506059 0.5729628
vt 0.7506059 0.5729628
vt 0.687803 0.812803
vt 0.687803 0.812803
vt 0.312197 0.812803
vt 0.312197 0.812803
vn 0 1 -1.676253E-07
vn 0 1 -1.676253E-07
vn 0 1 -1.676253E-07
vn 0 1 -1.676253E-07
vn 0.4029797 0 -0.9152089
vn 0.4029791 0 -0.9152092
vn 0.4029783 0 -0.9152095
vn 0.4029797 0 -0.9152089
vn 0.8706136 0.0009409179 0.4919668
vn 0.8706138 5.167608E-07 0.4919669
vn 0.8706138 5.167608E-07 0.4919669
vn 0.8706136 0.0009407604 0.4919668
vn 0.8706123 0.001881161 0.491966
vn 0.8706123 0.001881161 0.491966
vn 0.882653 0 0.4700253
vn 0.882653 0 0.4700253
vn 0.8826716 0.00096647 0.4699894
vn 0.8826706 0.0009147644 0.4699913
vn 0.8826884 0.001881097 0.4699549
vn 0.8826884 0.001881097 0.4699549
vn 0 -1 0
vn 0 -1 0
vn 0 -1 0
vn 0 -1 0
vn 0 -1 0
vn 0 -1 0
vn 0 1 -2.072547E-07
vn 0 1 -2.072547E-07
vn 0 1 -2.072547E-07
vn 0 1 -2.072547E-07
vn 0.4029805 0 -0.9152086
vn 0.4029791 0 -0.9152092
vn 0.4029805 0 -0.9152086
vn 0.4029787 0 -0.9152094
vn 0.4029783 0 -0.9152095
vn 0.402977 0 -0.9152101
vn -0.8828255 0 -0.469701
vn -0.8828255 0 -0.469701
vn -0.8828255 0 -0.469701
vn -0.8828255 0 -0.469701
vn -0.8706138 -1.291902E-07 -0.4919671
vn -0.8706138 -1.291902E-07 -0.4919671
vn -0.8706138 -1.291902E-07 -0.4919671
vn -0.883418 0 -0.4685857
vn -0.883418 0 -0.4685857
vn -0.883418 0 -0.4685857
vn -0.883418 0 -0.4685857
vn -0.02215044 -0.9990535 0.03743501
vn -0.02215044 -0.9990535 0.03743501
vn -0.02241721 -0.9990306 0.03788589
vn -0.02240113 -0.999032 0.03785871
vn -0.02271039 -0.9990051 0.03838142
vn -0.02271039 -0.9990051 0.03838142
vn 0 -1 0
vn 0 -1 0
vn 0 -1 0
vn 0 -1 0
vn 0 -1 0
vn 0 -1 0
vn -0.8706138 0 -0.491967
vn -0.8706138 0 -0.491967
vn -0.8706138 0 -0.491967
vn -0.8706138 0 -0.491967
vn 0.02271039 0.9990051 -0.03838142
vn 0.02271039 0.9990051 -0.03838142
vn 0.02271039 0.9990051 -0.03838142
vn 0.02271039 0.9990051 -0.03838142
vn -0.3565064 0 -0.9342929
vn -0.3565064 0 -0.9342929
vn -0.3565064 0 -0.9342929
vn -0.3565064 0 -0.9342929
vn 0.02215216 0.9990534 -0.03743834
vn 0.02215216 0.9990534 -0.03743834
vn 0.02215216 0.9990534 -0.03743834
vn 0.02215216 0.9990534 -0.03743834
vn 0 1 0
vn 0 1 0
vn 0 1 0
vn 0 1 0
vn -0.9558232 0 0.2939422
vn -0.9558232 0 0.2939423
vn -0.9558232 0 0.2939423
vn -0.9558232 0 0.2939421
vn -0.9558232 -1.601886E-07 0.293942
vn -0.9558232 0 0.293942
vn -0.9558232 0 0.293942
vn -0.9558232 0 0.2939421
vn -0.9558232 0 0.293942
vn 0.3645128 0.001759543 0.9311967
vn 0.3645128 0.001759543 0.9311967
vn 0.364485 0.0008798903 0.9312088
vn 0.364485 0.0008801259 0.9312088
vn 0.3644568 1.571018E-07 0.9312202
vn 0.3644568 1.571018E-07 0.9312202
vn 0 1 -5.046399E-07
vn 0 1 -5.046399E-07
vn 0 1 -5.046399E-07
vn 0 1 -5.046399E-07
vn -0.3258267 0 -0.9454295
vn -0.3258267 0 -0.9454295
vn -0.3258267 0 -0.9454295
vn -0.3258267 0 -0.9454295
g Ruin Wall.003_0
f 3/3/3 2/2/2 1/1/1
f 4/4/4 3/3/3 1/1/1
f 7/7/7 6/6/6 5/5/5
f 8/8/8 7/7/7 5/5/5
f 11/11/11 10/10/10 9/9/9
f 12/12/12 11/11/11 9/9/9
f 12/12/12 9/9/9 13/13/13
f 9/9/9 14/14/14 13/13/13
f 17/17/17 16/16/16 15/15/15
f 18/18/18 17/17/17 15/15/15
f 19/19/19 17/17/17 18/18/18
f 20/20/20 19/19/19 18/18/18
f 23/23/23 22/22/22 21/21/21
f 22/22/22 24/24/24 21/21/21
f 21/21/21 24/24/24 25/25/25
f 24/24/24 26/26/26 25/25/25
f 29/29/29 28/28/28 27/27/27
f 30/30/30 29/29/29 27/27/27
f 33/33/33 32/32/32 31/31/31
f 32/32/32 34/34/34 31/31/31
f 32/32/32 35/35/35 34/34/34
f 35/35/35 36/36/36 34/34/34
f 39/39/39 38/38/38 37/37/37
f 40/40/40 39/39/39 37/37/37
f 42/42/42 41/41/41 37/37/37
f 43/43/43 42/42/42 37/37/37
f 46/46/46 45/45/45 44/44/44
f 47/47/47 46/46/46 44/44/44
f 50/50/50 49/49/49 48/48/48
f 51/51/51 50/50/50 48/48/48
f 52/52/52 50/50/50 51/51/51
f 53/53/53 52/52/52 51/51/51
f 56/56/56 55/55/55 54/54/54
f 55/55/55 57/57/57 54/54/54
f 55/55/55 58/58/58 57/57/57
f 58/58/58 59/59/59 57/57/57
f 62/62/62 61/61/61 60/60/60
f 63/63/63 62/62/62 60/60/60
f 66/66/66 65/65/65 64/64/64
f 67/67/67 66/66/66 64/64/64
f 70/70/70 69/69/69 68/68/68
f 71/71/71 70/70/70 68/68/68
f 74/74/74 73/73/73 72/72/72
f 75/75/75 74/74/74 72/72/72
f 78/78/78 77/77/77 76/76/76
f 79/79/79 78/78/78 76/76/76
f 82/82/82 81/81/81 80/80/80
f 83/83/83 82/82/82 80/80/80
f 83/83/83 80/80/80 84/84/84
f 85/85/85 83/83/83 84/84/84
f 87/87/87 85/85/85 86/86/86
f 88/88/88 87/87/87 86/86/86
f 91/91/91 90/90/90 89/89/89
f 92/92/92 91/91/91 89/89/89
f 93/93/93 91/91/91 92/92/92
f 94/94/94 93/93/93 92/92/92
f 97/97/97 96/96/96 95/95/95
f 98/98/98 97/97/97 95/95/95
f 101/101/101 100/100/100 99/99/99
f 102/102/102 101/101/101 99/99/99
