g Spider Med Front Legs.001
v 0.4964279 0.03079656 0.3802388
v 0.4981023 0.02926803 0.04926178
v 0.8274249 -0.7512104 0.166296
v 0.8266563 -0.7505087 0.3633292
v 1.246672 -1.645209 -1.074415
v 0.1785059 -0.1498562 0.3802388
v 0.6806871 -0.8334526 0.3633292
v 1.246672 -1.645209 -1.074415
v 0.178962 -0.152077 0.04926178
v 0.6808964 -0.8344721 0.166296
v 1.246672 -1.645209 -1.074415
v 1.246672 -1.645209 -1.074415
v -0.1656783 -0.1676958 0.3802388
v -0.1661724 -0.1699084 0.04926178
v -0.6797308 -0.8435922 0.166296
v -0.6795038 -0.8425762 0.3633292
v -1.2471 -1.651738 -1.074415
v -0.4804554 0.01838312 0.3802388
v -0.8240288 -0.757141 0.3633292
v -1.2471 -1.651738 -1.074415
v -0.4821557 0.01688352 0.04926178
v -0.8248093 -0.7578294 0.166296
v -1.2471 -1.651738 -1.074415
v -1.2471 -1.651738 -1.074415
vt 0.1999999 0.75
vt 0.1999999 0.5
vt 0.1999999 0.5
vt 0.1999999 0.75
vt 0.1999999 0.5
vt 0.09999993 0.7499999
vt 0.09999993 0.7499999
vt 0.1999999 0.75
vt 0.09999993 0.5
vt 0.09999993 0.5
vt 0.09999993 0.5
vt 0.09999993 0.7499999
vt 0.9 0.75
vt 0.9 0.5
vt 0.9 0.5
vt 0.9 0.75
vt 0.9 0.5
vt 0.8 0.75
vt 0.8 0.75
vt 0.9 0.75
vt 0.8 0.5
vt 0.8 0.5
vt 0.8 0.5
vt 0.8 0.75
vn 0.6758662 0.2707521 0.6854913
vn 0.9211585 0.3891789 0.002618228
vn 0.7433596 0.6330421 -0.2160421
vn 0.7181379 -0.06806895 0.6925637
vn 0.2974432 -0.51454 -0.804224
vn -0.5785346 -0.4420434 0.685489
vn -0.3090062 -0.652643 0.6917892
vn 0.2974432 -0.51454 -0.804224
vn -0.8058215 -0.5921528 0.002618525
vn -0.9213641 -0.323602 -0.2153372
vn 0.2974432 -0.51454 -0.804224
vn 0.2974432 -0.51454 -0.804224
vn 0.570869 -0.4518983 0.6854899
vn 0.7955492 -0.6058833 0.002618076
vn 0.9187854 -0.3303918 -0.2160431
vn 0.2978749 -0.6569821 0.6925642
vn -0.2986307 -0.5137268 -0.8043038
vn -0.6711261 0.2823005 0.6854897
vn -0.719905 -0.0562527 0.6917893
vn -0.2986307 -0.5137268 -0.8043038
vn -0.9143506 0.4049149 0.002617809
vn -0.7387491 0.638654 -0.2153389
vn -0.2986307 -0.5137268 -0.8043038
vn -0.2986307 -0.5137268 -0.8043038
g Spider Med Front Legs.001_0
f 3/3/3 2/2/2 1/1/1
f 4/4/4 3/3/3 1/1/1
f 5/5/5 3/3/3 4/4/4
f 4/4/4 1/1/1 6/6/6
f 7/7/7 4/4/4 6/6/6
f 8/8/8 4/4/4 7/7/7
f 7/7/7 6/6/6 9/9/9
f 10/10/10 7/7/7 9/9/9
f 11/11/11 10/10/10 3/3/3
f 12/12/12 7/7/7 10/10/10
f 15/15/15 14/14/14 13/13/13
f 16/16/16 15/15/15 13/13/13
f 17/17/17 15/15/15 16/16/16
f 16/16/16 13/13/13 18/18/18
f 19/19/19 16/16/16 18/18/18
f 20/20/20 16/16/16 19/19/19
f 19/19/19 18/18/18 21/21/21
f 22/22/22 19/19/19 21/21/21
f 23/23/23 22/22/22 15/15/15
f 24/24/24 19/19/19 22/22/22
