g Spider Med Hind Legs.001
v 0.3573181 0.6898794 0.3802388
v 0.3590497 0.6913427 0.04926178
v 1.175476 0.9172904 0.166296
v 1.174681 0.9166182 0.3633292
v 2.121434 1.204626 -1.074415
v 0.495475 0.3513197 0.3802388
v 1.238114 0.7611741 0.3633292
v 2.121434 1.204626 -1.074415
v 0.4977361 0.3514857 0.04926178
v 1.239152 0.7612505 0.166296
v 2.121434 1.204626 -1.074415
v 2.121434 1.204626 -1.074415
v -0.4902539 0.3670328 0.3802388
v -0.492521 0.3670294 0.04926178
v -1.262469 0.720266 0.166296
v -1.261428 0.7202675 0.3633291
v -2.170951 1.110014 -1.057739
v -0.377774 0.7149671 0.3802388
v -1.209785 0.880016 0.3633291
v -2.170951 1.110014 -1.057739
v -0.3796101 0.7162969 0.04926178
v -1.210628 0.8806266 0.166296
v -2.170951 1.110014 -1.057739
v -2.170951 1.110014 -1.057739
vt 0.3999999 0.75
vt 0.3999999 0.5
vt 0.3999999 0.5
vt 0.3999999 0.75
vt 0.3999999 0.5
vt 0.2999999 0.75
vt 0.2999999 0.75
vt 0.3999999 0.75
vt 0.2999999 0.5
vt 0.2999999 0.5
vt 0.2999999 0.5
vt 0.2999999 0.75
vt 0.6999999 0.75
vt 0.6999999 0.5
vt 0.6999999 0.5
vt 0.6999999 0.75
vt 0.6999999 0.5
vt 0.5999999 0.75
vt 0.5999999 0.75
vt 0.6999999 0.75
vt 0.5999999 0.5
vt 0.5999999 0.5
vt 0.5999999 0.5
vt 0.5999999 0.75
vn -0.181353 0.7051341 0.6854904
vn -0.2671655 0.9636471 0.002619118
vn -0.5240235 0.8240324 -0.2153366
vn 0.1606954 0.7039913 0.6917899
vn 0.5517947 0.2205436 -0.8042905
vn 0.3637629 -0.6306978 0.6854901
vn 0.6064864 -0.3905504 0.6925638
vn 0.5517947 0.2205436 -0.8042905
vn 0.4833158 -0.8754422 0.002618053
vn 0.1927906 -0.957161 -0.2160431
vn 0.5517947 0.2205436 -0.8042905
vn 0.5517947 0.2205436 -0.8042905
vn -0.3156362 -0.6561088 0.6854888
vn -0.4165729 -0.9090986 0.002618468
vn -0.1311986 -0.9672365 -0.2173488
vn -0.57486 -0.4359266 0.6924623
vn -0.5686828 0.1883818 -0.8006947
vn 0.1281738 0.7167102 0.6854911
vn -0.2102205 0.689355 0.6932511
vn -0.5686828 0.1883818 -0.8006947
vn 0.1944364 0.9809116 0.002618603
vn 0.4681343 0.8563257 -0.2180749
vn -0.5686828 0.1883818 -0.8006947
vn -0.5686828 0.1883818 -0.8006947
g Spider Med Hind Legs.001_0
f 3/3/3 2/2/2 1/1/1
f 4/4/4 3/3/3 1/1/1
f 5/5/5 3/3/3 4/4/4
f 4/4/4 1/1/1 6/6/6
f 7/7/7 4/4/4 6/6/6
f 8/8/8 4/4/4 7/7/7
f 7/7/7 6/6/6 9/9/9
f 10/10/10 7/7/7 9/9/9
f 11/11/11 10/10/10 3/3/3
f 12/12/12 7/7/7 10/10/10
f 15/15/15 14/14/14 13/13/13
f 16/16/16 15/15/15 13/13/13
f 17/17/17 15/15/15 16/16/16
f 16/16/16 13/13/13 18/18/18
f 19/19/19 16/16/16 18/18/18
f 20/20/20 16/16/16 19/19/19
f 19/19/19 18/18/18 21/21/21
f 22/22/22 19/19/19 21/21/21
f 23/23/23 22/22/22 15/15/15
f 24/24/24 19/19/19 22/22/22
