g Spider Big Hind Legs.001
v 0.7508478 1.200493 0.6475797
v 0.7527883 1.202133 0.2766875
v 2.281807 1.780623 0.32281
v 2.280264 1.779318 0.705286
v 4.118078 2.338392 -2.085628
v 0.9056662 0.8211038 0.6475797
v 2.403398 1.477573 0.705286
v 4.118078 2.338392 -2.085628
v 0.9081999 0.8212897 0.2766875
v 2.405412 1.477722 0.32281
v 4.118078 2.338392 -2.085628
v 4.118078 2.338392 -2.085628
v -0.9060811 0.8554105 0.6475797
v -0.9086216 0.8554066 0.2766875
v -2.450675 1.398163 0.3228099
v -2.448655 1.398166 0.705286
v -4.2142 2.154733 -2.053258
v -0.7800364 1.245305 0.6475797
v -2.348406 1.708266 0.705286
v -4.2142 2.154733 -2.053258
v -0.7820939 1.246795 0.2766875
v -2.350043 1.709452 0.3228099
v -4.2142 2.154733 -2.053258
v -4.2142 2.154733 -2.053258
vt 0.3999999 0.75
vt 0.3999999 0.5
vt 0.3999999 0.5
vt 0.3999999 0.75
vt 0.3999999 0.5
vt 0.2999999 0.75
vt 0.2999999 0.75
vt 0.3999999 0.75
vt 0.2999999 0.5
vt 0.2999999 0.5
vt 0.2999999 0.5
vt 0.2999999 0.75
vt 0.6999999 0.75
vt 0.6999999 0.5
vt 0.6999999 0.5
vt 0.6999999 0.75
vt 0.6999999 0.5
vt 0.5999999 0.75
vt 0.5999999 0.75
vt 0.6999999 0.75
vt 0.5999999 0.5
vt 0.5999999 0.5
vt 0.5999999 0.5
vt 0.5999999 0.75
vn -0.2771243 0.6630326 0.6954062
vn -0.3539697 0.9352547 0.002018798
vn -0.5574064 0.800886 -0.2188143
vn 0.1113445 0.703725 0.7016932
vn 0.5518198 0.2204792 -0.8042908
vn 0.2658788 -0.6676221 0.6954058
vn 0.5709957 -0.4248467 0.7024736
vn 0.5518198 0.2204792 -0.8042908
vn 0.40143 -0.9158875 0.00201725
vn 0.152663 -0.9636088 -0.2194356
vn 0.5518198 0.2204792 -0.8042908
vn 0.5518198 0.2204792 -0.8042908
vn -0.2152667 -0.6856183 0.6954048
vn -0.3318943 -0.9433144 0.00201765
vn -0.09071763 -0.971075 -0.22087
vn -0.5368675 -0.4674749 0.7023108
vn -0.5686839 0.1883424 -0.8007033
vn 0.2268233 0.6818804 0.6954067
vn -0.160943 0.6926327 0.7031054
vn -0.5686839 0.1883424 -0.8007033
vn 0.2831196 0.9590825 0.00201765
vn 0.5030238 0.8354048 -0.2215084
vn -0.5686839 0.1883424 -0.8007033
vn -0.5686839 0.1883424 -0.8007033
g Spider Big Hind Legs.001_0
f 3/3/3 2/2/2 1/1/1
f 4/4/4 3/3/3 1/1/1
f 5/5/5 3/3/3 4/4/4
f 4/4/4 1/1/1 6/6/6
f 7/7/7 4/4/4 6/6/6
f 8/8/8 4/4/4 7/7/7
f 7/7/7 6/6/6 9/9/9
f 10/10/10 7/7/7 9/9/9
f 11/11/11 10/10/10 3/3/3
f 12/12/12 7/7/7 10/10/10
f 15/15/15 14/14/14 13/13/13
f 16/16/16 15/15/15 13/13/13
f 17/17/17 15/15/15 16/16/16
f 16/16/16 13/13/13 18/18/18
f 19/19/19 16/16/16 18/18/18
f 20/20/20 16/16/16 19/19/19
f 19/19/19 18/18/18 21/21/21
f 22/22/22 19/19/19 21/21/21
f 23/23/23 22/22/22 15/15/15
f 24/24/24 19/19/19 22/22/22
