g Spider Small Body
v -0.1477479 -0.03263074 0.2972661
v -0.2385456 0.09234156 0.2972661
v -0.0008345903 0.1695776 0.3592713
v -0.2054025 -0.1119869 0.2236699
v -0.0008337897 -0.1784552 0.2236699
v -0.000834193 -0.08036587 0.2972661
v -0.0008345903 0.1695776 0.3592713
v -0.331833 0.06202971 0.2236699
v -0.2061864 -0.1130658 0.02897752
v -0.3331013 0.06161759 0.02897752
v -0.2385456 0.2468158 0.2972661
v -0.0008345903 0.1695776 0.3592713
v -0.331833 0.277126 0.2236699
v -0.3331013 0.2775381 0.02897752
v -0.1477479 0.3717881 0.2972661
v -0.0008345903 0.1695776 0.3592713
v -0.2054026 0.4511426 0.2236699
v -0.2061864 0.4522215 0.02897752
v -0.0008342149 0.4195232 0.2972661
v -0.0008345903 0.1695776 0.3592713
v -0.0008338201 0.517611 0.2236699
v -0.0008338185 0.5189446 0.02897752
v 0.1460795 0.3717881 0.2972661
v -0.0008345903 0.1695776 0.3592713
v 0.2037349 0.4511426 0.2236699
v 0.2045188 0.4522215 0.02897752
v 0.2368771 0.2468158 0.2972661
v -0.0008345903 0.1695776 0.3592713
v 0.3301654 0.2771261 0.2236699
v 0.3314337 0.2775382 0.02897752
v 0.3314337 0.06161759 0.02897752
v 0.2368772 0.09234156 0.2972661
v -0.0008345903 0.1695776 0.3592713
v 0.3301654 0.06202971 0.2236699
v 0.2045189 -0.1130657 0.02897752
v 0.1460796 -0.03263065 0.2972661
v -0.0008345903 0.1695776 0.3592713
v 0.203735 -0.1119868 0.2236699
v -0.000834193 -0.08036587 0.2972661
v -0.0008337897 -0.1784552 0.2236699
v -0.0008345903 0.1695776 0.3592713
v 0.203735 -0.1119868 0.2236699
v -0.0008337897 -0.1784552 0.2236699
v -0.0008337879 -0.1797888 0.02897752
v -0.0008337879 -0.1797888 0.02897752
v -0.0008337897 -0.1784552 0.2236699
v -0.2054025 -0.1119869 0.2236699
v -0.2061864 -0.1130658 0.02897752
vt 0.9 1
vt 0.8 1
vt 0.8 1
vt 0.9 0.75
vt 1 0.75
vt 1 1
vt 0.9 1
vt 0.8 0.75
vt 0.9 0.5
vt 0.8 0.5
vt 0.6999999 1
vt 0.6999999 1
vt 0.6999999 0.75
vt 0.6999999 0.5
vt 0.5999999 1
vt 0.5999999 1
vt 0.5999999 0.75
vt 0.5999999 0.5
vt 0.4999999 1
vt 0.4999999 1
vt 0.4999999 0.7499999
vt 0.4999999 0.5
vt 0.3999999 1
vt 0.3999999 1
vt 0.3999999 0.75
vt 0.3999999 0.5
vt 0.2999999 1
vt 0.2999999 1
vt 0.2999999 0.75
vt 0.2999999 0.5
vt 0.1999999 0.5
vt 0.1999999 1
vt 0.1999999 1
vt 0.1999999 0.75
vt 0.09999993 0.5
vt 0.09999993 1
vt 0.09999993 1
vt 0.09999993 0.7499999
vt -7.450581E-08 1
vt -7.450581E-08 0.75
vt -7.450581E-08 1
vt 0.09999993 0.7499999
vt 1 0.75
vt 1 0.5
vt 1 0.5
vt 1 0.75
vt 0.9 0.75
vt 0.9 0.5
vn -0.2705622 -0.372396 0.8877597
vn -0.4377795 -0.1422424 0.8877591
vn 0 0 1
vn -0.6142905 -0.2483211 0.7489886
vn 0 0.5728891 0.8196329
vn 0 -0.4603062 0.8877602
vn 0 0 1
vn -0.8638376 -0.2806782 0.418335
vn -0.809017 0.5877853 0
vn -0.9510341 -0.3090099 0.006849699
vn -0.4377801 0.1422439 0.8877586
vn 0 0 1
vn -0.8638383 0.2806776 0.4183341
vn -0.9510342 0.3090096 0.006849692
vn -0.2705631 0.3723987 0.8877583
vn 0 0 1
vn -0.5338814 0.7348248 0.4183336
vn -0.5877714 0.8089981 0.006849789
vn 0 0.4603096 0.8877584
vn 0 0 1
vn 0 0.9082934 0.4183338
vn 0 0.9999765 0.006849868
vn 0.270562 0.3723978 0.887759
vn 0 0 1
vn 0.5338814 0.7348244 0.4183346
vn 0.5877714 0.8089981 0.006849794
vn 0.4377779 0.1422434 0.8877597
vn 0 0 1
vn 0.8638376 0.2806774 0.4183356
vn 0.9510342 0.3090097 0.006849753
vn 0.9510342 -0.3090097 0.006849737
vn 0.4377773 -0.1422419 0.8877602
vn 0 0 1
vn 0.863837 -0.2806779 0.4183367
vn 0.809017 0.5877853 0
vn 0.2705611 -0.372395 0.8877604
vn 0 0 1
vn 0.6142898 -0.2483191 0.7489898
vn 0 -0.4603062 0.8877602
vn 0 0.5728891 0.8196329
vn 0 0 1
vn 0.6142898 -0.2483191 0.7489898
vn 0 0.5728891 0.8196329
vn 0 0.9999765 -0.006849601
vn 0 0.9999765 -0.006849601
vn 0 0.5728891 0.8196329
vn -0.6142905 -0.2483211 0.7489886
vn -0.809017 0.5877853 0
g Spider Small Body_0
f 3/3/3 2/2/2 1/1/1
f 1/1/1 2/2/2 4/4/4
f 1/1/1 4/4/4 5/5/5
f 6/6/6 1/1/1 5/5/5
f 7/7/7 1/1/1 6/6/6
f 2/2/2 8/8/8 4/4/4
f 4/4/4 8/8/8 9/9/9
f 8/8/8 10/10/10 9/9/9
f 2/2/2 11/11/11 8/8/8
f 12/12/12 11/11/11 2/2/2
f 8/8/8 13/13/13 10/10/10
f 11/11/11 13/13/13 8/8/8
f 13/13/13 14/14/14 10/10/10
f 11/11/11 15/15/15 13/13/13
f 11/11/11 16/16/16 15/15/15
f 13/13/13 17/17/17 14/14/14
f 15/15/15 17/17/17 13/13/13
f 17/17/17 18/18/18 14/14/14
f 15/15/15 19/19/19 17/17/17
f 20/20/20 19/19/19 15/15/15
f 17/17/17 21/21/21 18/18/18
f 19/19/19 21/21/21 17/17/17
f 21/21/21 22/22/22 18/18/18
f 19/19/19 23/23/23 21/21/21
f 24/24/24 23/23/23 19/19/19
f 21/21/21 25/25/25 22/22/22
f 23/23/23 25/25/25 21/21/21
f 25/25/25 26/26/26 22/22/22
f 23/23/23 27/27/27 25/25/25
f 28/28/28 27/27/27 23/23/23
f 25/25/25 29/29/29 26/26/26
f 27/27/27 29/29/29 25/25/25
f 29/29/29 30/30/30 26/26/26
f 30/30/30 29/29/29 31/31/31
f 27/27/27 32/32/32 29/29/29
f 33/33/33 32/32/32 27/27/27
f 29/29/29 34/34/34 31/31/31
f 32/32/32 34/34/34 29/29/29
f 31/31/31 34/34/34 35/35/35
f 32/32/32 36/36/36 34/34/34
f 37/37/37 36/36/36 32/32/32
f 34/34/34 38/38/38 35/35/35
f 36/36/36 38/38/38 34/34/34
f 36/36/36 39/39/39 38/38/38
f 39/39/39 40/40/40 38/38/38
f 41/41/41 39/39/39 36/36/36
f 43/43/43 42/42/42 35/35/35
f 44/44/44 43/43/43 35/35/35
f 47/47/47 46/46/46 45/45/45
f 48/48/48 47/47/47 45/45/45
