g Spider Big Body.001
v -0.5534538 2.268378 1.785663
v -0.002753085 2.590254 1.969201
v -0.002754038 1.672166 2.010096
v -0.5675906 -0.1212976 0.7539693
v -0.9166795 0.174278 0.7539693
v -0.002754452 0.3569512 0.9622037
v -0.7892546 -0.7721379 0.506808
v -0.002751374 -0.9293441 0.506808
v -0.002752925 -0.2341973 0.7539693
v -0.002754452 0.3569512 0.9622037
v -0.002751367 -0.9324983 -0.1470351
v -0.7922684 -0.7746897 -0.1470351
v -1.27534 0.1025865 0.506808
v -1.280217 0.1016118 -0.1470351
v -0.9166795 0.5396293 0.7539693
v -0.002754452 0.3569512 0.9622037
v -1.275341 0.6113169 0.506808
v -1.280217 0.6122916 -0.1470351
v -0.5675907 0.835205 0.7539693
v -0.002754452 0.3569512 0.9622037
v -0.7892548 1.022888 0.506808
v -0.7922686 1.02544 -0.1470351
v -0.002753009 0.9481046 0.7539693
v -0.002754452 0.3569512 0.9622037
v -0.002751491 1.180095 0.506808
v -0.002751485 1.183249 -0.1470351
v 0.5620847 0.835205 0.7539693
v -0.002754452 0.3569512 0.9622037
v 0.7837518 1.022888 0.506808
v 0.7867656 1.02544 -0.1470351
v 0.9111733 0.5396295 0.7539693
v -0.002754452 0.3569512 0.9622037
v 1.269837 0.611317 0.506808
v 1.274714 0.6122917 -0.1470351
v 1.274714 0.1016118 -0.1470351
v 0.9111735 0.174278 0.7539693
v -0.002754452 0.3569512 0.9622037
v 1.269837 0.1025865 0.506808
v 0.7867658 -0.7746896 -0.1470351
v 0.783752 -0.7721378 0.506808
v 0.5620848 -0.1212974 0.7539693
v -0.002754452 0.3569512 0.9622037
v -0.002752925 -0.2341973 0.7539693
v -0.002751374 -0.9293441 0.506808
v -0.002754452 0.3569512 0.9622037
v 0.7867658 -0.7746896 -0.1470351
v -0.002751367 -0.9324983 -0.1470351
v -0.002751374 -0.9293441 0.506808
v 0.783752 -0.7721378 0.506808
v -0.4875681 0.9001095 1.341081
v -0.7872005 1.225008 1.41244
v -0.002754038 1.672166 2.010096
v -0.6778283 0.1402967 1.110811
v -0.002751506 -0.03582072 1.093968
v -0.002752837 0.7760094 1.313824
v -0.002754038 1.672166 2.010096
v -0.0027515 -0.03393 -0.08162272
v -0.6804151 0.1436687 -0.08162272
v -1.095049 1.136958 1.029778
v -1.099234 1.129864 -0.08162272
v -0.5055687 1.655332 1.380317
v -0.002754038 1.672166 2.010096
v -0.7028937 1.677355 1.112428
v -0.7055764 1.677474 0.3579661
v -0.5534538 2.268378 1.785663
v -0.002754038 1.672166 2.010096
v -0.9551254 2.611489 1.134554
v -0.9587748 2.612821 0.2249537
v -0.002753085 2.590254 1.969201
v -0.002751607 3.088258 1.192937
v -0.002751603 3.091372 -0.1693867
v 0.5479479 2.268378 1.785663
v -0.002754038 1.672166 2.010096
v 0.9496228 2.611489 1.134554
v 0.9532722 2.612821 0.2249537
v 0.5000631 1.655332 1.380317
v -0.002754038 1.672166 2.010096
v 0.6973898 1.677355 1.112428
v 0.7000727 1.677474 0.3579661
v 1.093731 1.129864 -0.08162272
v 0.7816947 1.225008 1.41244
v -0.002754038 1.672166 2.010096
v 1.089546 1.136958 1.029778
v 0.6749122 0.1436689 -0.08162272
v 0.6723254 0.1402968 1.110811
v 0.4820625 0.9001097 1.341081
v -0.002754038 1.672166 2.010096
v -0.002752837 0.7760094 1.313824
v -0.002751506 -0.03582072 1.093968
v -0.002754038 1.672166 2.010096
v 0.6749122 0.1436689 -0.08162272
v -0.0027515 -0.03393 -0.08162272
v -0.002751506 -0.03582072 1.093968
v 0.6723254 0.1402968 1.110811
vt 0.5999999 1
vt 0.4922329 1
vt 0.4999999 1
vt 0.9 1
vt 0.8 1
vt 0.8 1
vt 0.9 0.75
vt 1 0.75
vt 1 1
vt 0.9 1
vt 1 0.5
vt 0.9 0.5
vt 0.8 0.75
vt 0.8 0.5
vt 0.6999999 1
vt 0.6999999 1
vt 0.6999999 0.75
vt 0.6999999 0.5
vt 0.5999999 1
vt 0.5999999 1
vt 0.5999999 0.75
vt 0.5999999 0.5
vt 0.4999999 1
vt 0.4999999 1
vt 0.4999999 0.7499999
vt 0.4999999 0.5
vt 0.3999999 1
vt 0.3999999 1
vt 0.3999999 0.75
vt 0.3999999 0.5
vt 0.2999999 1
vt 0.2999999 1
vt 0.2999999 0.75
vt 0.2999999 0.5
vt 0.1999999 0.5
vt 0.1999999 1
vt 0.1999999 1
vt 0.1999999 0.75
vt 0.09999993 0.5
vt 0.09999993 0.7499999
vt 0.09999993 1
vt 0.09999993 1
vt -7.450581E-08 1
vt -7.450581E-08 0.75
vt -7.450581E-08 1
vt 0.09999993 0.5
vt 1 0.5
vt 1 0.75
vt 0.09999993 0.7499999
vt 0.9 1
vt 0.8 1
vt 0.8 1
vt 0.9 0.75
vt 1 0.75
vt 1 1
vt 0.9 1
vt 1 0.5
vt 0.9 0.5
vt 0.8 0.75
vt 0.8 0.5
vt 0.6999999 1
vt 0.6999999 1
vt 0.6999999 0.75
vt 0.6999999 0.5
vt 0.5999999 1
vt 0.5999999 1
vt 0.5999999 0.75
vt 0.5999999 0.5
vt 0.4922329 1
vt 0.4999999 0.7499999
vt 0.4999999 0.578036
vt 0.3999999 1
vt 0.3999999 1
vt 0.3999999 0.75
vt 0.3999999 0.5
vt 0.2999999 1
vt 0.2999999 1
vt 0.2999999 0.75
vt 0.2999999 0.5
vt 0.1999999 0.5
vt 0.1999999 1
vt 0.1999999 1
vt 0.1999999 0.75
vt 0.09999993 0.5
vt 0.09999993 0.7499999
vt 0.09999993 1
vt 0.09999993 1
vt -7.450581E-08 1
vt -7.450581E-08 0.75
vt -7.450581E-08 1
vt 0.09999993 0.5
vt 1 0.5
vt 1 0.75
vt 0.09999993 0.7499999
vn -0.683548 0.1134842 0.7210294
vn 0 0.5270826 0.8498141
vn 0 -0.268214 0.9633594
vn -0.1998638 -0.2865799 0.9369773
vn -0.3803758 -0.1309389 0.9155158
vn 0 0 1
vn -0.4959548 -0.7085473 0.5019857
vn 0 -0.8371407 0.5469875
vn 0 -0.3337893 0.9426478
vn 0 0 1
vn 0 -0.9999884 0.004824097
vn -0.5896151 -0.8076602 0.006232837
vn -0.8544299 -0.2274042 0.4671584
vn -0.9679519 -0.251031 0.00725313
vn -0.3982551 0.2115359 0.89255
vn 0 0 1
vn -0.8264664 0.3708342 0.4235982
vn -0.9074204 0.4201589 0.007393833
vn -0.2149739 0.4852366 0.8475445
vn 0 0 1
vn -0.4147528 0.8250011 0.3838663
vn -0.4352459 0.9002947 0.005519829
vn 0 0.5664107 0.8241231
vn 0 0 1
vn 0 0.9347045 0.3554256
vn 0 0.9999884 0.0048241
vn 0.2149731 0.4852359 0.8475451
vn 0 0 1
vn 0.4147527 0.8250006 0.3838674
vn 0.4352459 0.9002948 0.005519921
vn 0.398253 0.2115353 0.8925511
vn 0 0 1
vn 0.8264656 0.370834 0.4235997
vn 0.9074204 0.420159 0.007394062
vn 0.9679519 -0.2510309 0.007253297
vn 0.380374 -0.1309383 0.9155167
vn 0 0 1
vn 0.8544292 -0.2274038 0.4671598
vn 0.5896152 -0.8076602 0.00623288
vn 0.4959549 -0.708547 0.501986
vn 0.199863 -0.2865792 0.9369776
vn 0 0 1
vn 0 -0.3337893 0.9426478
vn 0 -0.8371407 0.5469875
vn 0 0 1
vn 0.5896152 -0.8076602 0.00623288
vn 0 -0.9999884 0.004824097
vn 0 -0.8371407 0.5469875
vn 0.4959549 -0.708547 0.501986
vn -0.2874455 -0.402224 0.8692473
vn -0.6430312 0.02701327 0.7653634
vn 0 -0.268214 0.9633594
vn -0.538972 -0.6638729 0.5184418
vn 0 -0.8324488 0.5541018
vn 0 -0.4234229 0.9059321
vn 0 -0.268214 0.9633594
vn 0 -0.9999982 -0.001936778
vn -0.6554834 -0.7552091 0.0008211094
vn -0.9309611 0.08648626 0.3547276
vn -0.9998765 -0.01548831 0.002683604
vn -0.8235495 0.08957538 0.5601271
vn 0 -0.268214 0.9633594
vn -0.9431053 0.1429874 0.3001781
vn -0.9724665 0.2330327 0.002178602
vn -0.683548 0.1134842 0.7210294
vn 0 -0.268214 0.9633594
vn -0.8778604 0.3913166 0.2761024
vn -0.8575096 0.5144548 0.003701905
vn 0 0.5270826 0.8498141
vn 0 0.9515395 0.3075263
vn 0 0.9999962 0.002760366
vn 0.6835466 0.1134835 0.7210309
vn 0 -0.268214 0.9633594
vn 0.8778604 0.3913158 0.2761036
vn 0.8575097 0.5144545 0.003702084
vn 0.8235478 0.08957443 0.5601298
vn 0 -0.268214 0.9633594
vn 0.9431046 0.1429868 0.3001806
vn 0.9724665 0.2330327 0.00217872
vn 0.9998765 -0.01548791 0.002683652
vn 0.6430292 0.02701333 0.765365
vn 0 -0.268214 0.9633594
vn 0.9309605 0.08648667 0.3547287
vn 0.6554834 -0.7552091 0.0008211151
vn 0.5389721 -0.6638728 0.518442
vn 0.2874445 -0.4022234 0.869248
vn 0 -0.268214 0.9633594
vn 0 -0.4234229 0.9059321
vn 0 -0.8324488 0.5541018
vn 0 -0.268214 0.9633594
vn 0.6554834 -0.7552091 0.0008211151
vn 0 -0.9999982 -0.001936778
vn 0 -0.8324488 0.5541018
vn 0.5389721 -0.6638728 0.518442
g Spider Big Body.001_0
f 3/3/3 2/2/2 1/1/1
f 6/6/6 5/5/5 4/4/4
f 4/4/4 5/5/5 7/7/7
f 4/4/4 7/7/7 8/8/8
f 9/9/9 4/4/4 8/8/8
f 10/10/10 4/4/4 9/9/9
f 8/8/8 7/7/7 11/11/11
f 7/7/7 12/12/12 11/11/11
f 7/7/7 13/13/13 12/12/12
f 5/5/5 13/13/13 7/7/7
f 13/13/13 14/14/14 12/12/12
f 5/5/5 15/15/15 13/13/13
f 16/16/16 15/15/15 5/5/5
f 13/13/13 17/17/17 14/14/14
f 15/15/15 17/17/17 13/13/13
f 17/17/17 18/18/18 14/14/14
f 15/15/15 19/19/19 17/17/17
f 15/15/15 20/20/20 19/19/19
f 17/17/17 21/21/21 18/18/18
f 19/19/19 21/21/21 17/17/17
f 21/21/21 22/22/22 18/18/18
f 19/19/19 23/23/23 21/21/21
f 24/24/24 23/23/23 19/19/19
f 21/21/21 25/25/25 22/22/22
f 23/23/23 25/25/25 21/21/21
f 25/25/25 26/26/26 22/22/22
f 23/23/23 27/27/27 25/25/25
f 28/28/28 27/27/27 23/23/23
f 25/25/25 29/29/29 26/26/26
f 27/27/27 29/29/29 25/25/25
f 29/29/29 30/30/30 26/26/26
f 27/27/27 31/31/31 29/29/29
f 32/32/32 31/31/31 27/27/27
f 29/29/29 33/33/33 30/30/30
f 31/31/31 33/33/33 29/29/29
f 33/33/33 34/34/34 30/30/30
f 34/34/34 33/33/33 35/35/35
f 31/31/31 36/36/36 33/33/33
f 37/37/37 36/36/36 31/31/31
f 33/33/33 38/38/38 35/35/35
f 36/36/36 38/38/38 33/33/33
f 35/35/35 38/38/38 39/39/39
f 38/38/38 40/40/40 39/39/39
f 36/36/36 41/41/41 38/38/38
f 41/41/41 40/40/40 38/38/38
f 42/42/42 41/41/41 36/36/36
f 41/41/41 43/43/43 40/40/40
f 43/43/43 44/44/44 40/40/40
f 45/45/45 43/43/43 41/41/41
f 48/48/48 47/47/47 46/46/46
f 49/49/49 48/48/48 46/46/46
f 52/52/52 51/51/51 50/50/50
f 50/50/50 51/51/51 53/53/53
f 50/50/50 53/53/53 54/54/54
f 55/55/55 50/50/50 54/54/54
f 56/56/56 50/50/50 55/55/55
f 54/54/54 53/53/53 57/57/57
f 53/53/53 58/58/58 57/57/57
f 53/53/53 59/59/59 58/58/58
f 51/51/51 59/59/59 53/53/53
f 59/59/59 60/60/60 58/58/58
f 51/51/51 61/61/61 59/59/59
f 62/62/62 61/61/61 51/51/51
f 59/59/59 63/63/63 60/60/60
f 61/61/61 63/63/63 59/59/59
f 63/63/63 64/64/64 60/60/60
f 61/61/61 65/65/65 63/63/63
f 61/61/61 66/66/66 65/65/65
f 63/63/63 67/67/67 64/64/64
f 65/65/65 67/67/67 63/63/63
f 67/67/67 68/68/68 64/64/64
f 65/65/65 69/69/69 67/67/67
f 67/67/67 70/70/70 68/68/68
f 69/69/69 70/70/70 67/67/67
f 70/70/70 71/71/71 68/68/68
f 69/69/69 72/72/72 70/70/70
f 73/73/73 72/72/72 69/69/69
f 70/70/70 74/74/74 71/71/71
f 72/72/72 74/74/74 70/70/70
f 74/74/74 75/75/75 71/71/71
f 72/72/72 76/76/76 74/74/74
f 77/77/77 76/76/76 72/72/72
f 74/74/74 78/78/78 75/75/75
f 76/76/76 78/78/78 74/74/74
f 78/78/78 79/79/79 75/75/75
f 79/79/79 78/78/78 80/80/80
f 76/76/76 81/81/81 78/78/78
f 82/82/82 81/81/81 76/76/76
f 78/78/78 83/83/83 80/80/80
f 81/81/81 83/83/83 78/78/78
f 80/80/80 83/83/83 84/84/84
f 83/83/83 85/85/85 84/84/84
f 81/81/81 86/86/86 83/83/83
f 86/86/86 85/85/85 83/83/83
f 87/87/87 86/86/86 81/81/81
f 86/86/86 88/88/88 85/85/85
f 88/88/88 89/89/89 85/85/85
f 90/90/90 88/88/88 86/86/86
f 93/93/93 92/92/92 91/91/91
f 94/94/94 93/93/93 91/91/91
