g Spider Big Claws.001
v 0.7117541 -1.66705 0.346624
v 0.5136805 -1.996237 0.2764345
v 0.6201764 -1.710174 0.346624
v 0.4451393 -2.13184 0.2357739
v 0.3203875 -2.339001 0.1654566
v 0.3439212 -2.229339 0.1475208
v -0.002100314 -0.6416532 0.4530185
v -0.002065352 -0.6454442 0.07177937
v -0.5164842 -1.76301 0.07710664
v -0.5164842 -1.761719 0.2457621
v -0.3301218 -2.182711 0.1375011
v -0.3460254 -2.146721 0.155071
v -0.3063701 -2.248716 0.1474752
v -0.5164842 -1.761719 0.2457621
v -0.6265094 -1.709135 0.346624
v -0.4994918 -1.997657 0.278578
v -0.5107384 -0.4059076 0.07177937
v -0.5088384 -0.4021176 0.5436755
v -0.7349266 -1.658157 0.3366626
v -0.7357325 -1.659765 0.07710664
v -0.7349266 -1.658157 0.3366626
v -0.2683532 -2.370616 0.1663968
v -0.4199691 -2.13891 0.2389917
v -0.4994918 -1.997657 0.278578
v -0.7155541 -1.667204 0.346624
v -0.3063701 -2.248716 0.1474752
v -0.4199691 -2.13891 0.2389917
v -0.3460254 -2.146721 0.155071
v -0.4994918 -1.997657 0.278578
v -0.6265094 -1.709135 0.346624
v -0.4994918 -1.997657 0.278578
v -0.7155541 -1.667204 0.346624
v -0.48746 -0.3999836 0.5558918
v -0.5088384 -0.4021176 0.5436755
v -0.7349266 -1.658157 0.3366626
v -0.003340204 -0.353453 0.5977679
v -0.5164842 -1.761719 0.2457621
v -0.002100314 -0.6416532 0.4530185
v 0.7316055 -1.659765 0.07710664
v 0.3203875 -2.339001 0.1654566
v 0.4451393 -2.13184 0.2357739
v 0.7308029 -1.658164 0.3355643
v 0.504712 -0.4021258 0.5426192
v 0.5066078 -0.4059073 0.07177937
v 0.7316055 -1.659765 0.07710664
v 0.7308029 -1.658164 0.3355643
v 0.5123571 -1.761722 0.2454161
v 0.6201764 -1.710174 0.346624
v 0.5136805 -1.996237 0.2764345
v 0.3739531 -2.13159 0.1547241
v 0.362092 -2.163363 0.1370737
v 0.5123571 -1.76301 0.07710664
v 0.3439212 -2.229339 0.1475208
v 0.4451393 -2.13184 0.2357739
v -0.002065352 -0.6454442 0.07177937
v 0.5123571 -1.761722 0.2454161
v -0.002100314 -0.6416532 0.4530185
v 0.6201764 -1.710174 0.346624
v -0.003340204 -0.353453 0.5977679
v 0.7117541 -1.66705 0.346624
v 0.4836785 -0.400027 0.5558525
v 0.7308029 -1.658164 0.3355643
v 0.504712 -0.4021258 0.5426192
v 0.4451393 -2.13184 0.2357739
v 0.5136805 -1.996237 0.2764345
v 0.7117541 -1.66705 0.346624
v 0.7308029 -1.658164 0.3355643
v -0.5088384 -0.4021176 0.5436755
v -0.5107384 -0.4059076 0.07177937
v 0.5066078 -0.4059073 0.07177937
v 0.504712 -0.4021258 0.5426192
v 0.4836785 -0.400027 0.5558525
v -0.48746 -0.3999836 0.5558918
v -0.003340204 -0.353453 0.5977679
vt 0.09129413 0.7499999
vt 0.09157995 0.7499999
vt 0.04936514 0.75
vt -7.450581E-08 0.7214133
vt -7.450581E-08 0.7098972
vt -7.450581E-08 0.6707287
vt 0.9999999 0.6976299
vt 1 0.5
vt 1 0.5
vt 1 0.6564422
vt 1 0.5
vt 1 0.5210782
vt 1 0.5
vt 1 0.6564421
vt 1 0.75
vt 1 0.6780472
vt 0.9 0.5
vt 0.9 0.744624
vt 0.9 0.74076
vt 0.9 0.5
vt 0.9 0.74076
vt 0.9 0.7187608
vt 0.9 0.7419097
vt 0.9 0.7500001
vt 0.9 0.75
vt 0.9 0.6903203
vt 0.9 0.7419096
vt 0.9 0.6946878
vt 0.9 0.75
vt 0.9496248 0.75
vt 0.9492055 0.75
vt 0.9088556 0.75
vt 0.9036107 0.75
vt 0.9 0.744624
vt 0.9 0.74076
vt 0.985537 0.75
vt 1 0.6564422
vt 0.9999999 0.6976299
vt 0.09999993 0.5
vt 0.09999993 0.5
vt 0.09999993 0.5901473
vt 0.09999993 0.7397412
vt 0.09999993 0.7440764
vt 0.09999993 0.5
vt 0.09999993 0.5
vt 0.09999993 0.7397413
vt -7.450581E-08 0.6561211
vt -7.450581E-08 0.75
vt -7.450581E-08 0.75
vt -7.450581E-08 0.6560849
vt -7.450581E-08 0.646919
vt -7.450581E-08 0.5
vt -7.450581E-08 0.6560794
vt -7.450581E-08 0.7174491
vt -7.450581E-08 0.5
vt -7.450581E-08 0.6561213
vt -7.450581E-08 0.6976271
vt 0.04936515 0.7499999
vt 0.01397581 0.7499999
vt 0.09129414 0.7499999
vt 0.09644596 0.7499999
vt 0.09999993 0.7397413
vt 0.09999993 0.7440764
vt 0.09999993 0.5901473
vt 0.09999993 0.6397592
vt 0.09999993 0.7443488
vt 0.09999993 0.7397412
vt 0.9 0.744624
vt 0.9 0.5
vt 0.09999993 0.5
vt 0.09999993 0.7440763
vt 0.09571745 0.7502316
vt 0.8618542 0.7502366
vt -0.003658066 0.7556058
vn 0.3974611 -0.281772 0.8732864
vn -0.07503266 -0.2790889 0.9573293
vn -0.1776069 -0.2487424 0.9521465
vn 0.161797 -0.4452598 0.8806618
vn -0.2436467 -0.1769529 0.9535848
vn -0.779926 0.2466807 0.5752078
vn -0.004424015 -0.6200307 0.784565
vn -4.380058E-05 -0.9999573 0.009242671
vn 0.9996862 -0.02504147 0.0006023573
vn 0.8834751 -0.0653903 0.463892
vn 0.9270616 0.3619457 0.0977342
vn 0.8817092 0.3367762 0.3304102
vn 0.776549 0.3127877 0.546933
vn 0.8834751 -0.0653903 0.463892
vn 0.1694405 -0.2430331 0.9551046
vn 0.09788868 -0.2467811 0.9641146
vn -0.6434309 0.7647174 -0.03469814
vn -0.6466302 0.6280615 0.4329069
vn -0.8782585 -0.2031693 0.4328789
vn -0.9822319 -0.1876188 0.004420391
vn -0.8782585 -0.2031693 0.4328789
vn 0.2480445 -0.138108 0.9588535
vn -0.1408213 -0.4261174 0.8936405
vn 0.09788868 -0.2467811 0.9641146
vn -0.3779096 -0.2900454 0.8792372
vn 0.776549 0.3127877 0.546933
vn -0.1408213 -0.4261174 0.8936405
vn 0.8817092 0.3367762 0.3304102
vn 0.09788868 -0.2467811 0.9641146
vn 0.1694405 -0.2430331 0.9551046
vn 0.09788868 -0.2467811 0.9641146
vn -0.3779096 -0.2900454 0.8792372
vn -0.1987867 0.6351636 0.7463585
vn -0.6466302 0.6280615 0.4329069
vn -0.8782585 -0.2031693 0.4328789
vn -0.0001701742 0.6351038 0.7724268
vn 0.8834751 -0.0653903 0.463892
vn -0.004424015 -0.6200307 0.784565
vn 0.9855702 -0.1692124 0.004316409
vn -0.2436467 -0.1769529 0.9535848
vn 0.161797 -0.4452598 0.8806618
vn 0.8881863 -0.1895321 0.418572
vn 0.6546695 0.6334216 0.4125347
vn 0.6434286 0.7647194 -0.03469784
vn 0.9855702 -0.1692124 0.004316409
vn 0.8881863 -0.1895321 0.418572
vn -0.8813192 -0.1024466 0.4612821
vn -0.1776069 -0.2487424 0.9521465
vn -0.07503266 -0.2790889 0.9573293
vn -0.898306 0.274968 0.3426935
vn -0.9493266 0.2965344 0.1041459
vn -0.9985282 -0.05422952 0.0007573423
vn -0.779926 0.2466807 0.5752078
vn 0.161797 -0.4452598 0.8806618
vn -4.380058E-05 -0.9999573 0.009242671
vn -0.8813192 -0.1024466 0.4612821
vn -0.004424015 -0.6200307 0.784565
vn -0.1776069 -0.2487424 0.9521465
vn -0.0001701742 0.6351038 0.7724268
vn 0.3974611 -0.281772 0.8732864
vn 0.2133176 0.6319861 0.7450431
vn 0.8881863 -0.1895321 0.418572
vn 0.6546695 0.6334216 0.4125347
vn 0.161797 -0.4452598 0.8806618
vn -0.07503266 -0.2790889 0.9573293
vn 0.3974611 -0.281772 0.8732864
vn 0.8881863 -0.1895321 0.418572
vn -0.6466302 0.6280615 0.4329069
vn -0.6434309 0.7647174 -0.03469814
vn 0.6434286 0.7647194 -0.03469784
vn 0.6546695 0.6334216 0.4125347
vn 0.2133176 0.6319861 0.7450431
vn -0.1987867 0.6351636 0.7463585
vn -0.0001701742 0.6351038 0.7724268
g Spider Big Claws.001_0
f 3/3/3 2/2/2 1/1/1
f 6/6/6 5/5/5 4/4/4
f 9/9/9 8/8/8 7/7/7
f 10/10/10 9/9/9 7/7/7
f 12/12/12 11/11/11 9/9/9
f 13/13/13 11/11/11 12/12/12
f 14/14/14 12/12/12 9/9/9
f 14/14/14 15/15/15 12/12/12
f 15/15/15 16/16/16 12/12/12
f 19/19/19 18/18/18 17/17/17
f 20/20/20 19/19/19 17/17/17
f 20/20/20 22/22/22 21/21/21
f 22/22/22 23/23/23 21/21/21
f 21/21/21 23/23/23 24/24/24
f 25/25/25 21/21/21 24/24/24
f 27/27/27 22/22/22 26/26/26
f 27/27/27 26/26/26 28/28/28
f 29/29/29 27/27/27 28/28/28
f 32/32/32 31/31/31 30/30/30
f 32/32/32 30/30/30 33/33/33
f 32/32/32 33/33/33 34/34/34
f 35/35/35 32/32/32 34/34/34
f 30/30/30 36/36/36 33/33/33
f 30/30/30 37/37/37 36/36/36
f 37/37/37 38/38/38 36/36/36
f 41/41/41 40/40/40 39/39/39
f 42/42/42 41/41/41 39/39/39
f 45/45/45 44/44/44 43/43/43
f 46/46/46 45/45/45 43/43/43
f 49/49/49 48/48/48 47/47/47
f 50/50/50 49/49/49 47/47/47
f 51/51/51 50/50/50 47/47/47
f 52/52/52 51/51/51 47/47/47
f 50/50/50 51/51/51 53/53/53
f 50/50/50 53/53/53 49/49/49
f 53/53/53 54/54/54 49/49/49
f 52/52/52 56/56/56 55/55/55
f 56/56/56 57/57/57 55/55/55
f 56/56/56 58/58/58 57/57/57
f 58/58/58 59/59/59 57/57/57
f 58/58/58 60/60/60 59/59/59
f 60/60/60 61/61/61 59/59/59
f 60/60/60 62/62/62 61/61/61
f 62/62/62 63/63/63 61/61/61
f 66/66/66 65/65/65 64/64/64
f 67/67/67 66/66/66 64/64/64
f 70/70/70 69/69/69 68/68/68
f 68/68/68 71/71/71 70/70/70
f 68/68/68 72/72/72 71/71/71
f 68/68/68 73/73/73 72/72/72
f 73/73/73 74/74/74 72/72/72
