g SpikyRock
v -1.710731 -2.03414 0.04777578
v -1.831941 1.954411 0.04777575
v -1.012783 1.63322 5.606953
v -1.012783 1.63322 5.606953
v -1.831941 1.954411 0.04777575
v 6.050198 3.886089 0.04777575
v 1.92542 1.45124 6.691094
v 6.050198 3.886089 0.04777575
v 1.859651 -0.8158553 0.04777575
v 1 -1 5.606953
v 1.859651 -0.8158553 0.04777575
v -1.710731 -2.03414 0.04777578
v -1.710731 -2.03414 0.04777578
v -1.012783 1.63322 5.606953
v -0.9136028 -0.5621136 3.279878
v -1.012783 1.63322 5.606953
v 6.050198 3.886089 0.04777575
v 1.92542 1.45124 6.691094
v 1.92542 1.45124 6.691094
v 1.859651 -0.8158553 0.04777575
v 1 -1 5.606953
v 1 -1 5.606953
v -1.710731 -2.03414 0.04777578
v -0.9136028 -0.5621136 3.279878
v 1.92542 1.45124 6.691094
v -2.418938 -3.194529 11.8165
v -2.815423 -1.611668 10.04596
v -2.815423 -1.611668 10.04596
v -2.418938 -3.194529 11.8165
v -1.991924 -3.661882 10.04596
v -2.815423 -1.611668 10.04596
v -1.991924 -3.661882 10.04596
v -0.6730686 -2.269178 6.964566
v -1.012783 1.63322 5.606953
v -2.815423 -1.611668 10.04596
v -0.6730686 -2.269178 6.964566
v 1 -1 5.606953
v -0.9136028 -0.5621136 3.279878
v -0.6730686 -2.269178 6.964566
v 1.92542 1.45124 6.691094
v -2.815423 -1.611668 10.04596
v -1.012783 1.63322 5.606953
v -1.012783 1.63322 5.606953
v -0.6730686 -2.269178 6.964566
v -0.9136028 -0.5621136 3.279878
v 1 -1 5.606953
v -0.6730686 -2.269178 6.964566
v -1.991924 -3.661882 10.04596
v 1.92542 1.45124 6.691094
v 1 -1 5.606953
v -1.991924 -3.661882 10.04596
v -2.418938 -3.194529 11.8165
vt 0.375 0
vt 0.375 0.25
vt 0.625 0.25
vt 0.625 0.25
vt 0.375 0.25
vt 0.375 0.5
vt 0.625 0.5
vt 0.375 0.5
vt 0.375 0.75
vt 0.625 0.75
vt 0.375 0.75
vt 0.375 1
vt 0.375 0
vt 0.625 0.25
vt 0.625 0
vt 0.625 0.25
vt 0.375 0.5
vt 0.625 0.5
vt 0.625 0.5
vt 0.375 0.75
vt 0.625 0.75
vt 0.625 0.75
vt 0.375 1
vt 0.625 1
vt 0.625 0.5
vt 0.625 0.5
vt 0.625 0.25
vt 0.875 0.5
vt 0.625 0.5
vt 0.625 0.75
vt 0.875 0.5
vt 0.625 0.75
vt 0.875 0.75
vt 0.625 0.25
vt 0.625 0.25
vt 0.625 0
vt 0.625 0.75
vt 0.625 1
vt 0.625 1
vt 0.625 0.5
vt 0.625 0.25
vt 0.625 0.25
vt 0.625 0.25
vt 0.625 0
vt 0.625 0
vt 0.625 0.75
vt 0.625 1
vt 0.625 0.75
vt 0.625 0.5
vt 0.625 0.75
vt 0.625 0.75
vt 0.625 0.5
vn -0.9891193 -0.03005875 0.1440123
vn -0.9891193 -0.03005875 0.1440123
vn -0.9891193 -0.03005875 0.1440123
vn -0.2370432 0.9672453 0.09081304
vn -0.2370432 0.9672453 0.09081304
vn -0.2370432 0.9672453 0.09081304
vn 0.7291539 -0.6498489 0.2145484
vn 0.7291539 -0.6498489 0.2145484
vn 0.7291539 -0.6498489 0.2145484
vn 0.3228815 -0.9462569 0.01858493
vn 0.3228815 -0.9462569 0.01858493
vn 0.3228815 -0.9462569 0.01858493
vn -0.7860923 -0.4659844 0.4061002
vn -0.7860923 -0.4659844 0.4061002
vn -0.7860923 -0.4659844 0.4061002
vn -0.05655114 0.9482548 0.3124336
vn -0.05655114 0.9482548 0.3124336
vn -0.05655114 0.9482548 0.3124336
vn 0.9080522 -0.399076 0.1271987
vn 0.9080522 -0.399076 0.1271987
vn 0.9080522 -0.399076 0.1271987
vn -0.6699784 -0.5992788 0.4381709
vn -0.6699784 -0.5992788 0.4381709
vn -0.6699784 -0.5992788 0.4381709
vn -0.008630227 0.7445263 0.6675373
vn -0.008630227 0.7445263 0.6675373
vn -0.008630227 0.7445263 0.6675373
vn -0.9207302 -0.3698252 -0.1244397
vn -0.9207302 -0.3698252 -0.1244397
vn -0.9207302 -0.3698252 -0.1244397
vn -0.8076916 -0.3244215 -0.4923261
vn -0.8076916 -0.3244215 -0.4923261
vn -0.8076916 -0.3244215 -0.4923261
vn -0.8190799 -0.2507992 -0.5159533
vn -0.8190799 -0.2507992 -0.5159533
vn -0.8190799 -0.2507992 -0.5159533
vn 0.3105669 -0.8545935 -0.4161949
vn 0.3105669 -0.8545935 -0.4161949
vn 0.3105669 -0.8545935 -0.4161949
vn -0.1492959 0.8261625 0.5432922
vn -0.1492959 0.8261625 0.5432922
vn -0.1492959 0.8261625 0.5432922
vn -0.9966329 -0.07644729 0.02964265
vn -0.9966329 -0.07644729 0.02964265
vn -0.9966329 -0.07644729 0.02964265
vn 0.5076643 -0.8456239 -0.1649154
vn 0.5076643 -0.8456239 -0.1649154
vn 0.5076643 -0.8456239 -0.1649154
vn 0.8420542 -0.4496614 0.2979081
vn 0.8420542 -0.4496614 0.2979081
vn 0.8420542 -0.4496614 0.2979081
vn 0.8417557 -0.4361584 0.3181403
g SpikyRock_0
f 3/3/3 2/2/2 1/1/1
f 6/6/6 5/5/5 4/4/4
f 9/9/9 8/8/8 7/7/7
f 12/12/12 11/11/11 10/10/10
f 15/15/15 14/14/14 13/13/13
f 18/18/18 17/17/17 16/16/16
f 21/21/21 20/20/20 19/19/19
f 24/24/24 23/23/23 22/22/22
f 27/27/27 26/26/26 25/25/25
f 30/30/30 29/29/29 28/28/28
f 33/33/33 32/32/32 31/31/31
f 36/36/36 35/35/35 34/34/34
f 39/39/39 38/38/38 37/37/37
f 42/42/42 41/41/41 40/40/40
f 45/45/45 44/44/44 43/43/43
f 48/48/48 47/47/47 46/46/46
f 51/51/51 50/50/50 49/49/49
f 52/52/52 51/51/51 49/49/49
