g SpikyRock3
v -5.453403 0.03533486 3.248092
v -4.105107 5.134666 3.248092
v -2.491792 3.111707 4.758436
v -0.9853662 5.601693 3.248092
v 4.807733 4.185947 3.248092
v 4.04321 3.317421 5.525105
v 4.067279 -0.220144 3.248092
v 5.321349 -4.713077 3.248092
v 3.780438 -1.55876 6.182167
v 1.795387 -6.178413 3.248092
v -4.492591 -4.956292 3.248092
v -1.13161 -3.059222 7.227938
v 1.050062 0.4527868 6.077189
v 3.257382 0.7836887 6.583619
v 3.780438 -1.55876 6.182167
v -1.13161 -3.059222 7.227938
v -0.3667798 -0.6935786 7.188222
v 1.050062 0.4527868 6.077189
v 5.321349 -4.713077 3.248092
v 1.795387 -6.178413 3.248092
v 1.324414 -2.308991 5.391064
v -4.105107 5.134666 3.248092
v -0.9853662 5.601693 3.248092
v -2.491792 3.111707 4.758436
v 0.775709 3.214564 6.763314
v 1.050062 0.4527868 6.077189
v -1.811701 0.02624299 5.26955
v 4.04321 3.317421 5.525105
v 3.257382 0.7836887 6.583619
v 0.775709 3.214564 6.763314
v 4.04321 3.317421 5.525105
v 4.807733 4.185947 3.248092
v 4.067279 -0.220144 3.248092
v -0.9853662 5.601693 3.248092
v 4.04321 3.317421 5.525105
v 0.775709 3.214564 6.763314
v 4.067279 -0.220144 3.248092
v 3.780438 -1.55876 6.182167
v 3.257382 0.7836887 6.583619
v -1.13161 -3.059222 7.227938
v -1.811701 0.02624299 5.26955
v -0.3667798 -0.6935786 7.188222
v 5.321349 -4.713077 3.248092
v 1.324414 -2.308991 5.391064
v 3.780438 -1.55876 6.182167
v -2.491792 3.111707 4.758436
v -0.9853662 5.601693 3.248092
v 0.775709 3.214564 6.763314
v -2.491792 3.111707 4.758436
v 0.775709 3.214564 6.763314
v -1.811701 0.02624299 5.26955
v 0.775709 3.214564 6.763314
v 3.257382 0.7836887 6.583619
v 1.050062 0.4527868 6.077189
v 4.04321 3.317421 5.525105
v 4.067279 -0.220144 3.248092
v 3.257382 0.7836887 6.583619
v -4.492591 -4.956292 3.248092
v -1.811701 0.02624299 5.26955
v -1.13161 -3.059222 7.227938
v -4.492591 -4.956292 3.248092
v 1.795387 -6.178413 3.248092
v -0.5815387 -8.225136 -0.2465556
v 1.324414 -2.308991 5.391064
v 1.795387 -6.178413 3.248092
v -1.13161 -3.059222 7.227938
v -0.9853662 5.601693 3.248092
v -1.904245 7.293353 -0.2465556
v 6.572154 4.487216 -0.2465558
v 5.321349 -4.713077 3.248092
v 4.067279 -0.220144 3.248092
v 4.749674 -1.672633 -0.2465556
v 1.795387 -6.178413 3.248092
v 5.321349 -4.713077 3.248092
v 6.082049 -5.768403 -0.2465553
v -4.492591 -4.956292 3.248092
v -6.345499 -6.076389 -0.2465556
v -8.139805 -2.253344 -0.2465556
v 4.807733 4.185947 3.248092
v 6.572154 4.487216 -0.2465558
v 4.749674 -1.672633 -0.2465556
v 1.050062 0.4527868 6.077189
v -0.3667798 -0.6935786 7.188222
v -1.811701 0.02624299 5.26955
v -4.492591 -4.956292 3.248092
v -0.5815387 -8.225136 -0.2465556
v -6.345499 -6.076389 -0.2465556
v -0.9853662 5.601693 3.248092
v 6.572154 4.487216 -0.2465558
v 4.807733 4.185947 3.248092
v 5.321349 -4.713077 3.248092
v 4.749674 -1.672633 -0.2465556
v 6.082049 -5.768403 -0.2465553
v 1.795387 -6.178413 3.248092
v 6.082049 -5.768403 -0.2465553
v -0.5815387 -8.225136 -0.2465556
v -4.492591 -4.956292 3.248092
v -8.139805 -2.253344 -0.2465556
v -5.453403 0.03533486 3.248092
v 4.807733 4.185947 3.248092
v 4.749674 -1.672633 -0.2465556
v 4.067279 -0.220144 3.248092
v 1.050062 0.4527868 6.077189
v 3.780438 -1.55876 6.182167
v 1.324414 -2.308991 5.391064
v -1.13161 -3.059222 7.227938
v -4.492591 -4.956292 3.248092
v -5.453403 0.03533486 3.248092
v -2.491792 3.111707 4.758436
v -1.811701 0.02624299 5.26955
v -4.105107 5.134666 3.248092
v -5.453403 0.03533486 3.248092
v -8.139805 -2.253344 -0.2465556
v -5.854823 6.70195 -0.2465556
v -4.105107 5.134666 3.248092
v -5.854823 6.70195 -0.2465556
v -1.904245 7.293353 -0.2465556
v -0.9853662 5.601693 3.248092
vt 0.375 0.125
vt 0.375 0.25
vt 0.625 0.25
vt 0.375 0.375
vt 0.375 0.5
vt 0.625 0.5
vt 0.375 0.625
vt 0.375 0.75
vt 0.625 0.75
vt 0.375 0.875
vt 0.375 1
vt 0.625 1
vt 0.75 0.625
vt 0.625 0.625
vt 0.625 0.75
vt 0.625 1
vt 0.625 0.125
vt 0.75 0.625
vt 0.375 0.75
vt 0.375 0.875
vt 0.625 0.875
vt 0.375 0.25
vt 0 0
vt 0.625 0.25
vt 0.75 0.5
vt 0.75 0.625
vt 0.8749999 0.6249999
vt 0.625 0.5
vt 0.625 0.625
vt 0.75 0.5
vt 0.625 0.5
vt 0.375 0.5
vt 0.375 0.625
vt 0.375 0.375
vt 0.625 0.5
vt 0.625 0.375
vt 0.375 0.625
vt 0.625 0.75
vt 0.625 0.625
vt 0.625 0
vt 0.625 0.125
vt 0.625 0.125
vt 0.375 0.75
vt 0.625 0.875
vt 0.625 0.75
vt 0.625 0.25
vt 0.375 0.375
vt 0.625 0.375
vt 0.625 0.25
vt 0.625 0.375
vt 0.8749999 0.6249999
vt 0.75 0.5
vt 0.625 0.625
vt 0.75 0.625
vt 0.625 0.5
vt 0.375 0.625
vt 0.625 0.625
vt 0.375 0
vt 0.625 0.125
vt 0.625 0
vt 0.375 1
vt 0.375 0.875
vt 0.375 0.875
vt 0.625 0.875
vt 0.375 0.875
vt 0.625 1
vt 0.375 0.375
vt 0.375 0.375
vt 0.375 0.5
vt 0.375 0.75
vt 0.375 0.625
vt 0.375 0.625
vt 0.375 0.875
vt 0.375 0.75
vt 0.375 0.75
vt 0 0
vt 0 0
vt 0 0
vt 0.375 0.5
vt 0.375 0.5
vt 0.375 0.625
vt 0.75 0.625
vt 0.8749999 0.6249999
vt 0.8749999 0.6249999
vt 0.375 1
vt 0.375 0.875
vt 0.375 1
vt 0.375 0.375
vt 0.375 0.5
vt 0.375 0.5
vt 0.375 0.75
vt 0.375 0.625
vt 0.375 0.75
vt 0.375 0.875
vt 0.375 0.75
vt 0.375 0.875
vt 0 0
vt 0 0
vt 0 0
vt 0.375 0.5
vt 0.375 0.625
vt 0.375 0.625
vt 0.75 0.625
vt 0.625 0.75
vt 0.625 0.875
vt 0.625 1
vt 0.375 0
vt 0 0
vt 0.625 0.25
vt 0.8749999 0.6249999
vt 0.375 0.25
vt 0.375 0.125
vt 0.375 0.125
vt 0.375 0.25
vt 0 0
vt 0 0
vt 0 0
vt 0 0
vn -0.5686116 0.1503446 0.8087505
vn -0.5686116 0.1503446 0.8087505
vn -0.5686116 0.1503446 0.8087505
vn 0.2164699 0.8857737 0.4105432
vn 0.2164699 0.8857737 0.4105432
vn 0.2164699 0.8857737 0.4105432
vn 0.9413122 0.2627398 0.2118945
vn 0.9413122 0.2627398 0.2118945
vn 0.9413122 0.2627398 0.2118945
vn -0.1614948 -0.8309116 0.5324522
vn -0.1614948 -0.8309116 0.5324522
vn -0.1614948 -0.8309116 0.5324522
vn -0.1892385 -0.2067674 0.9599146
vn -0.1892385 -0.2067674 0.9599146
vn -0.1892385 -0.2067674 0.9599146
vn 0.3589425 -0.2140717 0.9084787
vn 0.3589425 -0.2140717 0.9084787
vn 0.3589425 -0.2140717 0.9084787
vn 0.1902592 -0.4578107 0.8684531
vn 0.1902592 -0.4578107 0.8684531
vn 0.1902592 -0.4578107 0.8684531
vn -0.08278015 0.5529724 0.8290773
vn -0.08278015 0.5529724 0.8290773
vn -0.08278015 0.5529724 0.8290773
vn -0.2270272 -0.2559934 0.9396415
vn -0.2270272 -0.2559934 0.9396415
vn -0.2270272 -0.2559934 0.9396415
vn 0.3332971 0.2735656 0.902261
vn 0.3332971 0.2735656 0.902261
vn 0.3332971 0.2735656 0.902261
vn 0.9525803 -0.1600832 0.2587744
vn 0.9525803 -0.1600832 0.2587744
vn 0.9525803 -0.1600832 0.2587744
vn 0.1617577 0.852161 0.4976505
vn 0.1617577 0.852161 0.4976505
vn 0.1617577 0.852161 0.4976505
vn 0.9662943 0.1851051 0.1789174
vn 0.9662943 0.1851051 0.1789174
vn 0.9662943 0.1851051 0.1789174
vn -0.7276708 0.2460107 0.640292
vn -0.7276708 0.2460107 0.640292
vn -0.7276708 0.2460107 0.640292
vn -0.02399091 -0.6871445 0.7261245
vn -0.02399091 -0.6871445 0.7261245
vn -0.02399091 -0.6871445 0.7261245
vn -0.4154966 0.6421371 0.6442224
vn -0.4154966 0.6421371 0.6442224
vn -0.4154966 0.6421371 0.6442224
vn -0.5233971 0.02572015 0.8517006
vn -0.5233971 0.02572015 0.8517006
vn -0.5233971 0.02572015 0.8517006
vn -0.1799609 -0.2539714 0.9503223
vn -0.1799609 -0.2539714 0.9503223
vn -0.1799609 -0.2539714 0.9503223
vn 0.9434225 -0.174909 0.2817107
vn 0.9434225 -0.174909 0.2817107
vn 0.9434225 -0.174909 0.2817107
vn -0.7930123 0.1921415 0.5781116
vn -0.7930123 0.1921415 0.5781116
vn -0.7930123 0.1921415 0.5781116
vn -0.155956 -0.8024144 0.5760283
vn -0.155956 -0.8024144 0.5760283
vn -0.155956 -0.8024144 0.5760283
vn 0.6282319 -0.3170274 0.7105055
vn 0.6282319 -0.3170274 0.7105055
vn 0.6282319 -0.3170274 0.7105055
vn 0.2940835 0.8883276 0.3526881
vn 0.2940835 0.8883276 0.3526881
vn 0.2940835 0.8883276 0.3526881
vn 0.9603892 0.2680644 0.07611765
vn 0.9603892 0.2680644 0.07611765
vn 0.9603892 0.2680644 0.07611765
vn 0.3608022 -0.8681797 0.3407135
vn 0.3608022 -0.8681797 0.3407135
vn 0.3608022 -0.8681797 0.3407135
vn -0.7707013 -0.3617205 0.5245739
vn -0.7707013 -0.3617205 0.5245739
vn -0.7707013 -0.3617205 0.5245739
vn 0.8712643 -0.257776 0.4176723
vn 0.8712643 -0.257776 0.4176723
vn 0.8712643 -0.257776 0.4176723
vn -0.2653968 0.8198048 0.5074295
vn -0.2653968 0.8198048 0.5074295
vn -0.2653968 0.8198048 0.5074295
vn -0.3142268 -0.8429058 0.436774
vn -0.3142268 -0.8429058 0.436774
vn -0.3142268 -0.8429058 0.436774
vn 0.2326257 0.9518825 0.1995119
vn 0.2326257 0.9518825 0.1995119
vn 0.2326257 0.9518825 0.1995119
vn 0.9448736 0.3073722 0.1128547
vn 0.9448736 0.3073722 0.1128547
vn 0.9448736 0.3073722 0.1128547
vn 0.3300097 -0.8951111 0.2997828
vn 0.3300097 -0.8951111 0.2997828
vn 0.3300097 -0.8951111 0.2997828
vn -0.7376751 -0.1419914 0.6600561
vn -0.7376751 -0.1419914 0.6600561
vn -0.7376751 -0.1419914 0.6600561
vn 0.9541009 -0.160339 0.2529482
vn 0.9541009 -0.160339 0.2529482
vn 0.9541009 -0.160339 0.2529482
vn 0.3589425 -0.2140717 0.9084787
vn 0.3589425 -0.2140717 0.9084787
vn 0.3589425 -0.2140717 0.9084787
vn 0.3589425 -0.2140717 0.9084787
vn -0.4849578 -0.04324907 0.8734675
vn -0.4849578 -0.04324907 0.8734675
vn -0.4849578 -0.04324907 0.8734675
vn -0.4849578 -0.04324907 0.8734675
vn -0.8378258 0.2215267 0.4989726
vn -0.8378258 0.2215267 0.4989726
vn -0.8378258 0.2215267 0.4989726
vn -0.8323306 0.2123727 0.5119801
vn -0.1314785 0.8782772 0.45972
vn -0.1314785 0.8782772 0.45972
vn -0.1314785 0.8782772 0.45972
vn -0.1314786 0.8782774 0.4597198
g SpikyRock3_0
f 3/3/3 2/2/2 1/1/1
f 6/6/6 5/5/5 4/4/4
f 9/9/9 8/8/8 7/7/7
f 12/12/12 11/11/11 10/10/10
f 15/15/15 14/14/14 13/13/13
f 18/18/18 17/17/17 16/16/16
f 21/21/21 20/20/20 19/19/19
f 24/24/24 23/23/23 22/22/22
f 27/27/27 26/26/26 25/25/25
f 30/30/30 29/29/29 28/28/28
f 33/33/33 32/32/32 31/31/31
f 36/36/36 35/35/35 34/34/34
f 39/39/39 38/38/38 37/37/37
f 42/42/42 41/41/41 40/40/40
f 45/45/45 44/44/44 43/43/43
f 48/48/48 47/47/47 46/46/46
f 51/51/51 50/50/50 49/49/49
f 54/54/54 53/53/53 52/52/52
f 57/57/57 56/56/56 55/55/55
f 60/60/60 59/59/59 58/58/58
f 63/63/63 62/62/62 61/61/61
f 66/66/66 65/65/65 64/64/64
f 69/69/69 68/68/68 67/67/67
f 72/72/72 71/71/71 70/70/70
f 75/75/75 74/74/74 73/73/73
f 78/78/78 77/77/77 76/76/76
f 81/81/81 80/80/80 79/79/79
f 84/84/84 83/83/83 82/82/82
f 87/87/87 86/86/86 85/85/85
f 90/90/90 89/89/89 88/88/88
f 93/93/93 92/92/92 91/91/91
f 96/96/96 95/95/95 94/94/94
f 99/99/99 98/98/98 97/97/97
f 102/102/102 101/101/101 100/100/100
f 105/105/105 104/104/104 103/103/103
f 103/103/103 106/106/106 105/105/105
f 109/109/109 108/108/108 107/107/107
f 110/110/110 109/109/109 107/107/107
f 113/113/113 112/112/112 111/111/111
f 114/114/114 113/113/113 111/111/111
f 117/117/117 116/116/116 115/115/115
f 118/118/118 117/117/117 115/115/115
