g Stepping Stone
v 0.3355154 0.6049574 0.1429064
v 0.8164883 0.1690291 0.1429064
v 0.6551083 -0.4251537 0.1429064
v 0.01423085 -0.7299933 0.1429064
v -0.414037 0.5880788 0.1429064
v -0.6604086 -0.27939 0.1429064
v -0.06337164 -1.2353 -0.9553762
v -1.212858 -0.4675382 -0.9553762
v -0.6604086 -0.27939 0.1429064
v 0.01423085 -0.7299933 0.1429064
v 0.4840499 1.039259 -0.9553762
v 1.303557 0.2965018 -0.9553762
v 0.8164883 0.1690291 0.1429064
v 0.3355154 0.6049574 0.1429064
v 1.028589 -0.715898 -0.9553762
v -0.06337164 -1.2353 -0.9553762
v 0.01423085 -0.7299933 0.1429064
v 0.6551083 -0.4251537 0.1429064
v -1.212858 -0.4675382 -0.9553762
v -0.793077 1.010501 -0.9553762
v -0.414037 0.5880788 0.1429064
v -0.6604086 -0.27939 0.1429064
v -0.793077 1.010501 -0.9553762
v 0.4840499 1.039259 -0.9553762
v 0.3355154 0.6049574 0.1429064
v -0.414037 0.5880788 0.1429064
v 1.303557 0.2965018 -0.9553762
v 1.028589 -0.715898 -0.9553762
v 0.6551083 -0.4251537 0.1429064
v 0.8164883 0.1690291 0.1429064
vt 0 0
vt 0 0
vt 0 0
vt 0 0
vt 0 0
vt 0 0
vt 0 0
vt 0 0
vt 0 0
vt 0 0
vt 0 0
vt 0 0
vt 0 0
vt 0 0
vt 0 0
vt 0 0
vt 0 0
vt 0 0
vt 0 0
vt 0 0
vt 0 0
vt 0 0
vt 0 0
vt 0 0
vt 0 0
vt 0 0
vt 0 0
vt 0 0
vt 0 0
vt 0 0
vn 0 0 1
vn 0 0 1
vn 0 0 1
vn 0 0 1
vn 0 0 1
vn 0 0 1
vn -0.5117505 -0.7661884 0.3886733
vn -0.5117505 -0.7661884 0.3886733
vn -0.5117505 -0.7661884 0.3886733
vn -0.5117505 -0.7661884 0.3886733
vn 0.6269628 0.6917471 0.3583345
vn 0.6269628 0.6917471 0.3583345
vn 0.6269628 0.6917471 0.3583345
vn 0.6269628 0.6917471 0.3583345
vn 0.4008428 -0.842709 0.3593974
vn 0.4008428 -0.842709 0.3593974
vn 0.4008428 -0.842709 0.3593974
vn 0.4008428 -0.842709 0.3593974
vn -0.8814411 0.2503398 0.4004892
vn -0.8814411 0.2503398 0.4004892
vn -0.8814411 0.2503398 0.4004892
vn -0.8814411 0.2503398 0.4004892
vn -0.02095754 0.9306943 0.3651969
vn -0.02095754 0.9306943 0.3651969
vn -0.02095754 0.9306943 0.3651969
vn -0.02095754 0.9306943 0.3651969
vn 0.8967704 -0.2435628 0.3694322
vn 0.8967704 -0.2435628 0.3694322
vn 0.8967704 -0.2435628 0.3694322
vn 0.8967704 -0.2435628 0.3694322
g Stepping Stone_0
f 3/3/3 2/2/2 1/1/1
f 1/1/1 4/4/4 3/3/3
f 1/1/1 5/5/5 4/4/4
f 5/5/5 6/6/6 4/4/4
f 9/9/9 8/8/8 7/7/7
f 10/10/10 9/9/9 7/7/7
f 13/13/13 12/12/12 11/11/11
f 14/14/14 13/13/13 11/11/11
f 17/17/17 16/16/16 15/15/15
f 18/18/18 17/17/17 15/15/15
f 21/21/21 20/20/20 19/19/19
f 22/22/22 21/21/21 19/19/19
f 25/25/25 24/24/24 23/23/23
f 26/26/26 25/25/25 23/23/23
f 29/29/29 28/28/28 27/27/27
f 30/30/30 29/29/29 27/27/27
