g Tail 02
v -1.387672E-09 -0.013524 0.0001685796
v 0.00046059 -0.01272623 0.0004154099
v -1.387672E-09 -0.01260281 0.0004154099
v 0.0007977659 -0.01214222 0.001089762
v -1.387672E-09 -0.01192846 0.001089762
v -0.0004605927 -0.01272623 0.0004154099
v -1.387672E-09 -0.013524 0.0001685796
v 0.001381772 -0.01272623 0.001089762
v 0.0007977661 -0.0130634 0.0004154099
v -1.387672E-09 -0.013524 0.0001685796
v 0.0009211811 -0.01192846 0.002010944
v 0.001595533 -0.01260281 0.002010944
v -0.0007977686 -0.01214222 0.001089762
v -1.387672E-09 -0.01168163 0.002010944
v -0.0007977689 -0.0130634 0.0004154099
v -1.387672E-09 -0.013524 0.0001685796
v 0.001595533 -0.013524 0.001089762
v 0.001842363 -0.013524 0.002010944
v 0.0009211813 -0.013524 0.0004154099
v -1.387672E-09 -0.013524 0.0001685796
v 0.001381772 -0.01272623 0.002932126
v 0.0007977661 -0.01214222 0.002932126
v 0.001595533 -0.013524 0.002932126
v -0.001381775 -0.01272623 0.001089762
v -0.0009211832 -0.01192846 0.002010944
v -0.000921184 -0.013524 0.0004154099
v -1.387672E-09 -0.013524 0.0001685796
v -0.001595536 -0.013524 0.001089762
v -0.001595536 -0.01260281 0.002010944
v -0.001842366 -0.013524 0.002010944
v -1.398651E-09 -0.01192846 0.002932126
v -0.001381775 -0.01272623 0.002932126
v -0.001595536 -0.013524 0.002932126
v -0.0007977688 -0.01214222 0.002932126
v -0.0007977685 -0.0130634 0.003606479
v -0.0009211836 -0.013524 0.003606479
v -1.387672E-09 -0.013524 0.003853309
v -0.0004605924 -0.01272623 0.003606479
v -1.387672E-09 -0.013524 0.003853309
v -1.387672E-09 -0.01260281 0.003606479
v -1.387672E-09 -0.013524 0.003853309
v 0.0004605899 -0.01272623 0.003606479
v -1.387672E-09 -0.013524 0.003853309
v 0.0007977661 -0.0130634 0.003606479
v -1.387672E-09 -0.013524 0.003853309
v 0.0009211811 -0.013524 0.003606479
v -1.387672E-09 -0.013524 0.003853309
v 0.0007977659 -0.01398459 0.003606479
v -1.387672E-09 -0.013524 0.003853309
v 0.001381772 -0.01432176 0.002932126
v 0.0004605898 -0.01432176 0.003606479
v -1.387672E-09 -0.013524 0.003853309
v 0.001595533 -0.01444518 0.002010944
v 0.0007977661 -0.01490577 0.002932126
v 0.001381772 -0.01432176 0.001089762
v -1.398651E-09 -0.01444518 0.003606479
v -1.387672E-09 -0.013524 0.003853309
v 0.0009211808 -0.01511953 0.002010944
v 0.0007977661 -0.01398459 0.0004154099
v -1.387672E-09 -0.013524 0.0001685796
v -1.30714E-09 -0.01511953 0.002932126
v 0.0007977659 -0.01490577 0.001089762
v -0.0004605926 -0.01432176 0.003606479
v -1.387672E-09 -0.013524 0.003853309
v -1.581673E-09 -0.01536636 0.002010944
v 0.00046059 -0.01432176 0.0004154099
v -1.387672E-09 -0.013524 0.0001685796
v -0.0007977686 -0.01490577 0.002932126
v -1.398651E-09 -0.01511953 0.001089762
v -0.0007977686 -0.01398459 0.003606479
v -1.387672E-09 -0.013524 0.003853309
v -0.0009211838 -0.01511953 0.002010944
v -1.398651E-09 -0.01444518 0.0004154099
v -1.387672E-09 -0.013524 0.0001685796
v -0.001381775 -0.01432176 0.002932126
v -0.0007977688 -0.01490577 0.001089762
v -0.0009211836 -0.013524 0.003606479
v -1.387672E-09 -0.013524 0.003853309
v -0.001595536 -0.013524 0.002932126
v -0.001595536 -0.01444518 0.002010944
v -0.001842366 -0.013524 0.002010944
v -0.001381775 -0.01432176 0.001089762
v -0.001595536 -0.013524 0.001089762
v -0.0004605927 -0.01432176 0.0004154099
v -1.387672E-09 -0.013524 0.0001685796
v -0.0007977689 -0.01398459 0.0004154099
v -1.387672E-09 -0.013524 0.0001685796
v -0.000921184 -0.013524 0.0004154099
v -1.387672E-09 -0.013524 0.0001685796
vt 0.7083333 0
vt 0.6666666 0.1666667
vt 0.75 0.1666667
vt 0.6666666 0.3333333
vt 0.75 0.3333333
vt 0.8333334 0.1666667
vt 0.7916666 0
vt 0.5833333 0.3333333
vt 0.5833333 0.1666667
vt 0.625 0
vt 0.6666666 0.5
vt 0.5833333 0.5
vt 0.8333334 0.3333333
vt 0.75 0.5
vt 0.9166667 0.1666667
vt 0.875 0
vt 0.5 0.3333333
vt 0.5 0.5
vt 0.5 0.1666667
vt 0.5416666 0
vt 0.5833333 0.6666666
vt 0.6666666 0.6666666
vt 0.5 0.6666666
vt 0.9166666 0.3333333
vt 0.8333333 0.5
vt 1 0.1666667
vt 0.9583334 0
vt 1 0.3333333
vt 0.9166666 0.5
vt 1 0.5
vt 0.75 0.6666666
vt 0.9166667 0.6666666
vt 1 0.6666666
vt 0.8333334 0.6666666
vt 0.9166666 0.8333334
vt 1 0.8333334
vt 0.9583334 1
vt 0.8333333 0.8333334
vt 0.875 1
vt 0.75 0.8333334
vt 0.7916666 1
vt 0.6666666 0.8333334
vt 0.7083333 1
vt 0.5833333 0.8333333
vt 0.6249999 1
vt 0.5 0.8333333
vt 0.5416666 1
vt 0.4166667 0.8333333
vt 0.4583333 1
vt 0.4166667 0.6666666
vt 0.3333333 0.8333333
vt 0.375 1
vt 0.4166667 0.5
vt 0.3333333 0.6666666
vt 0.4166667 0.3333333
vt 0.25 0.8333333
vt 0.2916667 1
vt 0.3333333 0.5
vt 0.4166667 0.1666668
vt 0.4583333 0
vt 0.25 0.6666666
vt 0.3333333 0.3333333
vt 0.1666667 0.8333333
vt 0.2083334 1
vt 0.25 0.5
vt 0.3333333 0.1666668
vt 0.375 0
vt 0.1666667 0.6666666
vt 0.25 0.3333333
vt 0.08333334 0.8333334
vt 0.1250001 1
vt 0.1666667 0.5
vt 0.25 0.1666668
vt 0.2916667 0
vt 0.08333334 0.6666666
vt 0.1666667 0.3333333
vt 2.980232E-08 0.8333334
vt 0.04166675 1
vt 2.980232E-08 0.6666666
vt 0.08333331 0.5
vt 0 0.5
vt 0.08333334 0.3333333
vt 2.980232E-08 0.3333333
vt 0.1666667 0.1666668
vt 0.2083334 0
vt 0.08333334 0.1666668
vt 0.1250001 0
vt 2.980232E-08 0.1666667
vt 0.04166675 0
vn 0 -1.93798E-07 -1
vn 0.2654499 0.4597722 -0.8474349
vn 0 0.5309004 -0.8474343
vn 0.4379914 0.7586239 -0.4823414
vn 0 0.8759831 -0.4823419
vn -0.26545 0.4597723 -0.8474348
vn 0 -1.93798E-07 -1
vn 0.7586237 0.4379914 -0.4823418
vn 0.4597727 0.2654499 -0.8474345
vn 0 -1.93798E-07 -1
vn 0.5 0.8660254 0
vn 0.8660255 0.4999999 2.755187E-07
vn -0.4379915 0.7586238 -0.4823417
vn 0 1 -2.17236E-07
vn -0.459773 0.2654501 -0.8474344
vn 0 -1.93798E-07 -1
vn 0.8759831 -1.621838E-07 -0.4823418
vn 1 -1.801469E-07 1.165656E-07
vn 0.5308998 0 -0.8474345
vn 0 -1.93798E-07 -1
vn 0.7586237 0.4379914 0.4823418
vn 0.4379912 0.7586241 0.4823414
vn 0.8759832 -1.831107E-07 0.4823415
vn -0.758624 0.4379915 -0.4823414
vn -0.5000001 0.8660253 0
vn -0.5308999 0 -0.8474345
vn 0 -1.93798E-07 -1
vn -0.8759832 0 -0.4823417
vn -0.8660254 0.5 1.589531E-07
vn -1 0 0
vn 0 0.8759831 0.4823417
vn -0.7586239 0.4379916 0.4823414
vn -0.8759832 0 0.4823416
vn -0.4379914 0.7586239 0.4823416
vn -0.4597731 0.2654502 0.8474343
vn -0.5309002 0 0.8474344
vn -1.874231E-07 0 1
vn -0.2654497 0.4597729 0.8474345
vn -1.874231E-07 0 1
vn -2.041787E-07 0.5308999 0.8474345
vn -1.874231E-07 0 1
vn 0.2654495 0.4597729 0.8474346
vn -1.874231E-07 0 1
vn 0.4597731 0.26545 0.8474344
vn -1.874231E-07 0 1
vn 0.5309002 -1.06528E-07 0.8474343
vn -1.874231E-07 0 1
vn 0.4597727 -0.2654502 0.8474345
vn -1.874231E-07 0 1
vn 0.7586238 -0.4379915 0.4823416
vn 0.2654503 -0.4597723 0.8474347
vn -1.874231E-07 0 1
vn 0.8660251 -0.5000005 -1.112672E-07
vn 0.4379917 -0.7586239 0.4823411
vn 0.7586237 -0.4379916 -0.4823417
vn -2.891477E-07 -0.5309007 0.847434
vn -1.874231E-07 0 1
vn 0.4999999 -0.8660255 0
vn 0.4597728 -0.2654503 -0.8474344
vn 0 -1.93798E-07 -1
vn 0 -0.8759834 0.4823412
vn 0.4379919 -0.7586239 -0.482341
vn -0.2654505 -0.4597726 0.8474345
vn -1.874231E-07 0 1
vn 0 -1 2.331311E-07
vn 0.2654505 -0.4597722 -0.8474347
vn 0 -1.93798E-07 -1
vn -0.437992 -0.7586237 0.4823411
vn 0 -0.8759834 -0.4823413
vn -0.4597726 -0.26545 0.8474345
vn -1.874231E-07 0 1
vn -0.5000005 -0.8660251 0
vn -1.12869E-07 -0.5309002 -0.8474343
vn 0 -1.93798E-07 -1
vn -0.7586239 -0.4379915 0.4823414
vn -0.437992 -0.7586235 -0.4823415
vn -0.5309002 0 0.8474344
vn -1.874231E-07 0 1
vn -0.8759832 0 0.4823416
vn -0.8660255 -0.4999998 -1.271624E-07
vn -1 0 0
vn -0.7586237 -0.4379914 -0.4823417
vn -0.8759832 0 -0.4823417
vn -0.2654503 -0.4597723 -0.8474347
vn 0 -1.93798E-07 -1
vn -0.4597724 -0.26545 -0.8474347
vn 0 -1.93798E-07 -1
vn -0.5308999 0 -0.8474345
vn 0 -1.93798E-07 -1
g Tail 02_0
f 3/3/3 2/2/2 1/1/1
f 4/4/4 2/2/2 3/3/3
f 5/5/5 4/4/4 3/3/3
f 5/5/5 3/3/3 6/6/6
f 6/6/6 3/3/3 7/7/7
f 4/4/4 8/8/8 2/2/2
f 8/8/8 9/9/9 2/2/2
f 2/2/2 9/9/9 10/10/10
f 11/11/11 4/4/4 5/5/5
f 12/12/12 8/8/8 4/4/4
f 11/11/11 12/12/12 4/4/4
f 13/13/13 5/5/5 6/6/6
f 14/14/14 11/11/11 5/5/5
f 14/14/14 5/5/5 13/13/13
f 13/13/13 6/6/6 15/15/15
f 15/15/15 6/6/6 16/16/16
f 8/8/8 17/17/17 9/9/9
f 12/12/12 18/18/18 8/8/8
f 18/18/18 17/17/17 8/8/8
f 17/17/17 19/19/19 9/9/9
f 9/9/9 19/19/19 20/20/20
f 21/21/21 12/12/12 11/11/11
f 22/22/22 11/11/11 14/14/14
f 22/22/22 21/21/21 11/11/11
f 23/23/23 18/18/18 12/12/12
f 21/21/21 23/23/23 12/12/12
f 24/24/24 13/13/13 15/15/15
f 25/25/25 14/14/14 13/13/13
f 25/25/25 13/13/13 24/24/24
f 24/24/24 15/15/15 26/26/26
f 26/26/26 15/15/15 27/27/27
f 28/28/28 24/24/24 26/26/26
f 29/29/29 24/24/24 28/28/28
f 29/29/29 25/25/25 24/24/24
f 30/30/30 29/29/29 28/28/28
f 31/31/31 14/14/14 25/25/25
f 31/31/31 22/22/22 14/14/14
f 32/32/32 29/29/29 30/30/30
f 33/33/33 32/32/32 30/30/30
f 34/34/34 25/25/25 29/29/29
f 34/34/34 31/31/31 25/25/25
f 32/32/32 34/34/34 29/29/29
f 35/35/35 32/32/32 33/33/33
f 36/36/36 35/35/35 33/33/33
f 37/37/37 35/35/35 36/36/36
f 35/35/35 38/38/38 32/32/32
f 38/38/38 34/34/34 32/32/32
f 39/39/39 38/38/38 35/35/35
f 38/38/38 40/40/40 34/34/34
f 40/40/40 31/31/31 34/34/34
f 41/41/41 40/40/40 38/38/38
f 40/40/40 42/42/42 31/31/31
f 42/42/42 22/22/22 31/31/31
f 43/43/43 42/42/42 40/40/40
f 42/42/42 44/44/44 22/22/22
f 45/45/45 44/44/44 42/42/42
f 44/44/44 21/21/21 22/22/22
f 44/44/44 46/46/46 21/21/21
f 47/47/47 46/46/46 44/44/44
f 46/46/46 23/23/23 21/21/21
f 46/46/46 48/48/48 23/23/23
f 49/49/49 48/48/48 46/46/46
f 48/48/48 50/50/50 23/23/23
f 23/23/23 50/50/50 18/18/18
f 48/48/48 51/51/51 50/50/50
f 52/52/52 51/51/51 48/48/48
f 50/50/50 53/53/53 18/18/18
f 18/18/18 53/53/53 17/17/17
f 51/51/51 54/54/54 50/50/50
f 50/50/50 54/54/54 53/53/53
f 53/53/53 55/55/55 17/17/17
f 17/17/17 55/55/55 19/19/19
f 51/51/51 56/56/56 54/54/54
f 57/57/57 56/56/56 51/51/51
f 54/54/54 58/58/58 53/53/53
f 53/53/53 58/58/58 55/55/55
f 55/55/55 59/59/59 19/19/19
f 19/19/19 59/59/59 60/60/60
f 56/56/56 61/61/61 54/54/54
f 54/54/54 61/61/61 58/58/58
f 55/55/55 62/62/62 59/59/59
f 58/58/58 62/62/62 55/55/55
f 56/56/56 63/63/63 61/61/61
f 64/64/64 63/63/63 56/56/56
f 61/61/61 65/65/65 58/58/58
f 58/58/58 65/65/65 62/62/62
f 62/62/62 66/66/66 59/59/59
f 59/59/59 66/66/66 67/67/67
f 63/63/63 68/68/68 61/61/61
f 61/61/61 68/68/68 65/65/65
f 62/62/62 69/69/69 66/66/66
f 65/65/65 69/69/69 62/62/62
f 63/63/63 70/70/70 68/68/68
f 71/71/71 70/70/70 63/63/63
f 68/68/68 72/72/72 65/65/65
f 65/65/65 72/72/72 69/69/69
f 69/69/69 73/73/73 66/66/66
f 66/66/66 73/73/73 74/74/74
f 70/70/70 75/75/75 68/68/68
f 68/68/68 75/75/75 72/72/72
f 69/69/69 76/76/76 73/73/73
f 72/72/72 76/76/76 69/69/69
f 70/70/70 77/77/77 75/75/75
f 78/78/78 77/77/77 70/70/70
f 77/77/77 79/79/79 75/75/75
f 75/75/75 80/80/80 72/72/72
f 75/75/75 79/79/79 80/80/80
f 72/72/72 80/80/80 76/76/76
f 79/79/79 81/81/81 80/80/80
f 80/80/80 81/81/81 82/82/82
f 80/80/80 82/82/82 76/76/76
f 81/81/81 83/83/83 82/82/82
f 76/76/76 84/84/84 73/73/73
f 76/76/76 82/82/82 84/84/84
f 73/73/73 84/84/84 85/85/85
f 82/82/82 83/83/83 86/86/86
f 82/82/82 86/86/86 84/84/84
f 84/84/84 86/86/86 87/87/87
f 83/83/83 88/88/88 86/86/86
f 86/86/86 88/88/88 89/89/89
