g Tail 03
v -5.545717E-09 -0.0173066 0.0001998906
v 0.0003243361 -0.01674483 0.0003737049
v -5.545717E-09 -0.01665792 0.0003737049
v 0.0005617705 -0.01633357 0.0008485735
v -5.545717E-09 -0.01618305 0.0008485735
v -0.0003243471 -0.01674483 0.0003737049
v -5.545717E-09 -0.0173066 0.0001998906
v 0.0009730191 -0.01674483 0.0008485735
v 0.0005617706 -0.01698226 0.0003737049
v -5.545717E-09 -0.0173066 0.0001998906
v 0.0006486776 -0.01618305 0.001497257
v 0.001123546 -0.01665792 0.001497257
v -0.0005617815 -0.01633357 0.0008485735
v -5.545717E-09 -0.01600924 0.001497257
v -0.0005617817 -0.01698226 0.0003737049
v -5.545717E-09 -0.0173066 0.0001998906
v 0.001123546 -0.0173066 0.0008485735
v 0.001297361 -0.0173066 0.001497257
v 0.0006486777 -0.0173066 0.0003737049
v -5.545717E-09 -0.0173066 0.0001998906
v 0.0009730191 -0.01674483 0.00214594
v 0.0005617706 -0.01633357 0.00214594
v 0.001123546 -0.0173066 0.00214594
v -0.0009730301 -0.01674483 0.0008485735
v -0.0006486883 -0.01618305 0.001497257
v -0.0006486888 -0.0173066 0.0003737049
v -5.545717E-09 -0.0173066 0.0001998906
v -0.001123558 -0.0173066 0.0008485735
v -0.001123557 -0.01665792 0.001497257
v -0.001297371 -0.0173066 0.001497257
v -5.553448E-09 -0.01618305 0.00214594
v -0.0009730301 -0.01674483 0.00214594
v -0.001123558 -0.0173066 0.00214594
v -0.0005617816 -0.01633357 0.00214594
v -0.0005617815 -0.01698226 0.002620808
v -0.0006486885 -0.0173066 0.002620808
v -5.545717E-09 -0.0173066 0.002794623
v -0.0003243469 -0.01674483 0.002620808
v -5.545717E-09 -0.0173066 0.002794623
v -5.545717E-09 -0.01665792 0.002620808
v -5.545717E-09 -0.0173066 0.002794623
v 0.000324336 -0.01674483 0.002620808
v -5.545717E-09 -0.0173066 0.002794623
v 0.0005617706 -0.01698226 0.002620808
v -5.545717E-09 -0.0173066 0.002794623
v 0.0006486776 -0.0173066 0.002620808
v -5.545717E-09 -0.0173066 0.002794623
v 0.0005617705 -0.01763094 0.002620808
v -5.545717E-09 -0.0173066 0.002794623
v 0.0009730191 -0.01786838 0.00214594
v 0.000324336 -0.01786838 0.002620808
v -5.545717E-09 -0.0173066 0.002794623
v 0.001123546 -0.01795528 0.001497257
v 0.0005617706 -0.01827963 0.00214594
v 0.0009730191 -0.01786838 0.0008485735
v -5.553448E-09 -0.01795528 0.002620808
v -5.545717E-09 -0.0173066 0.002794623
v 0.0006486772 -0.01843015 0.001497257
v 0.0005617706 -0.01763094 0.0003737049
v -5.545717E-09 -0.0173066 0.0001998906
v -5.489007E-09 -0.01843015 0.00214594
v 0.0005617705 -0.01827963 0.0008485735
v -0.0003243471 -0.01786838 0.002620808
v -5.545717E-09 -0.0173066 0.002794623
v -5.68233E-09 -0.01860397 0.001497257
v 0.0003243361 -0.01786838 0.0003737049
v -5.545717E-09 -0.0173066 0.0001998906
v -0.0005617815 -0.01827963 0.00214594
v -5.553448E-09 -0.01843015 0.0008485735
v -0.0005617815 -0.01763094 0.002620808
v -5.545717E-09 -0.0173066 0.002794623
v -0.0006486886 -0.01843015 0.001497257
v -5.553448E-09 -0.01795528 0.0003737049
v -5.545717E-09 -0.0173066 0.0001998906
v -0.0009730301 -0.01786838 0.00214594
v -0.0005617816 -0.01827963 0.0008485735
v -0.0006486885 -0.0173066 0.002620808
v -5.545717E-09 -0.0173066 0.002794623
v -0.001123558 -0.0173066 0.00214594
v -0.001123557 -0.01795528 0.001497257
v -0.001297371 -0.0173066 0.001497257
v -0.0009730301 -0.01786838 0.0008485735
v -0.001123558 -0.0173066 0.0008485735
v -0.0003243472 -0.01786838 0.0003737049
v -5.545717E-09 -0.0173066 0.0001998906
v -0.0005617817 -0.01763094 0.0003737049
v -5.545717E-09 -0.0173066 0.0001998906
v -0.0006486888 -0.0173066 0.0003737049
v -5.545717E-09 -0.0173066 0.0001998906
vt 0.7083333 0
vt 0.6666666 0.1666667
vt 0.75 0.1666667
vt 0.6666666 0.3333333
vt 0.75 0.3333333
vt 0.8333334 0.1666667
vt 0.7916666 0
vt 0.5833333 0.3333333
vt 0.5833333 0.1666667
vt 0.625 0
vt 0.6666666 0.5
vt 0.5833333 0.5
vt 0.8333334 0.3333333
vt 0.75 0.5
vt 0.9166667 0.1666667
vt 0.875 0
vt 0.5 0.3333333
vt 0.5 0.5
vt 0.5 0.1666667
vt 0.5416666 0
vt 0.5833333 0.6666666
vt 0.6666666 0.6666666
vt 0.5 0.6666666
vt 0.9166666 0.3333333
vt 0.8333333 0.5
vt 1 0.1666667
vt 0.9583334 0
vt 1 0.3333333
vt 0.9166666 0.5
vt 1 0.5
vt 0.75 0.6666666
vt 0.9166667 0.6666666
vt 1 0.6666666
vt 0.8333334 0.6666666
vt 0.9166666 0.8333334
vt 1 0.8333334
vt 0.9583334 1
vt 0.8333333 0.8333334
vt 0.875 1
vt 0.75 0.8333334
vt 0.7916666 1
vt 0.6666666 0.8333334
vt 0.7083333 1
vt 0.5833333 0.8333333
vt 0.6249999 1
vt 0.5 0.8333333
vt 0.5416666 1
vt 0.4166667 0.8333333
vt 0.4583333 1
vt 0.4166667 0.6666666
vt 0.3333333 0.8333333
vt 0.375 1
vt 0.4166667 0.5
vt 0.3333333 0.6666666
vt 0.4166667 0.3333333
vt 0.25 0.8333333
vt 0.2916667 1
vt 0.3333333 0.5
vt 0.4166667 0.1666668
vt 0.4583333 0
vt 0.25 0.6666666
vt 0.3333333 0.3333333
vt 0.1666667 0.8333333
vt 0.2083334 1
vt 0.25 0.5
vt 0.3333333 0.1666668
vt 0.375 0
vt 0.1666667 0.6666666
vt 0.25 0.3333333
vt 0.08333334 0.8333334
vt 0.1250001 1
vt 0.1666667 0.5
vt 0.25 0.1666668
vt 0.2916667 0
vt 0.08333334 0.6666666
vt 0.1666667 0.3333333
vt 2.980232E-08 0.8333334
vt 0.04166675 1
vt 2.980232E-08 0.6666666
vt 0.08333331 0.5
vt 0 0.5
vt 0.08333334 0.3333333
vt 2.980232E-08 0.3333333
vt 0.1666667 0.1666668
vt 0.2083334 0
vt 0.08333334 0.1666668
vt 0.1250001 0
vt 2.980232E-08 0.1666667
vt 0.04166675 0
vn 0 6.986929E-07 -1
vn 0.2654503 0.4597709 -0.8474355
vn 0 0.5309003 -0.8474343
vn 0.4379914 0.7586238 -0.4823417
vn 0 0.8759835 -0.4823411
vn -0.2654503 0.4597711 -0.8474354
vn 0 6.986929E-07 -1
vn 0.758624 0.4379907 -0.4823419
vn 0.459773 0.2654502 -0.8474343
vn 0 6.986929E-07 -1
vn 0.4999996 0.8660256 4.556657E-07
vn 0.8660256 0.4999997 2.967124E-07
vn -0.4379915 0.7586238 -0.4823416
vn 0 1 -1.430574E-07
vn -0.4597727 0.2654502 -0.8474345
vn 0 6.986929E-07 -1
vn 0.8759831 7.32443E-07 -0.4823418
vn 1 4.874563E-07 0
vn 0.5308999 7.190642E-07 -0.8474345
vn 0 6.986929E-07 -1
vn 0.7586237 0.4379906 0.4823424
vn 0.4379908 0.7586237 0.4823423
vn 0.8759832 4.917831E-07 0.4823417
vn -0.7586243 0.437991 -0.4823415
vn -0.4999996 0.8660256 0
vn -0.5309005 4.159667E-07 -0.8474342
vn 0 6.986929E-07 -1
vn -0.8759836 7.899922E-07 -0.4823409
vn -0.8660255 0.4999997 4.76859E-07
vn -1 7.523778E-07 0
vn 0 0.8759834 0.4823413
vn -0.7586241 0.4379909 0.4823416
vn -0.8759832 7.742971E-07 0.4823416
vn -0.4379913 0.7586241 0.4823413
vn -0.459773 0.2654505 0.8474343
vn -0.5308996 5.110809E-07 0.8474348
vn 0 8.542411E-07 1
vn -0.2654499 0.459772 0.847435
vn 0 8.542411E-07 1
vn 0 0.5308995 0.8474348
vn 0 8.542411E-07 1
vn 0.2654496 0.4597718 0.8474352
vn 0 8.542411E-07 1
vn 0.459773 0.2654502 0.8474344
vn 0 8.542411E-07 1
vn 0.5308999 5.529313E-07 0.8474345
vn 0 8.542411E-07 1
vn 0.4597723 -0.2654492 0.8474351
vn 0 8.542411E-07 1
vn 0.7586241 -0.4379909 0.4823416
vn 0.265449 -0.4597723 0.8474351
vn 0 8.542411E-07 1
vn 0.8660258 -0.4999994 0
vn 0.4379912 -0.7586246 0.4823405
vn 0.7586239 -0.4379908 -0.4823421
vn 3.297296E-07 -0.5309001 0.8474344
vn 0 8.542411E-07 1
vn 0.4999997 -0.8660256 3.549951E-07
vn 0.4597721 -0.265449 -0.8474352
vn 0 6.986929E-07 -1
vn 1.307934E-07 -0.875984 0.4823402
vn 0.4379913 -0.7586246 -0.4823403
vn -0.265449 -0.4597724 0.847435
vn 0 8.542411E-07 1
vn 0 -1 2.437276E-07
vn 0.2654492 -0.459772 -0.8474352
vn 0 6.986929E-07 -1
vn -0.437991 -0.7586243 0.4823414
vn 0 -0.875984 -0.48234
vn -0.4597725 -0.2654493 0.8474349
vn 0 8.542411E-07 1
vn -0.4999997 -0.8660255 0
vn 0 -0.5308998 -0.8474345
vn 0 6.986929E-07 -1
vn -0.7586239 -0.4379907 0.4823422
vn -0.4379909 -0.7586241 -0.4823416
vn -0.5308996 5.110809E-07 0.8474348
vn 0 8.542411E-07 1
vn -0.8759832 7.742971E-07 0.4823416
vn -0.8660259 -0.4999992 0
vn -1 7.523778E-07 0
vn -0.758624 -0.4379905 -0.4823422
vn -0.8759836 7.899922E-07 -0.4823409
vn -0.265449 -0.4597719 -0.8474354
vn 0 6.986929E-07 -1
vn -0.4597726 -0.2654491 -0.8474349
vn 0 6.986929E-07 -1
vn -0.5309005 4.159667E-07 -0.8474342
vn 0 6.986929E-07 -1
g Tail 03_0
f 3/3/3 2/2/2 1/1/1
f 4/4/4 2/2/2 3/3/3
f 5/5/5 4/4/4 3/3/3
f 5/5/5 3/3/3 6/6/6
f 6/6/6 3/3/3 7/7/7
f 4/4/4 8/8/8 2/2/2
f 8/8/8 9/9/9 2/2/2
f 2/2/2 9/9/9 10/10/10
f 11/11/11 4/4/4 5/5/5
f 12/12/12 8/8/8 4/4/4
f 11/11/11 12/12/12 4/4/4
f 13/13/13 5/5/5 6/6/6
f 14/14/14 11/11/11 5/5/5
f 14/14/14 5/5/5 13/13/13
f 13/13/13 6/6/6 15/15/15
f 15/15/15 6/6/6 16/16/16
f 8/8/8 17/17/17 9/9/9
f 12/12/12 18/18/18 8/8/8
f 18/18/18 17/17/17 8/8/8
f 17/17/17 19/19/19 9/9/9
f 9/9/9 19/19/19 20/20/20
f 21/21/21 12/12/12 11/11/11
f 22/22/22 11/11/11 14/14/14
f 22/22/22 21/21/21 11/11/11
f 23/23/23 18/18/18 12/12/12
f 21/21/21 23/23/23 12/12/12
f 24/24/24 13/13/13 15/15/15
f 25/25/25 14/14/14 13/13/13
f 25/25/25 13/13/13 24/24/24
f 24/24/24 15/15/15 26/26/26
f 26/26/26 15/15/15 27/27/27
f 28/28/28 24/24/24 26/26/26
f 29/29/29 24/24/24 28/28/28
f 29/29/29 25/25/25 24/24/24
f 30/30/30 29/29/29 28/28/28
f 31/31/31 14/14/14 25/25/25
f 31/31/31 22/22/22 14/14/14
f 32/32/32 29/29/29 30/30/30
f 33/33/33 32/32/32 30/30/30
f 34/34/34 25/25/25 29/29/29
f 34/34/34 31/31/31 25/25/25
f 32/32/32 34/34/34 29/29/29
f 35/35/35 32/32/32 33/33/33
f 36/36/36 35/35/35 33/33/33
f 37/37/37 35/35/35 36/36/36
f 35/35/35 38/38/38 32/32/32
f 38/38/38 34/34/34 32/32/32
f 39/39/39 38/38/38 35/35/35
f 38/38/38 40/40/40 34/34/34
f 40/40/40 31/31/31 34/34/34
f 41/41/41 40/40/40 38/38/38
f 40/40/40 42/42/42 31/31/31
f 42/42/42 22/22/22 31/31/31
f 43/43/43 42/42/42 40/40/40
f 42/42/42 44/44/44 22/22/22
f 45/45/45 44/44/44 42/42/42
f 44/44/44 21/21/21 22/22/22
f 44/44/44 46/46/46 21/21/21
f 47/47/47 46/46/46 44/44/44
f 46/46/46 23/23/23 21/21/21
f 46/46/46 48/48/48 23/23/23
f 49/49/49 48/48/48 46/46/46
f 48/48/48 50/50/50 23/23/23
f 23/23/23 50/50/50 18/18/18
f 48/48/48 51/51/51 50/50/50
f 52/52/52 51/51/51 48/48/48
f 50/50/50 53/53/53 18/18/18
f 18/18/18 53/53/53 17/17/17
f 51/51/51 54/54/54 50/50/50
f 50/50/50 54/54/54 53/53/53
f 53/53/53 55/55/55 17/17/17
f 17/17/17 55/55/55 19/19/19
f 51/51/51 56/56/56 54/54/54
f 57/57/57 56/56/56 51/51/51
f 54/54/54 58/58/58 53/53/53
f 53/53/53 58/58/58 55/55/55
f 55/55/55 59/59/59 19/19/19
f 19/19/19 59/59/59 60/60/60
f 56/56/56 61/61/61 54/54/54
f 54/54/54 61/61/61 58/58/58
f 55/55/55 62/62/62 59/59/59
f 58/58/58 62/62/62 55/55/55
f 56/56/56 63/63/63 61/61/61
f 64/64/64 63/63/63 56/56/56
f 61/61/61 65/65/65 58/58/58
f 58/58/58 65/65/65 62/62/62
f 62/62/62 66/66/66 59/59/59
f 59/59/59 66/66/66 67/67/67
f 63/63/63 68/68/68 61/61/61
f 61/61/61 68/68/68 65/65/65
f 62/62/62 69/69/69 66/66/66
f 65/65/65 69/69/69 62/62/62
f 63/63/63 70/70/70 68/68/68
f 71/71/71 70/70/70 63/63/63
f 68/68/68 72/72/72 65/65/65
f 65/65/65 72/72/72 69/69/69
f 69/69/69 73/73/73 66/66/66
f 66/66/66 73/73/73 74/74/74
f 70/70/70 75/75/75 68/68/68
f 68/68/68 75/75/75 72/72/72
f 69/69/69 76/76/76 73/73/73
f 72/72/72 76/76/76 69/69/69
f 70/70/70 77/77/77 75/75/75
f 78/78/78 77/77/77 70/70/70
f 77/77/77 79/79/79 75/75/75
f 75/75/75 80/80/80 72/72/72
f 75/75/75 79/79/79 80/80/80
f 72/72/72 80/80/80 76/76/76
f 79/79/79 81/81/81 80/80/80
f 80/80/80 81/81/81 82/82/82
f 80/80/80 82/82/82 76/76/76
f 81/81/81 83/83/83 82/82/82
f 76/76/76 84/84/84 73/73/73
f 76/76/76 82/82/82 84/84/84
f 73/73/73 84/84/84 85/85/85
f 82/82/82 83/83/83 86/86/86
f 82/82/82 86/86/86 84/84/84
f 84/84/84 86/86/86 87/87/87
f 83/83/83 88/88/88 86/86/86
f 86/86/86 88/88/88 89/89/89
