g Totend Stairs Collider
v -9.104953 -17.30398 5.301606
v -11.92086 -17.30398 3.830703
v -11.92086 -17.30398 6.983506
v -9.104953 -17.30398 8.454409
v -6.536705 -17.30398 5.301606
v -6.536705 -17.30398 8.454409
v -6.536705 17.30398 8.454409
v -9.104953 17.30398 5.301606
v -6.536705 17.30398 5.301606
v -9.104953 17.30398 8.454409
v -11.92086 17.30398 3.830703
v -11.92086 17.30398 6.983506
v -6.536705 17.30398 5.301606
v -9.104953 17.30398 5.301606
v -9.104953 -17.30398 5.301606
v -6.536705 -17.30398 5.301606
v -6.536705 -17.30398 8.454409
v -9.104953 -17.30398 8.454409
v -9.104953 17.30398 8.454409
v -6.536705 17.30398 8.454409
v 7.922138 -17.30398 -1.451274
v -6.536705 -17.30398 5.301606
v -6.536705 -17.30398 8.454409
v 8.065784 -17.30398 1.554039
v 8.065784 17.30398 1.554039
v -6.536705 17.30398 8.454409
v -6.536705 17.30398 5.301606
v 7.922138 17.30398 -1.451274
v 7.922138 17.30398 -1.451274
v -6.536705 17.30398 5.301606
v -6.536705 -17.30398 5.301606
v 7.922138 -17.30398 -1.451274
v 8.065784 -17.30398 1.554039
v -6.536705 -17.30398 8.454409
v -6.536705 17.30398 8.454409
v 8.065784 17.30398 1.554039
v 8.065784 17.30398 1.554039
v 10.84568 17.30398 -1.15717
v 10.84568 -17.30398 -1.15717
v 8.065784 -17.30398 1.554039
v 7.922138 -17.30398 -1.451274
v 10.84568 -17.30398 -4.309972
v 10.84568 17.30398 -4.309972
v 7.922138 17.30398 -1.451274
v 7.922138 17.30398 -1.451274
v 10.84568 17.30398 -4.309972
v 10.84568 17.30398 -1.15717
v 8.065784 17.30398 1.554039
v 8.065784 -17.30398 1.554039
v 10.84568 -17.30398 -1.15717
v 10.84568 -17.30398 -4.309972
v 7.922138 -17.30398 -1.451274
v 10.84568 -17.30398 -1.15717
v 10.84568 17.30398 -1.15717
v 10.84568 17.30398 -4.309972
v 10.84568 -17.30398 -4.309972
v -11.92086 17.30398 6.983506
v -11.92086 -17.30398 6.983506
v -11.92086 -17.30398 3.830703
v -11.92086 17.30398 3.830703
v -9.104953 17.30398 5.301606
v -11.92086 17.30398 3.830703
v -11.92086 -17.30398 3.830703
v -9.104953 -17.30398 5.301606
v -9.104953 -17.30398 8.454409
v -11.92086 -17.30398 6.983506
v -11.92086 17.30398 6.983506
v -9.104953 17.30398 8.454409
vt 0.375 0.7441491
vt 0.375 0.7441491
vt 0.625 0.7441492
vt 0.625 0.7441492
vt 0.375 0.7441491
vt 0.625 0.7441492
vt 0.625 0.4980497
vt 0.375 0.4980497
vt 0.375 0.4980497
vt 0.625 0.4980497
vt 0.375 0.4980497
vt 0.625 0.4980497
vt 0.375 0.4980497
vt 0.375 0.4980497
vt 0.375 0.7441491
vt 0.375 0.7441491
vt 0.625 0.7441492
vt 0.625 0.7441492
vt 0.625 0.4980497
vt 0.625 0.4980497
vt 0.375 0.004261401
vt 0.375 0.7441491
vt 0.625 0.7441492
vt 0.625 0.004261429
vt 0.625 0.2514205
vt 0.625 0.4980497
vt 0.375 0.4980497
vt 0.375 0.2514205
vt 0.375 0.2514205
vt 0.375 0.4980497
vt 0.375 0.7441491
vt 0.375 0.004261401
vt 0.625 0.004261429
vt 0.625 0.7441492
vt 0.625 0.4980497
vt 0.625 0.2514205
vt 0.625 0.2514205
vt 0.625 0.2514205
vt 0.625 0.004261429
vt 0.625 0.004261429
vt 0.375 0.004261401
vt 0.375 0.004261401
vt 0.375 0.2514205
vt 0.375 0.2514205
vt 0.375 0.2514205
vt 0.375 0.2514205
vt 0.625 0.2514205
vt 0.625 0.2514205
vt 0.625 0.004261429
vt 0.625 0.004261429
vt 0.375 0.004261401
vt 0.375 0.004261401
vt 0.625 0.004261429
vt 0.625 0.2514205
vt 0.375 0.2514205
vt 0.375 0.004261401
vt 0.625 0.4980497
vt 0.625 0.7441492
vt 0.375 0.7441491
vt 0.375 0.4980497
vt 0.375 0.4980497
vt 0.375 0.4980497
vt 0.375 0.7441491
vt 0.375 0.7441491
vt 0.625 0.7441492
vt 0.625 0.7441492
vt 0.625 0.4980497
vt 0.625 0.4980497
vn 0 -1 0
vn 0 -1 0
vn 0 -1 0
vn 0 -1 0
vn 0 -1 0
vn 0 -1 0
vn 0 1 0
vn 0 1 0
vn 0 1 0
vn 0 1 0
vn 0 1 0
vn 0 1 0
vn 0 0 -1
vn 0 0 -1
vn 0 0 -1
vn 0 0 -1
vn 0 0 1
vn 0 0 1
vn 0 0 1
vn 0 0 1
vn 0 -1 0
vn 0 -1 0
vn 0 -1 0
vn 0 -1 0
vn 0 1 0
vn 0 1 0
vn 0 1 0
vn 0 1 0
vn -0.4231644 0 -0.9060529
vn -0.4231644 0 -0.9060529
vn -0.4231644 0 -0.9060529
vn -0.4231644 0 -0.9060529
vn 0.4272468 0 0.904135
vn 0.4272468 0 0.904135
vn 0.4272468 0 0.904135
vn 0.4272468 0 0.904135
vn 0.6982073 0 0.7158957
vn 0.6982073 0 0.7158957
vn 0.6982073 0 0.7158957
vn 0.6982073 0 0.7158957
vn -0.6991333 0 -0.7149913
vn -0.6991333 0 -0.7149913
vn -0.6991333 0 -0.7149913
vn -0.6991333 0 -0.7149913
vn 0 1 0
vn 0 1 0
vn 0 1 0
vn 0 1 0
vn 0 -1 0
vn 0 -1 0
vn 0 -1 0
vn 0 -1 0
vn 1 0 0
vn 1 0 0
vn 1 0 0
vn 1 0 0
vn -1 0 0
vn -1 0 0
vn -1 0 0
vn -1 0 0
vn 0.462995 0 -0.886361
vn 0.462995 0 -0.886361
vn 0.462995 0 -0.886361
vn 0.462995 0 -0.886361
vn -0.4629951 0 0.8863609
vn -0.4629951 0 0.8863609
vn -0.4629951 0 0.8863609
vn -0.4629951 0 0.8863609
g Totend Stairs Collider_0
f 3/3/3 2/2/2 1/1/1
f 4/4/4 3/3/3 1/1/1
f 4/4/4 1/1/1 5/5/5
f 6/6/6 4/4/4 5/5/5
f 9/9/9 8/8/8 7/7/7
f 8/8/8 10/10/10 7/7/7
f 8/8/8 11/11/11 10/10/10
f 11/11/11 12/12/12 10/10/10
f 15/15/15 14/14/14 13/13/13
f 16/16/16 15/15/15 13/13/13
f 19/19/19 18/18/18 17/17/17
f 20/20/20 19/19/19 17/17/17
f 23/23/23 22/22/22 21/21/21
f 24/24/24 23/23/23 21/21/21
f 27/27/27 26/26/26 25/25/25
f 28/28/28 27/27/27 25/25/25
f 31/31/31 30/30/30 29/29/29
f 32/32/32 31/31/31 29/29/29
f 35/35/35 34/34/34 33/33/33
f 36/36/36 35/35/35 33/33/33
f 39/39/39 38/38/38 37/37/37
f 40/40/40 39/39/39 37/37/37
f 43/43/43 42/42/42 41/41/41
f 44/44/44 43/43/43 41/41/41
f 47/47/47 46/46/46 45/45/45
f 48/48/48 47/47/47 45/45/45
f 51/51/51 50/50/50 49/49/49
f 52/52/52 51/51/51 49/49/49
f 55/55/55 54/54/54 53/53/53
f 56/56/56 55/55/55 53/53/53
f 59/59/59 58/58/58 57/57/57
f 60/60/60 59/59/59 57/57/57
f 63/63/63 62/62/62 61/61/61
f 64/64/64 63/63/63 61/61/61
f 67/67/67 66/66/66 65/65/65
f 68/68/68 67/67/67 65/65/65
