g Totend Insignia
v 7.027674 5.219248 0.3286541
v 7.027674 5.219248 0.8682389
v 7.027674 -5.219249 0.8682389
v 7.027674 -5.219249 0.3286541
v 9.094631 8.563655 0.3286541
v 9.094631 8.563655 0.8682389
v 9.094631 -8.563655 0.8682389
v 9.094631 -8.563655 0.3286541
v 6.000619 3.557437 0.3286541
v 6.000619 3.557437 0.8682389
v -1.114256 -1.530432E-07 0.8682389
v -1.114256 -1.530432E-07 0.3286541
v 7.027674 -5.219249 0.3286541
v 7.027674 -5.219249 0.8682389
v -3.410822 0 0.8682389
v -3.410822 0 0.3286541
v 9.094631 -8.563655 0.3286541
v 9.094631 -8.563655 0.8682389
v -8.032678 0 0.8682389
v -8.032678 0 0.3286541
v 6.000619 -3.557438 0.3286541
v 6.000619 -3.557438 0.8682389
v 6.000619 3.557437 0.8682389
v 6.000619 3.557437 0.3286541
v 0.6943191 -3.940901E-07 0.3286541
v 0.6943191 -3.940901E-07 0.8682389
v 5.1918 2.24874 0.8682389
v 5.1918 2.24874 0.3286541
v 0.6943191 -3.940901E-07 0
v 5.1918 2.24874 0
v -1.114256 -1.530432E-07 0.3286541
v -1.114256 -1.530432E-07 0.8682389
v 6.000619 -3.557438 0.8682389
v 6.000619 -3.557438 0.3286541
v 5.1918 2.24874 0.3286541
v 5.1918 2.24874 0.8682389
v 5.1918 -2.248741 0.8682389
v 5.1918 -2.248741 0.3286541
v 5.1918 2.24874 0
v 5.1918 -2.248741 0
v 9.95377 -9.95377 0
v 9.95377 9.95377 0.3286541
v 9.95377 9.95377 0
v 9.95377 -9.95377 0.3286541
v 9.95377 9.95377 0.8682389
v 9.95377 -9.95377 0.8682389
v 9.95377 9.95377 0
v -9.95377 0 0.3286541
v -9.95377 0 0
v 9.95377 9.95377 0.3286541
v -9.95377 0 0.8682389
v 9.95377 9.95377 0.8682389
v 5.1918 -2.248741 0
v 0.6943191 -3.940901E-07 0.3286541
v 0.6943191 -3.940901E-07 0
v 5.1918 -2.248741 0.3286541
v 0.6943191 -3.940901E-07 0.8682389
v 5.1918 -2.248741 0.8682389
v -9.95377 0 0
v 9.95377 -9.95377 0.3286541
v 9.95377 -9.95377 0
v -9.95377 0 0.3286541
v 9.95377 -9.95377 0.8682389
v -9.95377 0 0.8682389
v -5.720549 0 0.3286541
v -5.720549 0 0.8682389
v 8.060616 -6.890583 0.8682389
v 8.060616 -6.890583 0.3286541
v -8.032678 0 0.3286541
v -8.032678 0 0.8682389
v 9.094631 8.563655 0.8682389
v 9.094631 8.563655 0.3286541
v -3.410822 0 0.3286541
v -3.410822 0 0.8682389
v 7.027674 5.219248 0.8682389
v 7.027674 5.219248 0.3286541
v 8.060616 -6.890583 0.3286541
v 8.060616 -6.890583 0.8682389
v 8.060616 6.890583 0.8682389
v 8.060616 6.890583 0.3286541
v 8.060616 6.890583 0.3286541
v 8.060616 6.890583 0.8682389
v -5.720549 0 0.8682389
v -5.720549 0 0.3286541
v 5.1918 2.24874 0.8682389
v 6.000619 3.557437 0.8682389
v 6.000619 -3.557438 0.8682389
v 5.1918 -2.248741 0.8682389
v 0.6943191 -3.940901E-07 0.8682389
v -1.114256 -1.530432E-07 0.8682389
v 7.027674 5.219248 0.8682389
v 8.060616 6.890583 0.8682389
v 8.060616 -6.890583 0.8682389
v 7.027674 -5.219249 0.8682389
v -3.410822 0 0.8682389
v -5.720549 0 0.8682389
v 9.094631 8.563655 0.8682389
v 9.95377 9.95377 0.8682389
v 9.95377 -9.95377 0.8682389
v 9.094631 -8.563655 0.8682389
v -8.032678 0 0.8682389
v -9.95377 0 0.8682389
v 6.000619 3.557437 0.3286541
v 7.027674 5.219248 0.3286541
v 7.027674 -5.219249 0.3286541
v 6.000619 -3.557438 0.3286541
v -1.114256 -1.530432E-07 0.3286541
v -3.410822 0 0.3286541
v 8.060616 6.890583 0.3286541
v 9.094631 8.563655 0.3286541
v 9.094631 -8.563655 0.3286541
v 8.060616 -6.890583 0.3286541
v -5.720549 0 0.3286541
v -8.032678 0 0.3286541
v 5.1918 2.24874 0
v 5.1918 -2.248741 0
v 6.000619 -3.557438 0
v 6.000619 3.557437 0
v 0.6943191 -3.940901E-07 0
v -1.114256 -1.530432E-07 0
v -3.410822 0 0
v 7.027674 -5.219249 0
v 7.027674 5.219248 0
v -5.720549 0 0
v 8.060616 -6.890583 0
v 8.060616 6.890583 0
v -8.032678 0 0
v 9.094631 -8.563655 0
v 9.094631 8.563655 0
v -9.95377 0 0
v 9.95377 -9.95377 0
v 9.95377 9.95377 0
vt 0.8530156 0.6886821
vt 0.8530156 0.6886821
vt 0.8530156 0.1643334
vt 0.8530156 0.1643334
vt 0.9568435 0.9085932
vt 0.9568435 0.9085932
vt 0.9568435 0.04825034
vt 0.9568435 0.04825034
vt 0.8014243 0.5794101
vt 0.8014243 0.5794101
vt 0.4440284 0.2220142
vt 0.4440284 0.2220142
vt 0.8530156 0.1643334
vt 0.8530156 0.1643334
vt 0.3286668 0.1643334
vt 0.3286668 0.1643334
vt 0.9568435 0.04825034
vt 0.9568435 0.04825034
vt 0.09650073 0.04825037
vt 0.09650073 0.04825037
vt 0.8014243 0.2220141
vt 0.8014243 0.2220141
vt 0.8014243 0.5794101
vt 0.8014243 0.5794101
vt 0.5348772 0.2674385
vt 0.5348772 0.2674385
vt 0.7607955 0.4933569
vt 0.7607955 0.4933569
vt 0.5348772 0.2674385
vt 0.7607955 0.4933569
vt 0.4440284 0.2220142
vt 0.4440284 0.2220142
vt 0.8014243 0.2220141
vt 0.8014243 0.2220141
vt 0.7607955 0.4933569
vt 0.7607955 0.4933569
vt 0.7607955 0.2674385
vt 0.7607955 0.2674385
vt 0.7607955 0.4933569
vt 0.7607955 0.2674385
vt 1 0
vt 1 1
vt 1 1
vt 1 0
vt 1 1
vt 1 0
vt 1 1
vt 0 0
vt 0 0
vt 1 1
vt 0 0
vt 1 1
vt 0.7607955 0.2674385
vt 0.5348772 0.2674385
vt 0.5348772 0.2674385
vt 0.7607955 0.2674385
vt 0.5348772 0.2674385
vt 0.7607955 0.2674385
vt 0 0
vt 1 0
vt 1 0
vt 0 0
vt 1 0
vt 0 0
vt 0.2126441 0.106322
vt 0.2126441 0.106322
vt 0.9049026 0.106322
vt 0.9049026 0.106322
vt 0.09650073 0.04825037
vt 0.09650073 0.04825037
vt 0.9568435 0.9085932
vt 0.9568435 0.9085932
vt 0.3286668 0.1643334
vt 0.3286668 0.1643334
vt 0.8530156 0.6886821
vt 0.8530156 0.6886821
vt 0.9049026 0.106322
vt 0.9049026 0.106322
vt 0.9049026 0.7985805
vt 0.9049026 0.7985805
vt 0.9049026 0.7985805
vt 0.9049026 0.7985805
vt 0.2126441 0.106322
vt 0.2126441 0.106322
vt 0.7607955 0.4933569
vt 0.8014243 0.5794101
vt 0.8014243 0.2220141
vt 0.7607955 0.2674385
vt 0.5348772 0.2674385
vt 0.4440284 0.2220142
vt 0.8530156 0.6886821
vt 0.9049026 0.7985805
vt 0.9049026 0.106322
vt 0.8530156 0.1643334
vt 0.3286668 0.1643334
vt 0.2126441 0.106322
vt 0.9568435 0.9085932
vt 1 1
vt 1 0
vt 0.9568435 0.04825034
vt 0.09650073 0.04825037
vt 0 0
vt 0.8014243 0.5794101
vt 0.8530156 0.6886821
vt 0.8530156 0.1643334
vt 0.8014243 0.2220141
vt 0.4440284 0.2220142
vt 0.3286668 0.1643334
vt 0.9049026 0.7985805
vt 0.9568435 0.9085932
vt 0.9568435 0.04825034
vt 0.9049026 0.106322
vt 0.2126441 0.106322
vt 0.09650073 0.04825037
vt 0.7607955 0.4933569
vt 0.7607955 0.2674385
vt 0.8014243 0.2220141
vt 0.8014243 0.5794101
vt 0.5348772 0.2674385
vt 0.4440284 0.2220142
vt 0.3286668 0.1643334
vt 0.8530156 0.1643334
vt 0.8530156 0.6886821
vt 0.2126441 0.106322
vt 0.9049026 0.106322
vt 0.9049026 0.7985805
vt 0.09650073 0.04825037
vt 0.9568435 0.04825034
vt 0.9568435 0.9085932
vt 0 0
vt 1 0
vt 1 1
vn -1 0 0
vn -1 0 0
vn -1 0 0
vn -1 0 0
vn -1 0 0
vn -1 0 0
vn -1 0 0
vn -1 0 0
vn -0.4472136 0.8944272 0
vn -0.4472136 0.8944272 0
vn -0.4472136 0.8944272 0
vn -0.4472136 0.8944272 0
vn 0.4472137 0.8944272 0
vn 0.4472137 0.8944272 0
vn 0.4472137 0.8944272 0
vn 0.4472137 0.8944272 0
vn 0.4472137 0.8944272 0
vn 0.4472137 0.8944272 0
vn 0.4472137 0.8944272 0
vn 0.4472137 0.8944272 0
vn 1 0 0
vn 1 0 0
vn 1 0 0
vn 1 0 0
vn 0.4472136 -0.8944272 0
vn 0.4472136 -0.8944272 0
vn 0.4472136 -0.8944272 0
vn 0.4472136 -0.8944272 0
vn 0.4472136 -0.8944272 0
vn 0.4472136 -0.8944272 0
vn -0.4472137 -0.8944272 0
vn -0.4472137 -0.8944272 0
vn -0.4472137 -0.8944272 0
vn -0.4472137 -0.8944272 0
vn -1 0 0
vn -1 0 0
vn -1 0 0
vn -1 0 0
vn -1 0 0
vn -1 0 0
vn 1 0 0
vn 1 0 0
vn 1 0 0
vn 1 0 0
vn 1 0 0
vn 1 0 0
vn -0.4472136 0.8944272 0
vn -0.4472136 0.8944272 0
vn -0.4472136 0.8944272 0
vn -0.4472136 0.8944272 0
vn -0.4472136 0.8944272 0
vn -0.4472136 0.8944272 0
vn 0.4472136 0.8944272 0
vn 0.4472136 0.8944272 0
vn 0.4472136 0.8944272 0
vn 0.4472136 0.8944272 0
vn 0.4472136 0.8944272 0
vn 0.4472136 0.8944272 0
vn -0.4472136 -0.8944272 0
vn -0.4472136 -0.8944272 0
vn -0.4472136 -0.8944272 0
vn -0.4472136 -0.8944272 0
vn -0.4472136 -0.8944272 0
vn -0.4472136 -0.8944272 0
vn -0.4472136 -0.8944272 0
vn -0.4472136 -0.8944272 0
vn -0.4472136 -0.8944272 0
vn -0.4472136 -0.8944272 0
vn 0.4472137 -0.8944272 0
vn 0.4472137 -0.8944272 0
vn 0.4472137 -0.8944272 0
vn 0.4472137 -0.8944272 0
vn 0.4472136 -0.8944272 0
vn 0.4472136 -0.8944272 0
vn 0.4472136 -0.8944272 0
vn 0.4472136 -0.8944272 0
vn 1 0 0
vn 1 0 0
vn 1 0 0
vn 1 0 0
vn -0.4472136 0.8944272 0
vn -0.4472136 0.8944272 0
vn -0.4472136 0.8944272 0
vn -0.4472136 0.8944272 0
vn 0 0 1
vn 0 0 1
vn 0 0 1
vn 0 0 1
vn 0 0 1
vn 0 0 1
vn 0 0 1
vn 0 0 1
vn 0 0 1
vn 0 0 1
vn 0 0 1
vn 0 0 1
vn 0 0 1
vn 0 0 1
vn 0 0 1
vn 0 0 1
vn 0 0 1
vn 0 0 1
vn 0 0 1
vn 0 0 1
vn 0 0 1
vn 0 0 1
vn 0 0 1
vn 0 0 1
vn 0 0 1
vn 0 0 1
vn 0 0 1
vn 0 0 1
vn 0 0 1
vn 0 0 1
vn 0 0 -1
vn 0 0 -1
vn 0 0 -1
vn 0 0 -1
vn 0 0 -1
vn 0 0 -1
vn 0 0 -1
vn 0 0 -1
vn 0 0 -1
vn 0 0 -1
vn 0 0 -1
vn 0 0 -1
vn 0 0 -1
vn 0 0 -1
vn 0 0 -1
vn 0 0 -1
vn 0 0 -1
vn 0 0 -1
g Totend Insignia_0
f 3/3/3 2/2/2 1/1/1
f 4/4/4 3/3/3 1/1/1
f 7/7/7 6/6/6 5/5/5
f 8/8/8 7/7/7 5/5/5
f 11/11/11 10/10/10 9/9/9
f 12/12/12 11/11/11 9/9/9
f 15/15/15 14/14/14 13/13/13
f 16/16/16 15/15/15 13/13/13
f 19/19/19 18/18/18 17/17/17
f 20/20/20 19/19/19 17/17/17
f 23/23/23 22/22/22 21/21/21
f 24/24/24 23/23/23 21/21/21
f 27/27/27 26/26/26 25/25/25
f 28/28/28 27/27/27 25/25/25
f 28/28/28 25/25/25 29/29/29
f 30/30/30 28/28/28 29/29/29
f 33/33/33 32/32/32 31/31/31
f 34/34/34 33/33/33 31/31/31
f 37/37/37 36/36/36 35/35/35
f 38/38/38 37/37/37 35/35/35
f 38/38/38 35/35/35 39/39/39
f 40/40/40 38/38/38 39/39/39
f 43/43/43 42/42/42 41/41/41
f 42/42/42 44/44/44 41/41/41
f 42/42/42 45/45/45 44/44/44
f 45/45/45 46/46/46 44/44/44
f 49/49/49 48/48/48 47/47/47
f 48/48/48 50/50/50 47/47/47
f 48/48/48 51/51/51 50/50/50
f 51/51/51 52/52/52 50/50/50
f 55/55/55 54/54/54 53/53/53
f 54/54/54 56/56/56 53/53/53
f 54/54/54 57/57/57 56/56/56
f 57/57/57 58/58/58 56/56/56
f 61/61/61 60/60/60 59/59/59
f 60/60/60 62/62/62 59/59/59
f 60/60/60 63/63/63 62/62/62
f 63/63/63 64/64/64 62/62/62
f 67/67/67 66/66/66 65/65/65
f 68/68/68 67/67/67 65/65/65
f 71/71/71 70/70/70 69/69/69
f 72/72/72 71/71/71 69/69/69
f 75/75/75 74/74/74 73/73/73
f 76/76/76 75/75/75 73/73/73
f 79/79/79 78/78/78 77/77/77
f 80/80/80 79/79/79 77/77/77
f 83/83/83 82/82/82 81/81/81
f 84/84/84 83/83/83 81/81/81
f 87/87/87 86/86/86 85/85/85
f 88/88/88 87/87/87 85/85/85
f 85/85/85 86/86/86 89/89/89
f 90/90/90 87/87/87 88/88/88
f 89/89/89 90/90/90 88/88/88
f 86/86/86 90/90/90 89/89/89
f 93/93/93 92/92/92 91/91/91
f 94/94/94 93/93/93 91/91/91
f 91/91/91 92/92/92 95/95/95
f 96/96/96 93/93/93 94/94/94
f 95/95/95 96/96/96 94/94/94
f 92/92/92 96/96/96 95/95/95
f 99/99/99 98/98/98 97/97/97
f 100/100/100 99/99/99 97/97/97
f 97/97/97 98/98/98 101/101/101
f 102/102/102 99/99/99 100/100/100
f 101/101/101 102/102/102 100/100/100
f 98/98/98 102/102/102 101/101/101
f 105/105/105 104/104/104 103/103/103
f 106/106/106 105/105/105 103/103/103
f 103/103/103 104/104/104 107/107/107
f 108/108/108 105/105/105 106/106/106
f 107/107/107 108/108/108 106/106/106
f 104/104/104 108/108/108 107/107/107
f 111/111/111 110/110/110 109/109/109
f 112/112/112 111/111/111 109/109/109
f 109/109/109 110/110/110 113/113/113
f 114/114/114 111/111/111 112/112/112
f 113/113/113 114/114/114 112/112/112
f 110/110/110 114/114/114 113/113/113
f 117/117/117 116/116/116 115/115/115
f 118/118/118 117/117/117 115/115/115
f 118/118/118 115/115/115 119/119/119
f 120/120/120 119/119/119 116/116/116
f 117/117/117 120/120/120 116/116/116
f 120/120/120 118/118/118 119/119/119
f 121/121/121 120/120/120 117/117/117
f 122/122/122 117/117/117 118/118/118
f 122/122/122 121/121/121 117/117/117
f 123/123/123 118/118/118 120/120/120
f 121/121/121 123/123/123 120/120/120
f 123/123/123 122/122/122 118/118/118
f 124/124/124 121/121/121 122/122/122
f 125/125/125 122/122/122 123/123/123
f 125/125/125 124/124/124 122/122/122
f 126/126/126 123/123/123 121/121/121
f 124/124/124 126/126/126 121/121/121
f 126/126/126 125/125/125 123/123/123
f 127/127/127 124/124/124 125/125/125
f 128/128/128 125/125/125 126/126/126
f 128/128/128 127/127/127 125/125/125
f 129/129/129 126/126/126 124/124/124
f 127/127/127 129/129/129 124/124/124
f 129/129/129 128/128/128 126/126/126
f 130/130/130 127/127/127 128/128/128
f 131/131/131 130/130/130 128/128/128
f 131/131/131 128/128/128 129/129/129
f 130/130/130 132/132/132 127/127/127
f 132/132/132 131/131/131 129/129/129
f 132/132/132 129/129/129 127/127/127
