g Tower Ruins
v -1.668825 -1.315031 9.685755E-08
v -1.7647 -1.766897 0.01410533
v -0.8992991 -1.700043 0.01950433
v -1.120491 -1.219301 9.685755E-08
v 1.725335 -0.8471047 1.094009E-07
v 1.322943 -0.9399118 1.094009E-07
v 1.254734 -1.700146 1.094009E-07
v 1.753137 -1.766712 1.094009E-07
v -1.668825 -1.315031 0.4884143
v -1.120491 -1.219301 0.4884143
v -0.8992991 -1.700043 0.5079186
v -1.7647 -1.766897 0.5025196
v 1.725335 -0.8471047 0.4884143
v 1.753137 -1.766712 0.4884143
v 1.254734 -1.700146 0.4884143
v 1.322943 -0.9399118 0.4884143
v -1.120491 -1.219301 9.685755E-08
v -0.8992991 -1.700043 0.01950433
v -0.8992991 -1.700043 0.5079186
v -1.120491 -1.219301 0.4884143
v 1.753137 -1.766712 1.094009E-07
v 1.254734 -1.700146 1.094009E-07
v 1.254734 -1.700146 0.4884143
v 1.753137 -1.766712 0.4884143
v -1.7647 -1.766897 0.01410533
v -1.668825 -1.315031 9.685755E-08
v -1.668825 -1.315031 0.4884143
v -1.7647 -1.766897 0.5025196
v -1.668825 -1.315031 9.685755E-08
v -1.120491 -1.219301 9.685755E-08
v -1.120491 -1.219301 0.4884143
v -1.668825 -1.315031 0.4884143
v 1.322943 -0.9399118 1.094009E-07
v 1.725335 -0.8471047 1.094009E-07
v 1.725335 -0.8471047 0.4884143
v 1.322943 -0.9399118 0.4884143
v 1.725335 -0.8471047 1.094009E-07
v 1.753137 -1.766712 1.094009E-07
v 1.753137 -1.766712 0.4884143
v 1.725335 -0.8471047 0.4884143
v -1.087854 1.777311 1.043081E-07
v -1.680629 1.913736 1.043081E-07
v -1.734284 1.351621 1.043081E-07
v -1.280613 1.147733 1.043081E-07
v -1.087854 1.777311 0.4884143
v -1.280613 1.147733 0.4884143
v -1.734284 1.351621 0.4884143
v -1.680629 1.913736 0.4884143
v -1.280613 1.147733 1.043081E-07
v -1.734284 1.351621 1.043081E-07
v -1.734284 1.351621 0.4884143
v -1.280613 1.147733 0.4884143
v -1.680629 1.913736 1.043081E-07
v -1.087854 1.777311 1.043081E-07
v -1.087854 1.777311 0.4884143
v -1.680629 1.913736 0.4884143
v -1.087854 1.777311 1.043081E-07
v -1.280613 1.147733 1.043081E-07
v -1.280613 1.147733 0.4884143
v -1.087854 1.777311 0.4884143
v -1.734284 1.351621 1.043081E-07
v -1.680629 1.913736 1.043081E-07
v -1.680629 1.913736 0.4884143
v -1.734284 1.351621 0.4884143
v 1.254734 -1.700146 1.094009E-07
v 1.322943 -0.9399118 1.094009E-07
v 1.322943 -0.9399118 0.4884143
v 1.254734 -1.700146 0.4884143
v -0.8992991 -1.700043 0.01950433
v -1.7647 -1.766897 0.01410533
v -1.7647 -1.766897 0.5025196
v -0.8992991 -1.700043 0.5079186
v 1.623926 1.25425 1.490116E-07
v 1.681268 1.878494 1.490116E-07
v 1.153685 1.677224 1.490116E-07
v 1.172206 1.180189 1.490116E-07
v 1.623926 1.25425 0.4884144
v 1.172206 1.180189 0.4884144
v 1.153685 1.677224 0.4884144
v 1.681268 1.878494 0.4884144
v 1.172206 1.180189 1.490116E-07
v 1.153685 1.677224 1.490116E-07
v 1.153685 1.677224 0.4884144
v 1.172206 1.180189 0.4884144
v 1.681268 1.878494 1.490116E-07
v 1.623926 1.25425 1.490116E-07
v 1.623926 1.25425 0.4884144
v 1.681268 1.878494 0.4884144
v 1.623926 1.25425 1.490116E-07
v 1.172206 1.180189 1.490116E-07
v 1.172206 1.180189 0.4884144
v 1.623926 1.25425 0.4884144
v 1.153685 1.677224 1.490116E-07
v 1.681268 1.878494 1.490116E-07
v 1.681268 1.878494 0.4884144
v 1.153685 1.677224 0.4884144
v 0.9507419 -0.5565575 1.639128E-07
v 0.7400556 0.983201 1.639128E-07
v -0.6189917 0.7710384 1.639128E-07
v -0.7895561 -0.327782 1.564622E-07
v 0.9507419 -0.5565575 0.4884144
v -0.7895561 -0.327782 0.4884144
v -0.6189917 0.7710384 0.4884144
v 0.7400556 0.983201 0.4884144
v -0.7895561 -0.327782 1.564622E-07
v -0.6189917 0.7710384 1.639128E-07
v -0.6189917 0.7710384 0.4884144
v -0.7895561 -0.327782 0.4884144
v 0.7400556 0.983201 1.639128E-07
v 0.9507419 -0.5565575 1.639128E-07
v 0.9507419 -0.5565575 0.4884144
v 0.7400556 0.983201 0.4884144
v 0.9507419 -0.5565575 1.639128E-07
v -0.7895561 -0.327782 1.564622E-07
v -0.7895561 -0.327782 0.4884144
v 0.9507419 -0.5565575 0.4884144
v -0.6189917 0.7710384 1.639128E-07
v 0.7400556 0.983201 1.639128E-07
v 0.7400556 0.983201 0.4884144
v -0.6189917 0.7710384 0.4884144
vt 0 0
vt 0 0
vt 0 0
vt 0 0
vt 0 0
vt 0 0
vt 0 0
vt 0 0
vt 0 0
vt 0 0
vt 0 0
vt 0 0
vt 0 0
vt 0 0
vt 0 0
vt 0 0
vt 0 0
vt 0 0
vt 0 0
vt 0 0
vt 0 0
vt 0 0
vt 0 0
vt 0 0
vt 0 0
vt 0 0
vt 0 0
vt 0 0
vt 0 0
vt 0 0
vt 0 0
vt 0 0
vt 0 0
vt 0 0
vt 0 0
vt 0 0
vt 0 0
vt 0 0
vt 0 0
vt 0 0
vt 0 0
vt 0 0
vt 0 0
vt 0 0
vt 0 0
vt 0 0
vt 0 0
vt 0 0
vt 0 0
vt 0 0
vt 0 0
vt 0 0
vt 0 0
vt 0 0
vt 0 0
vt 0 0
vt 0 0
vt 0 0
vt 0 0
vt 0 0
vt 0 0
vt 0 0
vt 0 0
vt 0 0
vt 0 0
vt 0 0
vt 0 0
vt 0 0
vt 0 0
vt 0 0
vt 0 0
vt 0 0
vt 0 0
vt 0 0
vt 0 0
vt 0 0
vt 0 0
vt 0 0
vt 0 0
vt 0 0
vt 0 0
vt 0 0
vt 0 0
vt 0 0
vt 0 0
vt 0 0
vt 0 0
vt 0 0
vt 0 0
vt 0 0
vt 0 0
vt 0 0
vt 0 0
vt 0 0
vt 0 0
vt 0 0
vt 0 0
vt 0 0
vt 0 0
vt 0 0
vt 0 0
vt 0 0
vt 0 0
vt 0 0
vt 0 0
vt 0 0
vt 0 0
vt 0 0
vt 0 0
vt 0 0
vt 0 0
vt 0 0
vt 0 0
vt 0 0
vt 0 0
vt 0 0
vt 0 0
vt 0 0
vt 0 0
vt 0 0
vn 0.007837236 -0.03496192 -0.9993579
vn 0.007837236 -0.03496192 -0.9993579
vn 0.007837236 -0.03496192 -0.9993579
vn 0.007837236 -0.03496192 -0.9993579
vn 0 0 -1
vn 0 0 -1
vn 0 0 -1
vn 0 0 -1
vn -0.007837262 0.03496196 0.9993579
vn -0.007837262 0.03496196 0.9993579
vn -0.007837262 0.03496196 0.9993579
vn -0.007837262 0.03496196 0.9993579
vn 0 0 1
vn 0 0 1
vn 0 0 1
vn 0 0 1
vn 0.9084539 0.417985 0
vn 0.9084539 0.417985 0
vn 0.9084539 0.417985 0
vn 0.9084539 0.417985 0
vn -0.132383 -0.9911986 0
vn -0.132383 -0.9911986 0
vn -0.132383 -0.9911986 0
vn -0.132383 -0.9911986 0
vn -0.9782234 0.2075548 0
vn -0.9782234 0.2075548 0
vn -0.9782234 0.2075548 0
vn -0.9782234 0.2075548 0
vn -0.171982 0.9851001 0
vn -0.171982 0.9851001 0
vn -0.171982 0.9851001 0
vn -0.171982 0.9851001 0
vn -0.2247388 0.9744191 0
vn -0.2247388 0.9744191 0
vn -0.2247388 0.9744191 0
vn -0.2247388 0.9744191 0
vn 0.9995433 0.03021839 0
vn 0.9995433 0.03021839 0
vn 0.9995433 0.03021839 0
vn 0.9995433 0.03021839 0
vn 0 0 -1
vn 0 0 -1
vn 0 0 -1
vn 0 0 -1
vn 0 0 1
vn 0 0 1
vn 0 0 1
vn 0 0 1
vn -0.4099238 -0.9121198 0
vn -0.4099238 -0.9121198 0
vn -0.4099238 -0.9121198 0
vn -0.4099238 -0.9121198 0
vn 0.2242837 0.9745239 0
vn 0.2242837 0.9745239 0
vn 0.2242837 0.9745239 0
vn 0.2242837 0.9745239 0
vn 0.9561868 -0.2927573 0
vn 0.9561868 -0.2927573 0
vn 0.9561868 -0.2927573 0
vn 0.9561868 -0.2927573 0
vn -0.9954754 0.09501991 0
vn -0.9954754 0.09501991 0
vn -0.9954754 0.09501991 0
vn -0.9954754 0.09501991 0
vn -0.9959991 0.08936315 0
vn -0.9959991 0.08936315 0
vn -0.9959991 0.08936315 0
vn -0.9959991 0.08936315 0
vn 0.07702257 -0.9970293 0
vn 0.07702257 -0.9970293 0
vn 0.07702257 -0.9970293 0
vn 0.07702257 -0.9970293 0
vn 0 0 -1
vn 0 0 -1
vn 0 0 -1
vn 0 0 -1
vn 0 0 1
vn 0 0 1
vn 0 0 1
vn 0 0 1
vn -0.9993066 -0.03723628 0
vn -0.9993066 -0.03723628 0
vn -0.9993066 -0.03723628 0
vn -0.9993066 -0.03723628 0
vn 0.9958075 -0.09147278 0
vn 0.9958075 -0.09147278 0
vn 0.9958075 -0.09147278 0
vn 0.9958075 -0.09147278 0
vn 0.1617923 -0.9868248 0
vn 0.1617923 -0.9868248 0
vn 0.1617923 -0.9868248 0
vn 0.1617923 -0.9868248 0
vn -0.3564378 0.9343191 0
vn -0.3564378 0.9343191 0
vn -0.3564378 0.9343191 0
vn -0.3564378 0.9343191 0
vn 0 0 -1
vn 0 0 -1
vn 0 0 -1
vn 0 0 -1
vn 0 0 1
vn 0 0 1
vn 0 0 1
vn 0 0 1
vn -0.9881661 0.1533882 0
vn -0.9881661 0.1533882 0
vn -0.9881661 0.1533882 0
vn -0.9881661 0.1533882 0
vn 0.9907681 0.1355675 0
vn 0.9907681 0.1355675 0
vn 0.9907681 0.1355675 0
vn 0.9907681 0.1355675 0
vn -0.1303363 -0.9914698 0
vn -0.1303363 -0.9914698 0
vn -0.1303363 -0.9914698 0
vn -0.1303363 -0.9914698 0
vn -0.1542431 0.9880329 0
vn -0.1542431 0.9880329 0
vn -0.1542431 0.9880329 0
vn -0.1542431 0.9880329 0
g Tower Ruins_0
f 3/3/3 2/2/2 1/1/1
f 4/4/4 3/3/3 1/1/1
f 7/7/7 6/6/6 5/5/5
f 8/8/8 7/7/7 5/5/5
f 11/11/11 10/10/10 9/9/9
f 12/12/12 11/11/11 9/9/9
f 15/15/15 14/14/14 13/13/13
f 16/16/16 15/15/15 13/13/13
f 19/19/19 18/18/18 17/17/17
f 20/20/20 19/19/19 17/17/17
f 23/23/23 22/22/22 21/21/21
f 24/24/24 23/23/23 21/21/21
f 27/27/27 26/26/26 25/25/25
f 28/28/28 27/27/27 25/25/25
f 31/31/31 30/30/30 29/29/29
f 32/32/32 31/31/31 29/29/29
f 35/35/35 34/34/34 33/33/33
f 36/36/36 35/35/35 33/33/33
f 39/39/39 38/38/38 37/37/37
f 40/40/40 39/39/39 37/37/37
f 43/43/43 42/42/42 41/41/41
f 44/44/44 43/43/43 41/41/41
f 47/47/47 46/46/46 45/45/45
f 48/48/48 47/47/47 45/45/45
f 51/51/51 50/50/50 49/49/49
f 52/52/52 51/51/51 49/49/49
f 55/55/55 54/54/54 53/53/53
f 56/56/56 55/55/55 53/53/53
f 59/59/59 58/58/58 57/57/57
f 60/60/60 59/59/59 57/57/57
f 63/63/63 62/62/62 61/61/61
f 64/64/64 63/63/63 61/61/61
f 67/67/67 66/66/66 65/65/65
f 68/68/68 67/67/67 65/65/65
f 71/71/71 70/70/70 69/69/69
f 72/72/72 71/71/71 69/69/69
f 75/75/75 74/74/74 73/73/73
f 76/76/76 75/75/75 73/73/73
f 79/79/79 78/78/78 77/77/77
f 80/80/80 79/79/79 77/77/77
f 83/83/83 82/82/82 81/81/81
f 84/84/84 83/83/83 81/81/81
f 87/87/87 86/86/86 85/85/85
f 88/88/88 87/87/87 85/85/85
f 91/91/91 90/90/90 89/89/89
f 92/92/92 91/91/91 89/89/89
f 95/95/95 94/94/94 93/93/93
f 96/96/96 95/95/95 93/93/93
f 99/99/99 98/98/98 97/97/97
f 100/100/100 99/99/99 97/97/97
f 103/103/103 102/102/102 101/101/101
f 104/104/104 103/103/103 101/101/101
f 107/107/107 106/106/106 105/105/105
f 108/108/108 107/107/107 105/105/105
f 111/111/111 110/110/110 109/109/109
f 112/112/112 111/111/111 109/109/109
f 115/115/115 114/114/114 113/113/113
f 116/116/116 115/115/115 113/113/113
f 119/119/119 118/118/118 117/117/117
f 120/120/120 119/119/119 117/117/117
