g Wall Segment lvl2
v -4.5 0.001295552 0
v -4.5 0.4340013 0
v -4.5 0.4277308 3.301243
v -4.5 0.001295552 3.301243
v -4.5 -1.392745 0
v -4.5 -1.392745 3.301243
v -4.5 0.001295552 3.854943
v -4.5 0.4277308 3.854943
v -4.5 0.4340013 0
v 4.5 0.4340013 0
v 4.5 0.4277308 3.301243
v -4.5 0.4277308 3.301243
v 4.5 0.001295552 0
v 4.5 -1.392745 0
v 4.5 -1.392745 3.301243
v 4.5 0.001295552 3.301243
v 4.5 0.4340013 0
v 4.5 0.4277308 3.301243
v 4.5 0.4277308 3.854943
v 4.5 0.001295552 3.854943
v 4.5 -1.392745 0
v -4.5 -1.392745 0
v -4.5 -1.392745 3.301243
v 4.5 -1.392745 3.301243
v -4.5 0.001295552 0
v -4.5 -1.392745 0
v 4.5 -1.392745 0
v 4.5 0.001295552 0
v -4.5 0.4340013 0
v 4.5 0.4340013 0
v 4.5 0.001295552 3.301243
v 4.5 -1.392745 3.301243
v -4.5 -1.392745 3.301243
v -4.5 0.001295552 3.301243
v 4.5 0.4277308 3.854943
v 4.5 0.001295552 3.854943
v -4.5 0.001295552 3.854943
v -4.5 0.4277308 3.854943
v 4.5 0.4277308 3.301243
v 4.5 0.4277308 3.854943
v -4.5 0.4277308 3.854943
v -4.5 0.4277308 3.301243
v -4.5 0.001295552 3.301243
v -4.5 0.001295552 3.854943
v 4.5 0.001295552 3.854943
v 4.5 0.001295552 3.301243
vt 0.375 0.1770372
vt 0.375 0.25
vt 0.625 0.25
vt 0.625 0.1770372
vt 0.375 0
vt 0.625 0
vt 0.625 0.1770372
vt 0.625 0.25
vt 0.375 0.25
vt 0.375 0.5
vt 0.625 0.5
vt 0.625 0.25
vt 0.375 0.5729628
vt 0.375 0.75
vt 0.625 0.75
vt 0.625 0.5729628
vt 0.375 0.5
vt 0.625 0.5
vt 0.625 0.5
vt 0.625 0.5729628
vt 0.375 0.75
vt 0.375 1
vt 0.625 1
vt 0.625 0.75
vt 0.125 0.5729628
vt 0.125 0.75
vt 0.375 0.75
vt 0.375 0.5729628
vt 0.125 0.5
vt 0.375 0.5
vt 0.625 0.5729628
vt 0.625 0.75
vt 0.875 0.75
vt 0.875 0.5729628
vt 0.625 0.5
vt 0.625 0.5729628
vt 0.875 0.5729628
vt 0.875 0.5
vt 0.625 0.5
vt 0.625 0.5
vt 0.625 0.25
vt 0.625 0.25
vt 0.875 0.5729628
vt 0.875 0.5729628
vt 0.625 0.5729628
vt 0.625 0.5729628
vn -1 0 0
vn -1 0 0
vn -1 0 0
vn -1 0 0
vn -1 0 0
vn -1 0 0
vn -1 0 0
vn -1 0 0
vn 0 0.9999982 0.001899437
vn 0 0.9999982 0.001899437
vn 0 0.9999982 0.001899437
vn 0 0.9999982 0.001899437
vn 1 0 0
vn 1 0 0
vn 1 0 0
vn 1 0 0
vn 1 0 0
vn 1 0 0
vn 1 0 0
vn 1 0 0
vn 0 -1 0
vn 0 -1 0
vn 0 -1 0
vn 0 -1 0
vn 0 0 -1
vn 0 0 -1
vn 0 0 -1
vn 0 0 -1
vn 0 0 -1
vn 0 0 -1
vn 0 0 1
vn 0 0 1
vn 0 0 1
vn 0 0 1
vn 0 0 1
vn 0 0 1
vn 0 0 1
vn 0 0 1
vn 0 1 0
vn 0 1 0
vn 0 1 0
vn 0 1 0
vn 0 -1 0
vn 0 -1 0
vn 0 -1 0
vn 0 -1 0
g Wall Segment lvl2_0
f 3/3/3 2/2/2 1/1/1
f 4/4/4 3/3/3 1/1/1
f 4/4/4 1/1/1 5/5/5
f 6/6/6 4/4/4 5/5/5
f 4/4/4 7/7/7 3/3/3
f 7/7/7 8/8/8 3/3/3
f 11/11/11 10/10/10 9/9/9
f 12/12/12 11/11/11 9/9/9
f 15/15/15 14/14/14 13/13/13
f 16/16/16 15/15/15 13/13/13
f 16/16/16 13/13/13 17/17/17
f 18/18/18 16/16/16 17/17/17
f 18/18/18 19/19/19 16/16/16
f 19/19/19 20/20/20 16/16/16
f 23/23/23 22/22/22 21/21/21
f 24/24/24 23/23/23 21/21/21
f 27/27/27 26/26/26 25/25/25
f 28/28/28 27/27/27 25/25/25
f 28/28/28 25/25/25 29/29/29
f 30/30/30 28/28/28 29/29/29
f 33/33/33 32/32/32 31/31/31
f 34/34/34 33/33/33 31/31/31
f 37/37/37 36/36/36 35/35/35
f 38/38/38 37/37/37 35/35/35
f 41/41/41 40/40/40 39/39/39
f 42/42/42 41/41/41 39/39/39
f 45/45/45 44/44/44 43/43/43
f 46/46/46 45/45/45 43/43/43
