g Wing Assasins Training New
v 0.3922998 -0.6315461 -0.2539823
v -0.3923026 -0.6315461 -0.2539823
v -0.3923026 -0.6315461 3.018365
v 0.3922998 -0.6315461 3.018365
v 0.6315454 -0.3923005 -0.2539823
v 0.6315454 -0.3923005 3.018365
v 0.6315454 0.3923019 -0.2539823
v 0.6315454 0.3923019 3.018365
v 0.3922998 0.6315476 -0.2539823
v 0.3922998 0.6315476 3.018365
v -0.3923026 0.6315476 -0.2539823
v -0.3923026 0.6315476 3.018365
v -0.6315483 0.3923019 -0.2539823
v -0.6315483 0.3923019 3.018365
v -0.6315483 -0.3923005 -0.2539823
v -0.6315483 -0.3923005 3.018365
v -0.3923026 -0.6315461 -0.2539823
v -0.3923026 -0.6315461 3.018365
v 0.3922998 0.6315476 3.018365
v 0.6315454 0.3923019 3.018365
v 0.6315454 -0.3923005 3.018365
v 0.3922998 -0.6315461 3.018365
v -0.3923026 0.6315476 3.018365
v -0.3923026 -0.6315461 3.018365
v -0.6315483 0.3923019 3.018365
v -0.6315483 -0.3923005 3.018365
v -2.274525E-09 0.9460117 3.037556
v 0.4730059 0.8192702 3.450894
v -2.274525E-09 0.9460117 3.450894
v 0.4730059 0.8192702 3.037556
v 0.8192703 0.4730058 3.450894
v 0.8192703 0.4730058 3.037556
v 0.9460117 -4.305599E-08 3.450894
v 0.9460117 -4.305599E-08 3.037556
v 0.8192701 -0.4730059 3.450894
v 0.8192701 -0.4730059 3.037556
v 0.4730059 -0.8192702 3.450894
v 0.4730059 -0.8192702 3.037556
v -8.497749E-08 -0.9460117 3.450894
v -8.497749E-08 -0.9460117 3.037556
v -0.4730058 -0.8192702 3.450894
v -0.4730058 -0.8192702 3.037556
v -0.8192703 -0.4730058 3.450894
v -0.8192703 -0.4730058 3.037556
v -0.9460118 9.576572E-09 3.450894
v -0.9460118 9.576572E-09 3.037556
v -0.8192703 0.4730057 3.450894
v -0.8192703 0.4730057 3.037556
v -0.473006 0.8192701 3.450894
v -0.473006 0.8192701 3.037556
v -2.274525E-09 0.9460117 3.450894
v -2.274525E-09 0.9460117 3.037556
v 0.8192703 0.4730058 3.450894
v 0.9460117 -4.305599E-08 3.450894
v 0.8192701 -0.4730059 3.450894
v 0.4730059 0.8192702 3.450894
v 0.4730059 -0.8192702 3.450894
v -8.497749E-08 -0.9460117 3.450894
v -2.274525E-09 0.9460117 3.450894
v -0.473006 0.8192701 3.450894
v -0.4730058 -0.8192702 3.450894
v -0.8192703 -0.4730058 3.450894
v -0.8192703 0.4730057 3.450894
v -0.9460118 9.576572E-09 3.450894
v 0.8192701 -0.4730059 3.037556
v 0.9460117 -4.305599E-08 3.037556
v 0.8192703 0.4730058 3.037556
v 0.4730059 0.8192702 3.037556
v 0.4730059 -0.8192702 3.037556
v -8.497749E-08 -0.9460117 3.037556
v -2.274525E-09 0.9460117 3.037556
v -0.473006 0.8192701 3.037556
v -0.4730058 -0.8192702 3.037556
v -0.8192703 -0.4730058 3.037556
v -0.8192703 0.4730057 3.037556
v -0.9460118 9.576572E-09 3.037556
v -9.861782E-09 0.4614239 2.905536
v 0.4816423 0.8342288 4.785227
v 1.532865E-09 0.9632845 4.785227
v 0.230712 0.3996049 2.905536
v 0.834229 0.4816422 4.785227
v 0.3996049 0.2307119 2.905536
v 0.9632844 -4.707651E-08 4.785227
v 0.4614239 -3.406297E-08 2.905536
v 0.834229 -0.4816424 4.785227
v 0.3996049 -0.230712 2.905536
v 0.4816423 -0.8342288 4.785227
v 0.230712 -0.3996049 2.905536
v -8.268015E-08 -0.9632845 4.785227
v -5.020075E-08 -0.461424 2.905536
v -0.4816422 -0.8342288 4.785227
v -0.2307119 -0.3996049 2.905536
v -0.834229 -0.4816422 4.785227
v -0.3996049 -0.230712 2.905536
v -0.9632847 6.517048E-09 4.785227
v -0.4614241 -8.391066E-09 2.905536
v -0.834229 0.4816421 4.785227
v -0.3996049 0.2307119 2.905536
v -0.4816424 0.8342288 4.785227
v -0.2307121 0.3996048 2.905536
v 1.532865E-09 0.9632845 4.785227
v -9.861782E-09 0.4614239 2.905536
v 0.3996049 -0.230712 2.905536
v 0.4614239 -3.406297E-08 2.905536
v 0.3996049 0.2307119 2.905536
v 0.230712 0.3996049 2.905536
v 0.230712 -0.3996049 2.905536
v -5.020075E-08 -0.461424 2.905536
v -9.861782E-09 0.4614239 2.905536
v -0.2307121 0.3996048 2.905536
v -0.2307119 -0.3996049 2.905536
v -0.3996049 -0.230712 2.905536
v -0.3996049 0.2307119 2.905536
v -0.4614241 -8.391066E-09 2.905536
v 0.002582401 0.001490533 8.57161
v 0.002981782 -1.49846E-08 8.57161
v 0.002582401 -0.001490563 8.57161
v 0.001491249 0.002581686 8.57161
v 0.001491249 -0.002581716 8.57161
v 7.178612E-07 0.002981067 8.57161
v 7.175569E-07 -0.002981067 8.57161
v -0.001489818 0.002581686 8.57161
v -0.001489818 -0.002581716 8.57161
v -0.002580971 0.001490533 8.57161
v -0.002580971 -0.001490563 8.57161
v -0.002980351 -1.483534E-08 8.57161
v 0.3922998 -0.6315461 -0.2539823
v 0.6315454 -0.3923005 -0.2539823
v 0.6315454 0.3923019 -0.2539823
v 0.3922998 0.6315476 -0.2539823
v -0.3923026 -0.6315461 -0.2539823
v -0.3923026 0.6315476 -0.2539823
v -0.6315483 -0.3923005 -0.2539823
v -0.6315483 0.3923019 -0.2539823
v 0.2643026 0.4577851 4.397997
v 7.178612E-07 0.002981067 8.57161
v 2.556484E-07 0.5286047 4.397997
v 0.001491249 0.002581686 8.57161
v -0.001489818 0.002581686 8.57161
v 0.4577854 0.2643023 4.397997
v -0.2643022 0.457785 4.397997
v 0.002582401 0.001490533 8.57161
v -0.002580971 0.001490533 8.57161
v 0.5286049 -2.969727E-08 4.397997
v -0.4577849 0.2643022 4.397997
v 0.002981782 -1.49846E-08 8.57161
v -0.002980351 -1.483534E-08 8.57161
v 0.4577853 -0.2643024 4.397997
v -0.5286045 -3.230337E-09 4.397997
v 0.002582401 -0.001490563 8.57161
v -0.002580971 -0.001490563 8.57161
v 0.2643026 -0.4577851 4.397997
v -0.4577849 -0.2643023 4.397997
v 0.001491249 -0.002581716 8.57161
v -0.001489818 -0.002581716 8.57161
v 2.01693E-07 -0.5286047 4.397997
v -0.264302 -0.4577851 4.397997
v 7.175569E-07 -0.002981067 8.57161
v 0.2341333 0.4055308 5.901146
v 2.556484E-07 0.5286047 4.397997
v -3.417879E-09 0.4682666 5.901146
v 0.2643026 0.4577851 4.397997
v -0.2643022 0.457785 4.397997
v 0.4055309 0.2341333 5.901146
v -0.2341334 0.4055308 5.901146
v 0.4577854 0.2643023 4.397997
v -0.4577849 0.2643022 4.397997
v 0.4682666 -2.857534E-08 5.901146
v -0.4055309 0.2341332 5.901146
v 0.5286049 -2.969727E-08 4.397997
v -0.5286045 -3.230337E-09 4.397997
v 0.4055308 -0.2341334 5.901146
v -0.4682668 -5.129491E-09 5.901146
v 0.4577853 -0.2643024 4.397997
v -0.4577849 -0.2643023 4.397997
v 0.2341334 -0.4055308 5.901146
v -0.4055309 -0.2341332 5.901146
v 0.2643026 -0.4577851 4.397997
v -0.264302 -0.4577851 4.397997
v -5.121447E-08 -0.4682667 5.901146
v -0.2341333 -0.4055308 5.901146
v 2.01693E-07 -0.5286047 4.397997
v -0.4055309 0.2341332 5.901146
v -0.834229 0.4816421 4.785227
v -0.4816424 0.8342288 4.785227
v -0.4682668 -5.129491E-09 5.901146
v -0.2341334 0.4055308 5.901146
v -0.9632847 6.517048E-09 4.785227
v 1.532865E-09 0.9632845 4.785227
v -0.4055309 -0.2341332 5.901146
v -3.417879E-09 0.4682666 5.901146
v -0.834229 -0.4816422 4.785227
v 0.4816423 0.8342288 4.785227
v -0.2341333 -0.4055308 5.901146
v 0.2341333 0.4055308 5.901146
v -0.4816422 -0.8342288 4.785227
v 0.834229 0.4816422 4.785227
v -5.121447E-08 -0.4682667 5.901146
v 0.4055309 0.2341333 5.901146
v -8.268015E-08 -0.9632845 4.785227
v 0.9632844 -4.707651E-08 4.785227
v 0.2341334 -0.4055308 5.901146
v 0.4682666 -2.857534E-08 5.901146
v 0.4816423 -0.8342288 4.785227
v 0.834229 -0.4816424 4.785227
v 0.4055308 -0.2341334 5.901146
vt 0.375 0.7973531
vt 0.375 0.9526469
vt 0.625 0.9526469
vt 0.625 0.7973531
vt 0.375 0.7026469
vt 0.625 0.7026469
vt 0.375 0.5473531
vt 0.625 0.5473531
vt 0.375 0.4526469
vt 0.625 0.4526469
vt 0.375 0.2973531
vt 0.625 0.2973531
vt 0.375 0.2026469
vt 0.625 0.2026469
vt 0.375 0.04735312
vt 0.625 0.04735311
vt 0.375 0
vt 0.625 0
vt 0.625 0.4526469
vt 0.625 0.5473531
vt 0.625 0.7026469
vt 0.625 0.7973531
vt 0.625 0.2973531
vt 0.625 0.9526469
vt 0.625 0.3920593
vt 0.625 0.8579407
vt 1 0.5
vt 0.9166667 1
vt 1 1
vt 0.9166667 0.5
vt 0.8333334 1
vt 0.8333334 0.5
vt 0.7500001 1
vt 0.7500001 0.5
vt 0.6666667 1
vt 0.6666667 0.5
vt 0.5833334 1
vt 0.5833334 0.5
vt 0.5000001 1
vt 0.5000001 0.5
vt 0.4166668 1
vt 0.4166668 0.5
vt 0.3333334 1
vt 0.3333334 0.5
vt 0.2500001 1
vt 0.2500001 0.5
vt 0.1666667 1
vt 0.1666667 0.5
vt 0.08333341 1
vt 0.08333341 0.5
vt 7.450581E-08 1
vt 7.450581E-08 0.5
vt 0.4578461 0.37
vt 0.49 0.25
vt 0.4578461 0.13
vt 0.37 0.4578461
vt 0.37 0.04215391
vt 0.25 0.01000001
vt 0.25 0.49
vt 0.13 0.4578461
vt 0.13 0.04215391
vt 0.04215389 0.13
vt 0.04215389 0.37
vt 0.01000001 0.25
vt 0.9578461 0.13
vt 0.99 0.25
vt 0.9578461 0.37
vt 0.87 0.4578461
vt 0.87 0.04215391
vt 0.75 0.01000001
vt 0.75 0.49
vt 0.6299999 0.4578461
vt 0.63 0.04215391
vt 0.5421539 0.13
vt 0.5421539 0.37
vt 0.51 0.25
vt 1 0.5
vt 0.9166667 1
vt 1 1
vt 0.9166667 0.5
vt 0.8333334 1
vt 0.8333334 0.5
vt 0.7500001 1
vt 0.7500001 0.5
vt 0.6666667 1
vt 0.6666667 0.5
vt 0.5833334 1
vt 0.5833334 0.5
vt 0.5000001 1
vt 0.5000001 0.5
vt 0.4166668 1
vt 0.4166668 0.5
vt 0.3333334 1
vt 0.3333334 0.5
vt 0.2500001 1
vt 0.2500001 0.5
vt 0.1666667 1
vt 0.1666667 0.5
vt 0.08333341 1
vt 0.08333341 0.5
vt 7.450581E-08 1
vt 7.450581E-08 0.5
vt 0.9578461 0.13
vt 0.99 0.25
vt 0.9578461 0.37
vt 0.87 0.4578461
vt 0.87 0.04215391
vt 0.75 0.01000001
vt 0.75 0.49
vt 0.6299999 0.4578461
vt 0.63 0.04215391
vt 0.5421539 0.13
vt 0.5421539 0.37
vt 0.51 0.25
vt 0.4150949 0.3453175
vt 0.4406352 0.25
vt 0.4150949 0.1546824
vt 0.3453176 0.4150949
vt 0.3453175 0.08490513
vt 0.25 0.4406351
vt 0.25 0.05936484
vt 0.1546824 0.4150948
vt 0.1546824 0.08490511
vt 0.0849051 0.3453175
vt 0.08490511 0.1546825
vt 0.05936484 0.25
vt 0.3276469 0.75
vt 0.375 0.7026469
vt 0.375 0.5473531
vt 0.3276469 0.5
vt 0.1723531 0.75
vt 0.1723531 0.5
vt 0.125 0.7026469
vt 0.125 0.5473531
vt 0.3453176 0.4150949
vt 0.25 0.4406351
vt 0.25 0.4406351
vt 0.3453176 0.4150949
vt 0.1546824 0.4150948
vt 0.4150949 0.3453175
vt 0.1546824 0.4150948
vt 0.4150949 0.3453175
vt 0.0849051 0.3453175
vt 0.4406352 0.25
vt 0.0849051 0.3453175
vt 0.4406352 0.25
vt 0.05936484 0.25
vt 0.4150949 0.1546824
vt 0.05936484 0.25
vt 0.4150949 0.1546824
vt 0.08490511 0.1546825
vt 0.3453175 0.08490513
vt 0.08490511 0.1546825
vt 0.3453175 0.08490513
vt 0.1546824 0.08490511
vt 0.25 0.05936484
vt 0.1546824 0.08490511
vt 0.25 0.05936484
vt 0.3453176 0.4150949
vt 0.25 0.4406351
vt 0.25 0.4406351
vt 0.3453176 0.4150949
vt 0.1546824 0.4150948
vt 0.4150949 0.3453175
vt 0.1546824 0.4150948
vt 0.4150949 0.3453175
vt 0.0849051 0.3453175
vt 0.4406352 0.25
vt 0.0849051 0.3453175
vt 0.4406352 0.25
vt 0.05936484 0.25
vt 0.4150949 0.1546824
vt 0.05936484 0.25
vt 0.4150949 0.1546824
vt 0.08490511 0.1546825
vt 0.3453175 0.08490513
vt 0.08490511 0.1546825
vt 0.3453175 0.08490513
vt 0.1546824 0.08490511
vt 0.25 0.05936484
vt 0.1546824 0.08490511
vt 0.25 0.05936484
vt 0.0849051 0.3453175
vt 0.04215389 0.37
vt 0.13 0.4578461
vt 0.05936484 0.25
vt 0.1546824 0.4150948
vt 0.01000001 0.25
vt 0.25 0.49
vt 0.08490511 0.1546825
vt 0.25 0.4406351
vt 0.04215389 0.13
vt 0.37 0.4578461
vt 0.1546824 0.08490511
vt 0.3453176 0.4150949
vt 0.13 0.04215391
vt 0.4578461 0.37
vt 0.25 0.05936484
vt 0.4150949 0.3453175
vt 0.25 0.01000001
vt 0.49 0.25
vt 0.3453175 0.08490513
vt 0.4406352 0.25
vt 0.37 0.04215391
vt 0.4578461 0.13
vt 0.4150949 0.1546824
vn 0.3826834 -0.9238795 0
vn -0.3826834 -0.9238795 0
vn -0.3826834 -0.9238795 0
vn 0.3826834 -0.9238795 0
vn 0.9238795 -0.3826835 0
vn 0.9238795 -0.3826835 0
vn 0.9238795 0.3826835 0
vn 0.9238795 0.3826835 0
vn 0.3826834 0.9238795 0
vn 0.3826834 0.9238795 0
vn -0.3826834 0.9238795 0
vn -0.3826834 0.9238795 0
vn -0.9238795 0.3826835 0
vn -0.9238795 0.3826835 0
vn -0.9238795 -0.3826835 0
vn -0.9238795 -0.3826835 0
vn -0.3826834 -0.9238795 0
vn -0.3826834 -0.9238795 0
vn 0 0 1
vn 0 0 1
vn 0 0 1
vn 0 0 1
vn 0 0 1
vn 0 0 1
vn 0 0 1
vn 0 0 1
vn 0 1 0
vn 0.5 0.8660254 0
vn 0 1 0
vn 0.5 0.8660254 0
vn 0.8660255 0.4999999 0
vn 0.8660255 0.4999999 0
vn 1 0 0
vn 1 0 0
vn 0.8660253 -0.5000001 0
vn 0.8660253 -0.5000001 0
vn 0.4999999 -0.8660255 0
vn 0.4999999 -0.8660255 0
vn 0 -1 0
vn 0 -1 0
vn -0.5 -0.8660254 0
vn -0.5 -0.8660254 0
vn -0.8660253 -0.5000001 0
vn -0.8660253 -0.5000001 0
vn -1 0 0
vn -1 0 0
vn -0.8660254 0.4999999 0
vn -0.8660254 0.4999999 0
vn -0.5000002 0.8660253 0
vn -0.5000002 0.8660253 0
vn 0 1 0
vn 0 1 0
vn 0 0 1
vn 0 0 1
vn 0 0 1
vn 0 0 1
vn 0 0 1
vn 0 0 1
vn 0 0 1
vn 0 0 1
vn 0 0 1
vn 0 0 1
vn 0 0 1
vn 0 0 1
vn 0 0 -1
vn 0 0 -1
vn 0 0 -1
vn 0 0 -1
vn 0 0 -1
vn 0 0 -1
vn 0 0 -1
vn 0 0 -1
vn 0 0 -1
vn 0 0 -1
vn 0 0 -1
vn 0 0 -1
vn 0 0.9661569 -0.2579552
vn 0.4986191 0.8636339 0.07426566
vn 0 0.9972385 0.07426561
vn 0.4830784 0.8367164 -0.2579551
vn 0.863634 0.4986191 0.07426567
vn 0.8367165 0.4830783 -0.2579552
vn 0.9972385 0 0.07426565
vn 0.9661569 0 -0.2579552
vn 0.8636339 -0.4986192 0.07426563
vn 0.8367164 -0.4830785 -0.2579553
vn 0.4986192 -0.8636339 0.07426563
vn 0.4830784 -0.8367165 -0.2579552
vn 0 -0.9972385 0.07426561
vn 0 -0.9661569 -0.2579551
vn -0.4986191 -0.8636339 0.07426562
vn -0.4830785 -0.8367165 -0.2579551
vn -0.8636338 -0.4986195 0.07426568
vn -0.8367163 -0.4830786 -0.2579552
vn -0.9972385 0 0.07426585
vn -0.9661569 0 -0.2579553
vn -0.8636339 0.4986193 0.07426574
vn -0.8367164 0.4830784 -0.2579552
vn -0.4986193 0.8636339 0.0742656
vn -0.4830785 0.8367164 -0.2579552
vn 0 0.9972385 0.07426561
vn 0 0.9661569 -0.2579552
vn 0 0 -1
vn 0 0 -1
vn 0 0 -1
vn 0 0 -1
vn 0 0 -1
vn 0 0 -1
vn 0 0 -1
vn 0 0 -1
vn 0 0 -1
vn 0 0 -1
vn 0 0 -1
vn 0 0 -1
vn 0 0 1
vn 0 0 1
vn 0 0 1
vn 0 0 1
vn 0 0 1
vn 0 0 1
vn 0 0 1
vn 0 0 1
vn 0 0 1
vn 0 0 1
vn 0 0 1
vn 0 0 1
vn 0 0 -1
vn 0 0 -1
vn 0 0 -1
vn 0 0 -1
vn 0 0 -1
vn 0 0 -1
vn 0 0 -1
vn 0 0 -1
vn 0.4960812 0.8592381 0.1249526
vn 0 0.9921628 0.1249527
vn 0 0.9921628 0.1249527
vn 0.4960812 0.8592382 0.1249526
vn -0.4960815 0.859238 0.1249527
vn 0.8592382 0.4960812 0.1249526
vn -0.4960815 0.859238 0.1249527
vn 0.8592382 0.4960811 0.1249526
vn -0.8592381 0.4960813 0.1249528
vn 0.9921628 0 0.1249525
vn -0.8592381 0.4960814 0.1249528
vn 0.9921628 0 0.1249525
vn -0.9921628 0 0.1249528
vn 0.8592381 -0.4960814 0.1249526
vn -0.9921628 0 0.1249528
vn 0.8592382 -0.4960812 0.1249526
vn -0.8592381 -0.4960815 0.1249528
vn 0.4960811 -0.8592382 0.1249526
vn -0.859238 -0.4960815 0.1249528
vn 0.4960809 -0.8592383 0.1249526
vn -0.4960811 -0.8592382 0.1249527
vn 0 -0.9921628 0.1249527
vn -0.4960813 -0.8592381 0.1249527
vn 0 -0.9921628 0.1249527
vn -0.4995976 -0.8653285 -0.04010886
vn 0 -0.9991953 -0.04010879
vn 0 -0.9991953 -0.04010878
vn -0.4995977 -0.8653285 -0.04010886
vn 0.4995978 -0.8653284 -0.04010871
vn -0.8653286 -0.4995974 -0.04010893
vn 0.4995978 -0.8653284 -0.04010871
vn -0.8653286 -0.4995974 -0.04010893
vn 0.8653285 -0.4995977 -0.04010862
vn -0.9991953 0 -0.04010895
vn 0.8653285 -0.4995977 -0.04010862
vn -0.9991953 0 -0.04010894
vn 0.9991954 0 -0.0401086
vn -0.8653286 0.4995976 -0.04010894
vn 0.9991954 0 -0.04010861
vn -0.8653286 0.4995975 -0.04010894
vn 0.8653285 0.4995977 -0.04010863
vn -0.4995975 0.8653286 -0.04010885
vn 0.8653285 0.4995978 -0.04010863
vn -0.4995976 0.8653286 -0.04010885
vn 0.4995977 0.8653285 -0.04010867
vn 0 0.9991953 -0.04010873
vn 0.4995978 0.8653285 -0.04010867
vn 0 0.9991953 -0.04010873
vn -0.7916327 0.4570496 0.4054915
vn -0.8636339 0.4986193 0.07426574
vn -0.4986193 0.8636339 0.0742656
vn -0.9140987 0 0.4054917
vn -0.4570494 0.7916328 0.4054912
vn -0.9972385 0 0.07426585
vn 0 0.9972385 0.07426561
vn -0.7916327 -0.4570497 0.4054914
vn 0 0.9140989 0.4054913
vn -0.8636338 -0.4986195 0.07426568
vn 0.4986191 0.8636339 0.07426566
vn -0.4570493 -0.791633 0.4054912
vn 0.4570492 0.7916331 0.4054913
vn -0.4986191 -0.8636339 0.07426562
vn 0.863634 0.4986191 0.07426567
vn 0 -0.9140989 0.4054913
vn 0.7916328 0.4570493 0.4054914
vn 0 -0.9972385 0.07426561
vn 0.9972385 0 0.07426565
vn 0.4570493 -0.791633 0.4054913
vn 0.9140989 0 0.4054913
vn 0.4986192 -0.8636339 0.07426563
vn 0.8636339 -0.4986192 0.07426563
vn 0.791633 -0.4570493 0.4054914
g Wing Assasins Training New_0
f 3/3/3 2/2/2 1/1/1
f 4/4/4 3/3/3 1/1/1
f 1/1/1 5/5/5 4/4/4
f 5/5/5 6/6/6 4/4/4
f 6/6/6 5/5/5 7/7/7
f 8/8/8 6/6/6 7/7/7
f 7/7/7 9/9/9 8/8/8
f 9/9/9 10/10/10 8/8/8
f 10/10/10 9/9/9 11/11/11
f 12/12/12 10/10/10 11/11/11
f 11/11/11 13/13/13 12/12/12
f 13/13/13 14/14/14 12/12/12
f 14/14/14 13/13/13 15/15/15
f 16/16/16 14/14/14 15/15/15
f 16/16/16 15/15/15 17/17/17
f 18/18/18 16/16/16 17/17/17
f 21/21/21 20/20/20 19/19/19
f 19/19/19 22/22/22 21/21/21
f 19/19/19 23/23/23 22/22/22
f 23/23/23 24/24/24 22/22/22
f 23/23/23 25/25/25 24/24/24
f 25/25/25 26/26/26 24/24/24
f 29/29/29 28/28/28 27/27/27
f 28/28/28 30/30/30 27/27/27
f 28/28/28 31/31/31 30/30/30
f 31/31/31 32/32/32 30/30/30
f 31/31/31 33/33/33 32/32/32
f 33/33/33 34/34/34 32/32/32
f 33/33/33 35/35/35 34/34/34
f 35/35/35 36/36/36 34/34/34
f 35/35/35 37/37/37 36/36/36
f 37/37/37 38/38/38 36/36/36
f 37/37/37 39/39/39 38/38/38
f 39/39/39 40/40/40 38/38/38
f 39/39/39 41/41/41 40/40/40
f 41/41/41 42/42/42 40/40/40
f 41/41/41 43/43/43 42/42/42
f 43/43/43 44/44/44 42/42/42
f 43/43/43 45/45/45 44/44/44
f 45/45/45 46/46/46 44/44/44
f 45/45/45 47/47/47 46/46/46
f 47/47/47 48/48/48 46/46/46
f 47/47/47 49/49/49 48/48/48
f 49/49/49 50/50/50 48/48/48
f 49/49/49 51/51/51 50/50/50
f 51/51/51 52/52/52 50/50/50
f 55/55/55 54/54/54 53/53/53
f 53/53/53 56/56/56 55/55/55
f 56/56/56 57/57/57 55/55/55
f 56/56/56 58/58/58 57/57/57
f 56/56/56 59/59/59 58/58/58
f 59/59/59 60/60/60 58/58/58
f 60/60/60 61/61/61 58/58/58
f 60/60/60 62/62/62 61/61/61
f 60/60/60 63/63/63 62/62/62
f 63/63/63 64/64/64 62/62/62
f 67/67/67 66/66/66 65/65/65
f 65/65/65 68/68/68 67/67/67
f 65/65/65 69/69/69 68/68/68
f 69/69/69 70/70/70 68/68/68
f 70/70/70 71/71/71 68/68/68
f 70/70/70 72/72/72 71/71/71
f 70/70/70 73/73/73 72/72/72
f 73/73/73 74/74/74 72/72/72
f 74/74/74 75/75/75 72/72/72
f 74/74/74 76/76/76 75/75/75
f 79/79/79 78/78/78 77/77/77
f 78/78/78 80/80/80 77/77/77
f 78/78/78 81/81/81 80/80/80
f 81/81/81 82/82/82 80/80/80
f 81/81/81 83/83/83 82/82/82
f 83/83/83 84/84/84 82/82/82
f 83/83/83 85/85/85 84/84/84
f 85/85/85 86/86/86 84/84/84
f 85/85/85 87/87/87 86/86/86
f 87/87/87 88/88/88 86/86/86
f 87/87/87 89/89/89 88/88/88
f 89/89/89 90/90/90 88/88/88
f 89/89/89 91/91/91 90/90/90
f 91/91/91 92/92/92 90/90/90
f 91/91/91 93/93/93 92/92/92
f 93/93/93 94/94/94 92/92/92
f 93/93/93 95/95/95 94/94/94
f 95/95/95 96/96/96 94/94/94
f 95/95/95 97/97/97 96/96/96
f 97/97/97 98/98/98 96/96/96
f 97/97/97 99/99/99 98/98/98
f 99/99/99 100/100/100 98/98/98
f 99/99/99 101/101/101 100/100/100
f 101/101/101 102/102/102 100/100/100
f 105/105/105 104/104/104 103/103/103
f 103/103/103 106/106/106 105/105/105
f 103/103/103 107/107/107 106/106/106
f 107/107/107 108/108/108 106/106/106
f 108/108/108 109/109/109 106/106/106
f 108/108/108 110/110/110 109/109/109
f 108/108/108 111/111/111 110/110/110
f 111/111/111 112/112/112 110/110/110
f 112/112/112 113/113/113 110/110/110
f 112/112/112 114/114/114 113/113/113
f 117/117/117 116/116/116 115/115/115
f 115/115/115 118/118/118 117/117/117
f 118/118/118 119/119/119 117/117/117
f 118/118/118 120/120/120 119/119/119
f 120/120/120 121/121/121 119/119/119
f 120/120/120 122/122/122 121/121/121
f 122/122/122 123/123/123 121/121/121
f 122/122/122 124/124/124 123/123/123
f 124/124/124 125/125/125 123/123/123
f 124/124/124 126/126/126 125/125/125
f 129/129/129 128/128/128 127/127/127
f 127/127/127 130/130/130 129/129/129
f 127/127/127 131/131/131 130/130/130
f 131/131/131 132/132/132 130/130/130
f 131/131/131 133/133/133 132/132/132
f 133/133/133 134/134/134 132/132/132
f 137/137/137 136/136/136 135/135/135
f 136/136/136 138/138/138 135/135/135
f 139/139/139 136/136/136 137/137/137
f 135/135/135 138/138/138 140/140/140
f 141/141/141 139/139/139 137/137/137
f 138/138/138 142/142/142 140/140/140
f 143/143/143 139/139/139 141/141/141
f 140/140/140 142/142/142 144/144/144
f 145/145/145 143/143/143 141/141/141
f 142/142/142 146/146/146 144/144/144
f 147/147/147 143/143/143 145/145/145
f 144/144/144 146/146/146 148/148/148
f 149/149/149 147/147/147 145/145/145
f 146/146/146 150/150/150 148/148/148
f 151/151/151 147/147/147 149/149/149
f 148/148/148 150/150/150 152/152/152
f 153/153/153 151/151/151 149/149/149
f 150/150/150 154/154/154 152/152/152
f 155/155/155 151/151/151 153/153/153
f 152/152/152 154/154/154 156/156/156
f 157/157/157 155/155/155 153/153/153
f 154/154/154 158/158/158 156/156/156
f 158/158/158 155/155/155 157/157/157
f 156/156/156 158/158/158 157/157/157
f 161/161/161 160/160/160 159/159/159
f 160/160/160 162/162/162 159/159/159
f 163/163/163 160/160/160 161/161/161
f 159/159/159 162/162/162 164/164/164
f 165/165/165 163/163/163 161/161/161
f 162/162/162 166/166/166 164/164/164
f 167/167/167 163/163/163 165/165/165
f 164/164/164 166/166/166 168/168/168
f 169/169/169 167/167/167 165/165/165
f 166/166/166 170/170/170 168/168/168
f 171/171/171 167/167/167 169/169/169
f 168/168/168 170/170/170 172/172/172
f 173/173/173 171/171/171 169/169/169
f 170/170/170 174/174/174 172/172/172
f 175/175/175 171/171/171 173/173/173
f 172/172/172 174/174/174 176/176/176
f 177/177/177 175/175/175 173/173/173
f 174/174/174 178/178/178 176/176/176
f 179/179/179 175/175/175 177/177/177
f 176/176/176 178/178/178 180/180/180
f 181/181/181 179/179/179 177/177/177
f 178/178/178 182/182/182 180/180/180
f 182/182/182 179/179/179 181/181/181
f 180/180/180 182/182/182 181/181/181
f 185/185/185 184/184/184 183/183/183
f 183/183/183 184/184/184 186/186/186
f 187/187/187 185/185/185 183/183/183
f 184/184/184 188/188/188 186/186/186
f 189/189/189 185/185/185 187/187/187
f 186/186/186 188/188/188 190/190/190
f 191/191/191 189/189/189 187/187/187
f 188/188/188 192/192/192 190/190/190
f 193/193/193 189/189/189 191/191/191
f 190/190/190 192/192/192 194/194/194
f 195/195/195 193/193/193 191/191/191
f 192/192/192 196/196/196 194/194/194
f 197/197/197 193/193/193 195/195/195
f 194/194/194 196/196/196 198/198/198
f 199/199/199 197/197/197 195/195/195
f 196/196/196 200/200/200 198/198/198
f 201/201/201 197/197/197 199/199/199
f 198/198/198 200/200/200 202/202/202
f 203/203/203 201/201/201 199/199/199
f 200/200/200 204/204/204 202/202/202
f 205/205/205 201/201/201 203/203/203
f 202/202/202 204/204/204 206/206/206
f 206/206/206 205/205/205 203/203/203
f 204/204/204 205/205/205 206/206/206
