g Wings
v -0.003986053 -0.002411715 -4.690785E-09
v -0.003658604 -0.00260077 0.0001314853
v -0.006625935 -0.009419667 6.958954E-05
v -0.00665218 -0.009404514 -4.238437E-09
v -0.003658604 -0.00260077 0.0001314853
v -0.002868071 -0.003057184 0.0001859503
v -0.006562572 -0.009456249 9.841626E-05
v -0.006625935 -0.009419667 6.958954E-05
v -0.002868071 -0.003057184 0.0001859503
v -0.002077539 -0.003513598 0.0001314853
v -0.006499212 -0.00949283 6.958954E-05
v -0.006562572 -0.009456249 9.841626E-05
v -0.002077539 -0.003513598 0.0001314853
v -0.001750089 -0.003702649 -4.712953E-09
v -0.006472965 -0.009507983 -4.25017E-09
v -0.006499212 -0.00949283 6.958954E-05
v -0.001750089 -0.003702649 -4.712953E-09
v -0.002077538 -0.003513596 -0.0001314946
v -0.006499212 -0.00949283 -6.959803E-05
v -0.006472965 -0.009507983 -4.25017E-09
v -0.002077538 -0.003513596 -0.0001314946
v -0.002868071 -0.003057183 -0.0001859595
v -0.006562572 -0.009456249 -9.842473E-05
v -0.006499212 -0.00949283 -6.959803E-05
v -0.006499212 -0.00949283 -6.959803E-05
v -0.006562572 -0.009456249 -9.842473E-05
v -0.006625935 -0.009419667 -6.959806E-05
v -0.00665218 -0.009404514 -4.238437E-09
v -0.006472965 -0.009507983 -4.25017E-09
v -0.006499212 -0.00949283 6.958954E-05
v -0.006625935 -0.009419667 6.958954E-05
v -0.006562572 -0.009456249 9.841626E-05
v -0.002868071 -0.003057183 -0.0001859595
v -0.003658604 -0.002600768 -0.0001314947
v -0.006625935 -0.009419667 -6.959806E-05
v -0.006562572 -0.009456249 -9.842473E-05
v -0.003658604 -0.002600768 -0.0001314947
v -0.003986053 -0.002411715 -4.690785E-09
v -0.00665218 -0.009404514 -4.238437E-09
v -0.006625935 -0.009419667 -6.959806E-05
v -0.003658604 -0.002600768 -0.0001314947
v -0.002868071 -0.003057183 -0.0001859595
v -0.002077538 -0.003513596 -0.0001314946
v -0.003986053 -0.002411715 -4.690785E-09
v -0.001750089 -0.003702649 -4.712953E-09
v -0.002077539 -0.003513598 0.0001314853
v -0.003658604 -0.00260077 0.0001314853
v -0.002868071 -0.003057184 0.0001859503
v 0.001635011 -0.003841683 -4.690785E-09
v 0.001962461 -0.003652631 0.0001314853
v 0.006384134 -0.009631863 6.958954E-05
v 0.006357889 -0.009647015 -4.238437E-09
v 0.001962461 -0.003652631 0.0001314853
v 0.002752994 -0.003196216 0.0001859503
v 0.006447497 -0.009595281 9.841626E-05
v 0.006384134 -0.009631863 6.958954E-05
v 0.002752994 -0.003196216 0.0001859503
v 0.003543526 -0.002739802 0.0001314853
v 0.006510858 -0.009558699 6.958954E-05
v 0.006447497 -0.009595281 9.841626E-05
v 0.003543526 -0.002739802 0.0001314853
v 0.003870975 -0.002550748 -4.712953E-09
v 0.006537104 -0.009543546 -4.25017E-09
v 0.006510858 -0.009558699 6.958954E-05
v 0.003870975 -0.002550748 -4.712953E-09
v 0.003543525 -0.002739801 -0.0001314946
v 0.006510858 -0.009558699 -6.959803E-05
v 0.006537104 -0.009543546 -4.25017E-09
v 0.003543525 -0.002739801 -0.0001314946
v 0.002752994 -0.003196215 -0.0001859595
v 0.006447497 -0.009595281 -9.842473E-05
v 0.006510858 -0.009558699 -6.959803E-05
v 0.006510858 -0.009558699 -6.959803E-05
v 0.006447497 -0.009595281 -9.842473E-05
v 0.006384134 -0.009631863 -6.959806E-05
v 0.006357889 -0.009647015 -4.238437E-09
v 0.006537104 -0.009543546 -4.25017E-09
v 0.006510858 -0.009558699 6.958954E-05
v 0.006384134 -0.009631863 6.958954E-05
v 0.006447497 -0.009595281 9.841626E-05
v 0.002752994 -0.003196215 -0.0001859595
v 0.001962461 -0.00365263 -0.0001314947
v 0.006384134 -0.009631863 -6.959806E-05
v 0.006447497 -0.009595281 -9.842473E-05
v 0.001962461 -0.00365263 -0.0001314947
v 0.001635011 -0.003841683 -4.690785E-09
v 0.006357889 -0.009647015 -4.238437E-09
v 0.006384134 -0.009631863 -6.959806E-05
v 0.001962461 -0.00365263 -0.0001314947
v 0.002752994 -0.003196215 -0.0001859595
v 0.003543525 -0.002739801 -0.0001314946
v 0.001635011 -0.003841683 -4.690785E-09
v 0.003870975 -0.002550748 -4.712953E-09
v 0.003543526 -0.002739802 0.0001314853
v 0.001962461 -0.003652631 0.0001314853
v 0.002752994 -0.003196216 0.0001859503
vt 1 0.5
vt 0.875 0.5
vt 0.875 1
vt 1 1
vt 0.875 0.5
vt 0.75 0.5
vt 0.75 1
vt 0.875 1
vt 0.75 0.5
vt 0.625 0.5
vt 0.625 1
vt 0.75 1
vt 0.625 0.5
vt 0.5 0.5
vt 0.5 1
vt 0.625 1
vt 0.5 0.5
vt 0.375 0.5
vt 0.375 1
vt 0.5 1
vt 0.375 0.5
vt 0.25 0.5
vt 0.25 1
vt 0.375 1
vt 0.08029442 0.08029442
vt 0.01000001 0.25
vt 0.08029437 0.4197056
vt 0.25 0.49
vt 0.25 0.01000001
vt 0.4197056 0.08029442
vt 0.4197056 0.4197056
vt 0.49 0.25
vt 0.25 0.5
vt 0.125 0.5
vt 0.125 1
vt 0.25 1
vt 0.125 0.5
vt 0 0.5
vt 0 1
vt 0.125 1
vt 0.5802944 0.4197056
vt 0.51 0.25
vt 0.5802944 0.08029442
vt 0.75 0.49
vt 0.75 0.01000001
vt 0.9197056 0.08029442
vt 0.9197056 0.4197056
vt 0.99 0.25
vt 1 0.5
vt 0.875 0.5
vt 0.875 1
vt 1 1
vt 0.875 0.5
vt 0.75 0.5
vt 0.75 1
vt 0.875 1
vt 0.75 0.5
vt 0.625 0.5
vt 0.625 1
vt 0.75 1
vt 0.625 0.5
vt 0.5 0.5
vt 0.5 1
vt 0.625 1
vt 0.5 0.5
vt 0.375 0.5
vt 0.375 1
vt 0.5 1
vt 0.375 0.5
vt 0.25 0.5
vt 0.25 1
vt 0.375 1
vt 0.08029442 0.08029442
vt 0.01000001 0.25
vt 0.08029437 0.4197056
vt 0.25 0.49
vt 0.25 0.01000001
vt 0.4197056 0.08029442
vt 0.4197056 0.4197056
vt 0.49 0.25
vt 0.25 0.5
vt 0.125 0.5
vt 0.125 1
vt 0.25 1
vt 0.125 0.5
vt 0 0.5
vt 0 1
vt 0.125 1
vt 0.5802944 0.4197056
vt 0.51 0.25
vt 0.5802944 0.08029442
vt 0.75 0.49
vt 0.75 0.01000001
vt 0.9197056 0.08029442
vt 0.9197056 0.4197056
vt 0.99 0.25
vn -0.4138586 0.1647908 0.8953017
vn -0.4138586 0.1647908 0.8953017
vn -0.4138586 0.1647908 0.8953017
vn -0.4138586 0.1647908 0.8953017
vn -0.08031824 0.02921657 0.9963409
vn -0.08031824 0.02921657 0.9963409
vn -0.08031824 0.02921657 0.9963409
vn -0.08031824 0.02921657 0.9963409
vn 0.06546147 -0.05494934 0.9963409
vn 0.06546147 -0.05494934 0.9963409
vn 0.06546147 -0.05494934 0.9963409
vn 0.06546147 -0.05494934 0.9963409
vn 0.3496416 -0.2760161 0.8953021
vn 0.3496416 -0.2760161 0.8953021
vn 0.3496416 -0.2760161 0.8953021
vn 0.3496416 -0.2760161 0.8953021
vn 0.3496414 -0.2760161 -0.8953022
vn 0.3496414 -0.2760161 -0.8953022
vn 0.3496414 -0.2760161 -0.8953022
vn 0.3496414 -0.2760161 -0.8953022
vn 0.06546136 -0.05494943 -0.9963409
vn 0.06546136 -0.05494943 -0.9963409
vn 0.06546136 -0.05494943 -0.9963409
vn 0.06546136 -0.05494943 -0.9963409
vn -0.500001 -0.8660248 0
vn -0.500001 -0.8660248 0
vn -0.500001 -0.8660248 0
vn -0.500001 -0.8660248 0
vn -0.500001 -0.8660248 0
vn -0.500001 -0.8660248 0
vn -0.500001 -0.8660248 0
vn -0.500001 -0.8660248 0
vn -0.08031811 0.02921637 -0.996341
vn -0.08031811 0.02921637 -0.996341
vn -0.08031811 0.02921637 -0.996341
vn -0.08031811 0.02921637 -0.996341
vn -0.4138588 0.1647908 -0.8953016
vn -0.4138588 0.1647908 -0.8953016
vn -0.4138588 0.1647908 -0.8953016
vn -0.4138588 0.1647908 -0.8953016
vn 0.4999998 0.8660255 3.84062E-06
vn 0.4999998 0.8660255 3.84062E-06
vn 0.4999998 0.8660255 3.84062E-06
vn 0.4999998 0.8660255 3.84062E-06
vn 0.4999998 0.8660255 3.84062E-06
vn 0.4999998 0.8660255 3.84062E-06
vn 0.4999998 0.8660255 3.84062E-06
vn 0.4999998 0.8660255 3.84062E-06
vn -0.3496426 -0.276017 0.8953015
vn -0.3496426 -0.276017 0.8953015
vn -0.3496426 -0.276017 0.8953015
vn -0.3496426 -0.276017 0.8953015
vn -0.06546132 -0.05494926 0.996341
vn -0.06546132 -0.05494926 0.996341
vn -0.06546132 -0.05494926 0.996341
vn -0.06546132 -0.05494926 0.996341
vn 0.08031832 0.02921664 0.9963409
vn 0.08031832 0.02921664 0.9963409
vn 0.08031832 0.02921664 0.9963409
vn 0.08031832 0.02921664 0.9963409
vn 0.4138581 0.1647907 0.895302
vn 0.4138581 0.1647907 0.895302
vn 0.4138581 0.1647907 0.895302
vn 0.4138581 0.1647907 0.895302
vn 0.4138573 0.1647902 -0.8953024
vn 0.4138573 0.1647902 -0.8953024
vn 0.4138573 0.1647902 -0.8953024
vn 0.4138573 0.1647902 -0.8953024
vn 0.08031833 0.02921653 -0.9963409
vn 0.08031833 0.02921653 -0.9963409
vn 0.08031833 0.02921653 -0.9963409
vn 0.08031833 0.02921653 -0.9963409
vn 0.4999972 -0.8660271 0
vn 0.4999972 -0.8660271 0
vn 0.4999972 -0.8660271 0
vn 0.4999972 -0.8660271 0
vn 0.4999972 -0.8660271 0
vn 0.4999972 -0.8660271 0
vn 0.4999972 -0.8660271 0
vn 0.4999972 -0.8660271 0
vn -0.06546113 -0.05494928 -0.996341
vn -0.06546113 -0.05494928 -0.996341
vn -0.06546113 -0.05494928 -0.996341
vn -0.06546113 -0.05494928 -0.996341
vn -0.349642 -0.2760167 -0.8953018
vn -0.349642 -0.2760167 -0.8953018
vn -0.349642 -0.2760167 -0.8953018
vn -0.349642 -0.2760167 -0.8953018
vn -0.5000003 0.8660253 3.840621E-06
vn -0.5000003 0.8660253 3.840621E-06
vn -0.5000003 0.8660253 3.840621E-06
vn -0.5000003 0.8660253 3.840621E-06
vn -0.5000003 0.8660253 3.840621E-06
vn -0.5000003 0.8660253 3.840621E-06
vn -0.5000003 0.8660253 3.840621E-06
vn -0.5000003 0.8660253 3.840621E-06
g Wings_0
f 3/3/3 2/2/2 1/1/1
f 4/4/4 3/3/3 1/1/1
f 7/7/7 6/6/6 5/5/5
f 8/8/8 7/7/7 5/5/5
f 11/11/11 10/10/10 9/9/9
f 12/12/12 11/11/11 9/9/9
f 15/15/15 14/14/14 13/13/13
f 16/16/16 15/15/15 13/13/13
f 19/19/19 18/18/18 17/17/17
f 20/20/20 19/19/19 17/17/17
f 23/23/23 22/22/22 21/21/21
f 24/24/24 23/23/23 21/21/21
f 27/27/27 26/26/26 25/25/25
f 25/25/25 28/28/28 27/27/27
f 25/25/25 29/29/29 28/28/28
f 29/29/29 30/30/30 28/28/28
f 30/30/30 31/31/31 28/28/28
f 30/30/30 32/32/32 31/31/31
f 35/35/35 34/34/34 33/33/33
f 36/36/36 35/35/35 33/33/33
f 39/39/39 38/38/38 37/37/37
f 40/40/40 39/39/39 37/37/37
f 43/43/43 42/42/42 41/41/41
f 41/41/41 44/44/44 43/43/43
f 44/44/44 45/45/45 43/43/43
f 44/44/44 46/46/46 45/45/45
f 44/44/44 47/47/47 46/46/46
f 47/47/47 48/48/48 46/46/46
f 51/51/51 50/50/50 49/49/49
f 52/52/52 51/51/51 49/49/49
f 55/55/55 54/54/54 53/53/53
f 56/56/56 55/55/55 53/53/53
f 59/59/59 58/58/58 57/57/57
f 60/60/60 59/59/59 57/57/57
f 63/63/63 62/62/62 61/61/61
f 64/64/64 63/63/63 61/61/61
f 67/67/67 66/66/66 65/65/65
f 68/68/68 67/67/67 65/65/65
f 71/71/71 70/70/70 69/69/69
f 72/72/72 71/71/71 69/69/69
f 75/75/75 74/74/74 73/73/73
f 73/73/73 76/76/76 75/75/75
f 73/73/73 77/77/77 76/76/76
f 77/77/77 78/78/78 76/76/76
f 78/78/78 79/79/79 76/76/76
f 78/78/78 80/80/80 79/79/79
f 83/83/83 82/82/82 81/81/81
f 84/84/84 83/83/83 81/81/81
f 87/87/87 86/86/86 85/85/85
f 88/88/88 87/87/87 85/85/85
f 91/91/91 90/90/90 89/89/89
f 89/89/89 92/92/92 91/91/91
f 92/92/92 93/93/93 91/91/91
f 92/92/92 94/94/94 93/93/93
f 92/92/92 95/95/95 94/94/94
f 95/95/95 96/96/96 94/94/94
