g WingRoyalTraining
v -0.6315483 -0.6315461 -0.2539823
v -0.6315483 0.6315476 -0.2539823
v -0.6315483 0.6315476 5.999641
v -0.6315483 -0.6315461 5.999641
v -0.6315483 0.6315476 -0.2539823
v 0.6315454 0.6315476 -0.2539823
v 0.6315454 0.6315476 5.999641
v -0.6315483 0.6315476 5.999641
v 0.6315454 0.6315476 -0.2539823
v 0.6315454 -0.6315461 -0.2539823
v 0.6315454 -0.6315461 5.999641
v 0.6315454 0.6315476 5.999641
v 0.6315454 -0.6315461 -0.2539823
v -0.6315483 -0.6315461 -0.2539823
v -0.6315483 -0.6315461 5.999641
v 0.6315454 -0.6315461 5.999641
v -0.6315483 0.6315476 -0.2539823
v -0.6315483 -0.6315461 -0.2539823
v 0.6315454 -0.6315461 -0.2539823
v 0.6315454 0.6315476 -0.2539823
v -0.6315483 0.6315476 5.999641
v -0.7559263 0.7559246 5.97602
v -0.7559263 -0.7559248 5.97602
v -0.6315483 -0.6315461 5.999641
v -0.6315483 -0.6315461 6.239527
v -0.6315483 -0.6315461 8.127287
v 0.6315454 -0.6315461 8.127287
v 0.6315454 -0.6315461 6.239527
v -0.6315483 0.6315476 6.239527
v -0.7559263 0.7559246 6.263148
v 0.7559232 0.7559246 6.263148
v 0.6315454 0.6315476 6.239527
v 0.6315454 -0.6315461 6.239527
v 0.7559232 -0.7559248 6.263148
v -0.7559263 -0.7559248 6.263148
v -0.6315483 -0.6315461 6.239527
v 0.6315454 -0.6315461 5.999641
v 0.7559232 -0.7559248 5.97602
v 0.7559232 0.7559246 5.97602
v 0.6315454 0.6315476 5.999641
v -0.6315483 -0.6315461 8.127287
v -0.6883039 -0.688302 8.224069
v 0.6883014 -0.688302 8.224069
v 0.6315454 -0.6315461 8.127287
v 0.6315454 0.6315476 6.239527
v 0.6315454 0.6315476 8.127287
v -0.6315483 0.6315476 8.127287
v -0.6315483 0.6315476 6.239527
v 0.6315454 -0.6315461 6.239527
v 0.6315454 -0.6315461 8.127287
v 0.6315454 0.6315476 8.127287
v 0.6315454 0.6315476 6.239527
v -0.6315483 0.6315476 6.239527
v -0.6315483 0.6315476 8.127287
v -0.6315483 -0.6315461 8.127287
v -0.6315483 -0.6315461 6.239527
v -0.7559263 -0.7559248 5.97602
v -0.7559263 -0.7559248 6.263148
v 0.7559232 -0.7559248 6.263148
v 0.7559232 -0.7559248 5.97602
v 0.7559232 0.7559246 5.97602
v 0.7559232 0.7559246 6.263148
v -0.7559263 0.7559246 6.263148
v -0.7559263 0.7559246 5.97602
v 0.7559232 -0.7559248 5.97602
v 0.7559232 -0.7559248 6.263148
v 0.7559232 0.7559246 6.263148
v 0.7559232 0.7559246 5.97602
v -0.7559263 0.7559246 5.97602
v -0.7559263 0.7559246 6.263148
v -0.7559263 -0.7559248 6.263148
v -0.7559263 -0.7559248 5.97602
v -0.6315483 -0.6315461 5.999641
v -0.7559263 -0.7559248 5.97602
v 0.7559232 -0.7559248 5.97602
v 0.6315454 -0.6315461 5.999641
v 0.6315454 0.6315476 5.999641
v 0.7559232 0.7559246 5.97602
v -0.7559263 0.7559246 5.97602
v -0.6315483 0.6315476 5.999641
v 0.6315454 0.6315476 6.239527
v 0.7559232 0.7559246 6.263148
v 0.7559232 -0.7559248 6.263148
v 0.6315454 -0.6315461 6.239527
v -0.6315483 -0.6315461 6.239527
v -0.7559263 -0.7559248 6.263148
v -0.7559263 0.7559246 6.263148
v -0.6315483 0.6315476 6.239527
v 0.6315454 0.6315476 8.127287
v 0.6883014 0.6883033 8.224069
v -0.6883039 0.6883033 8.224069
v -0.6315483 0.6315476 8.127287
v 0.6315454 -0.6315461 8.127287
v 0.6883014 -0.688302 8.224069
v 0.6883014 0.6883033 8.224069
v 0.6315454 0.6315476 8.127287
v -0.6315483 0.6315476 8.127287
v -0.6883039 0.6883033 8.224069
v -0.6883039 -0.688302 8.224069
v -0.6315483 -0.6315461 8.127287
v 0.6883014 0.6883033 8.224069
v 0.6883016 0.6883032 8.622262
v -0.6883038 0.6883032 8.622262
v -0.6883039 0.6883033 8.224069
v -0.6883039 -0.688302 8.224069
v -0.6883038 -0.6883022 8.622262
v 0.6883016 -0.6883022 8.622262
v 0.6883014 -0.688302 8.224069
v -0.6883039 0.6883033 8.224069
v -0.6883038 0.6883032 8.622262
v -0.6883038 -0.6883022 8.622262
v -0.6883039 -0.688302 8.224069
v 0.6883014 -0.688302 8.224069
v 0.6883016 -0.6883022 8.622262
v 0.6883016 0.6883032 8.622262
v 0.6883014 0.6883033 8.224069
v -0.7182924 1.330919E-06 6.600501
v -0.7182924 -0.3053796 7.513317
v -0.7182924 -0.3053796 6.600501
v -0.7182924 1.330919E-06 7.851377
v -0.7182924 0.3053823 6.600501
v -0.7182924 0.3053823 7.513317
v 0.7152883 1.330919E-06 6.600501
v 0.7152883 -0.3053796 6.600501
v 0.7152883 -0.3053796 7.513317
v 0.7152883 1.330919E-06 7.851377
v 0.7152883 0.3053823 6.600501
v 0.7152883 0.3053823 7.513317
v -0.7182924 1.330919E-06 7.851377
v -0.7182924 0.3053823 7.513317
v 0.7152883 0.3053823 7.513317
v 0.7152883 1.330919E-06 7.851377
v -0.7182924 1.330919E-06 6.600501
v -0.7182924 -0.3053796 6.600501
v 0.7152883 -0.3053796 6.600501
v 0.7152883 1.330919E-06 6.600501
v -0.7182924 0.3053823 6.600501
v 0.7152883 0.3053823 6.600501
v -0.7182924 -0.3053796 6.600501
v -0.7182924 -0.3053796 7.513317
v 0.7152883 -0.3053796 7.513317
v 0.7152883 -0.3053796 6.600501
v -0.7182924 -0.3053796 7.513317
v -0.7182924 1.330919E-06 7.851377
v 0.7152883 1.330919E-06 7.851377
v 0.7152883 -0.3053796 7.513317
v -0.7182924 0.3053823 7.513317
v -0.7182924 0.3053823 6.600501
v 0.7152883 0.3053823 6.600501
v 0.7152883 0.3053823 7.513317
v -0.6883038 -0.6883022 8.622262
v -0.1821187 -0.1821188 9.312209
v 0.1821189 -0.1821188 9.312209
v 0.6883016 -0.6883022 8.622262
v 0.1821189 0.1821187 9.312209
v 0.1821189 -0.1821188 9.312209
v -0.1821187 -0.1821188 9.312209
v -0.1821187 0.1821187 9.312209
v 0.6883016 0.6883032 8.622262
v 0.1821189 0.1821187 9.312209
v -0.1821187 0.1821187 9.312209
v -0.6883038 0.6883032 8.622262
v 0.6883016 -0.6883022 8.622262
v 0.1821189 -0.1821188 9.312209
v 0.1821189 0.1821187 9.312209
v 0.6883016 0.6883032 8.622262
v -0.6883038 0.6883032 8.622262
v -0.1821187 0.1821187 9.312209
v -0.1821187 -0.1821188 9.312209
v -0.6883038 -0.6883022 8.622262
v -0.001502395 -0.7167875 6.600501
v 0.3038785 -0.7167875 7.513317
v 0.3038785 -0.7167875 6.600501
v -0.001502395 -0.7167875 7.851377
v -0.3068834 -0.7167875 6.600501
v -0.3068834 -0.7167875 7.513317
v -0.001502454 0.7167932 6.600501
v 0.3038785 0.7167932 6.600501
v 0.3038785 0.7167932 7.513317
v -0.001502454 0.7167932 7.851377
v -0.3068835 0.7167932 6.600501
v -0.3068835 0.7167932 7.513317
v -0.001502395 -0.7167875 7.851377
v -0.3068834 -0.7167875 7.513317
v -0.3068835 0.7167932 7.513317
v -0.001502454 0.7167932 7.851377
v -0.001502395 -0.7167875 6.600501
v 0.3038785 -0.7167875 6.600501
v 0.3038785 0.7167932 6.600501
v -0.001502454 0.7167932 6.600501
v -0.3068834 -0.7167875 6.600501
v -0.3068835 0.7167932 6.600501
v 0.3038785 -0.7167875 6.600501
v 0.3038785 -0.7167875 7.513317
v 0.3038785 0.7167932 7.513317
v 0.3038785 0.7167932 6.600501
v 0.3038785 -0.7167875 7.513317
v -0.001502395 -0.7167875 7.851377
v -0.001502454 0.7167932 7.851377
v 0.3038785 0.7167932 7.513317
v -0.3068834 -0.7167875 7.513317
v -0.3068834 -0.7167875 6.600501
v -0.3068835 0.7167932 6.600501
v -0.3068835 0.7167932 7.513317
vt 0.375 0
vt 0.375 0.25
vt 0.625 0.25
vt 0.625 0
vt 0.375 0.25
vt 0.375 0.5
vt 0.625 0.5
vt 0.625 0.25
vt 0.375 0.5
vt 0.375 0.75
vt 0.625 0.75
vt 0.625 0.5
vt 0.375 0.75
vt 0.375 1
vt 0.625 1
vt 0.625 0.75
vt 0.125 0.5
vt 0.125 0.75
vt 0.375 0.75
vt 0.375 0.5
vt 0.625 0.25
vt 0.625 0.25
vt 0.625 0
vt 0.625 0
vt 0.625 1
vt 0.625 1
vt 0.625 0.75
vt 0.625 0.75
vt 0.625 0.25
vt 0.625 0.25
vt 0.625 0.5
vt 0.625 0.5
vt 0.625 0.75
vt 0.625 0.75
vt 0.625 1
vt 0.625 1
vt 0.625 0.75
vt 0.625 0.75
vt 0.625 0.5
vt 0.625 0.5
vt 0.625 1
vt 0.625 1
vt 0.625 0.75
vt 0.625 0.75
vt 0.625 0.5
vt 0.625 0.5
vt 0.625 0.25
vt 0.625 0.25
vt 0.625 0.75
vt 0.625 0.75
vt 0.625 0.5
vt 0.625 0.5
vt 0.625 0.25
vt 0.625 0.25
vt 0.625 0
vt 0.625 0
vt 0.625 1
vt 0.625 1
vt 0.625 0.75
vt 0.625 0.75
vt 0.625 0.5
vt 0.625 0.5
vt 0.625 0.25
vt 0.625 0.25
vt 0.625 0.75
vt 0.625 0.75
vt 0.625 0.5
vt 0.625 0.5
vt 0.625 0.25
vt 0.625 0.25
vt 0.625 0
vt 0.625 0
vt 0.625 1
vt 0.625 1
vt 0.625 0.75
vt 0.625 0.75
vt 0.625 0.5
vt 0.625 0.5
vt 0.625 0.25
vt 0.625 0.25
vt 0.625 0.5
vt 0.625 0.5
vt 0.625 0.75
vt 0.625 0.75
vt 0.625 0
vt 0.625 0
vt 0.625 0.25
vt 0.625 0.25
vt 0.625 0.5
vt 0.625 0.5
vt 0.625 0.25
vt 0.625 0.25
vt 0.625 0.75
vt 0.625 0.75
vt 0.625 0.5
vt 0.625 0.5
vt 0.625 0.25
vt 0.625 0.25
vt 0.625 0
vt 0.625 0
vt 0.625 0.5
vt 0.625 0.5
vt 0.625 0.25
vt 0.625 0.25
vt 0.625 1
vt 0.625 1
vt 0.625 0.75
vt 0.625 0.75
vt 0.625 0.25
vt 0.625 0.25
vt 0.625 0
vt 0.625 0
vt 0.625 0.75
vt 0.625 0.75
vt 0.625 0.5
vt 0.625 0.5
vt 0.625 0.125
vt 0.625 0
vt 0.625 0
vt 0.625 0.125
vt 0.625 0.25
vt 0.625 0.25
vt 0.625 0.125
vt 0.625 0
vt 0.625 0
vt 0.625 0.125
vt 0.625 0.25
vt 0.625 0.25
vt 0.625 0.125
vt 0.625 0.25
vt 0.625 0.25
vt 0.625 0.125
vt 0.625 0.125
vt 0.625 0
vt 0.625 0
vt 0.625 0.125
vt 0.625 0.25
vt 0.625 0.25
vt 0.625 0
vt 0.625 0
vt 0.625 0
vt 0.625 0
vt 0.625 0
vt 0.625 0.125
vt 0.625 0.125
vt 0.625 0
vt 0.625 0.25
vt 0.625 0.25
vt 0.625 0.25
vt 0.625 0.25
vt 0.625 1
vt 0.625 1
vt 0.625 0.75
vt 0.625 0.75
vt 0.625 0.5
vt 0.625 0.75
vt 0.875 0.75
vt 0.875 0.5
vt 0.625 0.5
vt 0.625 0.5
vt 0.625 0.25
vt 0.625 0.25
vt 0.625 0.75
vt 0.625 0.75
vt 0.625 0.5
vt 0.625 0.5
vt 0.625 0.25
vt 0.625 0.25
vt 0.625 0
vt 0.625 0
vt 0.625 0.125
vt 0.625 0
vt 0.625 0
vt 0.625 0.125
vt 0.625 0.25
vt 0.625 0.25
vt 0.625 0.125
vt 0.625 0
vt 0.625 0
vt 0.625 0.125
vt 0.625 0.25
vt 0.625 0.25
vt 0.625 0.125
vt 0.625 0.25
vt 0.625 0.25
vt 0.625 0.125
vt 0.625 0.125
vt 0.625 0
vt 0.625 0
vt 0.625 0.125
vt 0.625 0.25
vt 0.625 0.25
vt 0.625 0
vt 0.625 0
vt 0.625 0
vt 0.625 0
vt 0.625 0
vt 0.625 0.125
vt 0.625 0.125
vt 0.625 0
vt 0.625 0.25
vt 0.625 0.25
vt 0.625 0.25
vt 0.625 0.25
vn -1 0 0
vn -1 0 0
vn -1 0 0
vn -1 0 0
vn 0 1 0
vn 0 1 0
vn 0 1 0
vn 0 1 0
vn 1 0 0
vn 1 0 0
vn 1 0 0
vn 1 0 0
vn 0 -1 0
vn 0 -1 0
vn 0 -1 0
vn 0 -1 0
vn 0 0 -1
vn 0 0 -1
vn 0 0 -1
vn 0 0 -1
vn 0.186581 0 -0.9824396
vn 0.186581 0 -0.9824396
vn 0.186581 0 -0.9824396
vn 0.186581 0 -0.9824396
vn 0 -1 0
vn 0 -1 0
vn 0 -1 0
vn 0 -1 0
vn 0 -0.1865838 0.982439
vn 0 -0.1865838 0.982439
vn 0 -0.1865838 0.982439
vn 0 -0.1865838 0.982439
vn 0 0.1865815 0.9824395
vn 0 0.1865815 0.9824395
vn 0 0.1865815 0.9824395
vn 0 0.1865815 0.9824395
vn -0.1865812 0 -0.9824395
vn -0.1865812 0 -0.9824395
vn -0.1865812 0 -0.9824395
vn -0.1865812 0 -0.9824395
vn 0 -0.8626133 -0.5058638
vn 0 -0.8626133 -0.5058638
vn 0 -0.8626133 -0.5058638
vn 0 -0.8626133 -0.5058638
vn 0 1 0
vn 0 1 0
vn 0 1 0
vn 0 1 0
vn 1 0 0
vn 1 0 0
vn 1 0 0
vn 1 0 0
vn -1 0 0
vn -1 0 0
vn -1 0 0
vn -1 0 0
vn 0 -1 0
vn 0 -1 0
vn 0 -1 0
vn 0 -1 0
vn 0 1 0
vn 0 1 0
vn 0 1 0
vn 0 1 0
vn 1 0 0
vn 1 0 0
vn 1 0 0
vn 1 0 0
vn -1 0 0
vn -1 0 0
vn -1 0 0
vn -1 0 0
vn 0 0.1865815 -0.9824395
vn 0 0.1865815 -0.9824395
vn 0 0.1865815 -0.9824395
vn 0 0.1865815 -0.9824395
vn 0 -0.1865838 -0.982439
vn 0 -0.1865838 -0.982439
vn 0 -0.1865838 -0.982439
vn 0 -0.1865838 -0.982439
vn -0.186576 0 0.9824405
vn -0.186576 0 0.9824405
vn -0.186576 0 0.9824405
vn -0.186576 0 0.9824405
vn 0.186581 0 0.9824396
vn 0.186581 0 0.9824396
vn 0.186581 0 0.9824396
vn 0.186581 0 0.9824396
vn 0 0.8626141 -0.5058627
vn 0 0.8626141 -0.5058627
vn 0 0.8626141 -0.5058627
vn 0 0.8626141 -0.5058627
vn 0.8626123 0 -0.5058656
vn 0.8626123 0 -0.5058656
vn 0.8626123 0 -0.5058656
vn 0.8626123 0 -0.5058656
vn -0.8626139 0 -0.5058628
vn -0.8626139 0 -0.5058628
vn -0.8626139 0 -0.5058628
vn -0.8626139 0 -0.5058628
vn 0 1 0
vn 0 1 0
vn 0 1 0
vn 0 1 0
vn 0 -1 0
vn 0 -1 0
vn 0 -1 0
vn 0 -1 0
vn -1 0 0
vn -1 0 0
vn -1 0 0
vn -1 0 0
vn 1 0 0
vn 1 0 0
vn 1 0 0
vn 1 0 0
vn -1 0 0
vn -1 0 0
vn -1 0 0
vn -1 0 0
vn -1 0 0
vn -1 0 0
vn 1 0 0
vn 1 0 0
vn 1 0 0
vn 1 0 0
vn 1 0 0
vn 1 0 0
vn 0 0.7420623 0.6703309
vn 0 0.7420623 0.6703309
vn 0 0.7420623 0.6703309
vn 0 0.7420623 0.6703309
vn 0 0 -1
vn 0 0 -1
vn 0 0 -1
vn 0 0 -1
vn 0 0 -1
vn 0 0 -1
vn 0 -1 0
vn 0 -1 0
vn 0 -1 0
vn 0 -1 0
vn 0 -0.7420623 0.6703309
vn 0 -0.7420623 0.6703309
vn 0 -0.7420623 0.6703309
vn 0 -0.7420623 0.6703309
vn 0 1 0
vn 0 1 0
vn 0 1 0
vn 0 1 0
vn 0 -0.8062812 0.5915323
vn 0 -0.8062812 0.5915323
vn 0 -0.8062812 0.5915323
vn 0 -0.8062812 0.5915323
vn 0 0 1
vn 0 0 1
vn 0 0 1
vn 0 0 1
vn 0 0.8062806 0.5915333
vn 0 0.8062806 0.5915333
vn 0 0.8062806 0.5915333
vn 0 0.8062806 0.5915333
vn 0.8062814 0 0.5915322
vn 0.8062814 0 0.5915322
vn 0.8062814 0 0.5915322
vn 0.8062814 0 0.5915322
vn -0.80628 0 0.591534
vn -0.80628 0 0.591534
vn -0.80628 0 0.591534
vn -0.80628 0 0.591534
vn 0 -1 0
vn 0 -1 0
vn 0 -1 0
vn 0 -1 0
vn 0 -1 0
vn 0 -1 0
vn 0 1 0
vn 0 1 0
vn 0 1 0
vn 0 1 0
vn 0 1 0
vn 0 1 0
vn -0.7420622 0 0.6703311
vn -0.7420622 0 0.6703311
vn -0.7420622 0 0.6703311
vn -0.7420622 0 0.6703311
vn 0 0 -1
vn 0 0 -1
vn 0 0 -1
vn 0 0 -1
vn 0 0 -1
vn 0 0 -1
vn 1 0 0
vn 1 0 0
vn 1 0 0
vn 1 0 0
vn 0.7420622 0 0.6703311
vn 0.7420622 0 0.6703311
vn 0.7420622 0 0.6703311
vn 0.7420622 0 0.6703311
vn -1 0 0
vn -1 0 0
vn -1 0 0
vn -1 0 0
g WingRoyalTraining_0
f 3/3/3 2/2/2 1/1/1
f 4/4/4 3/3/3 1/1/1
f 7/7/7 6/6/6 5/5/5
f 8/8/8 7/7/7 5/5/5
f 11/11/11 10/10/10 9/9/9
f 12/12/12 11/11/11 9/9/9
f 15/15/15 14/14/14 13/13/13
f 16/16/16 15/15/15 13/13/13
f 19/19/19 18/18/18 17/17/17
f 20/20/20 19/19/19 17/17/17
f 23/23/23 22/22/22 21/21/21
f 24/24/24 23/23/23 21/21/21
f 27/27/27 26/26/26 25/25/25
f 28/28/28 27/27/27 25/25/25
f 31/31/31 30/30/30 29/29/29
f 32/32/32 31/31/31 29/29/29
f 35/35/35 34/34/34 33/33/33
f 36/36/36 35/35/35 33/33/33
f 39/39/39 38/38/38 37/37/37
f 40/40/40 39/39/39 37/37/37
f 43/43/43 42/42/42 41/41/41
f 44/44/44 43/43/43 41/41/41
f 47/47/47 46/46/46 45/45/45
f 48/48/48 47/47/47 45/45/45
f 51/51/51 50/50/50 49/49/49
f 52/52/52 51/51/51 49/49/49
f 55/55/55 54/54/54 53/53/53
f 56/56/56 55/55/55 53/53/53
f 59/59/59 58/58/58 57/57/57
f 60/60/60 59/59/59 57/57/57
f 63/63/63 62/62/62 61/61/61
f 64/64/64 63/63/63 61/61/61
f 67/67/67 66/66/66 65/65/65
f 68/68/68 67/67/67 65/65/65
f 71/71/71 70/70/70 69/69/69
f 72/72/72 71/71/71 69/69/69
f 75/75/75 74/74/74 73/73/73
f 76/76/76 75/75/75 73/73/73
f 79/79/79 78/78/78 77/77/77
f 80/80/80 79/79/79 77/77/77
f 83/83/83 82/82/82 81/81/81
f 84/84/84 83/83/83 81/81/81
f 87/87/87 86/86/86 85/85/85
f 88/88/88 87/87/87 85/85/85
f 91/91/91 90/90/90 89/89/89
f 92/92/92 91/91/91 89/89/89
f 95/95/95 94/94/94 93/93/93
f 96/96/96 95/95/95 93/93/93
f 99/99/99 98/98/98 97/97/97
f 100/100/100 99/99/99 97/97/97
f 103/103/103 102/102/102 101/101/101
f 104/104/104 103/103/103 101/101/101
f 107/107/107 106/106/106 105/105/105
f 108/108/108 107/107/107 105/105/105
f 111/111/111 110/110/110 109/109/109
f 112/112/112 111/111/111 109/109/109
f 115/115/115 114/114/114 113/113/113
f 116/116/116 115/115/115 113/113/113
f 119/119/119 118/118/118 117/117/117
f 118/118/118 120/120/120 117/117/117
f 117/117/117 120/120/120 121/121/121
f 120/120/120 122/122/122 121/121/121
f 125/125/125 124/124/124 123/123/123
f 126/126/126 125/125/125 123/123/123
f 126/126/126 123/123/123 127/127/127
f 128/128/128 126/126/126 127/127/127
f 131/131/131 130/130/130 129/129/129
f 132/132/132 131/131/131 129/129/129
f 135/135/135 134/134/134 133/133/133
f 136/136/136 135/135/135 133/133/133
f 136/136/136 133/133/133 137/137/137
f 138/138/138 136/136/136 137/137/137
f 141/141/141 140/140/140 139/139/139
f 142/142/142 141/141/141 139/139/139
f 145/145/145 144/144/144 143/143/143
f 146/146/146 145/145/145 143/143/143
f 149/149/149 148/148/148 147/147/147
f 150/150/150 149/149/149 147/147/147
f 153/153/153 152/152/152 151/151/151
f 154/154/154 153/153/153 151/151/151
f 157/157/157 156/156/156 155/155/155
f 158/158/158 157/157/157 155/155/155
f 161/161/161 160/160/160 159/159/159
f 162/162/162 161/161/161 159/159/159
f 165/165/165 164/164/164 163/163/163
f 166/166/166 165/165/165 163/163/163
f 169/169/169 168/168/168 167/167/167
f 170/170/170 169/169/169 167/167/167
f 173/173/173 172/172/172 171/171/171
f 172/172/172 174/174/174 171/171/171
f 171/171/171 174/174/174 175/175/175
f 174/174/174 176/176/176 175/175/175
f 179/179/179 178/178/178 177/177/177
f 180/180/180 179/179/179 177/177/177
f 180/180/180 177/177/177 181/181/181
f 182/182/182 180/180/180 181/181/181
f 185/185/185 184/184/184 183/183/183
f 186/186/186 185/185/185 183/183/183
f 189/189/189 188/188/188 187/187/187
f 190/190/190 189/189/189 187/187/187
f 190/190/190 187/187/187 191/191/191
f 192/192/192 190/190/190 191/191/191
f 195/195/195 194/194/194 193/193/193
f 196/196/196 195/195/195 193/193/193
f 199/199/199 198/198/198 197/197/197
f 200/200/200 199/199/199 197/197/197
f 203/203/203 202/202/202 201/201/201
f 204/204/204 203/203/203 201/201/201
